<svg width="207" height="182" xmlns="http://www.w3.org/2000/svg">
    <title>
        cartouche-square
    </title>
    <g fill="none" fill-rule="evenodd">
        <path d="M17.738 46.388c0-23.745 19.257-43.02 43.02-43.02h86.02c23.763 0 43.037 19.275 43.037 43.02l-.34 80.71c9.906 4.935 13.965 13.643 13.965 23.548 0 15.377-13.178 27.84-32.72 27.84H36.834c-19.543 0-32.72-12.463-32.72-27.84 0-10.263 3.45-19.239 13.946-24.066l-.322-80.192" fill="#FFF" fill-rule="nonzero"/>
        <path d="M17.738 46.388c0-23.745 19.257-43.02 43.02-43.02h86.02c23.763 0 43.037 19.275 43.037 43.02l-.34 80.71c9.906 4.935 13.965 13.643 13.965 23.548 0 15.377-13.178 27.84-32.72 27.84H36.834c-19.543 0-32.72-12.463-32.72-27.84 0-10.263 3.45-19.239 13.946-24.066l-.322-80.192z" stroke="#231F20" stroke-width="6.667" stroke-linecap="round" stroke-linejoin="round"/>
    </g>
</svg>
