<svg width="207" height="326" xmlns="http://www.w3.org/2000/svg">
    <title>
        cartouche-square-vertical
    </title>
    <g fill="none" fill-rule="evenodd">
        <path d="M17.164 46.67c0-23.761 19.264-43.026 43.005-43.026h86.051c23.741 0 43.005 19.265 43.005 43.026l-.324 224.34c9.906 4.939 13.957 13.637 13.957 23.542 0 15.383-13.167 27.853-32.714 27.853H36.266c-19.547 0-32.735-12.47-32.735-27.853 0-10.264 3.464-19.23 13.978-24.06L17.164 46.67" fill="#FFF" fill-rule="nonzero"/>
        <path d="M17.164 46.67c0-23.761 19.264-43.026 43.005-43.026h86.051c23.741 0 43.005 19.265 43.005 43.026l-.324 224.34c9.906 4.939 13.957 13.637 13.957 23.542 0 15.383-13.167 27.853-32.714 27.853H36.266c-19.547 0-32.735-12.47-32.735-27.853 0-10.264 3.464-19.23 13.978-24.06L17.164 46.67z" stroke="#231F20" stroke-width="6.667" stroke-linecap="round" stroke-linejoin="round"/>
    </g>
</svg>
