<svg width="399" height="327" xmlns="http://www.w3.org/2000/svg">
    <title>
        cartouche-square-double
    </title>
    <g fill="none" fill-rule="evenodd">
        <path d="M170.13 323.391H36.251c-19.548 0-32.715-12.47-32.715-27.85 0-10.265 3.464-19.232 13.957-24.064V69.847l-.222-23.121c0-23.933 19.406-43.333 43.329-43.333h277.194c23.923 0 43.208 19.4 43.208 43.333v23.121l-.102 202.149c9.906 4.938 13.957 13.637 13.957 23.544 0 15.381-13.167 27.851-32.714 27.851H170.129" fill="#FFF" fill-rule="nonzero"/>
        <path d="M170.13 323.391H36.251c-19.548 0-32.715-12.47-32.715-27.85 0-10.265 3.464-19.232 13.957-24.064V69.847l-.222-23.121c0-23.933 19.406-43.333 43.329-43.333h277.194c23.923 0 43.208 19.4 43.208 43.333v23.121l-.102 202.149c9.906 4.938 13.957 13.637 13.957 23.544 0 15.381-13.167 27.851-32.714 27.851H170.129z" stroke="#231F20" stroke-width="6.667" stroke-linecap="round" stroke-linejoin="round"/>
    </g>
</svg>
