<svg width="399" height="327" xmlns="http://www.w3.org/2000/svg">
    <title>
        cartouche-round-double
    </title>
    <g fill="none" fill-rule="evenodd">
        <path d="M170.105 323.4H36.22c-19.543 0-32.727-12.47-32.727-27.853 0-10.264 3.455-19.23 13.974-24.062V69.855c0-37.246 38.366-66.106 85.688-66.106h192.002c47.321 0 85.704 28.86 85.704 66.105v202.15c9.901 4.939 13.958 13.637 13.958 23.543 0 15.382-13.167 27.853-32.728 27.853H170.105" fill="#FFF" fill-rule="nonzero"/>
        <path d="M170.105 323.4H36.22c-19.543 0-32.727-12.47-32.727-27.853 0-10.264 3.455-19.23 13.974-24.062V69.855c0-37.246 38.366-66.106 85.688-66.106h192.002c47.321 0 85.704 28.86 85.704 66.105v202.15c9.901 4.939 13.958 13.637 13.958 23.543 0 15.382-13.167 27.853-32.728 27.853H170.105" stroke="#231F20" stroke-width="6.667"/>
    </g>
</svg>
