<svg width="207" height="183" xmlns="http://www.w3.org/2000/svg">
    <title>
        cartouche-round
    </title>
    <g fill="none" fill-rule="evenodd">
        <path d="M189.27 128.108c9.906 4.937 13.967 13.632 13.967 23.538 0 15.384-13.17 27.854-32.727 27.854H36.639c-19.557 0-32.727-12.47-32.727-27.854 0-10.272 3.456-19.238 13.967-24.064v-58c0-37.25 38.364-66.108 85.711-66.108 47.315 0 85.68 28.857 85.68 66.107v58.527" fill="#FFF" fill-rule="nonzero"/>
        <path d="M189.27 128.108c9.906 4.937 13.967 13.632 13.967 23.538 0 15.384-13.17 27.854-32.727 27.854H36.639c-19.557 0-32.727-12.47-32.727-27.854 0-10.272 3.456-19.238 13.967-24.064v-58c0-37.25 38.364-66.108 85.711-66.108 47.315 0 85.68 28.857 85.68 66.107v58.527z" stroke="#231F20" stroke-width="6.667" stroke-linecap="round" stroke-linejoin="round"/>
    </g>
</svg>
