<svg width="207" height="327" xmlns="http://www.w3.org/2000/svg">
    <title>
        cartouche-round-vertical
    </title>
    <g fill="none" fill-rule="evenodd">
        <path d="M188.95 271.919c9.885 4.942 13.958 13.632 13.958 23.534 0 15.389-13.18 27.862-32.713 27.862H36.3c-19.534 0-32.732-12.473-32.732-27.862 0-10.246 3.476-19.226 13.976-24.06V69.774c0-37.258 38.362-66.116 85.703-66.116 47.324 0 85.703 28.858 85.703 66.115V271.92" fill="#FFF" fill-rule="nonzero"/>
        <path d="M188.95 271.919c9.885 4.942 13.958 13.632 13.958 23.534 0 15.389-13.18 27.862-32.713 27.862H36.3c-19.534 0-32.732-12.473-32.732-27.862 0-10.246 3.476-19.226 13.976-24.06V69.774c0-37.258 38.362-66.116 85.703-66.116 47.324 0 85.703 28.858 85.703 66.115V271.92z" stroke="#231F20" stroke-width="6.667" stroke-linecap="round" stroke-linejoin="round"/>
    </g>
</svg>
