<svg width="366" height="51" xmlns="http://www.w3.org/2000/svg">
    <title>
        colon-double
    </title>
    <g fill="none">
        <path d="M362.533 24.907c0 12.24-9.92 22.16-22.16 22.16H25.545c-12.242 0-22.166-9.92-22.166-22.16S13.303 2.733 25.545 2.733h314.828c12.24 0 22.16 9.933 22.16 22.174" fill="#FFF"/>
        <path d="M359.8 24.907s0-.16-.013-.494c.013-.32-.027-.8-.08-1.44-.12-1.266-.4-3.16-1.334-5.453a19.447 19.447 0 0 0-5.266-7.333c-2.667-2.347-6.56-4.36-11.134-4.72-.453-.054-1.293-.067-1.813-.067-.68 0-1.36 0-2.053-.013-1.387 0-2.8.013-4.254.013h-29.626c-14.64 0-31.16-.013-49.187-.013-36.04-.014-78.093-.027-123.144-.04l-69.459.04c-11.828 0-23.748.013-35.716.013H25.6l-.996.04c-.657.04-1.312.12-1.961.213a19.602 19.602 0 0 0-3.8 1.014 19.383 19.383 0 0 0-6.59 4.2c-3.788 3.64-5.966 8.826-5.874 14.04.024 5.213 2.313 10.293 6.112 13.786a19.025 19.025 0 0 0 6.53 3.96 17.89 17.89 0 0 0 3.71.907l.944.106.886.054 2.16.013H255.04c18.027.014 34.547.014 49.187.027 7.32.04 14.173.08 20.52.12 3.16.027 6.2.053 9.106.08 1.454.027 2.867.04 4.254.053.693 0 1.373.013 2.053.013.64 0 1.173 0 1.747-.053 4.56-.293 8.373-2.213 11.066-4.507a19.24 19.24 0 0 0 5.307-7.213 19.254 19.254 0 0 0 1.413-5.413c.027-.293.04-.547.067-.774.013-.266.013-.493.027-.666.013-.374.013-.56.013-.56v.067zm5.467.066v.56c-.014.187-.014.427-.027.707-.013.333-.04.707-.067 1.133a24.884 24.884 0 0 1-1.693 7.027 24.853 24.853 0 0 1-6.707 9.454c-3.426 3.04-8.4 5.653-14.386 6.16-.72.08-1.52.093-2.227.106-.68 0-1.36.013-2.053.013l-4.254.04c-2.906.04-5.946.067-9.106.093-6.347.04-13.2.08-20.52.12-14.64.014-31.16.014-49.187.014H25.6l-1.207-.027-1.353-.107-1.284-.173a24.778 24.778 0 0 1-4.984-1.32 25.462 25.462 0 0 1-8.644-5.466C3.163 38.573.273 31.733.378 24.907.39 18.08 3.39 11.347 8.366 6.76a24.914 24.914 0 0 1 8.586-5.24 23.907 23.907 0 0 1 4.894-1.2 26.33 26.33 0 0 1 2.506-.227L25.6.067l1.121.013c11.968 0 23.888 0 35.716.013l69.459.04C176.946.12 219 .107 255.04.093c18.027 0 34.547-.013 49.187-.013h29.626c1.454 0 2.867 0 4.254.013C338.8.08 339.48.08 340.16.08c.827.013 1.32.013 2.173.08 5.96.44 10.854 2.973 14.307 5.96 3.467 3 5.56 6.427 6.747 9.334a24.712 24.712 0 0 1 1.76 6.986c.066.813.106 1.426.106 1.84.014.413.027.627.027.627l-.013.066z" fill="#231F20"/>
        <path d="M28.061 44.08l.782-.04c.254 0 .569-.014.938-.04.182 0 .378-.013.586-.027.166-.026.344-.053.532-.08.376-.053.794-.12 1.249-.186.481-.12 1.004-.253 1.56-.387.556-.147 1.119-.387 1.732-.587.605-.226 1.2-.56 1.85-.84 1.235-.693 2.554-1.506 3.762-2.6 1.26-1.04 2.36-2.386 3.377-3.84 1.007-1.48 1.764-3.173 2.364-4.946.239-.894.515-1.8.624-2.747.079-.48.168-.947.174-1.427l.042-.707.023-.36.012-.186.007-.08.002-.053.002-.014c.002.054-.003-.16.005.107-.063-1.04-.043-2.28-.221-3.067-.082-.853-.338-1.786-.562-2.707-.568-1.786-1.298-3.52-2.286-5.026-1-1.493-2.09-2.88-3.35-3.96-1.205-1.147-2.532-2-3.781-2.72-.656-.307-1.259-.653-1.873-.893-.623-.227-1.198-.48-1.763-.64-.57-.16-1.101-.294-1.595-.427-.502-.093-.965-.16-1.382-.227-.832-.186-1.51-.133-1.96-.186-.455-.027-.698-.054-.698-.054v-4.8l.866.04c.561.054 1.397 0 2.438.187.523.08 1.102.16 1.731.253.619.16 1.288.32 2.003.507.71.187 1.438.493 2.22.76.774.293 1.544.707 2.369 1.08 1.585.88 3.264 1.933 4.808 3.333 1.599 1.333 3.017 3.04 4.305 4.92 1.278 1.894 2.259 4.053 3.011 6.334.313 1.147.648 2.293.805 3.6.25 1.346.219 2.307.308 3.426l.002.187-.003.066-.004.107-.01.227-.018.453-.039.92c-.005.614-.1 1.214-.189 1.814-.13 1.213-.447 2.386-.745 3.56-.719 2.293-1.674 4.493-2.932 6.413-1.271 1.906-2.679 3.653-4.276 5.04-1.544 1.44-3.23 2.547-4.828 3.453-.832.4-1.611.827-2.394 1.134-.792.293-1.53.613-2.25.813-.728.2-1.408.373-2.038.547-.665.12-1.3.213-1.864.306-.282.04-.55.08-.802.12l-.604.04c-.368.014-.683.04-.938.053-.508.028-.78.04-.78.04l-.304-5.986m309.486 5.986s-.267-.012-.774-.04c-.253-.013-.573-.04-.933-.053l-.613-.04c-.254-.04-.52-.08-.8-.12-.56-.093-1.2-.187-1.867-.306-.627-.174-1.307-.347-2.027-.547-.733-.2-1.466-.52-2.253-.813-.787-.307-1.56-.734-2.4-1.134-1.6-.906-3.28-2.013-4.827-3.453-1.6-1.387-3-3.134-4.28-5.04-1.253-1.92-2.213-4.12-2.933-6.413-.293-1.174-.613-2.347-.733-3.56-.094-.6-.187-1.2-.2-1.814l-.04-.92-.014-.453-.013-.227v-.36c.093-1.12.053-2.08.307-3.426.16-1.307.493-2.453.813-3.6.747-2.28 1.72-4.44 3-6.334 1.293-1.88 2.707-3.587 4.307-4.92 1.546-1.4 3.226-2.453 4.813-3.333.827-.373 1.587-.787 2.373-1.08.774-.267 1.507-.573 2.214-.76.72-.187 1.386-.347 2-.507C333.293.72 333.88.64 334.4.56c1.04-.187 1.88-.133 2.44-.187l.867-.04v4.8s-.24.027-.694.054c-.453.053-1.133 0-1.96.186-.426.067-.88.134-1.386.227-.494.133-1.027.267-1.6.427-.56.16-1.134.413-1.76.64-.614.24-1.214.586-1.88.893-1.24.72-2.574 1.573-3.774 2.72-1.266 1.08-2.346 2.467-3.346 3.96-.987 1.507-1.72 3.24-2.294 5.026-.226.92-.48 1.854-.56 2.707-.173.787-.16 2.027-.213 3.067v-.107V25l.013.08.014.186.013.36.04.707c.013.48.107.947.187 1.427.106.947.373 1.853.613 2.747.6 1.773 1.36 3.466 2.373 4.947 1.014 1.453 2.107 2.799 3.374 3.84 1.213 1.093 2.52 1.906 3.76 2.6.653.28 1.24.613 1.853.84.613.2 1.173.44 1.733.586.547.134 1.08.266 1.56.387.454.066.867.133 1.24.187.2.026.374.053.534.08.213.013.413.026.586.026.374.026.68.04.947.04l.773.04-.306 5.986" fill="#231F20"/>
    </g>
</svg>
