<svg width="180" height="51" xmlns="http://www.w3.org/2000/svg">
    <title>
        colon-single
    </title>
    <g fill="none">
        <path d="M176.627 25.133c0 12.24-9.92 22.16-22.174 22.16H25.46c-12.243 0-22.167-9.92-22.167-22.16S13.216 2.96 25.459 2.96h128.994c12.254 0 22.174 9.933 22.174 22.173" fill="#FFF"/>
        <path d="M173.893 25.133s-.013-.346-.053-1c-.027-.333 0-.746-.08-1.226-.067-.48-.147-1.04-.24-1.667-.16-.613-.307-1.32-.533-2.067-.294-.733-.507-1.56-.947-2.386a18.628 18.628 0 0 0-3.587-5.227 19.425 19.425 0 0 0-6.493-4.44c-1.32-.507-2.827-1-4.267-1.2-.346-.053-.706-.12-1.08-.173-.44-.027-.893-.054-1.346-.067l-.694-.04-.173-.013h.053-1.84c-7.573 0-16.106-.014-25.413-.027-18.627 0-40.347-.013-63.62-.013l-35.884.04-2.287.013-2.02.12c-.662.12-1.332.2-1.992.333-.646.187-1.31.32-1.946.547a19.384 19.384 0 0 0-6.927 4.08 19.166 19.166 0 0 0-4.663 6.56c-.297.6-.46 1.267-.702 1.893-.208.627-.326 1.294-.499 1.947l-.279 1.853-.093 2.307c.01-.253.008 0 .013-.027l.01.134.017.253.033.493.067 1.014c.123.653.21 1.32.347 1.973.192.64.326 1.293.55 1.92.26.613.438 1.267.75 1.853 1.122 2.414 2.77 4.56 4.744 6.32a18.957 18.957 0 0 0 6.808 3.867c.621.2 1.266.32 1.894.493l1.775.28 2.275.107h2.125c12.22-.027 24.245-.053 35.884-.08l33.553-.04c10.667.027 20.76.053 30.067.067 9.307.026 17.84.04 25.413.053.934 0 1.934.013 2.64-.027.4-.013.787-.026 1.16-.053.387-.053.76-.107 1.134-.16 1.493-.187 2.88-.64 4.186-1.12a19.294 19.294 0 0 0 6.427-4.173 18.2 18.2 0 0 0 3.693-5.04c.467-.8.694-1.627 1-2.334.24-.746.4-1.44.574-2.04.106-.586.2-1.093.28-1.546.08-.44.08-.987.106-1.334.054-.746.08-1.146.08-1.146v.146zm5.467.134l-.04 1.146c-.027.387 0 .787-.08 1.44-.093.654-.2 1.414-.307 2.267-.2.8-.386 1.693-.666 2.667-.347.946-.654 2.013-1.187 3.08-.973 2.173-2.4 4.573-4.533 6.813-2.107 2.253-4.867 4.413-8.32 5.907-1.734.693-3.6 1.32-5.614 1.64-.493.08-1 .16-1.52.24-.506.04-1.026.066-1.56.106-1.106.08-1.96.054-2.92.067-7.573.013-16.106.027-25.413.053-9.307.014-19.4.04-30.067.054-10.666-.014-21.916-.027-33.553-.04-11.639-.014-23.664-.04-35.884-.067l-2.461-.013-2.314-.147c-.922-.133-1.873-.253-2.769-.44-.852-.24-1.719-.427-2.555-.707A25.46 25.46 0 0 1 8.515 44C5.89 41.627 3.8 38.68 2.384 35.44c-.384-.8-.621-1.653-.93-2.48-.274-.84-.446-1.72-.663-2.573-.162-.867-.263-1.747-.388-2.614l-.063-1.32-.025-.666-.011-.32-.007-.174c0-.12-.006.04-.001-.32l.153-2.333c.142-.907.27-1.853.456-2.747.236-.84.426-1.706.715-2.533.325-.813.58-1.653.977-2.44 1.468-3.187 3.619-6.027 6.211-8.333a25.054 25.054 0 0 1 8.965-5.12c.822-.267 1.67-.44 2.503-.654.845-.16 1.703-.266 2.552-.386a53.798 53.798 0 0 1 2.568-.12h2.3c12.22.013 24.245.026 35.884.04C86.853.333 108.573.333 127.2.333c9.307-.013 17.84-.026 25.413-.04h1.747l.48.027.693.027c.454.026.92.053 1.36.08.534.066 1.054.146 1.574.226 2.053.307 3.813.894 5.533 1.56 3.4 1.414 6.147 3.48 8.267 5.64a24.098 24.098 0 0 1 4.626 6.627c.56 1.053.88 2.107 1.24 3.04.294.96.507 1.853.707 2.64.12.8.24 1.52.333 2.133.094.614.08 1.147.12 1.56.04.84.067 1.28.067 1.28v.134z" fill="#231F20"/>
        <path d="M27.976 44.307l.781-.04c.255-.014.568-.027.938-.04.181 0 .377-.014.585-.027.167-.027.344-.053.532-.08.377-.067.795-.12 1.25-.187.482-.12 1.003-.253 1.56-.386.555-.147 1.12-.387 1.731-.587.606-.227 1.202-.56 1.851-.84 1.235-.693 2.553-1.507 3.761-2.6 1.26-1.04 2.362-2.387 3.379-3.84 1.005-1.48 1.763-3.173 2.364-4.947.237-.906.513-1.813.623-2.76.078-.466.169-.933.174-1.413l.043-.707.023-.36.01-.186.007-.08.003-.054.001-.013c.003.053-.003-.16.005.107-.061-1.054-.042-2.28-.221-3.067-.081-.853-.337-1.787-.561-2.707-.568-1.8-1.299-3.52-2.287-5.026-.999-1.494-2.09-2.88-3.35-3.96-1.205-1.147-2.531-2-3.78-2.72-.655-.307-1.26-.654-1.874-.894-.623-.226-1.196-.48-1.763-.64a47.718 47.718 0 0 0-1.593-.426c-.504-.094-.967-.16-1.384-.24-.832-.174-1.508-.12-1.96-.174-.455-.026-.697-.053-.697-.053V.56l.865.04c.561.053 1.397 0 2.439.187.522.08 1.101.16 1.73.253.619.16 1.288.32 2.003.507.71.186 1.439.493 2.22.76.775.293 1.544.693 2.37 1.08 1.585.88 3.263 1.933 4.807 3.333 1.599 1.333 3.018 3.04 4.307 4.92 1.277 1.88 2.259 4.053 3.01 6.333.313 1.147.647 2.294.806 3.6.25 1.347.217 2.307.307 3.427l.001.187-.003.053-.004.12-.009.227-.017.453-.04.92c-.006.613-.1 1.213-.19 1.813-.13 1.214-.446 2.387-.744 3.56-.72 2.294-1.674 4.494-2.933 6.414-1.27 1.906-2.679 3.653-4.276 5.04-1.543 1.44-3.228 2.533-4.828 3.453-.832.4-1.61.827-2.393 1.133-.791.294-1.53.614-2.251.814-.727.2-1.408.373-2.036.546-.667.12-1.301.214-1.865.307-.283.04-.551.08-.803.107a65.5 65.5 0 0 0-.603.04c-.369.026-.684.04-.937.066l-.781.04-.303-5.986m123.664 5.986l-.787-.04c-.253-.026-.56-.04-.933-.066a67.878 67.878 0 0 0-.6-.04c-.253-.027-.52-.067-.8-.107-.573-.093-1.2-.187-1.867-.307-.626-.173-1.306-.346-2.04-.546-.72-.2-1.453-.52-2.253-.814-.787-.306-1.56-.733-2.387-1.133-1.6-.92-3.293-2.013-4.826-3.453-1.6-1.387-3.014-3.134-4.28-5.04-1.267-1.92-2.214-4.12-2.934-6.414-.293-1.173-.613-2.346-.746-3.56-.094-.6-.187-1.2-.187-1.813l-.04-.92-.013-.453-.014-.227v-.12l-.013-.053.013-.187c.08-1.12.054-2.08.307-3.427.147-1.306.493-2.453.8-3.6.747-2.28 1.733-4.453 3.013-6.333 1.28-1.88 2.707-3.587 4.307-4.92 1.547-1.4 3.213-2.453 4.8-3.333.827-.387 1.6-.787 2.373-1.08.787-.267 1.507-.574 2.227-.76.707-.187 1.373-.347 2-.507.627-.093 1.2-.173 1.72-.253C149.533.6 150.36.653 150.92.6l.867-.04v4.8s-.24.027-.694.053c-.453.054-1.133 0-1.96.174-.413.08-.88.146-1.386.24a42.17 42.17 0 0 0-1.587.426c-.573.16-1.147.414-1.76.64-.627.24-1.227.587-1.88.894-1.253.72-2.573 1.573-3.787 2.72-1.253 1.08-2.346 2.466-3.346 3.96-.987 1.506-1.72 3.226-2.28 5.026-.227.92-.48 1.854-.56 2.707-.187.787-.16 2.013-.227 3.067.013-.267 0-.054 0-.107l.013.013v.134l.014.186.026.36.04.707c0 .48.094.947.174 1.413.106.947.386 1.854.626 2.76.6 1.774 1.36 3.467 2.36 4.947 1.014 1.453 2.12 2.8 3.374 3.84 1.213 1.093 2.533 1.907 3.773 2.6.64.28 1.24.613 1.84.84.613.2 1.187.44 1.733.587.56.133 1.08.266 1.56.386.454.067.88.12 1.254.187.186.027.36.053.533.08.2.013.4.027.587.027.36.013.68.026.933.04l.787.04-.307 5.986" fill="#231F20"/>
    </g>
</svg>
