<svg width="180" height="51" xmlns="http://www.w3.org/2000/svg">
    <title>
        comma-single
    </title>
    <g fill="none">
        <path d="M176.604 25.133c0 12.24-9.924 22.16-22.167 22.16h-129c-12.242 0-22.166-9.92-22.166-22.16S13.195 2.96 25.437 2.96h129c12.243 0 22.167 9.933 22.167 22.173" fill="#FFF"/>
        <path d="M173.87 25.133l-.049-1c-.026-.333-.005-.746-.077-1.226l-.244-1.667c-.163-.613-.313-1.32-.536-2.067-.285-.733-.508-1.56-.947-2.386a18.42 18.42 0 0 0-3.584-5.227 19.464 19.464 0 0 0-6.496-4.44c-1.32-.507-2.821-1-4.26-1.2-.357-.053-.717-.12-1.081-.173a44.637 44.637 0 0 0-1.353-.067l-.688-.04-.172-.013h.048-1.843c-7.564 0-16.099-.014-25.41-.027-18.62 0-40.343-.013-63.62-.013l-35.883.04-2.287.013-2.019.12c-.664.12-1.333.2-1.993.333-.647.187-1.31.32-1.947.547a19.384 19.384 0 0 0-6.926 4.08c-4.016 3.653-6.335 9.027-6.232 14.413.046 5.4 2.541 10.6 6.526 14.08a18.957 18.957 0 0 0 6.808 3.867c.622.2 1.267.32 1.895.493l1.775.28 2.274.107h2.126c12.22-.027 24.245-.053 35.884-.08l33.556-.04c10.668.027 20.753.053 30.064.067 9.31.026 17.845.04 25.409.053.933 0 1.933.013 2.65-.027.39-.013.777-.026 1.16-.053l1.125-.16c1.494-.187 2.881-.64 4.19-1.12a19.354 19.354 0 0 0 6.431-4.173 18.228 18.228 0 0 0 3.693-5.04c.46-.8.694-1.627.996-2.334.238-.746.404-1.44.579-2.04.103-.586.193-1.093.27-1.546.085-.44.08-.987.117-1.334l.074-1.146-.004.146zm5.466.134s-.015.386-.041 1.146c-.026.387.001.787-.079 1.44-.09.654-.192 1.414-.31 2.267-.191.8-.383 1.693-.666 2.667-.344.946-.65 2.013-1.187 3.08a24.08 24.08 0 0 1-4.521 6.813c-2.108 2.253-4.87 4.413-8.323 5.907-1.741.693-3.608 1.32-5.616 1.64l-1.517.24c-.515.04-1.035.066-1.559.106-1.109.08-1.972.054-2.929.067-7.564.013-16.099.027-25.41.053-9.31.014-19.395.04-30.063.054-10.668-.014-21.919-.027-33.556-.04-11.639-.014-23.664-.04-35.884-.067l-2.462-.013-2.312-.147c-.924-.133-1.874-.253-2.77-.44-.852-.24-1.719-.427-2.555-.707A25.46 25.46 0 0 1 8.493 44C3.233 39.267.153 32.187.271 25.133.303 18.067 3.56 11.16 8.787 6.587a25.054 25.054 0 0 1 8.965-5.12c.821-.267 1.67-.44 2.503-.654.845-.16 1.702-.266 2.552-.386a53.737 53.737 0 0 1 2.568-.12h2.3c12.22.013 24.245.026 35.884.04 23.276-.014 45-.014 63.62-.014 9.31-.013 17.845-.026 25.409-.04h1.756l.481.027.688.027 1.364.08c.526.066 1.047.146 1.563.226 2.063.307 3.815.894 5.544 1.56 3.393 1.414 6.143 3.48 8.259 5.64a24.09 24.09 0 0 1 4.63 6.627c.559 1.053.875 2.107 1.236 3.04.298.96.506 1.853.71 2.64.126.8.238 1.52.336 2.133.092.614.082 1.147.117 1.56l.067 1.28-.003.134z" fill="#231F20"/>
    </g>
</svg>
