<svg width="354" height="51" xmlns="http://www.w3.org/2000/svg">
    <title>
        comma-double
    </title>
    <g fill="none">
        <path d="M350.528 24.907c0 12.24-9.925 22.16-22.167 22.16H25.515c-12.243 0-22.167-9.92-22.167-22.16S13.272 2.733 25.515 2.733H328.36c12.242 0 22.167 9.933 22.167 22.174" fill="#FFF"/>
        <path d="M347.793 24.907l-.006-.48c.005-.307-.018-.773-.062-1.4-.109-1.227-.341-3.067-1.226-5.307-.884-2.227-2.419-4.84-4.982-7.227-2.549-2.346-6.205-4.413-10.682-4.973a9445916295861318 9445916295861318 0 0 0-7.707-.173h-8.827c-6.138 0-12.777 0-19.87-.014-14.186.014-30.191.014-47.652.014-34.92 0-75.662.013-119.312.026-21.826.014-44.379.014-67.295.027H25.569c-5.13.027-10.142 2.16-13.697 5.813a19.108 19.108 0 0 0-4.137 6.307 19.137 19.137 0 0 0-1.059 3.627 21.824 21.824 0 0 0-.255 1.866l-.057.88-.017 1.094c.032 2.373.553 4.973 1.542 7.24a19.094 19.094 0 0 0 4.218 6.146c3.577 3.493 8.504 5.453 13.462 5.36H246.78c17.461.014 33.466.014 47.652.027 7.093.04 13.732.08 19.87.12 3.07.027 6.014.053 8.827.08 1.407.013 2.781.04 4.121.053h1l.868-.013c.564-.013 1.122-.04 1.667-.12 4.39-.493 8.016-2.467 10.565-4.747a19.414 19.414 0 0 0 5.004-7.093c.898-2.2 1.198-4.04 1.327-5.253.027-.28.05-.534.07-.76l.025-.654.018-.533v.067zm5.468.066s-.002.187-.009.547l-.013.68c-.022.307-.046.68-.074 1.093a24.647 24.647 0 0 1-1.585 6.814 24.974 24.974 0 0 1-6.313 9.306 24.96 24.96 0 0 1-13.724 6.48 23.51 23.51 0 0 1-2.19.2l-1.104.04h-1c-1.34.014-2.714.04-4.121.054l-8.827.08c-6.138.04-12.777.08-19.87.12-14.186.013-30.191.013-47.652.013H25.569c-6.654 0-13.29-2.787-17.932-7.546C2.943 38.12.256 31.586.348 24.826l.039-1.093.102-1.293c.095-.827.219-1.64.384-2.44a24.957 24.957 0 0 1 7-12.8C12.535 2.587 19.087-.027 25.57.067 37.164.08 48.713.08 60.172.08c22.916.013 45.47.013 67.295.027 43.65.013 84.392.026 119.312.026 17.461 0 33.466 0 47.652.014 7.093-.014 13.732-.014 19.87-.014h12.948c1.276-.013 2.791 0 4.242.187 5.685.693 10.357 3.293 13.608 6.253a24.68 24.68 0 0 1 6.336 9.187c1.121 2.853 1.525 5.187 1.686 6.76.076.787.115 1.374.12 1.787l.022.6-.002.066z" fill="#231F20"/>
    </g>
</svg>
