<svg width="385" height="313" xmlns="http://www.w3.org/2000/svg">
    <title>
        e-double
    </title>
    <g fill="none" fill-rule="evenodd">
        <path d="M349.273 243.04c22.74 0 26.878 14.92 26.878 33.307 0 18.4-4.138 33.306-26.878 33.306h-55.082" fill="#FFF" fill-rule="nonzero"/>
        <path d="M349.33 240.373s.602.014 1.731.014c1.176.04 3.023.106 5.244.44 2.244.333 5.015.933 8.046 2.306 2.998 1.374 6.245 3.694 8.69 7.054 2.48 3.346 4.043 7.52 4.954 11.84.914 4.346 1.234 8.906 1.298 13.546.044 4.6-.074 9.494-.996 14.494-.476 2.493-1.156 5.026-2.186 7.52-1.064 2.466-2.452 4.906-4.356 7.013a22.351 22.351 0 0 1-6.656 5.093c-2.471 1.254-5.075 2.067-7.639 2.547-2.57.493-5.112.693-7.587.72-2.336.013-4.644.027-6.914.027-4.516-.014-8.88-.04-13.02-.054-4.139-.026-8.054-.026-11.666-.093-7.225-.107-13.245-.2-17.46-.32-4.214-.12-6.622-.2-6.622-.2v-5.333l6.622-.187c4.215-.12 10.235-.213 17.46-.32 3.612-.067 7.527-.067 11.666-.093 4.14-.014 8.504-.04 13.02-.054h6.838c2.171-.013 4.339-.173 6.43-.573 4.182-.773 8.018-2.52 10.658-5.52 2.696-2.96 4.232-7.08 5.056-11.387.824-4.333 1.047-8.826 1.055-13.24.001-4.386-.253-8.586-.996-12.346-.73-3.774-2.007-7.094-3.77-9.614-1.757-2.546-4.035-4.253-6.315-5.386-2.306-1.107-4.572-1.68-6.479-2.014-1.941-.333-3.41-.426-4.49-.493-1.127-.027-1.73-.053-1.73-.053l.115-5.334" fill="#231F20" fill-rule="nonzero"/>
        <path d="M351.47 199.573c22.742 0 26.878 14.907 26.878 33.307 0 18.4-4.136 33.307-26.877 33.307h-55.083" fill="#FFF" fill-rule="nonzero"/>
        <path d="M351.528 196.907s.603-.014 1.732-.027c.552-.013 1.36.013 2.243.053.888.067 1.884.12 3.021.28 2.255.32 5.061.854 8.125 2.227 3.031 1.387 6.324 3.72 8.806 7.133 2.522 3.374 4.101 7.587 5.005 11.934.92 4.373 1.18 8.96 1.216 13.6-.007 4.6-.212 9.506-1.177 14.493-.498 2.493-1.2 5.013-2.25 7.493-1.081 2.454-2.485 4.88-4.396 6.947-1.873 2.093-4.182 3.787-6.646 5-2.462 1.227-5.05 2.013-7.6 2.467-2.554.48-5.082.653-7.54.64-2.335-.04-4.642-.067-6.911-.094-9.03-.12-17.46-.253-24.685-.346-7.226-.147-13.246-.267-17.46-.347-4.215-.107-6.623-.173-6.623-.173v-4s2.408-.054 6.623-.16a5055.39 5055.39 0 0 1 17.46-.347c7.225-.107 15.654-.227 24.685-.36 2.247-.04 4.53-.067 6.843-.107 2.186-.053 4.369-.24 6.474-.666 4.214-.814 8.08-2.64 10.707-5.694 2.684-3.013 4.173-7.16 4.955-11.466.781-4.347.916-8.827.873-13.24-.027-4.387-.34-8.56-1.079-12.307-.734-3.747-1.996-7-3.718-9.507-1.72-2.506-3.952-4.2-6.2-5.333a25.413 25.413 0 0 0-6.399-2.08c-1.93-.36-3.392-.48-4.47-.573-1.126-.067-1.727-.107-1.727-.107l.113-5.333" fill="#231F20" fill-rule="nonzero"/>
        <path d="M351.47 156.107c22.742 0 26.878 14.906 26.878 33.306 0 18.387-4.136 33.307-26.877 33.307h-55.083" fill="#FFF" fill-rule="nonzero"/>
        <path d="M351.528 153.44l1.732-.04c.552-.013 1.36.027 2.243.067.888.066 1.884.106 3.021.28 2.255.32 5.061.853 8.125 2.226 3.031 1.387 6.324 3.72 8.806 7.12 2.522 3.374 4.101 7.587 5.005 11.947.92 4.373 1.18 8.947 1.216 13.587-.007 4.613-.212 9.506-1.177 14.493-.498 2.493-1.2 5.027-2.25 7.493-1.081 2.454-2.485 4.88-4.396 6.947-1.873 2.093-4.182 3.8-6.646 5.013-2.462 1.227-5.05 2-7.6 2.467a39.525 39.525 0 0 1-7.54.627l-6.911-.08c-9.03-.134-17.46-.254-24.685-.36a5055.09 5055.09 0 0 1-17.46-.347c-4.215-.107-6.623-.16-6.623-.16v-4s2.408-.067 6.623-.173c4.214-.08 10.234-.2 17.46-.347 7.225-.107 15.654-.227 24.685-.347 2.247-.04 4.53-.08 6.843-.106 2.186-.054 4.369-.254 6.474-.667 4.214-.827 8.08-2.64 10.707-5.693 2.684-3.014 4.173-7.16 4.955-11.48.781-4.347.916-8.814.873-13.227-.027-4.387-.34-8.56-1.079-12.307-.734-3.746-1.996-7.013-3.718-9.506-1.72-2.507-3.952-4.2-6.2-5.334a25.413 25.413 0 0 0-6.399-2.08c-1.93-.373-3.392-.493-4.47-.586a132.994 132.994 0 0 0-1.727-.094l.113-5.333" fill="#231F20" fill-rule="nonzero"/>
        <path d="M351.47 112.627c22.742 0 26.878 14.92 26.878 33.306 0 18.4-4.136 33.32-26.877 33.32h-55.083" fill="#FFF" fill-rule="nonzero"/>
        <path d="M351.528 109.96s.603 0 1.732-.027c.552-.013 1.36.027 2.243.054.888.066 1.884.12 3.021.293 2.255.307 5.061.853 8.125 2.227 3.031 1.386 6.324 3.72 8.806 7.12 2.522 3.373 4.101 7.586 5.005 11.933.92 4.387 1.18 8.96 1.216 13.6-.007 4.613-.212 9.507-1.177 14.493-.498 2.494-1.2 5.027-2.25 7.494-1.081 2.453-2.485 4.88-4.396 6.946-1.873 2.094-4.182 3.8-6.646 5.014-2.462 1.226-5.05 2-7.6 2.466-2.554.467-5.082.64-7.54.627l-6.911-.08c-9.03-.133-17.46-.253-24.685-.36-7.226-.133-13.246-.267-17.46-.347-4.215-.106-6.623-.16-6.623-.16v-4s2.408-.066 6.623-.173c4.214-.08 10.234-.2 17.46-.347 7.225-.106 15.654-.226 24.685-.36 2.247-.026 4.53-.066 6.843-.106 2.186-.04 4.369-.24 6.474-.654 4.214-.826 8.08-2.64 10.707-5.706 2.684-3.014 4.173-7.147 4.955-11.467.781-4.347.916-8.827.873-13.24-.027-4.373-.34-8.547-1.079-12.293-.734-3.747-1.996-7.014-3.718-9.507-1.72-2.52-3.952-4.2-6.2-5.333-2.272-1.107-4.503-1.734-6.399-2.094-1.93-.36-3.392-.48-4.47-.573-1.126-.067-1.727-.107-1.727-.107l.113-5.333" fill="#231F20" fill-rule="nonzero"/>
        <path d="M252.47 309.653h70.28c18.192 0 28.54-15.163 28.54-33.864v-67.757 22.586-67.743c0-14.677 2.216-27.153 7.477-33.948 5.259-6.795 22.145-11.223 22.145-34.171v-57.23c0-18.714-.45-33.878-18.642-33.878h-78.164 2.036-242.43C7.328 3.648 4.23 49.404 4.23 86.819v178.61c0 37.415 3.097 44.224 39.483 44.224h242.429" fill="#FFF" fill-rule="nonzero"/>
        <path d="M252.47 309.653h70.28c18.192 0 28.54-15.163 28.54-33.864v-67.757 22.586-67.743c0-14.677 2.216-27.153 7.477-33.948 5.259-6.795 22.145-11.223 22.145-34.171v-57.23c0-18.714-.45-33.878-18.642-33.878h-78.164 2.036-242.43C7.328 3.648 4.23 49.404 4.23 86.819v178.61c0 37.415 3.097 44.224 39.483 44.224h242.429" stroke="#231F20" stroke-width="6.667"/>
    </g>
</svg>
