<svg width="363" height="205" xmlns="http://www.w3.org/2000/svg">
    <title>
        e-horizontal
    </title>
    <g fill="none" fill-rule="evenodd">
        <path d="M320.45 152.973c27.585 0 32.602 10.907 32.602 24.347 0 13.44-5.017 24.333-32.601 24.333h-66.816" fill="#FFF" fill-rule="nonzero"/>
        <path d="M320.485 150.307h1.806c1.161 0 3.029.04 5.28.186 2.277.174 5.056.44 8.252 1.107 3.176.707 6.849 1.773 10.505 4.12 1.808 1.173 3.59 2.707 5.048 4.613 1.485 1.907 2.613 4.147 3.372 6.494.747 2.36 1.156 4.8 1.328 7.24a45.71 45.71 0 0 1 .128 3.68l-.004.88-.03.96a40.89 40.89 0 0 1-.114 1.906c-.22 2.547-.681 5.227-1.705 7.867-1.004 2.64-2.631 5.2-4.743 7.24-2.104 2.067-4.608 3.627-7.177 4.733-2.575 1.12-5.223 1.867-7.858 2.4-5.258 1.04-10.558 1.267-15.56 1.24-4.944 0-9.81-.013-14.52-.013-4.708-.027-9.261-.04-13.577-.067-4.317 0-8.399-.066-12.165-.12-7.535-.066-13.815-.186-18.21-.28a3391.01 3391.01 0 0 1-6.906-.173v-5.333s2.512-.054 6.906-.16a1198.87 1198.87 0 0 1 18.21-.294c3.766-.04 7.848-.12 12.165-.12 4.316-.026 8.87-.04 13.577-.053 4.71-.013 9.576-.013 14.52-.027 4.879.04 9.671-.16 14.286-1.04 4.565-.893 8.897-2.533 11.773-5.333 2.904-2.773 4.243-6.76 4.644-11.04.368-4.347.216-8.72-.85-12.24-1.06-3.547-3.175-6.187-5.853-7.973-2.658-1.814-5.698-2.854-8.461-3.534-2.781-.653-5.321-.973-7.421-1.186a76.181 76.181 0 0 0-4.91-.294 96.665 96.665 0 0 1-1.805-.053l.07-5.333" fill="#231F20" fill-rule="nonzero"/>
        <path d="M323.116 121.213c27.584 0 32.601 10.894 32.601 24.347 0 13.44-5.017 24.333-32.601 24.333H256.3" fill="#FFF" fill-rule="nonzero"/>
        <path d="M323.15 118.547s.629-.014 1.806-.054c1.163-.04 3.035-.013 5.292.094 2.283.133 5.081.333 8.293 1.013 3.195.693 6.898 1.773 10.604 4.133 3.712 2.28 7.086 6.44 8.519 11.254.736 2.386 1.128 4.853 1.283 7.306.084 1.24.112 2.44.096 3.694l-.018.88-.042.96c-.03.653-.083 1.28-.14 1.92-.255 2.56-.758 5.226-1.81 7.866-1.028 2.627-2.674 5.174-4.797 7.187-2.117 2.04-4.623 3.573-7.19 4.653-2.575 1.094-5.218 1.814-7.847 2.32-5.248.974-10.526 1.16-15.519 1.054-4.945-.054-9.812-.107-14.52-.16-9.419-.12-18.21-.227-25.744-.334-15.07-.266-25.116-.44-25.116-.44v-4s10.047-.186 25.116-.453c7.535-.093 16.325-.2 25.744-.32 4.708-.053 9.575-.107 14.52-.173 4.884-.04 9.699-.28 14.324-1.214 4.576-.946 8.917-2.64 11.77-5.506 2.886-2.8 4.163-6.8 4.487-11.08.284-4.334.115-8.694-.98-12.147-1.062-3.507-3.13-6.053-5.753-7.84-2.61-1.787-5.62-2.827-8.364-3.507a63.616 63.616 0 0 0-7.38-1.28 91.603 91.603 0 0 0-4.899-.386 289.41 289.41 0 0 1-1.804-.107l.07-5.333" fill="#231F20" fill-rule="nonzero"/>
        <path d="M323.116 89.453c27.584 0 32.601 10.894 32.601 24.347 0 13.427-5.017 24.333-32.601 24.333H256.3" fill="#FFF" fill-rule="nonzero"/>
        <path d="M323.15 86.787s.629-.014 1.806-.054c1.163-.04 3.035-.013 5.292.094 2.283.133 5.081.333 8.293 1.013 3.195.693 6.898 1.773 10.604 4.133 3.712 2.28 7.086 6.44 8.519 11.254.736 2.386 1.128 4.853 1.283 7.306.084 1.24.112 2.44.096 3.694l-.018.866-.042.974a44.24 44.24 0 0 1-.14 1.92c-.255 2.546-.758 5.226-1.81 7.866-1.028 2.627-2.674 5.16-4.797 7.187-2.117 2.04-4.623 3.573-7.19 4.653-2.575 1.094-5.218 1.814-7.847 2.32-5.248.974-10.526 1.16-15.519 1.054-4.945-.054-9.812-.107-14.52-.16-9.419-.12-18.21-.24-25.744-.334-15.07-.266-25.116-.44-25.116-.44v-4s10.047-.186 25.116-.453c7.535-.093 16.325-.2 25.744-.32 4.708-.053 9.575-.12 14.52-.173 4.884-.04 9.699-.28 14.324-1.227 4.576-.933 8.917-2.627 11.77-5.493 2.886-2.814 4.163-6.814 4.487-11.08.284-4.334.115-8.694-.98-12.16-1.062-3.494-3.13-6.054-5.753-7.827-2.61-1.787-5.62-2.84-8.364-3.507a63.616 63.616 0 0 0-7.38-1.28c-2.125-.226-3.707-.32-4.899-.4-1.176-.053-1.804-.093-1.804-.093l.07-5.333" fill="#231F20" fill-rule="nonzero"/>
        <path d="M323.116 57.693c27.584 0 32.601 10.894 32.601 24.334s-5.017 24.346-32.601 24.346H256.3" fill="#FFF" fill-rule="nonzero"/>
        <path d="M323.15 55.027s.629-.014 1.806-.054c1.163-.04 3.035-.013 5.292.08 2.283.147 5.081.347 8.293 1.027 3.195.693 6.898 1.76 10.604 4.12 3.712 2.293 7.086 6.453 8.519 11.267.736 2.373 1.128 4.853 1.283 7.306a45.08 45.08 0 0 1 .096 3.694l-.018.866-.042.974a44.24 44.24 0 0 1-.14 1.92c-.255 2.546-.758 5.226-1.81 7.853-1.028 2.627-2.674 5.173-4.797 7.2-2.117 2.027-4.623 3.56-7.19 4.653-2.575 1.094-5.218 1.814-7.847 2.307-5.248.987-10.526 1.173-15.519 1.067-4.945-.054-9.812-.107-14.52-.16-9.419-.12-18.21-.24-25.744-.334-15.07-.266-25.116-.44-25.116-.44v-4s10.047-.186 25.116-.453c7.535-.093 16.325-.213 25.744-.32 4.708-.067 9.575-.12 14.52-.173 4.884-.04 9.699-.294 14.324-1.227 4.576-.933 8.917-2.64 11.77-5.493 2.886-2.814 4.163-6.814 4.487-11.08.284-4.334.115-8.694-.98-12.16-1.062-3.494-3.13-6.054-5.753-7.827-2.61-1.8-5.62-2.84-8.364-3.507a58.38 58.38 0 0 0-7.38-1.28c-2.125-.226-3.707-.32-4.899-.4-1.176-.053-1.804-.093-1.804-.093l.07-5.333" fill="#231F20" fill-rule="nonzero"/>
        <path d="M203.024 201.654h85.25c22.067 0 34.621-11.079 34.621-24.754v-49.492 16.502-49.507c0-10.725 5.252-22.442 9.067-24.807 3.816-2.365 26.864-8.197 26.864-24.97V28.407c0-13.674-.546-24.753-22.612-24.753H241.4h2.47H52.022C7.888 3.655 4.13 25.812 4.13 53.148v99c0 27.349 3.758 49.506 47.892 49.506H243.87" fill="#FFF" fill-rule="nonzero"/>
        <path d="M203.024 201.654h85.25c22.067 0 34.621-11.079 34.621-24.754v-49.492 16.502-49.507c0-10.725 5.252-22.442 9.067-24.807 3.816-2.365 26.864-8.197 26.864-24.97V28.407c0-13.674-.546-24.753-22.612-24.753H241.4h2.47H52.022C7.888 3.655 4.13 25.812 4.13 53.148v99c0 27.349 3.758 49.506 47.892 49.506H243.87" stroke="#231F20" stroke-width="6.667"/>
    </g>
</svg>
