<svg width="211" height="182" xmlns="http://www.w3.org/2000/svg">
    <title>
        e-single
    </title>
    <g fill="none" fill-rule="evenodd">
        <path d="M176.632 135.049c15.043 0 27.238 9.6 27.238 21.427s-12.195 21.427-27.238 21.427h-36.437" fill="#FFF" fill-rule="nonzero"/>
        <path d="M176.738 132.397s.442.015 1.272.03c.413 0 .924.016 1.526.016.669.075 1.44.151 2.301.227a37.09 37.09 0 0 1 5.946 1.258c2.227.743 4.746 1.653 7.249 3.214 2.512 1.516 5.054 3.562 7.22 6.291 2.16 2.698 3.9 6.155 4.528 10.05.173.956.18 1.956.264 2.957l.003.045-.01.243-.002.075-.01.152-.016.318-.035.637-.035.637a4.3 4.3 0 0 1-.08.712c-.196 1.046-.329 2.244-.676 3.153l-.473 1.456c-.174.485-.41.94-.619 1.41-1.72 3.713-4.444 6.882-7.63 9.262-3.18 2.395-6.777 4.108-10.456 5.2-3.658 1.09-7.51 1.515-11.015 1.5-6.629-.06-12.815-.045-18.12-.151-5.302-.107-9.721-.198-12.814-.319-3.094-.121-4.861-.182-4.861-.182v-5.336s1.767-.076 4.861-.197c3.093-.121 7.512-.212 12.815-.303 5.304-.121 11.49-.106 18.12-.167 3.12 0 6.137-.318 9.165-1.197 2.995-.85 5.884-2.229 8.36-4.063 2.494-1.834 4.493-4.2 5.715-6.807.144-.318.324-.636.446-.97l.332-1c.288-.698.29-1.243.474-1.865l.055-.227.022-.319.047-.636.082-1.046c-.066-.682-.035-1.38-.148-2.032-.38-2.683-1.542-5.169-3.12-7.23-1.575-2.077-3.549-3.714-5.52-5.003-1.967-1.319-4.035-2.137-5.866-2.82-1.851-.606-3.57-1-4.92-1.212-.674-.091-1.276-.182-1.799-.258a39.959 39.959 0 0 0-1.522-.091l-1.269-.091.213-5.32" fill="#231F20" fill-rule="nonzero"/>
        <path d="M178.085 107.1c15.042 0 27.237 9.586 27.237 21.424s-12.195 21.425-27.237 21.425h-36.438" fill="#FFF" fill-rule="nonzero"/>
        <path d="M178.192 104.435s.443-.015 1.272-.015c.414 0 .926-.015 1.529-.015.673.061 1.445.122 2.312.199 1.721.184 3.708.506 5.996 1.165 2.244.72 4.783 1.64 7.31 3.204 2.54 1.518 5.13 3.557 7.301 6.332 2.187 2.729 3.907 6.255 4.503 10.18.166.966.166 1.977.238 2.974l.003.046-.01.26-.005.077-.011.153-.025.322-.046.629-.047.644c-.008.2-.034.43-.094.72-.213 1.043-.365 2.239-.728 3.159l-.492 1.44c-.181.491-.423.936-.635 1.396-1.764 3.695-4.522 6.837-7.722 9.168-3.193 2.345-6.792 4.016-10.457 5.044-3.644 1.057-7.466 1.364-10.94 1.303-6.63-.123-12.816-.246-18.119-.353-5.304-.153-9.722-.276-12.816-.353l-4.862-.168v-4.002s1.77-.06 4.862-.168c3.094-.077 7.512-.2 12.816-.353 5.303-.107 11.49-.214 18.119-.352 3.149-.062 6.201-.476 9.24-1.395 3.009-.905 5.899-2.33 8.361-4.232 2.476-1.87 4.446-4.277 5.623-6.899.138-.322.313-.644.43-.98l.31-1.013c.274-.69.257-1.242.423-1.84l.047-.23.018-.321.034-.644.057-1.027c-.075-.675-.052-1.365-.172-2.009-.415-2.652-1.596-5.059-3.146-7.098-1.568-2.024-3.497-3.664-5.44-4.952-1.942-1.334-3.99-2.146-5.803-2.82-1.83-.63-3.531-1.074-4.873-1.304-.67-.123-1.266-.215-1.786-.307-.6-.046-1.108-.092-1.52-.122-.827-.077-1.267-.123-1.267-.123l.212-5.32" fill="#231F20" fill-rule="nonzero"/>
        <path d="M178.086 79.129c15.043 0 27.236 9.586 27.236 21.432 0 11.832-12.193 21.418-27.236 21.418h-36.437" fill="#FFF" fill-rule="nonzero"/>
        <path d="M178.193 76.465s.443-.016 1.272-.016c.414 0 .926-.015 1.529-.015.671.062 1.445.124 2.311.201a33.97 33.97 0 0 1 5.995 1.163c2.245.729 4.784 1.643 7.313 3.194 2.538 1.519 5.128 3.565 7.3 6.34 2.186 2.729 3.907 6.248 4.502 10.185.166.977.166 1.97.239 2.977l.003.046-.01.264-.006.077-.01.155-.025.31-.047.636-.047.636a4.247 4.247 0 0 1-.093.713c-.213 1.054-.365 2.248-.728 3.162l-.493 1.457c-.18.481-.423.93-.634 1.396-1.764 3.69-4.522 6.82-7.722 9.146-3.195 2.357-6.792 4.015-10.458 5.054-3.643 1.054-7.466 1.364-10.94 1.302-6.629-.124-12.815-.248-18.118-.356-5.303-.14-9.723-.264-12.816-.341l-4.861-.17v-4l4.861-.171c3.093-.093 7.513-.202 12.816-.357 5.303-.108 11.489-.217 18.118-.356 3.15-.062 6.2-.48 9.24-1.395 3.01-.9 5.9-2.326 8.361-4.217 2.478-1.876 4.447-4.294 5.625-6.914.138-.326.311-.636.428-.977l.313-1.008c.271-.697.254-1.24.42-1.844l.048-.233.017-.325.036-.636.055-1.039c-.074-.666-.05-1.348-.172-2-.414-2.65-1.595-5.053-3.145-7.1-1.567-2.03-3.497-3.658-5.441-4.96-1.94-1.318-3.99-2.14-5.803-2.822-1.83-.62-3.53-1.054-4.873-1.302-.67-.109-1.266-.202-1.785-.295-.599-.046-1.109-.093-1.521-.124-.826-.077-1.267-.124-1.267-.124l.213-5.317" fill="#231F20" fill-rule="nonzero"/>
        <path d="M178.086 51.158c15.044 0 27.238 9.598 27.238 21.42 0 11.837-12.194 21.435-27.238 21.435h-36.437" fill="#FFF" fill-rule="nonzero"/>
        <path d="M178.191 48.516s.442-.016 1.272-.016c.415-.015.928-.015 1.53-.015.672.062 1.445.125 2.311.188a35.16 35.16 0 0 1 5.996 1.175c2.244.721 4.783 1.646 7.312 3.198 2.537 1.52 5.128 3.574 7.299 6.332 2.186 2.743 3.907 6.254 4.503 10.188.166.972.166 1.975.238 2.978l.003.047-.009.251-.006.079-.011.156-.025.33-.046.626-.047.627a4.103 4.103 0 0 1-.094.721c-.213 1.05-.365 2.242-.727 3.166l-.494 1.443c-.18.485-.423.94-.635 1.394-1.763 3.7-4.52 6.834-7.72 9.17-3.195 2.35-6.792 4.012-10.458 5.031-3.643 1.066-7.466 1.38-10.94 1.317-6.63-.126-12.816-.251-18.118-.36-5.304-.142-9.723-.267-12.817-.346l-4.86-.172v-3.997l4.86-.172c3.094-.079 7.513-.204 12.817-.345 5.302-.11 11.489-.235 18.119-.36 3.149-.063 6.199-.487 9.238-1.396 3.011-.909 5.9-2.335 8.362-4.232 2.477-1.865 4.445-4.279 5.624-6.896.138-.33.312-.643.428-.972l.313-1.019c.272-.69.254-1.238.42-1.85l.049-.219.017-.329.035-.627.056-1.05c-.075-.674-.052-1.348-.172-2.006-.414-2.633-1.594-5.047-3.146-7.085-1.567-2.038-3.497-3.668-5.44-4.969-1.94-1.316-3.99-2.131-5.803-2.82-1.83-.628-3.531-1.067-4.873-1.302-.67-.11-1.266-.204-1.785-.298-.599-.047-1.108-.094-1.52-.125a61.536 61.536 0 0 0-1.267-.11l.211-5.329" fill="#231F20" fill-rule="nonzero"/>
        <path d="M112.595 177.895h43.58c12.034 0 21.79-9.745 21.79-21.787v-43.573 14.53-43.59c0-9.443 12.322-18.422 14.405-20.495 2.08-2.09 14.648-8.55 14.648-23.319v-14.29c0-12.026-9.755-21.787-21.789-21.787h-51.705 1.346-87.16c-24.07 0-43.58 19.506-43.58 43.574v87.163c0 24.068 19.51 43.574 43.58 43.574h87.16" fill="#FFF" fill-rule="nonzero"/>
        <path d="M112.595 177.895h43.58c12.034 0 21.79-9.745 21.79-21.787v-43.573 14.53-43.59c0-9.443 12.322-18.422 14.405-20.495 2.08-2.09 14.648-8.55 14.648-23.319v-14.29c0-12.026-9.755-21.787-21.789-21.787h-51.705 1.346-87.16c-24.07 0-43.58 19.506-43.58 43.574v87.163c0 24.068 19.51 43.574 43.58 43.574h87.16" stroke="#231F20" stroke-width="6.667"/>
    </g>
</svg>
