<svg width="206" height="301" xmlns="http://www.w3.org/2000/svg">
    <title>
        e-vertical
    </title>
    <g fill="none" fill-rule="evenodd">
        <path d="M174.944 225.16c19.884 0 23.5 16.133 23.5 36.04 0 19.893-3.616 36.027-23.5 36.027H126.78" fill="#FFF" fill-rule="nonzero"/>
        <path d="M175.015 222.493s.572.014 1.646.027c.562.027 1.343.08 2.207.147.85.106 1.827.213 2.923.453 2.178.453 4.884 1.28 7.626 3.053 2.739 1.747 5.376 4.507 7.2 7.92 1.871 3.387 3.031 7.307 3.764 11.4.738 4.094 1.05 8.4 1.168 12.787.104 4.413.083 8.907-.328 13.613-.446 4.667-1.245 9.52-3.233 14.254-.984 2.36-2.323 4.68-4.085 6.706-1.734 2.054-3.95 3.747-6.316 4.96-2.374 1.227-4.898 1.934-7.351 2.32-1.23.2-2.447.307-3.647.374l-1.774.04h-1.618c-4.298.026-8.453-.014-12.393-.027-3.939-.027-7.664-.053-11.103-.08-6.876-.12-12.606-.2-16.617-.333-4.012-.134-6.304-.214-6.304-.214v-5.333s2.292-.067 6.304-.2c4.01-.133 9.741-.213 16.617-.333 3.439-.027 7.164-.054 11.103-.08 3.94-.014 8.095-.067 12.393-.04h1.618l1.486-.027a26.27 26.27 0 0 0 2.91-.28c1.909-.293 3.756-.813 5.397-1.653 3.313-1.64 5.816-4.6 7.384-8.347 1.601-3.733 2.379-8.027 2.804-12.32.44-4.28.528-8.693.484-12.867-.053-4.2-.297-8.213-.908-11.88-.603-3.666-1.579-6.986-2.956-9.666-1.365-2.694-3.196-4.654-5.125-5.974-1.932-1.32-3.95-2.013-5.676-2.413-.862-.213-1.663-.32-2.356-.427-.688-.066-1.227-.133-1.739-.16-1.073-.04-1.647-.066-1.647-.066l.142-5.334" fill="#231F20" fill-rule="nonzero"/>
        <path d="M176.865 178.133c19.884 0 23.5 16.134 23.5 36.04 0 19.894-3.616 36.027-23.5 36.027h-48.164" fill="#FFF" fill-rule="nonzero"/>
        <path d="M176.936 175.467s.573 0 1.648-.014c.561 0 1.348.04 2.215.094.854.093 1.837.186 2.942.413 2.192.427 4.939 1.213 7.728 2.987 2.774 1.76 5.452 4.546 7.302 7.986 1.901 3.427 3.081 7.374 3.804 11.48.749 4.12 1.01 8.44 1.097 12.84.077 4.427-.03 8.907-.499 13.614-.492 4.666-1.333 9.52-3.356 14.226-1.001 2.334-2.352 4.627-4.117 6.627-1.737 2.027-3.944 3.68-6.296 4.867-4.708 2.386-9.99 2.706-14.285 2.546-8.596-.133-16.619-.266-23.496-.373-6.876-.16-12.607-.28-16.618-.373l-6.304-.187v-4s2.292-.067 6.304-.173l16.618-.387c6.877-.107 14.9-.227 23.496-.36l1.617-.027 1.501-.066c.99-.054 1.975-.16 2.94-.32 1.931-.32 3.799-.867 5.456-1.747 3.348-1.693 5.84-4.733 7.371-8.507 1.567-3.773 2.303-8.066 2.683-12.36.382-4.293.382-8.693.313-12.866-.085-4.187-.379-8.187-.979-11.84-.614-3.64-1.569-6.934-2.916-9.587-1.338-2.667-3.13-4.587-5.022-5.893-1.887-1.32-3.864-2.054-5.576-2.48-.851-.227-1.648-.347-2.336-.467-.684-.08-1.219-.16-1.731-.213a236.791 236.791 0 0 1-1.645-.107l.141-5.333" fill="#231F20" fill-rule="nonzero"/>
        <path d="M176.865 131.107c19.884 0 23.5 16.133 23.5 36.04 0 19.893-3.616 36.026-23.5 36.026h-48.164" fill="#FFF" fill-rule="nonzero"/>
        <path d="M176.936 128.44s.573 0 1.648-.013c.561 0 1.348.04 2.215.093.854.093 1.837.2 2.942.413 2.192.427 4.939 1.214 7.728 2.987 2.774 1.76 5.452 4.547 7.302 7.987 1.901 3.426 3.081 7.373 3.804 11.48.749 4.12 1.01 8.44 1.097 12.84.077 4.426-.03 8.906-.499 13.613-.492 4.667-1.333 9.52-3.356 14.227-1.001 2.333-2.352 4.626-4.117 6.626-1.737 2.027-3.944 3.68-6.296 4.867-4.708 2.4-9.99 2.707-14.285 2.547-8.596-.134-16.619-.267-23.496-.374-6.876-.16-12.607-.28-16.618-.373l-6.304-.187v-4s2.292-.066 6.304-.173c4.011-.093 9.742-.227 16.618-.373 6.877-.12 14.9-.24 23.496-.374l1.617-.026 1.501-.067c.99-.053 1.975-.16 2.94-.32 1.931-.32 3.799-.867 5.456-1.747 3.348-1.693 5.84-4.733 7.371-8.506 1.567-3.76 2.303-8.067 2.683-12.36.382-4.294.382-8.694.313-12.867-.085-4.187-.379-8.187-.979-11.84-.614-3.64-1.569-6.92-2.916-9.573-1.338-2.68-3.13-4.6-5.022-5.907-1.887-1.32-3.864-2.053-5.576-2.48-.851-.227-1.648-.347-2.336-.467-.684-.08-1.219-.16-1.731-.213-1.073-.067-1.645-.107-1.645-.107l.141-5.333" fill="#231F20" fill-rule="nonzero"/>
        <path d="M176.866 84.081c19.884 0 23.5 16.127 23.5 36.03 0 19.905-3.616 36.031-23.5 36.031h-48.163" fill="#FFF" fill-rule="nonzero"/>
        <path d="M176.932 81.435s.574-.014 1.648-.027a59.5 59.5 0 0 1 2.216.094c.854.094 1.837.201 2.942.416 2.193.429 4.94 1.207 7.729 2.99 2.773 1.757 5.451 4.546 7.3 7.98 1.902 3.433 3.082 7.375 3.805 11.493.748 4.117 1.01 8.421 1.097 12.834.078 4.412-.03 8.904-.499 13.611-.492 4.667-1.333 9.522-3.356 14.216-1 2.347-2.351 4.626-4.118 6.638-1.736 2.025-3.944 3.675-6.295 4.855-4.708 2.4-9.99 2.722-14.286 2.548-8.595-.134-16.618-.255-23.495-.362a5756.43 5756.43 0 0 0-16.618-.376l-6.304-.188v-3.996s2.292-.067 6.304-.174l16.618-.39c6.877-.107 14.9-.227 23.495-.361l1.617-.027 1.502-.067a26.803 26.803 0 0 0 2.94-.322c1.931-.322 3.8-.858 5.455-1.743 3.35-1.704 5.84-4.734 7.372-8.516 1.567-3.755 2.303-8.06 2.682-12.351.383-4.292.383-8.69.314-12.861-.086-4.198-.38-8.194-.979-11.842-.614-3.648-1.569-6.933-2.917-9.589-1.338-2.668-3.13-4.586-5.022-5.887-1.887-1.328-3.863-2.065-5.576-2.48-.85-.229-1.647-.35-2.335-.47-.685-.08-1.219-.161-1.731-.215-1.073-.067-1.646-.107-1.646-.107l.141-5.324" fill="#231F20" fill-rule="nonzero"/>
        <path d="M90.298 297.236h61.451c15.908 0 24.956-16.412 24.956-36.642v-73.3 24.438-73.285c0-15.885 1.937-29.367 6.537-36.726 4.599-7.36 19.363-12.136 19.363-36.976V37.044c0-20.23-3.87-32.963-19.777-32.963H117.96h1.78-81.77C6.157 4.08 3.448 23.423 3.448 63.898v172.3c0 40.475 2.71 61.038 34.524 61.038h81.77" fill="#FFF" fill-rule="nonzero"/>
        <path d="M90.298 297.236h61.451c15.908 0 24.956-16.412 24.956-36.642v-73.3 24.438-73.285c0-15.885 1.937-29.367 6.537-36.726 4.599-7.36 19.363-12.136 19.363-36.976V37.044c0-20.23-3.87-32.963-19.777-32.963H117.96h1.78-81.77C6.157 4.08 3.448 23.423 3.448 63.898v172.3c0 40.475 2.71 61.038 34.524 61.038h81.77" stroke="#231F20" stroke-width="6.667"/>
    </g>
</svg>
