<svg width="365" height="52" xmlns="http://www.w3.org/2000/svg">
    <title>
        exclamation-double
    </title>
    <g fill="none" fill-rule="evenodd">
        <path fill="#FFF" fill-rule="nonzero" d="M46.893 27.08l12.64 19.653 15.614-19.8 12.573 19.8 14.08-19.8 14.093 19.8 12.574-19.8 15.613 19.8 12.64-19.653 12.64 19.653 15.613-19.8 12.574 19.8 14.08-19.8 14.093 19.8 12.573-19.8 15.614 19.8 12.64-19.653 12.64 19.653 15.613-19.8 12.573 19.8 14.094-19.8"/>
        <path d="M48.907 25.773c4.32 6.493 8.706 12.947 12.96 19.467l-4.507-.214 7.707-9.972 7.76-9.934a2.932 2.932 0 0 1 4.12-.507c.266.213.493.453.666.72l.014.027c4.2 6.6 8.466 13.147 12.586 19.787l-4.906-.12c2.373-3.28 4.706-6.587 7.12-9.84l7.2-9.8.053-.067a2.642 2.642 0 0 1 3.693-.56c.24.173.44.4.614.627L110.88 35.4l6.987 9.933-4.014.107c2.134-3.267 4.174-6.614 6.254-9.92 2.08-3.307 4.16-6.613 6.2-9.96a2.517 2.517 0 0 1 3.466-.84c.254.146.467.346.64.56l.067.067 7.96 9.786c2.64 3.267 5.32 6.507 7.933 9.8l-4.76.227 6.267-9.867c2.107-3.28 4.24-6.533 6.373-9.813v-.014a2.948 2.948 0 0 1 4.067-.866c.36.24.653.547.867.88 4.2 6.574 8.253 13.227 12.386 19.84l-4.28-.213c2.654-3.267 5.32-6.507 7.934-9.8l7.853-9.853a2.43 2.43 0 0 1 3.4-.388c.2.174.387.374.52.588l6.347 9.866c2.093 3.293 4.266 6.546 6.4 9.813l-4.334-.106c4.614-6.667 9.147-13.373 13.827-19.987a2.928 2.928 0 0 1 4.08-.707c.28.187.507.427.693.68l.014.027c2.36 3.293 4.76 6.56 7.093 9.867l6.987 9.947-4.84.12 6.413-9.814 6.44-9.8.053-.08c.76-1.173 2.347-1.493 3.52-.72.24.16.454.36.627.587a797.327 797.327 0 0 0 7.707 9.973c2.586 3.306 5.146 6.653 7.786 9.92l-3.946.186 6.266-9.866 6.174-9.934c.76-1.24 2.4-1.613 3.64-.84.32.2.6.467.8.76l.053.08 6.467 9.734c2.173 3.24 4.28 6.52 6.413 9.787l-4.813-.24c2.586-3.307 5.16-6.64 7.786-9.92l7.84-9.867.014-.013a2.917 2.917 0 0 1 4.773.253l6.253 9.933 6.187 9.96-4.613-.12c2.386-3.28 4.76-6.56 7.173-9.813l7.227-9.773a2.405 2.405 0 0 1 3.36-.507 2.404 2.404 0 0 1 .546 3.293l-6.866 10.027c-2.28 3.347-4.6 6.666-6.907 9.987-.88 1.253-2.6 1.56-3.84.693a2.649 2.649 0 0 1-.733-.76l-.04-.053-6.387-9.84-6.32-9.867 4.787.24-7.774 9.92c-2.573 3.32-5.2 6.6-7.826 9.893l-.027.027a2.927 2.927 0 0 1-4.773-.267c-2.08-3.293-4.187-6.573-6.24-9.88l-6.16-9.933h4.493l-6.48 9.733-6.373 9.8-.027.027c-.72 1.12-2.213 1.427-3.333.707a2.56 2.56 0 0 1-.587-.547c-2.56-3.333-5.213-6.6-7.827-9.88a798.868 798.868 0 0 0-7.906-9.827l4.2-.213-6.134 10-6.146 9.987a2.895 2.895 0 0 1-3.974.946 3.014 3.014 0 0 1-.826-.76l-.04-.067-7.107-9.853c-2.36-3.293-4.667-6.626-7-9.933h4.787c-4.72 6.587-9.574 13.08-14.347 19.613l-.04.054a2.6 2.6 0 0 1-3.627.573 2.936 2.936 0 0 1-.68-.733c-2.053-3.334-4.08-6.68-6.16-9.987l-6.226-9.933 3.906.2-7.746 9.946c-2.6 3.307-5.12 6.667-7.68 10a2.621 2.621 0 0 1-3.654.48 3.26 3.26 0 0 1-.586-.626l-.04-.067c-4.294-6.506-8.667-12.947-12.894-19.494h4.934c-2.094 3.28-4.16 6.587-6.267 9.854l-6.387 9.8-.013.027a2.937 2.937 0 0 1-4.04.853 3.659 3.659 0 0 1-.707-.653c-2.586-3.307-5.106-6.667-7.666-10l-7.654-10.014 4.174-.213c-2.16 3.253-4.267 6.546-6.374 9.827-2.106 3.307-4.266 6.56-6.32 9.893a2.397 2.397 0 0 1-3.973.147l-.04-.04-7.093-9.867-7.2-9.787h4.36l-6.894 10c-2.293 3.347-4.653 6.64-6.973 9.96-.92 1.334-2.76 1.654-4.093.734a3.144 3.144 0 0 1-.774-.8l-.04-.067c-4.253-6.547-8.373-13.2-12.56-19.8l4.8.24-7.84 9.866-7.906 9.828-.027.04c-.96 1.172-2.693 1.372-3.88.413a3.152 3.152 0 0 1-.6-.667C53.04 41.654 48.987 35 44.88 28.373c-.707-1.12-.36-2.6.773-3.307a2.401 2.401 0 0 1 3.254.707" fill="#231F20" fill-rule="nonzero"/>
        <path d="M42.053 26.573c0 14.08-8.653 21.493-19.333 21.493-10.68 0-19.333-7.412-19.333-21.493 0-14.08 8.653-22.826 19.333-22.826h319.267c10.666 0 19.333 8.746 19.333 22.826s-8.667 21.493-19.333 21.493c-10.68 0-19.334-7.412-19.334-21.493" fill="#FFF" fill-rule="nonzero"/>
        <path d="M42.053 26.573c0 14.08-8.653 21.493-19.333 21.493-10.68 0-19.333-7.412-19.333-21.493 0-14.08 8.653-22.826 19.333-22.826h319.267c10.666 0 19.333 8.746 19.333 22.826s-8.667 21.493-19.333 21.493c-10.68 0-19.334-7.412-19.334-21.493" stroke="#231F20" stroke-width="6.667"/>
        <path d="M337.293 27.8l-3.48.187c-2.253.146-5.613.2-9.88.36-8.493.24-20.586.507-35.106.746-14.52.28-31.467.454-49.614.667-18.146.173-37.506.347-56.866.52-19.36.12-38.72.24-56.867.346-9.08.028-17.853.067-26.173.107-4.16.04-8.24-.04-12.134-.093-3.92-.054-7.693-.067-11.333-.16-7.28-.214-13.96-.347-19.867-.693-5.906-.347-11.053-.52-15.293-.88C32.213 28.2 27.373 27.8 27.373 27.8a2 2 0 0 1-1.826-2.16c.08-1.08 1-1.88 2.066-1.84l.067.013 13.253.587c4.214.133 9.347.293 15.227.48 2.933.107 6.067.146 9.36.186 3.293.067 6.76.147 10.373.214 7.24.08 15.147.12 23.414.133 8.32-.026 17.08-.04 26.16-.066 18.146-.067 37.493-.147 56.853-.227 38.707-.2 77.413-.4 106.453-.547 14.507-.093 26.614-.226 35.054-.373 4.2-.107 7.493-.12 9.76-.253 2.266-.093 3.48-.147 3.48-.147h.026a2.02 2.02 0 0 1 2.094 1.92 2.01 2.01 0 0 1-1.894 2.08" fill="#231F20" fill-rule="nonzero"/>
    </g>
</svg>
