<svg width="181" height="52" xmlns="http://www.w3.org/2000/svg">
    <title>
        exclamation-single
    </title>
    <g fill="none" fill-rule="evenodd">
        <path fill="#FFF" fill-rule="nonzero" d="M42.107 24.627L53.213 46.96l13.72-19.8 11.04 19.8 12.374-19.8 12.386 19.8 11.04-19.8 13.72 19.8L138.6 24.627"/>
        <path d="M44.253 23.56l11.64 22.067-5.146-.374L64.96 25.8a2.42 2.42 0 0 1 3.4-.533c.28.2.507.453.667.72l11.56 19.52-5.16-.134 12.893-19.48a2.422 2.422 0 0 1 3.373-.693c.28.187.52.427.694.693l12.893 19.48-5.173.134 11.573-19.52c.68-1.16 2.187-1.534 3.347-.854.28.174.533.414.72.667l14.213 19.453-5.16.374 11.653-22.067a2.387 2.387 0 0 1 3.24-1 2.406 2.406 0 0 1 1.054 3.133l-10.574 22.6a2.975 2.975 0 0 1-3.933 1.44 3.043 3.043 0 0 1-1.213-1.066L111.8 28.533l4.067-.2-10.52 20.094c-.747 1.44-2.534 2-3.987 1.24a3.062 3.062 0 0 1-1.173-1.12L88.32 28.44h4.067L80.52 48.547a2.959 2.959 0 0 1-4.053 1.053 3.145 3.145 0 0 1-1.12-1.173l-10.52-20.094 4.08.2L55.68 48.667a2.952 2.952 0 0 1-4.093.853 2.822 2.822 0 0 1-1.054-1.227l-10.573-22.6a2.398 2.398 0 0 1 4.293-2.133" fill="#231F20" fill-rule="nonzero"/>
        <path d="M42.347 26.8c0 14.08-8.654 21.493-19.334 21.493C12.347 48.293 3.68 40.88 3.68 26.8c0-14.08 8.667-22.827 19.333-22.827H157.68c10.68 0 19.333 8.747 19.333 22.827 0 14.08-8.653 21.493-19.333 21.493-10.667 0-19.333-7.413-19.333-21.493" fill="#FFF" fill-rule="nonzero"/>
        <path d="M42.347 26.8c0 14.08-8.654 21.493-19.334 21.493C12.347 48.293 3.68 40.88 3.68 26.8c0-14.08 8.667-22.827 19.333-22.827H157.68c10.68 0 19.333 8.747 19.333 22.827 0 14.08-8.653 21.493-19.333 21.493-10.667 0-19.333-7.413-19.333-21.493" stroke="#231F20" stroke-width="6.667"/>
        <path d="M153 28.027s-1.947.146-5.36.426c-3.413.254-8.293.614-14.147 1.054-2.92.2-6.093.413-9.453.64-3.36.146-6.92.226-10.613.306-7.36.174-15.214.334-23.08.507-7.827-.173-15.667-.333-23.014-.493-3.666-.08-7.213-.174-10.573-.307-3.373-.24-6.56-.453-9.507-.653-5.88-.44-10.773-.8-14.213-1.054l-5.373-.44a2 2 0 0 1-1.84-2.146 2.014 2.014 0 0 1 2.053-1.84h.093s1.947.066 5.36.173c3.4.133 8.267.333 14.107.56 2.92.133 6.08.28 9.413.427 3.36.04 6.907.08 10.574.12 7.32.106 15.12.213 22.92.32 7.786-.107 15.573-.214 22.88-.32 3.653-.04 7.186-.08 10.533-.12 3.36-.147 6.533-.294 9.453-.427 5.867-.227 10.76-.427 14.174-.56 3.426-.107 5.386-.173 5.386-.173a2.007 2.007 0 0 1 2.067 1.933c.04 1.067-.787 1.973-1.84 2.067" fill="#231F20" fill-rule="nonzero"/>
    </g>
</svg>
