<svg width="199" height="346" xmlns="http://www.w3.org/2000/svg">
    <title>
        kepeken-single
    </title>
    <g fill="none">
        <path d="M4.365 49.493c0-34.2 11.106-46.013 24.807-46.013 19.268 0 21.915 28.707 21.915 44.8 0-16.093-.243-44.8 21.433-44.8s21.915 28.707 21.915 44.8c0-16.093 8.433-44.8 30.109-44.8 21.676 0 16.664 52.32 16.664 52.32 13.83-13.533 37.807-27.267 49.08-14.907 13.115 14.387-6.62 52.067-12.455 60.08l-.06 212.427c0 15.96-12.94 28.893-28.901 28.893H33.266c-15.962 0-28.901-12.933-28.901-28.893V49.493" fill="#FFF"/>
        <path d="M7.698 49.493l.095 170.68.047 85.334.003 5.333.004 2.653a25.38 25.38 0 0 0 2.707 11.307c2.793 5.6 7.749 10.093 13.593 12.307a25.13 25.13 0 0 0 4.501 1.266c.758.147 1.565.24 2.3.307.381.027.689.067 1.128.08l1.245.04 10.667-.013 21.336-.014 42.67-.013 21.335-.013 10.668-.014h5.334c1.756-.013 3.652.027 5.114-.053 6.238-.36 12.256-3.16 16.592-7.653 4.372-4.454 6.963-10.6 7.124-16.787l.012-42.587.327-170.68c.001-.72.232-1.386.624-1.933l.015-.027.009-.013c1.287-1.827 2.54-3.973 3.71-6.093a121.995 121.995 0 0 0 3.333-6.56c2.112-4.427 4.022-8.96 5.577-13.574 1.548-4.6 2.784-9.306 3.315-13.973.528-4.613.324-9.32-1.443-12.947a11.686 11.686 0 0 0-3.73-4.426c-1.562-1.12-3.446-1.787-5.511-2.04-4.163-.48-8.818.64-13.192 2.36-4.406 1.76-8.654 4.146-12.683 6.866-4.044 2.707-7.904 5.747-11.45 9.094l-.069.053a2.642 2.642 0 0 1-3.748-.107 2.671 2.671 0 0 1-.704-2.106l.002-.014c.114-2.373.165-4.853.192-7.293.016-2.44-.023-4.88-.124-7.32-.168-4.867-.534-9.72-1.322-14.427a67.502 67.502 0 0 0-1.526-6.906c-.632-2.227-1.419-4.374-2.426-6.294-1.014-1.906-2.24-3.586-3.681-4.72-1.465-1.12-3-1.693-4.984-1.746h-.263.103-.15l-.4.026-.803.027c-.538 0-1.055.107-1.586.16a18.721 18.721 0 0 0-3.086.693c-2.014.64-3.92 1.64-5.671 2.92-3.541 2.547-6.384 6.254-8.688 10.294-2.303 4.066-4.033 8.56-5.29 13.173a66.537 66.537 0 0 0-2.414 14.16l-.013.227a2 2 0 0 1-2.116 1.866 2 2 0 0 1-1.872-2.093v-.013c-.287-4.64-.464-9.227-1.016-13.747-.495-4.52-1.247-8.96-2.511-13.133-1.287-4.134-3.139-8.027-5.913-10.667-1.38-1.32-2.95-2.333-4.708-2.973-.877-.32-1.798-.56-2.752-.707-.471-.08-.974-.133-1.443-.173l-.688-.04-.872-.014c-1.892.014-3.915.267-5.64.907a12.644 12.644 0 0 0-4.673 2.947c-2.754 2.626-4.55 6.533-5.786 10.68-1.218 4.173-1.915 8.64-2.37 13.16-.524 4.52-.67 9.12-.976 13.773l-.016.253a1.989 1.989 0 0 1-2.122 1.854 1.994 1.994 0 0 1-1.863-2.107c-.135-4.653-.463-9.307-1.07-13.88-.62-4.573-1.543-9.08-3.009-13.32-1.438-4.213-3.458-8.24-6.391-11-1.46-1.373-3.123-2.413-4.95-2.987-.91-.293-1.86-.493-2.836-.573-.253-.04-.455-.04-.683-.053-.195-.027-.563-.014-.836-.014-.427.014-1.008.014-1.496.067-2.04.16-3.988.667-5.768 1.507-1.772.853-3.409 2-4.806 3.466-2.826 2.92-4.822 6.84-6.187 11.027-1.372 4.2-2.195 8.667-2.701 13.2a106.75 106.75 0 0 0-.518 6.853c-.07 1.147-.072 2.28-.111 3.427l-.026 3.52v-.027zm-6.666-.04l.064-3.56c.052-1.213.07-2.453.156-3.653.123-2.427.346-4.853.627-7.267.596-4.853 1.526-9.72 3.14-14.48 1.615-4.746 3.983-9.493 7.79-13.36a22.381 22.381 0 0 1 6.685-4.693C22.02 1.32 24.734.72 27.408.573c.688-.04 1.29-.053 2.043-.04.317.014.541.014.935.04.359.04.75.054 1.081.107 1.372.16 2.744.467 4.068.947 2.66.92 5.06 2.52 6.98 4.44 1.937 1.92 3.42 4.12 4.62 6.4 1.195 2.266 2.11 4.626 2.844 7 1.434 4.773 2.205 9.6 2.666 14.4.463 4.813.571 9.626.442 14.413h-4a165.27 165.27 0 0 1-.352-14.12c.16-4.76.597-9.587 1.794-14.413.59-2.414 1.398-4.814 2.532-7.16 1.13-2.32 2.602-4.6 4.546-6.574a19.195 19.195 0 0 1 7.003-4.506C67.26.533 69.917.133 72.672.16l.872.027 1.053.066c.69.054 1.345.134 2.02.254 1.342.226 2.682.573 3.984 1.066a19.26 19.26 0 0 1 6.95 4.52c1.936 1.96 3.421 4.214 4.573 6.534 1.161 2.306 1.964 4.72 2.596 7.12 1.255 4.8 1.748 9.613 1.952 14.373a151.52 151.52 0 0 1-.237 14.147l.001.013h-4.001c-.234-5.187.36-10.32 1.376-15.387 1.108-5.04 2.729-10.013 5.098-14.733 2.368-4.707 5.608-9.2 10.052-12.653a26.105 26.105 0 0 1 7.475-4.014 26.39 26.39 0 0 1 4.165-1.026c.707-.08 1.414-.214 2.122-.24l1.064-.054.53-.013.134-.013h.256l.233.013.467.013c.145.014.306.014.548.04.426.054.894.08 1.284.16a16.1 16.1 0 0 1 2.34.6 14.721 14.721 0 0 1 4.208 2.307c2.498 1.947 4.23 4.413 5.521 6.893 1.285 2.507 2.181 5.067 2.89 7.627.713 2.56 1.175 5.133 1.547 7.693.718 5.134.996 10.24 1.006 15.32-.015 2.547-.096 5.08-.235 7.614a108.893 108.893 0 0 1-.652 7.613l-.001.013-4.52-2.16A91.977 91.977 0 0 1 151.188 43.8c4.256-3 8.773-5.68 13.69-7.747 2.46-1.026 5.026-1.906 7.726-2.493 2.695-.573 5.548-.88 8.495-.587 2.928.294 5.981 1.24 8.557 3.014 2.579 1.72 4.641 4.186 5.981 6.92 1.344 2.733 1.992 5.626 2.264 8.413.266 2.813.174 5.56-.122 8.227-.596 5.36-1.936 10.453-3.571 15.386a123.654 123.654 0 0 1-5.863 14.374 128.195 128.195 0 0 1-3.589 6.866c-1.29 2.267-2.577 4.467-4.216 6.747l-.012.013.639-1.96.229 170.694-.059 42.76c-.216 8.04-3.565 15.88-9.166 21.586-5.547 5.747-13.3 9.347-21.29 9.787-2.086.107-3.75.053-5.55.067l-5.334-.014H129.33l-21.334-.013-42.671-.027-21.336-.013H33.321l-1.422-.04c-.45 0-1.027-.067-1.533-.093a30.673 30.673 0 0 1-2.982-.414 33.013 33.013 0 0 1-5.75-1.613c-7.466-2.853-13.75-8.56-17.309-15.707a32.4 32.4 0 0 1-3.289-11.426 35.266 35.266 0 0 1-.147-2.987l-.002-2.68.003-5.333.047-85.334.094-170.68v-.04z" fill="#231F20"/>
        <path d="M179.19 102.267s-.526.533-1.509 1.56c-.982 1-2.506 2.546-4.469 4.36-3.95 3.626-9.788 8.693-17.604 13.64-7.787 4.946-17.493 9.92-28.584 13.306-5.53 1.72-11.38 3.054-17.39 3.96-6.026.92-12.157 1.36-18.389 1.387a143.478 143.478 0 0 1-9.204-.373c-3.063-.254-6.109-.56-9.111-1.027-6.005-.907-11.853-2.2-17.393-3.867-11.105-3.266-20.9-7.986-28.803-12.76-7.932-4.746-13.898-9.666-17.922-13.226a118.89 118.89 0 0 1-4.541-4.294 459.735 459.735 0 0 1-1.555-1.56l2.828-2.84s.54.52 1.553 1.467c1.014.96 2.534 2.32 4.51 4.013a122.682 122.682 0 0 0 17.55 12.36c7.666 4.494 17.173 8.814 27.836 11.894 5.322 1.573 10.937 2.786 16.699 3.626 2.88.427 5.802.72 8.738.947 2.965.2 5.814.293 8.883.307 5.852.013 11.808-.387 17.55-1.24a113.725 113.725 0 0 0 16.653-3.707c10.615-3.2 20.017-7.72 27.57-12.4a125.054 125.054 0 0 0 17.271-12.773 145.054 145.054 0 0 0 4.44-4.08c1.018-.987 1.56-1.507 1.56-1.507l2.832 2.827M69.577 172.72s-1.16-.253-3.192-.68c-1.015-.213-2.248-.48-3.663-.787a215.83 215.83 0 0 1-2.253-.48c-.792-.146-1.634-.466-2.507-.706-1.748-.534-3.643-1.094-5.646-1.707-2.038-.52-4.014-1.453-6.136-2.253-1.052-.414-2.123-.84-3.206-1.267-.538-.227-1.094-.413-1.627-.667-.528-.253-1.058-.52-1.592-.773-2.131-1.053-4.296-2.12-6.461-3.187-2.101-1.186-4.154-2.466-6.2-3.666-2.08-1.16-3.963-2.547-5.808-3.854-.922-.653-1.83-1.293-2.718-1.92-.893-.626-1.766-1.24-2.545-1.92-1.597-1.32-3.107-2.56-4.5-3.72-.694-.573-1.371-1.12-1.992-1.653-.596-.573-1.16-1.12-1.69-1.627a776.876 776.876 0 0 0-2.75-2.613 511.492 511.492 0 0 0-2.393-2.293l2.863-2.8s.845.813 2.325 2.226c.74.707 1.637 1.56 2.667 2.547.515.493 1.063 1.013 1.64 1.573.602.52 1.26 1.04 1.932 1.6 1.35 1.12 2.813 2.334 4.361 3.614.755.666 1.6 1.253 2.465 1.853.86.6 1.739 1.227 2.632 1.853 1.785 1.267 3.606 2.614 5.619 3.734 1.978 1.16 3.962 2.4 5.992 3.546 2.092 1.027 4.185 2.054 6.245 3.067.514.253 1.027.507 1.537.76.514.253 1.052.427 1.571.64 1.047.413 2.08.827 3.098 1.227 2.041.76 3.975 1.68 5.896 2.173 1.902.573 3.7 1.12 5.359 1.613.84.24 1.602.534 2.403.694.793.173 1.546.333 2.253.48 1.414.293 2.648.56 3.663.773 2.032.44 3.192.68 3.192.68l-.834 3.92m109.536-33.88s-.844.76-2.32 2.093c-.738.667-1.634 1.467-2.664 2.4-.516.467-1.066.947-1.646 1.467-.634.493-1.299 1-1.994 1.533-1.392 1.054-2.898 2.214-4.493 3.427-1.601 1.2-3.401 2.253-5.204 3.453a465.07 465.07 0 0 0-2.765 1.8c-.934.6-1.95 1.094-2.935 1.667-1.993 1.08-3.997 2.227-6.041 3.293-2.091.974-4.182 1.947-6.239 2.894-2.032 1.026-4.156 1.733-6.163 2.533-1.008.387-1.998.773-2.969 1.147-.485.186-.965.36-1.439.546-.485.16-.964.307-1.436.454-1.892.586-3.68 1.146-5.33 1.653-.828.253-1.614.52-2.374.72a231.4 231.4 0 0 1-2.177.52c-1.367.333-2.557.613-3.539.853l-3.085.734-.793-3.92s1.089-.267 2.993-.72c.952-.227 2.11-.507 3.436-.814.663-.16 1.368-.333 2.113-.506.738-.2 1.5-.467 2.304-.707 1.603-.493 3.34-1.04 5.178-1.6.458-.147.924-.293 1.396-.44.46-.187.926-.36 1.397-.547.943-.36 1.905-.733 2.885-1.106 1.947-.787 4.015-1.467 5.986-2.454 1.998-.933 4.028-1.866 6.058-2.813 1.983-1.04 3.924-2.147 5.859-3.2.955-.547 1.943-1.027 2.845-1.613.906-.587 1.799-1.16 2.678-1.734 1.736-1.16 3.502-2.2 5.022-3.333 1.511-1.16 2.939-2.24 4.256-3.253.66-.494 1.294-.974 1.895-1.44.577-.507 1.127-1 1.641-1.467 1.028-.92 1.926-1.733 2.663-2.4l2.321-2.093 2.68 2.973" fill="#231F20"/>
        <path d="M123.639 134.107l.012 1.453c.013.92.004 2.387-.043 4.173a115.7 115.7 0 0 1-.356 6.494c-.217 2.506-.548 5.346-1.13 8.413-.582 3.067-1.353 6.4-2.557 9.84-1.197 3.427-2.776 7.013-5.11 10.413a33.392 33.392 0 0 1-4.062 4.854 26.502 26.502 0 0 1-5.3 3.96c-3.904 2.28-8.521 3.306-12.956 3.346-1.288-.04-1.981-.013-3.286-.173-1.196-.107-2.279-.333-3.387-.56a25.347 25.347 0 0 1-6.315-2.413c-3.991-2.12-7.14-5.32-9.514-8.667-2.37-3.387-3.993-6.96-5.2-10.4-1.223-3.44-2.007-6.76-2.594-9.827a82.36 82.36 0 0 1-1.14-8.426 114.09 114.09 0 0 1-.358-6.494c-.047-1.8-.056-3.213-.042-4.173l.012-1.467h4.8l.04 1.414c.021.933.079 2.28.186 4 .214 3.44.685 8.36 1.871 14.066.605 2.854 1.395 5.907 2.56 8.974 1.145 3.066 2.658 6.146 4.633 8.946 2 2.774 4.505 5.254 7.555 6.854 1.515.8 3.14 1.413 4.849 1.813.857.16 1.745.347 2.557.4.69.12 2.019.12 2.741.133 3.599-.026 7.103-.786 10.086-2.493a20.755 20.755 0 0 0 4.13-3.053c1.236-1.2 2.34-2.534 3.328-3.934 3.918-5.693 5.915-12.32 7.104-17.986a100.823 100.823 0 0 0 1.86-14.08c.107-1.72.164-3.027.186-4l.04-1.44 4.8.04" fill="#231F20"/>
    </g>
</svg>
