<svg width="347" height="198" xmlns="http://www.w3.org/2000/svg">
    <title>
        kepeken-single-side
    </title>
    <g fill="none">
        <path d="M297.175 194.493c34.2 0 46.001-11.106 46.001-24.813 0-19.267-28.701-21.907-44.797-21.907 16.096 0 44.797.24 44.797-21.44 0-21.666-28.701-21.906-44.797-21.906 16.096 0 44.797-8.44 44.797-30.12 0-21.667-52.31-16.654-52.31-16.654 13.533-13.84 27.27-37.813 14.902-49.08-14.388-13.12-52.068 6.614-60.083 12.454l-212.418.053c-15.962 0-28.902 12.947-28.902 28.907v115.6c0 15.96 12.94 28.906 28.902 28.906h263.908" fill="#FFF"/>
        <path d="M297.2 197.827h-.025l-170.683.093-85.341.053h-8.015a37.09 37.09 0 0 1-2.98-.146 32.616 32.616 0 0 1-11.425-3.294c-7.142-3.56-12.858-9.84-15.703-17.306a32.505 32.505 0 0 1-1.621-5.76 30.683 30.683 0 0 1-.408-2.974c-.036-.506-.091-1.08-.103-1.533l-.035-1.427-.005-10.666-.012-21.334-.023-42.666-.01-21.334-.007-10.68-.003-5.333c.014-1.8-.042-3.453.066-5.547.441-7.986 4.037-15.746 9.781-21.293 5.71-5.6 13.55-8.947 21.592-9.16l42.761-.053 170.683.226-1.961.64.017-.013c2.277-1.64 4.477-2.933 6.748-4.213 2.26-1.28 4.55-2.467 6.872-3.6 4.648-2.24 9.433-4.2 14.367-5.854 4.937-1.64 10.03-2.973 15.385-3.573 2.675-.293 5.423-.387 8.228-.12 2.796.267 5.685.92 8.416 2.253 2.737 1.347 5.195 3.414 6.92 5.987 1.77 2.573 2.725 5.627 3.01 8.56.29 2.947-.003 5.8-.586 8.493-.587 2.694-1.457 5.267-2.487 7.72-2.072 4.92-4.754 9.44-7.746 13.694a92.06 92.06 0 0 1-10.095 11.853l-2.16-4.52.013-.013a106.65 106.65 0 0 1 7.615-.64 143.78 143.78 0 0 1 7.607-.24c5.082.013 10.188.293 15.317 1 2.564.373 5.139.84 7.699 1.546 2.56.72 5.121 1.614 7.622 2.894 2.486 1.293 4.956 3.026 6.902 5.52a14.805 14.805 0 0 1 2.298 4.213c.266.76.464 1.547.602 2.333.078.4.114.867.162 1.294.027.24.034.4.036.546l.018.467.008.227.002.186-.002.067-.006.133-.021.534-.048 1.066c-.021.707-.164 1.414-.247 2.12a25.35 25.35 0 0 1-1.022 4.174c-.916 2.706-2.31 5.24-4.011 7.466-3.452 4.454-7.944 7.68-12.65 10.054-4.729 2.373-9.697 3.986-14.738 5.093-5.061 1.027-10.196 1.613-15.388 1.387l-.187-.014a2.001 2.001 0 0 1-1.906-2.08 1.993 1.993 0 0 1 2.086-1.906h.017c4.66-.307 9.38-.387 14.146-.24 4.761.2 9.583.693 14.385 1.946 2.396.64 4.802 1.44 7.119 2.6 2.315 1.147 4.57 2.64 6.525 4.574a19.285 19.285 0 0 1 4.52 6.946c.494 1.307.844 2.64 1.072 3.987.116.68.194 1.333.255 2.013l.065 1.054.023.88c.025 2.76-.376 5.413-1.345 8.053a19.376 19.376 0 0 1-4.502 7.013c-1.97 1.947-4.252 3.414-6.584 4.547-2.337 1.133-4.744 1.933-7.156 2.533-4.821 1.187-9.645 1.627-14.406 1.787-4.764.08-9.478-.04-14.127-.347l-.257-.026a1.989 1.989 0 0 1-1.856-2.12 1.995 1.995 0 0 1 2.113-1.854h.003c4.788-.133 9.596-.026 14.408.44 4.81.454 9.638 1.227 14.402 2.667 2.375.733 4.73 1.653 7.007 2.84 2.27 1.2 4.481 2.68 6.4 4.627 1.917 1.92 3.517 4.32 4.441 6.973.468 1.32.779 2.693.944 4.067.051.333.068.72.1 1.08.034.4.028.626.044.933.007.76.003 1.36-.038 2.053-.144 2.667-.755 5.387-1.874 7.907a22.362 22.362 0 0 1-4.686 6.693c-3.866 3.8-8.615 6.174-13.355 7.787-4.77 1.613-9.635 2.547-14.481 3.133-2.426.28-4.851.507-7.27.627-1.205.093-2.44.107-3.658.16l-3.558.067h-.009zm-.06-6.667l3.528-.027c1.141-.04 2.27-.04 3.423-.106 2.3-.094 4.582-.28 6.853-.52 4.53-.507 9.001-1.334 13.201-2.707 4.188-1.36 8.107-3.36 11.023-6.187a16.285 16.285 0 0 0 3.465-4.8c.842-1.786 1.347-3.733 1.511-5.773.045-.48.059-1.067.07-1.493-.006-.28.002-.64-.017-.84-.02-.227-.014-.427-.048-.68a13.42 13.42 0 0 0-.577-2.84c-.58-1.827-1.612-3.48-2.988-4.947-2.767-2.933-6.79-4.947-11.003-6.387-4.234-1.466-8.752-2.386-13.32-3.013-4.576-.6-9.221-.933-13.878-1.067h-.003v-4c4.655-.306 9.255-.453 13.78-.973 4.517-.467 8.98-1.16 13.155-2.373 4.144-1.24 8.057-3.04 10.681-5.787a12.681 12.681 0 0 0 2.947-4.68c.641-1.72.888-3.747.906-5.64l-.014-.867-.04-.693a18.36 18.36 0 0 0-.171-1.44 14.516 14.516 0 0 0-.71-2.747c-.643-1.76-1.651-3.333-2.967-4.706-2.643-2.774-6.539-4.627-10.672-5.92-4.167-1.267-8.618-2.014-13.13-2.507-4.517-.547-9.112-.733-13.756-1.013h-.009v-4A66.47 66.47 0 0 0 312.541 100c4.62-1.253 9.106-2.987 13.174-5.28 4.045-2.307 7.744-5.147 10.292-8.693 1.286-1.747 2.281-3.654 2.92-5.667a18.81 18.81 0 0 0 .7-3.093c.045-.52.154-1.04.157-1.587l.03-.8.017-.4.005-.093.001-.054c.002.054-.001-.146.004.107l-.001-.04-.01-.227c-.04-1.986-.617-3.52-1.747-4.986-1.123-1.44-2.8-2.667-4.707-3.68-1.92-1-4.07-1.787-6.301-2.427a67.494 67.494 0 0 0-6.903-1.52c-4.712-.787-9.564-1.16-14.43-1.32a148.835 148.835 0 0 0-7.322-.133c-2.432.026-4.916.08-7.29.2h-.01a2.658 2.658 0 0 1-2.232-4.454l.072-.066c3.339-3.547 6.379-7.414 9.084-11.454 2.72-4.026 5.115-8.28 6.867-12.68 1.729-4.373 2.852-9.026 2.358-13.2-.25-2.066-.909-3.946-2.032-5.506a11.906 11.906 0 0 0-4.429-3.734c-3.62-1.76-8.328-1.973-12.95-1.44-4.662.534-9.366 1.774-13.973 3.32-4.612 1.547-9.142 3.467-13.572 5.574a127.363 127.363 0 0 0-6.55 3.333c-2.122 1.173-4.279 2.427-6.103 3.707l-.013.013-.02.013a3.292 3.292 0 0 1-1.942.627l-170.682.32-42.58.013c-6.194.16-12.335 2.76-16.79 7.12-4.492 4.347-7.296 10.36-7.648 16.6-.084 1.467-.046 3.36-.056 5.107l-.002 5.333-.007 10.68-.01 21.334-.023 42.666-.012 21.334-.006 10.666.031 1.254c.012.426.056.746.079 1.12a24.2 24.2 0 0 0 .314 2.306c.282 1.534.704 3.04 1.263 4.494 2.215 5.853 6.71 10.8 12.308 13.6 2.792 1.4 5.84 2.28 8.953 2.586.78.067 1.563.107 2.347.12h7.987l85.341.054 170.683.093h-.035z" fill="#231F20"/>
        <path d="M210.79 22.427s-.76.84-2.091 2.32c-.666.733-1.474 1.626-2.4 2.666-.46.507-.951 1.054-1.467 1.64-.457.6-.937 1.227-1.439 1.894-1.005 1.32-2.094 2.746-3.245 4.253-1.143 1.52-2.173 3.28-3.336 5.027-.57.88-1.15 1.773-1.737 2.666-.588.907-1.066 1.894-1.612 2.854-1.052 1.933-2.166 3.88-3.2 5.853-.943 2.04-1.886 4.067-2.815 6.067-.99 1.973-1.67 4.04-2.45 5.986-.378.974-.75 1.934-1.113 2.88-.182.467-.362.934-.54 1.4-.148.467-.293.934-.436 1.387-.57 1.84-1.11 3.587-1.609 5.187-.244.8-.501 1.56-.703 2.306-.177.734-.345 1.44-.504 2.107l-.818 3.44-.714 2.987-3.921-.787.735-3.093c.233-.974.517-2.174.844-3.534l.518-2.173c.21-.76.472-1.547.723-2.373.513-1.654 1.07-3.44 1.657-5.334.148-.48.299-.946.451-1.44.183-.466.367-.946.553-1.44.375-.973.756-1.96 1.144-2.96.803-2.013 1.507-4.133 2.526-6.173.956-2.053 1.926-4.147 2.898-6.24 1.066-2.04 2.212-4.04 3.298-6.04.564-.987 1.057-2 1.665-2.933.605-.934 1.204-1.854 1.793-2.76 1.204-1.8 2.256-3.6 3.458-5.2 1.217-1.6 2.368-3.107 3.429-4.494.532-.706 1.041-1.36 1.527-2 .517-.573 1.009-1.133 1.47-1.64a387 387 0 0 1 2.402-2.666c1.33-1.48 2.09-2.32 2.09-2.32l2.97 2.68m36.434.08s-.526.533-1.512 1.546c-.99 1.027-2.342 2.494-4.078 4.44a126.528 126.528 0 0 0-12.776 17.28c-4.674 7.547-9.2 16.947-12.395 27.574-1.62 5.293-2.873 10.893-3.712 16.653-.85 5.733-1.244 11.693-1.239 17.547.01 3.066.108 5.92.311 8.88.228 2.933.517 5.853.944 8.733.839 5.773 2.056 11.387 3.621 16.707 3.09 10.666 7.404 20.173 11.898 27.826 4.473 7.694 9.01 13.6 12.368 17.56 1.686 1.974 3.05 3.494 4.004 4.507.954 1.013 1.464 1.547 1.464 1.547l-2.83 2.84s-.545-.547-1.566-1.56a110.686 110.686 0 0 1-4.286-4.547c-3.558-4.013-8.48-9.987-13.237-17.92-4.764-7.907-9.49-17.693-12.76-28.8-1.659-5.533-2.959-11.387-3.864-17.387-.457-3.013-.776-6.053-1.03-9.12a140.51 140.51 0 0 1-.369-9.2c.022-6.24.466-12.36 1.383-18.386a118.328 118.328 0 0 1 3.97-17.4c3.387-11.08 8.349-20.787 13.3-28.574 4.95-7.826 10.01-13.653 13.64-17.613a123 123 0 0 1 4.363-4.467c1.02-.986 1.563-1.506 1.563-1.506l2.825 2.84M177.859 128.44l.678 3.2c.218 1.013.48 2.24.78 3.667.151.706.311 1.453.48 2.253.158.8.452 1.56.687 2.4.503 1.653 1.045 3.453 1.62 5.36.492 1.92 1.407 3.853 2.172 5.893.401 1.014.81 2.054 1.223 3.094.213.52.397 1.053.638 1.573.252.507.506 1.027.76 1.533 1.015 2.067 2.046 4.16 3.076 6.254 1.147 2.026 2.379 4.013 3.544 5.986 1.114 2.014 2.46 3.84 3.727 5.627.63.893 1.252 1.76 1.86 2.627.604.866 1.192 1.706 1.856 2.466 1.28 1.547 2.49 3.014 3.605 4.36.562.667 1.084 1.334 1.608 1.934.552.573 1.076 1.12 1.57 1.64.984 1.026 1.841 1.92 2.548 2.666 1.413 1.48 2.22 2.32 2.22 2.32l-2.794 2.867s-.832-.867-2.288-2.4c-.728-.76-1.612-1.68-2.626-2.747-.507-.533-1.046-1.093-1.615-1.693-.54-.613-1.081-1.293-1.661-1.987-1.151-1.386-2.399-2.906-3.718-4.493-.684-.787-1.293-1.653-1.917-2.547-.628-.893-1.27-1.8-1.924-2.72-1.308-1.853-2.695-3.733-3.85-5.813-1.207-2.04-2.48-4.093-3.665-6.2-1.066-2.16-2.134-4.333-3.185-6.453-.263-.534-.524-1.067-.784-1.6-.25-.534-.441-1.08-.663-1.627l-1.266-3.2c-.798-2.12-1.728-4.107-2.258-6.133-.604-2.014-1.174-3.907-1.701-5.654-.244-.866-.556-1.706-.71-2.506-.17-.787-.33-1.547-.48-2.254-.302-1.413-.565-2.653-.78-3.666l-.68-3.187 3.913-.84" fill="#231F20"/>
        <path d="M212.599 80.013l-1.448.04c-.964.027-2.274.08-3.999.187-3.439.213-8.355.693-14.072 1.867-5.672 1.186-12.296 3.186-17.993 7.106-1.404.987-2.736 2.08-3.934 3.32a21.2 21.2 0 0 0-3.046 4.134c-1.714 2.986-2.475 6.48-2.502 10.08.023.733.022 2.053.139 2.746.057.814.241 1.694.405 2.56a19.501 19.501 0 0 0 1.811 4.84c1.59 3.054 4.07 5.56 6.843 7.56 2.809 1.974 5.89 3.494 8.958 4.64 3.063 1.16 6.116 1.947 8.964 2.547a99.703 99.703 0 0 0 14.066 1.88c1.721.107 3.078.16 4.004.187l1.42.04v4.8s-.514 0-1.476.013-2.375 0-4.174-.04c-1.8-.04-3.986-.16-6.496-.36-2.509-.227-5.342-.56-8.414-1.147-3.07-.586-6.392-1.373-9.831-2.586-3.436-1.214-7.015-2.84-10.395-5.2-3.35-2.374-6.553-5.534-8.68-9.52a25.47 25.47 0 0 1-2.408-6.32c-.224-1.107-.454-2.187-.556-3.387-.158-1.293-.14-1.987-.18-3.28.047-4.44 1.07-9.053 3.344-12.96a26.88 26.88 0 0 1 3.966-5.293 33.62 33.62 0 0 1 4.853-4.067c3.397-2.333 6.985-3.907 10.42-5.107 3.441-1.2 6.763-1.973 9.832-2.56 3.07-.586 5.904-.906 8.412-1.133 2.51-.2 4.696-.307 6.495-.347a102.29 102.29 0 0 1 4.178-.053c.944.013 1.448.013 1.448.013l.046 4.8" fill="#231F20"/>
    </g>
</svg>
