<svg width="388" height="331" xmlns="http://www.w3.org/2000/svg">
    <title>
        la-double
    </title>
    <g fill="none" fill-rule="evenodd">
        <path d="M326.815 318.88H58.679s-13.921-2.735-13.921-17.402c0-14.667-3.7-53.333 6.66-53.333h275.397c6.08 0 14.24-1.332 14.24 8.666v48.001c0 6.667 1.14 14.067-14.24 14.067" fill="#FFF" fill-rule="nonzero"/>
        <path d="M326.815 318.88H58.679s-13.921-2.735-13.921-17.402c0-14.667-3.7-53.333 6.66-53.333h275.397c6.08 0 14.24-1.332 14.24 8.666v48.001c0 6.667 1.14 14.067-14.24 14.067z" stroke="#231F20" stroke-width="6.667" stroke-linecap="round" stroke-linejoin="round"/>
        <path d="M124.384 292.771c0 9.667-9.314 17.495-20.811 17.495-11.517 0-20.83-7.828-20.83-17.495" fill="#FFF" fill-rule="nonzero"/>
        <path d="M127.045 292.931s-.019.228-.019.667c-.037.467 0 1.015-.206 2.12-.13 1.094-.448 2.215-.878 3.494-.485 1.254-1.14 2.653-2.073 4a17.4 17.4 0 0 1-1.588 2.027c-.542.693-1.233 1.28-1.906 1.933-1.4 1.2-2.989 2.36-4.8 3.24-1.776.92-3.737 1.627-5.773 2.107-2.018.533-4.148.68-6.24.746-1.252-.079-1.83-.014-3.083-.2l-1.625-.213-1.532-.333c-2.036-.48-3.998-1.186-5.772-2.107-1.812-.88-3.4-2.04-4.802-3.24-.672-.653-1.363-1.24-1.905-1.933-.617-.654-1.121-1.334-1.588-2.027-.934-1.347-1.588-2.746-2.074-4-.448-1.28-.747-2.426-.859-3.4-.205-.96-.187-1.733-.224-2.253a24.657 24.657 0 0 1-.019-.786 2.658 2.658 0 0 1 2.56-2.761 2.67 2.67 0 0 1 2.746 2.4l.018.36s.038.188.056.546c.038.36.038.895.206 1.547.112.667.374 1.453.71 2.32a14.3 14.3 0 0 0 1.57 2.775c.335.48.709.958 1.176 1.425.392.493.934.908 1.439 1.373 1.064.867 2.279 1.72 3.642 2.374 1.364.707 2.877 1.226 4.465 1.587l1.196.254 1.14.145c.616.133 1.942.094 2.559.148 1.663-.054 3.325-.135 4.894-.547 1.57-.361 3.102-.88 4.465-1.587 1.383-.653 2.578-1.507 3.643-2.374.505-.465 1.046-.88 1.439-1.373.467-.467.822-.945 1.177-1.425a14.3 14.3 0 0 0 1.569-2.775c.336-.867.598-1.68.691-2.227.168-.493.187-1.253.224-1.679.038-.44.056-.68.056-.68a2.66 2.66 0 0 1 2.877-2.44 2.683 2.683 0 0 1 2.448 2.772" fill="#231F20" fill-rule="nonzero"/>
        <path d="M182.608 292.773c0 9.667-9.34 17.492-20.83 17.492-11.489 0-20.81-7.825-20.81-17.492" fill="#FFF" fill-rule="nonzero"/>
        <path d="M185.245 292.933s0 .227-.019.668c-.038.467.02 1.013-.19 2.12-.133 1.092-.438 2.214-.876 3.493-.495 1.253-1.142 2.654-2.075 4-.476.693-.99 1.373-1.58 2.026-.571.695-1.238 1.281-1.923 1.934-1.409 1.2-3.008 2.359-4.798 3.24-1.77.92-3.731 1.626-5.769 2.106-2.018.535-4.13.68-6.244.746-1.257-.078-1.828-.013-3.065-.2l-1.657-.213-1.542-.333a25.516 25.516 0 0 1-5.75-2.106c-1.808-.881-3.388-2.04-4.797-3.24-.686-.653-1.371-1.24-1.923-1.934-.61-.653-1.104-1.333-1.58-2.026-.933-1.346-1.58-2.747-2.076-4-.438-1.28-.742-2.426-.856-3.4-.19-.96-.19-1.733-.21-2.253a24.258 24.258 0 0 1-.019-.788 2.655 2.655 0 0 1 2.551-2.759 2.66 2.66 0 0 1 2.742 2.4l.038.36s0 .186.057.547c.038.36.02.893.19 1.546.115.667.381 1.453.705 2.321.4.866.876 1.826 1.58 2.772.324.48.705.96 1.161 1.428.4.493.933.906 1.428 1.373 1.086.866 2.285 1.719 3.675 2.372 1.352.708 2.875 1.228 4.455 1.588l1.2.253 1.123.147c.628.133 1.942.093 2.57.146 1.656-.053 3.313-.133 4.893-.546 1.58-.36 3.084-.88 4.455-1.588 1.39-.653 2.589-1.506 3.655-2.372.514-.467 1.028-.88 1.447-1.373.457-.468.838-.948 1.162-1.428.704-.946 1.18-1.906 1.58-2.772.323-.868.59-1.68.685-2.227.152-.493.19-1.253.229-1.68.019-.441.057-.681.057-.681a2.653 2.653 0 0 1 2.875-2.439 2.667 2.667 0 0 1 2.436 2.772" fill="#231F20" fill-rule="nonzero"/>
        <path d="M240.81 292.774c0 9.666-9.322 17.493-20.814 17.493-11.511 0-20.832-7.827-20.832-17.493" fill="#FFF" fill-rule="nonzero"/>
        <path d="M243.468 292.934s0 .227-.02.667c-.038.466 0 1.013-.193 2.12-.136 1.094-.446 2.213-.893 3.493-.484 1.253-1.125 2.654-2.075 4-.446.694-.97 1.373-1.571 2.027-.543.694-1.241 1.28-1.9 1.934-1.417 1.2-3.007 2.36-4.83 3.239-1.765.921-3.724 1.627-5.76 2.108-2.018.533-4.132.679-6.227.745-1.26-.08-1.843-.014-3.084-.2l-1.649-.213-1.532-.332c-2.017-.481-3.976-1.187-5.76-2.108-1.804-.879-3.395-2.039-4.81-3.24-.66-.653-1.339-1.239-1.901-1.933a14.875 14.875 0 0 1-1.571-2.027c-.95-1.346-1.61-2.747-2.076-4-.446-1.28-.756-2.426-.873-3.4-.194-.96-.194-1.734-.213-2.253-.02-.52-.039-.786-.039-.786-.039-1.468 1.106-2.708 2.56-2.76a2.669 2.669 0 0 1 2.755 2.4l.02.36s.018.186.057.547c.04.359.04.892.214 1.546.116.667.368 1.453.717 2.32.369.867.854 1.827 1.552 2.773.35.48.718.96 1.183 1.428.388.492.931.906 1.435 1.371 1.067.867 2.27 1.72 3.647 2.374 1.358.706 2.89 1.226 4.46 1.587l1.203.254 1.125.145c.621.134 1.94.095 2.58.148 1.649-.053 3.317-.134 4.888-.547 1.57-.361 3.084-.88 4.46-1.587 1.378-.654 2.58-1.507 3.647-2.374.505-.465 1.048-.879 1.436-1.371.465-.468.834-.949 1.183-1.428a14.516 14.516 0 0 0 1.551-2.773c.35-.867.602-1.68.699-2.227.174-.493.174-1.253.232-1.68.04-.44.04-.68.04-.68.116-1.467 1.415-2.56 2.89-2.44a2.683 2.683 0 0 1 2.443 2.773" fill="#231F20" fill-rule="nonzero"/>
        <path d="M299.033 292.772c0 9.667-9.315 17.494-20.822 17.494-11.486 0-20.802-7.827-20.802-17.494" fill="#FFF" fill-rule="nonzero"/>
        <path d="M301.69 292.933s0 .227-.02.666c-.019.468.02 1.015-.177 2.121-.138 1.092-.454 2.212-.889 3.492-.494 1.255-1.126 2.653-2.074 4a18.715 18.715 0 0 1-1.58 2.027c-.553.693-1.245 1.28-1.916 1.934-1.422 1.199-3.003 2.36-4.8 3.24-1.778.92-3.734 1.627-5.768 2.107l-1.521.334-1.56.211a12.86 12.86 0 0 1-1.58.135l-1.72.067-1.402-.067-.711-.028-.83-.107-1.64-.211-1.54-.334a25.48 25.48 0 0 1-5.768-2.108c-1.797-.879-3.378-2.04-4.8-3.24-.671-.653-1.343-1.24-1.916-1.933a16.338 16.338 0 0 1-1.56-2.027c-.948-1.347-1.6-2.745-2.094-4-.435-1.28-.731-2.425-.87-3.4-.177-.96-.157-1.731-.197-2.253-.02-.52-.02-.786-.02-.786a2.657 2.657 0 0 1 2.568-2.76c1.383-.053 2.588 1.014 2.726 2.4l.04.36s.02.186.04.547c.059.36.039.893.217 1.547.098.665.375 1.454.71 2.319.376.867.85 1.827 1.561 2.773.336.48.711.96 1.166 1.428.414.492.948.905 1.442 1.373 1.086.865 2.271 1.72 3.654 2.372 1.363.708 2.884 1.227 4.464 1.589l1.185.252 1.146.147.573.067.71.025 1.403.054h-.118.158l.138-.014.316-.012.613-.014c.414-.014.83-.04 1.244-.106l1.225-.147 1.185-.252c1.6-.362 3.101-.881 4.464-1.589 1.383-.651 2.588-1.507 3.654-2.372.514-.468 1.028-.881 1.442-1.373.455-.468.83-.948 1.166-1.428.71-.946 1.185-1.906 1.58-2.773.336-.865.593-1.68.691-2.226.158-.494.178-1.255.218-1.68.04-.44.059-.681.059-.681a2.666 2.666 0 0 1 2.884-2.44 2.665 2.665 0 0 1 2.43 2.774" fill="#231F20" fill-rule="nonzero"/>
        <path d="M3.84 292.133c0 19.132 15.011 34.653 33.526 34.653 18.514 0 33.525-15.52 33.525-34.653h245.938c0 19.132 14.99 34.653 33.504 34.653 18.515 0 33.525-15.52 33.525-34.653V46.359c0-23.613-21.27-42.748-47.502-42.748H51.343C25.11 3.611 3.841 22.746 3.841 46.36v245.774" fill="#FFF" fill-rule="nonzero"/>
        <path d="M3.84 292.133c0 19.132 15.011 34.653 33.526 34.653 18.514 0 33.525-15.52 33.525-34.653h245.938c0 19.132 14.99 34.653 33.504 34.653 18.515 0 33.525-15.52 33.525-34.653V46.359c0-23.613-21.27-42.748-47.502-42.748H51.343C25.11 3.611 3.841 22.746 3.841 46.36v245.774z" stroke="#231F20" stroke-width="6.667" stroke-linecap="round" stroke-linejoin="round"/>
    </g>
</svg>
