<svg width="350" height="189" xmlns="http://www.w3.org/2000/svg">
    <title>
        la-horizontal
    </title>
    <g fill="none" fill-rule="evenodd">
        <path d="M294.505 177.293H53.188s-12.532-2.746-12.532-17.413-3.333-53.333 6-53.333h247.85c5.483 0 12.817-1.334 12.817 8.666v48c0 6.667 1.033 14.08-12.818 14.08" fill="#FFF" fill-rule="nonzero"/>
        <path d="M294.505 177.293H53.188s-12.532-2.746-12.532-17.413-3.333-53.333 6-53.333h247.85c5.483 0 12.817-1.334 12.817 8.666v48c0 6.667 1.033 14.08-12.818 14.08z" stroke="#231F20" stroke-width="6.667" stroke-linecap="round" stroke-linejoin="round"/>
        <path d="M112.321 151.173c0 9.667-8.389 17.507-18.737 17.507-10.35 0-18.739-7.84-18.739-17.507" fill="#FFF" fill-rule="nonzero"/>
        <path d="M114.984 151.32s-.008.213-.02.64c-.035.453.024.92-.14 1.96-.072.467-.127 1.027-.25 1.573-.137.534-.282 1.107-.44 1.72-.217.587-.449 1.227-.694 1.894-.305.64-.63 1.32-1.01 1.986-.811 1.334-1.763 2.734-3.026 3.987a20.002 20.002 0 0 1-4.352 3.44c-1.64 1.027-3.51 1.747-5.44 2.32-1.944.56-3.99.773-6.028.84-1.22-.08-1.735-.04-2.965-.227-.53-.08-1.091-.146-1.59-.253l-1.474-.36c-1.931-.573-3.8-1.293-5.44-2.32a20.066 20.066 0 0 1-4.352-3.44c-1.263-1.253-2.215-2.653-3.026-3.987a31.087 31.087 0 0 1-1.01-1.986c-.244-.667-.476-1.307-.695-1.894l-.439-1.72c-.12-.533-.165-1.04-.237-1.48-.16-.906-.123-1.613-.155-2.106l-.021-.734a2.654 2.654 0 0 1 2.579-2.733c1.412-.053 2.6 1.027 2.725 2.413l.03.32s.015.187.046.534c.045.346.024.866.181 1.493.071.32.11.68.215 1.053.115.374.237.774.368 1.214l.557 1.32c.248.44.482.92.764 1.4.616.92 1.308 1.92 2.256 2.8.902.906 2 1.733 3.214 2.44 1.197.746 2.584 1.253 4.004 1.666l1.089.254c.36.08.685.093 1.03.16.515.133 1.793.12 2.346.173 1.513-.053 3.03-.187 4.464-.587 1.42-.413 2.807-.92 4.004-1.666 1.213-.707 2.312-1.534 3.213-2.44.948-.88 1.64-1.88 2.256-2.8.283-.48.516-.96.764-1.4.196-.467.383-.907.558-1.32.13-.44.254-.84.368-1.214.104-.36.132-.666.202-.96.152-.493.151-1.253.196-1.626l.05-.64a2.662 2.662 0 0 1 2.864-2.454c1.425.107 2.502 1.334 2.461 2.747" fill="#231F20" fill-rule="nonzero"/>
        <path d="M164.719 151.173c0 9.667-8.39 17.507-18.738 17.507-10.349 0-18.738-7.84-18.738-17.507" fill="#FFF" fill-rule="nonzero"/>
        <path d="M167.381 151.32s-.008.213-.02.64c-.034.453.024.92-.14 1.96-.072.467-.128 1.027-.25 1.573l-.439 1.72c-.217.587-.45 1.227-.695 1.894-.305.64-.63 1.32-1.01 1.986-.811 1.334-1.763 2.734-3.026 3.987a20.002 20.002 0 0 1-4.352 3.44c-1.64 1.027-3.509 1.747-5.44 2.32-1.944.56-3.989.773-6.028.84-1.22-.08-1.734-.04-2.965-.227-.53-.08-1.09-.146-1.59-.253l-1.474-.36c-1.93-.573-3.8-1.293-5.44-2.32a20.002 20.002 0 0 1-4.352-3.44c-1.263-1.253-2.215-2.653-3.025-3.987a31.087 31.087 0 0 1-1.011-1.986c-.245-.667-.477-1.307-.695-1.894l-.438-1.72c-.122-.533-.167-1.04-.238-1.48-.16-.906-.122-1.613-.154-2.106l-.023-.734a2.656 2.656 0 0 1 2.58-2.733c1.412-.053 2.6 1.027 2.725 2.413l.028.32s.018.187.048.534c.046.346.024.866.182 1.493.069.32.109.68.214 1.053.115.374.238.774.368 1.214.175.413.362.853.558 1.32.248.44.481.92.764 1.4.616.92 1.308 1.92 2.256 2.8.901.906 2 1.733 3.213 2.44 1.197.746 2.584 1.253 4.004 1.666l1.09.254c.36.08.685.093 1.029.16.516.133 1.793.12 2.346.173 1.514-.053 3.031-.187 4.464-.587 1.42-.413 2.807-.92 4.004-1.666 1.214-.707 2.312-1.534 3.214-2.44.948-.88 1.64-1.88 2.256-2.8.282-.48.516-.96.764-1.4l.557-1.32c.13-.44.253-.84.368-1.214.104-.36.132-.666.203-.96.152-.493.15-1.253.196-1.626l.049-.64a2.662 2.662 0 0 1 2.864-2.454c1.425.107 2.503 1.334 2.461 2.747" fill="#231F20" fill-rule="nonzero"/>
        <path d="M217.116 151.173c0 9.667-8.39 17.507-18.739 17.507-10.348 0-18.737-7.84-18.737-17.507" fill="#FFF" fill-rule="nonzero"/>
        <path d="M219.779 151.32s-.008.213-.02.64c-.035.453.024.92-.14 1.96-.072.467-.128 1.027-.251 1.573-.136.534-.281 1.107-.439 1.72-.217.587-.45 1.227-.694 1.894-.306.64-.631 1.32-1.011 1.986-.81 1.334-1.763 2.734-3.025 3.987a20.066 20.066 0 0 1-4.352 3.44c-1.64 1.027-3.51 1.747-5.44 2.32-1.944.56-3.99.773-6.028.84-1.22-.08-1.735-.04-2.966-.227-.529-.08-1.09-.146-1.589-.253l-1.475-.36c-1.93-.573-3.8-1.293-5.44-2.32a20.002 20.002 0 0 1-4.352-3.44c-1.262-1.253-2.214-2.653-3.025-3.987a30.41 30.41 0 0 1-1.01-1.986c-.246-.667-.478-1.307-.695-1.894-.158-.613-.303-1.186-.439-1.72-.121-.533-.167-1.04-.239-1.48-.158-.906-.121-1.613-.153-2.106l-.023-.734a2.656 2.656 0 0 1 2.58-2.733c1.412-.053 2.6 1.027 2.726 2.413l.028.32.048.534c.045.346.024.866.181 1.493.07.32.11.68.215 1.053.113.374.237.774.368 1.214l.557 1.32c.248.44.481.92.764 1.4.616.92 1.308 1.92 2.256 2.8.901.906 2 1.733 3.213 2.44 1.198.746 2.584 1.253 4.004 1.666l1.09.254c.36.08.685.093 1.029.16.516.133 1.793.12 2.347.173 1.513-.053 3.03-.187 4.464-.587 1.42-.413 2.806-.92 4.004-1.666 1.213-.707 2.312-1.534 3.213-2.44.948-.88 1.64-1.88 2.256-2.8.283-.48.516-.96.764-1.4l.557-1.32c.131-.44.254-.84.368-1.214.103-.36.132-.666.203-.96.152-.493.15-1.253.196-1.626l.048-.64a2.664 2.664 0 0 1 2.865-2.454c1.426.107 2.503 1.334 2.462 2.747" fill="#231F20" fill-rule="nonzero"/>
        <path d="M269.512 151.173c0 9.667-8.388 17.507-18.737 17.507-10.348 0-18.738-7.84-18.738-17.507" fill="#FFF" fill-rule="nonzero"/>
        <path d="M272.176 151.32s-.008.213-.02.64c-.035.453.024.92-.14 1.96-.072.467-.128 1.027-.25 1.573l-.44 1.72c-.217.587-.45 1.227-.694 1.894-.305.64-.632 1.32-1.01 1.986-.811 1.334-1.763 2.734-3.026 3.987a20.066 20.066 0 0 1-4.352 3.44c-1.64 1.027-3.51 1.747-5.44 2.32-1.944.56-3.99.773-6.03.84-1.218-.08-1.733-.04-2.963-.227-.53-.08-1.091-.146-1.59-.253l-1.474-.36c-1.931-.573-3.8-1.293-5.44-2.32a20.002 20.002 0 0 1-4.352-3.44c-1.263-1.253-2.215-2.653-3.026-3.987a30.41 30.41 0 0 1-1.01-1.986c-.246-.667-.478-1.307-.695-1.894-.157-.613-.304-1.186-.439-1.72-.121-.533-.166-1.04-.238-1.48-.159-.906-.122-1.613-.154-2.106l-.022-.734a2.656 2.656 0 0 1 2.58-2.733c1.412-.053 2.6 1.027 2.725 2.413l.028.32.048.534c.045.346.024.866.181 1.493.07.32.11.68.215 1.053.113.374.237.774.368 1.214l.557 1.32c.248.44.482.92.764 1.4.616.92 1.308 1.92 2.256 2.8.902.906 2 1.733 3.214 2.44 1.197.746 2.584 1.253 4.004 1.666l1.089.254c.36.08.685.093 1.03.16.515.133 1.793.12 2.345.173 1.514-.053 3.032-.187 4.465-.587 1.42-.413 2.807-.92 4.004-1.666 1.213-.707 2.312-1.534 3.213-2.44.948-.88 1.64-1.88 2.256-2.8.283-.48.516-.96.764-1.4.196-.467.383-.907.558-1.32.13-.44.253-.84.368-1.214.102-.36.132-.666.202-.96.152-.493.151-1.253.196-1.626l.048-.64a2.664 2.664 0 0 1 2.866-2.454c1.425.107 2.502 1.334 2.461 2.747" fill="#231F20" fill-rule="nonzero"/>
        <path d="M3.841 150.533c0 19.147 13.507 34.654 30.17 34.654 16.661 0 30.168-15.507 30.168-34.654h221.333c0 19.147 13.508 34.654 30.17 34.654 16.662 0 30.169-15.507 30.169-34.654V46.44c0-23.6-19.14-42.747-42.751-42.747H46.592c-23.61 0-42.75 19.147-42.75 42.747v104.093" fill="#FFF" fill-rule="nonzero"/>
        <path d="M3.841 150.533c0 19.147 13.507 34.654 30.17 34.654 16.661 0 30.168-15.507 30.168-34.654h221.333c0 19.147 13.508 34.654 30.17 34.654 16.662 0 30.169-15.507 30.169-34.654V46.44c0-23.6-19.14-42.747-42.751-42.747H46.592c-23.61 0-42.75 19.147-42.75 42.747v104.093z" stroke="#231F20" stroke-width="6.667" stroke-linecap="round" stroke-linejoin="round"/>
    </g>
</svg>
