<?xml version="1.0" encoding="UTF-8" standalone="no"?>
<svg
   xmlns:dc="http://purl.org/dc/elements/1.1/"
   xmlns:cc="http://creativecommons.org/ns#"
   xmlns:rdf="http://www.w3.org/1999/02/22-rdf-syntax-ns#"
   xmlns:svg="http://www.w3.org/2000/svg"
   xmlns="http://www.w3.org/2000/svg"
   id="svg313"
   version="1.1"
   height="207.2265"
   width="186.688">
  <metadata
     id="metadata319">
    <rdf:RDF>
      <cc:Work
         rdf:about="">
        <dc:format>image/svg+xml</dc:format>
        <dc:type
           rdf:resource="http://purl.org/dc/dcmitype/StillImage" />
        <dc:title>
        la-vertical
    </dc:title>
      </cc:Work>
    </rdf:RDF>
  </metadata>
  <defs
     id="defs317" />
  <title
     id="title289">
        la-vertical
    </title>
  <g
     transform="translate(-4.22,-121.5595)"
     style="fill:none;fill-rule:evenodd"
     id="g311">
    <path
       style="fill:#ffffff;fill-rule:nonzero"
       id="path291"
       d="M 157.319,320.613 H 36.493 c 0,0 -8.205,-2.826 -8.205,-17.999 0,-15.173 -2.187,-37.96 3.916,-37.96 h 125.115 c 3.594,0 8.391,8.28 8.391,18.627 v 22.773 c 0,6.907 0.662,14.56 -8.391,14.56" />
    <path
       style="stroke:#231f20;stroke-width:6.66699982;stroke-linecap:round;stroke-linejoin:round"
       id="path293"
       d="M 157.319,320.613 H 36.493 c 0,0 -8.205,-2.826 -8.205,-17.999 0,-15.173 -2.187,-37.96 3.916,-37.96 h 125.115 c 3.594,0 8.391,8.28 8.391,18.627 v 22.773 c 0,6.907 0.662,14.56 -8.391,14.56 z" />
    <path
       style="fill:#ffffff;fill-rule:nonzero"
       id="path295"
       d="m 75.178,293.599 c 0,10 -5.475,18.107 -12.246,18.107 -6.787,0 -12.279,-8.107 -12.279,-18.107" />
    <path
       style="fill:#231f20;fill-rule:nonzero"
       id="path297"
       d="m 77.835,293.693 v 0.535 c -0.016,0.372 0,0.838 -0.016,1.559 -0.082,0.746 -0.099,1.72 -0.296,2.694 a 19.675,19.675 0 0 1 -0.705,3.36 c -0.361,1.212 -0.804,2.533 -1.477,3.866 -0.624,1.334 -1.493,2.692 -2.576,4 a 14.774,14.774 0 0 1 -4.12,3.44 c -0.836,0.494 -1.772,0.853 -2.724,1.134 -0.492,0.107 -0.984,0.24 -1.476,0.305 l -0.772,0.067 -0.377,0.027 -0.197,0.013 h -0.082 l -0.066,0.015 c -0.131,-0.015 0.197,0 -0.262,-0.015 l -1.116,-0.092 c -0.443,-0.041 -1.1,-0.187 -1.608,-0.307 -1.067,-0.307 -1.92,-0.653 -2.774,-1.147 a 14.774,14.774 0 0 1 -4.119,-3.44 c -1.083,-1.308 -1.952,-2.666 -2.576,-4 -0.673,-1.333 -1.132,-2.654 -1.477,-3.867 a 21.57,21.57 0 0 1 -0.722,-3.359 c -0.18,-1 -0.213,-1.88 -0.279,-2.6 -0.033,-1.455 -0.033,-2.28 -0.033,-2.28 0.033,-1.467 1.247,-2.654 2.708,-2.627 a 2.657,2.657 0 0 1 2.626,2.52 v 0.107 c 0,0 0.032,0.68 0.13,1.853 0.1,0.587 0.148,1.306 0.329,2.093 0.148,0.813 0.41,1.694 0.69,2.64 0.311,0.933 0.688,1.934 1.23,2.894 0.476,0.986 1.132,1.907 1.854,2.786 a 9.055,9.055 0 0 0 2.511,2.066 c 0.443,0.268 0.968,0.44 1.362,0.56 0.213,0.028 0.28,0.094 0.59,0.148 l 1.133,0.065 c -0.46,-0.013 -0.131,0 -0.213,0 l 0.016,-0.013 h 0.066 l 0.082,-0.013 0.18,-0.013 0.361,-0.013 c 0.23,-0.028 0.476,-0.107 0.723,-0.148 0.475,-0.146 0.935,-0.305 1.394,-0.573 a 8.889,8.889 0 0 0 2.528,-2.066 c 0.705,-0.88 1.362,-1.8 1.854,-2.786 a 16.33,16.33 0 0 0 1.214,-2.893 c 0.296,-0.947 0.542,-1.828 0.69,-2.64 0.196,-0.814 0.23,-1.454 0.328,-2.014 0.065,-0.588 0.082,-1.147 0.115,-1.48 0,-0.361 0.016,-0.547 0.016,-0.547 0.098,-1.467 1.362,-2.588 2.823,-2.494 a 2.656,2.656 0 0 1 2.51,2.68" />
    <path
       style="fill:#ffffff;fill-rule:nonzero"
       id="path299"
       d="m 109.452,293.6 c 0,10 -5.496,18.107 -12.254,18.107 -6.774,0 -12.27,-8.108 -12.27,-18.107" />
    <path
       style="fill:#231f20;fill-rule:nonzero"
       id="path301"
       d="m 112.125,293.691 v 0.536 c -0.016,0.372 0,0.839 -0.033,1.559 -0.067,0.746 -0.1,1.72 -0.266,2.694 a 23.162,23.162 0 0 1 -0.715,3.359 c -0.365,1.213 -0.83,2.533 -1.496,3.867 a 19.205,19.205 0 0 1 -2.56,4 14.98,14.98 0 0 1 -4.138,3.44 c -0.814,0.493 -1.745,0.852 -2.709,1.133 -0.498,0.106 -0.98,0.241 -1.479,0.306 l -0.764,0.068 -0.383,0.027 -0.183,0.013 h -0.1 l -0.05,0.013 h -0.032 c -0.1,-0.013 0.216,0 -0.233,-0.013 l -1.13,-0.095 c -0.432,-0.038 -1.097,-0.186 -1.629,-0.306 -1.03,-0.305 -1.895,-0.653 -2.742,-1.146 a 14.98,14.98 0 0 1 -4.139,-3.44 c -1.08,-1.307 -1.944,-2.667 -2.56,-4 a 22.725,22.725 0 0 1 -1.479,-3.867 c -0.349,-1.214 -0.598,-2.347 -0.73,-3.36 -0.167,-1 -0.2,-1.88 -0.267,-2.6 -0.05,-1.453 -0.033,-2.28 -0.033,-2.28 a 2.663,2.663 0 0 1 2.709,-2.627 2.657,2.657 0 0 1 2.626,2.52 v 0.106 c 0,0 0.033,0.682 0.133,1.855 0.083,0.587 0.15,1.307 0.332,2.093 0.15,0.812 0.383,1.693 0.682,2.64 0.316,0.933 0.681,1.934 1.213,2.893 0.482,0.987 1.147,1.908 1.878,2.787 a 8.793,8.793 0 0 0 2.51,2.066 c 0.432,0.267 0.964,0.44 1.346,0.56 0.216,0.026 0.283,0.093 0.599,0.148 l 1.113,0.066 c -0.432,-0.013 -0.1,0 -0.2,0 l 0.034,-0.013 h 0.033 l 0.1,-0.013 0.183,-0.014 0.365,-0.013 c 0.233,-0.028 0.466,-0.108 0.715,-0.148 0.465,-0.146 0.947,-0.306 1.396,-0.573 a 8.857,8.857 0 0 0 2.526,-2.066 c 0.698,-0.88 1.363,-1.8 1.862,-2.787 0.515,-0.96 0.914,-1.96 1.213,-2.892 0.3,-0.948 0.532,-1.829 0.682,-2.641 0.2,-0.813 0.232,-1.455 0.332,-2.013 0.067,-0.587 0.083,-1.147 0.1,-1.48 0.016,-0.362 0.033,-0.548 0.033,-0.548 0.1,-1.466 1.363,-2.586 2.825,-2.493 1.43,0.08 2.51,1.267 2.51,2.68" />
    <path
       style="fill:#ffffff;fill-rule:nonzero"
       id="path303"
       d="m 143.725,293.6 c 0,10.002 -5.498,18.108 -12.257,18.108 -6.776,0 -12.258,-8.106 -12.258,-18.107" />
    <path
       style="fill:#231f20;fill-rule:nonzero"
       id="path305"
       d="m 146.399,293.693 c 0,0 0,0.187 -0.017,0.534 0,0.373 0.017,0.84 -0.017,1.56 -0.067,0.747 -0.101,1.72 -0.27,2.693 a 22.912,22.912 0 0 1 -0.723,3.36 c -0.354,1.214 -0.808,2.534 -1.481,3.867 -0.623,1.333 -1.498,2.693 -2.575,4 a 14.599,14.599 0 0 1 -4.124,3.44 c -0.824,0.494 -1.75,0.852 -2.71,1.133 -0.504,0.106 -0.993,0.241 -1.48,0.307 l -0.758,0.067 -0.387,0.027 -0.185,0.012 h -0.101 l -0.05,0.013 h -0.034 c -0.101,-0.013 0.218,0 -0.236,-0.013 l -1.11,-0.093 c -0.455,-0.04 -1.095,-0.187 -1.633,-0.306 -1.044,-0.307 -1.902,-0.653 -2.744,-1.146 a 14.679,14.679 0 0 1 -4.14,-3.44 c -1.077,-1.308 -1.953,-2.668 -2.575,-4.001 -0.657,-1.333 -1.111,-2.653 -1.481,-3.866 -0.337,-1.214 -0.59,-2.348 -0.724,-3.361 -0.168,-1 -0.185,-1.88 -0.253,-2.599 -0.067,-1.454 -0.05,-2.28 -0.05,-2.28 0.034,-1.468 1.229,-2.655 2.71,-2.628 a 2.657,2.657 0 0 1 2.625,2.52 v 0.107 l 0.135,1.854 c 0.1,0.587 0.151,1.306 0.337,2.093 0.151,0.813 0.387,1.693 0.673,2.64 0.32,0.933 0.69,1.933 1.212,2.892 0.505,0.988 1.16,1.907 1.885,2.788 a 8.967,8.967 0 0 0 2.507,2.066 c 0.421,0.266 0.977,0.44 1.364,0.56 0.202,0.028 0.269,0.093 0.589,0.147 l 1.11,0.068 c -0.437,-0.015 -0.1,0 -0.201,0 l 0.033,-0.015 h 0.034 l 0.1,-0.012 0.186,-0.014 0.354,-0.013 c 0.252,-0.027 0.488,-0.106 0.723,-0.147 0.471,-0.148 0.943,-0.308 1.397,-0.574 a 8.967,8.967 0 0 0 2.508,-2.066 c 0.724,-0.88 1.397,-1.8 1.885,-2.788 0.522,-0.959 0.892,-1.959 1.212,-2.893 0.286,-0.946 0.538,-1.826 0.673,-2.639 0.202,-0.814 0.236,-1.454 0.337,-2.014 0.067,-0.586 0.067,-1.147 0.117,-1.48 0,-0.36 0.017,-0.547 0.017,-0.547 0.101,-1.466 1.364,-2.587 2.828,-2.492 1.414,0.079 2.508,1.267 2.508,2.679" />
    <path
       style="fill:#ffffff;fill-rule:nonzero"
       id="path307"
       d="m 4.221,295.613 c 0,19.8 8.826,33.173 19.72,33.173 10.896,0 19.739,-16.054 19.739,-35.84 h 107.77 c 0,19.786 8.826,35.84 19.72,35.84 10.896,0 19.738,-13.373 19.738,-33.173 V 156.4405 c 0,-24.414 -12.52,-34.881 -27.981,-34.881 H 32.169 c -15.429,0 -27.949,10.467 -27.949,34.88 V 295.613" />
    <path
       style="stroke:#231f20;stroke-width:6.66699982;stroke-linecap:round;stroke-linejoin:round"
       id="path309"
       d="m 4.221,295.613 c 0,19.8 8.826,33.173 19.72,33.173 10.896,0 19.739,-16.054 19.739,-35.84 h 107.77 c 0,19.786 8.826,35.84 19.72,35.84 10.896,0 19.738,-13.373 19.738,-33.173 V 156.4405 c 0,-24.414 -12.52,-34.881 -27.981,-34.881 H 32.169 c -15.429,0 -27.949,10.467 -27.949,34.88 V 295.613 Z" />
  </g>
</svg>
