<svg width="195" height="333" xmlns="http://www.w3.org/2000/svg">
    <title>
        la-vertical
    </title>
    <g fill="none" fill-rule="evenodd">
        <path d="M157.319 320.613H36.493s-8.205-2.826-8.205-17.999c0-15.173-2.187-37.96 3.916-37.96h125.115c3.594 0 8.391 8.28 8.391 18.627v22.773c0 6.907.662 14.56-8.391 14.56" fill="#FFF" fill-rule="nonzero"/>
        <path d="M157.319 320.613H36.493s-8.205-2.826-8.205-17.999c0-15.173-2.187-37.96 3.916-37.96h125.115c3.594 0 8.391 8.28 8.391 18.627v22.773c0 6.907.662 14.56-8.391 14.56z" stroke="#231F20" stroke-width="6.667" stroke-linecap="round" stroke-linejoin="round"/>
        <path d="M75.178 293.599c0 10-5.475 18.107-12.246 18.107-6.787 0-12.279-8.107-12.279-18.107" fill="#FFF" fill-rule="nonzero"/>
        <path d="M77.835 293.693v.535c-.016.372 0 .838-.016 1.559-.082.746-.099 1.72-.296 2.694a19.675 19.675 0 0 1-.705 3.36c-.361 1.212-.804 2.533-1.477 3.866-.624 1.334-1.493 2.692-2.576 4a14.774 14.774 0 0 1-4.12 3.44c-.836.494-1.772.853-2.724 1.134-.492.107-.984.24-1.476.305l-.772.067-.377.027-.197.013h-.082l-.066.015c-.131-.015.197 0-.262-.015l-1.116-.092c-.443-.041-1.1-.187-1.608-.307-1.067-.307-1.92-.653-2.774-1.147a14.774 14.774 0 0 1-4.119-3.44c-1.083-1.308-1.952-2.666-2.576-4-.673-1.333-1.132-2.654-1.477-3.867a21.57 21.57 0 0 1-.722-3.359c-.18-1-.213-1.88-.279-2.6-.033-1.455-.033-2.28-.033-2.28.033-1.467 1.247-2.654 2.708-2.627a2.657 2.657 0 0 1 2.626 2.52v.107s.032.68.13 1.853c.1.587.148 1.306.329 2.093.148.813.41 1.694.69 2.64.311.933.688 1.934 1.23 2.894.476.986 1.132 1.907 1.854 2.786a9.055 9.055 0 0 0 2.511 2.066c.443.268.968.44 1.362.56.213.028.28.094.59.148l1.133.065c-.46-.013-.131 0-.213 0l.016-.013h.066l.082-.013.18-.013.361-.013c.23-.028.476-.107.723-.148.475-.146.935-.305 1.394-.573a8.889 8.889 0 0 0 2.528-2.066c.705-.88 1.362-1.8 1.854-2.786a16.33 16.33 0 0 0 1.214-2.893c.296-.947.542-1.828.69-2.64.196-.814.23-1.454.328-2.014.065-.588.082-1.147.115-1.48 0-.361.016-.547.016-.547.098-1.467 1.362-2.588 2.823-2.494a2.656 2.656 0 0 1 2.51 2.68" fill="#231F20" fill-rule="nonzero"/>
        <path d="M109.452 293.6c0 10-5.496 18.107-12.254 18.107-6.774 0-12.27-8.108-12.27-18.107" fill="#FFF" fill-rule="nonzero"/>
        <path d="M112.125 293.691v.536c-.016.372 0 .839-.033 1.559-.067.746-.1 1.72-.266 2.694a23.162 23.162 0 0 1-.715 3.359c-.365 1.213-.83 2.533-1.496 3.867a19.205 19.205 0 0 1-2.56 4 14.98 14.98 0 0 1-4.138 3.44c-.814.493-1.745.852-2.709 1.133-.498.106-.98.241-1.479.306l-.764.068-.383.027-.183.013h-.1l-.05.013h-.032c-.1-.013.216 0-.233-.013l-1.13-.095c-.432-.038-1.097-.186-1.629-.306-1.03-.305-1.895-.653-2.742-1.146a14.98 14.98 0 0 1-4.139-3.44c-1.08-1.307-1.944-2.667-2.56-4a22.725 22.725 0 0 1-1.479-3.867c-.349-1.214-.598-2.347-.73-3.36-.167-1-.2-1.88-.267-2.6-.05-1.453-.033-2.28-.033-2.28a2.663 2.663 0 0 1 2.709-2.627 2.657 2.657 0 0 1 2.626 2.52v.106s.033.682.133 1.855c.083.587.15 1.307.332 2.093.15.812.383 1.693.682 2.64.316.933.681 1.934 1.213 2.893.482.987 1.147 1.908 1.878 2.787a8.793 8.793 0 0 0 2.51 2.066c.432.267.964.44 1.346.56.216.026.283.093.599.148l1.113.066c-.432-.013-.1 0-.2 0l.034-.013h.033l.1-.013.183-.014.365-.013c.233-.028.466-.108.715-.148.465-.146.947-.306 1.396-.573a8.857 8.857 0 0 0 2.526-2.066c.698-.88 1.363-1.8 1.862-2.787.515-.96.914-1.96 1.213-2.892.3-.948.532-1.829.682-2.641.2-.813.232-1.455.332-2.013.067-.587.083-1.147.1-1.48.016-.362.033-.548.033-.548.1-1.466 1.363-2.586 2.825-2.493 1.43.08 2.51 1.267 2.51 2.68" fill="#231F20" fill-rule="nonzero"/>
        <path d="M143.725 293.6c0 10.002-5.498 18.108-12.257 18.108-6.776 0-12.258-8.106-12.258-18.107" fill="#FFF" fill-rule="nonzero"/>
        <path d="M146.399 293.693s0 .187-.017.534c0 .373.017.84-.017 1.56-.067.747-.101 1.72-.27 2.693a22.912 22.912 0 0 1-.723 3.36c-.354 1.214-.808 2.534-1.481 3.867-.623 1.333-1.498 2.693-2.575 4a14.599 14.599 0 0 1-4.124 3.44c-.824.494-1.75.852-2.71 1.133-.504.106-.993.241-1.48.307l-.758.067-.387.027-.185.012h-.101l-.05.013h-.034c-.101-.013.218 0-.236-.013l-1.11-.093c-.455-.04-1.095-.187-1.633-.306-1.044-.307-1.902-.653-2.744-1.146a14.679 14.679 0 0 1-4.14-3.44c-1.077-1.308-1.953-2.668-2.575-4.001-.657-1.333-1.111-2.653-1.481-3.866-.337-1.214-.59-2.348-.724-3.361-.168-1-.185-1.88-.253-2.599-.067-1.454-.05-2.28-.05-2.28.034-1.468 1.229-2.655 2.71-2.628a2.657 2.657 0 0 1 2.625 2.52v.107l.135 1.854c.1.587.151 1.306.337 2.093.151.813.387 1.693.673 2.64.32.933.69 1.933 1.212 2.892.505.988 1.16 1.907 1.885 2.788a8.967 8.967 0 0 0 2.507 2.066c.421.266.977.44 1.364.56.202.028.269.093.589.147l1.11.068c-.437-.015-.1 0-.201 0l.033-.015h.034l.1-.012.186-.014.354-.013c.252-.027.488-.106.723-.147.471-.148.943-.308 1.397-.574a8.967 8.967 0 0 0 2.508-2.066c.724-.88 1.397-1.8 1.885-2.788.522-.959.892-1.959 1.212-2.893.286-.946.538-1.826.673-2.639.202-.814.236-1.454.337-2.014.067-.586.067-1.147.117-1.48 0-.36.017-.547.017-.547.101-1.466 1.364-2.587 2.828-2.492 1.414.079 2.508 1.267 2.508 2.679" fill="#231F20" fill-rule="nonzero"/>
        <path d="M4.221 295.613c0 19.8 8.826 33.173 19.72 33.173 10.896 0 19.739-16.054 19.739-35.84h107.77c0 19.786 8.826 35.84 19.72 35.84 10.896 0 19.738-13.373 19.738-33.173V38.64c0-24.414-12.52-34.881-27.981-34.881H32.169C16.74 3.759 4.22 14.226 4.22 38.639v256.974" fill="#FFF" fill-rule="nonzero"/>
        <path d="M4.221 295.613c0 19.8 8.826 33.173 19.72 33.173 10.896 0 19.739-16.054 19.739-35.84h107.77c0 19.786 8.826 35.84 19.72 35.84 10.896 0 19.738-13.373 19.738-33.173V38.64c0-24.414-12.52-34.881-27.981-34.881H32.169C16.74 3.759 4.22 14.226 4.22 38.639v256.974z" stroke="#231F20" stroke-width="6.667" stroke-linecap="round" stroke-linejoin="round"/>
    </g>
</svg>
