<svg width="372" height="327" xmlns="http://www.w3.org/2000/svg">
    <title>
        li-double
    </title>
    <g fill="none" fill-rule="evenodd">
        <path d="M47.446 323.663c-23.942 0-43.338-19.412-43.338-43.338V46.982c0-23.926 19.396-43.322 43.338-43.322H324.62c23.942 0 43.338 19.396 43.338 43.322v233.343c0 23.926-19.396 43.338-43.338 43.338H47.446" fill="#FFF" fill-rule="nonzero"/>
        <path d="M47.446 323.663c-23.942 0-43.338-19.412-43.338-43.338V46.982c0-23.926 19.396-43.322 43.338-43.322H324.62c23.942 0 43.338 19.396 43.338 43.322v233.343c0 23.926-19.396 43.338-43.338 43.338H47.446z" stroke="#231F20" stroke-width="6.667"/>
    </g>
</svg>
