<svg width="327" height="181" xmlns="http://www.w3.org/2000/svg">
    <title>
        li-horizontal
    </title>
    <g fill="none" fill-rule="evenodd">
        <path d="M323.545 133.977c0 23.94-19.397 43.337-43.337 43.337H46.868c-23.927 0-43.325-19.398-43.325-43.337V47.315c0-23.94 19.398-43.337 43.324-43.337h233.341c23.94 0 43.337 19.398 43.337 43.337v86.662" fill="#FFF" fill-rule="nonzero"/>
        <path d="M323.545 133.977c0 23.94-19.397 43.337-43.337 43.337H46.868c-23.927 0-43.325-19.398-43.325-43.337V47.315c0-23.94 19.398-43.337 43.324-43.337h233.341c23.94 0 43.337 19.398 43.337 43.337v86.662z" stroke="#231F20" stroke-width="6.667"/>
    </g>
</svg>
