<svg width="181" height="181" xmlns="http://www.w3.org/2000/svg">
    <title>
        li-single
    </title>
    <g fill="none" fill-rule="evenodd">
        <path d="M177.22 133.585c0 23.931-19.4 43.334-43.333 43.334H47.22c-23.932 0-43.334-19.403-43.334-43.334V46.917c0-23.93 19.402-43.334 43.334-43.334h86.667c23.932 0 43.334 19.403 43.334 43.334v86.668" fill="#FFF" fill-rule="nonzero"/>
        <path d="M177.22 133.585c0 23.931-19.4 43.334-43.333 43.334H47.22c-23.932 0-43.334-19.403-43.334-43.334V46.917c0-23.93 19.402-43.334 43.334-43.334h86.667c23.932 0 43.334 19.403 43.334 43.334v86.668z" stroke="#231F20" stroke-width="6.667"/>
    </g>
</svg>
