<svg width="181" height="327" xmlns="http://www.w3.org/2000/svg">
    <title>
        li-vertical
    </title>
    <g fill="none" fill-rule="evenodd">
        <path d="M47.482 323.644c-23.913 0-43.328-19.4-43.328-43.327V46.977C4.154 23.05 23.57 3.65 47.482 3.65h86.668c23.94 0 43.34 19.4 43.34 43.327v233.34c0 23.927-19.4 43.327-43.34 43.327H47.482" fill="#FFF" fill-rule="nonzero"/>
        <path d="M47.482 323.644c-23.913 0-43.328-19.4-43.328-43.327V46.977C4.154 23.05 23.57 3.65 47.482 3.65h86.668c23.94 0 43.34 19.4 43.34 43.327v233.34c0 23.927-19.4 43.327-43.34 43.327H47.482z" stroke="#231F20" stroke-width="6.667"/>
    </g>
</svg>
