<?xml version="1.0" encoding="UTF-8" standalone="no"?>
<svg
   xmlns:dc="http://purl.org/dc/elements/1.1/"
   xmlns:cc="http://creativecommons.org/ns#"
   xmlns:rdf="http://www.w3.org/1999/02/22-rdf-syntax-ns#"
   xmlns:svg="http://www.w3.org/2000/svg"
   xmlns="http://www.w3.org/2000/svg"
   id="svg120"
   version="1.1"
   height="179.19701"
   width="236.2365">
  <metadata
     id="metadata126">
    <rdf:RDF>
      <cc:Work
         rdf:about="">
        <dc:format>image/svg+xml</dc:format>
        <dc:type
           rdf:resource="http://purl.org/dc/dcmitype/StillImage" />
        <dc:title>
        lon-single-side
    </dc:title>
      </cc:Work>
    </rdf:RDF>
  </metadata>
  <defs
     id="defs124" />
  <title
     id="title104">
        lon-single-side
    </title>
  <g
     style="fill:none;fill-rule:evenodd"
     transform="rotate(-90,89.37275,89.97075)"
     id="g118">
    <path
       style="fill:#ffffff;fill-rule:nonzero"
       id="path106"
       d="m 176.01,190.37 c 0,23.823 -19.316,43.131 -43.138,43.131 H 46.61 c -23.821,0 -43.13,-19.308 -43.13,-43.132 v -86.264 c 0,-23.824 19.309,-43.132 43.13,-43.132 h 86.262 c 23.822,0 43.137,19.308 43.137,43.132 v 86.264" />
    <path
       style="stroke:#231f20;stroke-width:6.66699982"
       id="path108"
       d="m 176.01,190.37 c 0,23.823 -19.316,43.131 -43.138,43.131 H 46.61 c -23.821,0 -43.13,-19.308 -43.13,-43.132 v -86.264 c 0,-23.824 19.309,-43.132 43.13,-43.132 h 86.262 c 23.822,0 43.137,19.308 43.137,43.132 v 86.264 z" />
    <path
       style="fill:#ffffff;fill-rule:nonzero"
       id="path110"
       d="m 109.692,30.295 c 25.17,4.86 41.156,16.737 41.156,34.503 0,45.045 -85.006,2.093 -122.206,39.3 v -39.3 c 0,-17.573 16.5,-29.578 41.244,-34.6" />
    <path
       style="fill:#231f20;fill-rule:nonzero"
       id="path112"
       d="m 110.227,27.684 c 1.986,0.339 4.129,0.725 6.178,1.225 a 92.117,92.117 0 0 1 6.146,1.659 c 4.073,1.24 8.072,2.852 11.908,4.914 3.826,2.046 7.519,4.575 10.673,7.797 3.16,3.206 5.79,7.121 7.332,11.503 a 29.708,29.708 0 0 1 1.53,6.767 c 0.046,0.563 0.118,1.143 0.137,1.707 l 0.028,0.87 0.013,0.42 0.008,0.225 -0.007,0.29 -0.048,1.546 c -0.003,0.484 -0.094,1.16 -0.139,1.74 -0.253,2.352 -0.734,4.624 -1.635,6.896 -0.892,2.255 -2.223,4.414 -3.91,6.218 -3.402,3.657 -7.867,5.687 -12.126,6.896 -4.307,1.192 -8.6,1.74 -12.828,2.03 -4.233,0.306 -8.414,0.354 -12.569,0.338 -4.153,-0.032 -8.278,-0.13 -12.38,-0.226 -8.206,-0.193 -16.351,-0.338 -24.408,0.113 -8.041,0.467 -16.022,1.514 -23.55,3.85 a 55.318,55.318 0 0 0 -10.772,4.576 46.011,46.011 0 0 0 -9.282,6.943 2.656,2.656 0 0 1 -4.55,-1.772 v -0.112 c -0.123,-4.06 -0.302,-8.136 -0.374,-12.212 -0.065,-4.06 -0.178,-8.136 -0.203,-12.212 L 25.324,67.461 25.314,65.947 25.31,65.173 V 64.69 l 0.011,-0.37 c 0.028,-0.532 0.016,-0.967 0.071,-1.58 0.058,-0.595 0.098,-1.224 0.179,-1.787 0.298,-2.272 0.87,-4.528 1.703,-6.67 1.658,-4.302 4.366,-8.088 7.53,-11.197 3.169,-3.126 6.813,-5.59 10.594,-7.62 a 67.565,67.565 0 0 1 11.753,-4.914 c 4.018,-1.273 8.099,-2.24 12.203,-2.964 a 2.665,2.665 0 0 1 3.092,2.158 2.671,2.671 0 0 1 -1.993,3.061 h -0.037 c -3.863,0.935 -7.691,1.966 -11.379,3.32 -3.686,1.352 -7.285,2.883 -10.621,4.8 -3.355,1.885 -6.41,4.173 -9.04,6.767 -2.613,2.61 -4.706,5.622 -5.953,8.957 a 22.13,22.13 0 0 0 -1.268,5.14 c -0.06,0.434 -0.074,0.837 -0.119,1.256 -0.042,0.387 -0.032,0.983 -0.053,1.466 l -0.026,2.948 -0.074,12.212 c -0.026,4.076 -0.137,8.152 -0.203,12.212 -0.072,4.076 -0.251,8.152 -0.372,12.212 l -4.553,-1.885 a 51.667,51.667 0 0 1 10.266,-7.991 61.952,61.952 0 0 1 11.781,-5.284 c 8.147,-2.707 16.599,-3.883 24.944,-4.463 8.363,-0.548 16.678,-0.483 24.91,-0.37 8.223,0.08 16.41,0.354 24.363,-0.226 3.964,-0.29 7.87,-0.806 11.488,-1.837 3.6,-1.03 6.86,-2.642 9.082,-5.075 2.249,-2.368 3.426,-5.703 3.77,-9.231 0.03,-0.451 0.104,-0.79 0.107,-1.337 l 0.044,-1.547 -0.027,-1.272 c -0.009,-0.452 -0.068,-0.903 -0.096,-1.354 a 22.887,22.887 0 0 0 -1.143,-5.252 c -1.164,-3.4 -3.176,-6.492 -5.76,-9.167 -2.59,-2.658 -5.668,-4.962 -9.043,-6.863 -3.359,-1.933 -7.001,-3.447 -10.733,-4.785 a 84.658,84.658 0 0 0 -5.695,-1.788 c -1.926,-0.532 -3.811,-0.983 -5.854,-1.466 a 2.653,2.653 0 0 1 -1.998,-3.19 2.66,2.66 0 0 1 3.045,-2.03 h 0.02" />
    <path
       style="fill:#ffffff;fill-rule:nonzero"
       id="path114"
       d="m 109.15,35.575 c 0,17.473 -8.69,31.63 -19.408,31.63 -10.72,0 -19.409,-14.157 -19.409,-31.63 0,-17.473 8.69,-31.63 19.41,-31.63 10.717,0 19.407,14.157 19.407,31.63" />
    <path
       style="fill:#231f20;fill-rule:nonzero"
       id="path116"
       d="m 106.155,35.572 -0.074,-1.725 c -0.023,-1.123 -0.181,-2.767 -0.466,-4.818 -0.324,-2.066 -0.815,-4.54 -1.73,-7.258 -0.934,-2.685 -2.257,-5.647 -4.223,-8.349 C 99.174,12.739 98.609,12.12 98.06,11.469 97.442,10.916 96.884,10.249 96.199,9.777 95.561,9.207 94.841,8.817 94.13,8.393 93.412,8.084 92.574,7.677 92,7.596 L 91.53,7.449 C 91.362,7.384 91.01,7.384 90.758,7.368 L 89.928,7.287 89.511,7.254 c -0.26,0 0.295,0.016 0.225,0.016 h -0.037 l -0.077,0.017 -0.151,0.016 c -0.405,0.032 -0.814,0.049 -1.224,0.081 -0.405,0.114 -0.81,0.212 -1.224,0.31 -1.629,0.52 -3.232,1.513 -4.7,2.848 -2.96,2.701 -5.153,6.754 -6.682,11.083 -0.692,2.197 -1.341,4.475 -1.672,6.819 -0.236,1.171 -0.3,2.31 -0.44,3.466 -0.12,1.107 -0.126,2.604 -0.191,3.662 -0.034,4.785 0.62,9.586 1.99,14.028 1.423,4.41 3.63,8.545 6.627,11.376 1.484,1.4 3.175,2.49 4.86,3.06 0.379,0.081 0.745,0.179 1.115,0.31 0.509,0.064 1.11,0.097 1.655,0.162 l 0.21,0.016 h 0.104 l 0.052,0.016 c 0.067,0 -0.384,-0.016 -0.176,-0.016 l 0.326,-0.032 0.647,-0.05 c 0.433,0 0.853,-0.113 1.268,-0.227 1.668,-0.407 3.24,-1.237 4.583,-2.36 0.716,-0.488 1.29,-1.188 1.91,-1.774 0.554,-0.683 1.12,-1.334 1.605,-2.034 1.963,-2.816 3.228,-5.843 4.098,-8.577 0.856,-2.766 1.286,-5.273 1.564,-7.34 0.228,-2.05 0.347,-3.564 0.345,-4.833 l 0.034,-1.823 z m 5.998,0.081 -0.077,1.823 c -0.02,1.123 -0.189,3.092 -0.516,5.452 -0.366,2.327 -0.916,5.143 -1.969,8.284 -1.08,3.124 -2.602,6.607 -5.063,10.008 -0.61,0.847 -1.335,1.677 -2.056,2.507 -0.82,0.765 -1.564,1.627 -2.535,2.31 -1.805,1.498 -4.078,2.751 -6.656,3.353 -0.64,0.18 -1.288,0.326 -1.968,0.358 l -1.012,0.082 -0.508,0.032 c 0.174,0 -0.31,-0.016 -0.28,-0.016 H 89.357 L 89.149,69.83 c -0.57,-0.05 -1.099,-0.082 -1.71,-0.147 a 36.6,36.6 0 0 1 -2.206,-0.52 c -2.685,-0.847 -5.011,-2.36 -7.011,-4.2 -3.986,-3.71 -6.5,-8.56 -8.28,-13.589 -1.685,-5.061 -2.526,-10.432 -2.605,-15.802 0.046,-1.481 0.013,-2.555 0.116,-3.955 0.12,-1.383 0.19,-2.783 0.42,-4.101 0.324,-2.67 0.997,-5.29 1.756,-7.877 1.674,-5.094 4.202,-10.025 8.227,-13.866 2.018,-1.904 4.428,-3.499 7.169,-4.394 a 698.63,698.63 0 0 0 2.096,-0.537 c 0.71,-0.098 1.43,-0.147 2.141,-0.212 l 0.267,-0.016 h 0.134 l 0.065,-0.016 c -0.034,0 0.555,0.032 0.329,0.016 l 0.418,0.033 0.828,0.081 c 0.296,0.033 0.505,0.016 0.871,0.081 l 1.125,0.245 c 1.581,0.325 2.693,0.895 3.904,1.448 1.12,0.635 2.216,1.286 3.134,2.083 1.003,0.716 1.761,1.595 2.585,2.409 0.726,0.862 1.45,1.709 2.06,2.587 2.456,3.516 3.919,7.064 4.936,10.22 0.993,3.19 1.486,6.039 1.8,8.382 0.272,2.344 0.402,4.183 0.399,5.452 0.026,1.253 0.037,1.937 0.037,1.937 z" />
  </g>
</svg>
