<svg width="180" height="237" xmlns="http://www.w3.org/2000/svg">
    <title>
        lon-single-side
    </title>
    <g fill="none" fill-rule="evenodd">
        <path d="M176.01 190.37c0 23.823-19.316 43.131-43.138 43.131H46.61c-23.821 0-43.13-19.308-43.13-43.132v-86.264c0-23.824 19.309-43.132 43.13-43.132h86.262c23.822 0 43.137 19.308 43.137 43.132v86.264" fill="#FFF" fill-rule="nonzero"/>
        <path d="M176.01 190.37c0 23.823-19.316 43.131-43.138 43.131H46.61c-23.821 0-43.13-19.308-43.13-43.132v-86.264c0-23.824 19.309-43.132 43.13-43.132h86.262c23.822 0 43.137 19.308 43.137 43.132v86.264z" stroke="#231F20" stroke-width="6.667"/>
        <path d="M109.692 30.295c25.17 4.86 41.156 16.737 41.156 34.503 0 45.045-85.006 2.093-122.206 39.3v-39.3c0-17.573 16.5-29.578 41.244-34.6" fill="#FFF" fill-rule="nonzero"/>
        <path d="M110.227 27.684c1.986.339 4.129.725 6.178 1.225a92.117 92.117 0 0 1 6.146 1.659c4.073 1.24 8.072 2.852 11.908 4.914 3.826 2.046 7.519 4.575 10.673 7.797 3.16 3.206 5.79 7.121 7.332 11.503a29.708 29.708 0 0 1 1.53 6.767c.046.563.118 1.143.137 1.707l.028.87.013.42.008.225-.007.29-.048 1.546c-.003.484-.094 1.16-.139 1.74-.253 2.352-.734 4.624-1.635 6.896-.892 2.255-2.223 4.414-3.91 6.218-3.402 3.657-7.867 5.687-12.126 6.896-4.307 1.192-8.6 1.74-12.828 2.03-4.233.306-8.414.354-12.569.338-4.153-.032-8.278-.13-12.38-.226-8.206-.193-16.351-.338-24.408.113-8.041.467-16.022 1.514-23.55 3.85a55.318 55.318 0 0 0-10.772 4.576 46.011 46.011 0 0 0-9.282 6.943 2.656 2.656 0 0 1-4.55-1.772v-.112c-.123-4.06-.302-8.136-.374-12.212-.065-4.06-.178-8.136-.203-12.212l-.075-12.212-.01-1.514-.004-.774v-.483l.011-.37c.028-.532.016-.967.071-1.58.058-.595.098-1.224.179-1.787.298-2.272.87-4.528 1.703-6.67 1.658-4.302 4.366-8.088 7.53-11.197 3.169-3.126 6.813-5.59 10.594-7.62a67.565 67.565 0 0 1 11.753-4.914c4.018-1.273 8.099-2.24 12.203-2.964a2.665 2.665 0 0 1 3.092 2.158 2.671 2.671 0 0 1-1.993 3.061h-.037c-3.863.935-7.691 1.966-11.379 3.32-3.686 1.352-7.285 2.883-10.621 4.8-3.355 1.885-6.41 4.173-9.04 6.767-2.613 2.61-4.706 5.622-5.953 8.957a22.13 22.13 0 0 0-1.268 5.14c-.06.434-.074.837-.119 1.256-.042.387-.032.983-.053 1.466l-.026 2.948-.074 12.212c-.026 4.076-.137 8.152-.203 12.212-.072 4.076-.251 8.152-.372 12.212l-4.553-1.885a51.667 51.667 0 0 1 10.266-7.991 61.952 61.952 0 0 1 11.781-5.284c8.147-2.707 16.599-3.883 24.944-4.463 8.363-.548 16.678-.483 24.91-.37 8.223.08 16.41.354 24.363-.226 3.964-.29 7.87-.806 11.488-1.837 3.6-1.03 6.86-2.642 9.082-5.075 2.249-2.368 3.426-5.703 3.77-9.231.03-.451.104-.79.107-1.337l.044-1.547-.027-1.272c-.009-.452-.068-.903-.096-1.354a22.887 22.887 0 0 0-1.143-5.252c-1.164-3.4-3.176-6.492-5.76-9.167-2.59-2.658-5.668-4.962-9.043-6.863-3.359-1.933-7.001-3.447-10.733-4.785a84.658 84.658 0 0 0-5.695-1.788c-1.926-.532-3.811-.983-5.854-1.466a2.653 2.653 0 0 1-1.998-3.19 2.66 2.66 0 0 1 3.045-2.03h.02" fill="#231F20" fill-rule="nonzero"/>
        <path d="M109.15 35.575c0 17.473-8.69 31.63-19.408 31.63-10.72 0-19.409-14.157-19.409-31.63s8.69-31.63 19.41-31.63c10.717 0 19.407 14.157 19.407 31.63" fill="#FFF" fill-rule="nonzero"/>
        <path d="M106.155 35.572l-.074-1.725c-.023-1.123-.181-2.767-.466-4.818-.324-2.066-.815-4.54-1.73-7.258-.934-2.685-2.257-5.647-4.223-8.349-.488-.683-1.053-1.302-1.602-1.953-.618-.553-1.176-1.22-1.861-1.692-.638-.57-1.358-.96-2.069-1.384-.718-.309-1.556-.716-2.13-.797l-.47-.147c-.168-.065-.52-.065-.772-.081l-.83-.081-.417-.033c-.26 0 .295.016.225.016h-.037l-.077.017-.151.016c-.405.032-.814.049-1.224.081-.405.114-.81.212-1.224.31-1.629.52-3.232 1.513-4.7 2.848-2.96 2.701-5.153 6.754-6.682 11.083-.692 2.197-1.341 4.475-1.672 6.819-.236 1.171-.3 2.31-.44 3.466-.12 1.107-.126 2.604-.191 3.662-.034 4.785.62 9.586 1.99 14.028 1.423 4.41 3.63 8.545 6.627 11.376 1.484 1.4 3.175 2.49 4.86 3.06.379.081.745.179 1.115.31.509.064 1.11.097 1.655.162l.21.016h.104l.052.016c.067 0-.384-.016-.176-.016l.326-.032.647-.05c.433 0 .853-.113 1.268-.227 1.668-.407 3.24-1.237 4.583-2.36.716-.488 1.29-1.188 1.91-1.774.554-.683 1.12-1.334 1.605-2.034 1.963-2.816 3.228-5.843 4.098-8.577.856-2.766 1.286-5.273 1.564-7.34.228-2.05.347-3.564.345-4.833l.034-1.823v.098zm5.998.081l-.077 1.823c-.02 1.123-.189 3.092-.516 5.452-.366 2.327-.916 5.143-1.969 8.284-1.08 3.124-2.602 6.607-5.063 10.008-.61.847-1.335 1.677-2.056 2.507-.82.765-1.564 1.627-2.535 2.31-1.805 1.498-4.078 2.751-6.656 3.353-.64.18-1.288.326-1.968.358l-1.012.082-.508.032c.174 0-.31-.016-.28-.016h-.156l-.208-.016c-.57-.05-1.099-.082-1.71-.147a36.6 36.6 0 0 1-2.206-.52c-2.685-.847-5.011-2.36-7.011-4.2-3.986-3.71-6.5-8.56-8.28-13.589-1.685-5.061-2.526-10.432-2.605-15.802.046-1.481.013-2.555.116-3.955.12-1.383.19-2.783.42-4.101.324-2.67.997-5.29 1.756-7.877 1.674-5.094 4.202-10.025 8.227-13.866 2.018-1.904 4.428-3.499 7.169-4.394a698.63 698.63 0 0 0 2.096-.537c.71-.098 1.43-.147 2.141-.212l.267-.016h.134l.065-.016c-.034 0 .555.032.329.016l.418.033.828.081c.296.033.505.016.871.081l1.125.245c1.581.325 2.693.895 3.904 1.448 1.12.635 2.216 1.286 3.134 2.083 1.003.716 1.761 1.595 2.585 2.409.726.862 1.45 1.709 2.06 2.587 2.456 3.516 3.919 7.064 4.936 10.22.993 3.19 1.486 6.039 1.8 8.382.272 2.344.402 4.183.399 5.452.026 1.253.037 1.937.037 1.937l-.001.081z" fill="#231F20" fill-rule="nonzero"/>
    </g>
</svg>
