<svg width="180" height="376" xmlns="http://www.w3.org/2000/svg">
    <title>
        lon-vertical-side
    </title>
    <g fill="none" fill-rule="evenodd">
        <path d="M176.347 329.267c0 23.813-19.311 43.133-43.132 43.133H46.953c-23.821 0-43.132-19.32-43.132-43.133v-225.44c0-23.827 19.311-43.134 43.132-43.134h86.262c23.821 0 43.132 19.307 43.132 43.134v225.44" fill="#FFF" fill-rule="nonzero"/>
        <path d="M176.347 329.267c0 23.813-19.311 43.133-43.132 43.133H46.953c-23.821 0-43.132-19.32-43.132-43.133v-225.44c0-23.827 19.311-43.134 43.132-43.134h86.262c23.821 0 43.132 19.307 43.132 43.134v225.44z" stroke="#231F20" stroke-width="6.667"/>
        <path d="M110.033 30.027c25.168 4.853 41.154 16.733 41.154 34.506 0 45.04-85.004 2.094-122.206 39.294V64.533c0-17.573 16.5-29.586 41.246-34.6" fill="#FFF" fill-rule="nonzero"/>
        <path d="M110.567 27.413c1.986.347 4.129.72 6.178 1.227 2.06.48 4.112 1.027 6.147 1.653a66.751 66.751 0 0 1 11.907 4.907c3.826 2.053 7.518 4.573 10.673 7.8 3.161 3.213 5.79 7.133 7.332 11.52a29.425 29.425 0 0 1 1.53 6.747c.046.573.12 1.146.137 1.72l.029.853.012.44.007.213-.006.294-.049 1.546c-.003.48-.092 1.16-.139 1.734-.25 2.36-.733 4.64-1.634 6.906-.891 2.254-2.223 4.414-3.91 6.214-3.401 3.653-7.866 5.68-12.126 6.906-4.307 1.187-8.6 1.734-12.828 2.027-4.234.293-8.415.333-12.57.333-4.152-.026-8.276-.12-12.381-.226-8.204-.2-16.35-.347-24.405.12-8.042.466-16.023 1.506-23.552 3.84a55.014 55.014 0 0 0-10.771 4.586 45.935 45.935 0 0 0-9.281 6.934 2.642 2.642 0 0 1-3.759.026 2.633 2.633 0 0 1-.79-1.8l-.003-.106c-.122-4.067-.3-8.147-.374-12.214-.064-4.066-.177-8.133-.201-12.213l-.076-12.2-.01-1.533-.003-.76-.002-.48.014-.387c.025-.533.014-.96.07-1.573.056-.6.096-1.214.179-1.8A28.78 28.78 0 0 1 27.615 54c1.658-4.293 4.364-8.08 7.53-11.187 3.167-3.12 6.814-5.6 10.595-7.613a67.49 67.49 0 0 1 11.752-4.92c4.017-1.28 8.099-2.24 12.204-2.973a2.675 2.675 0 0 1 3.09 2.173 2.67 2.67 0 0 1-1.993 3.053h-.036c-3.862.934-7.692 1.974-11.38 3.32-3.686 1.347-7.285 2.88-10.621 4.8a42.634 42.634 0 0 0-9.039 6.76c-2.614 2.614-4.706 5.64-5.954 8.96a22.018 22.018 0 0 0-1.267 5.147c-.06.44-.075.827-.119 1.24-.044.413-.034 1-.054 1.48l-.024 2.96-.076 12.2c-.024 4.08-.138 8.147-.202 12.213-.073 4.067-.252 8.147-.373 12.214l-4.552-1.88A50.761 50.761 0 0 1 37.36 93.96a61.089 61.089 0 0 1 11.781-5.293c8.15-2.707 16.599-3.894 24.947-4.454 8.361-.56 16.676-.506 24.908-.386 8.223.08 16.41.36 24.363-.214 3.966-.293 7.869-.826 11.489-1.84 3.599-1.04 6.859-2.653 9.081-5.08 2.248-2.373 3.426-5.706 3.77-9.24.029-.453.104-.786.108-1.333l.044-1.533-.027-1.28c-.01-.454-.068-.907-.097-1.36-.178-1.8-.558-3.56-1.143-5.254-1.164-3.386-3.175-6.493-5.759-9.16-2.59-2.653-5.669-4.96-9.044-6.866-3.36-1.92-7.001-3.454-10.733-4.774a75.385 75.385 0 0 0-5.693-1.786c-1.93-.547-3.814-1-5.855-1.467a2.668 2.668 0 0 1-2-3.2 2.661 2.661 0 0 1 3.047-2.027h.02" fill="#231F20" fill-rule="nonzero"/>
        <path d="M109.493 35.293c0 17.467-8.689 31.627-19.409 31.627-10.72 0-19.41-14.16-19.41-31.627 0-17.466 8.69-31.626 19.41-31.626s19.41 14.16 19.41 31.626" fill="#FFF" fill-rule="nonzero"/>
        <path d="M106.493 35.293l-.076-1.72c-.02-1.12-.178-2.76-.462-4.813-.327-2.067-.818-4.547-1.732-7.253-.934-2.694-2.256-5.654-4.224-8.36-.487-.68-1.051-1.294-1.602-1.947-.616-.547-1.176-1.227-1.86-1.693-.638-.56-1.357-.947-2.069-1.387-.719-.307-1.556-.707-2.13-.8l-.471-.147c-.168-.053-.519-.053-.771-.08l-.83-.066-.417-.04c-.26 0 .295.013.226.013h-.039l-.076.013-.15.014c-.407.026-.815.066-1.225.093-.404.107-.81.213-1.224.293-1.628.52-3.233 1.52-4.701 2.854-2.959 2.72-5.15 6.76-6.68 11.093-.693 2.2-1.343 4.467-1.672 6.813-.236 1.187-.303 2.307-.441 3.467-.12 1.12-.127 2.6-.192 3.653-.034 4.787.621 9.587 1.992 14.04 1.421 4.414 3.629 8.534 6.625 11.374 1.487 1.4 3.176 2.48 4.861 3.053.378.08.746.187 1.114.32.509.067 1.11.093 1.656.16l.209.013.104.014h.053c.067 0-.385-.014-.174-.014l.324-.026.646-.067c.435.013.854-.107 1.27-.227 1.666-.386 3.238-1.213 4.582-2.346.716-.494 1.291-1.187 1.911-1.787.553-.68 1.12-1.32 1.604-2.027 1.963-2.813 3.228-5.84 4.099-8.573.854-2.76 1.285-5.267 1.562-7.333.228-2.067.348-3.574.346-4.84l.036-1.827-.002.093zm5.999.094l-.077 1.826c-.022 1.12-.191 3.094-.518 5.454-.364 2.32-.916 5.133-1.969 8.28-1.08 3.12-2.601 6.6-5.061 10.013-.612.84-1.336 1.667-2.058 2.493-.818.774-1.562 1.627-2.534 2.32-1.806 1.494-4.078 2.747-6.655 3.36-.641.16-1.288.32-1.968.334l-1.013.093-.508.027c.176.013-.311 0-.279 0l-.052-.014h-.105l-.21-.013c-.568-.053-1.096-.08-1.708-.147-.732-.146-1.47-.32-2.205-.52-2.685-.853-5.012-2.36-7.01-4.2-3.987-3.706-6.5-8.56-8.282-13.586-1.685-5.067-2.527-10.44-2.605-15.814.045-1.48.014-2.533.116-3.946.12-1.374.192-2.787.421-4.094.323-2.68.996-5.293 1.756-7.88 1.672-5.106 4.201-10.026 8.225-13.88 2.018-1.893 4.428-3.48 7.171-4.386.701-.174 1.4-.36 2.095-.534.71-.093 1.43-.146 2.141-.2l.267-.026L90 .333h.067c-.035 0 .554.027.329.014l.416.04.83.066c.295.027.503.014.87.094l1.124.24c1.581.32 2.695.893 3.905 1.44 1.119.64 2.216 1.293 3.134 2.08 1.002.733 1.762 1.6 2.584 2.413.726.867 1.452 1.72 2.061 2.587 2.456 3.52 3.919 7.066 4.936 10.226.993 3.187 1.485 6.04 1.801 8.374.271 2.346.4 4.2.399 5.453l.037 1.933-.001.094z" fill="#231F20" fill-rule="nonzero"/>
    </g>
</svg>
