<svg width="180" height="376" xmlns="http://www.w3.org/2000/svg">
    <title>
        lon-vertical
    </title>
    <g fill="none" fill-rule="evenodd">
        <path d="M176.51 329.267c0 23.813-19.311 43.133-43.131 43.133H47.116c-23.821 0-43.132-19.32-43.132-43.133v-225.44c0-23.827 19.31-43.134 43.132-43.134h86.263c23.82 0 43.13 19.307 43.13 43.134v225.44" fill="#FFF" fill-rule="nonzero"/>
        <path d="M176.51 329.267c0 23.813-19.311 43.133-43.131 43.133H47.116c-23.821 0-43.132-19.32-43.132-43.133v-225.44c0-23.827 19.31-43.134 43.132-43.134h86.263c23.82 0 43.13 19.307 43.13 43.134v225.44z" stroke="#231F20" stroke-width="6.667"/>
        <path d="M110.196 30.027c25.17 4.853 41.153 16.733 41.153 34.506 0 21.694-33.306 11.494-61.102 39.294-27.796-27.8-61.103-17.6-61.103-39.294 0-17.573 16.5-29.586 41.245-34.6" fill="#FFF" fill-rule="nonzero"/>
        <path d="M110.73 27.413c1.373.24 2.757.48 4.2.787 1.42.307 2.815.627 4.217.987 2.793.733 5.58 1.56 8.306 2.613 5.44 2.093 10.786 4.813 15.472 8.707 2.33 1.946 4.475 4.186 6.267 6.746 1.82 2.534 3.216 5.414 4.17 8.427.9 3.04 1.367 6.147 1.309 9.333a20.186 20.186 0 0 1-.196 2.467c-.108.84-.3 1.68-.534 2.52-.505 1.68-1.289 3.36-2.366 4.787-2.158 2.92-5.09 4.72-7.838 6.053-2.788 1.333-5.558 2.253-8.278 3.133-5.44 1.72-10.746 3.174-15.867 5.054-5.121 1.853-10.027 4.133-14.65 6.893a70.187 70.187 0 0 0-12.809 9.787 2.707 2.707 0 0 1-3.772 0 70.215 70.215 0 0 0-12.806-9.787c-4.622-2.76-9.525-5.04-14.647-6.893-5.12-1.88-10.423-3.334-15.86-5.054-2.721-.866-5.49-1.8-8.278-3.133-2.748-1.32-5.678-3.12-7.838-6.04-1.081-1.427-1.866-3.093-2.373-4.773-.49-1.694-.697-3.387-.736-5.014l-.008-.306-.003-.147.004-.24.018-.52.038-1.067c.081-.813.122-1.68.26-2.44.2-1.573.606-3.106 1.055-4.626.987-3 2.426-5.854 4.265-8.36 1.815-2.534 3.966-4.76 6.294-6.694 4.682-3.866 9.991-6.613 15.411-8.746 2.715-1.08 5.49-1.934 8.276-2.694a97.206 97.206 0 0 1 8.426-1.866 2.667 2.667 0 0 1 3.085 2.173 2.665 2.665 0 0 1-2.005 3.053h-.019c-2.662.64-5.298 1.334-7.888 2.147a86.501 86.501 0 0 0-7.603 2.787c-4.937 2.08-9.627 4.706-13.516 8.08-1.965 1.653-3.716 3.506-5.147 5.546-1.458 2.027-2.537 4.254-3.284 6.56-.328 1.174-.641 2.36-.78 3.574-.112.613-.11 1.146-.18 1.733l-.03 1.04-.013.52.007.36c.03 2.36.571 4.387 1.767 6 1.172 1.64 3.108 2.96 5.371 4.067 2.262 1.093 4.809 1.986 7.414 2.84 5.236 1.666 10.72 3.28 16.08 5.373 5.364 2.08 10.649 4.587 15.55 7.733a75.498 75.498 0 0 1 13.464 11.054h-3.77a75.572 75.572 0 0 1 13.467-11.054c4.903-3.146 10.19-5.653 15.554-7.733 5.361-2.093 10.848-3.707 16.084-5.373 2.605-.854 5.152-1.747 7.414-2.854 2.262-1.093 4.198-2.426 5.367-4.066 1.193-1.614 1.732-3.627 1.761-6.027.056-2.413-.29-4.907-.962-7.24-.726-2.333-1.772-4.573-3.207-6.6-1.407-2.053-3.14-3.907-5.093-5.573-3.868-3.374-8.571-5.96-13.519-8a86.613 86.613 0 0 0-11.55-3.814 120.39 120.39 0 0 0-4.015-.973 2.676 2.676 0 0 1-2.008-3.2 2.66 2.66 0 0 1 3.048-2.027h.026" fill="#231F20" fill-rule="nonzero"/>
        <path d="M109.656 35.293c0 17.467-8.69 31.627-19.41 31.627-10.718 0-19.409-14.16-19.409-31.627 0-17.466 8.691-31.626 19.41-31.626 10.72 0 19.409 14.16 19.409 31.626" fill="#FFF" fill-rule="nonzero"/>
        <path d="M106.656 35.293l-.076-1.72c-.02-1.12-.179-2.76-.463-4.813-.326-2.067-.817-4.547-1.732-7.253-.933-2.694-2.256-5.654-4.222-8.36-.488-.68-1.052-1.294-1.603-1.947-.616-.547-1.176-1.227-1.86-1.693-.639-.56-1.357-.947-2.07-1.387-.717-.307-1.554-.707-2.13-.8l-.47-.147c-.167-.053-.52-.053-.771-.08l-.83-.066-.417-.04c-.26 0 .295.013.225.013H90.2l-.075.013-.152.014c-.405.026-.813.066-1.224.093-.404.107-.81.213-1.224.293-1.628.52-3.233 1.52-4.7 2.854-2.96 2.72-5.152 6.76-6.681 11.093-.692 2.2-1.343 4.467-1.672 6.813-.236 1.187-.303 2.307-.442 3.467-.12 1.12-.126 2.6-.192 3.653-.033 4.787.622 9.587 1.992 14.04 1.422 4.414 3.63 8.534 6.626 11.374 1.486 1.4 3.177 2.48 4.861 3.053.379.08.745.187 1.113.32.51.067 1.111.093 1.658.16l.208.013.105.014h.052c.067 0-.385-.014-.175-.014l.326-.026.646-.067c.434.013.854-.107 1.268-.227 1.667-.386 3.24-1.213 4.583-2.346.716-.494 1.29-1.187 1.91-1.787.555-.68 1.12-1.32 1.606-2.027 1.961-2.813 3.227-5.84 4.097-8.573.855-2.76 1.287-5.267 1.563-7.333.23-2.067.348-3.574.345-4.84l.036-1.827-.001.093zm5.999.094l-.078 1.826c-.02 1.12-.19 3.094-.516 5.454-.365 2.32-.917 5.133-1.969 8.28-1.08 3.12-2.601 6.6-5.063 10.013-.612.84-1.334 1.667-2.057 2.493-.819.774-1.563 1.627-2.535 2.32-1.804 1.494-4.077 2.747-6.654 3.36-.64.16-1.288.32-1.968.334l-1.012.093-.51.027c.176.013-.31 0-.278 0l-.052-.014h-.104l-.21-.013c-.569-.053-1.097-.08-1.709-.147-.732-.146-1.47-.32-2.205-.52-2.686-.853-5.011-2.36-7.011-4.2-3.987-3.706-6.5-8.56-8.28-13.586-1.686-5.067-2.527-10.44-2.606-15.814.045-1.48.014-2.533.116-3.946.12-1.374.191-2.787.421-4.094.322-2.68.997-5.293 1.756-7.88 1.673-5.106 4.201-10.026 8.225-13.88 2.019-1.893 4.43-3.48 7.17-4.386.703-.174 1.402-.36 2.095-.534.711-.093 1.432-.146 2.142-.2l.266-.026.134-.014h.066c-.034 0 .555.027.33.014l.416.04.83.066c.296.027.504.014.87.094l1.125.24c1.581.32 2.693.893 3.904 1.44 1.119.64 2.217 1.293 3.133 2.08 1.004.733 1.763 1.6 2.586 2.413.725.867 1.45 1.72 2.06 2.587 2.456 3.52 3.918 7.066 4.936 10.226.993 3.187 1.485 6.04 1.801 8.374.27 2.346.4 4.2.399 5.453l.037 1.933-.001.094z" fill="#231F20" fill-rule="nonzero"/>
    </g>
</svg>
