<?xml version="1.0" encoding="UTF-8" standalone="no"?>
<svg
   xmlns:dc="http://purl.org/dc/elements/1.1/"
   xmlns:cc="http://creativecommons.org/ns#"
   xmlns:rdf="http://www.w3.org/1999/02/22-rdf-syntax-ns#"
   xmlns:svg="http://www.w3.org/2000/svg"
   xmlns="http://www.w3.org/2000/svg"
   id="svg18"
   version="1.1"
   height="179.19299"
   width="375.40051">
  <metadata
     id="metadata24">
    <rdf:RDF>
      <cc:Work
         rdf:about="">
        <dc:format>image/svg+xml</dc:format>
        <dc:type
           rdf:resource="http://purl.org/dc/dcmitype/StillImage" />
        <dc:title>
        lon-vertical
    </dc:title>
      </cc:Work>
    </rdf:RDF>
  </metadata>
  <defs
     id="defs22" />
  <title
     id="title2">
        lon-vertical
    </title>
  <g
     style="fill:none;fill-rule:evenodd"
     transform="rotate(-90,89.75525,90.08825)"
     id="g16">
    <path
       style="fill:#ffffff;fill-rule:nonzero"
       id="path4"
       d="m 176.51,329.267 c 0,23.813 -19.311,43.133 -43.131,43.133 H 47.116 C 23.295,372.4 3.984,353.08 3.984,329.267 V 103.827 C 3.984,80 23.294,60.693 47.116,60.693 h 86.263 c 23.82,0 43.13,19.307 43.13,43.134 v 225.44" />
    <path
       style="stroke:#231f20;stroke-width:6.66699982"
       id="path6"
       d="m 176.51,329.267 c 0,23.813 -19.311,43.133 -43.131,43.133 H 47.116 C 23.295,372.4 3.984,353.08 3.984,329.267 V 103.827 C 3.984,80 23.294,60.693 47.116,60.693 h 86.263 c 23.82,0 43.13,19.307 43.13,43.134 v 225.44 z" />
    <path
       style="fill:#ffffff;fill-rule:nonzero"
       id="path8"
       d="m 110.196,30.027 c 25.17,4.853 41.153,16.733 41.153,34.506 0,21.694 -33.306,11.494 -61.102,39.294 -27.796,-27.8 -61.103,-17.6 -61.103,-39.294 0,-17.573 16.5,-29.586 41.245,-34.6" />
    <path
       style="fill:#231f20;fill-rule:nonzero"
       id="path10"
       d="m 110.73,27.413 c 1.373,0.24 2.757,0.48 4.2,0.787 1.42,0.307 2.815,0.627 4.217,0.987 2.793,0.733 5.58,1.56 8.306,2.613 5.44,2.093 10.786,4.813 15.472,8.707 2.33,1.946 4.475,4.186 6.267,6.746 1.82,2.534 3.216,5.414 4.17,8.427 0.9,3.04 1.367,6.147 1.309,9.333 a 20.186,20.186 0 0 1 -0.196,2.467 c -0.108,0.84 -0.3,1.68 -0.534,2.52 -0.505,1.68 -1.289,3.36 -2.366,4.787 -2.158,2.92 -5.09,4.72 -7.838,6.053 -2.788,1.333 -5.558,2.253 -8.278,3.133 -5.44,1.72 -10.746,3.174 -15.867,5.054 -5.121,1.853 -10.027,4.133 -14.65,6.893 a 70.187,70.187 0 0 0 -12.809,9.787 2.707,2.707 0 0 1 -3.772,0 A 70.215,70.215 0 0 0 75.555,95.92 C 70.933,93.16 66.03,90.88 60.908,89.027 55.788,87.147 50.485,85.693 45.048,83.973 42.327,83.107 39.558,82.173 36.77,80.84 34.022,79.52 31.092,77.72 28.932,74.8 27.851,73.373 27.066,71.707 26.559,70.027 26.069,68.333 25.862,66.64 25.823,65.013 l -0.008,-0.306 -0.003,-0.147 0.004,-0.24 0.018,-0.52 0.038,-1.067 c 0.081,-0.813 0.122,-1.68 0.26,-2.44 0.2,-1.573 0.606,-3.106 1.055,-4.626 0.987,-3 2.426,-5.854 4.265,-8.36 1.815,-2.534 3.966,-4.76 6.294,-6.694 4.682,-3.866 9.991,-6.613 15.411,-8.746 2.715,-1.08 5.49,-1.934 8.276,-2.694 a 97.206,97.206 0 0 1 8.426,-1.866 2.667,2.667 0 0 1 3.085,2.173 2.665,2.665 0 0 1 -2.005,3.053 H 70.92 c -2.662,0.64 -5.298,1.334 -7.888,2.147 a 86.501,86.501 0 0 0 -7.603,2.787 c -4.937,2.08 -9.627,4.706 -13.516,8.08 -1.965,1.653 -3.716,3.506 -5.147,5.546 -1.458,2.027 -2.537,4.254 -3.284,6.56 -0.328,1.174 -0.641,2.36 -0.78,3.574 -0.112,0.613 -0.11,1.146 -0.18,1.733 l -0.03,1.04 -0.013,0.52 0.007,0.36 c 0.03,2.36 0.571,4.387 1.767,6 1.172,1.64 3.108,2.96 5.371,4.067 2.262,1.093 4.809,1.986 7.414,2.84 5.236,1.666 10.72,3.28 16.08,5.373 5.364,2.08 10.649,4.587 15.55,7.733 a 75.498,75.498 0 0 1 13.464,11.054 h -3.77 a 75.572,75.572 0 0 1 13.467,-11.054 c 4.903,-3.146 10.19,-5.653 15.554,-7.733 5.361,-2.093 10.848,-3.707 16.084,-5.373 2.605,-0.854 5.152,-1.747 7.414,-2.854 2.262,-1.093 4.198,-2.426 5.367,-4.066 1.193,-1.614 1.732,-3.627 1.761,-6.027 0.056,-2.413 -0.29,-4.907 -0.962,-7.24 -0.726,-2.333 -1.772,-4.573 -3.207,-6.6 -1.407,-2.053 -3.14,-3.907 -5.093,-5.573 -3.868,-3.374 -8.571,-5.96 -13.519,-8 a 86.613,86.613 0 0 0 -11.55,-3.814 120.39,120.39 0 0 0 -4.015,-0.973 2.676,2.676 0 0 1 -2.008,-3.2 2.66,2.66 0 0 1 3.048,-2.027 h 0.026" />
    <path
       style="fill:#ffffff;fill-rule:nonzero"
       id="path12"
       d="m 109.656,35.293 c 0,17.467 -8.69,31.627 -19.41,31.627 -10.718,0 -19.409,-14.16 -19.409,-31.627 0,-17.466 8.691,-31.626 19.41,-31.626 10.72,0 19.409,14.16 19.409,31.626" />
    <path
       style="fill:#231f20;fill-rule:nonzero"
       id="path14"
       d="m 106.656,35.293 -0.076,-1.72 c -0.02,-1.12 -0.179,-2.76 -0.463,-4.813 -0.326,-2.067 -0.817,-4.547 -1.732,-7.253 -0.933,-2.694 -2.256,-5.654 -4.222,-8.36 C 99.675,12.467 99.111,11.853 98.56,11.2 97.944,10.653 97.384,9.973 96.7,9.507 96.061,8.947 95.343,8.56 94.63,8.12 93.913,7.813 93.076,7.413 92.5,7.32 L 92.03,7.173 C 91.863,7.12 91.51,7.12 91.259,7.093 L 90.429,7.027 90.012,6.987 C 89.752,6.987 90.307,7 90.237,7 H 90.2 l -0.075,0.013 -0.152,0.014 c -0.405,0.026 -0.813,0.066 -1.224,0.093 -0.404,0.107 -0.81,0.213 -1.224,0.293 -1.628,0.52 -3.233,1.52 -4.7,2.854 -2.96,2.72 -5.152,6.76 -6.681,11.093 -0.692,2.2 -1.343,4.467 -1.672,6.813 -0.236,1.187 -0.303,2.307 -0.442,3.467 -0.12,1.12 -0.126,2.6 -0.192,3.653 -0.033,4.787 0.622,9.587 1.992,14.04 1.422,4.414 3.63,8.534 6.626,11.374 1.486,1.4 3.177,2.48 4.861,3.053 0.379,0.08 0.745,0.187 1.113,0.32 0.51,0.067 1.111,0.093 1.658,0.16 l 0.208,0.013 0.105,0.014 h 0.052 c 0.067,0 -0.385,-0.014 -0.175,-0.014 l 0.326,-0.026 0.646,-0.067 c 0.434,0.013 0.854,-0.107 1.268,-0.227 1.667,-0.386 3.24,-1.213 4.583,-2.346 0.716,-0.494 1.29,-1.187 1.91,-1.787 0.555,-0.68 1.12,-1.32 1.606,-2.027 1.961,-2.813 3.227,-5.84 4.097,-8.573 0.855,-2.76 1.287,-5.267 1.563,-7.333 0.23,-2.067 0.348,-3.574 0.345,-4.84 l 0.036,-1.827 -0.001,0.093 z m 5.999,0.094 -0.078,1.826 c -0.02,1.12 -0.19,3.094 -0.516,5.454 -0.365,2.32 -0.917,5.133 -1.969,8.28 -1.08,3.12 -2.601,6.6 -5.063,10.013 -0.612,0.84 -1.334,1.667 -2.057,2.493 -0.819,0.774 -1.563,1.627 -2.535,2.32 -1.804,1.494 -4.077,2.747 -6.654,3.36 -0.64,0.16 -1.288,0.32 -1.968,0.334 l -1.012,0.093 -0.51,0.027 c 0.176,0.013 -0.31,0 -0.278,0 l -0.052,-0.014 h -0.104 l -0.21,-0.013 c -0.569,-0.053 -1.097,-0.08 -1.709,-0.147 -0.732,-0.146 -1.47,-0.32 -2.205,-0.52 -2.686,-0.853 -5.011,-2.36 -7.011,-4.2 -3.987,-3.706 -6.5,-8.56 -8.28,-13.586 -1.686,-5.067 -2.527,-10.44 -2.606,-15.814 0.045,-1.48 0.014,-2.533 0.116,-3.946 0.12,-1.374 0.191,-2.787 0.421,-4.094 0.322,-2.68 0.997,-5.293 1.756,-7.88 1.673,-5.106 4.201,-10.026 8.225,-13.88 2.019,-1.893 4.43,-3.48 7.17,-4.386 0.703,-0.174 1.402,-0.36 2.095,-0.534 0.711,-0.093 1.432,-0.146 2.142,-0.2 l 0.266,-0.026 0.134,-0.014 h 0.066 c -0.034,0 0.555,0.027 0.33,0.014 l 0.416,0.04 0.83,0.066 c 0.296,0.027 0.504,0.014 0.87,0.094 l 1.125,0.24 c 1.581,0.32 2.693,0.893 3.904,1.44 1.119,0.64 2.217,1.293 3.133,2.08 1.004,0.733 1.763,1.6 2.586,2.413 0.725,0.867 1.45,1.72 2.06,2.587 2.456,3.52 3.918,7.066 4.936,10.226 0.993,3.187 1.485,6.04 1.801,8.374 0.27,2.346 0.4,4.2 0.399,5.453 l 0.037,1.933 z" />
  </g>
</svg>
