<?xml version="1.0" encoding="UTF-8" standalone="no"?>
<svg
   xmlns:dc="http://purl.org/dc/elements/1.1/"
   xmlns:cc="http://creativecommons.org/ns#"
   xmlns:rdf="http://www.w3.org/1999/02/22-rdf-syntax-ns#"
   xmlns:svg="http://www.w3.org/2000/svg"
   xmlns="http://www.w3.org/2000/svg"
   id="svg120"
   version="1.1"
   height="179.19299"
   width="375.40051">
  <metadata
     id="metadata126">
    <rdf:RDF>
      <cc:Work
         rdf:about="">
        <dc:format>image/svg+xml</dc:format>
        <dc:type
           rdf:resource="http://purl.org/dc/dcmitype/StillImage" />
        <dc:title>
        lon-vertical-side
    </dc:title>
      </cc:Work>
    </rdf:RDF>
  </metadata>
  <defs
     id="defs124" />
  <title
     id="title104">
        lon-vertical-side
    </title>
  <g
     style="fill:none;fill-rule:evenodd"
     transform="rotate(-90,89.67375,90.00675)"
     id="g118">
    <path
       style="fill:#ffffff;fill-rule:nonzero"
       id="path106"
       d="m 176.347,329.267 c 0,23.813 -19.311,43.133 -43.132,43.133 H 46.953 C 23.132,372.4 3.821,353.08 3.821,329.267 V 103.827 C 3.821,80 23.132,60.693 46.953,60.693 h 86.262 c 23.821,0 43.132,19.307 43.132,43.134 v 225.44" />
    <path
       style="stroke:#231f20;stroke-width:6.66699982"
       id="path108"
       d="m 176.347,329.267 c 0,23.813 -19.311,43.133 -43.132,43.133 H 46.953 C 23.132,372.4 3.821,353.08 3.821,329.267 V 103.827 C 3.821,80 23.132,60.693 46.953,60.693 h 86.262 c 23.821,0 43.132,19.307 43.132,43.134 z" />
    <path
       style="fill:#ffffff;fill-rule:nonzero"
       id="path110"
       d="m 110.033,30.027 c 25.168,4.853 41.154,16.733 41.154,34.506 0,45.04 -85.004,2.094 -122.206,39.294 V 64.533 c 0,-17.573 16.5,-29.586 41.246,-34.6" />
    <path
       style="fill:#231f20;fill-rule:nonzero"
       id="path112"
       d="m 110.567,27.413 c 1.986,0.347 4.129,0.72 6.178,1.227 2.06,0.48 4.112,1.027 6.147,1.653 a 66.751,66.751 0 0 1 11.907,4.907 c 3.826,2.053 7.518,4.573 10.673,7.8 3.161,3.213 5.79,7.133 7.332,11.52 a 29.425,29.425 0 0 1 1.53,6.747 c 0.046,0.573 0.12,1.146 0.137,1.72 l 0.029,0.853 0.012,0.44 0.007,0.213 -0.006,0.294 -0.049,1.546 c -0.003,0.48 -0.092,1.16 -0.139,1.734 -0.25,2.36 -0.733,4.64 -1.634,6.906 -0.891,2.254 -2.223,4.414 -3.91,6.214 -3.401,3.653 -7.866,5.68 -12.126,6.906 -4.307,1.187 -8.6,1.734 -12.828,2.027 -4.234,0.293 -8.415,0.333 -12.57,0.333 -4.152,-0.026 -8.276,-0.12 -12.381,-0.226 -8.204,-0.2 -16.35,-0.347 -24.405,0.12 -8.042,0.466 -16.023,1.506 -23.552,3.84 a 55.014,55.014 0 0 0 -10.771,4.586 45.935,45.935 0 0 0 -9.281,6.934 2.642,2.642 0 0 1 -3.759,0.026 2.633,2.633 0 0 1 -0.79,-1.8 l -0.003,-0.106 C 26.193,99.76 26.015,95.68 25.941,91.613 25.877,87.547 25.764,83.48 25.74,79.4 l -0.076,-12.2 -0.01,-1.533 -0.003,-0.76 -0.002,-0.48 0.014,-0.387 c 0.025,-0.533 0.014,-0.96 0.07,-1.573 0.056,-0.6 0.096,-1.214 0.179,-1.8 A 28.78,28.78 0 0 1 27.615,54 c 1.658,-4.293 4.364,-8.08 7.53,-11.187 3.167,-3.12 6.814,-5.6 10.595,-7.613 A 67.49,67.49 0 0 1 57.492,30.28 C 61.509,29 65.591,28.04 69.696,27.307 a 2.675,2.675 0 0 1 3.09,2.173 2.67,2.67 0 0 1 -1.993,3.053 h -0.036 c -3.862,0.934 -7.692,1.974 -11.38,3.32 -3.686,1.347 -7.285,2.88 -10.621,4.8 a 42.634,42.634 0 0 0 -9.039,6.76 c -2.614,2.614 -4.706,5.64 -5.954,8.96 a 22.018,22.018 0 0 0 -1.267,5.147 c -0.06,0.44 -0.075,0.827 -0.119,1.24 -0.044,0.413 -0.034,1 -0.054,1.48 l -0.024,2.96 -0.076,12.2 c -0.024,4.08 -0.138,8.147 -0.202,12.213 -0.073,4.067 -0.252,8.147 -0.373,12.214 l -4.552,-1.88 A 50.761,50.761 0 0 1 37.36,93.96 61.089,61.089 0 0 1 49.141,88.667 c 8.15,-2.707 16.599,-3.894 24.947,-4.454 8.361,-0.56 16.676,-0.506 24.908,-0.386 8.223,0.08 16.41,0.36 24.363,-0.214 3.966,-0.293 7.869,-0.826 11.489,-1.84 3.599,-1.04 6.859,-2.653 9.081,-5.08 2.248,-2.373 3.426,-5.706 3.77,-9.24 0.029,-0.453 0.104,-0.786 0.108,-1.333 l 0.044,-1.533 -0.027,-1.28 c -0.01,-0.454 -0.068,-0.907 -0.097,-1.36 -0.178,-1.8 -0.558,-3.56 -1.143,-5.254 -1.164,-3.386 -3.175,-6.493 -5.759,-9.16 -2.59,-2.653 -5.669,-4.96 -9.044,-6.866 -3.36,-1.92 -7.001,-3.454 -10.733,-4.774 a 75.385,75.385 0 0 0 -5.693,-1.786 c -1.93,-0.547 -3.814,-1 -5.855,-1.467 a 2.668,2.668 0 0 1 -2,-3.2 2.661,2.661 0 0 1 3.047,-2.027 h 0.02" />
    <path
       style="fill:#ffffff;fill-rule:nonzero"
       id="path114"
       d="m 109.493,35.293 c 0,17.467 -8.689,31.627 -19.409,31.627 -10.72,0 -19.41,-14.16 -19.41,-31.627 0,-17.466 8.69,-31.626 19.41,-31.626 10.72,0 19.41,14.16 19.41,31.626" />
    <path
       style="fill:#231f20;fill-rule:nonzero"
       id="path116"
       d="m 106.493,35.293 -0.076,-1.72 c -0.02,-1.12 -0.178,-2.76 -0.462,-4.813 -0.327,-2.067 -0.818,-4.547 -1.732,-7.253 -0.934,-2.694 -2.256,-5.654 -4.224,-8.36 C 99.512,12.467 98.948,11.853 98.397,11.2 97.781,10.653 97.221,9.973 96.537,9.507 95.899,8.947 95.18,8.56 94.468,8.12 93.749,7.813 92.912,7.413 92.338,7.32 L 91.867,7.173 C 91.699,7.12 91.348,7.12 91.096,7.093 L 90.266,7.027 89.849,6.987 C 89.589,6.987 90.144,7 90.075,7 H 90.036 L 89.96,7.013 89.81,7.027 c -0.407,0.026 -0.815,0.066 -1.225,0.093 -0.404,0.107 -0.81,0.213 -1.224,0.293 -1.628,0.52 -3.233,1.52 -4.701,2.854 -2.959,2.72 -5.15,6.76 -6.68,11.093 -0.693,2.2 -1.343,4.467 -1.672,6.813 -0.236,1.187 -0.303,2.307 -0.441,3.467 -0.12,1.12 -0.127,2.6 -0.192,3.653 -0.034,4.787 0.621,9.587 1.992,14.04 1.421,4.414 3.629,8.534 6.625,11.374 1.487,1.4 3.176,2.48 4.861,3.053 0.378,0.08 0.746,0.187 1.114,0.32 0.509,0.067 1.11,0.093 1.656,0.16 l 0.209,0.013 0.104,0.014 h 0.053 c 0.067,0 -0.385,-0.014 -0.174,-0.014 l 0.324,-0.026 0.646,-0.067 c 0.435,0.013 0.854,-0.107 1.27,-0.227 1.666,-0.386 3.238,-1.213 4.582,-2.346 0.716,-0.494 1.291,-1.187 1.911,-1.787 0.553,-0.68 1.12,-1.32 1.604,-2.027 1.963,-2.813 3.228,-5.84 4.099,-8.573 0.854,-2.76 1.285,-5.267 1.562,-7.333 0.228,-2.067 0.348,-3.574 0.346,-4.84 l 0.036,-1.827 z m 5.999,0.094 -0.077,1.826 c -0.022,1.12 -0.191,3.094 -0.518,5.454 -0.364,2.32 -0.916,5.133 -1.969,8.28 -1.08,3.12 -2.601,6.6 -5.061,10.013 -0.612,0.84 -1.336,1.667 -2.058,2.493 -0.818,0.774 -1.562,1.627 -2.534,2.32 -1.806,1.494 -4.078,2.747 -6.655,3.36 -0.641,0.16 -1.288,0.32 -1.968,0.334 l -1.013,0.093 -0.508,0.027 c 0.176,0.013 -0.311,0 -0.279,0 L 89.8,69.573 h -0.105 l -0.21,-0.013 c -0.568,-0.053 -1.096,-0.08 -1.708,-0.147 -0.732,-0.146 -1.47,-0.32 -2.205,-0.52 -2.685,-0.853 -5.012,-2.36 -7.01,-4.2 -3.987,-3.706 -6.5,-8.56 -8.282,-13.586 -1.685,-5.067 -2.527,-10.44 -2.605,-15.814 0.045,-1.48 0.014,-2.533 0.116,-3.946 0.12,-1.374 0.192,-2.787 0.421,-4.094 0.323,-2.68 0.996,-5.293 1.756,-7.88 1.672,-5.106 4.201,-10.026 8.225,-13.88 2.018,-1.893 4.428,-3.48 7.171,-4.386 0.701,-0.174 1.4,-0.36 2.095,-0.534 0.71,-0.093 1.43,-0.146 2.141,-0.2 L 89.867,0.347 90,0.333 h 0.067 c -0.035,0 0.554,0.027 0.329,0.014 l 0.416,0.04 0.83,0.066 c 0.295,0.027 0.503,0.014 0.87,0.094 l 1.124,0.24 c 1.581,0.32 2.695,0.893 3.905,1.44 1.119,0.64 2.216,1.293 3.134,2.08 1.002,0.733 1.762,1.6 2.584,2.413 0.726,0.867 1.452,1.72 2.061,2.587 2.456,3.52 3.919,7.066 4.936,10.226 0.993,3.187 1.485,6.04 1.801,8.374 0.271,2.346 0.4,4.2 0.399,5.453 l 0.037,1.933 z" />
  </g>
</svg>
