<svg width="180" height="237" xmlns="http://www.w3.org/2000/svg">
    <title>
        lon-single
    </title>
    <g fill="none" fill-rule="evenodd">
        <path d="M176.61 190.37c0 23.823-19.31 43.131-43.13 43.131H47.218c-23.821 0-43.132-19.308-43.132-43.132v-86.264c0-23.824 19.31-43.132 43.132-43.132h86.262c23.82 0 43.13 19.308 43.13 43.132v86.264" fill="#FFF" fill-rule="nonzero"/>
        <path d="M176.61 190.37c0 23.823-19.31 43.131-43.13 43.131H47.218c-23.821 0-43.132-19.308-43.132-43.132v-86.264c0-23.824 19.31-43.132 43.132-43.132h86.262c23.82 0 43.13 19.308 43.13 43.132v86.264z" stroke="#231F20" stroke-width="6.667"/>
        <path d="M110.3 30.295c25.17 4.86 41.153 16.737 41.153 34.503 0 21.71-33.306 11.507-61.103 39.3-27.796-27.793-61.102-17.59-61.102-39.3 0-17.573 16.502-29.578 41.244-34.6" fill="#FFF" fill-rule="nonzero"/>
        <path d="M110.835 27.684c1.372.242 2.755.484 4.2.79 1.42.306 2.816.612 4.216.982 2.793.725 5.579 1.563 8.306 2.61 5.441 2.095 10.786 4.817 15.473 8.7 2.33 1.95 4.476 4.205 6.267 6.766 1.819 2.53 3.216 5.414 4.171 8.41.899 3.045 1.366 6.154 1.307 9.344-.008.596-.073 1.692-.195 2.465-.108.838-.3 1.676-.534 2.53-.505 1.675-1.288 3.35-2.366 4.768-2.157 2.932-5.09 4.737-7.838 6.058-2.789 1.337-5.558 2.255-8.28 3.141-5.438 1.724-10.745 3.174-15.865 5.043-5.121 1.869-10.027 4.14-14.65 6.895a70.27 70.27 0 0 0-12.81 9.795 2.73 2.73 0 0 1-3.77 0 70.26 70.26 0 0 0-12.81-9.795c-4.618-2.755-9.523-5.026-14.644-6.879-5.12-1.885-10.424-3.335-15.862-5.059-2.72-.87-5.49-1.804-8.276-3.125-2.747-1.337-5.678-3.142-7.838-6.058-1.081-1.417-1.866-3.093-2.373-4.768-.492-1.692-.698-3.384-.737-5.01l-.008-.307-.003-.161.005-.226.018-.531.038-1.047c.08-.822.121-1.692.26-2.45.2-1.562.605-3.108 1.055-4.623.986-3.013 2.425-5.864 4.264-8.377 1.816-2.53 3.967-4.753 6.295-6.686 4.68-3.867 9.99-6.606 15.411-8.748 2.715-1.064 5.489-1.933 8.276-2.69a95.412 95.412 0 0 1 8.424-1.853 2.658 2.658 0 0 1 3.087 2.158 2.675 2.675 0 0 1-2.006 3.061h-.019a117.487 117.487 0 0 0-7.888 2.143c-2.592.806-5.126 1.756-7.602 2.787-4.938 2.078-9.626 4.705-13.517 8.072-1.964 1.659-3.717 3.528-5.147 5.558-1.457 2.014-2.536 4.237-3.284 6.557-.328 1.176-.64 2.352-.78 3.576-.11.612-.109 1.144-.18 1.724l-.029 1.047-.014.516.008.354c.03 2.369.572 4.398 1.767 6.01 1.171 1.643 3.108 2.964 5.371 4.06 2.262 1.111 4.81 1.997 7.413 2.85 5.236 1.66 10.721 3.271 16.081 5.366 5.363 2.078 10.648 4.591 15.55 7.733a76.04 76.04 0 0 1 13.464 11.052h-3.77a76.004 76.004 0 0 1 13.467-11.052c4.902-3.142 10.188-5.655 15.553-7.733 5.361-2.095 10.847-3.706 16.085-5.381 2.605-.838 5.152-1.74 7.414-2.836 2.262-1.095 4.198-2.432 5.366-4.076 1.194-1.61 1.732-3.624 1.763-6.025.054-2.4-.292-4.914-.964-7.25-.725-2.32-1.772-4.559-3.207-6.589-1.405-2.046-3.139-3.915-5.095-5.574-3.866-3.367-8.569-5.961-13.516-8.007a81.955 81.955 0 0 0-7.627-2.707 84.393 84.393 0 0 0-3.923-1.095 152.05 152.05 0 0 0-4.016-.983 2.663 2.663 0 0 1 1.04-5.22h.028" fill="#231F20" fill-rule="nonzero"/>
        <path d="M109.757 35.575c0 17.473-8.689 31.63-19.408 31.63-10.718 0-19.41-14.157-19.41-31.63s8.692-31.63 19.41-31.63c10.72 0 19.408 14.157 19.408 31.63" fill="#FFF" fill-rule="nonzero"/>
        <path d="M106.76 35.572l-.075-1.725c-.02-1.123-.179-2.767-.462-4.818-.327-2.066-.819-4.54-1.733-7.258-.933-2.685-2.256-5.647-4.224-8.349-.486-.683-1.05-1.302-1.6-1.953-.618-.553-1.178-1.22-1.861-1.692-.638-.57-1.357-.96-2.069-1.384-.717-.309-1.557-.716-2.132-.797l-.468-.147c-.168-.065-.521-.065-.773-.081l-.829-.081-.416-.033c-.26 0 .294.016.224.016h-.039l-.076.017-.15.016c-.405.032-.814.049-1.224.081-.403.114-.81.212-1.224.31-1.629.52-3.233 1.513-4.7 2.848-2.96 2.701-5.152 6.754-6.68 11.083-.695 2.197-1.345 4.475-1.674 6.819-.235 1.171-.302 2.31-.44 3.466-.121 1.156-.126 2.506-.194 3.743l.039 1.709c.018.602 0 1.204.068 1.79.11 1.188.155 2.393.363 3.564.278 2.36.877 4.655 1.523 6.884 1.421 4.41 3.63 8.545 6.626 11.376 1.486 1.4 3.177 2.49 4.861 3.06a8.97 8.97 0 0 1 1.113.31c.51.064 1.11.097 1.657.162l.208.016h.106l.052.016c.067 0-.386-.016-.176-.016l.326-.032.648-.05c.432 0 .85-.113 1.267-.227 1.667-.407 3.239-1.237 4.583-2.36.716-.488 1.29-1.188 1.91-1.774.556-.683 1.12-1.334 1.606-2.034 1.96-2.816 3.227-5.843 4.097-8.577.855-2.766 1.288-5.273 1.563-7.34.23-2.05.348-3.564.345-4.833l.036-1.823-.002.098zm6 .081l-.078 1.823c-.02 1.123-.19 3.092-.516 5.452-.366 2.327-.917 5.143-1.969 8.284-1.08 3.124-2.602 6.607-5.063 10.008-.612.847-1.334 1.677-2.057 2.507-.819.765-1.562 1.627-2.535 2.31-1.805 1.498-4.077 2.751-6.655 3.353-.64.18-1.287.326-1.968.358l-1.012.082-.51.032c.178 0-.31-.016-.278-.016h-.156l-.208-.016c-.57-.05-1.097-.082-1.71-.147a36.65 36.65 0 0 1-2.206-.52c-2.685-.847-5.01-2.36-7.01-4.2-3.987-3.71-6.5-8.56-8.28-13.589-.805-2.538-1.531-5.126-1.906-7.795-.258-1.318-.35-2.653-.498-3.987-.087-.668-.086-1.351-.12-2.018l-.081-2.1c.042-1.302.013-2.49.114-3.857.122-1.383.192-2.783.421-4.101.324-2.67.998-5.29 1.756-7.877 1.675-5.094 4.202-10.025 8.225-13.866 2.018-1.904 4.43-3.499 7.17-4.394a699.57 699.57 0 0 0 2.097-.537c.71-.098 1.43-.147 2.14-.212l.267-.016h.133l.067-.016c-.034 0 .555.032.329.016l.417.033.83.081c.296.033.502.016.87.081l1.123.245c1.584.325 2.695.895 3.906 1.448 1.118.635 2.217 1.286 3.133 2.083 1.002.716 1.762 1.595 2.586 2.409.726.862 1.45 1.709 2.059 2.587 2.457 3.516 3.919 7.064 4.937 10.22.993 3.19 1.485 6.039 1.8 8.382.272 2.344.4 4.183.399 5.452l.037 1.937v.081z" fill="#231F20" fill-rule="nonzero"/>
    </g>
</svg>
