<?xml version="1.0" encoding="UTF-8" standalone="no"?>
<svg
   xmlns:dc="http://purl.org/dc/elements/1.1/"
   xmlns:cc="http://creativecommons.org/ns#"
   xmlns:rdf="http://www.w3.org/1999/02/22-rdf-syntax-ns#"
   xmlns:svg="http://www.w3.org/2000/svg"
   xmlns="http://www.w3.org/2000/svg"
   id="svg18"
   version="1.1"
   height="179.19099"
   width="236.2365">
  <metadata
     id="metadata24">
    <rdf:RDF>
      <cc:Work
         rdf:about="">
        <dc:format>image/svg+xml</dc:format>
        <dc:type
           rdf:resource="http://purl.org/dc/dcmitype/StillImage" />
        <dc:title>
        lon-single
    </dc:title>
      </cc:Work>
    </rdf:RDF>
  </metadata>
  <defs
     id="defs22" />
  <title
     id="title2">
        lon-single
    </title>
  <g
     style="fill:none;fill-rule:evenodd"
     transform="rotate(-90,89.67275,90.27075)"
     id="g16">
    <path
       style="fill:#ffffff;fill-rule:nonzero"
       id="path4"
       d="m 176.61,190.37 c 0,23.823 -19.31,43.131 -43.13,43.131 H 47.218 c -23.821,0 -43.132,-19.308 -43.132,-43.132 v -86.264 c 0,-23.824 19.31,-43.132 43.132,-43.132 h 86.262 c 23.82,0 43.13,19.308 43.13,43.132 v 86.264" />
    <path
       style="stroke:#231f20;stroke-width:6.66699982"
       id="path6"
       d="m 176.61,190.37 c 0,23.823 -19.31,43.131 -43.13,43.131 H 47.218 c -23.821,0 -43.132,-19.308 -43.132,-43.132 v -86.264 c 0,-23.824 19.31,-43.132 43.132,-43.132 h 86.262 c 23.82,0 43.13,19.308 43.13,43.132 v 86.264 z" />
    <path
       style="fill:#ffffff;fill-rule:nonzero"
       id="path8"
       d="m 110.3,30.295 c 25.17,4.86 41.153,16.737 41.153,34.503 0,21.71 -33.306,11.507 -61.103,39.3 -27.796,-27.793 -61.102,-17.59 -61.102,-39.3 0,-17.573 16.502,-29.578 41.244,-34.6" />
    <path
       style="fill:#231f20;fill-rule:nonzero"
       id="path10"
       d="m 110.835,27.684 c 1.372,0.242 2.755,0.484 4.2,0.79 1.42,0.306 2.816,0.612 4.216,0.982 2.793,0.725 5.579,1.563 8.306,2.61 5.441,2.095 10.786,4.817 15.473,8.7 2.33,1.95 4.476,4.205 6.267,6.766 1.819,2.53 3.216,5.414 4.171,8.41 0.899,3.045 1.366,6.154 1.307,9.344 -0.008,0.596 -0.073,1.692 -0.195,2.465 -0.108,0.838 -0.3,1.676 -0.534,2.53 -0.505,1.675 -1.288,3.35 -2.366,4.768 -2.157,2.932 -5.09,4.737 -7.838,6.058 -2.789,1.337 -5.558,2.255 -8.28,3.141 -5.438,1.724 -10.745,3.174 -15.865,5.043 -5.121,1.869 -10.027,4.14 -14.65,6.895 a 70.27,70.27 0 0 0 -12.81,9.795 2.73,2.73 0 0 1 -3.77,0 70.26,70.26 0 0 0 -12.81,-9.795 C 71.039,93.431 66.134,91.16 61.013,89.307 55.893,87.422 50.589,85.972 45.151,84.248 c -2.72,-0.87 -5.49,-1.804 -8.276,-3.125 -2.747,-1.337 -5.678,-3.142 -7.838,-6.058 -1.081,-1.417 -1.866,-3.093 -2.373,-4.768 -0.492,-1.692 -0.698,-3.384 -0.737,-5.01 l -0.008,-0.307 -0.003,-0.161 0.005,-0.226 0.018,-0.531 0.038,-1.047 c 0.08,-0.822 0.121,-1.692 0.26,-2.45 0.2,-1.562 0.605,-3.108 1.055,-4.623 0.986,-3.013 2.425,-5.864 4.264,-8.377 1.816,-2.53 3.967,-4.753 6.295,-6.686 4.68,-3.867 9.99,-6.606 15.411,-8.748 2.715,-1.064 5.489,-1.933 8.276,-2.69 a 95.412,95.412 0 0 1 8.424,-1.853 2.658,2.658 0 0 1 3.087,2.158 2.675,2.675 0 0 1 -2.006,3.061 h -0.019 a 117.487,117.487 0 0 0 -7.888,2.143 c -2.592,0.806 -5.126,1.756 -7.602,2.787 -4.938,2.078 -9.626,4.705 -13.517,8.072 -1.964,1.659 -3.717,3.528 -5.147,5.558 -1.457,2.014 -2.536,4.237 -3.284,6.557 -0.328,1.176 -0.64,2.352 -0.78,3.576 -0.11,0.612 -0.109,1.144 -0.18,1.724 l -0.029,1.047 -0.014,0.516 0.008,0.354 c 0.03,2.369 0.572,4.398 1.767,6.01 1.171,1.643 3.108,2.964 5.371,4.06 2.262,1.111 4.81,1.997 7.413,2.85 5.236,1.66 10.721,3.271 16.081,5.366 5.363,2.078 10.648,4.591 15.55,7.733 a 76.04,76.04 0 0 1 13.464,11.052 h -3.77 A 76.004,76.004 0 0 1 101.934,91.16 c 4.902,-3.142 10.188,-5.655 15.553,-7.733 5.361,-2.095 10.847,-3.706 16.085,-5.381 2.605,-0.838 5.152,-1.74 7.414,-2.836 2.262,-1.095 4.198,-2.432 5.366,-4.076 1.194,-1.61 1.732,-3.624 1.763,-6.025 0.054,-2.4 -0.292,-4.914 -0.964,-7.25 -0.725,-2.32 -1.772,-4.559 -3.207,-6.589 -1.405,-2.046 -3.139,-3.915 -5.095,-5.574 -3.866,-3.367 -8.569,-5.961 -13.516,-8.007 a 81.955,81.955 0 0 0 -7.627,-2.707 84.393,84.393 0 0 0 -3.923,-1.095 152.05,152.05 0 0 0 -4.016,-0.983 2.663,2.663 0 0 1 1.04,-5.22 h 0.028" />
    <path
       style="fill:#ffffff;fill-rule:nonzero"
       id="path12"
       d="m 109.757,35.575 c 0,17.473 -8.689,31.63 -19.408,31.63 -10.718,0 -19.41,-14.157 -19.41,-31.63 0,-17.473 8.692,-31.63 19.41,-31.63 10.72,0 19.408,14.157 19.408,31.63" />
    <path
       style="fill:#231f20;fill-rule:nonzero"
       id="path14"
       d="m 106.76,35.572 -0.075,-1.725 c -0.02,-1.123 -0.179,-2.767 -0.462,-4.818 -0.327,-2.066 -0.819,-4.54 -1.733,-7.258 -0.933,-2.685 -2.256,-5.647 -4.224,-8.349 -0.486,-0.683 -1.05,-1.302 -1.6,-1.953 C 98.048,10.916 97.488,10.249 96.805,9.777 96.167,9.207 95.448,8.817 94.736,8.393 94.019,8.084 93.179,7.677 92.604,7.596 L 92.136,7.449 C 91.968,7.384 91.615,7.384 91.363,7.368 L 90.534,7.287 90.118,7.254 c -0.26,0 0.294,0.016 0.224,0.016 h -0.039 l -0.076,0.017 -0.15,0.016 c -0.405,0.032 -0.814,0.049 -1.224,0.081 -0.403,0.114 -0.81,0.212 -1.224,0.31 -1.629,0.52 -3.233,1.513 -4.7,2.848 -2.96,2.701 -5.152,6.754 -6.68,11.083 -0.695,2.197 -1.345,4.475 -1.674,6.819 -0.235,1.171 -0.302,2.31 -0.44,3.466 -0.121,1.156 -0.126,2.506 -0.194,3.743 l 0.039,1.709 c 0.018,0.602 0,1.204 0.068,1.79 0.11,1.188 0.155,2.393 0.363,3.564 0.278,2.36 0.877,4.655 1.523,6.884 1.421,4.41 3.63,8.545 6.626,11.376 1.486,1.4 3.177,2.49 4.861,3.06 a 8.97,8.97 0 0 1 1.113,0.31 c 0.51,0.064 1.11,0.097 1.657,0.162 l 0.208,0.016 h 0.106 l 0.052,0.016 c 0.067,0 -0.386,-0.016 -0.176,-0.016 l 0.326,-0.032 0.648,-0.05 c 0.432,0 0.85,-0.113 1.267,-0.227 1.667,-0.407 3.239,-1.237 4.583,-2.36 0.716,-0.488 1.29,-1.188 1.91,-1.774 0.556,-0.683 1.12,-1.334 1.606,-2.034 1.96,-2.816 3.227,-5.843 4.097,-8.577 0.855,-2.766 1.288,-5.273 1.563,-7.34 0.23,-2.05 0.348,-3.564 0.345,-4.833 l 0.036,-1.823 z m 6,0.081 -0.078,1.823 c -0.02,1.123 -0.19,3.092 -0.516,5.452 -0.366,2.327 -0.917,5.143 -1.969,8.284 -1.08,3.124 -2.602,6.607 -5.063,10.008 -0.612,0.847 -1.334,1.677 -2.057,2.507 -0.819,0.765 -1.562,1.627 -2.535,2.31 -1.805,1.498 -4.077,2.751 -6.655,3.353 -0.64,0.18 -1.287,0.326 -1.968,0.358 l -1.012,0.082 -0.51,0.032 c 0.178,0 -0.31,-0.016 -0.278,-0.016 H 89.963 L 89.755,69.83 c -0.57,-0.05 -1.097,-0.082 -1.71,-0.147 a 36.65,36.65 0 0 1 -2.206,-0.52 c -2.685,-0.847 -5.01,-2.36 -7.01,-4.2 -3.987,-3.71 -6.5,-8.56 -8.28,-13.589 -0.805,-2.538 -1.531,-5.126 -1.906,-7.795 -0.258,-1.318 -0.35,-2.653 -0.498,-3.987 -0.087,-0.668 -0.086,-1.351 -0.12,-2.018 l -0.081,-2.1 c 0.042,-1.302 0.013,-2.49 0.114,-3.857 0.122,-1.383 0.192,-2.783 0.421,-4.101 0.324,-2.67 0.998,-5.29 1.756,-7.877 C 71.91,14.545 74.437,9.614 78.46,5.773 80.478,3.869 82.89,2.274 85.63,1.379 a 699.57,699.57 0 0 0 2.097,-0.537 c 0.71,-0.098 1.43,-0.147 2.14,-0.212 l 0.267,-0.016 h 0.133 l 0.067,-0.016 c -0.034,0 0.555,0.032 0.329,0.016 l 0.417,0.033 0.83,0.081 c 0.296,0.033 0.502,0.016 0.87,0.081 l 1.123,0.245 c 1.584,0.325 2.695,0.895 3.906,1.448 1.118,0.635 2.217,1.286 3.133,2.083 1.002,0.716 1.762,1.595 2.586,2.409 0.726,0.862 1.45,1.709 2.059,2.587 2.457,3.516 3.919,7.064 4.937,10.22 0.993,3.19 1.485,6.039 1.8,8.382 0.272,2.344 0.4,4.183 0.399,5.452 l 0.037,1.937 z" />
  </g>
</svg>
