<svg width="371" height="386" xmlns="http://www.w3.org/2000/svg">
    <title>
        o-double
    </title>
    <g fill="none" fill-rule="evenodd">
        <path d="M46.853 382.4C22.92 382.4 3.52 363 3.52 339.067V105.733C3.52 81.8 22.92 62.4 46.853 62.4h277.174c23.933 0 43.333 19.4 43.333 43.333v233.334c0 23.933-19.4 43.333-43.333 43.333H46.853" fill="#FFF" fill-rule="nonzero"/>
        <path d="M46.853 382.4C22.92 382.4 3.52 363 3.52 339.067V105.733C3.52 81.8 22.92 62.4 46.853 62.4h277.174c23.933 0 43.333 19.4 43.333 43.333v233.334c0 23.933-19.4 43.333-43.333 43.333H46.853z" stroke="#231F20" stroke-width="6.667"/>
        <path d="M231.84 4.653c24.093 8.04 40.08 22.147 40.08 38.214 0 25-38.72 45.266-86.48 45.266-47.76 0-86.48-20.266-86.48-45.266 0-16.12 16.093-30.187 40.32-38.214l23.04 21.294 23.12-21.294 22.88 21.294 23.52-21.294" fill="#FFF" fill-rule="nonzero"/>
        <path d="M232.56 8.44l-22.44 19.48-1.893 1.64-1.72-1.667-23.334-20.8 4.52.014-23.573 20.8-1.88 1.666-1.733-1.666-23.494-20.8 3.307.72c-6.347 2.053-12.533 4.64-18.227 7.946-5.68 3.32-10.933 7.387-14.786 12.414a27.486 27.486 0 0 0-4.374 8.16 22.904 22.904 0 0 0-.92 4.4c-.026.36-.08.666-.093 1.133l-.027.64v.32l-.013.093c0 .04.013-.133 0-.026l.013.146c0 .747.04 1.507.134 2.254.626 6.053 4.013 11.706 8.52 16.293 4.52 4.627 10.106 8.333 16.026 11.347 5.934 3.013 12.254 5.36 18.734 7.186 6.466 1.827 13.106 3.16 19.8 4.027 6.706.867 13.453 1.28 20.253 1.307 13.493-.027 27.067-1.64 40.027-5.28 6.48-1.827 12.8-4.147 18.746-7.16 5.934-3 11.534-6.68 16.067-11.294 4.52-4.573 7.96-10.2 8.64-16.24a19.71 19.71 0 0 0 .147-2.293c0-.707-.014-1.493-.107-2.24a20.333 20.333 0 0 0-.893-4.44c-.92-2.907-2.387-5.68-4.294-8.2-3.826-5.053-9.053-9.16-14.706-12.493-5.16-3.027-10.667-5.4-16.427-7.387zm.373-6.933c6.614 2.28 13.2 5.16 19.307 8.893 6.107 3.72 11.867 8.333 16.293 14.347 2.2 2.986 4 6.373 5.12 10.04.56 1.826.92 3.733 1.08 5.653.107.96.107 1.907.094 2.907-.014.773-.08 1.96-.214 2.853-.48 3.827-1.8 7.493-3.64 10.76-1.853 3.267-4.186 6.173-6.76 8.747-5.186 5.146-11.28 9.053-17.6 12.253-6.346 3.173-12.986 5.6-19.746 7.48-6.774 1.88-13.667 3.213-20.614 4.093-6.946.88-13.92 1.267-20.933 1.267-13.933 0-27.96-1.64-41.493-5.413-6.76-1.894-13.414-4.334-19.747-7.52-6.32-3.214-12.387-7.134-17.56-12.307-2.573-2.587-4.893-5.507-6.72-8.787-1.827-3.28-3.107-6.96-3.56-10.786a23.23 23.23 0 0 1-.2-2.88v-.44l.013-.32.014-.654c0-.386.053-.933.093-1.44.187-1.986.573-3.84 1.133-5.68 1.16-3.653 2.974-7.026 5.2-10 4.454-5.973 10.254-10.546 16.36-14.24 6.147-3.706 12.68-6.56 19.374-8.84L140.16.88l1.373 1.333 22.587 21.774h-3.613L183.173 2.2h.014l2.36-2.08 2.16 2.093 22.44 21.774V24l-3.614-.027L231.027.853l1.906.654z" fill="#231F20" fill-rule="nonzero"/>
        <path d="M121.213 92.32c16.56-8.373 39.16-13.52 64.054-13.52 24.453 0 46.68 4.96 63.146 13.067" fill="#FFF" fill-rule="nonzero"/>
        <path d="M120.373 90.493s1.827-.92 5.04-2.52c.4-.2.827-.413 1.267-.626.467-.2.96-.4 1.467-.614 1.04-.426 2.146-.88 3.333-1.373 2.373-1.053 5.107-1.88 8.08-2.867 1.493-.52 3.067-.933 4.693-1.36 1.64-.426 3.32-.866 5.054-1.32 1.76-.36 3.56-.733 5.4-1.12 1.84-.386 3.733-.746 5.666-.973 1.947-.267 3.907-.533 5.907-.8 1.987-.227 4.027-.347 6.067-.533 1.013-.08 2.04-.174 3.066-.254 1.04-.08 2.067-.08 3.107-.12l6.227-.2.4-.013h.453l.773.027 1.534.053 3.066.093c1.014.027 2.027.067 3.054.094 1.013.04 2.066.16 3.093.226 2.053.174 4.093.347 6.12.507 1.987.267 3.96.52 5.893.773.974.134 1.934.267 2.88.4.947.174 1.88.36 2.8.534 1.84.36 3.654.733 5.4 1.08 1.747.44 3.427.88 5.067 1.293 1.627.427 3.213.8 4.693 1.32 2.987.973 5.747 1.76 8.08 2.787 1.187.48 2.294.92 3.307 1.333.52.2 1 .4 1.467.587.466.226.893.426 1.306.626 3.294 1.614 5.16 2.534 5.16 2.534 1 .48 1.414 1.68.92 2.666-.466.947-1.573 1.374-2.533.974l-.147-.054s-1.853-.76-5.106-2.08c-.414-.16-.84-.346-1.28-.52-.467-.16-.947-.32-1.44-.493-1.014-.333-2.094-.707-3.254-1.107-2.293-.853-5-1.466-7.88-2.32-1.44-.453-2.973-.76-4.56-1.12-1.586-.346-3.226-.706-4.92-1.08-1.706-.28-3.453-.573-5.24-.866-.893-.147-1.8-.307-2.72-.467-.92-.107-1.84-.227-2.773-.333-1.88-.227-3.773-.467-5.707-.694-1.92-.133-3.866-.28-5.826-.413-.987-.067-1.947-.16-2.96-.187-1.014-.026-2.027-.04-3.054-.066l-3.053-.054-1.533-.04-.774-.013h-.306l-.374.013-6.04.12c-1 .027-2 .014-3 .08-.986.08-1.986.147-2.973.214-1.973.16-3.933.266-5.867.453-1.92.24-3.826.48-5.693.72-1.88.187-3.707.533-5.493.84-1.787.307-3.534.6-5.24.893-1.68.387-3.32.76-4.907 1.12-1.587.347-3.12.694-4.56 1.147-2.867.88-5.587 1.533-7.827 2.387-1.146.4-2.213.773-3.2 1.106-.493.174-.973.347-1.426.507-.454.2-.894.373-1.307.56-3.307 1.373-5.187 2.173-5.187 2.173a2.01 2.01 0 0 1-2.626-1.066c-.414-.974.013-2.094.946-2.574" fill="#231F20" fill-rule="nonzero"/>
        <path d="M205.893 51.493c0 9.147-9.253 16.547-20.68 16.547-11.426 0-20.693-7.4-20.693-16.547 0-9.133 9.267-16.533 20.693-16.533 11.427 0 20.68 7.4 20.68 16.533" fill="#FFF" fill-rule="nonzero"/>
        <path d="M205.893 51.493c0 9.147-9.253 16.547-20.68 16.547-11.426 0-20.693-7.4-20.693-16.547 0-9.133 9.267-16.533 20.693-16.533 11.427 0 20.68 7.4 20.68 16.533z" stroke="#231F20" stroke-width="5.333" stroke-linecap="round" stroke-linejoin="round"/>
        <path d="M192.56 51.493c0 4.067-3.293 7.36-7.347 7.36a7.358 7.358 0 0 1-7.36-7.36c0-4.053 3.294-7.346 7.36-7.346a7.352 7.352 0 0 1 7.347 7.346" fill="#231F20" fill-rule="nonzero"/>
    </g>
</svg>
