<svg width="423" height="327" xmlns="http://www.w3.org/2000/svg">
    <title>
        o-double-side
    </title>
    <g fill="none" fill-rule="evenodd">
        <path d="M98.298 323.399c-23.936 0-43.339-19.403-43.339-43.34V46.732c0-23.936 19.403-43.339 43.34-43.339H375.46c23.936 0 43.339 19.403 43.339 43.339V280.06c0 23.936-19.403 43.339-43.339 43.339H98.298" fill="#FFF" fill-rule="nonzero"/>
        <path d="M98.298 323.399c-23.936 0-43.339-19.403-43.339-43.34V46.732c0-23.936 19.403-43.339 43.34-43.339H375.46c23.936 0 43.339 19.403 43.339 43.339V280.06c0 23.936-19.403 43.339-43.339 43.339H98.298z" stroke="#231F20" stroke-width="6.667"/>
        <path d="M5.067 116.987c8.026-24.094 22.146-40.067 38.2-40.067 25 0 45.266 38.707 45.266 86.48 0 47.76-20.266 86.467-45.266 86.467-16.12 0-30.187-16.08-38.2-40.307l21.28-23.04-21.28-23.12 21.28-22.893-21.28-23.52" fill="#FFF" fill-rule="nonzero"/>
        <path d="M8.853 116.267l19.48 22.453 1.64 1.893-1.666 1.707-20.8 23.347.013-4.534 20.8 23.574 1.653 1.893-1.666 1.733-20.8 23.48.72-3.306c2.066 6.36 4.64 12.533 7.96 18.226 3.306 5.68 7.386 10.934 12.4 14.8 2.506 1.934 5.28 3.414 8.173 4.36 1.427.467 2.973.774 4.4.934.36.026.667.08 1.133.08l.64.026.32.014h.2c.76-.014 1.52-.04 2.267-.134 6.053-.64 11.693-4.013 16.293-8.52 4.614-4.52 8.32-10.106 11.334-16.026 3.013-5.947 5.36-12.267 7.2-18.734 1.826-6.48 3.146-13.106 4.013-19.813.88-6.707 1.293-13.44 1.307-20.24-.027-13.493-1.64-27.08-5.267-40.04-1.827-6.467-4.16-12.8-7.16-18.747-3-5.92-6.693-11.52-11.307-16.066-4.56-4.52-10.186-7.947-16.24-8.627-.813-.107-1.333-.133-2.28-.147-.72 0-1.506 0-2.24.094-1.506.146-3 .426-4.453.893-2.907.92-5.68 2.4-8.2 4.307-5.04 3.813-9.147 9.04-12.48 14.706-3.027 5.147-5.413 10.667-7.387 16.414zm-6.946-.36C4.2 109.28 7.08 102.693 10.8 96.587c3.733-6.094 8.333-11.867 14.347-16.28 2.986-2.2 6.373-4 10.04-5.12a28.11 28.11 0 0 1 5.653-1.094C41.813 74 42.747 74 43.747 74c.773.013 1.973.093 2.866.213 3.827.48 7.494 1.8 10.747 3.654 3.28 1.84 6.173 4.173 8.76 6.76 5.147 5.186 9.04 11.266 12.24 17.586 3.187 6.347 5.6 13 7.493 19.76 1.88 6.774 3.214 13.667 4.08 20.6.88 6.96 1.28 13.92 1.267 20.934 0 13.933-1.64 27.973-5.4 41.506-1.907 6.76-4.333 13.4-7.533 19.747-3.2 6.307-7.134 12.387-12.294 17.547-2.6 2.573-5.506 4.893-8.8 6.72-3.266 1.84-6.96 3.12-10.786 3.573-.947.12-1.92.173-2.88.187l-.174.013h-.266l-.32-.013-.64-.014c-.4 0-.947-.053-1.44-.106-2-.187-3.84-.56-5.694-1.12-3.64-1.16-7.026-2.974-9.986-5.214-5.987-4.453-10.547-10.24-14.254-16.36-3.706-6.133-6.546-12.68-8.84-19.36v-.013l-.613-1.92 1.333-1.387 21.774-22.586v3.613L2.613 165.653l-2.093-2.36 2.107-2.173L24.4 138.693l-.027 3.6-23.12-24.48.654-1.906z" fill="#231F20" fill-rule="nonzero"/>
        <path d="M92.72 227.627c-8.36-16.574-13.52-39.16-13.52-64.067 0-24.453 4.973-46.667 13.067-63.147" fill="#FFF" fill-rule="nonzero"/>
        <path d="M90.907 228.453l-2.534-5.026c-.2-.4-.4-.827-.626-1.267-.187-.48-.4-.96-.614-1.48-.413-1.027-.88-2.147-1.36-3.333-1.066-2.374-1.893-5.107-2.866-8.08-.52-1.48-.947-3.054-1.36-4.694-.427-1.626-.867-3.32-1.334-5.053-.36-1.747-.733-3.547-1.106-5.4-.4-1.84-.747-3.72-.974-5.667-.266-1.933-.533-3.906-.813-5.893-.213-2-.347-4.027-.533-6.067-.08-1.026-.16-2.053-.254-3.08-.08-1.026-.08-2.066-.12-3.093-.066-2.08-.133-4.16-.186-6.24l-.014-.387v-.466l.027-.76.04-1.534.093-3.066c.04-1.027.067-2.04.107-3.054.04-1.026.147-2.066.227-3.093.173-2.053.333-4.107.493-6.12.267-2 .533-3.96.787-5.907.133-.96.253-1.92.386-2.866.187-.947.36-1.88.534-2.814.373-1.84.733-3.64 1.08-5.4.453-1.733.88-3.426 1.306-5.053.414-1.64.8-3.227 1.307-4.707.973-2.973 1.773-5.733 2.8-8.08.467-1.173.92-2.28 1.32-3.306.213-.507.413-1 .6-1.467.213-.453.427-.893.627-1.307 1.6-3.28 2.52-5.16 2.52-5.16a2.02 2.02 0 0 1 2.68-.92 2.01 2.01 0 0 1 .973 2.547l-.053.133s-.76 1.867-2.08 5.12c-.174.4-.347.827-.534 1.28-.16.454-.32.934-.493 1.44-.333 1-.707 2.094-1.093 3.24-.854 2.294-1.467 5-2.334 7.88-.44 1.44-.76 2.987-1.106 4.574-.347 1.586-.72 3.226-1.08 4.906-.294 1.707-.574 3.467-.867 5.254-.16.893-.307 1.8-.467 2.706-.12.92-.226 1.854-.346 2.787-.227 1.867-.454 3.773-.694 5.693-.133 1.92-.266 3.867-.4 5.827-.066.987-.16 1.96-.2 2.96-.013 1.013-.04 2.04-.053 3.053l-.067 3.067-.026 1.533-.014.774v.68l.12 6.026c.04 1 .014 2 .094 3 .066 1 .133 1.987.213 2.974.147 1.973.253 3.946.44 5.866.253 1.934.493 3.84.72 5.707.2 1.88.547 3.693.84 5.48.307 1.8.613 3.547.907 5.253a797 797 0 0 0 1.106 4.894c.347 1.6.707 3.133 1.16 4.56.867 2.88 1.52 5.586 2.387 7.826.387 1.147.76 2.214 1.107 3.214.173.493.333.96.493 1.426.2.454.387.88.56 1.294 1.387 3.306 2.173 5.2 2.173 5.2a1.977 1.977 0 0 1-1.066 2.613 1.996 1.996 0 0 1-2.56-.947" fill="#231F20" fill-rule="nonzero"/>
        <path d="M51.907 142.933c9.133 0 16.546 9.267 16.546 20.694 0 11.426-7.413 20.693-16.546 20.693-9.134 0-16.547-9.267-16.547-20.693 0-11.427 7.413-20.694 16.547-20.694" fill="#FFF" fill-rule="nonzero"/>
        <path d="M51.907 142.933c9.133 0 16.546 9.267 16.546 20.694 0 11.426-7.413 20.693-16.546 20.693-9.134 0-16.547-9.267-16.547-20.693 0-11.427 7.413-20.694 16.547-20.694z" stroke="#231F20" stroke-width="5.333" stroke-linecap="round" stroke-linejoin="round"/>
        <path d="M51.907 156.267c4.053 0 7.346 3.293 7.346 7.36a7.343 7.343 0 0 1-7.346 7.346c-4.067 0-7.36-3.28-7.36-7.346a7.358 7.358 0 0 1 7.36-7.36" fill="#231F20" fill-rule="nonzero"/>
    </g>
</svg>
