<svg width="388" height="181" xmlns="http://www.w3.org/2000/svg">
    <title>
        o-horizontal
    </title>
    <g fill="none" fill-rule="evenodd">
        <path d="M383.784 133.613c0 23.934-19.401 43.334-43.333 43.334H107.117c-23.933 0-43.333-19.4-43.333-43.334V46.947c0-23.934 19.4-43.334 43.333-43.334h233.334c23.932 0 43.333 19.4 43.333 43.334v86.666" fill="#FFF" fill-rule="nonzero"/>
        <path d="M383.784 133.613c0 23.934-19.401 43.334-43.333 43.334H107.117c-23.933 0-43.333-19.4-43.333-43.334V46.947c0-23.934 19.4-43.334 43.333-43.334h233.334c23.932 0 43.333 19.4 43.333 43.334v86.666z" stroke="#231F20" stroke-width="6.667"/>
        <path d="M6.045 56.427c8.035-17.6 22.144-29.28 38.207-29.28 25.001 0 45.27 28.28 45.27 63.173 0 34.88-20.269 63.16-45.27 63.16-16.117 0-30.185-11.747-38.207-29.44l21.29-16.84-21.29-16.88 21.29-16.72-21.29-17.173" fill="#FFF" fill-rule="nonzero"/>
        <path d="M10.175 55.56l18.834 15.96 2.604 2.213-2.632 1.96h-.002L8.104 92.933l.013-5.226h.004l20.871 17.413 2.635 2.2-2.639 1.973-.008.014-20.868 17.346.97-4 .005.014c2.21 4.96 5.002 9.64 8.39 13.8 1.742 2.026 3.55 4.013 5.596 5.693.978.907 2.076 1.64 3.123 2.453.544.36 1.108.707 1.66 1.067l.83.533.869.454c2.281 1.306 4.749 2.2 7.246 2.893l1.895.453c.62.107 1.223.174 1.835.28l.924.134 1.066.053 1.067.053.533.027h.134l.066.013h-.066l.244-.013c5.2.013 10.357-1.427 14.988-3.947 4.649-2.506 8.773-6.08 12.21-10.253 3.475-4.133 6.286-8.867 8.532-13.867a74.25 74.25 0 0 0 4.97-15.666c.558-2.707.958-5.44 1.226-8.187l.192-2.053.115-2.04c.103-1.32.079-2.814.123-4.214-.046-5.44-.518-11.026-1.632-16.4a74.48 74.48 0 0 0-4.944-15.693c-2.242-4.987-5.043-9.733-8.508-13.88-3.427-4.187-7.548-7.76-12.186-10.28-4.653-2.547-9.706-4.013-15.045-4.013-5.056.013-10.32 1.32-14.895 3.84-1.181.56-2.25 1.36-3.37 2.04-1.048.813-2.155 1.533-3.135 2.426-2.057 1.68-3.87 3.667-5.624 5.68-1.672 2.094-3.299 4.24-4.663 6.574-.745 1.146-1.325 2.306-1.966 3.466-.248.454-.471.96-.712 1.467zm-7.124-.6c.661-1.293 1.218-2.52 1.965-3.853.757-1.32 1.485-2.694 2.319-3.92 1.564-2.56 3.422-4.934 5.35-7.24 2.019-2.254 4.116-4.44 6.512-6.32 1.142-1.014 2.438-1.84 3.667-2.734 1.317-.786 2.575-1.653 3.975-2.306 5.454-2.88 11.572-4.427 17.906-4.334.723.04 1.398.04 2.159.107l2.403.253 2.282.414c.755.173 1.5.373 2.25.573 2.97.827 5.818 2.04 8.481 3.533 5.332 3 9.915 7.094 13.701 11.707 3.818 4.613 6.842 9.787 9.243 15.187a80.065 80.065 0 0 1 5.248 16.853c1.168 5.787 1.65 11.587 1.676 17.547-.041 1.44-.008 2.8-.11 4.32l-.12 2.226-.194 2.187a82.91 82.91 0 0 1-1.276 8.72 79.796 79.796 0 0 1-5.276 16.84c-2.41 5.4-5.441 10.56-9.27 15.173-3.802 4.6-8.387 8.694-13.735 11.667-5.323 2.973-11.45 4.787-17.662 4.827l-.289.013-.4-.013-.533-.027-1.067-.04-1.068-.04-1.192-.147c-.796-.106-1.612-.186-2.39-.333l-2.269-.507c-2.988-.786-5.922-1.84-8.616-3.32l-1.026-.52-.982-.6c-.65-.4-1.314-.786-1.952-1.213-1.23-.893-2.516-1.733-3.654-2.747-2.386-1.893-4.476-4.093-6.479-6.346-3.9-4.6-7.083-9.734-9.613-15.12l-.006-.014-1.105-2.44 2.075-1.546 21.694-16.307h.007l-.004 4.173-21.697-16.36h-.006L.67 90.173l3.318-2.48 21.698-16.186h.002l-.027 4.16L1.81 57.373l1.24-2.413z" fill="#231F20" fill-rule="nonzero"/>
        <path d="M52.887 74c9.136 0 16.544 7.413 16.544 16.547 0 9.133-7.408 16.546-16.544 16.546-9.138 0-16.544-7.413-16.544-16.546C36.343 81.413 43.749 74 52.887 74" fill="#FFF" fill-rule="nonzero"/>
        <path d="M52.887 74c9.136 0 16.544 7.413 16.544 16.547 0 9.133-7.408 16.546-16.544 16.546-9.138 0-16.544-7.413-16.544-16.546C36.343 81.413 43.749 74 52.887 74z" stroke="#231F20" stroke-width="5.333" stroke-linecap="round" stroke-linejoin="round"/>
        <path d="M52.887 83.187a7.356 7.356 0 0 1 7.354 7.36 7.356 7.356 0 1 1-14.71 0 7.357 7.357 0 0 1 7.356-7.36" fill="#231F20" fill-rule="nonzero"/>
        <path d="M93.704 137.227c-8.367-12.094-13.517-28.6-13.517-46.787 0-17.853 4.965-34.093 13.062-46.12" fill="#FFF" fill-rule="nonzero"/>
        <path d="M92.012 138.293s-.876-1.253-2.408-3.453c-.787-1.053-1.59-2.6-2.564-4.293-.459-.867-1.048-1.76-1.483-2.747-.445-.987-.914-2.013-1.402-3.093-.243-.547-.491-1.107-.743-1.667-.243-.573-.432-1.173-.656-1.76-.433-1.213-.881-2.453-1.341-3.733-.462-1.28-.768-2.654-1.172-4.014-.372-1.373-.808-2.773-1.043-4.24l-.847-4.44c-.281-1.506-.392-3.04-.58-4.586-.44-3.094-.412-6.254-.57-9.414l-.011-.293-.003-.08.002-.173.005-.147.021-.573.044-1.147.09-2.293.086-2.28c.063-.774.162-1.574.24-2.36.17-1.574.328-3.134.532-4.667.28-1.493.559-2.973.832-4.44.24-1.453.595-2.867.988-4.24.387-1.387.726-2.733 1.128-4.04.454-1.28.894-2.52 1.32-3.733.214-.6.423-1.187.63-1.774.246-.573.489-1.12.728-1.666.944-2.174 1.806-4.174 2.805-5.84.952-1.68 1.693-3.174 2.51-4.307l2.44-3.6a1.982 1.982 0 0 1 2.773-.533 1.989 1.989 0 0 1 .634 2.6l-.088.16-1.968 3.586c-.685 1.094-1.274 2.574-2.048 4.214-.812 1.6-1.477 3.546-2.29 5.613-.2.52-.404 1.04-.612 1.587-.168.546-.339 1.106-.512 1.693-.348 1.147-.708 2.32-1.078 3.547-.322 1.226-.58 2.52-.884 3.813l-.46 1.973c-.154.667-.233 1.36-.354 2.04-.226 1.374-.455 2.76-.686 4.174l-.421 4.253c-.068.72-.157 1.427-.212 2.16l-.07 2.28-.07 2.293-.036 1.147-.017.573-.004.147c0-.04-.004.12.001-.067v.027l.003.067.009.28c.133 2.96.073 5.946.47 8.84.177 1.453.24 2.906.471 4.306l.699 4.187c.181 1.373.581 2.68.859 3.987.322 1.306.548 2.6.928 3.813l1.1 3.547c.185.56.336 1.133.54 1.68.212.533.421 1.066.626 1.573.82 2.067 1.523 4 2.33 5.56.773 1.6 1.35 3.013 2.092 4.173l2.081 3.667c.547.96.21 2.187-.75 2.733-.905.52-2.047.24-2.634-.6" fill="#231F20" fill-rule="nonzero"/>
    </g>
</svg>
