<svg width="170" height="167" xmlns="http://www.w3.org/2000/svg">
    <title>
        o-narrow-side
    </title>
    <g fill="none" fill-rule="evenodd">
        <path d="M165.84 123.363c0 22.085-17.91 39.995-39.994 39.995h-22.228c-22.102 0-40.005-17.91-40.005-39.995V43.358c0-22.085 17.903-39.995 40.005-39.995h22.228c22.085 0 39.994 17.91 39.994 39.995v80.005" fill="#FFF" fill-rule="nonzero"/>
        <path d="M165.84 123.363c0 22.085-17.91 39.995-39.994 39.995h-22.228c-22.102 0-40.005-17.91-40.005-39.995V43.358c0-22.085 17.903-39.995 40.005-39.995h22.228c22.085 0 39.994 17.91 39.994 39.995v80.005z" stroke="#231F20" stroke-width="6.667"/>
        <path d="M5.885 49.504C13.91 31.901 28.03 20.228 44.084 20.228c24.996 0 45.266 28.283 45.266 63.174 0 34.876-20.27 63.158-45.266 63.158-16.121 0-30.186-11.751-38.2-29.45l21.28-16.83-21.28-16.878 21.28-16.72-21.28-17.178" fill="#FFF" fill-rule="nonzero"/>
        <path d="M10 48.645l18.84 15.966 2.6 2.21-2.626 1.96-20.88 17.244.013-5.227L28.827 98.2l2.626 2.195-2.639 1.99L7.947 119.74l.96-3.996.012.016c2.214 4.943 5 9.633 8.387 13.787 1.747 2.021 3.547 4.01 5.6 5.7.975.9 2.067 1.643 3.12 2.448.547.364 1.108.711 1.654 1.058l.84.537.867.458c2.28 1.311 4.746 2.195 7.24 2.906l1.907.442c.613.11 1.213.174 1.826.269l.92.142 1.066.063 1.068.047.534.032h.199c-.027 0 .186.016-.067 0h.253c5.2.016 10.361-1.437 14.988-3.948 4.632-2.511 8.77-6.08 12.212-10.25 3.474-4.137 6.285-8.874 8.528-13.864a74.243 74.243 0 0 0 4.958-15.682c.569-2.7.964-5.432 1.232-8.18l.205-2.053.111-2.037c.095-1.327.079-2.827.11-4.217-.031-5.432-.505-11.023-1.626-16.408a73.302 73.302 0 0 0-4.943-15.681c-2.242-4.99-5.038-9.744-8.512-13.897-3.427-4.17-7.548-7.738-12.182-10.28-4.654-2.527-9.707-3.996-15.04-3.996-5.053 0-10.32 1.31-14.893 3.837-1.188.569-2.254 1.359-3.374 2.038-1.053.805-2.16 1.531-3.133 2.432-2.054 1.674-3.867 3.663-5.626 5.669-1.668 2.1-3.295 4.248-4.667 6.585-.747 1.137-1.322 2.306-1.961 3.459-.253.458-.466.963-.72 1.468zm-7.12-.6c.667-1.295 1.228-2.527 1.96-3.853.76-1.327 1.493-2.685 2.32-3.917 1.573-2.558 3.427-4.942 5.36-7.248 2.013-2.242 4.106-4.438 6.506-6.317 1.147-1.01 2.44-1.832 3.667-2.732 1.32-.774 2.574-1.658 3.973-2.305 5.453-2.875 11.574-4.422 17.907-4.343.72.047 1.4.047 2.16.11l2.4.269 2.294.41c.747.174 1.494.38 2.239.553a39.217 39.217 0 0 1 8.48 3.553c5.328 3 9.924 7.075 13.714 11.702 3.806 4.611 6.838 9.791 9.238 15.192a80.145 80.145 0 0 1 5.243 16.85c1.169 5.78 1.643 11.591 1.674 17.545-.047 1.437 0 2.795-.11 4.311l-.11 2.227-.19 2.195c-.285 2.921-.695 5.843-1.28 8.717a80.569 80.569 0 0 1-5.29 16.85c-2.4 5.385-5.432 10.55-9.254 15.16-3.806 4.612-8.401 8.702-13.74 11.67-5.32 2.97-11.454 4.786-17.667 4.833h-.681l-.546-.031-1.066-.032-1.068-.047-1.187-.142c-.8-.111-1.613-.206-2.386-.332l-2.266-.505c-2.987-.79-5.934-1.848-8.628-3.333l-1.026-.52-.973-.6c-.654-.396-1.32-.79-1.961-1.201-1.226-.9-2.506-1.737-3.653-2.748-2.386-1.895-4.466-4.106-6.48-6.348-3.894-4.611-7.079-9.728-9.614-15.129v-.016l-1.105-2.432 2.08-1.563L25.507 98.2v4.184L3.814 86.025l-.014-.016-3.307-2.748 3.32-2.479L25.52 64.595v-.016l-.027 4.185L1.641 50.461l1.24-2.416z" fill="#231F20" fill-rule="nonzero"/>
        <path d="M52.719 67.085c9.137 0 16.555 7.403 16.555 16.54s-7.418 16.554-16.555 16.554-16.54-7.417-16.54-16.554c0-9.137 7.403-16.54 16.54-16.54" fill="#FFF" fill-rule="nonzero"/>
        <path d="M52.719 67.085c9.137 0 16.555 7.403 16.555 16.54s-7.418 16.554-16.555 16.554-16.54-7.417-16.54-16.554c0-9.137 7.403-16.54 16.54-16.54z" stroke="#231F20" stroke-width="5.333" stroke-linecap="round" stroke-linejoin="round"/>
        <path d="M52.727 76.278c4.042 0 7.344 3.287 7.344 7.36 0 4.059-3.302 7.345-7.344 7.345-4.074 0-7.36-3.286-7.36-7.344a7.349 7.349 0 0 1 7.36-7.36" fill="#231F20" fill-rule="nonzero"/>
        <path d="M93.54 130.311c-8.368-12.096-13.523-28.595-13.523-46.786 0-17.862 4.967-34.094 13.068-46.127" fill="#FFF" fill-rule="nonzero"/>
        <path d="M91.844 131.38s-.879-1.255-2.4-3.45c-.8-1.051-1.6-2.604-2.587-4.298-.44-.862-1.035-1.756-1.474-2.744-.44-.972-.91-2.023-1.396-3.09-.235-.548-.502-1.097-.753-1.662-.235-.58-.423-1.176-.643-1.772-.439-1.207-.894-2.446-1.349-3.732-.454-1.27-.768-2.635-1.16-4.015-.376-1.38-.815-2.776-1.05-4.234-.283-1.459-.565-2.948-.848-4.438-.282-1.506-.407-3.043-.58-4.595-.455-3.09-.423-6.242-.564-9.41l-.016-.297-.016-.063.016-.188v-.142l.031-.564.032-1.16.094-2.29.078-2.274c.079-.784.157-1.584.251-2.368.173-1.568.33-3.12.533-4.658.267-1.505.55-2.98.816-4.438.25-1.458.611-2.885 1.003-4.25.393-1.38.722-2.728 1.13-4.03.439-1.286.878-2.525 1.317-3.732.204-.612.423-1.208.627-1.788.251-.565.486-1.114.722-1.663.956-2.18 1.803-4.171 2.807-5.833.956-1.678 1.693-3.184 2.525-4.313 1.536-2.29 2.43-3.607 2.43-3.607a1.99 1.99 0 0 1 2.76-.533c.863.596 1.145 1.725.643 2.619l-.094.157s-.705 1.301-1.96 3.575c-.674 1.098-1.286 2.588-2.054 4.219-.816 1.6-1.459 3.544-2.274 5.614-.204.518-.424 1.035-.612 1.584-.172.549-.345 1.113-.517 1.694-.361 1.144-.722 2.32-1.083 3.544-.329 1.223-.58 2.525-.878 3.826a71.723 71.723 0 0 0-.455 1.96c-.172.675-.25 1.365-.36 2.04-.235 1.38-.455 2.775-.69 4.186-.141 1.396-.283 2.808-.424 4.25-.062.706-.157 1.412-.22 2.149l-.062 2.29-.063 2.289-.047 1.145v.58l-.015.141v-.078.047l.015.063v.282c.126 2.964.079 5.943.47 8.829.173 1.458.252 2.901.471 4.313.235 1.411.47 2.807.69 4.171.188 1.396.596 2.697.863 3.999.33 1.302.549 2.603.925 3.81.392 1.224.753 2.4 1.113 3.545.189.565.33 1.145.534 1.678.204.549.423 1.066.627 1.584.815 2.07 1.521 3.999 2.32 5.551.785 1.616 1.35 3.027 2.102 4.188a2821.84 2821.84 0 0 0 2.086 3.67c.533.956.204 2.18-.753 2.728a2.017 2.017 0 0 1-2.634-.612" fill="#231F20" fill-rule="nonzero"/>
    </g>
</svg>
