<svg width="266" height="181" xmlns="http://www.w3.org/2000/svg">
    <title>
        o-single-side
    </title>
    <g fill="none" fill-rule="evenodd">
        <path d="M262.058 133.84c0 24.023-19.454 43.477-43.477 43.477H106.903c-24.007 0-43.477-19.454-43.477-43.477V46.886c0-24.008 19.47-43.478 43.477-43.478h111.678c24.023 0 43.477 19.47 43.477 43.478v86.954" fill="#FFF" fill-rule="nonzero"/>
        <path d="M262.058 133.84c0 24.023-19.454 43.477-43.477 43.477H106.903c-24.007 0-43.477-19.454-43.477-43.477V46.886c0-24.008 19.47-43.478 43.477-43.478h111.678c24.023 0 43.477 19.47 43.477 43.478v86.954z" stroke="#231F20" stroke-width="6.667"/>
        <path d="M5.705 56.504c8.013-17.603 22.13-29.276 38.188-29.276 25.002 0 45.271 28.283 45.271 63.174 0 34.876-20.27 63.158-45.27 63.158-16.121 0-30.176-11.751-38.189-29.45l21.279-16.83L5.705 90.402l21.279-16.72L5.705 56.504" fill="#FFF" fill-rule="nonzero"/>
        <path d="M9.806 55.645l18.84 15.966 2.606 2.21-2.622 1.96L7.753 93.024v-5.227L28.646 105.2l2.622 2.195-2.638 1.99L7.753 126.74l.964-3.996.015.016c2.211 4.943 5.006 9.633 8.386 13.787 1.753 2.021 3.553 4.01 5.606 5.7.963.9 2.069 1.643 3.111 2.448.553.364 1.106.711 1.658 1.058l.837.537.869.458c2.274 1.311 4.753 2.195 7.248 2.906l1.88.442c.631.11 1.231.174 1.847.269l.916.142 1.074.063 1.058.047.537.032h.206c-.032 0 .189.016-.08 0h.269c5.195.016 10.344-1.437 14.986-3.948 4.628-2.511 8.765-6.08 12.208-10.25 3.458-4.137 6.285-8.874 8.512-13.864a73.384 73.384 0 0 0 4.974-15.682c.569-2.7.963-5.432 1.232-8.18l.205-2.053.095-2.037c.11-1.327.095-2.827.126-4.217-.031-5.432-.505-11.023-1.626-16.408a75.126 75.126 0 0 0-4.943-15.681c-2.243-4.99-5.038-9.744-8.512-13.897-3.427-4.17-7.549-7.738-12.192-10.28-4.642-2.527-9.696-3.996-15.034-3.996a31.212 31.212 0 0 0-14.891 3.837c-1.185.569-2.259 1.359-3.38 2.038-1.042.805-2.148 1.531-3.127 2.432-2.068 1.674-3.885 3.663-5.622 5.669-1.674 2.1-3.3 4.248-4.674 6.585-.742 1.137-1.31 2.306-1.958 3.459-.253.458-.474.963-.727 1.468zm-7.106-.6c.663-1.295 1.2-2.527 1.958-3.853.758-1.327 1.485-2.685 2.321-3.917 1.564-2.558 3.427-4.942 5.354-7.248 2.021-2.242 4.106-4.438 6.506-6.317 1.153-1.01 2.448-1.832 3.664-2.732 1.327-.774 2.574-1.658 3.98-2.305 5.448-2.875 11.575-4.422 17.908-4.343.71.047 1.39.047 2.163.11l2.4.269 2.29.41c.743.174 1.485.38 2.243.553a39.316 39.316 0 0 1 8.48 3.553c5.322 3 9.918 7.075 13.692 11.702 3.822 4.611 6.854 9.791 9.254 15.192 2.369 5.417 4.106 11.07 5.243 16.85 1.169 5.78 1.642 11.591 1.674 17.545-.047 1.437 0 2.795-.11 4.311l-.127 2.227-.174 2.195c-.284 2.921-.695 5.843-1.279 8.717a80.569 80.569 0 0 1-5.29 16.85c-2.416 5.385-5.433 10.55-9.27 15.16-3.79 4.612-8.386 8.702-13.723 11.67-5.322 2.97-11.45 4.786-17.672 4.833h-.694l-.537-.031-1.058-.032-1.074-.047-1.185-.142c-.79-.111-1.61-.206-2.384-.332l-2.259-.505c-3-.79-5.937-1.848-8.638-3.333l-1.026-.52-.964-.6c-.663-.396-1.326-.79-1.974-1.201-1.216-.9-2.495-1.737-3.647-2.748-2.385-1.895-4.47-4.106-6.475-6.348-3.9-4.611-7.09-9.728-9.618-15.129v-.016l-1.105-2.432 2.085-1.563L25.314 105.2v4.184L3.632 93.025l-.016-.016-3.317-2.748 3.333-2.479L25.33 71.595v-.016l-.016 4.185L1.452 57.461 2.7 55.045z" fill="#231F20" fill-rule="nonzero"/>
        <path d="M52.54 74.085c9.122 0 16.54 7.403 16.54 16.54s-7.418 16.554-16.54 16.554c-9.152 0-16.555-7.417-16.555-16.554 0-9.137 7.403-16.54 16.555-16.54" fill="#FFF" fill-rule="nonzero"/>
        <path d="M52.54 74.085c9.122 0 16.54 7.403 16.54 16.54s-7.418 16.554-16.54 16.554c-9.152 0-16.555-7.417-16.555-16.554 0-9.137 7.403-16.54 16.555-16.54z" stroke="#231F20" stroke-width="5.333" stroke-linecap="round" stroke-linejoin="round"/>
        <path d="M52.536 83.278c4.043 0 7.345 3.287 7.345 7.36 0 4.059-3.302 7.345-7.345 7.345-4.073 0-7.36-3.286-7.36-7.344a7.349 7.349 0 0 1 7.36-7.36" fill="#231F20" fill-rule="nonzero"/>
        <path d="M93.35 137.311c-8.367-12.096-13.522-28.595-13.522-46.786 0-17.862 4.967-34.094 13.068-46.127" fill="#FFF" fill-rule="nonzero"/>
        <path d="M91.655 138.38s-.878-1.255-2.4-3.45c-.8-1.051-1.599-2.604-2.571-4.298-.455-.862-1.051-1.756-1.49-2.744-.44-.972-.91-2.023-1.396-3.09-.235-.548-.502-1.097-.753-1.662-.235-.58-.423-1.176-.643-1.772-.439-1.207-.878-2.446-1.348-3.732-.455-1.27-.769-2.635-1.176-4.015-.361-1.38-.8-2.776-1.035-4.234-.283-1.459-.565-2.948-.847-4.438-.283-1.506-.392-3.043-.58-4.595-.44-3.09-.424-6.242-.58-9.41v-.297l-.016-.063.015-.188v-.142l.032-.564.031-1.16.094-2.29.078-2.274c.079-.784.173-1.584.251-2.368.173-1.568.33-3.12.534-4.658.282-1.505.548-2.98.815-4.438.251-1.458.612-2.885 1.004-4.25.376-1.38.721-2.728 1.129-4.03.439-1.286.894-2.525 1.317-3.732.204-.612.424-1.208.627-1.788.251-.565.487-1.114.722-1.663.956-2.18 1.803-4.171 2.807-5.833.957-1.678 1.694-3.184 2.525-4.313 1.537-2.29 2.43-3.607 2.43-3.607a1.99 1.99 0 0 1 2.76-.533 1.998 1.998 0 0 1 .644 2.619l-.094.157s-.706 1.301-1.96 3.575c-.69 1.098-1.271 2.588-2.055 4.219-.816 1.6-1.474 3.544-2.29 5.614-.204.518-.392 1.035-.596 1.584-.172.549-.345 1.113-.517 1.694-.36 1.144-.706 2.32-1.082 3.544-.33 1.223-.58 2.525-.878 3.826a71.724 71.724 0 0 0-.455 1.96c-.157.675-.251 1.365-.361 2.04-.235 1.38-.455 2.775-.69 4.186-.141 1.396-.267 2.808-.423 4.25-.063.706-.157 1.412-.204 2.149l-.079 2.29-.062 2.289-.032 1.145-.015.58-.016.141v-.078.047l.016.063v.282c.125 2.964.078 5.943.47 8.829.173 1.458.235 2.901.47 4.313.236 1.411.47 2.807.69 4.171.189 1.396.596 2.697.879 3.999.313 1.302.533 2.603.91 3.81.391 1.224.752 2.4 1.113 3.545.188.565.329 1.145.533 1.678.204.549.423 1.066.627 1.584.816 2.07 1.521 3.999 2.337 5.551.768 1.616 1.333 3.027 2.086 4.188l2.085 3.67c.534.956.204 2.18-.752 2.728a2.017 2.017 0 0 1-2.635-.612" fill="#231F20" fill-rule="nonzero"/>
    </g>
</svg>
