<?xml version="1.0" encoding="UTF-8" standalone="no"?>
<svg
   xmlns:dc="http://purl.org/dc/elements/1.1/"
   xmlns:cc="http://creativecommons.org/ns#"
   xmlns:rdf="http://www.w3.org/1999/02/22-rdf-syntax-ns#"
   xmlns:svg="http://www.w3.org/2000/svg"
   xmlns="http://www.w3.org/2000/svg"
   id="svg618"
   version="1.1"
   height="265.0925"
   width="180.576">
  <metadata
     id="metadata624">
    <rdf:RDF>
      <cc:Work
         rdf:about="">
        <dc:format>image/svg+xml</dc:format>
        <dc:type
           rdf:resource="http://purl.org/dc/dcmitype/StillImage" />
        <dc:title>
        o-single-side
    </dc:title>
      </cc:Work>
    </rdf:RDF>
  </metadata>
  <defs
     id="defs622" />
  <title
     id="title596">
        o-single-side
    </title>
  <g
     style="fill:none;fill-rule:evenodd"
     transform="rotate(90,90.47475,90.17575)"
     id="g616">
    <path
       style="fill:#ffffff;fill-rule:nonzero"
       id="path598"
       d="m 262.058,133.84 c 0,24.023 -19.454,43.477 -43.477,43.477 H 106.903 c -24.007,0 -43.477,-19.454 -43.477,-43.477 V 46.886 c 0,-24.008 19.47,-43.478 43.477,-43.478 h 111.678 c 24.023,0 43.477,19.47 43.477,43.478 v 86.954" />
    <path
       style="stroke:#231f20;stroke-width:6.66699982"
       id="path600"
       d="m 262.058,133.84 c 0,24.023 -19.454,43.477 -43.477,43.477 H 106.903 c -24.007,0 -43.477,-19.454 -43.477,-43.477 V 46.886 c 0,-24.008 19.47,-43.478 43.477,-43.478 h 111.678 c 24.023,0 43.477,19.47 43.477,43.478 z" />
    <path
       style="fill:#ffffff;fill-rule:nonzero"
       id="path602"
       d="m 5.705,56.504 c 8.013,-17.603 22.13,-29.276 38.188,-29.276 25.002,0 45.271,28.283 45.271,63.174 0,34.876 -20.27,63.158 -45.27,63.158 -16.121,0 -30.176,-11.751 -38.189,-29.45 L 26.984,107.28 5.705,90.402 26.984,73.682 5.705,56.504" />
    <path
       style="fill:#231f20;fill-rule:nonzero"
       id="path604"
       d="m 9.806,55.645 18.84,15.966 2.606,2.21 -2.622,1.96 -20.877,17.243 v -5.227 l 20.893,17.403 2.622,2.195 -2.638,1.99 -20.877,17.355 0.964,-3.996 0.015,0.016 c 2.211,4.943 5.006,9.633 8.386,13.787 1.753,2.021 3.553,4.01 5.606,5.7 0.963,0.9 2.069,1.643 3.111,2.448 0.553,0.364 1.106,0.711 1.658,1.058 l 0.837,0.537 0.869,0.458 c 2.274,1.311 4.753,2.195 7.248,2.906 l 1.88,0.442 c 0.631,0.11 1.231,0.174 1.847,0.269 l 0.916,0.142 1.074,0.063 1.058,0.047 0.537,0.032 h 0.206 c -0.032,0 0.189,0.016 -0.08,0 h 0.269 c 5.195,0.016 10.344,-1.437 14.986,-3.948 4.628,-2.511 8.765,-6.08 12.208,-10.25 3.458,-4.137 6.285,-8.874 8.512,-13.864 a 73.384,73.384 0 0 0 4.974,-15.682 c 0.569,-2.7 0.963,-5.432 1.232,-8.18 l 0.205,-2.053 0.095,-2.037 c 0.11,-1.327 0.095,-2.827 0.126,-4.217 C 86.461,84.986 85.987,79.395 84.866,74.01 A 75.126,75.126 0 0 0 79.923,58.329 C 77.68,53.339 74.885,48.585 71.411,44.432 67.984,40.262 63.862,36.694 59.219,34.152 54.577,31.625 49.523,30.156 44.185,30.156 a 31.212,31.212 0 0 0 -14.891,3.837 c -1.185,0.569 -2.259,1.359 -3.38,2.038 -1.042,0.805 -2.148,1.531 -3.127,2.432 -2.068,1.674 -3.885,3.663 -5.622,5.669 -1.674,2.1 -3.3,4.248 -4.674,6.585 -0.742,1.137 -1.31,2.306 -1.958,3.459 -0.253,0.458 -0.474,0.963 -0.727,1.468 z M 2.7,55.045 c 0.663,-1.295 1.2,-2.527 1.958,-3.853 0.758,-1.327 1.485,-2.685 2.321,-3.917 1.564,-2.558 3.427,-4.942 5.354,-7.248 2.021,-2.242 4.106,-4.438 6.506,-6.317 1.153,-1.01 2.448,-1.832 3.664,-2.732 1.327,-0.774 2.574,-1.658 3.98,-2.305 5.448,-2.875 11.575,-4.422 17.908,-4.343 0.71,0.047 1.39,0.047 2.163,0.11 l 2.4,0.269 2.29,0.41 c 0.743,0.174 1.485,0.38 2.243,0.553 a 39.316,39.316 0 0 1 8.48,3.553 c 5.322,3 9.918,7.075 13.692,11.702 3.822,4.611 6.854,9.791 9.254,15.192 2.369,5.417 4.106,11.07 5.243,16.85 1.169,5.78 1.642,11.591 1.674,17.545 -0.047,1.437 0,2.795 -0.11,4.311 l -0.127,2.227 -0.174,2.195 c -0.284,2.921 -0.695,5.843 -1.279,8.717 a 80.569,80.569 0 0 1 -5.29,16.85 c -2.416,5.385 -5.433,10.55 -9.27,15.16 -3.79,4.612 -8.386,8.702 -13.723,11.67 -5.322,2.97 -11.45,4.786 -17.672,4.833 h -0.694 l -0.537,-0.031 -1.058,-0.032 -1.074,-0.047 -1.185,-0.142 c -0.79,-0.111 -1.61,-0.206 -2.384,-0.332 l -2.259,-0.505 c -3,-0.79 -5.937,-1.848 -8.638,-3.333 l -1.026,-0.52 -0.964,-0.6 c -0.663,-0.396 -1.326,-0.79 -1.974,-1.201 -1.216,-0.9 -2.495,-1.737 -3.647,-2.748 -2.385,-1.895 -4.47,-4.106 -6.475,-6.348 -3.9,-4.611 -7.09,-9.728 -9.618,-15.129 v -0.016 L 1.547,123.061 3.632,121.498 25.314,105.2 v 4.184 L 3.632,93.025 3.616,93.009 0.299,90.261 3.632,87.782 25.33,71.595 V 71.579 L 25.314,75.764 1.452,57.461 Z" />
    <path
       style="fill:#ffffff;fill-rule:nonzero"
       id="path606"
       d="m 52.54,74.085 c 9.122,0 16.54,7.403 16.54,16.54 0,9.137 -7.418,16.554 -16.54,16.554 -9.152,0 -16.555,-7.417 -16.555,-16.554 0,-9.137 7.403,-16.54 16.555,-16.54" />
    <path
       style="stroke:#231f20;stroke-width:5.33300018;stroke-linecap:round;stroke-linejoin:round"
       id="path608"
       d="m 52.54,74.085 c 9.122,0 16.54,7.403 16.54,16.54 0,9.137 -7.418,16.554 -16.54,16.554 -9.152,0 -16.555,-7.417 -16.555,-16.554 0,-9.137 7.403,-16.54 16.555,-16.54 z" />
    <path
       style="fill:#231f20;fill-rule:nonzero"
       id="path610"
       d="m 52.536,83.278 c 4.043,0 7.345,3.287 7.345,7.36 0,4.059 -3.302,7.345 -7.345,7.345 -4.073,0 -7.36,-3.286 -7.36,-7.344 a 7.349,7.349 0 0 1 7.36,-7.36" />
    <path
       style="fill:#ffffff;fill-rule:nonzero"
       id="path612"
       d="M 93.35,137.311 C 84.983,125.215 79.828,108.716 79.828,90.525 c 0,-17.862 4.967,-34.094 13.068,-46.127" />
    <path
       style="fill:#231f20;fill-rule:nonzero"
       id="path614"
       d="m 91.655,138.38 c 0,0 -0.878,-1.255 -2.4,-3.45 -0.8,-1.051 -1.599,-2.604 -2.571,-4.298 -0.455,-0.862 -1.051,-1.756 -1.49,-2.744 -0.44,-0.972 -0.91,-2.023 -1.396,-3.09 -0.235,-0.548 -0.502,-1.097 -0.753,-1.662 -0.235,-0.58 -0.423,-1.176 -0.643,-1.772 -0.439,-1.207 -0.878,-2.446 -1.348,-3.732 -0.455,-1.27 -0.769,-2.635 -1.176,-4.015 -0.361,-1.38 -0.8,-2.776 -1.035,-4.234 -0.283,-1.459 -0.565,-2.948 -0.847,-4.438 -0.283,-1.506 -0.392,-3.043 -0.58,-4.595 -0.44,-3.09 -0.424,-6.242 -0.58,-9.41 V 90.643 L 76.82,90.58 76.835,90.392 V 90.25 l 0.032,-0.564 0.031,-1.16 0.094,-2.29 0.078,-2.274 c 0.079,-0.784 0.173,-1.584 0.251,-2.368 0.173,-1.568 0.33,-3.12 0.534,-4.658 0.282,-1.505 0.548,-2.98 0.815,-4.438 0.251,-1.458 0.612,-2.885 1.004,-4.25 0.376,-1.38 0.721,-2.728 1.129,-4.03 0.439,-1.286 0.894,-2.525 1.317,-3.732 0.204,-0.612 0.424,-1.208 0.627,-1.788 0.251,-0.565 0.487,-1.114 0.722,-1.663 0.956,-2.18 1.803,-4.171 2.807,-5.833 0.957,-1.678 1.694,-3.184 2.525,-4.313 1.537,-2.29 2.43,-3.607 2.43,-3.607 a 1.99,1.99 0 0 1 2.76,-0.533 1.998,1.998 0 0 1 0.644,2.619 l -0.094,0.157 c 0,0 -0.706,1.301 -1.96,3.575 -0.69,1.098 -1.271,2.588 -2.055,4.219 -0.816,1.6 -1.474,3.544 -2.29,5.614 -0.204,0.518 -0.392,1.035 -0.596,1.584 -0.172,0.549 -0.345,1.113 -0.517,1.694 -0.36,1.144 -0.706,2.32 -1.082,3.544 -0.33,1.223 -0.58,2.525 -0.878,3.826 a 71.724,71.724 0 0 0 -0.455,1.96 c -0.157,0.675 -0.251,1.365 -0.361,2.04 -0.235,1.38 -0.455,2.775 -0.69,4.186 -0.141,1.396 -0.267,2.808 -0.423,4.25 -0.063,0.706 -0.157,1.412 -0.204,2.149 l -0.079,2.29 -0.062,2.289 -0.032,1.145 -0.015,0.58 -0.016,0.141 v -0.078 0.047 l 0.016,0.063 v 0.282 c 0.125,2.964 0.078,5.943 0.47,8.829 0.173,1.458 0.235,2.901 0.47,4.313 0.236,1.411 0.47,2.807 0.69,4.171 0.189,1.396 0.596,2.697 0.879,3.999 0.313,1.302 0.533,2.603 0.91,3.81 0.391,1.224 0.752,2.4 1.113,3.545 0.188,0.565 0.329,1.145 0.533,1.678 0.204,0.549 0.423,1.066 0.627,1.584 0.816,2.07 1.521,3.999 2.337,5.551 0.768,1.616 1.333,3.027 2.086,4.188 l 2.085,3.67 c 0.534,0.956 0.204,2.18 -0.752,2.728 a 2.017,2.017 0 0 1 -2.635,-0.612" />
  </g>
</svg>
