<svg width="181" height="387" xmlns="http://www.w3.org/2000/svg">
    <title>
        o-vertical
    </title>
    <g fill="none" fill-rule="evenodd">
        <path d="M46.815 383.4C22.883 383.4 3.48 364 3.48 340.067V106.733C3.481 82.8 22.883 63.4 46.815 63.4h86.666c23.934 0 43.334 19.4 43.334 43.333v233.334c0 23.933-19.4 43.333-43.334 43.333H46.815" fill="#FFF" fill-rule="nonzero"/>
        <path d="M46.815 383.4C22.883 383.4 3.48 364 3.48 340.067V106.733C3.481 82.8 22.883 63.4 46.815 63.4h86.666c23.934 0 43.334 19.4 43.334 43.333v233.334c0 23.933-19.4 43.333-43.334 43.333H46.815z" stroke="#231F20" stroke-width="6.667"/>
        <path d="M124.005 5.653c17.599 8.04 29.272 22.147 29.272 38.214 0 25-28.281 45.266-63.168 45.266-34.886 0-63.168-20.266-63.168-45.266 0-16.12 11.752-30.187 29.45-38.214l16.828 21.294 16.89-21.294 16.718 21.294 17.178-21.294" fill="#FFF" fill-rule="nonzero"/>
        <path d="M124.873 9.787l-15.97 18.84-2.208 2.6-1.966-2.64h-.001L87.488 7.72l5.232.013h-.003L75.308 28.6l-2.197 2.64-1.984-2.64-.006-.013L53.776 7.72l3.99.973h-.009c-4.954 2.214-9.634 5-13.792 8.4-2.028 1.734-4.014 3.547-5.7 5.587-.906.987-1.638 2.08-2.446 3.133-.372.534-.71 1.107-1.068 1.654l-.534.826-.46.867c-1.308 2.28-2.196 4.76-2.894 7.253l-.448 1.894c-.115.626-.178 1.226-.278 1.84l-.134.92-.055 1.066-.053 1.067-.028.533-.007.134-.003.066c0-.04-.006.174-.001-.066l.008.24c-.016 5.2 1.43 10.36 3.95 14.986 2.509 4.654 6.078 8.774 10.246 12.214 4.143 3.48 8.879 6.293 13.865 8.533a74.53 74.53 0 0 0 15.68 4.973c2.698.56 5.43.96 8.176 1.227l2.062.187 2.034.12c1.324.093 2.819.08 4.22.12 5.43-.04 11.026-.52 16.402-1.64a74.556 74.556 0 0 0 15.689-4.934c4.99-2.24 9.73-5.053 13.883-8.506 4.178-3.427 7.75-7.56 10.28-12.187 2.534-4.653 4.008-9.707 4.001-15.053-.004-5.054-1.31-10.32-3.83-14.894-.567-1.173-1.36-2.253-2.043-3.373-.808-1.04-1.528-2.147-2.432-3.133-1.675-2.054-3.655-3.867-5.671-5.627-2.095-1.667-4.241-3.293-6.576-4.653-1.143-.747-2.31-1.334-3.464-1.974-.457-.24-.959-.466-1.463-.706zm.596-7.12c1.286.653 2.518 1.213 3.848 1.96 1.327.76 2.692 1.48 3.924 2.32 2.554 1.56 4.932 3.426 7.243 5.346 2.243 2.027 4.435 4.12 6.32 6.52 1.003 1.134 1.83 2.427 2.73 3.667.78 1.307 1.657 2.573 2.307 3.973 2.878 5.454 4.42 11.574 4.334 17.907-.036.72-.043 1.4-.102 2.16l-.264 2.4-.416 2.28c-.169.76-.373 1.493-.561 2.253-.839 2.974-2.05 5.814-3.544 8.48-2.997 5.334-7.084 9.907-11.704 13.694-4.613 3.826-9.785 6.84-15.185 9.253a79.914 79.914 0 0 1-16.848 5.24C101.764 91.293 95.955 91.773 90 91.8c-1.444-.04-2.8-.013-4.317-.107l-2.23-.12-2.192-.2a83.663 83.663 0 0 1-8.716-1.28c-5.768-1.133-11.429-2.88-16.84-5.266-5.396-2.414-10.564-5.44-15.168-9.28-4.609-3.8-8.694-8.387-11.669-13.734-2.976-5.32-4.783-11.44-4.83-17.653l-.011-.293.014-.4.022-.534.042-1.066.043-1.067.143-1.2c.106-.787.194-1.6.33-2.387l.508-2.266c.788-2.987 1.842-5.92 3.322-8.614l.524-1.026.597-.987c.403-.653.788-1.307 1.21-1.947.898-1.226 1.738-2.52 2.745-3.653 1.9-2.387 4.098-4.48 6.352-6.48 4.598-3.907 9.728-7.08 15.125-9.613h.01l2.434-1.107 1.559 2.067L75.305 25.28l.007.013h-4.181L87.495 3.587h.004L90.255.28 92.73 3.6l16.192 21.693h.001l-4.172-.026 18.304-23.84 2.413 1.24z" fill="#231F20" fill-rule="nonzero"/>
        <path d="M106.423 52.493c0 9.147-7.407 16.547-16.543 16.547-9.137 0-16.544-7.4-16.544-16.547 0-9.133 7.407-16.533 16.544-16.533 9.136 0 16.543 7.4 16.543 16.533" fill="#FFF" fill-rule="nonzero"/>
        <path d="M106.423 52.493c0 9.147-7.407 16.547-16.543 16.547-9.137 0-16.544-7.4-16.544-16.547 0-9.133 7.407-16.533 16.544-16.533 9.136 0 16.543 7.4 16.543 16.533z" stroke="#231F20" stroke-width="5.333" stroke-linecap="round" stroke-linejoin="round"/>
        <path d="M97.235 52.493a7.356 7.356 0 1 1-14.711 0c0-4.053 3.293-7.346 7.356-7.346 4.061 0 7.355 3.293 7.355 7.346" fill="#231F20" fill-rule="nonzero"/>
        <path d="M43.195 93.32C55.293 84.947 71.796 79.8 89.987 79.8c17.858 0 34.089 4.96 46.124 13.067" fill="#FFF" fill-rule="nonzero"/>
        <path d="M42.128 91.627s1.26-.88 3.463-2.414c1.05-.786 2.596-1.586 4.29-2.56.859-.466 1.756-1.053 2.74-1.48.986-.453 2.023-.92 3.104-1.413.543-.24 1.096-.48 1.66-.733.568-.254 1.168-.44 1.767-.667 1.204-.427 2.45-.88 3.73-1.333 1.28-.467 2.643-.774 4.014-1.174 1.377-.373 2.776-.813 4.24-1.04 1.457-.28 2.939-.56 4.437-.853 1.5-.28 3.043-.387 4.587-.573 3.088-.44 6.255-.414 9.41-.574l.297-.013h.394l.575.027 1.147.04 2.292.093 2.281.093c.779.054 1.577.16 2.36.24 1.57.16 3.133.32 4.664.534 1.5.28 2.981.546 4.439.826 1.464.24 2.878.587 4.253.987 1.375.387 2.73.72 4.027 1.133 1.282.454 2.53.894 3.737 1.32.603.214 1.195.414 1.776.627.567.24 1.123.48 1.667.72 2.18.947 4.174 1.813 5.836 2.813 1.68.947 3.185 1.694 4.313 2.507 2.29 1.56 3.6 2.44 3.6 2.44a2 2 0 0 1 .533 2.773 2.011 2.011 0 0 1-2.606.64l-.16-.093s-1.303-.72-3.583-1.973c-1.099-.68-2.577-1.267-4.207-2.04-1.613-.814-3.549-1.48-5.616-2.294-.517-.2-1.045-.4-1.584-.613-.554-.16-1.12-.333-1.693-.507a749.406 749.406 0 0 1-3.55-1.08c-1.233-.32-2.52-.586-3.82-.88-.651-.16-1.31-.306-1.974-.466-.664-.16-1.352-.227-2.036-.36-1.37-.214-2.764-.454-4.176-.68-1.401-.134-2.82-.28-4.25-.427-.717-.067-1.422-.147-2.157-.2l-2.282-.08-2.292-.067-1.147-.04-.575-.013h-.144c.035 0-.128-.013.07 0h-.105l-.278.013c-2.963.134-5.941.067-8.837.467-1.448.173-2.902.24-4.312.467-1.411.24-2.804.48-4.175.706-1.383.174-2.69.574-3.999.854-1.296.32-2.594.546-3.808.933-1.216.373-2.398.747-3.544 1.093-.569.187-1.142.334-1.682.547-.538.213-1.064.413-1.579.627-2.068.813-3.99 1.52-5.555 2.32-1.604.786-3.016 1.36-4.176 2.093-2.334 1.333-3.668 2.08-3.668 2.08a1.991 1.991 0 0 1-2.73-.747 2.004 2.004 0 0 1 .597-2.626" fill="#231F20" fill-rule="nonzero"/>
    </g>
</svg>
