<svg width="168" height="88" xmlns="http://www.w3.org/2000/svg">
    <title>
        ona-small
    </title>
    <g fill="none" fill-rule="evenodd">
        <path d="M43.788 83.784c-22.08 0-39.99-17.91-39.99-39.99 0-22.1 17.91-40.01 39.99-40.01h80c22.1 0 40.01 17.91 40.01 40.01 0 22.08-17.91 39.99-40.01 39.99h-80" fill="#FFF" fill-rule="nonzero"/>
        <path d="M43.788 83.784c-22.08 0-39.99-17.91-39.99-39.99 0-22.1 17.91-40.01 39.99-40.01h80c22.1 0 40.01 17.91 40.01 40.01 0 22.08-17.91 39.99-40.01 39.99h-80z" stroke="#231F20" stroke-width="6.667"/>
        <path d="M52.932 64.155c-10.68 0-19.344-8.684-19.344-19.364 0-10.7 8.664-19.365 19.344-19.365h61.727c10.7 0 19.364 8.664 19.364 19.365 0 10.68-8.664 19.364-19.364 19.364H52.932z" stroke="#231F20" stroke-width="5.333"/>
        <path stroke="#231F20" stroke-width="4" d="M92.034 25.407H75.6V3.809h16.434z"/>
        <path d="M49.178 63.09c-.099-2.622-.139-5.245-.198-7.848l-.06-3.934v-1.57l.02-.497.02-.496.08-.596c.04-.418.099-.835.198-1.193.636-3.04 2.484-5.742 4.908-7.61 2.464-1.867 5.583-2.84 8.663-2.662.576.02 1.53.159 2.285.318.735.179 1.47.417 2.185.715a12.546 12.546 0 0 1 3.815 2.504 12.874 12.874 0 0 1 2.762 3.616c.715 1.351 1.153 2.861 1.331 4.351.06.378.06.755.08 1.133 0 .397.02.755 0 1.073l-.04 1.967-.1 3.934-.277 7.848h-2.663l-.159-7.014-.04-3.497-.02-.874-.02-.437.02-.517c0-.536.1-1.271.22-1.986.516-2.663 2.026-5.087 4.092-6.816a12.18 12.18 0 0 1 7.51-2.682c1.213 0 2.783.258 3.995.695 1.271.477 2.483 1.133 3.516 1.987 2.087 1.729 3.577 4.153 4.113 6.816.1.675.2 1.33.2 2.006.039.696 0 1.193 0 1.808l-.04 3.497-.16 7.014h-2.682l-.278-7.848-.08-3.934-.04-1.967c0-.874-.04-1.272.08-2.146.179-1.63.596-3.04 1.312-4.411a13.66 13.66 0 0 1 2.761-3.616c2.226-2.106 5.226-3.398 8.306-3.537l.576-.04.596.02c.358.04.596.02 1.053.1.835.079 1.61.278 2.345.476a14.434 14.434 0 0 1 4.073 2.106c2.444 1.868 4.292 4.57 4.927 7.61.338 1.47.338 3.14.299 4.352l-.04 3.934c-.08 2.603-.1 5.226-.219 7.848h-3.338c-.08-2.622-.12-5.245-.199-7.848l-.04-3.934c0-1.411-.039-2.385-.317-3.457a9.358 9.358 0 0 0-3.477-5.306 9.584 9.584 0 0 0-2.861-1.49l-.775-.199c-.259-.06-.477-.06-.716-.119-.198-.06-.616-.04-.914-.06l-.377-.02h-.417a9.189 9.189 0 0 0-5.902 2.385 9.308 9.308 0 0 0-2.026 2.543c-.537.934-.894 2.067-1.053 3.04-.12.418-.14 1.332-.18 1.769l-.039 1.967-.08 3.934-.278 7.848h-2.682l-.159-7.014-.04-3.497c-.02-.556 0-1.231-.04-1.688-.02-.497-.119-.994-.198-1.47a9.083 9.083 0 0 0-3.06-4.928 8.511 8.511 0 0 0-2.563-1.411c-.974-.318-1.749-.477-2.881-.477a8.795 8.795 0 0 0-5.444 1.888 8.938 8.938 0 0 0-3.04 4.927c-.08.437-.2.855-.2 1.49l-.039.358v1.311l-.04 3.497-.178 7.014h-2.663l-.278-7.848-.1-3.934-.04-1.967c0-.338-.019-.616-.059-.894 0-.279-.02-.557-.08-.815a9.52 9.52 0 0 0-3.099-5.643 9.682 9.682 0 0 0-2.742-1.729 9.149 9.149 0 0 0-1.55-.457c-.536-.099-.894-.178-1.629-.198-1.053-.02-2.166.08-3.179.397a9.584 9.584 0 0 0-2.861 1.49 9.49 9.49 0 0 0-3.497 5.306c-.1.258-.1.496-.14.735l-.079.357-.04.497-.02.497-.02.119c0-.02 0 .12.02-.08v.04l-.02.06v1.232l-.039 3.934c-.08 2.603-.12 5.226-.218 7.848h-3.339" fill="#231F20" fill-rule="nonzero"/>
    </g>
</svg>
