<svg width="368" height="360" xmlns="http://www.w3.org/2000/svg">
    <title>
        pi-double
    </title>
    <g fill="none" fill-rule="evenodd">
        <path d="M364.277 312.522c0 23.893-19.375 43.266-43.261 43.266H47.133c-23.9 0-43.26-19.373-43.26-43.266V86.855c0-23.895 19.36-43.267 43.26-43.267h265.588v-13.52c0-14.227 11.55-25.774 25.763-25.774 14.243 0 25.793 11.547 25.793 19.655v288.573" fill="#FFF" fill-rule="nonzero"/>
        <path d="M364.277 312.522c0 23.893-19.375 43.266-43.261 43.266H47.133c-23.9 0-43.26-19.373-43.26-43.266V86.855c0-23.895 19.36-43.267 43.26-43.267h265.588v-13.52c0-14.227 11.55-25.774 25.763-25.774 14.243 0 25.793 11.547 25.793 19.655v288.573z" stroke="#231F20" stroke-width="6.667" stroke-linecap="round" stroke-linejoin="round"/>
        <path d="M343.543 21.415a5.06 5.06 0 0 1-5.058 5.052c-2.777 0-5.028-2.266-5.028-5.052a5.032 5.032 0 0 1 5.028-5.04c2.792 0 5.058 2.253 5.058 5.04m0 17.305a5.06 5.06 0 0 1-5.058 5.055c-2.777 0-5.028-2.267-5.028-5.054a5.032 5.032 0 0 1 5.028-5.04c2.792 0 5.058 2.253 5.058 5.04" fill="#231F20" fill-rule="nonzero"/>
    </g>
</svg>
