<svg width="283" height="227" xmlns="http://www.w3.org/2000/svg">
    <title>
        pi-horizontal
    </title>
    <g fill="none" fill-rule="evenodd">
        <path d="M279.52 180.32c0 23.893-19.36 43.253-43.253 43.253H47.272c-23.89 0-43.259-19.36-43.259-43.253V86.387c0-23.894 19.368-43.267 43.259-43.267h180.701V29.6c0-14.227 11.534-25.773 25.774-25.773S279.52 15.373 279.52 23.48v156.84" fill="#FFF" fill-rule="nonzero"/>
        <path d="M279.52 180.32c0 23.893-19.36 43.253-43.253 43.253H47.272c-23.89 0-43.259-19.36-43.259-43.253V86.387c0-23.894 19.368-43.267 43.259-43.267h180.701V29.6c0-14.227 11.534-25.773 25.774-25.773S279.52 15.373 279.52 23.48v156.84z" stroke="#231F20" stroke-width="6.667" stroke-linecap="round" stroke-linejoin="round"/>
        <path d="M258.8 22.027c0 2.786-2.267 5.04-5.053 5.04a5.036 5.036 0 0 1-5.04-5.04c0-2.787 2.253-5.054 5.04-5.054a5.059 5.059 0 0 1 5.053 5.054m0 17.306c0 2.787-2.267 5.04-5.053 5.04a5.036 5.036 0 0 1-5.04-5.04c0-2.8 2.253-5.053 5.04-5.053a5.05 5.05 0 0 1 5.053 5.053" fill="#231F20" fill-rule="nonzero"/>
    </g>
</svg>
