<svg width="181" height="220" xmlns="http://www.w3.org/2000/svg">
    <title>
        pi-single-up
    </title>
    <g fill="none" fill-rule="evenodd">
        <path d="M176.75 173.044c0 23.892-19.373 43.253-43.261 43.253H46.967c-23.888 0-43.261-19.361-43.261-43.253v-86.52c0-23.894 19.373-43.268 43.26-43.268h78.223V29.737c0-14.227 11.54-25.774 25.77-25.774 14.252 0 25.791 11.547 25.791 19.655v149.425" fill="#FFF" fill-rule="nonzero"/>
        <path d="M176.75 173.044c0 23.892-19.373 43.253-43.261 43.253H46.967c-23.888 0-43.261-19.361-43.261-43.253v-86.52c0-23.894 19.373-43.268 43.26-43.268h78.223V29.737c0-14.227 11.54-25.774 25.77-25.774 14.252 0 25.791 11.547 25.791 19.655v149.425z" stroke="#231F20" stroke-width="6.667" stroke-linecap="round" stroke-linejoin="round"/>
        <path d="M156.017 21.096c0 2.788-2.274 5.04-5.05 5.04a5.038 5.038 0 0 1-5.049-5.04 5.048 5.048 0 0 1 5.05-5.052 5.06 5.06 0 0 1 5.049 5.052m0 17.294a5.062 5.062 0 0 1-5.05 5.053 5.05 5.05 0 0 1-5.049-5.053 5.037 5.037 0 0 1 5.05-5.04c2.775 0 5.049 2.254 5.049 5.04" fill="#231F20" fill-rule="nonzero"/>
    </g>
</svg>
