<svg width="220" height="181" xmlns="http://www.w3.org/2000/svg">
    <title>
        pi-single
    </title>
    <g fill="none" fill-rule="evenodd">
        <path d="M173.361 177.292c23.89 0 43.245-19.36 43.245-43.254v-86.52c0-23.893-19.355-43.267-43.245-43.267H86.836c-23.89 0-43.262 19.374-43.262 43.268v78.226H30.038c-14.222 0-25.77 11.533-25.77 25.773s11.548 25.774 19.662 25.774h149.431" fill="#FFF" fill-rule="nonzero"/>
        <path d="M173.361 177.292c23.89 0 43.245-19.36 43.245-43.254v-86.52c0-23.893-19.355-43.267-43.245-43.267H86.836c-23.89 0-43.262 19.374-43.262 43.268v78.226H30.038c-14.222 0-25.77 11.533-25.77 25.773s11.548 25.774 19.662 25.774h149.431z" stroke="#231F20" stroke-width="6.667" stroke-linecap="round" stroke-linejoin="round"/>
        <path d="M21.384 156.574a5.058 5.058 0 0 0 5.055-5.053 5.047 5.047 0 0 0-5.055-5.041 5.032 5.032 0 0 0-5.037 5.04c0 2.787 2.248 5.054 5.037 5.054m17.302.001a5.055 5.055 0 0 0 5.053-5.052 5.044 5.044 0 0 0-5.053-5.04 5.03 5.03 0 0 0-5.035 5.04c0 2.787 2.246 5.052 5.035 5.052" fill="#231F20" fill-rule="nonzero"/>
    </g>
</svg>
