<svg width="290" height="289" xmlns="http://www.w3.org/2000/svg">
    <title>
        pi-vertical
    </title>
    <g fill="none" fill-rule="evenodd">
        <path d="M244.88 284.893c33.827 0 41.067-13.813 41.067-41.066V51.613c0-26.373-21.374-47.733-47.734-47.733h-43.08c-26.36 0-47.733 21.36-47.733 47.733v176.4H31.893c-15.706 0-28.44 12.734-28.44 28.44a475200331047435600 475200331047435600 0 0 0 139.293 28.44H244.88" fill="#FFF" fill-rule="nonzero"/>
        <path d="M244.88 284.893c33.827 0 41.067-13.813 41.067-41.066V51.613c0-26.373-21.374-47.733-47.734-47.733h-43.08c-26.36 0-47.733 21.36-47.733 47.733v176.4H31.893c-15.706 0-28.44 12.734-28.44 28.44a475200331047435600 475200331047435600 0 0 0 139.293 28.44H244.88z" stroke="#231F20" stroke-width="6.667" stroke-linecap="round" stroke-linejoin="round"/>
        <path d="M33.8 262.013a5.565 5.565 0 0 0 5.56-5.56 5.568 5.568 0 0 0-5.56-5.573 5.57 5.57 0 0 0-5.573 5.573 5.568 5.568 0 0 0 5.573 5.56" fill="#231F20" fill-rule="nonzero"/>
        <path d="M33.8 262.013a5.565 5.565 0 0 0 5.56-5.56 5.568 5.568 0 0 0-5.56-5.573 5.57 5.57 0 0 0-5.573 5.573 5.568 5.568 0 0 0 5.573 5.56z" stroke="#231F20" stroke-width="1.333"/>
        <path d="M55.56 262.013a5.565 5.565 0 0 0 5.56-5.56 5.568 5.568 0 0 0-5.56-5.573 5.57 5.57 0 0 0-5.573 5.573 5.568 5.568 0 0 0 5.573 5.56" fill="#231F20" fill-rule="nonzero"/>
        <path d="M55.56 262.013a5.565 5.565 0 0 0 5.56-5.56 5.568 5.568 0 0 0-5.56-5.573 5.57 5.57 0 0 0-5.573 5.573 5.568 5.568 0 0 0 5.573 5.56z" stroke="#231F20" stroke-width="1.333"/>
    </g>
</svg>
