<svg xmlns="http://www.w3.org/2000/svg" width="290" height="289">
  <title>
    pi-vertical
  </title>
  <g fill="none" fill-rule="evenodd">
    <path fill="#FFF" fill-rule="nonzero" d="M244.88 284.893c33.827 0 41.067-13.813 41.067-41.066V51.613c0-26.373-21.374-47.733-47.734-47.733h-43.08c-26.36 0-47.733 21.36-47.733 47.733v176.4H31.893c-15.706 0-28.44 12.734-28.44 28.44 0 15.707 11.387 28.44 29.774 28.44H244.88"/>
    <path stroke="#231F20" stroke-width="6.667" d="M244.88 284.893c33.827 0 41.067-13.813 41.067-41.066V51.613c0-26.373-21.374-47.733-47.734-47.733h-43.08c-26.36 0-47.733 21.36-47.733 47.733v176.4H31.893c-15.706 0-28.44 12.734-28.44 28.44 0 15.707 11.387 28.44 29.774 28.44H244.88z" stroke-linecap="round" stroke-linejoin="round"/>
    <path fill="#231F20" fill-rule="nonzero" d="M33.8 262.013c3.067 0 5.56-2.493 5.56-5.56 0-3.08-2.493-5.573-5.56-5.573-3.08 0-5.573 2.493-5.573 5.573 0 3.067 2.493 5.56 5.573 5.56"/>
    <path stroke="#231F20" stroke-width="1.333" d="M33.8 262.013c3.067 0 5.56-2.493 5.56-5.56 0-3.08-2.493-5.573-5.56-5.573-3.08 0-5.573 2.493-5.573 5.573 0 3.067 2.493 5.56 5.573 5.56z"/>
    <path fill="#231F20" fill-rule="nonzero" d="M55.56 262.013c3.067 0 5.56-2.493 5.56-5.56 0-3.08-2.493-5.573-5.56-5.573-3.08 0-5.573 2.493-5.573 5.573 0 3.067 2.493 5.56 5.573 5.56"/>
    <path stroke="#231F20" stroke-width="1.333" d="M55.56 262.013c3.067 0 5.56-2.493 5.56-5.56 0-3.08-2.493-5.573-5.56-5.573-3.08 0-5.573 2.493-5.573 5.573 0 3.067 2.493 5.56 5.573 5.56z"/>
  </g>
</svg>
