<svg width="354" height="51" xmlns="http://www.w3.org/2000/svg">
    <title>
        point-double
    </title>
    <g fill="none">
        <path d="M350.497 34.826c0 6.76-4.701 12.24-10.5 12.24H14.055c-5.8 0-10.5-5.48-10.5-12.24 0-6.772 4.7-12.253 10.5-12.253h325.942c5.799 0 10.5 5.48 10.5 12.253" fill="#FFF"/>
        <path d="M347.197 34.826l-.002-.413a7.92 7.92 0 0 0-.054-1.186c-.125-1.04-.384-2.627-1.392-4.387-.518-.853-1.228-1.747-2.193-2.44-.499-.32-1.033-.627-1.633-.814l-.45-.16a1.86 1.86 0 0 1-.373-.08l-.19-.053-.351-.013c-.235-.014-.474-.027-.712-.053H326.8c-19.782-.027-48.041-.054-81.953-.094H128.984c-21.193.014-43.095.04-65.35.067l-33.602.04c-2.814 0-5.632.013-8.452.026l-4.231.027-2.117.014h-1.058l-.775.053c-1.955.2-3.808 1.413-5.027 3.2a9.906 9.906 0 0 0-1.386 2.96c-.167.506-.267 1.12-.33 1.587-.017.28-.07.426-.077.787l-.024.932c.066 2.24.782 4.427 2.06 6.08a8.016 8.016 0 0 0 2.226 2c.791.507 1.8.787 2.468.867l.865.04 1.058-.013 2.117-.013 4.231-.027c2.82-.013 5.638-.013 8.452-.027 11.26 0 22.475-.013 33.603-.013l65.349-.04h115.864c33.912.027 62.17.04 81.953.053h13.2c2.456-.013 4.35-1.573 5.411-3.16 1.104-1.56 1.485-3.186 1.637-4.12.028-.226.071-.373.092-.6l.034-.653.026-.52-.004.146zm6.595.134s-.005.187-.019.533l-.022.64c-.019.293-.074.747-.128 1.187-.259 1.746-.779 4.227-2.67 7.067a14.632 14.632 0 0 1-4.108 4c-1.817 1.173-4.21 1.986-6.84 2.026h-13.204c-19.782.013-48.041.027-81.953.04-33.91.013-73.475.013-115.864.013l-65.35-.04c-11.127 0-22.342-.013-33.602-.013-2.814-.013-5.632-.026-8.452-.026l-4.231-.027-2.117-.013-1.058-.014a3.849 3.849 0 0 1-.457-.013l-.264-.013-.528-.04c-4.155-.413-7.318-2.72-9.393-5.627C1.466 41.72.524 38.227.555 34.826l.067-1.186c.018-.347.106-.893.164-1.333.154-.907.328-1.694.615-2.52a15.77 15.77 0 0 1 2.375-4.6c2.068-2.774 5.35-4.947 9.059-5.293.442-.014.952-.054 1.339-.054h1.058l2.117.014 4.231.026c2.82.014 5.638.027 8.452.027l33.603.04c22.254.026 44.156.053 65.349.066h115.864c33.912-.04 62.17-.066 81.953-.093h13.359l.713.04.351.013.495.067.978.16c.284.08.564.16.842.226 1.108.32 2.09.814 2.984 1.334a14.755 14.755 0 0 1 4.093 3.72c1.987 2.667 2.63 5.174 2.915 6.813.152.827.2 1.467.222 1.894l.043.64-.004.133z" fill="#231F20"/>
        <path d="M350.497 14.987c0 6.773-4.701 12.253-10.5 12.253H14.055c-5.8 0-10.5-5.48-10.5-12.253 0-6.76 4.7-12.254 10.5-12.254h325.942c5.799 0 10.5 5.494 10.5 12.254" fill="#FFF"/>
        <path d="M347.197 14.987l-.002-.4a8.143 8.143 0 0 0-.054-1.2c-.125-1.027-.384-2.627-1.392-4.387-.518-.853-1.228-1.734-2.193-2.44-.499-.307-1.033-.627-1.633-.813l-.45-.147-.373-.08-.19-.053-.351-.027-.712-.04c-3.796 0-8.159 0-13.046-.013-19.782-.014-48.041-.054-81.953-.08-33.91 0-73.475-.014-115.864-.014-21.193.027-43.095.054-65.35.067l-33.602.04c-2.814.013-5.632.013-8.452.027l-4.231.026-2.117.014-1.058.013-.775.04c-1.955.213-3.808 1.413-5.027 3.2a10.222 10.222 0 0 0-1.386 2.96c-.167.52-.267 1.12-.33 1.6-.017.267-.07.413-.077.786l-.024.92c.066 2.241.782 4.427 2.06 6.094a8.024 8.024 0 0 0 2.226 2c.791.493 1.8.786 2.468.853l.865.04h1.058l2.117-.013 4.231-.027a1770.4 1770.4 0 0 1 8.452-.026c11.26-.013 22.475-.013 33.603-.027 22.254-.014 44.156-.014 65.349-.026h115.864c33.912.012 62.17.04 81.953.04 4.944.013 9.359.013 13.2.013 2.456-.027 4.35-1.587 5.411-3.16 1.104-1.574 1.485-3.2 1.637-4.12.028-.24.071-.387.092-.614l.034-.64.026-.52-.004.134zm6.595.146s-.005.174-.019.52l-.022.654c-.019.293-.074.733-.128 1.186-.259 1.747-.779 4.227-2.67 7.067a14.818 14.818 0 0 1-4.108 4 13.09 13.09 0 0 1-6.84 2.013c-3.841 0-8.258 0-13.204.013-19.782 0-48.041.027-81.953.04H128.984c-21.193-.013-43.095-.026-65.35-.026-11.127-.014-22.342-.014-33.602-.027-2.814 0-5.632-.013-8.452-.026l-4.231-.027-2.117-.013h-1.058c-.046 0-.54-.014-.457-.014l-.264-.027-.528-.026c-4.155-.427-7.318-2.72-9.393-5.64C1.466 21.88.524 18.387.555 14.987L.622 13.8c.018-.346.106-.893.164-1.32.154-.92.328-1.707.615-2.533A15.865 15.865 0 0 1 3.776 5.36C5.844 2.573 9.126.413 12.835.067c.442-.027.952-.054 1.339-.067l1.058.013 2.117.014 4.231.026c2.82.014 5.638.014 8.452.027l33.603.04c22.254.013 44.156.04 65.349.067 42.39 0 81.953-.014 115.864-.014 33.912-.026 62.17-.066 81.953-.08C331.805.08 336.273.08 340.16.08l.713.04.351.027.495.066.978.16c.284.067.564.147.842.227 1.108.307 2.09.8 2.984 1.333a14.358 14.358 0 0 1 4.093 3.72c1.987 2.654 2.63 5.16 2.915 6.8.152.827.2 1.467.222 1.894l.043.64-.004.146z" fill="#231F20"/>
    </g>
</svg>
