<svg width="180" height="51" xmlns="http://www.w3.org/2000/svg">
    <title>
        point-single
    </title>
    <g fill="none">
        <path d="M176.692 35.053c0 6.76-4.7 12.24-10.5 12.24H13.859c-5.8 0-10.5-5.48-10.5-12.24 0-6.773 4.7-12.253 10.5-12.253h152.333c5.8 0 10.5 5.48 10.5 12.253" fill="#FFF"/>
        <path d="M173.393 35.053l-.001-.84a10.45 10.45 0 0 0-.35-2.386c-.25-1.027-.702-2.28-1.587-3.507-.463-.587-.999-1.2-1.679-1.68a6.388 6.388 0 0 0-2.315-1.027c-.19-.04-.285-.106-.681-.106l-.497-.04h-.188c.049 0-.199-.014.094 0h-.253c-.677-.014-1.37-.014-2.081-.014h-4.458c-3.1-.013-6.453-.026-10.036-.026-7.164-.014-15.246-.04-24.064-.054-8.818-.013-18.37-.04-28.474-.066l-31.78.04-33.986.08c-5.76.013-11.565.026-17.393.053-2.072.067-4.044 1.24-5.391 3.053-.684.894-1.165 1.96-1.488 3.067a10.4 10.4 0 0 0-.34 1.68c-.016.267-.06.453-.072.8l-.014.973c.128 4.68 3.473 8.96 7.42 8.894h17.278l33.986-.04c22.044 0 42.618.013 60.254.013 8.818.013 16.9.013 24.064.027 3.583 0 6.936 0 10.036.013h6.792l.16-.013.316-.014c.211 0 .411-.053.612-.093 1.604-.307 2.91-1.28 3.823-2.36a9.83 9.83 0 0 0 1.752-3.267c.187-.48.253-.96.35-1.32.04-.36.111-.56.133-.906l.062-1.08-.004.146zm6.595.134s-.01.373-.032 1.08c-.01.36-.097 1.04-.18 1.72-.133.653-.24 1.386-.512 2.213a15.927 15.927 0 0 1-3.03 5.613c-.85.974-1.865 1.947-3.151 2.774a13.227 13.227 0 0 1-4.551 1.813c-.433.067-.87.16-1.321.173l-.68.04-.342.014h-.253c-.677.013-1.37.013-2.081.013h-4.458c-3.1 0-6.453.013-10.036.013-7.164 0-15.246.014-24.064.027-17.636 0-38.21 0-60.254.013l-33.986-.04-17.67-.04-.548-.04-.288-.013-.422-.067c-.548-.093-1.159-.186-1.6-.346A12.182 12.182 0 0 1 7.806 49a13.947 13.947 0 0 1-4.27-3.76C1.279 42.253.296 38.587.359 35.053l.081-1.24c.032-.386.12-.933.189-1.386.17-.92.376-1.747.684-2.6.583-1.694 1.469-3.267 2.586-4.694 2.2-2.84 5.771-4.92 9.602-4.986 5.883.013 11.743.013 17.556.026 11.574.027 22.963.054 33.986.067l31.78.04c10.104-.013 19.656-.04 28.474-.053 8.818-.027 16.9-.04 24.064-.054 3.583-.013 6.936-.013 10.036-.026 1.55 0 3.036 0 4.458-.014h2.334l.408.014.498.04c.268-.014.809.08 1.252.146 3.42.654 5.832 2.427 7.533 4.254a15.82 15.82 0 0 1 3.193 5.36 17 17 0 0 1 .826 3.773l.092 1.333-.003.134z" fill="#231F20"/>
        <path d="M176.692 15.213c0 6.774-4.7 12.254-10.5 12.254H13.859c-5.8 0-10.5-5.48-10.5-12.254 0-6.76 4.7-12.253 10.5-12.253h152.333c5.8 0 10.5 5.493 10.5 12.253" fill="#FFF"/>
        <path d="M173.393 15.213l-.001-.826a10.544 10.544 0 0 0-.35-2.4c-.25-1.014-.702-2.267-1.587-3.494-.463-.586-.999-1.2-1.679-1.693-.659-.467-1.544-.867-2.315-1.027-.19-.026-.285-.093-.681-.106l-.497-.027-.126-.013h-.062.094-2.334c-1.422 0-2.908-.014-4.458-.014-3.1 0-6.453-.013-10.036-.026-7.164-.014-15.246-.027-24.064-.04-8.818-.027-18.37-.04-28.474-.067l-31.78.04c-11.023.027-22.412.04-33.986.067-5.76.026-11.565.04-17.393.053-2.072.067-4.044 1.253-5.391 3.067-.684.893-1.165 1.96-1.488 3.066a9.971 9.971 0 0 0-.34 1.667c-.016.28-.06.453-.072.8l-.014.973c.128 4.68 3.473 8.96 7.42 8.907 5.789 0 11.557 0 17.278-.013l33.986-.04c22.044.013 42.618.013 60.254.013 8.818.013 16.9.027 24.064.027 3.583.013 6.936.013 10.036.013 1.55 0 3.036 0 4.458.013h2.334l.16-.013.316-.027c.211.014.411-.053.612-.08 1.604-.306 2.91-1.293 3.823-2.373a9.909 9.909 0 0 0 1.752-3.253c.187-.48.253-.96.35-1.334.04-.36.111-.546.133-.906l.062-1.08-.004.146zm6.595.147l-.032 1.08c-.01.36-.097 1.04-.18 1.72-.133.653-.24 1.387-.512 2.213a16.153 16.153 0 0 1-3.03 5.614c-.85.96-1.865 1.946-3.151 2.76-1.287.813-2.823 1.493-4.551 1.813-.433.08-.87.173-1.321.187l-.68.04-.342.013h-2.334c-1.422 0-2.908 0-4.458.013h-10.036c-7.164.014-15.246.027-24.064.027-17.636.013-38.21.013-60.254.013l-33.986-.04-17.67-.04-.548-.026-.288-.027-.422-.067c-.548-.093-1.159-.186-1.6-.346a12.125 12.125 0 0 1-2.723-1.134c-1.705-.96-3.142-2.28-4.27-3.76-2.257-2.986-3.24-6.666-3.177-10.2l.081-1.226c.032-.387.12-.934.189-1.387.17-.933.376-1.76.684-2.613a16.352 16.352 0 0 1 2.586-4.694C6.099 2.453 9.67.387 13.5.32c5.883 0 11.743.013 17.556.013l33.986.08 31.78.04c10.104-.026 19.656-.04 28.474-.066 8.818-.014 16.9-.04 24.064-.054 3.583 0 6.936-.013 10.036-.013 1.55-.013 3.036-.013 4.458-.013h2.334l.408.013.498.027c.268 0 .809.08 1.252.16 3.42.64 5.832 2.413 7.533 4.24 1.665 1.866 2.635 3.773 3.193 5.373.554 1.613.728 2.907.826 3.773l.092 1.32-.003.147z" fill="#231F20"/>
    </g>
</svg>
