<?xml version="1.0" encoding="UTF-8" standalone="no"?>
<svg
   xmlns:dc="http://purl.org/dc/elements/1.1/"
   xmlns:cc="http://creativecommons.org/ns#"
   xmlns:rdf="http://www.w3.org/1999/02/22-rdf-syntax-ns#"
   xmlns:svg="http://www.w3.org/2000/svg"
   xmlns="http://www.w3.org/2000/svg"
   id="svg16"
   version="1.1"
   height="180.569"
   width="373.30133">
  <metadata
     id="metadata22">
    <rdf:RDF>
      <cc:Work
         rdf:about="">
        <dc:format>image/svg+xml</dc:format>
        <dc:type
           rdf:resource="http://purl.org/dc/dcmitype/StillImage" />
        <dc:title>
        poka-vertical
    </dc:title>
      </cc:Work>
    </rdf:RDF>
  </metadata>
  <defs
     id="defs20" />
  <title
     id="title2">
        poka-vertical
    </title>
  <g
     style="fill:none;fill-rule:evenodd"
     transform="rotate(-90,90.655158,90.767342)"
     id="g14">
    <path
       style="fill:#ffffff;fill-rule:nonzero"
       id="path4"
       d="m 4.585,82.04 c 0,-42.867 47.086,-82.827 94.888,-78.227 47.803,4.614 78.219,41.88 78.219,94.894 0,53.013 0.397,227.893 0.397,227.893 0,24.013 -19.465,43.48 -43.476,43.48 h -86.95 c -24.01,0 -43.476,-19.467 -43.476,-43.48 0,0 0.398,-201.693 0.398,-244.56" />
    <path
       style="stroke:#231f20;stroke-width:6.66699982"
       id="path6"
       d="m 4.585,82.04 c 0,-42.867 47.086,-82.827 94.888,-78.227 47.803,4.614 78.219,41.88 78.219,94.894 0,53.013 0.397,227.893 0.397,227.893 0,24.013 -19.465,43.48 -43.476,43.48 h -86.95 c -24.01,0 -43.476,-19.467 -43.476,-43.48 0,0 0.398,-201.693 0.398,-244.56 z" />
    <path
       style="fill:#231f20;fill-rule:nonzero"
       id="path8"
       d="m 70.115,5.8 c 0,0 0.786,1.013 2.162,2.773 0.337,0.454 0.739,0.867 1.124,1.507 0.386,0.627 0.805,1.307 1.252,2.027 0.438,0.72 0.93,1.493 1.395,2.32 0.394,0.84 0.808,1.706 1.24,2.626 0.945,1.8 1.599,3.88 2.386,6.054 0.43,1.08 0.634,2.24 0.97,3.386 0.29,1.174 0.669,2.347 0.855,3.574 0.226,1.226 0.457,2.466 0.69,3.733 0.198,1.253 0.319,2.533 0.483,3.827 l 0.224,1.933 0.128,1.96 c 0.073,1.293 0.2,2.613 0.227,3.92 0.057,2.613 0.124,5.227 0.041,7.773 -0.012,2.574 -0.183,5.067 -0.285,7.494 -0.168,2.413 -0.31,4.76 -0.507,6.96 l -0.562,6.186 -1.245,12.694 -0.004,0.04 a 3.33,3.33 0 0 1 -3.644,2.986 3.33,3.33 0 0 1 -2.991,-3.64 c 0,-0.013 0.004,-0.04 0.005,-0.053 l 1.456,-12.693 0.654,-6.107 c 0.23,-2.16 0.404,-4.427 0.606,-6.787 0.138,-2.346 0.345,-4.786 0.394,-7.24 0.122,-2.466 0.096,-4.96 0.084,-7.453 -0.005,-1.24 -0.107,-2.467 -0.154,-3.707 l -0.09,-1.853 -0.181,-1.813 c -0.135,-1.2 -0.227,-2.414 -0.392,-3.587 L 75.855,31.2 C 75.704,30.053 75.371,28.973 75.124,27.907 74.833,26.853 74.67,25.773 74.294,24.8 73.61,22.84 73.06,20.947 72.24,19.333 71.87,18.52 71.515,17.72 71.178,16.973 70.793,16.28 70.399,15.653 70.049,15.04 69.697,14.427 69.367,13.853 69.062,13.333 68.772,12.8 68.315,12.307 68.005,11.853 66.658,10.08 65.888,9.053 65.888,9.053 A 2.665,2.665 0 0 1 66.404,5.32 2.678,2.678 0 0 1 70.114,5.8 M 94.252,3.253 c 0,0 0.813,1.04 2.236,2.854 0.35,0.48 0.767,0.906 1.163,1.573 0.4,0.64 0.83,1.347 1.292,2.093 0.452,0.747 0.958,1.547 1.438,2.387 0.407,0.867 0.835,1.773 1.282,2.72 0.976,1.867 1.65,4.013 2.464,6.253 0.444,1.107 0.653,2.307 1.001,3.507 0.3,1.2 0.69,2.427 0.883,3.693 0.234,1.267 0.472,2.547 0.712,3.854 0.204,1.293 0.329,2.626 0.498,3.96 l 0.232,2 0.132,2.013 c 0.075,1.347 0.204,2.707 0.232,4.053 0.059,2.707 0.127,5.414 0.04,8.054 -0.012,2.653 -0.189,5.24 -0.296,7.746 -0.174,2.507 -0.322,4.92 -0.526,7.2 l -0.583,6.414 -1.293,13.133 -0.004,0.027 a 3.34,3.34 0 0 1 -3.644,3 3.342,3.342 0 0 1 -2.991,-3.654 l 0.005,-0.04 1.503,-13.133 0.676,-6.32 c 0.237,-2.24 0.416,-4.6 0.627,-7.04 0.14,-2.427 0.354,-4.947 0.405,-7.493 0.125,-2.56 0.097,-5.134 0.084,-7.72 -0.005,-1.294 -0.11,-2.56 -0.161,-3.84 l -0.092,-1.92 -0.19,-1.88 c -0.14,-1.254 -0.236,-2.494 -0.406,-3.72 -0.204,-1.2 -0.406,-2.4 -0.604,-3.574 -0.158,-1.186 -0.503,-2.293 -0.759,-3.4 -0.303,-1.093 -0.472,-2.213 -0.863,-3.226 -0.708,-2.027 -1.28,-4 -2.13,-5.667 -0.384,-0.853 -0.754,-1.667 -1.103,-2.453 -0.4,-0.72 -0.81,-1.374 -1.173,-2.014 C 93.972,12.067 93.629,11.467 93.312,10.92 93.011,10.373 92.539,9.867 92.217,9.4 L 90.025,6.507 a 2.663,2.663 0 0 1 0.515,-3.734 2.668,2.668 0 0 1 3.712,0.48" />
    <path
       style="stroke:#231f20;stroke-width:5.33300018;stroke-linecap:round;stroke-linejoin:round"
       id="path10"
       d="M 63.084,52.8 C 62.277,60.827 54.832,66.707 46.455,65.933 38.078,65.16 31.941,58.027 32.748,49.987 33.555,41.96 40.999,36.08 49.377,36.853 57.754,37.627 63.891,44.76 63.084,52.8 Z m 86.446,0.027 c -0.807,8.04 -8.253,13.92 -16.63,13.146 C 124.523,65.2 118.387,58.067 119.193,50.027 120,42 127.444,36.12 135.821,36.893 c 8.378,0.774 14.515,7.907 13.708,15.934 z" />
    <path
       style="fill:#231f20;fill-rule:nonzero"
       id="path12"
       d="m 177.167,76.827 c 0,0 -2.53,0.96 -6.955,2.666 -2.243,0.814 -5.135,1.614 -8.37,2.627 -3.251,0.987 -6.922,1.773 -10.937,2.773 -2.021,0.387 -4.126,0.8 -6.306,1.214 -2.182,0.4 -4.43,0.893 -6.766,1.186 -2.33,0.347 -4.725,0.694 -7.173,1.054 -2.445,0.4 -4.967,0.533 -7.519,0.813 -2.557,0.227 -5.149,0.587 -7.786,0.707 -2.636,0.146 -5.303,0.306 -7.992,0.466 -2.688,0.214 -5.403,0.2 -8.127,0.267 -2.748,0.04 -5.405,0.173 -8.248,0.133 -2.708,-0.066 -5.416,-0.12 -8.113,-0.186 -1.35,-0.027 -2.697,-0.054 -4.04,-0.094 A 409.58,409.58 0 0 1 74.765,90.2 c -2.701,-0.16 -5.382,-0.32 -8.03,-0.493 -2.63,-0.254 -5.229,-0.52 -7.784,-0.774 C 53.832,88.52 48.931,87.627 44.271,86.96 41.936,86.64 39.697,86.093 37.515,85.693 35.34,85.24 33.228,84.88 31.219,84.4 c -2.001,-0.507 -3.92,-0.987 -5.744,-1.453 -1.82,-0.48 -3.557,-0.867 -5.152,-1.427 -3.2,-1.067 -6.016,-1.867 -8.281,-2.747 A 6382.344,6382.344 0 0 0 4.964,75.907 2.664,2.664 0 0 1 3.498,72.44 2.66,2.66 0 0 1 6.875,70.933 l 0.214,0.08 6.82,2.494 c 2.176,0.773 4.926,1.48 8.018,2.413 1.537,0.493 3.24,0.827 5.013,1.24 1.773,0.413 3.638,0.853 5.584,1.307 1.953,0.426 4.02,0.746 6.142,1.146 2.132,0.36 4.307,0.854 6.595,1.12 4.564,0.587 9.35,1.347 14.361,1.747 2.5,0.24 5.04,0.48 7.612,0.72 2.57,0.147 5.17,0.293 7.791,0.44 1.31,0.08 2.626,0.147 3.945,0.227 1.34,0.026 2.686,0.04 4.034,0.066 2.697,0.054 5.405,0.094 8.113,0.134 2.574,0.04 5.334,-0.067 7.98,-0.094 2.67,-0.053 5.335,-0.026 7.967,-0.213 2.635,-0.147 5.25,-0.28 7.832,-0.413 2.587,-0.107 5.119,-0.44 7.621,-0.64 5.012,-0.4 9.815,-1.067 14.378,-1.654 2.29,-0.253 4.478,-0.68 6.61,-1.04 l 6.158,-1.08 c 1.952,-0.44 3.822,-0.853 5.6,-1.253 1.772,-0.4 3.5,-0.707 5.018,-1.173 3.088,-0.88 5.774,-1.534 8.008,-2.267 4.483,-1.547 7.044,-2.427 7.044,-2.427 h 0.01 a 2.66,2.66 0 0 1 3.389,1.654 2.677,2.677 0 0 1 -1.565,3.36" />
  </g>
</svg>
