<svg width="182" height="374" xmlns="http://www.w3.org/2000/svg">
    <title>
        poka-vertical
    </title>
    <g fill="none" fill-rule="evenodd">
        <path d="M4.585 82.04c0-42.867 47.086-82.827 94.888-78.227 47.803 4.614 78.219 41.88 78.219 94.894 0 53.013.397 227.893.397 227.893 0 24.013-19.465 43.48-43.476 43.48h-86.95c-24.01 0-43.476-19.467-43.476-43.48 0 0 .398-201.693.398-244.56" fill="#FFF" fill-rule="nonzero"/>
        <path d="M4.585 82.04c0-42.867 47.086-82.827 94.888-78.227 47.803 4.614 78.219 41.88 78.219 94.894 0 53.013.397 227.893.397 227.893 0 24.013-19.465 43.48-43.476 43.48h-86.95c-24.01 0-43.476-19.467-43.476-43.48 0 0 .398-201.693.398-244.56z" stroke="#231F20" stroke-width="6.667"/>
        <path d="M70.115 5.8s.786 1.013 2.162 2.773c.337.454.739.867 1.124 1.507.386.627.805 1.307 1.252 2.027.438.72.93 1.493 1.395 2.32.394.84.808 1.706 1.24 2.626.945 1.8 1.599 3.88 2.386 6.054.43 1.08.634 2.24.97 3.386.29 1.174.669 2.347.855 3.574.226 1.226.457 2.466.69 3.733.198 1.253.319 2.533.483 3.827l.224 1.933.128 1.96c.073 1.293.2 2.613.227 3.92.057 2.613.124 5.227.041 7.773-.012 2.574-.183 5.067-.285 7.494-.168 2.413-.31 4.76-.507 6.96l-.562 6.186-1.245 12.694-.004.04a3.33 3.33 0 0 1-3.644 2.986 3.33 3.33 0 0 1-2.991-3.64c0-.013.004-.04.005-.053l1.456-12.693.654-6.107c.23-2.16.404-4.427.606-6.787.138-2.346.345-4.786.394-7.24.122-2.466.096-4.96.084-7.453-.005-1.24-.107-2.467-.154-3.707l-.09-1.853-.181-1.813c-.135-1.2-.227-2.414-.392-3.587l-.581-3.44c-.151-1.147-.484-2.227-.731-3.293-.291-1.054-.454-2.134-.83-3.107-.684-1.96-1.234-3.853-2.054-5.467-.37-.813-.725-1.613-1.062-2.36-.385-.693-.779-1.32-1.129-1.933-.352-.613-.682-1.187-.987-1.707-.29-.533-.747-1.026-1.057-1.48-1.347-1.773-2.117-2.8-2.117-2.8a2.665 2.665 0 0 1 .516-3.733 2.678 2.678 0 0 1 3.71.48m24.138-2.547s.813 1.04 2.236 2.854c.35.48.767.906 1.163 1.573.4.64.83 1.347 1.292 2.093.452.747.958 1.547 1.438 2.387.407.867.835 1.773 1.282 2.72.976 1.867 1.65 4.013 2.464 6.253.444 1.107.653 2.307 1.001 3.507.3 1.2.69 2.427.883 3.693.234 1.267.472 2.547.712 3.854.204 1.293.329 2.626.498 3.96l.232 2 .132 2.013c.075 1.347.204 2.707.232 4.053.059 2.707.127 5.414.04 8.054-.012 2.653-.189 5.24-.296 7.746-.174 2.507-.322 4.92-.526 7.2l-.583 6.414-1.293 13.133-.004.027a3.34 3.34 0 0 1-3.644 3 3.342 3.342 0 0 1-2.991-3.654l.005-.04 1.503-13.133.676-6.32c.237-2.24.416-4.6.627-7.04.14-2.427.354-4.947.405-7.493.125-2.56.097-5.134.084-7.72-.005-1.294-.11-2.56-.161-3.84l-.092-1.92-.19-1.88c-.14-1.254-.236-2.494-.406-3.72-.204-1.2-.406-2.4-.604-3.574-.158-1.186-.503-2.293-.759-3.4-.303-1.093-.472-2.213-.863-3.226-.708-2.027-1.28-4-2.13-5.667-.384-.853-.754-1.667-1.103-2.453-.4-.72-.81-1.374-1.173-2.014-.367-.626-.71-1.226-1.027-1.773-.301-.547-.773-1.053-1.095-1.52l-2.192-2.893a2.663 2.663 0 0 1 .515-3.734 2.668 2.668 0 0 1 3.712.48" fill="#231F20" fill-rule="nonzero"/>
        <path d="M63.084 52.8c-.807 8.027-8.252 13.907-16.629 13.133-8.377-.773-14.514-7.906-13.707-15.946.807-8.027 8.251-13.907 16.629-13.134 8.377.774 14.514 7.907 13.707 15.947zm86.446.027c-.807 8.04-8.253 13.92-16.63 13.146-8.377-.773-14.513-7.906-13.707-15.946C120 42 127.444 36.12 135.821 36.893c8.378.774 14.515 7.907 13.708 15.934z" stroke="#231F20" stroke-width="5.333" stroke-linecap="round" stroke-linejoin="round"/>
        <path d="M177.167 76.827s-2.53.96-6.955 2.666c-2.243.814-5.135 1.614-8.37 2.627-3.251.987-6.922 1.773-10.937 2.773-2.021.387-4.126.8-6.306 1.214-2.182.4-4.43.893-6.766 1.186-2.33.347-4.725.694-7.173 1.054-2.445.4-4.967.533-7.519.813-2.557.227-5.149.587-7.786.707-2.636.146-5.303.306-7.992.466-2.688.214-5.403.2-8.127.267-2.748.04-5.405.173-8.248.133-2.708-.066-5.416-.12-8.113-.186-1.35-.027-2.697-.054-4.04-.094a409.58 409.58 0 0 1-4.07-.253c-2.701-.16-5.382-.32-8.03-.493-2.63-.254-5.229-.52-7.784-.774-5.119-.413-10.02-1.306-14.68-1.973-2.335-.32-4.574-.867-6.756-1.267-2.175-.453-4.287-.813-6.296-1.293-2.001-.507-3.92-.987-5.744-1.453-1.82-.48-3.557-.867-5.152-1.427-3.2-1.067-6.016-1.867-8.281-2.747a6382.344 6382.344 0 0 0-7.078-2.866 2.664 2.664 0 0 1-1.466-3.467 2.66 2.66 0 0 1 3.377-1.507l.214.08 6.82 2.494c2.176.773 4.926 1.48 8.018 2.413 1.537.493 3.24.827 5.013 1.24 1.773.413 3.638.853 5.584 1.307 1.953.426 4.02.746 6.142 1.146 2.132.36 4.307.854 6.595 1.12 4.564.587 9.35 1.347 14.361 1.747 2.5.24 5.04.48 7.612.72 2.57.147 5.17.293 7.791.44 1.31.08 2.626.147 3.945.227 1.34.026 2.686.04 4.034.066 2.697.054 5.405.094 8.113.134 2.574.04 5.334-.067 7.98-.094 2.67-.053 5.335-.026 7.967-.213 2.635-.147 5.25-.28 7.832-.413 2.587-.107 5.119-.44 7.621-.64 5.012-.4 9.815-1.067 14.378-1.654 2.29-.253 4.478-.68 6.61-1.04l6.158-1.08c1.952-.44 3.822-.853 5.6-1.253 1.772-.4 3.5-.707 5.018-1.173 3.088-.88 5.774-1.534 8.008-2.267 4.483-1.547 7.044-2.427 7.044-2.427h.01a2.66 2.66 0 0 1 3.389 1.654 2.677 2.677 0 0 1-1.565 3.36" fill="#231F20" fill-rule="nonzero"/>
    </g>
</svg>
