<?xml version="1.0" encoding="UTF-8" standalone="no"?>
<svg
   xmlns:dc="http://purl.org/dc/elements/1.1/"
   xmlns:cc="http://creativecommons.org/ns#"
   xmlns:rdf="http://www.w3.org/1999/02/22-rdf-syntax-ns#"
   xmlns:svg="http://www.w3.org/2000/svg"
   xmlns="http://www.w3.org/2000/svg"
   id="svg114"
   version="1.1"
   height="180.56"
   width="256.86041">
  <metadata
     id="metadata120">
    <rdf:RDF>
      <cc:Work
         rdf:about="">
        <dc:format>image/svg+xml</dc:format>
        <dc:type
           rdf:resource="http://purl.org/dc/dcmitype/StillImage" />
        <dc:title>
        poka-single
    </dc:title>
      </cc:Work>
    </rdf:RDF>
  </metadata>
  <defs
     id="defs118" />
  <title
     id="title100">
        poka-single
    </title>
  <g
     style="fill:none;fill-rule:evenodd"
     transform="rotate(-90,89.99021,90.75629)"
     id="g112">
    <path
       style="fill:#ffffff;fill-rule:nonzero"
       id="path102"
       d="M 3.907,82.693 C 3.907,39.813 51,-0.133 98.8,4.467 c 47.8,4.6 78.213,41.88 78.213,94.893 0,53.013 0.4,111.467 0.4,111.467 0,24 -19.466,43.466 -43.466,43.466 h -86.96 c -24.014,0 -43.467,-19.466 -43.467,-43.466 0,0 0.387,-85.267 0.387,-128.134" />
    <path
       style="stroke:#231f20;stroke-width:6.66699982"
       id="path104"
       d="M 3.907,82.693 C 3.907,39.813 51,-0.133 98.8,4.467 c 47.8,4.6 78.213,41.88 78.213,94.893 0,53.013 0.4,111.467 0.4,111.467 0,24 -19.466,43.466 -43.466,43.466 h -86.96 c -24.014,0 -43.467,-19.466 -43.467,-43.466 0,0 0.387,-85.267 0.387,-128.134 z" />
    <path
       style="fill:#231f20;fill-rule:nonzero"
       id="path106"
       d="m 69.44,6.453 c 0,0 0.787,1.014 2.16,2.76 0.347,0.467 0.747,0.88 1.133,1.52 0.387,0.627 0.8,1.307 1.254,2.027 0.426,0.72 0.92,1.493 1.386,2.32 0.4,0.827 0.814,1.707 1.24,2.627 0.947,1.8 1.6,3.88 2.387,6.053 0.427,1.067 0.64,2.227 0.973,3.387 0.294,1.173 0.667,2.346 0.854,3.573 0.226,1.227 0.453,2.467 0.693,3.733 0.2,1.254 0.32,2.534 0.48,3.827 0.08,0.64 0.147,1.293 0.227,1.933 l 0.12,1.96 c 0.08,1.294 0.2,2.614 0.226,3.92 0.067,2.6 0.134,5.214 0.04,7.774 0,2.573 -0.173,5.066 -0.28,7.493 -0.16,2.413 -0.306,4.76 -0.506,6.96 l -0.56,6.187 C 80.52,82.12 80.027,87.2 80.027,87.2 l -0.014,0.027 a 3.335,3.335 0 0 1 -3.64,3 C 74.547,90.04 73.2,88.413 73.387,86.587 v -0.054 c 0,0 0.586,-5.08 1.453,-12.693 0.2,-1.893 0.427,-3.933 0.653,-6.107 0.227,-2.16 0.414,-4.44 0.614,-6.786 0.133,-2.347 0.346,-4.787 0.386,-7.24 0.12,-2.467 0.094,-4.96 0.094,-7.454 -0.014,-1.24 -0.107,-2.48 -0.16,-3.706 L 76.333,40.693 76.16,38.88 c -0.133,-1.2 -0.227,-2.413 -0.4,-3.587 -0.187,-1.16 -0.387,-2.32 -0.573,-3.453 -0.16,-1.147 -0.494,-2.213 -0.734,-3.28 C 74.16,27.507 74,26.427 73.627,25.453 72.933,23.493 72.387,21.587 71.573,19.987 71.2,19.16 70.84,18.373 70.507,17.627 70.12,16.933 69.733,16.293 69.373,15.693 c -0.346,-0.613 -0.68,-1.186 -0.986,-1.72 -0.28,-0.52 -0.747,-1.026 -1.054,-1.466 -1.346,-1.774 -2.12,-2.8 -2.12,-2.8 a 2.674,2.674 0 0 1 0.52,-3.734 2.674,2.674 0 0 1 3.707,0.48 M 93.573,3.907 c 0,0 0.814,1.04 2.24,2.853 0.347,0.48 0.774,0.907 1.16,1.56 0.4,0.653 0.84,1.347 1.294,2.093 0.453,0.76 0.96,1.547 1.44,2.4 0.413,0.867 0.84,1.774 1.28,2.72 0.973,1.854 1.653,4 2.466,6.254 0.44,1.106 0.654,2.306 1,3.506 0.307,1.2 0.694,2.427 0.88,3.694 0.24,1.266 0.48,2.546 0.72,3.853 0.2,1.293 0.32,2.613 0.494,3.947 l 0.24,2.013 0.12,2.013 c 0.08,1.347 0.213,2.707 0.24,4.054 0.053,2.706 0.12,5.413 0.04,8.053 -0.014,2.653 -0.187,5.24 -0.294,7.747 -0.173,2.493 -0.32,4.92 -0.533,7.2 -0.2,2.266 -0.4,4.426 -0.587,6.413 C 105,82.147 104.48,87.4 104.48,87.4 v 0.04 a 3.3295472,3.3295472 0 1 1 -6.627,-0.653 v -0.054 c 0,0 0.6,-5.253 1.507,-13.133 0.2,-1.947 0.427,-4.067 0.667,-6.32 0.24,-2.24 0.426,-4.587 0.626,-7.027 0.147,-2.44 0.36,-4.96 0.414,-7.506 0.12,-2.547 0.093,-5.12 0.08,-7.707 0,-1.293 -0.107,-2.573 -0.16,-3.853 l -0.094,-1.907 c -0.066,-0.627 -0.12,-1.253 -0.186,-1.88 -0.147,-1.253 -0.24,-2.507 -0.414,-3.72 -0.2,-1.2 -0.4,-2.4 -0.6,-3.573 -0.16,-1.187 -0.506,-2.294 -0.76,-3.414 C 98.64,25.6 98.467,24.48 98.08,23.48 97.36,21.453 96.787,19.48 95.947,17.813 95.56,16.96 95.187,16.147 94.84,15.36 94.44,14.64 94.027,13.987 93.667,13.347 93.307,12.72 92.96,12.12 92.64,11.573 92.333,11.027 91.867,10.507 91.547,10.053 l -2.2,-2.893 c -0.88,-1.173 -0.654,-2.853 0.52,-3.733 a 2.661,2.661 0 0 1 3.706,0.48" />
    <path
       style="stroke:#231f20;stroke-width:5.33300018;stroke-linecap:round;stroke-linejoin:round"
       id="path108"
       d="M 62.413,53.44 C 61.6,61.48 54.16,67.36 45.787,66.587 37.4,65.813 31.267,58.68 32.08,50.64 32.88,42.613 40.333,36.733 48.707,37.507 57.08,38.28 63.213,45.413 62.413,53.44 Z m 86.44,0.04 c -0.8,8.04 -8.253,13.92 -16.626,13.147 -8.374,-0.774 -14.507,-7.907 -13.707,-15.947 0.813,-8.027 8.253,-13.92 16.627,-13.147 8.373,0.774 14.52,7.92 13.706,15.947 z" />
    <path
       style="fill:#231f20;fill-rule:nonzero"
       id="path110"
       d="m 176.493,77.467 c 0,0 -2.533,0.973 -6.96,2.68 -2.24,0.813 -5.133,1.613 -8.36,2.626 -3.253,0.987 -6.92,1.774 -10.946,2.774 -2.014,0.386 -4.12,0.786 -6.294,1.213 -2.186,0.4 -4.44,0.893 -6.773,1.187 -2.333,0.346 -4.72,0.693 -7.173,1.053 -2.44,0.387 -4.96,0.533 -7.52,0.813 -2.56,0.227 -5.147,0.574 -7.787,0.694 -2.627,0.16 -5.307,0.32 -7.987,0.48 -2.693,0.213 -5.4,0.186 -8.133,0.266 -2.747,0.04 -5.4,0.174 -8.24,0.134 C 87.613,91.32 84.893,91.267 82.2,91.2 80.853,91.173 79.507,91.133 78.16,91.107 76.8,91.027 75.44,90.933 74.093,90.853 71.387,90.693 68.707,90.533 66.067,90.36 63.427,90.107 60.84,89.84 58.28,89.587 53.16,89.173 48.253,88.267 43.6,87.6 41.267,87.293 39.027,86.747 36.84,86.347 34.667,85.893 32.56,85.533 30.547,85.053 28.547,84.547 26.627,84.067 24.8,83.6 22.987,83.12 21.24,82.72 19.653,82.16 16.453,81.107 13.64,80.307 11.373,79.427 6.867,77.6 4.293,76.56 4.293,76.56 2.933,76 2.267,74.453 2.827,73.093 3.36,71.76 4.867,71.093 6.2,71.587 l 0.213,0.08 6.827,2.493 c 2.173,0.773 4.92,1.467 8.013,2.413 1.534,0.494 3.24,0.827 5.014,1.24 1.773,0.414 3.64,0.854 5.586,1.307 1.947,0.427 4.014,0.747 6.147,1.147 2.12,0.36 4.307,0.853 6.587,1.12 4.56,0.586 9.346,1.346 14.36,1.746 2.506,0.24 5.04,0.48 7.613,0.72 2.573,0.147 5.173,0.294 7.787,0.44 1.32,0.067 2.626,0.147 3.946,0.227 1.347,0.013 2.694,0.04 4.04,0.067 2.694,0.053 5.4,0.093 8.107,0.133 2.573,0.027 5.333,-0.067 7.987,-0.093 2.666,-0.054 5.333,-0.027 7.96,-0.214 2.64,-0.146 5.253,-0.28 7.84,-0.426 2.586,-0.094 5.12,-0.427 7.613,-0.64 5.013,-0.387 9.813,-1.054 14.387,-1.64 2.28,-0.254 4.48,-0.694 6.6,-1.04 2.133,-0.374 4.186,-0.747 6.16,-1.094 1.96,-0.426 3.826,-0.84 5.6,-1.24 1.773,-0.413 3.506,-0.706 5.026,-1.173 3.08,-0.893 5.774,-1.533 8,-2.267 l 7.054,-2.426 v -0.014 c 1.4,-0.466 2.92,0.267 3.4,1.667 a 2.662,2.662 0 0 1 -1.574,3.347" />
  </g>
</svg>
