<svg width="181" height="258" xmlns="http://www.w3.org/2000/svg">
    <title>
        poka-single
    </title>
    <g fill="none" fill-rule="evenodd">
        <path d="M3.907 82.693C3.907 39.813 51-.133 98.8 4.467c47.8 4.6 78.213 41.88 78.213 94.893s.4 111.467.4 111.467c0 24-19.466 43.466-43.466 43.466h-86.96c-24.014 0-43.467-19.466-43.467-43.466 0 0 .387-85.267.387-128.134" fill="#FFF" fill-rule="nonzero"/>
        <path d="M3.907 82.693C3.907 39.813 51-.133 98.8 4.467c47.8 4.6 78.213 41.88 78.213 94.893s.4 111.467.4 111.467c0 24-19.466 43.466-43.466 43.466h-86.96c-24.014 0-43.467-19.466-43.467-43.466 0 0 .387-85.267.387-128.134z" stroke="#231F20" stroke-width="6.667"/>
        <path d="M69.44 6.453s.787 1.014 2.16 2.76c.347.467.747.88 1.133 1.52.387.627.8 1.307 1.254 2.027.426.72.92 1.493 1.386 2.32.4.827.814 1.707 1.24 2.627.947 1.8 1.6 3.88 2.387 6.053.427 1.067.64 2.227.973 3.387.294 1.173.667 2.346.854 3.573.226 1.227.453 2.467.693 3.733.2 1.254.32 2.534.48 3.827.08.64.147 1.293.227 1.933l.12 1.96c.08 1.294.2 2.614.226 3.92.067 2.6.134 5.214.04 7.774 0 2.573-.173 5.066-.28 7.493-.16 2.413-.306 4.76-.506 6.96l-.56 6.187c-.747 7.613-1.24 12.693-1.24 12.693l-.014.027a3.335 3.335 0 0 1-3.64 3c-1.826-.187-3.173-1.814-2.986-3.64v-.054s.586-5.08 1.453-12.693c.2-1.893.427-3.933.653-6.107.227-2.16.414-4.44.614-6.786.133-2.347.346-4.787.386-7.24.12-2.467.094-4.96.094-7.454-.014-1.24-.107-2.48-.16-3.706l-.094-1.854-.173-1.813c-.133-1.2-.227-2.413-.4-3.587-.187-1.16-.387-2.32-.573-3.453-.16-1.147-.494-2.213-.734-3.28-.293-1.053-.453-2.133-.826-3.107-.694-1.96-1.24-3.866-2.054-5.466-.373-.827-.733-1.614-1.066-2.36-.387-.694-.774-1.334-1.134-1.934-.346-.613-.68-1.186-.986-1.72-.28-.52-.747-1.026-1.054-1.466-1.346-1.774-2.12-2.8-2.12-2.8a2.674 2.674 0 0 1 .52-3.734 2.674 2.674 0 0 1 3.707.48m24.133-2.546s.814 1.04 2.24 2.853c.347.48.774.907 1.16 1.56.4.653.84 1.347 1.294 2.093.453.76.96 1.547 1.44 2.4.413.867.84 1.774 1.28 2.72.973 1.854 1.653 4 2.466 6.254.44 1.106.654 2.306 1 3.506.307 1.2.694 2.427.88 3.694.24 1.266.48 2.546.72 3.853.2 1.293.32 2.613.494 3.947l.24 2.013.12 2.013c.08 1.347.213 2.707.24 4.054.053 2.706.12 5.413.04 8.053-.014 2.653-.187 5.24-.294 7.747-.173 2.493-.32 4.92-.533 7.2-.2 2.266-.4 4.426-.587 6.413-.773 7.867-1.293 13.12-1.293 13.12v.04a3.328 3.328 0 1 1-6.627-.653v-.054s.6-5.253 1.507-13.133c.2-1.947.427-4.067.667-6.32.24-2.24.426-4.587.626-7.027.147-2.44.36-4.96.414-7.506.12-2.547.093-5.12.08-7.707 0-1.293-.107-2.573-.16-3.853l-.094-1.907c-.066-.627-.12-1.253-.186-1.88-.147-1.253-.24-2.507-.414-3.72-.2-1.2-.4-2.4-.6-3.573-.16-1.187-.506-2.294-.76-3.414-.293-1.093-.466-2.213-.853-3.213-.72-2.027-1.293-4-2.133-5.667-.387-.853-.76-1.666-1.107-2.453-.4-.72-.813-1.373-1.173-2.013-.36-.627-.707-1.227-1.027-1.774-.307-.546-.773-1.066-1.093-1.52l-2.2-2.893c-.88-1.173-.654-2.853.52-3.733a2.661 2.661 0 0 1 3.706.48" fill="#231F20" fill-rule="nonzero"/>
        <path d="M62.413 53.44c-.813 8.04-8.253 13.92-16.626 13.147-8.387-.774-14.52-7.907-13.707-15.947.8-8.027 8.253-13.907 16.627-13.133 8.373.773 14.506 7.906 13.706 15.933zm86.44.04c-.8 8.04-8.253 13.92-16.626 13.147-8.374-.774-14.507-7.907-13.707-15.947.813-8.027 8.253-13.92 16.627-13.147 8.373.774 14.52 7.92 13.706 15.947z" stroke="#231F20" stroke-width="5.333" stroke-linecap="round" stroke-linejoin="round"/>
        <path d="M176.493 77.467s-2.533.973-6.96 2.68c-2.24.813-5.133 1.613-8.36 2.626-3.253.987-6.92 1.774-10.946 2.774-2.014.386-4.12.786-6.294 1.213-2.186.4-4.44.893-6.773 1.187-2.333.346-4.72.693-7.173 1.053-2.44.387-4.96.533-7.52.813-2.56.227-5.147.574-7.787.694-2.627.16-5.307.32-7.987.48-2.693.213-5.4.186-8.133.266-2.747.04-5.4.174-8.24.134-2.707-.067-5.427-.12-8.12-.187-1.347-.027-2.693-.067-4.04-.093-1.36-.08-2.72-.174-4.067-.254-2.706-.16-5.386-.32-8.026-.493-2.64-.253-5.227-.52-7.787-.773-5.12-.414-10.027-1.32-14.68-1.987-2.333-.307-4.573-.853-6.76-1.253-2.173-.454-4.28-.814-6.293-1.294-2-.506-3.92-.986-5.747-1.453-1.813-.48-3.56-.88-5.147-1.44-3.2-1.053-6.013-1.853-8.28-2.733-4.506-1.827-7.08-2.867-7.08-2.867-1.36-.56-2.026-2.107-1.466-3.467.533-1.333 2.04-2 3.373-1.506l.213.08 6.827 2.493c2.173.773 4.92 1.467 8.013 2.413 1.534.494 3.24.827 5.014 1.24 1.773.414 3.64.854 5.586 1.307 1.947.427 4.014.747 6.147 1.147 2.12.36 4.307.853 6.587 1.12 4.56.586 9.346 1.346 14.36 1.746 2.506.24 5.04.48 7.613.72 2.573.147 5.173.294 7.787.44 1.32.067 2.626.147 3.946.227 1.347.013 2.694.04 4.04.067 2.694.053 5.4.093 8.107.133 2.573.027 5.333-.067 7.987-.093 2.666-.054 5.333-.027 7.96-.214 2.64-.146 5.253-.28 7.84-.426 2.586-.094 5.12-.427 7.613-.64 5.013-.387 9.813-1.054 14.387-1.64 2.28-.254 4.48-.694 6.6-1.04 2.133-.374 4.186-.747 6.16-1.094 1.96-.426 3.826-.84 5.6-1.24 1.773-.413 3.506-.706 5.026-1.173 3.08-.893 5.774-1.533 8-2.267l7.054-2.426v-.014c1.4-.466 2.92.267 3.4 1.667a2.662 2.662 0 0 1-1.574 3.347" fill="#231F20" fill-rule="nonzero"/>
    </g>
</svg>
