<svg width="180" height="51" xmlns="http://www.w3.org/2000/svg">
    <title>
        question-single
    </title>
    <g fill="none" fill-rule="evenodd">
        <path d="M176.332 25.133c0 12.24-9.925 22.16-22.165 22.16H25.173c-12.256 0-22.181-9.92-22.181-22.16S12.917 2.96 25.172 2.96h128.995c12.24 0 22.165 9.933 22.165 22.173" fill="#FFF" fill-rule="nonzero"/>
        <path d="M173.61 25.133s-.015-.346-.063-1c-.015-.333 0-.746-.063-1.227-.08-.48-.159-1.04-.254-1.666-.159-.615-.302-1.32-.54-2.067-.27-.733-.492-1.56-.936-2.387-.778-1.68-1.905-3.52-3.587-5.227a19.402 19.402 0 0 0-6.492-4.439c-1.317-.508-2.825-1-4.253-1.201-.365-.053-.73-.12-1.08-.173-.46-.026-.904-.053-1.364-.067l-.699-.04-.174-.012h.063-1.841c-7.57 0-16.094-.015-25.41-.027-18.618 0-40.346-.015-63.614-.015-11.65.015-23.68.027-35.901.042l-2.27.012-2.031.121c-.651.12-1.318.2-1.984.333-.667.186-1.318.32-1.953.546a19.278 19.278 0 0 0-6.92 4.08 18.918 18.918 0 0 0-4.666 6.56c-.301.6-.46 1.267-.714 1.894-.19.627-.318 1.294-.492 1.948l-.27 1.852-.095 2.307c.016-.253 0 0 .016-.028v.135l.016.252.031.494.064 1.014c.143.652.222 1.319.349 1.973.206.64.333 1.293.555 1.92.254.613.429 1.267.746 1.853 1.127 2.414 2.778 4.56 4.746 6.32a19.03 19.03 0 0 0 6.809 3.867c.619.2 1.27.32 1.889.493l1.777.28 2.286.107h2.11l35.902-.08 33.537-.04c10.682.026 20.76.053 30.077.066 9.316.027 17.84.041 25.41.054.937 0 1.936.012 2.65-.027.382-.013.778-.027 1.16-.053.38-.054.745-.108 1.126-.16 1.492-.187 2.873-.64 4.174-1.12a19.332 19.332 0 0 0 6.444-4.175 18.031 18.031 0 0 0 3.698-5.039c.445-.8.699-1.627.984-2.333.238-.746.413-1.44.588-2.04.095-.587.19-1.093.27-1.547.079-.44.079-.986.11-1.333.048-.746.08-1.146.08-1.146v.146zm5.46.133l-.047 1.148c-.016.385 0 .785-.08 1.44a86.331 86.331 0 0 1-.3 2.266c-.191.8-.382 1.693-.667 2.666-.35.946-.651 2.014-1.19 3.08a24.035 24.035 0 0 1-4.508 6.815c-2.111 2.252-4.889 4.412-8.333 5.905-1.746.694-3.603 1.32-5.618 1.64-.492.08-1 .16-1.508.24-.524.04-1.048.067-1.556.107-1.127.08-1.984.053-2.936.067-7.57.013-16.094.026-25.41.053-9.317.013-19.395.04-30.077.053l-33.537-.04c-11.65-.013-23.68-.04-35.901-.066l-2.444-.014-2.334-.146c-.92-.133-1.857-.253-2.761-.44-.841-.24-1.714-.427-2.556-.708A25.529 25.529 0 0 1 8.23 44a25.145 25.145 0 0 1-6.127-8.56c-.396-.799-.634-1.653-.936-2.48-.27-.84-.444-1.719-.65-2.573-.175-.866-.27-1.747-.398-2.614l-.063-1.319-.032-.666v-.494c0-.12-.016.04-.016-.32l.16-2.334c.142-.906.269-1.852.443-2.745.254-.842.429-1.708.73-2.535.318-.813.572-1.652.969-2.44a25.5 25.5 0 0 1 6.22-8.334 24.966 24.966 0 0 1 8.952-5.118c.825-.267 1.666-.441 2.508-.654.84-.16 1.714-.267 2.555-.387.841-.067 1.714-.092 2.571-.12h2.286l35.901.04C86.571.334 108.3.334 126.917.334c9.316-.015 17.84-.027 25.41-.042h1.762l.476.027.682.027 1.365.08c.524.066 1.048.147 1.572.227 2.063.306 3.809.893 5.539 1.56 3.38 1.412 6.142 3.48 8.253 5.64a23.93 23.93 0 0 1 4.635 6.627c.555 1.052.873 2.106 1.238 3.04.285.96.508 1.853.698 2.639.143.8.238 1.52.333 2.134.096.613.096 1.146.127 1.56.048.84.064 1.28.064 1.28v.133z" fill="#231F20" fill-rule="nonzero"/>
        <path d="M36.87 31.2c0 2.601-3 4.707-6.69 4.707-3.705 0-6.69-2.106-6.69-4.707 0-2.6 1.905-3.892 6.69-6.066 4.785-2.173 6.69-3.48 6.69-6.067 0-2.6-3-4.706-6.69-4.706-3.705 0-6.69 2.107-6.69 4.706M155.838 31.2c0 2.6-3.004 4.707-6.7 4.707-3.681 0-6.686-2.107-6.686-4.707 0-2.6 1.904-3.893 6.685-6.067 4.798-2.174 6.7-3.48 6.7-6.067 0-2.6-3.003-4.706-6.7-4.706-3.68 0-6.685 2.106-6.685 4.706" stroke="#231F20" stroke-width="4" stroke-linecap="round" stroke-linejoin="round"/>
        <path d="M87.602 3.36l-.659 44.013a2.67 2.67 0 0 1-2.71 2.628 2.65 2.65 0 0 1-2.633-2.707v-.08l2.006-43.973a1.991 1.991 0 0 1 2.097-1.906c1.072.04 1.914.946 1.899 2.025m9.125-.12l2 43.974A2.67 2.67 0 0 1 96.172 50a2.65 2.65 0 0 1-2.768-2.545c0-.014-.015-.054-.015-.082L92.728 3.36a1.99 1.99 0 0 1 1.969-2.025c1.077-.028 1.968.826 2.03 1.905" fill="#231F20" fill-rule="nonzero"/>
        <path d="M50.675 47.292v-1.826c0-9.293 7.545-16.84 16.843-16.84h6.326L76.51 3.293m53.16 44v-1.827c0-9.293-7.534-16.84-16.829-16.84h-6.336l-2.678-25.334" stroke="#231F20" stroke-width="5.333" stroke-linecap="round" stroke-linejoin="round"/>
    </g>
</svg>
