<svg width="375" height="51" xmlns="http://www.w3.org/2000/svg">
    <title>
        question-double
    </title>
    <g fill="none" fill-rule="evenodd">
        <path d="M372.176 24.907c0 12.24-9.923 22.16-22.182 22.16H25.336c-12.243 0-22.182-9.92-22.182-22.16s9.94-22.174 22.182-22.174h324.658c12.26 0 22.182 9.933 22.182 22.174" fill="#FFF" fill-rule="nonzero"/>
        <path d="M369.446 24.906s0-.173-.017-.506c0-.334-.016-.827-.082-1.48-.132-1.294-.412-3.24-1.4-5.587a19.356 19.356 0 0 0-5.502-7.453c-2.8-2.36-6.885-4.254-11.563-4.454-21.562-.013-52.331-.027-89.278-.053-36.963-.014-80.086-.014-126.306-.027-23.094.013-46.978.027-71.224.027-12.14.013-24.362.013-36.634.026h-2.29c-.658.014-1.35.054-2.009.134-1.35.147-2.685.44-3.953.866-2.553.88-4.909 2.32-6.885 4.147-3.97 3.72-6.243 8.934-6.144 14.44.065 2.52.675 5.254 1.795 7.614a18.943 18.943 0 0 0 4.71 6.266c1.961 1.72 4.25 3.093 6.721 3.907 1.252.414 2.52.693 3.822.84.33.053.593.053.906.08.296.027.741.027 1.103.04H350.8a19.54 19.54 0 0 0 11.366-4.147 19.089 19.089 0 0 0 7.132-12.706c.033-.294.05-.56.083-.787.033-.24.033-.507.033-.68.016-.387.033-.573.033-.573v.066zm5.468.067v.573c-.016.2 0 .4-.016.734-.017.333-.033.72-.066 1.16-.165 1.666-.51 4.173-1.713 7.226a25.64 25.64 0 0 1-6.984 9.707c-3.575 3.133-8.83 5.693-15.056 6-10.822.014-23.95.014-39.021.027H25.052c-.412-.013-.725-.013-1.203-.04-.46-.04-.955-.054-1.383-.12a25.625 25.625 0 0 1-5.172-1.134c-3.36-1.12-6.507-2.933-9.093-5.347C3.012 38.92.015 31.987.163 24.826c.05-3.333.823-6.933 2.273-10.067 1.433-3.173 3.558-6.013 6.127-8.32a24.994 24.994 0 0 1 8.945-5.093 24.162 24.162 0 0 1 7.61-1.253L27.44.08c12.272.013 24.494.013 36.634.026 24.246 0 48.13.014 71.224.027C181.518.12 224.641.12 261.604.106c36.996 0 67.831 0 89.41-.013 6.16.266 11.233 2.693 14.824 5.693 3.608 3.013 5.815 6.48 7.083 9.454 1.252 2.987 1.68 5.48 1.861 7.133.066.84.116 1.467.116 1.893.016.427.016.64.016.64v.067z" fill="#231F20" fill-rule="nonzero"/>
        <path d="M40.83 33.64c0 2.6-2.986 4.707-6.678 4.707-3.692 0-6.692-2.107-6.692-4.707 0-2.586 1.904-3.893 6.692-6.066 4.788-2.174 6.677-3.467 6.677-6.067S37.844 16.8 34.152 16.8c-3.692 0-6.692 2.107-6.692 4.707M347.856 33.64c0 2.6-2.984 4.707-6.685 4.707-3.702 0-6.686-2.107-6.686-4.707 0-2.586 1.908-3.893 6.686-6.066 4.794-2.174 6.685-3.467 6.685-6.067s-2.984-4.707-6.685-4.707c-3.702 0-6.686 2.107-6.686 4.707" stroke="#231F20" stroke-width="4" stroke-linecap="round" stroke-linejoin="round"/>
        <path d="M180.023 3.133l-.657 44.027c-.016 1.466-1.238 2.64-2.72 2.627-1.466-.027-2.627-1.24-2.627-2.72 0-.014 0-.054.015-.08l2.001-43.974a1.994 1.994 0 0 1 2.078-1.906c1.085.053 1.94.947 1.91 2.026m19.286-.12l2.003 43.974a2.673 2.673 0 0 1-2.558 2.786 2.653 2.653 0 0 1-2.773-2.533v-.08l-.678-44.027a2.003 2.003 0 0 1 1.972-2.026 2.015 2.015 0 0 1 2.034 1.906" fill="#231F20" fill-rule="nonzero"/>
        <path d="M117.797 47.066V45.24c0-9.293 7.542-16.84 16.83-16.84h6.337l2.664-25.334m113.926 44V45.24c0-9.294-7.545-16.84-16.839-16.84h-6.332l-2.662-25.334" stroke="#231F20" stroke-width="5.333" stroke-linecap="round" stroke-linejoin="round"/>
    </g>
</svg>
