<svg width="180" height="335" xmlns="http://www.w3.org/2000/svg">
    <title>
        sama-vertical
    </title>
    <g fill="none" fill-rule="evenodd">
        <path d="M105.925 9.747c11.416-2.054 20.692-5.494 31.73-5.494 15.69 0 23.602 8.907 23.602 19.894 0 10.986-8.438 19.893-23.602 19.893-10.626 0-17.302-4.893-29.055-7.813" fill="#FFF" fill-rule="nonzero"/>
        <path d="M105.415 7.12s.501-.107 1.444-.333c.929-.227 2.354-.507 4.042-.96 1.728-.454 3.827-.987 6.235-1.6 2.447-.627 5.235-1.347 8.365-1.96 1.591-.254 3.207-.64 4.959-.8.87-.107 1.755-.214 2.653-.32.904-.08 1.834-.107 2.77-.16.469-.027.941-.04 1.417-.067h.817l.68.027c.923.04 1.77.026 2.886.173 1.058.107 2.14.213 3.16.44.518.107 1.038.2 1.561.307l1.565.44c4.17 1.173 8.438 3.573 11.558 7.293 3.12 3.707 4.869 8.587 5.013 13.307l.036.893.01.213.005.12-.008.254-.018.386-.069 1.547c-.161 1.253-.319 2.587-.653 3.707-.6 2.333-1.558 4.613-2.924 6.6-2.659 4.04-6.651 6.933-10.746 8.506-4.104 1.64-8.277 2.214-12.12 2.227l-.361.013-.357-.013h-.164l-.658-.04a41.58 41.58 0 0 0-1.296-.093c-.854-.067-1.677-.094-2.664-.307-.937-.16-1.86-.333-2.765-.493-.863-.2-1.656-.44-2.461-.654-3.196-.893-5.864-2.013-8.218-2.933-1.154-.453-2.236-.88-3.236-1.28-.99-.373-1.9-.707-2.722-1.013-1.638-.654-2.948-.987-3.834-1.294-.888-.28-1.361-.44-1.361-.44l-.157-.053a2.656 2.656 0 0 1-1.723-3.347 2.68 2.68 0 0 1 3.168-1.773s.519.12 1.49.36c.96.267 2.43.533 4.191 1.093 1.8.507 3.912 1.227 6.307 2.054 2.363.786 4.99 1.733 7.77 2.426.694.174 1.417.374 2.123.52.68.094 1.375.2 2.08.307.65.147 1.523.173 2.388.2.43.027.863.04 1.299.053l.656.04.165.014h.124c-.364-.014-.08 0-.15 0l.3-.014c3.228-.04 6.582-.56 9.66-1.813 3.082-1.213 5.826-3.267 7.67-6 .955-1.347 1.61-2.907 2.043-4.533.261-.854.313-1.574.464-2.347l.079-1.547.02-.386.002-.054c.004-.16-.002.174-.002.12l-.004-.08-.01-.16-.033-.666c-.13-3.507-1.397-6.774-3.51-9.28-2.142-2.494-5.089-4.254-8.33-5.187l-1.208-.36-1.244-.24c-.833-.2-1.627-.267-2.416-.36-.728-.133-1.725-.133-2.617-.173l-.679-.027-.337-.013h.082-.118l-.159.013-1.256.04c-.832.027-1.652.027-2.463.067-.813.08-1.613.146-2.401.226-1.572.094-3.11.414-4.579.6a240.55 240.55 0 0 0-8.134 1.574c-2.45.52-4.615.973-6.448 1.306-1.826.36-3.196.534-4.159.707-.953.16-1.463.24-1.463.24a2.662 2.662 0 0 1-3.061-2.2 2.689 2.689 0 0 1 2.039-3.04" fill="#231F20" fill-rule="nonzero"/>
        <path d="M70.788 36.4c-11.403 2.933-18.093 7.64-28.335 7.64-14.9 0-23.601-8.907-23.601-19.893 0-10.987 11.207-19.894 23.601-19.894 8.77 0 19.058 3.48 31.331 5.52" fill="#FFF" fill-rule="nonzero"/>
        <path d="M71.524 38.96s-.484.16-1.39.453c-.877.307-2.3.694-3.846 1.334-.796.293-1.677.626-2.637 1-.988.386-2.056.8-3.198 1.253-2.326.92-4.964 2.013-8.129 2.867-.795.2-1.58.466-2.43.626-.853.16-1.722.32-2.606.48-.879.187-1.807.187-2.736.267-.465.04-.936.067-1.41.093l-.355.027-.178.013h-.305l-.652-.026-1.317-.04c-.43-.014-.887-.027-1.424-.107-1.015-.12-2.102-.173-3.082-.413-1.004-.2-2.02-.374-3.029-.707-.505-.147-1.016-.293-1.523-.467l-1.508-.586c-4.021-1.6-7.909-4.494-10.54-8.44-1.353-1.947-2.314-4.187-2.928-6.48-.344-1.147-.489-2.334-.66-3.507-.046-.587-.065-1.187-.094-1.773l-.02-.44-.008-.227.017-.4.045-.76.047-.76c.01-.133.01-.24.028-.387l.08-.493c.11-.653.23-1.32.363-1.973.358-1.16.673-2.347 1.212-3.427.453-1.12 1.101-2.12 1.704-3.133.7-.947 1.356-1.934 2.164-2.76 3.077-3.48 7.013-5.827 11.02-7.334C36.204 1.253 40.516.747 44.296 1c1.672.04 3.628.373 5.39.6 1.68.307 3.314.587 4.826.92 3.05.64 5.765 1.36 8.165 1.933 2.386.587 4.466 1.094 6.179 1.507 1.708.413 3.047.667 3.961.88l1.403.307.087.013a2.67 2.67 0 0 1 2.037 3.173 2.675 2.675 0 0 1-2.997 2.08s-.512-.08-1.471-.226c-.955-.147-2.377-.334-4.148-.64-3.561-.574-8.587-1.68-14.456-2.774-1.47-.293-2.976-.493-4.532-.733-1.503-.133-2.905-.387-4.732-.387-.436-.013-.875-.04-1.317-.053l-.332-.013h-.042.107-.072l-.145.013-.583.027c-.39.026-.783.04-1.177.053l-1.182.173c-1.589.2-3.172.64-4.738 1.187-3.087 1.2-6.091 3.027-8.342 5.547-.606.6-1.052 1.306-1.572 1.96-.408.72-.89 1.413-1.186 2.173-.39.733-.575 1.533-.836 2.293-.059.347-.128.68-.208 1.027l-.063.253c-.017.107-.02.254-.03.374l-.05.76-.05.76-.006.093-.004.04c-.007.213.005-.213.007-.16l.009.16.019.32.072 1.267c.14.826.229 1.666.485 2.453.439 1.6 1.096 3.133 2.044 4.453.928 1.347 2.02 2.574 3.337 3.534.604.546 1.35.92 2.011 1.386.747.347 1.421.8 2.205 1.067l1.135.467c.388.133.787.226 1.175.346.769.267 1.581.414 2.374.574.804.213 1.543.213 2.3.346.194.014.366.054.574.067l.664.027c.442.013.881.04 1.317.053l.652.027h-.09.037l.073-.014h.145l.291-.026c.385-.014.77-.027 1.15-.054.76-.04 1.515 0 2.249-.146.736-.12 1.46-.227 2.17-.32.714-.12 1.414-.334 2.1-.494 2.738-.653 5.326-1.586 7.652-2.36 1.184-.4 2.292-.773 3.316-1.12 1.039-.346 2.05-.64 2.934-.906 1.802-.574 3.108-.827 4.048-1.08l1.417-.347a2.662 2.662 0 0 1 3.235 1.933 2.676 2.676 0 0 1-1.763 3.187" fill="#231F20" fill-rule="nonzero"/>
        <path d="M36.108 22.853s7.112 3.254 15.732 3.254" fill="#FFF" fill-rule="nonzero"/>
        <path d="M37.18 20.413s.213.094.587.267c.333.16.873.387 1.536.653a40.188 40.188 0 0 0 4.996 1.6c.465.12.93.227 1.389.334.457.133.915.186 1.356.266.883.12 1.708.334 2.42.36a190.5 190.5 0 0 1 2.376.214l.187.013a1.993 1.993 0 0 1 1.812 2.16 2.013 2.013 0 0 1-1.999 1.827s-1.067-.014-2.67-.014c-.807.027-1.726-.12-2.725-.186-.497-.04-1.018-.067-1.532-.16l-1.57-.24a46.948 46.948 0 0 1-5.716-1.334 25.705 25.705 0 0 1-1.896-.626c-.443-.16-.695-.254-.695-.254a2.676 2.676 0 0 1-1.57-3.44 2.667 2.667 0 0 1 3.433-1.56c.068.014.132.04.196.08l.085.04" fill="#231F20" fill-rule="nonzero"/>
        <path d="M144 22.813s-7.273 3.32-16.09 3.32" fill="#FFF" fill-rule="nonzero"/>
        <path d="M145.072 25.253s-.257.094-.71.267c-.491.187-1.151.4-1.935.64-.788.24-1.712.48-2.703.733-1.004.2-2.05.494-3.135.627-.537.08-1.074.173-1.604.253-.524.094-1.056.12-1.564.16-1.021.08-1.96.214-2.785.187-1.636.013-2.727.013-2.727.013a1.991 1.991 0 1 1-.193-3.973l.193-.027s.974-.08 2.435-.213c.728-.027 1.573-.227 2.479-.36.45-.08.92-.133 1.389-.267.47-.106.945-.226 1.423-.346.957-.187 1.884-.534 2.766-.787a53.029 53.029 0 0 0 2.351-.84c.679-.28 1.232-.507 1.575-.667.382-.173.602-.28.602-.28l.08-.04a2.672 2.672 0 0 1 3.55 1.294 2.67 2.67 0 0 1-1.291 3.546c-.063.027-.132.054-.196.08" fill="#231F20" fill-rule="nonzero"/>
        <path d="M176.087 81.32c0-23.76-19.26-43.013-43.016-43.013h-16.134c0-19.2-12.037-34.774-26.885-34.774S63.168 19.107 63.168 38.307h-16.13c-23.757 0-43.015 19.253-43.015 43.013v206.747c0 23.76 19.258 43.013 43.016 43.013h86.032c23.756 0 43.014-19.253 43.014-43.013V81.32h.002" fill="#FFF" fill-rule="nonzero"/>
        <path d="M176.087 81.32c0-23.76-19.26-43.013-43.016-43.013h-16.134c0-19.2-12.037-34.774-26.885-34.774S63.168 19.107 63.168 38.307h-16.13c-23.757 0-43.015 19.253-43.015 43.013v206.747c0 23.76 19.258 43.013 43.016 43.013h86.032c23.756 0 43.014-19.253 43.014-43.013V81.32h.002z" stroke="#231F20" stroke-width="6.667" stroke-linecap="round" stroke-linejoin="round"/>
        <path d="M117.795 5.987s.376.373 1.036 1.053c.329.347.73.747 1.189 1.227.467.426.957 1.133 1.51 1.786.523.694 1.198 1.414 1.709 2.24a531.66 531.66 0 0 0 1.681 2.587c.532.933 1.013 1.933 1.539 2.933.564.974.89 2.08 1.34 3.134.201.546.441 1.066.609 1.613l.467 1.64c.304 1.08.641 2.147.784 3.227.18 1.053.38 2.08.517 3.066l.196 2.774.084 1.24c-.013.413-.027.813-.037 1.186-.024.667-.044 1.24-.062 1.707l-.052 1.48a2.664 2.664 0 0 1-2.76 2.573 2.663 2.663 0 0 1-2.565-2.866l.11-1.48.126-1.694.07-.906c-.011-.334-.023-.707-.037-1.08-.022-.747-.046-1.574-.073-2.44-.088-.854-.233-1.76-.352-2.707-.081-.947-.35-1.88-.58-2.853-.116-.48-.233-.974-.35-1.467-.129-.48-.326-.947-.486-1.427-.365-.946-.603-1.946-1.076-2.826-.433-.894-.823-1.8-1.263-2.654-.488-.813-.96-1.6-1.408-2.36-.43-.773-.962-1.346-1.385-1.973-.467-.587-.775-1.147-1.263-1.64-.44-.48-.825-.907-1.141-1.267-.633-.693-.995-1.093-.995-1.093a2.002 2.002 0 0 1 .144-2.827c.8-.72 2.027-.68 2.774.094M49.79 38.76l-.049-1.453a540.23 540.23 0 0 0-.056-1.654l-.016-.506-.009-.254-.004-.133-.003-.067.002-.306.002-.027.08-1.133.179-2.56c.133-.96.324-2.014.503-3.08.144-1.094.47-2.12.761-3.187.148-.533.297-1.08.448-1.613.164-.534.392-1.054.587-1.574.43-1.04.746-2.12 1.288-3.08.504-.986.965-1.96 1.478-2.88.56-.88 1.102-1.733 1.615-2.546.495-.827 1.116-1.494 1.61-2.174.527-.64.947-1.28 1.438-1.76.465-.493.87-.92 1.204-1.28.668-.706 1.05-1.106 1.05-1.106.758-.8 2.022-.84 2.822-.08a2 2 0 0 1 .137 2.76l-.13.146s-.328.374-.903 1.04c-.287.334-.636.734-1.036 1.187-.425.44-.773 1.04-1.224 1.64-.415.613-.953 1.227-1.361 1.987-.43.733-.882 1.52-1.35 2.32-.422.84-.793 1.72-1.208 2.613-.453.867-.681 1.84-1.029 2.76-.153.48-.34.933-.465 1.413l-.334 1.427c-.218.947-.48 1.88-.549 2.76l-.335 2.56c-.026.907-.053 1.773-.077 2.56l-.036 1.133v.04l-.001.014V34.4v.013l.005.067.01.133.018.254.037.506c.047.64.087 1.2.122 1.654l.105 1.453a2.666 2.666 0 1 1-5.32.387 1.457 1.457 0 0 1-.005-.107" fill="#231F20" fill-rule="nonzero"/>
    </g>
</svg>
