<svg width="180" height="219" xmlns="http://www.w3.org/2000/svg">
    <title>
        sama-single
    </title>
    <g fill="none" fill-rule="evenodd">
        <path d="M105.987 10.4C117.4 8.347 126.68 4.907 137.72 4.907c15.68 0 23.6 8.906 23.6 19.893s-8.44 19.893-23.6 19.893c-10.627 0-17.307-4.893-29.067-7.813" fill="#FFF" fill-rule="nonzero"/>
        <path d="M105.48 7.773s.493-.106 1.44-.333c.933-.227 2.347-.507 4.04-.96 1.733-.453 3.827-.987 6.24-1.613 2.44-.614 5.227-1.334 8.36-1.947 1.587-.253 3.213-.64 4.96-.813.867-.094 1.76-.2 2.653-.307.907-.08 1.827-.107 2.774-.16.466-.027.933-.04 1.413-.067h.267l.213-.013.333.013.68.027c.92.04 1.774.027 2.894.173 1.053.107 2.133.214 3.16.44.52.107 1.04.2 1.56.307l1.56.44c4.173 1.173 8.44 3.573 11.56 7.293 3.12 3.707 4.866 8.574 5.013 13.307l.04.893v.214l.013.12-.013.253-.013.387-.067 1.546c-.16 1.254-.32 2.587-.653 3.707-.6 2.333-1.56 4.613-2.934 6.6-2.653 4.027-6.64 6.933-10.746 8.507-4.094 1.64-8.267 2.213-12.107 2.226l-.373.014-.347-.014-.173-.013-.654-.04c-.44-.027-.866-.053-1.293-.093-.853-.054-1.68-.094-2.667-.294-.933-.16-1.866-.333-2.76-.493-.866-.2-1.666-.44-2.466-.667-3.2-.88-5.867-2-8.214-2.92-1.16-.453-2.24-.88-3.24-1.28-.986-.373-1.906-.706-2.72-1.013-1.64-.653-2.946-.987-3.84-1.293-.88-.294-1.36-.44-1.36-.44l-.16-.054a2.658 2.658 0 0 1-1.72-3.346 2.67 2.67 0 0 1 3.174-1.774s.52.12 1.493.36c.96.267 2.427.534 4.187 1.094 1.8.506 3.906 1.226 6.306 2.04 2.36.8 4.987 1.746 7.774 2.44.693.16 1.413.373 2.12.506.68.107 1.373.214 2.08.32.653.147 1.52.174 2.386.2.427.014.867.04 1.294.054l.666.04h.16l.08.013h.04c-.36-.013-.08 0-.146-.013h.306c3.227-.04 6.574-.56 9.654-1.814 3.08-1.226 5.826-3.266 7.666-6 .96-1.346 1.614-2.906 2.04-4.533.267-.853.32-1.573.467-2.36l.08-1.533.027-.387v-.053.12l-.014-.08v-.174l-.04-.653c-.133-3.507-1.4-6.773-3.506-9.28-2.147-2.493-5.094-4.253-8.334-5.187l-1.2-.36-1.253-.24c-.827-.2-1.627-.266-2.413-.373-.72-.12-1.72-.12-2.614-.16l-.68-.027-.333-.013h.08-.12l-.16.013-1.253.04c-.84.027-1.654.014-2.467.067-.813.067-1.613.147-2.4.213-1.573.107-3.107.427-4.573.614a244.6 244.6 0 0 0-8.147 1.573c-2.44.52-4.613.973-6.44 1.293-1.827.374-3.2.547-4.16.72-.96.16-1.467.24-1.467.24a2.65 2.65 0 0 1-3.053-2.213c-.227-1.387.68-2.707 2.04-3.027" fill="#231F20" fill-rule="nonzero"/>
        <path d="M70.853 37.053c-11.413 2.934-18.093 7.64-28.346 7.64-14.894 0-23.6-8.906-23.6-19.893S30.12 4.907 42.507 4.907c8.773 0 19.066 3.48 31.333 5.52" fill="#FFF" fill-rule="nonzero"/>
        <path d="M71.587 39.613s-.48.16-1.387.454c-.88.306-2.307.693-3.853 1.32-.8.306-1.68.64-2.64 1-.987.4-2.054.813-3.2 1.266-2.32.907-4.96 2-8.12 2.867-.8.2-1.587.467-2.427.627-.853.16-1.733.306-2.613.466-.88.2-1.8.2-2.734.28-.466.04-.933.067-1.413.094l-.347.026h-.186l-.094.014h-.213L41.707 48l-1.307-.04a14.73 14.73 0 0 1-1.427-.107c-1.013-.12-2.106-.186-3.08-.413-1.013-.2-2.026-.387-3.026-.707-.507-.16-1.027-.293-1.534-.466l-1.506-.587c-4.014-1.6-7.907-4.493-10.534-8.44-1.36-1.947-2.32-4.187-2.933-6.48-.347-1.147-.493-2.333-.653-3.507-.054-.586-.067-1.186-.107-1.773l-.013-.44-.014-.227.027-.4.04-.76.053-.76c0-.133 0-.24.027-.4L15.8 22a51.77 51.77 0 0 1 .36-1.96c.36-1.173.667-2.347 1.213-3.427.454-1.12 1.094-2.12 1.707-3.133.693-.947 1.347-1.933 2.16-2.76 3.08-3.48 7.013-5.827 11.013-7.347 4.014-1.466 8.32-1.986 12.107-1.72 1.667.04 3.627.36 5.387.587 1.68.32 3.32.587 4.826.933 3.054.64 5.76 1.347 8.16 1.934 2.387.586 4.467 1.08 6.187 1.506 1.707.414 3.04.667 3.96.88.907.2 1.4.307 1.4.307l.08.013c1.44.32 2.36 1.734 2.04 3.174a2.646 2.646 0 0 1-3 2.066s-.507-.066-1.467-.213c-.946-.147-2.373-.333-4.146-.64-3.56-.573-8.587-1.68-14.454-2.773-1.466-.294-2.973-.494-4.533-.747-1.507-.12-2.907-.373-4.733-.373-.44-.027-.88-.04-1.32-.054l-.334-.013h-.04.107-.067l-.146.013-.587.027c-.387.013-.773.04-1.173.053l-1.187.16c-1.587.2-3.173.654-4.733 1.2-3.08 1.2-6.094 3.027-8.347 5.547-.6.6-1.053 1.307-1.56 1.96-.413.72-.893 1.413-1.2 2.173-.387.734-.573 1.534-.827 2.28-.066.347-.133.694-.213 1.04l-.067.254c-.013.093-.013.24-.026.36l-.054.76-.04.76-.013.106v-.12l.013.16.027.307.067 1.28c.133.827.226 1.667.48 2.453.44 1.6 1.106 3.134 2.053 4.454.92 1.333 2.013 2.573 3.333 3.533.6.547 1.347.92 2.014 1.387.746.346 1.413.8 2.2 1.066l1.133.454c.387.133.787.24 1.173.36.774.266 1.587.413 2.374.573.813.2 1.546.213 2.306.333.187.027.36.054.574.08l.666.027c.44.013.88.027 1.32.053l.654.027h-.094l.04-.013h.067l.147-.014.293-.013c.387-.013.76-.027 1.147-.053.76-.054 1.52 0 2.253-.147.733-.12 1.453-.227 2.16-.333.72-.107 1.413-.32 2.107-.48 2.733-.654 5.32-1.587 7.653-2.36 1.187-.4 2.293-.774 3.307-1.12 1.04-.347 2.053-.64 2.933-.907 1.813-.573 3.12-.827 4.053-1.08.92-.227 1.414-.36 1.414-.36 1.44-.347 2.88.52 3.24 1.947.346 1.36-.454 2.746-1.76 3.186" fill="#231F20" fill-rule="nonzero"/>
        <path d="M36.173 23.507s7.107 3.253 15.734 3.253" fill="#FFF" fill-rule="nonzero"/>
        <path d="M37.24 21.053s.213.107.587.28c.333.16.866.387 1.533.654 1.32.52 3.133 1.146 5 1.6.467.106.933.226 1.387.333.453.133.92.173 1.36.253.88.134 1.706.347 2.413.374 1.427.12 2.387.213 2.387.213l.173.013a1.981 1.981 0 0 1 1.813 2.16 2.01 2.01 0 0 1-1.986 1.827s-1.08-.013-2.68-.013c-.8.026-1.72-.12-2.72-.187-.494-.053-1.014-.067-1.534-.16-.52-.08-1.04-.16-1.573-.24a46.125 46.125 0 0 1-5.707-1.333c-.773-.24-1.426-.44-1.906-.627l-.694-.253a2.692 2.692 0 0 1-1.573-3.44 2.692 2.692 0 0 1 3.44-1.574c.067.027.133.054.2.094l.08.026" fill="#231F20" fill-rule="nonzero"/>
        <path d="M144.067 23.467s-7.28 3.32-16.094 3.32" fill="#FFF" fill-rule="nonzero"/>
        <path d="M145.133 25.907s-.253.093-.706.266c-.494.187-1.16.4-1.934.64-.8.24-1.72.48-2.706.734-1 .2-2.054.48-3.134.626-.546.08-1.08.16-1.613.254-.52.093-1.053.106-1.56.16-1.027.066-1.96.213-2.787.186-1.64.014-2.72.014-2.72.014-1.106.013-2-.88-2.013-1.987a2 2 0 0 1 1.813-1.987l.2-.026s.974-.08 2.427-.214c.733-.026 1.573-.226 2.48-.36.453-.093.92-.146 1.387-.266.48-.12.946-.227 1.426-.347.96-.2 1.88-.547 2.774-.787a54.617 54.617 0 0 0 2.346-.84c.68-.28 1.227-.506 1.574-.666.386-.187.6-.28.6-.28l.08-.04a2.655 2.655 0 0 1 3.546 1.293 2.665 2.665 0 0 1-1.28 3.547l-.2.08" fill="#231F20" fill-rule="nonzero"/>
        <path d="M176.147 81.973c0-23.76-19.254-43.013-43.014-43.013H117c0-19.2-12.04-34.773-26.893-34.773-14.84 0-26.88 15.573-26.88 34.773H47.093C23.347 38.96 4.08 58.213 4.08 81.973v90.307c0 23.76 19.267 43.013 43.013 43.013h86.04c23.76 0 43.014-19.253 43.014-43.013V81.973" fill="#FFF" fill-rule="nonzero"/>
        <path d="M176.147 81.973c0-23.76-19.254-43.013-43.014-43.013H117c0-19.2-12.04-34.773-26.893-34.773-14.84 0-26.88 15.573-26.88 34.773H47.093C23.347 38.96 4.08 58.213 4.08 81.973v90.307c0 23.76 19.267 43.013 43.013 43.013h86.04c23.76 0 43.014-19.253 43.014-43.013V81.973z" stroke="#231F20" stroke-width="6.667" stroke-linecap="round" stroke-linejoin="round"/>
        <path d="M117.853 6.627s.374.386 1.04 1.066c.334.334.734.747 1.187 1.227.467.427.96 1.133 1.507 1.787.52.693 1.2 1.413 1.706 2.24.534.826 1.107 1.693 1.68 2.586.534.934 1.027 1.934 1.547 2.92.56.987.893 2.094 1.333 3.147.214.533.44 1.067.614 1.613.16.547.306 1.094.466 1.64.307 1.08.64 2.147.787 3.214.173 1.066.373 2.093.52 3.066.067.987.133 1.92.187 2.787.04.427.066.84.093 1.24l-.04 1.187c-.027.666-.04 1.24-.067 1.706-.026.947-.053 1.48-.053 1.48a2.659 2.659 0 0 1-2.76 2.574 2.665 2.665 0 0 1-2.56-2.76v-.107s.04-.533.107-1.48c.04-.467.08-1.04.133-1.693.013-.28.04-.587.067-.907-.014-.347-.027-.707-.04-1.08-.027-.76-.04-1.573-.067-2.44-.093-.867-.24-1.76-.36-2.707-.08-.946-.347-1.88-.573-2.853-.12-.48-.24-.973-.347-1.467-.133-.48-.333-.946-.493-1.426-.36-.947-.6-1.947-1.08-2.827-.427-.893-.814-1.8-1.254-2.653-.493-.814-.96-1.614-1.413-2.36-.427-.774-.96-1.347-1.387-1.974-.466-.6-.773-1.146-1.266-1.64-.44-.493-.814-.906-1.134-1.266-.64-.694-1-1.094-1-1.094a2.014 2.014 0 0 1 .147-2.826 2.01 2.01 0 0 1 2.773.08m-68 32.786s-.026-.52-.053-1.453c-.013-.453-.027-1.013-.053-1.667 0-.16-.014-.32-.014-.493l-.013-.253V35c.027-.36.053-.733.08-1.133.053-.787.107-1.64.173-2.547.134-.96.334-2.013.507-3.08.147-1.093.467-2.12.76-3.2.147-.52.293-1.067.453-1.6.16-.533.387-1.053.587-1.573.427-1.04.747-2.12 1.28-3.08.507-.987.973-1.974 1.48-2.88.56-.88 1.107-1.734 1.613-2.547.494-.827 1.12-1.493 1.614-2.173.52-.64.946-1.294 1.44-1.76.466-.494.866-.92 1.2-1.28A139.62 139.62 0 0 1 61.96 7.04c.76-.8 2.013-.84 2.813-.08.787.733.84 1.947.147 2.76l-.133.147s-.334.373-.907 1.04c-.28.333-.627.733-1.027 1.186-.426.44-.773 1.04-1.226 1.627-.414.627-.96 1.24-1.36 2-.44.733-.88 1.52-1.347 2.32-.427.827-.8 1.72-1.213 2.6-.454.867-.68 1.853-1.027 2.773-.16.467-.347.934-.467 1.414-.12.48-.226.946-.333 1.426-.227.947-.48 1.88-.547 2.76-.12.894-.24 1.747-.333 2.56-.04.907-.067 1.76-.08 2.56-.013.4-.027.774-.04 1.134v-.214.08l.013.134.014.253.04.507c.053.64.093 1.2.12 1.653.066.92.106 1.453.106 1.453a2.661 2.661 0 0 1-2.466 2.854 2.67 2.67 0 0 1-2.854-2.467v-.107" fill="#231F20" fill-rule="nonzero"/>
    </g>
</svg>
