<?xml version="1.0" encoding="UTF-8" standalone="no"?>
<svg
   xmlns:dc="http://purl.org/dc/elements/1.1/"
   xmlns:cc="http://creativecommons.org/ns#"
   xmlns:rdf="http://www.w3.org/1999/02/22-rdf-syntax-ns#"
   xmlns:svg="http://www.w3.org/2000/svg"
   xmlns="http://www.w3.org/2000/svg"
   id="svg236"
   version="1.1"
   height="178.73399"
   width="217.77299">
  <metadata
     id="metadata242">
    <rdf:RDF>
      <cc:Work
         rdf:about="">
        <dc:format>image/svg+xml</dc:format>
        <dc:type
           rdf:resource="http://purl.org/dc/dcmitype/StillImage" />
        <dc:title>
        sama-single
    </dc:title>
      </cc:Work>
    </rdf:RDF>
  </metadata>
  <defs
     id="defs240" />
  <title
     id="title210">
        sama-single
    </title>
  <g
     style="fill:none;fill-rule:evenodd"
     transform="rotate(-90,89.3135,90.167)"
     id="g234">
    <path
       style="fill:#ffffff;fill-rule:nonzero"
       id="path212"
       d="M 105.987,10.4 C 117.4,8.347 126.68,4.907 137.72,4.907 c 15.68,0 23.6,8.906 23.6,19.893 0,10.987 -8.44,19.893 -23.6,19.893 -10.627,0 -17.307,-4.893 -29.067,-7.813" />
    <path
       style="fill:#231f20;fill-rule:nonzero"
       id="path214"
       d="m 105.48,7.773 c 0,0 0.493,-0.106 1.44,-0.333 0.933,-0.227 2.347,-0.507 4.04,-0.96 1.733,-0.453 3.827,-0.987 6.24,-1.613 2.44,-0.614 5.227,-1.334 8.36,-1.947 1.587,-0.253 3.213,-0.64 4.96,-0.813 0.867,-0.094 1.76,-0.2 2.653,-0.307 0.907,-0.08 1.827,-0.107 2.774,-0.16 0.466,-0.027 0.933,-0.04 1.413,-0.067 h 0.267 l 0.213,-0.013 0.333,0.013 0.68,0.027 c 0.92,0.04 1.774,0.027 2.894,0.173 1.053,0.107 2.133,0.214 3.16,0.44 0.52,0.107 1.04,0.2 1.56,0.307 l 1.56,0.44 c 4.173,1.173 8.44,3.573 11.56,7.293 3.12,3.707 4.866,8.574 5.013,13.307 l 0.04,0.893 v 0.214 l 0.013,0.12 -0.013,0.253 -0.013,0.387 -0.067,1.546 c -0.16,1.254 -0.32,2.587 -0.653,3.707 -0.6,2.333 -1.56,4.613 -2.934,6.6 -2.653,4.027 -6.64,6.933 -10.746,8.507 -4.094,1.64 -8.267,2.213 -12.107,2.226 L 137.747,48.027 137.4,48.013 137.227,48 136.573,47.96 c -0.44,-0.027 -0.866,-0.053 -1.293,-0.093 -0.853,-0.054 -1.68,-0.094 -2.667,-0.294 -0.933,-0.16 -1.866,-0.333 -2.76,-0.493 -0.866,-0.2 -1.666,-0.44 -2.466,-0.667 -3.2,-0.88 -5.867,-2 -8.214,-2.92 -1.16,-0.453 -2.24,-0.88 -3.24,-1.28 -0.986,-0.373 -1.906,-0.706 -2.72,-1.013 -1.64,-0.653 -2.946,-0.987 -3.84,-1.293 -0.88,-0.294 -1.36,-0.44 -1.36,-0.44 l -0.16,-0.054 a 2.658,2.658 0 0 1 -1.72,-3.346 2.67,2.67 0 0 1 3.174,-1.774 c 0,0 0.52,0.12 1.493,0.36 0.96,0.267 2.427,0.534 4.187,1.094 1.8,0.506 3.906,1.226 6.306,2.04 2.36,0.8 4.987,1.746 7.774,2.44 0.693,0.16 1.413,0.373 2.12,0.506 0.68,0.107 1.373,0.214 2.08,0.32 0.653,0.147 1.52,0.174 2.386,0.2 0.427,0.014 0.867,0.04 1.294,0.054 l 0.666,0.04 h 0.16 l 0.08,0.013 h 0.04 c -0.36,-0.013 -0.08,0 -0.146,-0.013 h 0.306 c 3.227,-0.04 6.574,-0.56 9.654,-1.814 3.08,-1.226 5.826,-3.266 7.666,-6 0.96,-1.346 1.614,-2.906 2.04,-4.533 0.267,-0.853 0.32,-1.573 0.467,-2.36 l 0.08,-1.533 0.027,-0.387 v -0.053 0.12 l -0.014,-0.08 v -0.174 l -0.04,-0.653 c -0.133,-3.507 -1.4,-6.773 -3.506,-9.28 -2.147,-2.493 -5.094,-4.253 -8.334,-5.187 l -1.2,-0.36 -1.253,-0.24 c -0.827,-0.2 -1.627,-0.266 -2.413,-0.373 -0.72,-0.12 -1.72,-0.12 -2.614,-0.16 L 137.933,8.253 137.6,8.24 h 0.08 -0.12 l -0.16,0.013 -1.253,0.04 c -0.84,0.027 -1.654,0.014 -2.467,0.067 -0.813,0.067 -1.613,0.147 -2.4,0.213 -1.573,0.107 -3.107,0.427 -4.573,0.614 a 244.6,244.6 0 0 0 -8.147,1.573 c -2.44,0.52 -4.613,0.973 -6.44,1.293 -1.827,0.374 -3.2,0.547 -4.16,0.72 -0.96,0.16 -1.467,0.24 -1.467,0.24 A 2.65,2.65 0 0 1 103.44,10.8 c -0.227,-1.387 0.68,-2.707 2.04,-3.027" />
    <path
       style="fill:#ffffff;fill-rule:nonzero"
       id="path216"
       d="m 70.853,37.053 c -11.413,2.934 -18.093,7.64 -28.346,7.64 -14.894,0 -23.6,-8.906 -23.6,-19.893 0,-10.987 11.213,-19.893 23.6,-19.893 8.773,0 19.066,3.48 31.333,5.52" />
    <path
       style="fill:#231f20;fill-rule:nonzero"
       id="path218"
       d="m 71.587,39.613 c 0,0 -0.48,0.16 -1.387,0.454 -0.88,0.306 -2.307,0.693 -3.853,1.32 -0.8,0.306 -1.68,0.64 -2.64,1 -0.987,0.4 -2.054,0.813 -3.2,1.266 -2.32,0.907 -4.96,2 -8.12,2.867 -0.8,0.2 -1.587,0.467 -2.427,0.627 -0.853,0.16 -1.733,0.306 -2.613,0.466 -0.88,0.2 -1.8,0.2 -2.734,0.28 -0.466,0.04 -0.933,0.067 -1.413,0.094 l -0.347,0.026 h -0.186 l -0.094,0.014 H 42.36 L 41.707,48 40.4,47.96 A 14.73,14.73 0 0 1 38.973,47.853 C 37.96,47.733 36.867,47.667 35.893,47.44 34.88,47.24 33.867,47.053 32.867,46.733 32.36,46.573 31.84,46.44 31.333,46.267 L 29.827,45.68 C 25.813,44.08 21.92,41.187 19.293,37.24 17.933,35.293 16.973,33.053 16.36,30.76 16.013,29.613 15.867,28.427 15.707,27.253 15.653,26.667 15.64,26.067 15.6,25.48 l -0.013,-0.44 -0.014,-0.227 0.027,-0.4 0.04,-0.76 0.053,-0.76 c 0,-0.133 0,-0.24 0.027,-0.4 L 15.8,22 a 51.77,51.77 0 0 1 0.36,-1.96 c 0.36,-1.173 0.667,-2.347 1.213,-3.427 0.454,-1.12 1.094,-2.12 1.707,-3.133 0.693,-0.947 1.347,-1.933 2.16,-2.76 3.08,-3.48 7.013,-5.827 11.013,-7.347 4.014,-1.466 8.32,-1.986 12.107,-1.72 1.667,0.04 3.627,0.36 5.387,0.587 1.68,0.32 3.32,0.587 4.826,0.933 3.054,0.64 5.76,1.347 8.16,1.934 2.387,0.586 4.467,1.08 6.187,1.506 1.707,0.414 3.04,0.667 3.96,0.88 0.907,0.2 1.4,0.307 1.4,0.307 l 0.08,0.013 c 1.44,0.32 2.36,1.734 2.04,3.174 a 2.646,2.646 0 0 1 -3,2.066 c 0,0 -0.507,-0.066 -1.467,-0.213 C 70.987,12.693 69.56,12.507 67.787,12.2 64.227,11.627 59.2,10.52 53.333,9.427 51.867,9.133 50.36,8.933 48.8,8.68 47.293,8.56 45.893,8.307 44.067,8.307 43.627,8.28 43.187,8.267 42.747,8.253 L 42.413,8.24 h -0.04 0.107 -0.067 L 42.267,8.253 41.68,8.28 c -0.387,0.013 -0.773,0.04 -1.173,0.053 l -1.187,0.16 c -1.587,0.2 -3.173,0.654 -4.733,1.2 -3.08,1.2 -6.094,3.027 -8.347,5.547 -0.6,0.6 -1.053,1.307 -1.56,1.96 -0.413,0.72 -0.893,1.413 -1.2,2.173 -0.387,0.734 -0.573,1.534 -0.827,2.28 -0.066,0.347 -0.133,0.694 -0.213,1.04 l -0.067,0.254 c -0.013,0.093 -0.013,0.24 -0.026,0.36 l -0.054,0.76 -0.04,0.76 -0.013,0.106 v -0.12 l 0.013,0.16 0.027,0.307 0.067,1.28 c 0.133,0.827 0.226,1.667 0.48,2.453 0.44,1.6 1.106,3.134 2.053,4.454 0.92,1.333 2.013,2.573 3.333,3.533 0.6,0.547 1.347,0.92 2.014,1.387 0.746,0.346 1.413,0.8 2.2,1.066 l 1.133,0.454 c 0.387,0.133 0.787,0.24 1.173,0.36 0.774,0.266 1.587,0.413 2.374,0.573 0.813,0.2 1.546,0.213 2.306,0.333 0.187,0.027 0.36,0.054 0.574,0.08 l 0.666,0.027 c 0.44,0.013 0.88,0.027 1.32,0.053 l 0.654,0.027 h -0.094 l 0.04,-0.013 h 0.067 l 0.147,-0.014 0.293,-0.013 c 0.387,-0.013 0.76,-0.027 1.147,-0.053 0.76,-0.054 1.52,0 2.253,-0.147 0.733,-0.12 1.453,-0.227 2.16,-0.333 0.72,-0.107 1.413,-0.32 2.107,-0.48 2.733,-0.654 5.32,-1.587 7.653,-2.36 1.187,-0.4 2.293,-0.774 3.307,-1.12 1.04,-0.347 2.053,-0.64 2.933,-0.907 1.813,-0.573 3.12,-0.827 4.053,-1.08 0.92,-0.227 1.414,-0.36 1.414,-0.36 1.44,-0.347 2.88,0.52 3.24,1.947 0.346,1.36 -0.454,2.746 -1.76,3.186" />
    <path
       style="fill:#ffffff;fill-rule:nonzero"
       id="path220"
       d="m 36.173,23.507 c 0,0 7.107,3.253 15.734,3.253" />
    <path
       style="fill:#231f20;fill-rule:nonzero"
       id="path222"
       d="m 37.24,21.053 c 0,0 0.213,0.107 0.587,0.28 0.333,0.16 0.866,0.387 1.533,0.654 1.32,0.52 3.133,1.146 5,1.6 0.467,0.106 0.933,0.226 1.387,0.333 0.453,0.133 0.92,0.173 1.36,0.253 0.88,0.134 1.706,0.347 2.413,0.374 1.427,0.12 2.387,0.213 2.387,0.213 l 0.173,0.013 a 1.981,1.981 0 0 1 1.813,2.16 2.01,2.01 0 0 1 -1.986,1.827 c 0,0 -1.08,-0.013 -2.68,-0.013 -0.8,0.026 -1.72,-0.12 -2.72,-0.187 -0.494,-0.053 -1.014,-0.067 -1.534,-0.16 -0.52,-0.08 -1.04,-0.16 -1.573,-0.24 A 46.125,46.125 0 0 1 37.693,26.827 C 36.92,26.587 36.267,26.387 35.787,26.2 l -0.694,-0.253 a 2.692,2.692 0 0 1 -1.573,-3.44 2.692,2.692 0 0 1 3.44,-1.574 c 0.067,0.027 0.133,0.054 0.2,0.094 l 0.08,0.026" />
    <path
       style="fill:#ffffff;fill-rule:nonzero"
       id="path224"
       d="m 144.067,23.467 c 0,0 -7.28,3.32 -16.094,3.32" />
    <path
       style="fill:#231f20;fill-rule:nonzero"
       id="path226"
       d="m 145.133,25.907 c 0,0 -0.253,0.093 -0.706,0.266 -0.494,0.187 -1.16,0.4 -1.934,0.64 -0.8,0.24 -1.72,0.48 -2.706,0.734 -1,0.2 -2.054,0.48 -3.134,0.626 -0.546,0.08 -1.08,0.16 -1.613,0.254 -0.52,0.093 -1.053,0.106 -1.56,0.16 -1.027,0.066 -1.96,0.213 -2.787,0.186 -1.64,0.014 -2.72,0.014 -2.72,0.014 -1.106,0.013 -2,-0.88 -2.013,-1.987 a 2,2 0 0 1 1.813,-1.987 l 0.2,-0.026 c 0,0 0.974,-0.08 2.427,-0.214 0.733,-0.026 1.573,-0.226 2.48,-0.36 0.453,-0.093 0.92,-0.146 1.387,-0.266 0.48,-0.12 0.946,-0.227 1.426,-0.347 0.96,-0.2 1.88,-0.547 2.774,-0.787 a 54.617,54.617 0 0 0 2.346,-0.84 c 0.68,-0.28 1.227,-0.506 1.574,-0.666 0.386,-0.187 0.6,-0.28 0.6,-0.28 l 0.08,-0.04 a 2.655,2.655 0 0 1 3.546,1.293 2.665,2.665 0 0 1 -1.28,3.547 l -0.2,0.08" />
    <path
       style="fill:#ffffff;fill-rule:nonzero"
       id="path228"
       d="m 176.147,81.973 c 0,-23.76 -19.254,-43.013 -43.014,-43.013 H 117 C 117,19.76 104.96,4.187 90.107,4.187 75.267,4.187 63.227,19.76 63.227,38.96 H 47.093 C 23.347,38.96 4.08,58.213 4.08,81.973 v 90.307 c 0,23.76 19.267,43.013 43.013,43.013 h 86.04 c 23.76,0 43.014,-19.253 43.014,-43.013 V 81.973" />
    <path
       style="stroke:#231f20;stroke-width:6.66699982;stroke-linecap:round;stroke-linejoin:round"
       id="path230"
       d="m 176.147,81.973 c 0,-23.76 -19.254,-43.013 -43.014,-43.013 H 117 C 117,19.76 104.96,4.187 90.107,4.187 75.267,4.187 63.227,19.76 63.227,38.96 H 47.093 C 23.347,38.96 4.08,58.213 4.08,81.973 v 90.307 c 0,23.76 19.267,43.013 43.013,43.013 h 86.04 c 23.76,0 43.014,-19.253 43.014,-43.013 z" />
    <path
       style="fill:#231f20;fill-rule:nonzero"
       id="path232"
       d="m 117.853,6.627 c 0,0 0.374,0.386 1.04,1.066 0.334,0.334 0.734,0.747 1.187,1.227 0.467,0.427 0.96,1.133 1.507,1.787 0.52,0.693 1.2,1.413 1.706,2.24 0.534,0.826 1.107,1.693 1.68,2.586 0.534,0.934 1.027,1.934 1.547,2.92 0.56,0.987 0.893,2.094 1.333,3.147 0.214,0.533 0.44,1.067 0.614,1.613 0.16,0.547 0.306,1.094 0.466,1.64 0.307,1.08 0.64,2.147 0.787,3.214 0.173,1.066 0.373,2.093 0.52,3.066 0.067,0.987 0.133,1.92 0.187,2.787 0.04,0.427 0.066,0.84 0.093,1.24 l -0.04,1.187 c -0.027,0.666 -0.04,1.24 -0.067,1.706 -0.026,0.947 -0.053,1.48 -0.053,1.48 a 2.659,2.659 0 0 1 -2.76,2.574 2.665,2.665 0 0 1 -2.56,-2.76 V 39.24 c 0,0 0.04,-0.533 0.107,-1.48 0.04,-0.467 0.08,-1.04 0.133,-1.693 0.013,-0.28 0.04,-0.587 0.067,-0.907 -0.014,-0.347 -0.027,-0.707 -0.04,-1.08 -0.027,-0.76 -0.04,-1.573 -0.067,-2.44 -0.093,-0.867 -0.24,-1.76 -0.36,-2.707 -0.08,-0.946 -0.347,-1.88 -0.573,-2.853 -0.12,-0.48 -0.24,-0.973 -0.347,-1.467 -0.133,-0.48 -0.333,-0.946 -0.493,-1.426 -0.36,-0.947 -0.6,-1.947 -1.08,-2.827 -0.427,-0.893 -0.814,-1.8 -1.254,-2.653 -0.493,-0.814 -0.96,-1.614 -1.413,-2.36 -0.427,-0.774 -0.96,-1.347 -1.387,-1.974 -0.466,-0.6 -0.773,-1.146 -1.266,-1.64 -0.44,-0.493 -0.814,-0.906 -1.134,-1.266 -0.64,-0.694 -1,-1.094 -1,-1.094 a 2.014,2.014 0 0 1 0.147,-2.826 2.01,2.01 0 0 1 2.773,0.08 m -68,32.786 c 0,0 -0.026,-0.52 -0.053,-1.453 -0.013,-0.453 -0.027,-1.013 -0.053,-1.667 0,-0.16 -0.014,-0.32 -0.014,-0.493 L 49.72,35.547 V 35 c 0.027,-0.36 0.053,-0.733 0.08,-1.133 0.053,-0.787 0.107,-1.64 0.173,-2.547 0.134,-0.96 0.334,-2.013 0.507,-3.08 0.147,-1.093 0.467,-2.12 0.76,-3.2 0.147,-0.52 0.293,-1.067 0.453,-1.6 0.16,-0.533 0.387,-1.053 0.587,-1.573 0.427,-1.04 0.747,-2.12 1.28,-3.08 0.507,-0.987 0.973,-1.974 1.48,-2.88 0.56,-0.88 1.107,-1.734 1.613,-2.547 0.494,-0.827 1.12,-1.493 1.614,-2.173 0.52,-0.64 0.946,-1.294 1.44,-1.76 0.466,-0.494 0.866,-0.92 1.2,-1.28 A 139.62,139.62 0 0 1 61.96,7.04 c 0.76,-0.8 2.013,-0.84 2.813,-0.08 0.787,0.733 0.84,1.947 0.147,2.76 l -0.133,0.147 c 0,0 -0.334,0.373 -0.907,1.04 -0.28,0.333 -0.627,0.733 -1.027,1.186 -0.426,0.44 -0.773,1.04 -1.226,1.627 -0.414,0.627 -0.96,1.24 -1.36,2 -0.44,0.733 -0.88,1.52 -1.347,2.32 -0.427,0.827 -0.8,1.72 -1.213,2.6 -0.454,0.867 -0.68,1.853 -1.027,2.773 -0.16,0.467 -0.347,0.934 -0.467,1.414 -0.12,0.48 -0.226,0.946 -0.333,1.426 -0.227,0.947 -0.48,1.88 -0.547,2.76 -0.12,0.894 -0.24,1.747 -0.333,2.56 -0.04,0.907 -0.067,1.76 -0.08,2.56 -0.013,0.4 -0.027,0.774 -0.04,1.134 v -0.214 0.08 l 0.013,0.134 0.014,0.253 0.04,0.507 c 0.053,0.64 0.093,1.2 0.12,1.653 0.066,0.92 0.106,1.453 0.106,1.453 a 2.661,2.661 0 0 1 -2.466,2.854 2.67,2.67 0 0 1 -2.854,-2.467 v -0.107" />
  </g>
</svg>
