<?xml version="1.0" encoding="UTF-8" standalone="no"?>
<svg
   xmlns:dc="http://purl.org/dc/elements/1.1/"
   xmlns:cc="http://creativecommons.org/ns#"
   xmlns:rdf="http://www.w3.org/1999/02/22-rdf-syntax-ns#"
   xmlns:svg="http://www.w3.org/2000/svg"
   xmlns="http://www.w3.org/2000/svg"
   id="svg28"
   version="1.1"
   height="178.731"
   width="334.21399">
  <metadata
     id="metadata34">
    <rdf:RDF>
      <cc:Work
         rdf:about="">
        <dc:format>image/svg+xml</dc:format>
        <dc:type
           rdf:resource="http://purl.org/dc/dcmitype/StillImage" />
        <dc:title>
        sama-vertical
    </dc:title>
      </cc:Work>
    </rdf:RDF>
  </metadata>
  <defs
     id="defs32" />
  <title
     id="title2">
        sama-vertical
    </title>
  <g
     style="fill:none;fill-rule:evenodd"
     transform="rotate(-90,89.6105,89.81)"
     id="g26">
    <path
       style="fill:#ffffff;fill-rule:nonzero"
       id="path4"
       d="m 105.925,9.747 c 11.416,-2.054 20.692,-5.494 31.73,-5.494 15.69,0 23.602,8.907 23.602,19.894 0,10.986 -8.438,19.893 -23.602,19.893 -10.626,0 -17.302,-4.893 -29.055,-7.813" />
    <path
       style="fill:#231f20;fill-rule:nonzero"
       id="path6"
       d="m 105.415,7.12 c 0,0 0.501,-0.107 1.444,-0.333 0.929,-0.227 2.354,-0.507 4.042,-0.96 1.728,-0.454 3.827,-0.987 6.235,-1.6 2.447,-0.627 5.235,-1.347 8.365,-1.96 1.591,-0.254 3.207,-0.64 4.959,-0.8 0.87,-0.107 1.755,-0.214 2.653,-0.32 0.904,-0.08 1.834,-0.107 2.77,-0.16 0.469,-0.027 0.941,-0.04 1.417,-0.067 h 0.817 l 0.68,0.027 c 0.923,0.04 1.77,0.026 2.886,0.173 1.058,0.107 2.14,0.213 3.16,0.44 0.518,0.107 1.038,0.2 1.561,0.307 l 1.565,0.44 c 4.17,1.173 8.438,3.573 11.558,7.293 3.12,3.707 4.869,8.587 5.013,13.307 l 0.036,0.893 0.01,0.213 0.005,0.12 -0.008,0.254 -0.018,0.386 -0.069,1.547 c -0.161,1.253 -0.319,2.587 -0.653,3.707 -0.6,2.333 -1.558,4.613 -2.924,6.6 -2.659,4.04 -6.651,6.933 -10.746,8.506 -4.104,1.64 -8.277,2.214 -12.12,2.227 l -0.361,0.013 -0.357,-0.013 h -0.164 l -0.658,-0.04 a 41.58,41.58 0 0 0 -1.296,-0.093 c -0.854,-0.067 -1.677,-0.094 -2.664,-0.307 -0.937,-0.16 -1.86,-0.333 -2.765,-0.493 -0.863,-0.2 -1.656,-0.44 -2.461,-0.654 -3.196,-0.893 -5.864,-2.013 -8.218,-2.933 -1.154,-0.453 -2.236,-0.88 -3.236,-1.28 -0.99,-0.373 -1.9,-0.707 -2.722,-1.013 -1.638,-0.654 -2.948,-0.987 -3.834,-1.294 -0.888,-0.28 -1.361,-0.44 -1.361,-0.44 l -0.157,-0.053 a 2.656,2.656 0 0 1 -1.723,-3.347 2.68,2.68 0 0 1 3.168,-1.773 c 0,0 0.519,0.12 1.49,0.36 0.96,0.267 2.43,0.533 4.191,1.093 1.8,0.507 3.912,1.227 6.307,2.054 2.363,0.786 4.99,1.733 7.77,2.426 0.694,0.174 1.417,0.374 2.123,0.52 0.68,0.094 1.375,0.2 2.08,0.307 0.65,0.147 1.523,0.173 2.388,0.2 0.43,0.027 0.863,0.04 1.299,0.053 l 0.656,0.04 0.165,0.014 h 0.124 c -0.364,-0.014 -0.08,0 -0.15,0 l 0.3,-0.014 c 3.228,-0.04 6.582,-0.56 9.66,-1.813 3.082,-1.213 5.826,-3.267 7.67,-6 0.955,-1.347 1.61,-2.907 2.043,-4.533 0.261,-0.854 0.313,-1.574 0.464,-2.347 l 0.079,-1.547 0.02,-0.386 0.002,-0.054 c 0.004,-0.16 -0.002,0.174 -0.002,0.12 l -0.004,-0.08 -0.01,-0.16 -0.033,-0.666 c -0.13,-3.507 -1.397,-6.774 -3.51,-9.28 -2.142,-2.494 -5.089,-4.254 -8.33,-5.187 L 144.828,8.4 143.584,8.16 C 142.751,7.96 141.957,7.893 141.168,7.8 140.44,7.667 139.443,7.667 138.551,7.627 L 137.872,7.6 137.535,7.587 h 0.082 -0.118 L 137.34,7.6 136.084,7.64 c -0.832,0.027 -1.652,0.027 -2.463,0.067 -0.813,0.08 -1.613,0.146 -2.401,0.226 -1.572,0.094 -3.11,0.414 -4.579,0.6 a 240.55,240.55 0 0 0 -8.134,1.574 c -2.45,0.52 -4.615,0.973 -6.448,1.306 -1.826,0.36 -3.196,0.534 -4.159,0.707 -0.953,0.16 -1.463,0.24 -1.463,0.24 a 2.662,2.662 0 0 1 -3.061,-2.2 2.689,2.689 0 0 1 2.039,-3.04" />
    <path
       style="fill:#ffffff;fill-rule:nonzero"
       id="path8"
       d="m 70.788,36.4 c -11.403,2.933 -18.093,7.64 -28.335,7.64 -14.9,0 -23.601,-8.907 -23.601,-19.893 0,-10.987 11.207,-19.894 23.601,-19.894 8.77,0 19.058,3.48 31.331,5.52" />
    <path
       style="fill:#231f20;fill-rule:nonzero"
       id="path10"
       d="m 71.524,38.96 c 0,0 -0.484,0.16 -1.39,0.453 -0.877,0.307 -2.3,0.694 -3.846,1.334 -0.796,0.293 -1.677,0.626 -2.637,1 -0.988,0.386 -2.056,0.8 -3.198,1.253 -2.326,0.92 -4.964,2.013 -8.129,2.867 -0.795,0.2 -1.58,0.466 -2.43,0.626 -0.853,0.16 -1.722,0.32 -2.606,0.48 -0.879,0.187 -1.807,0.187 -2.736,0.267 -0.465,0.04 -0.936,0.067 -1.41,0.093 l -0.355,0.027 -0.178,0.013 h -0.305 l -0.652,-0.026 -1.317,-0.04 C 39.905,47.293 39.448,47.28 38.911,47.2 37.896,47.08 36.809,47.027 35.829,46.787 34.825,46.587 33.809,46.413 32.8,46.08 32.295,45.933 31.784,45.787 31.277,45.613 L 29.769,45.027 C 25.748,43.427 21.86,40.533 19.229,36.587 17.876,34.64 16.915,32.4 16.301,30.107 15.957,28.96 15.812,27.773 15.641,26.6 15.595,26.013 15.576,25.413 15.547,24.827 l -0.02,-0.44 -0.008,-0.227 0.017,-0.4 0.045,-0.76 0.047,-0.76 c 0.01,-0.133 0.01,-0.24 0.028,-0.387 l 0.08,-0.493 c 0.11,-0.653 0.23,-1.32 0.363,-1.973 0.358,-1.16 0.673,-2.347 1.212,-3.427 0.453,-1.12 1.101,-2.12 1.704,-3.133 0.7,-0.947 1.356,-1.934 2.164,-2.76 3.077,-3.48 7.013,-5.827 11.02,-7.334 4.005,-1.48 8.317,-1.986 12.097,-1.733 1.672,0.04 3.628,0.373 5.39,0.6 1.68,0.307 3.314,0.587 4.826,0.92 3.05,0.64 5.765,1.36 8.165,1.933 2.386,0.587 4.466,1.094 6.179,1.507 1.708,0.413 3.047,0.667 3.961,0.88 l 1.403,0.307 0.087,0.013 a 2.67,2.67 0 0 1 2.037,3.173 2.675,2.675 0 0 1 -2.997,2.08 c 0,0 -0.512,-0.08 -1.471,-0.226 C 70.921,12.04 69.499,11.853 67.728,11.547 64.167,10.973 59.141,9.867 53.272,8.773 51.802,8.48 50.296,8.28 48.74,8.04 47.237,7.907 45.835,7.653 44.008,7.653 43.572,7.64 43.133,7.613 42.691,7.6 L 42.359,7.587 h -0.042 0.107 -0.072 L 42.207,7.6 41.624,7.627 c -0.39,0.026 -0.783,0.04 -1.177,0.053 l -1.182,0.173 c -1.589,0.2 -3.172,0.64 -4.738,1.187 -3.087,1.2 -6.091,3.027 -8.342,5.547 -0.606,0.6 -1.052,1.306 -1.572,1.96 -0.408,0.72 -0.89,1.413 -1.186,2.173 -0.39,0.733 -0.575,1.533 -0.836,2.293 -0.059,0.347 -0.128,0.68 -0.208,1.027 l -0.063,0.253 c -0.017,0.107 -0.02,0.254 -0.03,0.374 l -0.05,0.76 -0.05,0.76 -0.006,0.093 -0.004,0.04 c -0.007,0.213 0.005,-0.213 0.007,-0.16 l 0.009,0.16 0.019,0.32 0.072,1.267 c 0.14,0.826 0.229,1.666 0.485,2.453 0.439,1.6 1.096,3.133 2.044,4.453 0.928,1.347 2.02,2.574 3.337,3.534 0.604,0.546 1.35,0.92 2.011,1.386 0.747,0.347 1.421,0.8 2.205,1.067 l 1.135,0.467 c 0.388,0.133 0.787,0.226 1.175,0.346 0.769,0.267 1.581,0.414 2.374,0.574 0.804,0.213 1.543,0.213 2.3,0.346 0.194,0.014 0.366,0.054 0.574,0.067 l 0.664,0.027 c 0.442,0.013 0.881,0.04 1.317,0.053 l 0.652,0.027 h -0.09 0.037 l 0.073,-0.014 h 0.145 l 0.291,-0.026 c 0.385,-0.014 0.77,-0.027 1.15,-0.054 0.76,-0.04 1.515,0 2.249,-0.146 0.736,-0.12 1.46,-0.227 2.17,-0.32 0.714,-0.12 1.414,-0.334 2.1,-0.494 2.738,-0.653 5.326,-1.586 7.652,-2.36 1.184,-0.4 2.292,-0.773 3.316,-1.12 1.039,-0.346 2.05,-0.64 2.934,-0.906 1.802,-0.574 3.108,-0.827 4.048,-1.08 l 1.417,-0.347 a 2.662,2.662 0 0 1 3.235,1.933 2.676,2.676 0 0 1 -1.763,3.187" />
    <path
       style="fill:#ffffff;fill-rule:nonzero"
       id="path12"
       d="m 36.108,22.853 c 0,0 7.112,3.254 15.732,3.254" />
    <path
       style="fill:#231f20;fill-rule:nonzero"
       id="path14"
       d="m 37.18,20.413 c 0,0 0.213,0.094 0.587,0.267 0.333,0.16 0.873,0.387 1.536,0.653 a 40.188,40.188 0 0 0 4.996,1.6 c 0.465,0.12 0.93,0.227 1.389,0.334 0.457,0.133 0.915,0.186 1.356,0.266 0.883,0.12 1.708,0.334 2.42,0.36 a 190.5,190.5 0 0 1 2.376,0.214 l 0.187,0.013 a 1.993,1.993 0 0 1 1.812,2.16 2.013,2.013 0 0 1 -1.999,1.827 c 0,0 -1.067,-0.014 -2.67,-0.014 -0.807,0.027 -1.726,-0.12 -2.725,-0.186 -0.497,-0.04 -1.018,-0.067 -1.532,-0.16 l -1.57,-0.24 a 46.948,46.948 0 0 1 -5.716,-1.334 25.705,25.705 0 0 1 -1.896,-0.626 c -0.443,-0.16 -0.695,-0.254 -0.695,-0.254 a 2.676,2.676 0 0 1 -1.57,-3.44 2.667,2.667 0 0 1 3.433,-1.56 c 0.068,0.014 0.132,0.04 0.196,0.08 l 0.085,0.04" />
    <path
       style="fill:#ffffff;fill-rule:nonzero"
       id="path16"
       d="m 144,22.813 c 0,0 -7.273,3.32 -16.09,3.32" />
    <path
       style="fill:#231f20;fill-rule:nonzero"
       id="path18"
       d="m 145.072,25.253 c 0,0 -0.257,0.094 -0.71,0.267 -0.491,0.187 -1.151,0.4 -1.935,0.64 -0.788,0.24 -1.712,0.48 -2.703,0.733 -1.004,0.2 -2.05,0.494 -3.135,0.627 -0.537,0.08 -1.074,0.173 -1.604,0.253 -0.524,0.094 -1.056,0.12 -1.564,0.16 -1.021,0.08 -1.96,0.214 -2.785,0.187 -1.636,0.013 -2.727,0.013 -2.727,0.013 a 1.991,1.991 0 1 1 -0.193,-3.973 l 0.193,-0.027 c 0,0 0.974,-0.08 2.435,-0.213 0.728,-0.027 1.573,-0.227 2.479,-0.36 0.45,-0.08 0.92,-0.133 1.389,-0.267 0.47,-0.106 0.945,-0.226 1.423,-0.346 0.957,-0.187 1.884,-0.534 2.766,-0.787 a 53.029,53.029 0 0 0 2.351,-0.84 c 0.679,-0.28 1.232,-0.507 1.575,-0.667 0.382,-0.173 0.602,-0.28 0.602,-0.28 l 0.08,-0.04 a 2.672,2.672 0 0 1 3.55,1.294 2.67,2.67 0 0 1 -1.291,3.546 c -0.063,0.027 -0.132,0.054 -0.196,0.08" />
    <path
       style="fill:#ffffff;fill-rule:nonzero"
       id="path20"
       d="m 176.087,81.32 c 0,-23.76 -19.26,-43.013 -43.016,-43.013 h -16.134 c 0,-19.2 -12.037,-34.774 -26.885,-34.774 -14.848,0 -26.884,15.574 -26.884,34.774 H 47.038 C 23.281,38.307 4.023,57.56 4.023,81.32 v 206.747 c 0,23.76 19.258,43.013 43.016,43.013 h 86.032 c 23.756,0 43.014,-19.253 43.014,-43.013 V 81.32 h 0.002" />
    <path
       style="stroke:#231f20;stroke-width:6.66699982;stroke-linecap:round;stroke-linejoin:round"
       id="path22"
       d="m 176.087,81.32 c 0,-23.76 -19.26,-43.013 -43.016,-43.013 h -16.134 c 0,-19.2 -12.037,-34.774 -26.885,-34.774 -14.848,0 -26.884,15.574 -26.884,34.774 H 47.038 C 23.281,38.307 4.023,57.56 4.023,81.32 v 206.747 c 0,23.76 19.258,43.013 43.016,43.013 h 86.032 c 23.756,0 43.014,-19.253 43.014,-43.013 V 81.32 Z" />
    <path
       style="fill:#231f20;fill-rule:nonzero"
       id="path24"
       d="m 117.795,5.987 c 0,0 0.376,0.373 1.036,1.053 0.329,0.347 0.73,0.747 1.189,1.227 0.467,0.426 0.957,1.133 1.51,1.786 0.523,0.694 1.198,1.414 1.709,2.24 a 531.66,531.66 0 0 0 1.681,2.587 c 0.532,0.933 1.013,1.933 1.539,2.933 0.564,0.974 0.89,2.08 1.34,3.134 0.201,0.546 0.441,1.066 0.609,1.613 l 0.467,1.64 c 0.304,1.08 0.641,2.147 0.784,3.227 0.18,1.053 0.38,2.08 0.517,3.066 l 0.196,2.774 0.084,1.24 c -0.013,0.413 -0.027,0.813 -0.037,1.186 -0.024,0.667 -0.044,1.24 -0.062,1.707 l -0.052,1.48 a 2.664,2.664 0 0 1 -2.76,2.573 2.663,2.663 0 0 1 -2.565,-2.866 l 0.11,-1.48 0.126,-1.694 0.07,-0.906 c -0.011,-0.334 -0.023,-0.707 -0.037,-1.08 -0.022,-0.747 -0.046,-1.574 -0.073,-2.44 -0.088,-0.854 -0.233,-1.76 -0.352,-2.707 -0.081,-0.947 -0.35,-1.88 -0.58,-2.853 -0.116,-0.48 -0.233,-0.974 -0.35,-1.467 -0.129,-0.48 -0.326,-0.947 -0.486,-1.427 -0.365,-0.946 -0.603,-1.946 -1.076,-2.826 -0.433,-0.894 -0.823,-1.8 -1.263,-2.654 -0.488,-0.813 -0.96,-1.6 -1.408,-2.36 -0.43,-0.773 -0.962,-1.346 -1.385,-1.973 -0.467,-0.587 -0.775,-1.147 -1.263,-1.64 -0.44,-0.48 -0.825,-0.907 -1.141,-1.267 C 115.239,9.12 114.877,8.72 114.877,8.72 a 2.002,2.002 0 0 1 0.144,-2.827 c 0.8,-0.72 2.027,-0.68 2.774,0.094 M 49.79,38.76 49.741,37.307 a 540.23,540.23 0 0 0 -0.056,-1.654 l -0.016,-0.506 -0.009,-0.254 -0.004,-0.133 -0.003,-0.067 0.002,-0.306 0.002,-0.027 0.08,-1.133 0.179,-2.56 c 0.133,-0.96 0.324,-2.014 0.503,-3.08 0.144,-1.094 0.47,-2.12 0.761,-3.187 0.148,-0.533 0.297,-1.08 0.448,-1.613 0.164,-0.534 0.392,-1.054 0.587,-1.574 0.43,-1.04 0.746,-2.12 1.288,-3.08 0.504,-0.986 0.965,-1.96 1.478,-2.88 0.56,-0.88 1.102,-1.733 1.615,-2.546 0.495,-0.827 1.116,-1.494 1.61,-2.174 0.527,-0.64 0.947,-1.28 1.438,-1.76 0.465,-0.493 0.87,-0.92 1.204,-1.28 0.668,-0.706 1.05,-1.106 1.05,-1.106 0.758,-0.8 2.022,-0.84 2.822,-0.08 a 2,2 0 0 1 0.137,2.76 l -0.13,0.146 c 0,0 -0.328,0.374 -0.903,1.04 -0.287,0.334 -0.636,0.734 -1.036,1.187 -0.425,0.44 -0.773,1.04 -1.224,1.64 -0.415,0.613 -0.953,1.227 -1.361,1.987 -0.43,0.733 -0.882,1.52 -1.35,2.32 -0.422,0.84 -0.793,1.72 -1.208,2.613 -0.453,0.867 -0.681,1.84 -1.029,2.76 -0.153,0.48 -0.34,0.933 -0.465,1.413 L 55.817,25.6 c -0.218,0.947 -0.48,1.88 -0.549,2.76 l -0.335,2.56 c -0.026,0.907 -0.053,1.773 -0.077,2.56 l -0.036,1.133 v 0.04 l -10e-4,0.014 V 34.4 34.413 l 0.005,0.067 0.01,0.133 0.018,0.254 0.037,0.506 c 0.047,0.64 0.087,1.2 0.122,1.654 l 0.105,1.453 a 2.6670287,2.6670287 0 1 1 -5.32,0.387 1.457,1.457 0 0 1 -0.005,-0.107" />
  </g>
</svg>
