<svg width="180" height="255" xmlns="http://www.w3.org/2000/svg">
    <title>
        tan-single
    </title>
    <g fill="none" fill-rule="evenodd">
        <path d="M175.88 208.28c0 23.76-19.269 43.013-43.022 43.013h-86.03c-23.767 0-43.009-19.253-43.009-43.013v-89.294c0-47.52 38.511-86.04 86.017-86.04 47.52 0 86.044 38.52 86.044 86.04v89.294" fill="#FFF" fill-rule="nonzero"/>
        <path d="M175.88 208.28c0 23.76-19.269 43.013-43.022 43.013h-86.03c-23.767 0-43.009-19.253-43.009-43.013v-89.294c0-47.52 38.511-86.04 86.017-86.04 47.52 0 86.044 38.52 86.044 86.04v89.294z" stroke="#231F20" stroke-width="6.667"/>
        <path d="M89.934 29.253c-35.987 0-65.16 12.907-65.16 28.827 0 12.573 18.177 23.253 43.522 27.2l21.638-14.908 21.625 14.907c25.345-3.946 43.522-14.626 43.522-27.2 0-15.919-29.173-28.826-65.147-28.826" fill="#FFF" fill-rule="nonzero"/>
        <path d="M89.928 26.59c5.567-.027 11.149.253 16.703.867 5.554.64 11.095 1.507 16.567 2.854 5.459 1.347 10.877 3.08 16.09 5.506 2.592 1.227 5.158 2.613 7.587 4.293 2.43 1.68 4.763 3.626 6.769 6.014 2.006 2.386 3.712 5.306 4.421 8.666.082.413.137.84.205 1.266.055.414.11.987.123 1.347l.014.507c0 .36-.014.466-.014.72-.027.427-.027.867-.096 1.28a16.436 16.436 0 0 1-1.31 4.906c-1.31 3.068-3.33 5.587-5.513 7.72-2.21 2.107-4.626 3.881-7.137 5.4-5.008 3.027-10.344 5.2-15.762 6.92-5.404 1.694-10.945 2.867-16.499 3.72l-.136.014a3.094 3.094 0 0 1-2.266-.56L88.413 72.578h3.016L70.18 88.031a3.13 3.13 0 0 1-2.265.56l-.15-.015c-5.541-.853-11.082-2.026-16.5-3.72-5.417-1.72-10.753-3.893-15.761-6.92-2.511-1.519-4.927-3.293-7.137-5.4-2.184-2.133-4.204-4.652-5.527-7.72-.328-.759-.587-1.572-.833-2.387l-.286-1.239c-.069-.427-.123-.92-.191-1.386-.069-.534-.055-.76-.069-1.134l-.013-.253-.014-.133v-.293l.014-.655a17.81 17.81 0 0 1 .34-2.546c.697-3.36 2.403-6.28 4.409-8.666 2.02-2.388 4.34-4.334 6.768-6.014 2.43-1.68 4.981-3.066 7.588-4.293 5.213-2.426 10.63-4.16 16.09-5.506 5.472-1.347 11.012-2.214 16.566-2.854a134.19 134.19 0 0 1 8.339-.667 147.27 147.27 0 0 1 8.351-.2h.028zm.013 5.334c-2.743.013-5.377.092-8.079.253-2.688.16-5.363.4-8.024.706a113.738 113.738 0 0 0-15.762 3.015c-5.144 1.386-10.166 3.159-14.847 5.479-4.626 2.333-9.02 5.213-12.023 8.88-1.474 1.827-2.538 3.84-2.92 5.866a9.616 9.616 0 0 0-.178 1.52l-.013.388v-.08.16l.013.253c.028.32.028.772.068.92.055.213.055.4.11.64l.177.76c.164.506.3.999.532 1.493.846 1.973 2.293 3.84 4.026 5.52 1.774 1.666 3.794 3.16 5.977 4.467 4.38 2.627 9.266 4.626 14.302 6.2 5.022 1.573 10.221 2.772 15.489 3.627l-2.402.545L88.413 68.19a2.726 2.726 0 0 1 3.016 0l22.012 14.346-2.388-.545c5.254-.855 10.467-2.054 15.489-3.628 5.035-1.573 9.92-3.572 14.301-6.2 2.184-1.305 4.217-2.8 5.978-4.466 1.733-1.68 3.18-3.547 4.025-5.52.437-.987.724-1.987.833-3.013.04-.24.027-.507.04-.76l.014-.307-.013-.507c0-.333-.014-.44-.041-.707-.041-.253-.068-.506-.123-.76-.382-2.026-1.447-4.04-2.92-5.866-3.003-3.667-7.397-6.547-12.023-8.88-4.667-2.32-9.703-4.093-14.848-5.48a113.738 113.738 0 0 0-15.762-3.014 144.085 144.085 0 0 0-16.075-.96h.013z" fill="#231F20" fill-rule="nonzero"/>
        <path d="M75.385 37.733s.014 1 .054 2.761c.013.84.04 1.853.053 3.013.027.307.053.613.08.946.027.307.027.693.093.893.107.481.174.987.374 1.588.334 1.173.881 2.4 1.696 3.56a14.428 14.428 0 0 0 3.043 3.226 14.915 14.915 0 0 0 4.232 2.227c.387.133.788.252 1.188.334.414.092.801.213 1.228.252.414.04.828.134 1.242.147l.627.027.32.013.16.013h.12l.014.014c-.053 0 .16-.014-.12 0l1.495-.067c.507-.027.788-.107 1.188-.147.36-.027.774-.16 1.175-.252.4-.082.8-.2 1.188-.334a14.992 14.992 0 0 0 4.245-2.227 14.428 14.428 0 0 0 3.044-3.226 11.856 11.856 0 0 0 1.695-3.56c.374-1.16.467-2.294.534-3.28.027-1.227.053-2.28.067-3.16.026-1.76.066-2.76.066-2.76a2.657 2.657 0 0 1 2.71-2.614 2.702 2.702 0 0 1 2.617 2.613s.013 1 .053 2.761c.013.88.04 1.946.054 3.173-.014 1.426-.107 3.08-.615 4.8a16.915 16.915 0 0 1-2.336 5.227c-1.108 1.706-2.523 3.333-4.271 4.693a20.881 20.881 0 0 1-5.94 3.187c-.548.2-1.095.372-1.656.492-.574.134-1.108.294-1.749.374-.574.08-1.281.2-1.775.227l-1.509.067h-.36l-.214-.014-.44-.013-.868-.053c-.587-.027-1.161-.147-1.735-.227-.574-.054-1.135-.227-1.696-.36a11.974 11.974 0 0 1-1.668-.493 20.986 20.986 0 0 1-5.927-3.187 19.186 19.186 0 0 1-4.285-4.693 16.87 16.87 0 0 1-2.323-5.228c-.254-.826-.4-1.76-.508-2.626-.08-.48-.053-.76-.08-1.093 0-.32-.013-.64-.026-.946.026-1.28.04-2.387.053-3.307.04-1.76.067-2.76.067-2.76a2.657 2.657 0 0 1 2.71-2.614 2.702 2.702 0 0 1 2.616 2.613" fill="#231F20" fill-rule="nonzero"/>
        <path d="M128.458 21.87c0 10.014-17.26 18.122-38.53 18.122-21.3 0-38.545-8.108-38.545-18.121 0-10.013 17.246-18.12 38.544-18.12 21.272 0 38.531 8.107 38.531 18.12" fill="#FFF" fill-rule="nonzero"/>
        <path d="M125.144 21.864s-.013-.107-.027-.32c0-.214-.054-.534-.135-.946-.202-.827-.714-2.094-2.05-3.587-1.32-1.48-3.491-3.107-6.323-4.533-2.858-1.441-6.364-2.694-10.342-3.614-3.964-.92-8.44-1.534-13.146-1.72-4.746-.188-9.762.027-14.832.813-5.056.8-10.247 2.16-14.872 4.454-2.306 1.133-4.45 2.533-6.095 4.186-1.645 1.667-2.602 3.52-2.602 5.267-.027 1.747.917 3.627 2.548 5.307 1.632 1.68 3.776 3.12 6.081 4.28 4.625 2.334 9.816 3.76 14.9 4.6a71.17 71.17 0 0 0 7.564.813 84.43 84.43 0 0 0 3.721.12c1.173 0 2.414-.027 3.6-.08 4.747-.2 9.21-.826 13.187-1.813 3.991-.96 7.497-2.254 10.342-3.72 2.832-1.454 4.989-3.107 6.31-4.614 1.335-1.52 1.834-2.786 2.023-3.614.135-.44.148-1.546.148-1.452v.173zm6.661.174l-.04.532c0 .215-.095 1.173-.324 2.108-.405 1.786-1.537 4.239-3.614 6.466-4.112 4.48-11.285 8.04-20.103 9.974a80.25 80.25 0 0 1-14.347 1.812c-1.294.054-2.562.054-3.91.054a82.89 82.89 0 0 1-3.964-.093 83.497 83.497 0 0 1-8.198-.814c-5.555-.84-11.272-2.226-16.8-4.907-2.751-1.345-5.475-3.025-7.888-5.426-1.2-1.2-2.306-2.6-3.156-4.267-.849-1.667-1.388-3.614-1.402-5.613l.04-.72c.014-.2 0-.28.041-.614.081-.532.162-1.173.297-1.599.229-.946.566-1.867.998-2.694.835-1.68 1.941-3.093 3.128-4.306 2.4-2.414 5.123-4.12 7.888-5.494 5.514-2.72 11.245-4.173 16.813-5.067C82.82.503 88.267.277 93.377.478c5.164.213 9.991.867 14.4 1.893 8.832 2.04 16.005 5.653 20.104 10.173 2.063 2.24 3.182 4.707 3.573 6.507.203.893.297 1.6.31 2.08.028.48.041.733.041.733v.174z" fill="#231F20" fill-rule="nonzero"/>
    </g>
</svg>
