<svg width="180" height="372" xmlns="http://www.w3.org/2000/svg">
    <title>
        tan-vertical
    </title>
    <g fill="none" fill-rule="evenodd">
        <path d="M176.083 325.067c0 23.76-19.259 43.013-43.016 43.013H47.035c-23.756 0-43.016-19.253-43.016-43.013V119.333c0-47.52 38.518-86.026 86.032-86.026 47.514 0 86.032 38.506 86.032 86.026v205.734" fill="#FFF" fill-rule="nonzero"/>
        <path d="M176.083 325.067c0 23.76-19.259 43.013-43.016 43.013H47.035c-23.756 0-43.016-19.253-43.016-43.013V119.333c0-47.52 38.518-86.026 86.032-86.026 47.514 0 86.032 38.506 86.032 86.026v205.734z" stroke="#231F20" stroke-width="6.667"/>
        <path d="M90.136 29.6c-35.984 0-65.155 12.907-65.155 28.827 0 12.573 18.172 23.253 43.518 27.2l21.637-14.894 21.637 14.894c25.344-3.947 43.518-14.627 43.518-27.2 0-15.92-29.171-28.827-65.155-28.827" fill="#FFF" fill-rule="nonzero"/>
        <path d="M90.136 26.933a146.18 146.18 0 0 1 16.713.867c5.551.64 11.095 1.507 16.563 2.853 5.465 1.347 10.876 3.08 16.088 5.52 2.6 1.214 5.16 2.6 7.59 4.28 2.426 1.68 4.753 3.627 6.77 6.014 1.996 2.386 3.705 5.306 4.408 8.666a16.128 16.128 0 0 1 .337 2.614l.016.506c.007.374-.012.48-.017.72-.025.427-.02.867-.09 1.294a16.635 16.635 0 0 1-1.307 4.893c-1.316 3.08-3.332 5.587-5.522 7.72-2.214 2.107-4.626 3.88-7.129 5.4-5.017 3.027-10.347 5.2-15.759 6.92-5.421 1.693-10.954 2.867-16.509 3.72h-.001l-.134.013a3.127 3.127 0 0 1-2.27-.56L88.624 72.92h3.024L70.389 88.373a3.183 3.183 0 0 1-2.262.574l-.142-.027h-.001c-5.556-.853-11.088-2.027-16.51-3.72-5.411-1.72-10.74-3.893-15.758-6.92-2.504-1.52-4.916-3.293-7.13-5.4-2.189-2.133-4.206-4.64-5.52-7.72-.338-.76-.598-1.573-.84-2.373l-.28-1.254c-.09-.426-.14-.92-.2-1.386-.073-.534-.053-.76-.077-1.134l-.012-.253-.005-.133-.005-.214.002-.08.019-.64c.05-.866.15-1.72.335-2.56.704-3.36 2.412-6.28 4.408-8.666 2.018-2.387 4.344-4.334 6.77-6.014 2.431-1.68 4.991-3.066 7.591-4.28 5.212-2.44 10.623-4.173 16.087-5.52 5.469-1.346 11.012-2.213 16.564-2.853a146.07 146.07 0 0 1 8.349-.667c2.764-.146 5.616-.213 8.35-.2h.014zm.015 5.334c-2.747.013-5.374.093-8.079.253-2.683.16-5.36.4-8.027.72a109.988 109.988 0 0 0-15.754 3.013c-5.144 1.374-10.168 3.147-14.838 5.467-4.625 2.333-9.028 5.213-12.03 8.88-1.476 1.84-2.54 3.84-2.919 5.867a9.675 9.675 0 0 0-.176 1.52l-.01.386-.002.04-.003-.12.002.04.005.12.012.267c.023.307.019.76.068.907.043.213.048.4.103.653l.17.747c.16.506.315 1 .538 1.493.845 1.987 2.293 3.853 4.03 5.52 1.762 1.667 3.787 3.16 5.972 4.467 4.379 2.626 9.267 4.626 14.296 6.2 5.038 1.586 10.235 2.773 15.502 3.626h.001l-2.404.547 22.015-14.347a2.767 2.767 0 0 1 3.025 0l22.015 14.347-2.403-.547h.001c5.266-.853 10.463-2.04 15.5-3.626 5.031-1.574 9.918-3.574 14.298-6.2 2.184-1.307 4.21-2.8 5.972-4.467 1.737-1.667 3.185-3.533 4.029-5.52a9.916 9.916 0 0 0 .823-3c.052-.253.033-.507.054-.773l.018-.294-.014-.52c-.016-.333-.029-.44-.054-.706-.034-.254-.064-.507-.119-.76-.379-2.027-1.443-4.027-2.92-5.867-3.003-3.667-7.405-6.547-12.03-8.88-4.67-2.32-9.693-4.093-14.837-5.467a110.042 110.042 0 0 0-15.756-3.013c-5.33-.64-10.708-.947-16.089-.973h.015z" fill="#231F20" fill-rule="nonzero"/>
        <path d="M75.59 38.08l.054 2.76.063 3.013.07.947c.027.307.035.693.103.893.105.48.163.987.37 1.587.329 1.173.877 2.4 1.689 3.56a14.649 14.649 0 0 0 3.046 3.227c2.475 1.893 5.78 3.026 9.151 3.026l1.359-.066c.505-.014.781-.107 1.184-.147.358-.027.781-.16 1.181-.24a8.94 8.94 0 0 0 1.188-.347 14.993 14.993 0 0 0 4.239-2.226 14.649 14.649 0 0 0 3.046-3.227 11.746 11.746 0 0 0 1.688-3.56c.376-1.16.464-2.293.54-3.28l.066-3.16.056-2.76a2.654 2.654 0 0 1 2.721-2.6 2.664 2.664 0 0 1 2.612 2.6l.056 2.76.063 3.173c-.026 1.44-.111 3.094-.616 4.8a17.452 17.452 0 0 1-2.334 5.24 19.541 19.541 0 0 1-4.28 4.68 20.469 20.469 0 0 1-5.938 3.187c-.542.2-1.092.373-1.659.507-.568.133-1.103.293-1.74.36-.588.08-1.293.2-1.79.226l-1.642.08c-4.661-.026-9.293-1.64-12.77-4.36a19.507 19.507 0 0 1-4.28-4.68 17.49 17.49 0 0 1-2.334-5.24c-.252-.826-.395-1.746-.503-2.626-.074-.467-.058-.747-.076-1.094l-.032-.933.059-3.32.056-2.76a2.654 2.654 0 0 1 2.72-2.6 2.666 2.666 0 0 1 2.613 2.6" fill="#231F20" fill-rule="nonzero"/>
        <path d="M128.673 22.213c0 10.014-17.253 18.134-38.537 18.134s-38.537-8.12-38.537-18.134c0-10.013 17.253-18.12 38.537-18.12s38.537 8.107 38.537 18.12" fill="#FFF" fill-rule="nonzero"/>
        <path d="M125.34 22.213l-.023-.32c.003-.213-.049-.533-.137-.946-.195-.827-.7-2.094-2.04-3.587-1.339-1.48-3.492-3.107-6.337-4.533-2.842-1.44-6.352-2.694-10.33-3.614-3.97-.92-8.432-1.533-13.138-1.72-4.756-.186-9.763.027-14.846.814-5.057.8-10.241 2.16-14.873 4.453-2.304 1.133-4.453 2.547-6.09 4.2-1.649 1.653-2.595 3.507-2.594 5.253-.025 1.747.904 3.627 2.545 5.307 1.628 1.68 3.775 3.12 6.078 4.28 4.632 2.333 9.818 3.76 14.89 4.613 2.547.4 5.083.667 7.574.8 1.228.067 2.425.107 3.722.12 1.18.014 2.416-.013 3.594-.066 4.75-.214 9.212-.84 13.193-1.814 3.983-.973 7.495-2.266 10.335-3.733 2.845-1.453 4.994-3.107 6.325-4.613 1.33-1.507 1.823-2.787 2.008-3.614.136-.44.145-1.546.15-1.453l-.006.173zm6.661.187l-.032.52c.002.213-.096 1.187-.32 2.107-.413 1.786-1.55 4.24-3.61 6.466-4.119 4.48-11.299 8.04-20.106 9.987a81.702 81.702 0 0 1-14.356 1.8 75.397 75.397 0 0 1-3.908.053c-1.236 0-2.602-.026-3.962-.093a80.049 80.049 0 0 1-8.203-.813c-5.545-.84-11.27-2.227-16.799-4.907-2.753-1.347-5.474-3.027-7.886-5.413-1.195-1.2-2.307-2.614-3.152-4.28-.844-1.654-1.387-3.614-1.402-5.614l.034-.72c.017-.2.001-.28.049-.613.079-.533.153-1.173.29-1.6.237-.947.57-1.867.998-2.693.836-1.68 1.943-3.094 3.133-4.307 2.404-2.413 5.123-4.12 7.875-5.493C66.172 4.067 71.9 2.613 77.46 1.72 83.024.853 88.472.627 93.577.827c5.16.213 9.99.866 14.411 1.893 8.816 2.04 15.996 5.653 20.097 10.173 2.052 2.24 3.176 4.707 3.58 6.507.202.893.294 1.613.307 2.093l.035.72-.006.187z" fill="#231F20" fill-rule="nonzero"/>
    </g>
</svg>
