<?xml version="1.0" encoding="UTF-8" standalone="no"?>
<svg
   xmlns:dc="http://purl.org/dc/elements/1.1/"
   xmlns:cc="http://creativecommons.org/ns#"
   xmlns:rdf="http://www.w3.org/1999/02/22-rdf-syntax-ns#"
   xmlns:svg="http://www.w3.org/2000/svg"
   xmlns="http://www.w3.org/2000/svg"
   id="svg342"
   version="1.1"
   height="178.728"
   width="254.21689">
  <metadata
     id="metadata348">
    <rdf:RDF>
      <cc:Work
         rdf:about="">
        <dc:format>image/svg+xml</dc:format>
        <dc:type
           rdf:resource="http://purl.org/dc/dcmitype/StillImage" />
        <dc:title>
        tan-single
    </dc:title>
      </cc:Work>
    </rdf:RDF>
  </metadata>
  <defs
     id="defs346" />
  <title
     id="title324">
        tan-single
    </title>
  <g
     style="fill:none;fill-rule:evenodd"
     transform="rotate(-90,89.401946,89.811553)"
     id="g340">
    <path
       style="fill:#ffffff;fill-rule:nonzero"
       id="path326"
       d="m 175.88,208.28 c 0,23.76 -19.269,43.013 -43.022,43.013 H 46.828 C 23.061,251.293 3.819,232.04 3.819,208.28 v -89.294 c 0,-47.52 38.511,-86.04 86.017,-86.04 47.52,0 86.044,38.52 86.044,86.04 v 89.294" />
    <path
       style="stroke:#231f20;stroke-width:6.66699982"
       id="path328"
       d="m 175.88,208.28 c 0,23.76 -19.269,43.013 -43.022,43.013 H 46.828 C 23.061,251.293 3.819,232.04 3.819,208.28 v -89.294 c 0,-47.52 38.511,-86.04 86.017,-86.04 47.52,0 86.044,38.52 86.044,86.04 z" />
    <path
       style="fill:#ffffff;fill-rule:nonzero"
       id="path330"
       d="m 89.934,29.253 c -35.987,0 -65.16,12.907 -65.16,28.827 0,12.573 18.177,23.253 43.522,27.2 l 21.638,-14.908 21.625,14.907 c 25.345,-3.946 43.522,-14.626 43.522,-27.2 0,-15.919 -29.173,-28.826 -65.147,-28.826" />
    <path
       style="fill:#231f20;fill-rule:nonzero"
       id="path332"
       d="m 89.928,26.59 c 5.567,-0.027 11.149,0.253 16.703,0.867 5.554,0.64 11.095,1.507 16.567,2.854 5.459,1.347 10.877,3.08 16.09,5.506 2.592,1.227 5.158,2.613 7.587,4.293 2.43,1.68 4.763,3.626 6.769,6.014 2.006,2.386 3.712,5.306 4.421,8.666 0.082,0.413 0.137,0.84 0.205,1.266 0.055,0.414 0.11,0.987 0.123,1.347 l 0.014,0.507 c 0,0.36 -0.014,0.466 -0.014,0.72 -0.027,0.427 -0.027,0.867 -0.096,1.28 a 16.436,16.436 0 0 1 -1.31,4.906 c -1.31,3.068 -3.33,5.587 -5.513,7.72 -2.21,2.107 -4.626,3.881 -7.137,5.4 -5.008,3.027 -10.344,5.2 -15.762,6.92 -5.404,1.694 -10.945,2.867 -16.499,3.72 l -0.136,0.014 a 3.094,3.094 0 0 1 -2.266,-0.56 L 88.413,72.578 h 3.016 L 70.18,88.031 a 3.13,3.13 0 0 1 -2.265,0.56 l -0.15,-0.015 c -5.541,-0.853 -11.082,-2.026 -16.5,-3.72 -5.417,-1.72 -10.753,-3.893 -15.761,-6.92 -2.511,-1.519 -4.927,-3.293 -7.137,-5.4 -2.184,-2.133 -4.204,-4.652 -5.527,-7.72 -0.328,-0.759 -0.587,-1.572 -0.833,-2.387 L 21.721,61.19 C 21.652,60.763 21.598,60.27 21.53,59.804 21.461,59.27 21.475,59.044 21.461,58.67 l -0.013,-0.253 -0.014,-0.133 v -0.293 l 0.014,-0.655 a 17.81,17.81 0 0 1 0.34,-2.546 c 0.697,-3.36 2.403,-6.28 4.409,-8.666 2.02,-2.388 4.34,-4.334 6.768,-6.014 2.43,-1.68 4.981,-3.066 7.588,-4.293 5.213,-2.426 10.63,-4.16 16.09,-5.506 5.472,-1.347 11.012,-2.214 16.566,-2.854 a 134.19,134.19 0 0 1 8.339,-0.667 147.27,147.27 0 0 1 8.351,-0.2 h 0.028 z m 0.013,5.334 c -2.743,0.013 -5.377,0.092 -8.079,0.253 -2.688,0.16 -5.363,0.4 -8.024,0.706 a 113.738,113.738 0 0 0 -15.762,3.015 c -5.144,1.386 -10.166,3.159 -14.847,5.479 -4.626,2.333 -9.02,5.213 -12.023,8.88 -1.474,1.827 -2.538,3.84 -2.92,5.866 a 9.616,9.616 0 0 0 -0.178,1.52 l -0.013,0.388 v -0.08 0.16 l 0.013,0.253 c 0.028,0.32 0.028,0.772 0.068,0.92 0.055,0.213 0.055,0.4 0.11,0.64 l 0.177,0.76 c 0.164,0.506 0.3,0.999 0.532,1.493 0.846,1.973 2.293,3.84 4.026,5.52 1.774,1.666 3.794,3.16 5.977,4.467 4.38,2.627 9.266,4.626 14.302,6.2 5.022,1.573 10.221,2.772 15.489,3.627 L 66.387,82.536 88.413,68.19 a 2.726,2.726 0 0 1 3.016,0 l 22.012,14.346 -2.388,-0.545 c 5.254,-0.855 10.467,-2.054 15.489,-3.628 5.035,-1.573 9.92,-3.572 14.301,-6.2 2.184,-1.305 4.217,-2.8 5.978,-4.466 1.733,-1.68 3.18,-3.547 4.025,-5.52 0.437,-0.987 0.724,-1.987 0.833,-3.013 0.04,-0.24 0.027,-0.507 0.04,-0.76 l 0.014,-0.307 -0.013,-0.507 c 0,-0.333 -0.014,-0.44 -0.041,-0.707 -0.041,-0.253 -0.068,-0.506 -0.123,-0.76 -0.382,-2.026 -1.447,-4.04 -2.92,-5.866 -3.003,-3.667 -7.397,-6.547 -12.023,-8.88 -4.667,-2.32 -9.703,-4.093 -14.848,-5.48 a 113.738,113.738 0 0 0 -15.762,-3.014 144.085,144.085 0 0 0 -16.075,-0.96 h 0.013 z" />
    <path
       style="fill:#231f20;fill-rule:nonzero"
       id="path334"
       d="m 75.385,37.733 c 0,0 0.014,1 0.054,2.761 0.013,0.84 0.04,1.853 0.053,3.013 0.027,0.307 0.053,0.613 0.08,0.946 0.027,0.307 0.027,0.693 0.093,0.893 0.107,0.481 0.174,0.987 0.374,1.588 0.334,1.173 0.881,2.4 1.696,3.56 a 14.428,14.428 0 0 0 3.043,3.226 14.915,14.915 0 0 0 4.232,2.227 c 0.387,0.133 0.788,0.252 1.188,0.334 0.414,0.092 0.801,0.213 1.228,0.252 0.414,0.04 0.828,0.134 1.242,0.147 l 0.627,0.027 0.32,0.013 0.16,0.013 h 0.12 l 0.014,0.014 c -0.053,0 0.16,-0.014 -0.12,0 l 1.495,-0.067 c 0.507,-0.027 0.788,-0.107 1.188,-0.147 0.36,-0.027 0.774,-0.16 1.175,-0.252 0.4,-0.082 0.8,-0.2 1.188,-0.334 a 14.992,14.992 0 0 0 4.245,-2.227 14.428,14.428 0 0 0 3.044,-3.226 11.856,11.856 0 0 0 1.695,-3.56 c 0.374,-1.16 0.467,-2.294 0.534,-3.28 0.027,-1.227 0.053,-2.28 0.067,-3.16 0.026,-1.76 0.066,-2.76 0.066,-2.76 a 2.657,2.657 0 0 1 2.71,-2.614 2.702,2.702 0 0 1 2.617,2.613 c 0,0 0.013,1 0.053,2.761 0.013,0.88 0.04,1.946 0.054,3.173 -0.014,1.426 -0.107,3.08 -0.615,4.8 a 16.915,16.915 0 0 1 -2.336,5.227 c -1.108,1.706 -2.523,3.333 -4.271,4.693 a 20.881,20.881 0 0 1 -5.94,3.187 c -0.548,0.2 -1.095,0.372 -1.656,0.492 -0.574,0.134 -1.108,0.294 -1.749,0.374 -0.574,0.08 -1.281,0.2 -1.775,0.227 l -1.509,0.067 h -0.36 L 89.495,62.72 89.055,62.707 88.187,62.654 C 87.6,62.627 87.026,62.507 86.452,62.427 85.878,62.373 85.317,62.2 84.756,62.067 a 11.974,11.974 0 0 1 -1.668,-0.493 20.986,20.986 0 0 1 -5.927,-3.187 19.186,19.186 0 0 1 -4.285,-4.693 16.87,16.87 0 0 1 -2.323,-5.228 c -0.254,-0.826 -0.4,-1.76 -0.508,-2.626 -0.08,-0.48 -0.053,-0.76 -0.08,-1.093 0,-0.32 -0.013,-0.64 -0.026,-0.946 0.026,-1.28 0.04,-2.387 0.053,-3.307 0.04,-1.76 0.067,-2.76 0.067,-2.76 a 2.657,2.657 0 0 1 2.71,-2.614 2.702,2.702 0 0 1 2.616,2.613" />
    <path
       style="fill:#ffffff;fill-rule:nonzero"
       id="path336"
       d="m 128.458,21.87 c 0,10.014 -17.26,18.122 -38.53,18.122 -21.3,0 -38.545,-8.108 -38.545,-18.121 0,-10.013 17.246,-18.12 38.544,-18.12 21.272,0 38.531,8.107 38.531,18.12" />
    <path
       style="fill:#231f20;fill-rule:nonzero"
       id="path338"
       d="m 125.144,21.864 c 0,0 -0.013,-0.107 -0.027,-0.32 0,-0.214 -0.054,-0.534 -0.135,-0.946 -0.202,-0.827 -0.714,-2.094 -2.05,-3.587 -1.32,-1.48 -3.491,-3.107 -6.323,-4.533 -2.858,-1.441 -6.364,-2.694 -10.342,-3.614 -3.964,-0.92 -8.44,-1.534 -13.146,-1.72 -4.746,-0.188 -9.762,0.027 -14.832,0.813 -5.056,0.8 -10.247,2.16 -14.872,4.454 -2.306,1.133 -4.45,2.533 -6.095,4.186 -1.645,1.667 -2.602,3.52 -2.602,5.267 -0.027,1.747 0.917,3.627 2.548,5.307 1.632,1.68 3.776,3.12 6.081,4.28 4.625,2.334 9.816,3.76 14.9,4.6 a 71.17,71.17 0 0 0 7.564,0.813 84.43,84.43 0 0 0 3.721,0.12 c 1.173,0 2.414,-0.027 3.6,-0.08 4.747,-0.2 9.21,-0.826 13.187,-1.813 3.991,-0.96 7.497,-2.254 10.342,-3.72 2.832,-1.454 4.989,-3.107 6.31,-4.614 1.335,-1.52 1.834,-2.786 2.023,-3.614 0.135,-0.44 0.148,-1.546 0.148,-1.452 z m 6.661,0.174 -0.04,0.532 c 0,0.215 -0.095,1.173 -0.324,2.108 -0.405,1.786 -1.537,4.239 -3.614,6.466 -4.112,4.48 -11.285,8.04 -20.103,9.974 A 80.25,80.25 0 0 1 93.377,42.93 c -1.294,0.054 -2.562,0.054 -3.91,0.054 a 82.89,82.89 0 0 1 -3.964,-0.093 83.497,83.497 0 0 1 -8.198,-0.814 c -5.555,-0.84 -11.272,-2.226 -16.8,-4.907 -2.751,-1.345 -5.475,-3.025 -7.888,-5.426 -1.2,-1.2 -2.306,-2.6 -3.156,-4.267 -0.849,-1.667 -1.388,-3.614 -1.402,-5.613 l 0.04,-0.72 c 0.014,-0.2 0,-0.28 0.041,-0.614 0.081,-0.532 0.162,-1.173 0.297,-1.599 0.229,-0.946 0.566,-1.867 0.998,-2.694 0.835,-1.68 1.941,-3.093 3.128,-4.306 2.4,-2.414 5.123,-4.12 7.888,-5.494 C 65.965,3.717 71.696,2.264 77.264,1.37 82.82,0.503 88.267,0.277 93.377,0.478 c 5.164,0.213 9.991,0.867 14.4,1.893 8.832,2.04 16.005,5.653 20.104,10.173 2.063,2.24 3.182,4.707 3.573,6.507 0.203,0.893 0.297,1.6 0.31,2.08 0.028,0.48 0.041,0.733 0.041,0.733 z" />
  </g>
</svg>
