<?xml version="1.0" encoding="UTF-8" standalone="no"?>
<svg
   xmlns:dc="http://purl.org/dc/elements/1.1/"
   xmlns:cc="http://creativecommons.org/ns#"
   xmlns:rdf="http://www.w3.org/1999/02/22-rdf-syntax-ns#"
   xmlns:svg="http://www.w3.org/2000/svg"
   xmlns="http://www.w3.org/2000/svg"
   id="svg232"
   version="1.1"
   height="178.731"
   width="370.65436">
  <metadata
     id="metadata238">
    <rdf:RDF>
      <cc:Work
         rdf:about="">
        <dc:format>image/svg+xml</dc:format>
        <dc:type
           rdf:resource="http://purl.org/dc/dcmitype/StillImage" />
        <dc:title>
        tan-vertical
    </dc:title>
      </cc:Work>
    </rdf:RDF>
  </metadata>
  <defs
     id="defs236" />
  <title
     id="title214">
        tan-vertical
    </title>
  <g
     style="fill:none;fill-rule:evenodd"
     transform="rotate(-90,89.328681,90.087819)"
     id="g230">
    <path
       style="fill:#ffffff;fill-rule:nonzero"
       id="path216"
       d="m 176.083,325.067 c 0,23.76 -19.259,43.013 -43.016,43.013 H 47.035 C 23.279,368.08 4.019,348.827 4.019,325.067 V 119.333 c 0,-47.52 38.518,-86.026 86.032,-86.026 47.514,0 86.032,38.506 86.032,86.026 v 205.734" />
    <path
       style="stroke:#231f20;stroke-width:6.66699982"
       id="path218"
       d="m 176.083,325.067 c 0,23.76 -19.259,43.013 -43.016,43.013 H 47.035 C 23.279,368.08 4.019,348.827 4.019,325.067 V 119.333 c 0,-47.52 38.518,-86.026 86.032,-86.026 47.514,0 86.032,38.506 86.032,86.026 z" />
    <path
       style="fill:#ffffff;fill-rule:nonzero"
       id="path220"
       d="m 90.136,29.6 c -35.984,0 -65.155,12.907 -65.155,28.827 0,12.573 18.172,23.253 43.518,27.2 L 90.136,70.733 111.773,85.627 C 137.117,81.68 155.291,71 155.291,58.427 155.291,42.507 126.12,29.6 90.136,29.6" />
    <path
       style="fill:#231f20;fill-rule:nonzero"
       id="path222"
       d="m 90.136,26.933 a 146.18,146.18 0 0 1 16.713,0.867 c 5.551,0.64 11.095,1.507 16.563,2.853 5.465,1.347 10.876,3.08 16.088,5.52 2.6,1.214 5.16,2.6 7.59,4.28 2.426,1.68 4.753,3.627 6.77,6.014 1.996,2.386 3.705,5.306 4.408,8.666 a 16.128,16.128 0 0 1 0.337,2.614 l 0.016,0.506 c 0.007,0.374 -0.012,0.48 -0.017,0.72 -0.025,0.427 -0.02,0.867 -0.09,1.294 a 16.635,16.635 0 0 1 -1.307,4.893 c -1.316,3.08 -3.332,5.587 -5.522,7.72 -2.214,2.107 -4.626,3.88 -7.129,5.4 -5.017,3.027 -10.347,5.2 -15.759,6.92 -5.421,1.693 -10.954,2.867 -16.509,3.72 h -10e-4 l -0.134,0.013 a 3.127,3.127 0 0 1 -2.27,-0.56 L 88.624,72.92 h 3.024 L 70.389,88.373 a 3.183,3.183 0 0 1 -2.262,0.574 L 67.985,88.92 H 67.984 C 62.428,88.067 56.896,86.893 51.474,85.2 46.063,83.48 40.734,81.307 35.716,78.28 33.212,76.76 30.8,74.987 28.586,72.88 26.397,70.747 24.38,68.24 23.066,65.16 22.728,64.4 22.468,63.587 22.226,62.787 l -0.28,-1.254 c -0.09,-0.426 -0.14,-0.92 -0.2,-1.386 -0.073,-0.534 -0.053,-0.76 -0.077,-1.134 l -0.012,-0.253 -0.005,-0.133 -0.005,-0.214 0.002,-0.08 0.019,-0.64 c 0.05,-0.866 0.15,-1.72 0.335,-2.56 0.704,-3.36 2.412,-6.28 4.408,-8.666 2.018,-2.387 4.344,-4.334 6.77,-6.014 2.431,-1.68 4.991,-3.066 7.591,-4.28 C 45.984,33.733 51.395,32 56.859,30.653 62.328,29.307 67.871,28.44 73.423,27.8 a 146.07,146.07 0 0 1 8.349,-0.667 c 2.764,-0.146 5.616,-0.213 8.35,-0.2 z m 0.015,5.334 c -2.747,0.013 -5.374,0.093 -8.079,0.253 -2.683,0.16 -5.36,0.4 -8.027,0.72 a 109.988,109.988 0 0 0 -15.754,3.013 c -5.144,1.374 -10.168,3.147 -14.838,5.467 -4.625,2.333 -9.028,5.213 -12.03,8.88 -1.476,1.84 -2.54,3.84 -2.919,5.867 a 9.675,9.675 0 0 0 -0.176,1.52 l -0.01,0.386 -0.002,0.04 -0.003,-0.12 0.002,0.04 0.005,0.12 0.012,0.267 c 0.023,0.307 0.019,0.76 0.068,0.907 0.043,0.213 0.048,0.4 0.103,0.653 l 0.17,0.747 c 0.16,0.506 0.315,1 0.538,1.493 0.845,1.987 2.293,3.853 4.03,5.52 1.762,1.667 3.787,3.16 5.972,4.467 4.379,2.626 9.267,4.626 14.296,6.2 5.038,1.586 10.235,2.773 15.502,3.626 h 0.001 L 66.608,82.88 88.623,68.533 a 2.767,2.767 0 0 1 3.025,0 l 22.015,14.347 -2.403,-0.547 h 10e-4 c 5.266,-0.853 10.463,-2.04 15.5,-3.626 5.031,-1.574 9.918,-3.574 14.298,-6.2 2.184,-1.307 4.21,-2.8 5.972,-4.467 1.737,-1.667 3.185,-3.533 4.029,-5.52 a 9.916,9.916 0 0 0 0.823,-3 c 0.052,-0.253 0.033,-0.507 0.054,-0.773 l 0.018,-0.294 -0.014,-0.52 c -0.016,-0.333 -0.029,-0.44 -0.054,-0.706 -0.034,-0.254 -0.064,-0.507 -0.119,-0.76 -0.379,-2.027 -1.443,-4.027 -2.92,-5.867 -3.003,-3.667 -7.405,-6.547 -12.03,-8.88 -4.67,-2.32 -9.693,-4.093 -14.837,-5.467 A 110.042,110.042 0 0 0 106.225,33.24 C 100.895,32.6 95.517,32.293 90.136,32.267 Z" />
    <path
       style="fill:#231f20;fill-rule:nonzero"
       id="path224"
       d="m 75.59,38.08 0.054,2.76 0.063,3.013 0.07,0.947 c 0.027,0.307 0.035,0.693 0.103,0.893 0.105,0.48 0.163,0.987 0.37,1.587 0.329,1.173 0.877,2.4 1.689,3.56 a 14.649,14.649 0 0 0 3.046,3.227 c 2.475,1.893 5.78,3.026 9.151,3.026 l 1.359,-0.066 C 92,57.013 92.276,56.92 92.679,56.88 93.037,56.853 93.46,56.72 93.86,56.64 a 8.94,8.94 0 0 0 1.188,-0.347 14.993,14.993 0 0 0 4.239,-2.226 14.649,14.649 0 0 0 3.046,-3.227 11.746,11.746 0 0 0 1.688,-3.56 c 0.376,-1.16 0.464,-2.293 0.54,-3.28 l 0.066,-3.16 0.056,-2.76 a 2.654,2.654 0 0 1 2.721,-2.6 2.664,2.664 0 0 1 2.612,2.6 l 0.056,2.76 0.063,3.173 c -0.026,1.44 -0.111,3.094 -0.616,4.8 a 17.452,17.452 0 0 1 -2.334,5.24 19.541,19.541 0 0 1 -4.28,4.68 20.469,20.469 0 0 1 -5.938,3.187 c -0.542,0.2 -1.092,0.373 -1.659,0.507 -0.568,0.133 -1.103,0.293 -1.74,0.36 -0.588,0.08 -1.293,0.2 -1.79,0.226 l -1.642,0.08 c -4.661,-0.026 -9.293,-1.64 -12.77,-4.36 a 19.507,19.507 0 0 1 -4.28,-4.68 17.49,17.49 0 0 1 -2.334,-5.24 C 70.5,47.987 70.357,47.067 70.249,46.187 70.175,45.72 70.191,45.44 70.173,45.093 L 70.141,44.16 70.2,40.84 70.256,38.08 a 2.654,2.654 0 0 1 2.72,-2.6 2.666,2.666 0 0 1 2.613,2.6" />
    <path
       style="fill:#ffffff;fill-rule:nonzero"
       id="path226"
       d="m 128.673,22.213 c 0,10.014 -17.253,18.134 -38.537,18.134 -21.284,0 -38.537,-8.12 -38.537,-18.134 0,-10.013 17.253,-18.12 38.537,-18.12 21.284,0 38.537,8.107 38.537,18.12" />
    <path
       style="fill:#231f20;fill-rule:nonzero"
       id="path228"
       d="m 125.34,22.213 -0.023,-0.32 c 0.003,-0.213 -0.049,-0.533 -0.137,-0.946 -0.195,-0.827 -0.7,-2.094 -2.04,-3.587 -1.339,-1.48 -3.492,-3.107 -6.337,-4.533 -2.842,-1.44 -6.352,-2.694 -10.33,-3.614 -3.97,-0.92 -8.432,-1.533 -13.138,-1.72 -4.756,-0.186 -9.763,0.027 -14.846,0.814 -5.057,0.8 -10.241,2.16 -14.873,4.453 -2.304,1.133 -4.453,2.547 -6.09,4.2 -1.649,1.653 -2.595,3.507 -2.594,5.253 -0.025,1.747 0.904,3.627 2.545,5.307 1.628,1.68 3.775,3.12 6.078,4.28 4.632,2.333 9.818,3.76 14.89,4.613 2.547,0.4 5.083,0.667 7.574,0.8 1.228,0.067 2.425,0.107 3.722,0.12 1.18,0.014 2.416,-0.013 3.594,-0.066 4.75,-0.214 9.212,-0.84 13.193,-1.814 3.983,-0.973 7.495,-2.266 10.335,-3.733 2.845,-1.453 4.994,-3.107 6.325,-4.613 1.33,-1.507 1.823,-2.787 2.008,-3.614 0.136,-0.44 0.145,-1.546 0.15,-1.453 z m 6.661,0.187 -0.032,0.52 c 0.002,0.213 -0.096,1.187 -0.32,2.107 -0.413,1.786 -1.55,4.24 -3.61,6.466 -4.119,4.48 -11.299,8.04 -20.106,9.987 a 81.702,81.702 0 0 1 -14.356,1.8 75.397,75.397 0 0 1 -3.908,0.053 c -1.236,0 -2.602,-0.026 -3.962,-0.093 A 80.049,80.049 0 0 1 77.504,42.427 C 71.959,41.587 66.234,40.2 60.705,37.52 c -2.753,-1.347 -5.474,-3.027 -7.886,-5.413 -1.195,-1.2 -2.307,-2.614 -3.152,-4.28 -0.844,-1.654 -1.387,-3.614 -1.402,-5.614 l 0.034,-0.72 c 0.017,-0.2 10e-4,-0.28 0.049,-0.613 0.079,-0.533 0.153,-1.173 0.29,-1.6 0.237,-0.947 0.57,-1.867 0.998,-2.693 0.836,-1.68 1.943,-3.094 3.133,-4.307 C 55.173,9.867 57.892,8.16 60.644,6.787 66.172,4.067 71.9,2.613 77.46,1.72 83.024,0.853 88.472,0.627 93.577,0.827 c 5.16,0.213 9.99,0.866 14.411,1.893 8.816,2.04 15.996,5.653 20.097,10.173 2.052,2.24 3.176,4.707 3.58,6.507 0.202,0.893 0.294,1.613 0.307,2.093 l 0.035,0.72 z" />
  </g>
</svg>
