<?xml version="1.0" encoding="UTF-8" standalone="no"?>
<svg
   xmlns:dc="http://purl.org/dc/elements/1.1/"
   xmlns:cc="http://creativecommons.org/ns#"
   xmlns:rdf="http://www.w3.org/1999/02/22-rdf-syntax-ns#"
   xmlns:svg="http://www.w3.org/2000/svg"
   xmlns="http://www.w3.org/2000/svg"
   id="svg334"
   version="1.1"
   height="178.731"
   width="370.29984">
  <metadata
     id="metadata340">
    <rdf:RDF>
      <cc:Work
         rdf:about="">
        <dc:format>image/svg+xml</dc:format>
        <dc:type
           rdf:resource="http://purl.org/dc/dcmitype/StillImage" />
        <dc:title>
        tawa-vertical
    </dc:title>
      </cc:Work>
    </rdf:RDF>
  </metadata>
  <defs
     id="defs338" />
  <title
     id="title318">
        tawa-vertical
    </title>
  <g
     style="fill:none;fill-rule:evenodd"
     transform="rotate(-90,89.649916,89.763584)"
     id="g332">
    <path
       style="fill:#ffffff;fill-rule:nonzero"
       id="path320"
       d="m 176.08,324.067 c 0,23.76 -19.259,43.013 -43.016,43.013 H 47.032 C 23.275,367.08 4.016,347.827 4.016,324.067 V 118.333 c 0,-47.52 38.517,-86.026 86.032,-86.026 47.513,0 86.032,38.506 86.032,86.026 v 205.734" />
    <path
       style="stroke:#231f20;stroke-width:6.66699982"
       id="path322"
       d="m 176.08,324.067 c 0,23.76 -19.259,43.013 -43.016,43.013 H 47.032 C 23.275,367.08 4.016,347.827 4.016,324.067 V 118.333 c 0,-47.52 38.517,-86.026 86.032,-86.026 47.513,0 86.032,38.506 86.032,86.026 z" />
    <path
       style="fill:#ffffff;fill-rule:nonzero"
       id="path324"
       d="M 130.265,32.733 C 132.832,19.64 124.795,6.12 110.581,3.92 91.004,0.907 72.147,11.427 58.553,32.88 48.528,48.693 51.536,88.547 51.536,88.547 c 0,0 17.081,-16.454 44.73,-12.947 22.365,2.827 29.382,11.333 51.746,10.12 16.636,-0.907 28.068,-10.12 28.068,-24.48 0,-11.733 -10.308,-20.04 -23.024,-20.04 0,0 -23.873,-2.947 -22.79,-8.467" />
    <path
       style="fill:#231f20;fill-rule:nonzero"
       id="path326"
       d="m 133.132,33.293 c 0.072,-0.28 -0.09,-0.666 -0.101,-0.613 0.001,0.013 0.144,0.213 0.405,0.4 0.519,0.413 1.316,0.853 2.163,1.24 1.709,0.773 3.658,1.373 5.622,1.893 1.974,0.534 3.992,0.987 6.034,1.36 l 3.07,0.534 c 1.02,0.16 2.07,0.32 3.059,0.453 l -0.327,-0.027 c 4.012,-0.053 8.074,0.667 11.882,2.227 3.804,1.547 7.357,4.027 9.998,7.427 2.702,3.373 4.199,7.613 4.44,12.026 0.155,4.067 -0.614,8.36 -2.418,12.2 -1.848,3.814 -4.712,7.094 -8.067,9.48 -3.353,2.4 -7.127,3.974 -10.935,5.014 -1.912,0.506 -3.845,0.88 -5.782,1.12 -1.983,0.226 -3.882,0.373 -5.779,0.4 a 67.119,67.119 0 0 1 -11.435,-0.56 c -3.804,-0.48 -7.56,-1.347 -11.169,-2.414 -3.616,-1.053 -7.096,-2.266 -10.553,-3.32 -3.455,-1.053 -6.916,-2 -10.395,-2.72 l -2.59,-0.506 c -0.871,-0.16 -1.807,-0.28 -2.709,-0.414 L 96.183,78.28 c -0.351,-0.053 -0.85,-0.107 -1.268,-0.16 -0.874,-0.107 -1.748,-0.2 -2.627,-0.253 a 55.57,55.57 0 0 0 -20.865,2.306 c -3.376,1.027 -6.64,2.427 -9.774,4.054 a 50.415,50.415 0 0 0 -4.573,2.68 c -1.456,0.946 -2.948,2.026 -4.152,3.08 a 1.957,1.957 0 0 1 -2.76,0.093 1.962,1.962 0 0 1 -0.605,-1.227 l -0.018,-0.16 C 49.188,85.32 48.929,82.013 48.797,78.653 A 161.91,161.91 0 0 1 48.65,68.6 c 0.09,-6.707 0.551,-13.44 1.668,-20.187 0.575,-3.373 1.31,-6.746 2.45,-10.093 a 36.829,36.829 0 0 1 2.098,-5.053 c 0.216,-0.467 0.412,-0.76 0.619,-1.147 l 0.305,-0.533 0.214,-0.374 0.173,-0.266 c 0.464,-0.72 0.91,-1.454 1.392,-2.16 3.79,-5.707 8.26,-11.04 13.552,-15.574 5.268,-4.546 11.361,-8.32 18.104,-10.6 a 46.229,46.229 0 0 1 10.42,-2.28 47.767,47.767 0 0 1 5.35,-0.213 c 0.898,0.027 1.765,0.053 2.69,0.133 l 1.379,0.12 1.245,0.16 C 113.97,1 117.665,2.24 120.89,4.2 c 3.23,1.973 6.056,4.627 8.119,7.76 a 27.626,27.626 0 0 1 4.165,10.307 c 0.635,3.613 0.555,7.48 -0.28,10.906 l 0.239,0.12 z m -5.496,-1.013 c 0.447,-3.067 0.35,-5.96 -0.339,-8.827 a 21.589,21.589 0 0 0 -3.53,-7.88 c -1.692,-2.306 -3.784,-4.32 -6.243,-5.746 -2.456,-1.454 -5.187,-2.334 -8.093,-2.694 l -1.219,-0.16 -1.095,-0.106 C 106.393,6.8 105.603,6.773 104.848,6.747 a 43.675,43.675 0 0 0 -4.576,0.146 C 97.233,7.187 94.219,7.8 91.308,8.787 85.467,10.72 80.052,14 75.268,18.053 70.472,22.12 66.309,27 62.649,32.227 c -0.462,0.653 -0.892,1.333 -1.34,2 -0.302,0.466 -0.869,1.386 -1.176,1.973 a 33.383,33.383 0 0 0 -1.786,4.08 c -1.071,2.907 -1.834,6 -2.447,9.147 -1.22,6.306 -1.78,12.813 -2.125,19.333 a 325.378,325.378 0 0 0 -0.288,9.827 c -0.018,3.266 -0.052,6.573 0.044,9.813 l -3.382,-1.293 c 1.51,-1.427 2.962,-2.56 4.535,-3.694 a 58.056,58.056 0 0 1 4.824,-3.093 59.634,59.634 0 0 1 10.46,-4.653 c 7.253,-2.44 15,-3.467 22.657,-3.04 0.959,0.04 1.914,0.12 2.867,0.226 0.495,0.054 0.913,0.067 1.47,0.147 l 1.366,0.2 c 0.915,0.147 1.805,0.253 2.741,0.413 l 2.828,0.534 a 106.08,106.08 0 0 1 10.94,2.84 c 3.568,1.12 7.027,2.346 10.463,3.373 3.436,1.04 6.865,1.853 10.353,2.307 3.487,0.453 7.016,0.613 10.571,0.453 a 36.611,36.611 0 0 0 5.212,-0.44 36.915,36.915 0 0 0 5.008,-1.12 c 3.259,-0.947 6.29,-2.48 8.83,-4.493 a 19.263,19.263 0 0 0 5.786,-7.387 c 1.284,-2.853 1.787,-6 1.67,-9.28 a 15.592,15.592 0 0 0 -0.807,-4.387 17.104,17.104 0 0 0 -2.064,-4.04 c -1.752,-2.52 -4.295,-4.573 -7.22,-5.96 -2.931,-1.413 -6.25,-2.066 -9.582,-2.146 h -0.085 c -0.081,0 -0.164,0 -0.243,-0.014 -1.116,-0.146 -2.166,-0.306 -3.242,-0.466 l -3.206,-0.547 c -2.132,-0.4 -4.269,-0.813 -6.409,-1.333 -2.144,-0.534 -4.283,-1.134 -6.484,-2.014 -1.101,-0.466 -2.219,-0.973 -3.407,-1.826 -0.588,-0.44 -1.225,-0.987 -1.813,-1.854 a 5.365,5.365 0 0 1 -0.719,-1.626 4.993,4.993 0 0 1 -0.05,-2.027 z" />
    <path
       style="fill:#ffffff;fill-rule:nonzero"
       id="path328"
       d="m 51.536,88.547 c 0,0 -1.473,-30.88 32.013,-42.894 31.575,-11.333 28.93,-20.32 45.643,-27.52 13.156,-5.666 25.71,-0.6 30.263,4.854 8.77,10.533 9.169,33.586 -29.423,36.026 -39.816,2.507 -61.832,0 -78.496,29.534" />
    <path
       style="fill:#231f20;fill-rule:nonzero"
       id="path330"
       d="m 49.795,87.56 c 0,0 0.588,-1 1.69,-2.907 1.17,-1.853 2.888,-4.6 5.556,-7.8 1.316,-1.6 2.92,-3.266 4.772,-4.986 a 47.425,47.425 0 0 1 6.552,-4.907 c 4.978,-3.107 11.263,-5.413 18.164,-6.787 6.911,-1.413 14.418,-2.053 22.278,-2.586 3.92,-0.24 7.946,-0.494 12.064,-0.747 4.065,-0.28 8.362,-0.52 12.433,-0.933 4.108,-0.467 8.23,-1.24 12.144,-2.547 3.903,-1.293 7.641,-3.147 10.493,-5.787 2.867,-2.613 4.728,-6.04 5.055,-9.773 0.167,-1.853 -0.01,-3.773 -0.487,-5.64 -0.5,-1.853 -1.314,-3.64 -2.329,-5.267 l -0.359,-0.546 -0.174,-0.267 -0.255,-0.333 -0.52,-0.68 -0.356,-0.414 a 13.838,13.838 0 0 0 -2.08,-1.786 c -1.56,-1.12 -3.37,-2.014 -5.259,-2.667 -3.794,-1.333 -7.932,-1.72 -11.909,-1.173 -1.97,0.266 -4,0.813 -5.783,1.466 a 45.588,45.588 0 0 0 -5.622,2.654 c -3.591,1.946 -6.635,4.653 -9.899,7.506 -3.25,2.867 -6.796,5.587 -10.45,7.814 -3.642,2.28 -7.398,4.04 -11.07,5.693 -1.86,0.76 -3.724,1.6 -5.507,2.24 -1.79,0.667 -3.553,1.32 -5.288,1.96 a 51.068,51.068 0 0 0 -9.221,4.333 c -5.603,3.334 -9.948,7.547 -12.999,11.84 -3.069,4.294 -4.906,8.614 -6.014,12.254 -1.111,3.64 -1.554,6.64 -1.738,8.653 a 31.515,31.515 0 0 0 -0.14,2.293 l -0.002,0.734 z m -0.258,1.067 -0.017,-0.934 c 0,-0.6 0.024,-1.466 0.105,-2.586 0.163,-2.24 0.579,-5.507 1.715,-9.534 1.135,-4 3.057,-8.786 6.37,-13.626 3.289,-4.84 8.054,-9.64 14.158,-13.44 a 56.42,56.42 0 0 1 9.987,-4.934 c 1.714,-0.68 3.46,-1.36 5.23,-2.053 1.794,-0.68 3.443,-1.467 5.208,-2.213 3.451,-1.627 6.984,-3.36 10.291,-5.507 3.345,-2.133 6.455,-4.6 9.576,-7.453 3.125,-2.814 6.58,-6.014 10.712,-8.36 a 50.4,50.4 0 0 1 6.324,-3.134 33.394,33.394 0 0 1 7.173,-1.96 32.076,32.076 0 0 1 14.872,1.214 c 2.412,0.8 4.754,1.893 6.939,3.386 1.092,0.747 2.145,1.6 3.13,2.627 0.125,0.12 0.243,0.253 0.363,0.387 l 0.18,0.213 0.091,0.093 0.147,0.174 0.532,0.68 0.269,0.333 0.307,0.44 0.605,0.88 c 2.796,4.453 4.18,9.813 3.585,15.16 -0.28,2.667 -1.142,5.28 -2.418,7.613 -1.279,2.334 -2.988,4.374 -4.899,6.054 -3.844,3.4 -8.365,5.44 -12.816,6.84 -4.476,1.386 -8.975,2.133 -13.375,2.546 -4.453,0.374 -8.569,0.48 -12.728,0.68 -4.109,0.187 -8.13,0.36 -12.045,0.534 -7.797,0.386 -15.119,0.906 -21.661,2.12 -6.544,1.186 -12.258,3.2 -16.776,5.92 a 42.252,42.252 0 0 0 -5.98,4.32 c -1.707,1.52 -3.2,3.026 -4.442,4.493 -2.513,2.893 -4.181,5.453 -5.317,7.2 a 1649.035,1649.035 0 0 1 -1.653,2.733 l -0.054,0.08 a 1.99,1.99 0 0 1 -2.729,0.68 2.01,2.01 0 0 1 -0.959,-1.666 z" />
  </g>
</svg>
