<?xml version="1.0" encoding="UTF-8" standalone="no"?>
<svg
   xmlns:dc="http://purl.org/dc/elements/1.1/"
   xmlns:cc="http://creativecommons.org/ns#"
   xmlns:rdf="http://www.w3.org/1999/02/22-rdf-syntax-ns#"
   xmlns:svg="http://www.w3.org/2000/svg"
   xmlns="http://www.w3.org/2000/svg"
   id="svg444"
   version="1.1"
   height="178.735"
   width="253.86003">
  <metadata
     id="metadata450">
    <rdf:RDF>
      <cc:Work
         rdf:about="">
        <dc:format>image/svg+xml</dc:format>
        <dc:type
           rdf:resource="http://purl.org/dc/dcmitype/StillImage" />
        <dc:title>
        tawa-single
    </dc:title>
      </cc:Work>
    </rdf:RDF>
  </metadata>
  <defs
     id="defs448" />
  <title
     id="title428">
        tawa-single
    </title>
  <g
     style="fill:none;fill-rule:evenodd"
     transform="rotate(-90,89.081015,89.848485)"
     id="g442">
    <path
       style="fill:#ffffff;fill-rule:nonzero"
       id="path430"
       d="m 175.596,208.282 c 0,23.759 -19.247,43.012 -43.009,43.012 H 46.553 c -23.762,0 -43.025,-19.253 -43.025,-43.012 v -89.293 c 0,-47.522 38.525,-86.04 86.034,-86.04 47.51,0 86.034,38.518 86.034,86.04 v 89.293" />
    <path
       style="stroke:#231f20;stroke-width:6.66699982"
       id="path432"
       d="m 175.596,208.282 c 0,23.759 -19.247,43.012 -43.009,43.012 H 46.553 c -23.762,0 -43.025,-19.253 -43.025,-43.012 v -89.293 c 0,-47.522 38.525,-86.04 86.034,-86.04 47.51,0 86.034,38.518 86.034,86.04 z" />
    <path
       style="fill:#ffffff;fill-rule:nonzero"
       id="path434"
       d="m 129.777,33.375 c 2.573,-13.08 -5.463,-26.6 -19.673,-28.8 -19.579,-3.013 -38.446,7.507 -52.025,28.947 -10.026,15.827 -7.026,55.68 -7.026,55.68 0,0 17.084,-16.454 44.73,-12.947 22.373,2.827 29.383,11.333 51.74,10.12 16.642,-0.907 28.073,-10.12 28.073,-24.493 0,-11.734 -10.31,-20.027 -23.02,-20.027 0,0 -23.873,-2.946 -22.8,-8.48" />
    <path
       style="fill:#231f20;fill-rule:nonzero"
       id="path436"
       d="m 132.649,33.947 c 0.079,-0.293 -0.095,-0.666 -0.095,-0.626 0,0.027 0.142,0.213 0.411,0.412 0.506,0.415 1.312,0.854 2.15,1.242 1.708,0.758 3.668,1.372 5.629,1.892 1.976,0.52 3.984,0.987 6.023,1.361 l 3.083,0.533 c 1.012,0.16 2.071,0.32 3.052,0.454 l -0.316,-0.027 c 4,-0.054 8.063,0.666 11.873,2.226 3.81,1.546 7.352,4.027 10.008,7.426 2.687,3.374 4.19,7.614 4.442,12.027 0.143,4.068 -0.632,8.36 -2.434,12.188 -1.834,3.826 -4.696,7.106 -8.064,9.48 -3.351,2.412 -7.114,3.973 -10.94,5.026 a 42.467,42.467 0 0 1 -5.787,1.106 c -1.96,0.24 -3.873,0.388 -5.77,0.415 A 67.145,67.145 0 0 1 134.483,88.52 c -3.81,-0.479 -7.557,-1.345 -11.162,-2.412 -3.636,-1.053 -7.115,-2.267 -10.561,-3.32 -3.463,-1.053 -6.91,-2 -10.387,-2.721 l -2.61,-0.506 c -0.853,-0.16 -1.786,-0.28 -2.703,-0.427 l -1.36,-0.2 c -0.347,-0.053 -0.853,-0.107 -1.264,-0.16 -0.87,-0.107 -1.74,-0.2 -2.625,-0.254 a 55.576,55.576 0 0 0 -20.869,2.307 c -3.368,1.028 -6.64,2.427 -9.77,4.054 a 51.465,51.465 0 0 0 -4.57,2.667 c -1.454,0.96 -2.956,2.04 -4.158,3.092 a 1.945,1.945 0 0 1 -2.75,0.094 1.93,1.93 0 0 1 -0.617,-1.227 l -0.016,-0.16 c -0.364,-3.374 -0.617,-6.68 -0.743,-10.04 A 163.871,163.871 0 0 1 48.175,69.254 c 0.095,-6.707 0.538,-13.44 1.66,-20.186 0.57,-3.374 1.313,-6.746 2.451,-10.093 0.585,-1.694 1.202,-3.294 2.103,-5.068 0.205,-0.466 0.41,-0.76 0.616,-1.133 l 0.3,-0.546 0.206,-0.36 0.174,-0.267 c 0.475,-0.72 0.933,-1.453 1.407,-2.16 3.779,-5.707 8.253,-11.04 13.55,-15.587 C 75.906,9.32 81.993,5.547 88.744,3.267 a 46.224,46.224 0 0 1 10.436,-2.28 47.41,47.41 0 0 1 5.344,-0.213 48.5,48.5 0 0 1 2.687,0.133 l 1.376,0.12 1.233,0.161 c 3.668,0.467 7.368,1.694 10.593,3.667 3.225,1.973 6.055,4.613 8.126,7.76 a 27.673,27.673 0 0 1 4.158,10.292 c 0.633,3.627 0.554,7.481 -0.284,10.921 l 0.237,0.119 z m -5.486,-1.014 c 0.442,-3.065 0.348,-5.958 -0.332,-8.825 -0.664,-2.853 -1.866,-5.548 -3.542,-7.88 -1.691,-2.306 -3.778,-4.32 -6.245,-5.747 -2.466,-1.452 -5.185,-2.333 -8.079,-2.694 l -1.233,-0.16 -1.09,-0.107 C 105.914,7.454 105.123,7.427 104.365,7.4 a 40.358,40.358 0 0 0 -4.57,0.147 c -3.035,0.294 -6.055,0.908 -8.964,1.894 -5.85,1.934 -11.257,5.2 -16.047,9.267 -4.79,4.066 -8.965,8.932 -12.617,14.173 -0.458,0.653 -0.885,1.333 -1.344,2 -0.284,0.467 -0.87,1.387 -1.17,1.973 a 35.087,35.087 0 0 0 -1.786,4.08 c -1.075,2.894 -1.834,6 -2.435,9.147 -1.233,6.307 -1.786,12.813 -2.134,19.333 a 290.203,290.203 0 0 0 -0.285,9.827 c -0.031,3.267 -0.047,6.573 0.032,9.814 L 49.662,87.76 h 0.015 c 1.502,-1.439 2.957,-2.56 4.538,-3.693 a 55.516,55.516 0 0 1 4.806,-3.093 59.905,59.905 0 0 1 10.466,-4.653 c 7.257,-2.44 15.004,-3.467 22.656,-3.04 0.965,0.04 1.93,0.12 2.862,0.213 0.506,0.067 0.933,0.08 1.47,0.16 l 1.376,0.2 c 0.901,0.146 1.802,0.254 2.75,0.413 l 2.83,0.533 a 106.08,106.08 0 0 1 10.926,2.841 c 3.573,1.12 7.035,2.347 10.466,3.373 3.43,1.04 6.862,1.84 10.356,2.306 3.494,0.44 7.003,0.614 10.56,0.44 1.787,-0.025 3.558,-0.16 5.218,-0.425 a 37,37 0 0 0 5.012,-1.121 c 3.257,-0.96 6.276,-2.494 8.822,-4.494 a 19.36,19.36 0 0 0 5.786,-7.386 c 1.281,-2.854 1.787,-6.013 1.676,-9.28 -0.047,-1.4 -0.316,-2.987 -0.822,-4.386 -0.506,-1.426 -1.17,-2.788 -2.04,-4.041 -1.77,-2.519 -4.3,-4.573 -7.24,-5.972 -2.925,-1.4 -6.23,-2.054 -9.565,-2.134 h -0.095 c -0.08,0 -0.158,-0.013 -0.238,-0.013 -1.122,-0.147 -2.165,-0.307 -3.24,-0.468 l -3.21,-0.545 c -2.119,-0.4 -4.269,-0.815 -6.403,-1.347 -2.15,-0.52 -4.3,-1.12 -6.498,-2.015 -1.091,-0.452 -2.214,-0.96 -3.4,-1.826 a 7.485,7.485 0 0 1 -1.817,-1.84 5.453,5.453 0 0 1 -0.712,-1.64 4.797,4.797 0 0 1 -0.047,-2.012 z" />
    <path
       style="fill:#ffffff;fill-rule:nonzero"
       id="path438"
       d="m 51.044,89.203 c 0,0 -1.465,-30.88 32.037,-42.894 31.565,-11.334 28.92,-20.32 45.64,-27.52 13.145,-5.667 25.708,-0.599 30.242,4.853 8.785,10.521 9.179,33.588 -29.408,36.027 -39.83,2.506 -61.84,-0.013 -78.511,29.534" />
    <path
       style="fill:#231f20;fill-rule:nonzero"
       id="path440"
       d="m 49.325,88.211 c 0,0 0.582,-1.013 1.7,-2.907 1.148,-1.852 2.88,-4.613 5.54,-7.799 1.322,-1.6 2.927,-3.28 4.769,-4.987 1.904,-1.68 4.076,-3.373 6.563,-4.906 4.974,-3.12 11.254,-5.415 18.163,-6.787 6.91,-1.414 14.417,-2.067 22.271,-2.588 3.92,-0.252 7.949,-0.492 12.072,-0.758 4.061,-0.268 8.358,-0.507 12.435,-0.921 4.107,-0.468 8.215,-1.24 12.135,-2.547 3.919,-1.293 7.649,-3.146 10.498,-5.785 2.864,-2.615 4.721,-6.041 5.052,-9.775 a 17.144,17.144 0 0 0 -0.488,-5.639 19.622,19.622 0 0 0 -2.33,-5.268 l -0.361,-0.546 -0.173,-0.266 -0.252,-0.334 -0.52,-0.68 -0.362,-0.414 a 13.627,13.627 0 0 0 -2.077,-1.786 c -1.558,-1.12 -3.369,-2.013 -5.241,-2.68 -3.81,-1.32 -7.949,-1.707 -11.93,-1.16 a 28.491,28.491 0 0 0 -5.777,1.454 c -1.952,0.787 -3.84,1.652 -5.62,2.666 -3.588,1.947 -6.641,4.654 -9.9,7.506 -3.242,2.868 -6.799,5.588 -10.45,7.815 -3.636,2.279 -7.398,4.04 -11.065,5.693 -1.873,0.746 -3.73,1.599 -5.509,2.24 -1.794,0.667 -3.557,1.32 -5.288,1.959 a 51.505,51.505 0 0 0 -9.223,4.333 c -5.604,3.334 -9.948,7.547 -12.985,11.84 a 41.648,41.648 0 0 0 -6.028,12.241 c -1.118,3.653 -1.559,6.639 -1.748,8.666 -0.078,1.014 -0.125,1.787 -0.125,2.293 -0.016,0.48 -0.016,0.734 -0.016,0.734 z m -0.252,1.067 c 0,0 -0.016,-0.32 -0.032,-0.933 0,-0.6 0.032,-1.467 0.11,-2.587 0.158,-2.24 0.583,-5.506 1.716,-9.534 a 46.282,46.282 0 0 1 6.375,-13.64 c 3.289,-4.827 8.058,-9.626 14.15,-13.425 a 56.887,56.887 0 0 1 9.978,-4.947 780.698,780.698 0 0 0 5.241,-2.041 c 1.794,-0.679 3.447,-1.466 5.21,-2.213 3.447,-1.626 6.988,-3.36 10.293,-5.52 3.337,-2.12 6.453,-4.587 9.57,-7.44 3.132,-2.813 6.595,-6.013 10.718,-8.373 a 50.848,50.848 0 0 1 6.328,-3.12 33.165,33.165 0 0 1 7.16,-1.961 32.094,32.094 0 0 1 14.875,1.213 c 2.408,0.802 4.753,1.894 6.94,3.388 a 18.95,18.95 0 0 1 3.133,2.626 c 0.126,0.12 0.252,0.254 0.362,0.388 l 0.173,0.2 0.094,0.105 0.158,0.175 0.52,0.68 0.267,0.332 0.315,0.44 0.613,0.866 c 2.786,4.467 4.171,9.828 3.589,15.174 -0.3,2.667 -1.15,5.267 -2.424,7.6 -1.29,2.348 -2.99,4.387 -4.895,6.067 -3.856,3.4 -8.373,5.44 -12.827,6.826 -4.47,1.4 -8.972,2.147 -13.379,2.547 -4.454,0.387 -8.562,0.494 -12.717,0.694 -4.108,0.173 -8.137,0.36 -12.057,0.533 -7.79,0.387 -15.125,0.893 -21.657,2.12 -6.547,1.187 -12.26,3.2 -16.762,5.92 a 42.22,42.22 0 0 0 -5.997,4.32 c -1.7,1.52 -3.195,3.027 -4.438,4.48 -2.519,2.907 -4.187,5.466 -5.32,7.213 -1.07,1.774 -1.653,2.734 -1.653,2.734 l -0.047,0.08 a 1.987,1.987 0 0 1 -2.723,0.68 1.999,1.999 0 0 1 -0.96,-1.667 z" />
  </g>
</svg>
