<svg width="179" height="255" xmlns="http://www.w3.org/2000/svg">
    <title>
        tawa-single
    </title>
    <g fill="none" fill-rule="evenodd">
        <path d="M175.596 208.282c0 23.759-19.247 43.012-43.009 43.012H46.553c-23.762 0-43.025-19.253-43.025-43.012v-89.293c0-47.522 38.525-86.04 86.034-86.04 47.51 0 86.034 38.518 86.034 86.04v89.293" fill="#FFF" fill-rule="nonzero"/>
        <path d="M175.596 208.282c0 23.759-19.247 43.012-43.009 43.012H46.553c-23.762 0-43.025-19.253-43.025-43.012v-89.293c0-47.522 38.525-86.04 86.034-86.04 47.51 0 86.034 38.518 86.034 86.04v89.293z" stroke="#231F20" stroke-width="6.667"/>
        <path d="M129.777 33.375c2.573-13.08-5.463-26.6-19.673-28.8-19.579-3.013-38.446 7.507-52.025 28.947-10.026 15.827-7.026 55.68-7.026 55.68s17.084-16.454 44.73-12.947c22.373 2.827 29.383 11.333 51.74 10.12 16.642-.907 28.073-10.12 28.073-24.493 0-11.734-10.31-20.027-23.02-20.027 0 0-23.873-2.946-22.8-8.48" fill="#FFF" fill-rule="nonzero"/>
        <path d="M132.649 33.947c.079-.293-.095-.666-.095-.626 0 .027.142.213.411.412.506.415 1.312.854 2.15 1.242 1.708.758 3.668 1.372 5.629 1.892 1.976.52 3.984.987 6.023 1.361l3.083.533c1.012.16 2.071.32 3.052.454l-.316-.027c4-.054 8.063.666 11.873 2.226 3.81 1.546 7.352 4.027 10.008 7.426 2.687 3.374 4.19 7.614 4.442 12.027.143 4.068-.632 8.36-2.434 12.188-1.834 3.826-4.696 7.106-8.064 9.48-3.351 2.412-7.114 3.973-10.94 5.026a42.467 42.467 0 0 1-5.787 1.106c-1.96.24-3.873.388-5.77.415a67.145 67.145 0 0 1-11.431-.562c-3.81-.479-7.557-1.345-11.162-2.412-3.636-1.053-7.115-2.267-10.561-3.32-3.463-1.053-6.91-2-10.387-2.721l-2.61-.506c-.853-.16-1.786-.28-2.703-.427l-1.36-.2c-.347-.053-.853-.107-1.264-.16-.87-.107-1.74-.2-2.625-.254a55.576 55.576 0 0 0-20.869 2.307c-3.368 1.028-6.64 2.427-9.77 4.054a51.465 51.465 0 0 0-4.57 2.667c-1.454.96-2.956 2.04-4.158 3.092a1.945 1.945 0 0 1-2.75.094 1.93 1.93 0 0 1-.617-1.227l-.016-.16c-.364-3.374-.617-6.68-.743-10.04a163.871 163.871 0 0 1-.143-10.053c.095-6.707.538-13.44 1.66-20.186.57-3.374 1.313-6.746 2.451-10.093.585-1.694 1.202-3.294 2.103-5.068.205-.466.41-.76.616-1.133l.3-.546.206-.36.174-.267c.475-.72.933-1.453 1.407-2.16 3.779-5.707 8.253-11.04 13.55-15.587C75.906 9.32 81.993 5.547 88.744 3.267A46.224 46.224 0 0 1 99.18.987a47.41 47.41 0 0 1 5.344-.213 48.5 48.5 0 0 1 2.687.133l1.376.12 1.233.161c3.668.467 7.368 1.694 10.593 3.667 3.225 1.973 6.055 4.613 8.126 7.76a27.673 27.673 0 0 1 4.158 10.292c.633 3.627.554 7.481-.284 10.921l.237.119zm-5.486-1.014c.442-3.065.348-5.958-.332-8.825-.664-2.853-1.866-5.548-3.542-7.88-1.691-2.306-3.778-4.32-6.245-5.747-2.466-1.452-5.185-2.333-8.079-2.694l-1.233-.16-1.09-.107c-.728-.066-1.519-.093-2.277-.12a40.358 40.358 0 0 0-4.57.147c-3.035.294-6.055.908-8.964 1.894-5.85 1.934-11.257 5.2-16.047 9.267-4.79 4.066-8.965 8.932-12.617 14.173-.458.653-.885 1.333-1.344 2-.284.467-.87 1.387-1.17 1.973a35.087 35.087 0 0 0-1.786 4.08c-1.075 2.894-1.834 6-2.435 9.147-1.233 6.307-1.786 12.813-2.134 19.333a290.203 290.203 0 0 0-.285 9.827c-.031 3.267-.047 6.573.032 9.814l-3.383-1.295h.015c1.502-1.439 2.957-2.56 4.538-3.693a55.516 55.516 0 0 1 4.806-3.093 59.905 59.905 0 0 1 10.466-4.653c7.257-2.44 15.004-3.467 22.656-3.04.965.04 1.93.12 2.862.213.506.067.933.08 1.47.16l1.376.2c.901.146 1.802.254 2.75.413l2.83.533a106.08 106.08 0 0 1 10.926 2.841c3.573 1.12 7.035 2.347 10.466 3.373 3.43 1.04 6.862 1.84 10.356 2.306 3.494.44 7.003.614 10.56.44 1.787-.025 3.558-.16 5.218-.425a37 37 0 0 0 5.012-1.121c3.257-.96 6.276-2.494 8.822-4.494a19.36 19.36 0 0 0 5.786-7.386c1.281-2.854 1.787-6.013 1.676-9.28-.047-1.4-.316-2.987-.822-4.386-.506-1.426-1.17-2.788-2.04-4.041-1.77-2.519-4.3-4.573-7.24-5.972-2.925-1.4-6.23-2.054-9.565-2.134h-.095c-.08 0-.158-.013-.238-.013-1.122-.147-2.165-.307-3.24-.468l-3.21-.545c-2.119-.4-4.269-.815-6.403-1.347-2.15-.52-4.3-1.12-6.498-2.015-1.091-.452-2.214-.96-3.4-1.826a7.485 7.485 0 0 1-1.817-1.84 5.453 5.453 0 0 1-.712-1.64 4.797 4.797 0 0 1-.047-2.012l.237.118z" fill="#231F20" fill-rule="nonzero"/>
        <path d="M51.044 89.203s-1.465-30.88 32.037-42.894c31.565-11.334 28.92-20.32 45.64-27.52 13.145-5.667 25.708-.599 30.242 4.853 8.785 10.521 9.179 33.588-29.408 36.027-39.83 2.506-61.84-.013-78.511 29.534" fill="#FFF" fill-rule="nonzero"/>
        <path d="M49.325 88.211s.582-1.013 1.7-2.907c1.148-1.852 2.88-4.613 5.54-7.799 1.322-1.6 2.927-3.28 4.769-4.987 1.904-1.68 4.076-3.373 6.563-4.906 4.974-3.12 11.254-5.415 18.163-6.787 6.91-1.414 14.417-2.067 22.271-2.588 3.92-.252 7.949-.492 12.072-.758 4.061-.268 8.358-.507 12.435-.921 4.107-.468 8.215-1.24 12.135-2.547 3.919-1.293 7.649-3.146 10.498-5.785 2.864-2.615 4.721-6.041 5.052-9.775a17.144 17.144 0 0 0-.488-5.639 19.622 19.622 0 0 0-2.33-5.268l-.361-.546-.173-.266-.252-.334-.52-.68-.362-.414a13.627 13.627 0 0 0-2.077-1.786c-1.558-1.12-3.369-2.013-5.241-2.68-3.81-1.32-7.949-1.707-11.93-1.16a28.491 28.491 0 0 0-5.777 1.454c-1.952.787-3.84 1.652-5.62 2.666-3.588 1.947-6.641 4.654-9.9 7.506-3.242 2.868-6.799 5.588-10.45 7.815-3.636 2.279-7.398 4.04-11.065 5.693-1.873.746-3.73 1.599-5.509 2.24-1.794.667-3.557 1.32-5.288 1.959a51.505 51.505 0 0 0-9.223 4.333c-5.604 3.334-9.948 7.547-12.985 11.84a41.648 41.648 0 0 0-6.028 12.241c-1.118 3.653-1.559 6.639-1.748 8.666-.078 1.014-.125 1.787-.125 2.293-.016.48-.016.734-.016.734l-3.73-.907zm-.252 1.067s-.016-.32-.032-.933c0-.6.032-1.467.11-2.587.158-2.24.583-5.506 1.716-9.534a46.282 46.282 0 0 1 6.375-13.64c3.289-4.827 8.058-9.626 14.15-13.425a56.887 56.887 0 0 1 9.978-4.947 780.698 780.698 0 0 0 5.241-2.041c1.794-.679 3.447-1.466 5.21-2.213 3.447-1.626 6.988-3.36 10.293-5.52 3.337-2.12 6.453-4.587 9.57-7.44 3.132-2.813 6.595-6.013 10.718-8.373a50.848 50.848 0 0 1 6.328-3.12 33.165 33.165 0 0 1 7.16-1.961 32.094 32.094 0 0 1 14.875 1.213c2.408.802 4.753 1.894 6.94 3.388a18.95 18.95 0 0 1 3.133 2.626c.126.12.252.254.362.388l.173.2.094.105.158.175.52.68.267.332.315.44.613.866c2.786 4.467 4.171 9.828 3.589 15.174-.3 2.667-1.15 5.267-2.424 7.6-1.29 2.348-2.99 4.387-4.895 6.067-3.856 3.4-8.373 5.44-12.827 6.826-4.47 1.4-8.972 2.147-13.379 2.547-4.454.387-8.562.494-12.717.694-4.108.173-8.137.36-12.057.533-7.79.387-15.125.893-21.657 2.12-6.547 1.187-12.26 3.2-16.762 5.92a42.22 42.22 0 0 0-5.997 4.32c-1.7 1.52-3.195 3.027-4.438 4.48-2.519 2.907-4.187 5.466-5.32 7.213-1.07 1.774-1.653 2.734-1.653 2.734l-.047.08a1.987 1.987 0 0 1-2.723.68 1.999 1.999 0 0 1-.96-1.667z" fill="#231F20" fill-rule="nonzero"/>
    </g>
</svg>
