<svg width="180" height="371" xmlns="http://www.w3.org/2000/svg">
    <title>
        tawa-vertical
    </title>
    <g fill="none" fill-rule="evenodd">
        <path d="M176.08 324.067c0 23.76-19.259 43.013-43.016 43.013H47.032c-23.757 0-43.016-19.253-43.016-43.013V118.333c0-47.52 38.517-86.026 86.032-86.026 47.513 0 86.032 38.506 86.032 86.026v205.734" fill="#FFF" fill-rule="nonzero"/>
        <path d="M176.08 324.067c0 23.76-19.259 43.013-43.016 43.013H47.032c-23.757 0-43.016-19.253-43.016-43.013V118.333c0-47.52 38.517-86.026 86.032-86.026 47.513 0 86.032 38.506 86.032 86.026v205.734z" stroke="#231F20" stroke-width="6.667"/>
        <path d="M130.265 32.733c2.567-13.093-5.47-26.613-19.684-28.813C91.004.907 72.147 11.427 58.553 32.88c-10.025 15.813-7.017 55.667-7.017 55.667S68.617 72.093 96.266 75.6c22.365 2.827 29.382 11.333 51.746 10.12 16.636-.907 28.068-10.12 28.068-24.48 0-11.733-10.308-20.04-23.024-20.04 0 0-23.873-2.947-22.79-8.467" fill="#FFF" fill-rule="nonzero"/>
        <path d="M133.132 33.293c.072-.28-.09-.666-.101-.613.001.013.144.213.405.4.519.413 1.316.853 2.163 1.24 1.709.773 3.658 1.373 5.622 1.893 1.974.534 3.992.987 6.034 1.36l3.07.534c1.02.16 2.07.32 3.059.453l-.327-.027c4.012-.053 8.074.667 11.882 2.227 3.804 1.547 7.357 4.027 9.998 7.427 2.702 3.373 4.199 7.613 4.44 12.026.155 4.067-.614 8.36-2.418 12.2-1.848 3.814-4.712 7.094-8.067 9.48-3.353 2.4-7.127 3.974-10.935 5.014-1.912.506-3.845.88-5.782 1.12-1.983.226-3.882.373-5.779.4a67.119 67.119 0 0 1-11.435-.56c-3.804-.48-7.56-1.347-11.169-2.414-3.616-1.053-7.096-2.266-10.553-3.32-3.455-1.053-6.916-2-10.395-2.72l-2.59-.506c-.871-.16-1.807-.28-2.709-.414l-1.362-.213c-.351-.053-.85-.107-1.268-.16-.874-.107-1.748-.2-2.627-.253a55.57 55.57 0 0 0-20.865 2.306c-3.376 1.027-6.64 2.427-9.774 4.054a50.415 50.415 0 0 0-4.573 2.68c-1.456.946-2.948 2.026-4.152 3.08a1.957 1.957 0 0 1-2.76.093 1.962 1.962 0 0 1-.605-1.227l-.018-.16c-.353-3.373-.612-6.68-.744-10.04A161.91 161.91 0 0 1 48.65 68.6c.09-6.707.551-13.44 1.668-20.187.575-3.373 1.31-6.746 2.45-10.093a36.829 36.829 0 0 1 2.098-5.053c.216-.467.412-.76.619-1.147l.305-.533.214-.374.173-.266c.464-.72.91-1.454 1.392-2.16 3.79-5.707 8.26-11.04 13.552-15.574 5.268-4.546 11.361-8.32 18.104-10.6a46.229 46.229 0 0 1 10.42-2.28 47.767 47.767 0 0 1 5.35-.213c.898.027 1.765.053 2.69.133l1.379.12 1.245.16C113.97 1 117.665 2.24 120.89 4.2c3.23 1.973 6.056 4.627 8.119 7.76a27.626 27.626 0 0 1 4.165 10.307c.635 3.613.555 7.48-.28 10.906l.239.12zm-5.496-1.013c.447-3.067.35-5.96-.339-8.827a21.589 21.589 0 0 0-3.53-7.88c-1.692-2.306-3.784-4.32-6.243-5.746-2.456-1.454-5.187-2.334-8.093-2.694l-1.219-.16-1.095-.106c-.724-.067-1.514-.094-2.269-.12a43.675 43.675 0 0 0-4.576.146c-3.039.294-6.053.907-8.964 1.894-5.841 1.933-11.256 5.213-16.04 9.266C70.472 22.12 66.309 27 62.649 32.227c-.462.653-.892 1.333-1.34 2-.302.466-.869 1.386-1.176 1.973a33.383 33.383 0 0 0-1.786 4.08c-1.071 2.907-1.834 6-2.447 9.147-1.22 6.306-1.78 12.813-2.125 19.333a325.378 325.378 0 0 0-.288 9.827c-.018 3.266-.052 6.573.044 9.813l-3.382-1.293c1.51-1.427 2.962-2.56 4.535-3.694a58.056 58.056 0 0 1 4.824-3.093 59.634 59.634 0 0 1 10.46-4.653c7.253-2.44 15-3.467 22.657-3.04.959.04 1.914.12 2.867.226.495.054.913.067 1.47.147l1.366.2c.915.147 1.805.253 2.741.413l2.828.534a106.08 106.08 0 0 1 10.94 2.84c3.568 1.12 7.027 2.346 10.463 3.373 3.436 1.04 6.865 1.853 10.353 2.307 3.487.453 7.016.613 10.571.453a36.611 36.611 0 0 0 5.212-.44 36.915 36.915 0 0 0 5.008-1.12c3.259-.947 6.29-2.48 8.83-4.493a19.263 19.263 0 0 0 5.786-7.387c1.284-2.853 1.787-6 1.67-9.28a15.592 15.592 0 0 0-.807-4.387 17.104 17.104 0 0 0-2.064-4.04c-1.752-2.52-4.295-4.573-7.22-5.96-2.931-1.413-6.25-2.066-9.582-2.146h-.085c-.081 0-.164 0-.243-.014-1.116-.146-2.166-.306-3.242-.466l-3.206-.547c-2.132-.4-4.269-.813-6.409-1.333-2.144-.534-4.283-1.134-6.484-2.014-1.101-.466-2.219-.973-3.407-1.826-.588-.44-1.225-.987-1.813-1.854a5.365 5.365 0 0 1-.719-1.626 4.993 4.993 0 0 1-.05-2.027l.237.12z" fill="#231F20" fill-rule="nonzero"/>
        <path d="M51.536 88.547s-1.473-30.88 32.013-42.894c31.575-11.333 28.93-20.32 45.643-27.52 13.156-5.666 25.71-.6 30.263 4.854 8.77 10.533 9.169 33.586-29.423 36.026-39.816 2.507-61.832 0-78.496 29.534" fill="#FFF" fill-rule="nonzero"/>
        <path d="M49.795 87.56s.588-1 1.69-2.907c1.17-1.853 2.888-4.6 5.556-7.8 1.316-1.6 2.92-3.266 4.772-4.986a47.425 47.425 0 0 1 6.552-4.907c4.978-3.107 11.263-5.413 18.164-6.787 6.911-1.413 14.418-2.053 22.278-2.586 3.92-.24 7.946-.494 12.064-.747 4.065-.28 8.362-.52 12.433-.933 4.108-.467 8.23-1.24 12.144-2.547 3.903-1.293 7.641-3.147 10.493-5.787 2.867-2.613 4.728-6.04 5.055-9.773.167-1.853-.01-3.773-.487-5.64-.5-1.853-1.314-3.64-2.329-5.267l-.359-.546-.174-.267-.255-.333-.52-.68-.356-.414a13.838 13.838 0 0 0-2.08-1.786c-1.56-1.12-3.37-2.014-5.259-2.667-3.794-1.333-7.932-1.72-11.909-1.173-1.97.266-4 .813-5.783 1.466a45.588 45.588 0 0 0-5.622 2.654c-3.591 1.946-6.635 4.653-9.899 7.506-3.25 2.867-6.796 5.587-10.45 7.814-3.642 2.28-7.398 4.04-11.07 5.693-1.86.76-3.724 1.6-5.507 2.24-1.79.667-3.553 1.32-5.288 1.96a51.068 51.068 0 0 0-9.221 4.333c-5.603 3.334-9.948 7.547-12.999 11.84-3.069 4.294-4.906 8.614-6.014 12.254-1.111 3.64-1.554 6.64-1.738 8.653a31.515 31.515 0 0 0-.14 2.293l-.002.734-3.74-.907zm-.258 1.067l-.017-.934c0-.6.024-1.466.105-2.586.163-2.24.579-5.507 1.715-9.534 1.135-4 3.057-8.786 6.37-13.626 3.289-4.84 8.054-9.64 14.158-13.44a56.42 56.42 0 0 1 9.987-4.934c1.714-.68 3.46-1.36 5.23-2.053 1.794-.68 3.443-1.467 5.208-2.213 3.451-1.627 6.984-3.36 10.291-5.507 3.345-2.133 6.455-4.6 9.576-7.453 3.125-2.814 6.58-6.014 10.712-8.36a50.4 50.4 0 0 1 6.324-3.134 33.394 33.394 0 0 1 7.173-1.96 32.076 32.076 0 0 1 14.872 1.214c2.412.8 4.754 1.893 6.939 3.386 1.092.747 2.145 1.6 3.13 2.627.125.12.243.253.363.387l.18.213.091.093.147.174.532.68.269.333.307.44.605.88c2.796 4.453 4.18 9.813 3.585 15.16-.28 2.667-1.142 5.28-2.418 7.613-1.279 2.334-2.988 4.374-4.899 6.054-3.844 3.4-8.365 5.44-12.816 6.84-4.476 1.386-8.975 2.133-13.375 2.546-4.453.374-8.569.48-12.728.68-4.109.187-8.13.36-12.045.534-7.797.386-15.119.906-21.661 2.12-6.544 1.186-12.258 3.2-16.776 5.92a42.252 42.252 0 0 0-5.98 4.32c-1.707 1.52-3.2 3.026-4.442 4.493-2.513 2.893-4.181 5.453-5.317 7.2a1649.035 1649.035 0 0 1-1.653 2.733l-.054.08a1.99 1.99 0 0 1-2.729.68 2.01 2.01 0 0 1-.959-1.666z" fill="#231F20" fill-rule="nonzero"/>
    </g>
</svg>
