<svg width="217" height="59" xmlns="http://www.w3.org/2000/svg">
    <title>
        title-single
    </title>
    <g fill="none">
        <path d="M192.465 23.706s12.996 1.747 21.332 9.414c-11.325 1.333-13.33 6.84-13.33 7.666 0 .827 9.673 2.667 13.33 14.334-14.53-3.76-19.661-4-26.326-4-6.665 0-15.533 5-27.762 5-15.67 0-17.912-12-12.82-20.054" fill="#FFF"/>
        <path d="M192.65 22.386c2.066.24 4.034.613 6.021 1.093.984.24 1.949.507 2.933.8a49.37 49.37 0 0 1 2.893.973c.964.36 1.928.747 2.853 1.187.492.187.945.44 1.397.667.473.24.945.454 1.398.72.905.52 1.81 1.04 2.676 1.653.886.56 1.712 1.28 2.559 1.92a2.232 2.232 0 0 1 .413 3.134c-.335.44-.827.733-1.338.826l-.374.08c-.709.054-1.437.107-2.126.2-.689.134-1.417.187-2.066.387-.689.147-1.338.36-1.988.587-.63.24-1.26.48-1.83.786-.315.147-.59.32-.846.507-.276.16-.532.36-.768.56a6.603 6.603 0 0 0-1.299 1.267c-.354.413-.649 1.013-.688 1.226-.04.067.02-.106 0-.173 0 .067-.04-.627-.04-.32h.02v.027l-.02-.147c-.04-.093-.059-.187-.098-.28a1.285 1.285 0 0 0-.138-.267l-.059-.093c-.04-.053-.079-.093-.118-.133-.04-.067-.079-.093-.118-.134l-.06-.053c-.078-.04.08.053.217.107l.984.48c1.457.666 2.913 1.466 4.27 2.426a26.457 26.457 0 0 1 3.799 3.307c2.322 2.48 4.034 5.48 5.235 8.614a2.662 2.662 0 0 1-1.712 3.346c-.473.147-.965.16-1.437.054l-.059-.014-5.136-1.28c-1.713-.36-3.425-.8-5.117-1.106l-2.558-.494-2.559-.4a65.346 65.346 0 0 0-5.097-.52 94.43 94.43 0 0 0-5.176-.12l-1.22.053-1.043.12a32.47 32.47 0 0 0-2.4.48c-3.307.774-6.77 1.854-10.333 2.68-3.601.814-7.3 1.467-11.08 1.614l-1.416.04-1.398.013c-.905 0-2.027-.066-2.99-.16-1.988-.213-4.035-.6-6.062-1.453-1.988-.84-3.975-2.174-5.432-4.014a12.907 12.907 0 0 1-2.716-6.346c-.334-2.253-.039-4.493.61-6.507.69-2.013 1.772-3.84 3.189-5.307a2.044 2.044 0 0 1 2.893-.04 2.02 2.02 0 0 1 .53 2.054l-.039.12c-.472 1.56-.826 3.04-.944 4.48-.138 1.453-.06 2.84.216 4.093.276 1.267.807 2.36 1.516 3.347a9.386 9.386 0 0 0 2.873 2.533c1.18.707 2.617 1.227 4.152 1.52.807.16 1.457.24 2.323.293l.669.04.334.014h.256l1.26-.027a46.142 46.142 0 0 0 5.038-.413c1.672-.227 3.345-.574 5.018-.96 3.365-.787 6.691-1.88 10.312-2.773.905-.214 1.85-.4 2.834-.56l1.594-.2 1.456-.067c1.791 0 3.641.027 5.491.133 1.85.107 3.7.307 5.53.56l2.716.414 2.696.52c1.79.333 3.542.773 5.294 1.16l5.235 1.293-3.208 3.386a17.725 17.725 0 0 0-1.338-3.853c-.571-1.213-1.319-2.36-2.165-3.413a16.372 16.372 0 0 0-2.913-2.827c-1.102-.84-2.283-1.546-3.582-2.213l-1.043-.533c-.216-.12-.393-.2-.767-.467l-.158-.134c-.078-.08-.157-.146-.236-.227a1.362 1.362 0 0 1-.157-.199l-.099-.12c-.039-.093-.098-.2-.137-.294-.06-.106-.079-.213-.118-.32l-.04-.173v-.013l-.04-.36c.02-.24.08-.614.119-.72.335-1.267.827-2 1.417-2.773.59-.747 1.24-1.4 1.948-1.947.335-.28.689-.547 1.063-.773.374-.254.748-.48 1.122-.68.748-.44 1.515-.788 2.283-1.12.767-.307 1.554-.6 2.361-.827 1.575-.507 3.169-.813 4.763-1.134l-1.3 4.04c-.688-.6-1.298-1.266-2.026-1.813-.709-.587-1.457-1.107-2.224-1.64-.374-.266-.787-.493-1.161-.747-.413-.24-.807-.493-1.22-.706a34.147 34.147 0 0 0-2.5-1.294c-.866-.4-1.751-.786-2.617-1.133-.886-.36-1.79-.68-2.696-.986a48.43 48.43 0 0 0-5.51-1.494h-.04a1.338 1.338 0 0 1-1.043-1.573 1.344 1.344 0 0 1 1.456-1.067" fill="#231F20"/>
        <path d="M24.441 23.773s-12.998 1.746-21.33 9.413c11.342 1.334 13.336 6.84 13.336 7.667 0 .826-9.669 2.667-13.337 14.333 14.54-3.76 19.676-4 26.335-4 6.678 0 15.537 5 27.783 5 15.67 0 17.889-12 12.791-20.053" fill="#FFF"/>
        <path d="M24.62 25.093a48.756 48.756 0 0 0-5.513 1.494c-.903.307-1.787.627-2.69.987-.885.346-1.75.733-2.597 1.133-.865.4-1.693.827-2.521 1.293-.414.214-.79.467-1.204.707-.395.253-.81.48-1.167.747-.771.533-1.524 1.053-2.22 1.64-.734.546-1.355 1.213-2.013 1.813l-1.336-4.04c1.6.32 3.217.626 4.779 1.133.79.227 1.58.52 2.352.827.771.333 1.543.68 2.295 1.12.377.2.734.427 1.11.68.358.227.734.493 1.073.773.696.547 1.354 1.2 1.938 1.947.583.773 1.091 1.507 1.43 2.773.037.107.094.48.094.72l-.02.36-.018.014-.019.173-.113.32c-.056.093-.113.2-.15.293l-.094.12c-.057.067-.094.133-.15.2-.076.08-.151.147-.227.227l-.188.133c-.357.267-.545.347-.752.467l-1.054.533c-1.298.667-2.465 1.374-3.575 2.214a16.092 16.092 0 0 0-2.916 2.826 17.708 17.708 0 0 0-2.164 3.413c-.564 1.227-1.035 2.52-1.336 3.854L2.437 52.6l5.23-1.293c1.788-.387 3.519-.827 5.306-1.16l2.69-.52 2.73-.413a68.963 68.963 0 0 1 5.512-.56 95.877 95.877 0 0 1 5.494-.134l1.467.067 1.6.2c.96.16 1.919.346 2.822.56 3.631.893 6.961 1.986 10.31 2.773 1.694.387 3.35.734 5.043.96 1.674.227 3.349.374 5.023.413l1.261.027h.245l.338-.013.659-.04a16.01 16.01 0 0 0 2.333-.293c1.543-.294 2.954-.814 4.158-1.52a9.687 9.687 0 0 0 2.879-2.534 8.906 8.906 0 0 0 1.505-3.346c.282-1.253.357-2.64.226-4.094-.132-1.44-.49-2.933-.96-4.48l-.038-.12a2.057 2.057 0 0 1 1.374-2.546c.753-.227 1.543 0 2.05.533 1.43 1.466 2.503 3.293 3.18 5.307.659 2.013.96 4.253.621 6.506-.282 2.253-1.241 4.52-2.709 6.347-1.468 1.84-3.424 3.173-5.437 4.013-2.014.853-4.083 1.24-6.059 1.453-.94.094-2.088.16-2.991.16l-1.412-.013-1.41-.04c-3.783-.146-7.47-.8-11.064-1.613-3.575-.827-7.037-1.907-10.33-2.68-.827-.2-1.617-.347-2.408-.48l-1.053-.12-1.223-.053a94.14 94.14 0 0 0-5.174.12 66.7 66.7 0 0 0-5.1.52l-2.54.4-2.558.48c-1.712.32-3.424.76-5.118 1.12l-5.136 1.28h-.057A2.653 2.653 0 0 1 .5 55.84c-.113-.493-.094-1 .057-1.453 1.204-3.134 2.935-6.134 5.23-8.613a25.94 25.94 0 0 1 3.8-3.307c1.355-.96 2.842-1.76 4.253-2.427l1.016-.48c.132-.053.263-.146.226-.106l-.076.053c-.037.04-.056.067-.113.133-.037.04-.094.08-.131.134l-.038.093a1.36 1.36 0 0 0-.15.266c-.038.094-.076.187-.094.28l-.038.148.019-.028c.019-.306-.038.387-.02.32-.037.067.02.24 0 .174-.037-.227-.357-.813-.695-1.227a7.267 7.267 0 0 0-1.28-1.267c-.263-.2-.508-.4-.771-.56a6.322 6.322 0 0 0-.866-.506c-.564-.307-1.185-.547-1.843-.8-.64-.213-1.28-.427-1.957-.574-.677-.2-1.392-.266-2.07-.386a38.65 38.65 0 0 0-2.126-.2l-.376-.08a2.208 2.208 0 0 1-1.769-2.613 2.19 2.19 0 0 1 .847-1.347c.828-.64 1.656-1.36 2.54-1.92.865-.613 1.769-1.133 2.672-1.653.47-.267.94-.48 1.392-.72.47-.227.94-.48 1.411-.667a38.96 38.96 0 0 1 2.841-1.187 55.142 55.142 0 0 1 5.851-1.773 49.625 49.625 0 0 1 6.003-1.093 1.348 1.348 0 0 1 1.486 1.186c.075.68-.395 1.32-1.073 1.453h-.037" fill="#231F20"/>
        <path d="M166.476 45.854c2.62-4.667 20.953-4.934 20.953-4.934 4.164 0 7.525-4.32 7.525-9.64 0-3.946-2.52-5.573-2.52-8.84 0-3.253 2.52-4.88 2.52-8.826 0-5.334-3.361-9.654-7.525-9.654H29.285c-4.144 0-7.525 4.32-7.525 9.654 0 3.947 2.677 5.533 2.677 8.826 0 3.307-2.677 4.894-2.677 8.84 0 5.32 3.381 9.64 7.525 9.64 0 0 17.141-1.44 20.972 4.934l-.39-10.72c17.884 1.32 37.547 2.053 58.187 2.053 20.895 0 40.753-.747 58.813-2.107l-.39 10.774" fill="#FFF"/>
        <path d="M165.375 45.107l.255-.48c.156-.227.332-.44.508-.667.333-.32.666-.64.998-.893a12.66 12.66 0 0 1 2.094-1.267c1.428-.707 2.857-1.174 4.285-1.6 2.876-.813 5.752-1.346 8.648-1.72 1.448-.173 2.896-.36 4.344-.454l.548-.04.293-.013c.157 0-.117.014-.078 0h.078l.137-.013.51-.053c.077-.04.097-.053.136-.067.235-.08.646-.254.94-.493 1.29-.894 2.347-2.827 2.504-4.867.059-.507.059-1.054.059-1.547l-.06-1.293c0-.96-.332-2.333-.743-4.054-.195-.853-.352-1.8-.371-2.732l-.02-.347.02-.374c0-.2-.02-.306 0-.613.039-.547.117-1 .176-1.453.313-1.84.724-3.387.802-4.413l.137-1.36c.059-.454.059-.761 0-1.548l-.098-.64c-.059-.238-.078-.507-.157-.733-.156-.48-.313-.96-.528-1.372-.41-.867-.998-1.575-1.624-2.013-.313-.214-.606-.388-.92-.468-.136-.067-.313-.067-.45-.106-.058-.027-.156-.013-.234-.013-.059-.014-.118-.028-.333-.014l-33.948.186-33.948.08-33.928-.026-33.948-.12L34.495 7.4l-4.266-.014-.822-.014-.528.028-.137.013-.02.012c0 .014-.019.014-.039.027 0-.027-.195.067-.332.094-.157.08-.313.12-.47.227-1.272.68-2.387 2.56-2.66 4.56-.099.492-.118 1.08-.118 1.506.02.453.02.44 0 .627l.02.666c.019.92.352 2.254.84 3.947.216.84.412 1.787.47 2.733v1.32l-.098.787-.117.706c-.41 1.828-1.037 3.294-1.154 4.4a9.482 9.482 0 0 0-.06 1.44l.118 1.48c.059.894.255 1.987.646 2.867.391.894.92 1.694 1.565 2.214a3.39 3.39 0 0 0 1.957.906l-.235.014c.548-.027 1.018-.027 1.507-.04l1.467.013c.979.027 1.937.08 2.916.16 1.937.147 3.893.387 5.83.814 1.957.413 3.894.973 5.792 1.893a13.51 13.51 0 0 1 2.72 1.72c.41.347.822.76 1.194 1.2l.508.693.43.773c.333.627.118 1.44-.528 1.787a1.32 1.32 0 0 1-1.604-.24l-.176-.187-.352-.373-.43-.346a7.408 7.408 0 0 0-.94-.587c-.685-.36-1.448-.627-2.23-.854-1.585-.44-3.327-.64-5.049-.773a58.582 58.582 0 0 0-7.963.08l-1.33.093-1.273.134h-.117l-.137.013a9.461 9.461 0 0 1-5.85-1.933c-1.624-1.214-2.76-2.787-3.561-4.454-1.546-3.24-2.192-7.373.02-10.68.958-1.506 1.975-2.426 2.308-3.333.059-.106.098-.24.117-.333l.079-.254.039-.533c0 .026.02-.147 0 .04v-.04l-.02-.093-.02-.174c-.039-.466-.234-.906-.547-1.36-.626-.92-1.86-1.986-2.661-3.773-.216-.44-.372-.92-.51-1.4-.116-.507-.214-1.227-.214-1.48a12.6 12.6 0 0 1 .137-2.734c.234-1.786.782-3.559 1.741-5.199.94-1.64 2.27-3.173 4.09-4.267.45-.28.958-.493 1.447-.706.529-.175.979-.36 1.683-.48l.49-.08.234-.041.137-.014.528-.025.353-.014h.137l.273-.014h.51L34.495.52 51.459.427l33.948-.12 33.928-.04 33.948.08 33.948.2c.117 0 .411.013.704.027.274.025.548.025.842.08.548.092 1.096.2 1.604.385a9.774 9.774 0 0 1 2.818 1.482c1.663 1.252 2.857 2.839 3.659 4.533.41.84.704 1.706.939 2.599.137.428.196.88.293 1.32.079.468.118.987.177 1.482.02.612.078 1.732-.079 2.678a7.655 7.655 0 0 1-.88 2.747c-.9 1.613-2.074 2.48-2.544 3.373a3.515 3.515 0 0 0-.254.614c-.04.053-.04.293-.059.453l-.02.134v.026l.02.174c.04.48.215.932.528 1.4.568.92 1.781 1.972 2.583 3.733.196.44.372.893.47 1.373.078.227.117.533.156.8l.059.427c.02.12.02.186.04.28.038.906-.04 1.787-.177 2.68a13.935 13.935 0 0 1-1.8 5.146c-.92 1.6-2.25 3.107-4.03 4.12-.9.52-1.82.88-2.994 1.107-.294.053-.627.093-.9.134l-.529.013h-1.154c-1.37 0-2.74-.027-4.11.013-2.758.08-5.517.187-8.178.534-1.33.16-2.661.386-3.874.72a9.039 9.039 0 0 0-1.702.6c-.274.106-.49.24-.705.36-.078.053-.137.08-.215.12l-.352.386v.027c-.509.546-1.35.6-1.898.12a1.32 1.32 0 0 1-.294-1.64" fill="#231F20"/>
        <path d="M166.95 36.413s-7.267 1.08-18.217 2.16c-2.733.28-5.679.573-8.819.826-3.14.254-6.473.36-9.923.494-3.43.12-7.016.293-10.62.36-3.625.08-7.307.173-10.99.253-3.682-.08-7.364-.173-10.97-.253-3.604-.08-7.151-.24-10.581-.36-3.43-.12-6.745-.254-9.885-.48-3.159-.254-6.144-.56-8.876-.827-11.009-1.066-18.296-2.133-18.296-2.133a1.347 1.347 0 0 1-1.124-1.507 1.358 1.358 0 0 1 1.279-1.147h.058s7.326-.266 18.257-.146c2.733.027 5.679.053 8.8.133 3.139.027 6.472-.093 9.903-.066 3.43.013 6.977-.027 10.563.013l10.872.12c3.625-.054 7.268-.094 10.854-.133 3.566-.067 7.113-.014 10.524-.027 3.41-.027 6.706.093 9.845.053 3.14-.093 6.125-.12 8.877-.147 10.989-.12 18.315.147 18.315.147a1.356 1.356 0 0 1 1.298 1.387 1.368 1.368 0 0 1-1.143 1.28" fill="#231F20"/>
    </g>
</svg>
