<svg width="409" height="59" xmlns="http://www.w3.org/2000/svg">
    <title>
        title-double
    </title>
    <g fill="none">
        <path d="M384.536 23.547s13.001 1.733 21.344 9.413c-11.34 1.32-13.325 6.827-13.325 7.653 0 .84 9.66 2.68 13.325 14.334-14.54-3.747-19.663-4-26.326-4-6.682 0-15.532 5.013-27.784 5.013-15.654 0-17.902-12-12.798-20.067" fill="#FFF"/>
        <path d="M384.717 22.227c2.068.227 4.034.613 6 1.08.993.254 1.986.507 2.96.813.972.28 1.925.613 2.898.973.973.36 1.905.747 2.837 1.174.487.2.953.44 1.399.68.466.24.953.44 1.399.72.891.507 1.803 1.04 2.675 1.653.912.56 1.703 1.267 2.554 1.92.973.747 1.176 2.147.426 3.12a2.2 2.2 0 0 1-1.338.84l-.385.067c-.71.066-1.44.107-2.129.213-.689.12-1.398.187-2.067.374-.669.16-1.338.36-1.986.586-.629.24-1.257.48-1.845.8a9.54 9.54 0 0 0-.83.493c-.285.174-.528.36-.771.56a7.859 7.859 0 0 0-1.277 1.268c-.365.426-.669 1.013-.71 1.226-.02.08.02-.107.02-.16 0 .066-.06-.627-.04-.334v.04l-.02-.146a1.66 1.66 0 0 0-.101-.293c-.04-.094-.081-.174-.122-.254l-.081-.093a.44.44 0 0 0-.101-.147c-.04-.053-.081-.093-.122-.133l-.06-.04c-.062-.04.08.04.202.107l1.013.466c1.44.667 2.899 1.48 4.257 2.44 1.358.974 2.655 2.067 3.81 3.307 2.311 2.48 4.034 5.467 5.23 8.6a2.655 2.655 0 0 1-1.703 3.346c-.486.16-.993.174-1.46.054l-.04-.014-5.128-1.266c-1.723-.373-3.445-.8-5.148-1.12l-2.534-.493-2.574-.4a64.7 64.7 0 0 0-5.087-.507c-1.703-.107-3.426-.12-5.19-.133l-1.215.053-1.034.133a34.7 34.7 0 0 0-2.412.467c-3.304.787-6.77 1.866-10.337 2.693-3.588.8-7.297 1.454-11.047 1.6l-1.419.054-1.419.013a39.876 39.876 0 0 1-3-.173c-1.986-.214-4.033-.587-6.04-1.454-2.006-.827-3.972-2.16-5.452-4.013a12.83 12.83 0 0 1-2.696-6.333c-.344-2.254-.04-4.494.608-6.507.69-2.027 1.764-3.854 3.182-5.32.79-.8 2.088-.827 2.899-.04.567.56.73 1.346.527 2.053l-.04.134c-.467 1.547-.832 3.026-.953 4.48-.122 1.453-.061 2.84.223 4.093.283 1.267.81 2.36 1.5 3.347a9.81 9.81 0 0 0 2.898 2.533c1.196.693 2.615 1.227 4.155 1.52.79.16 1.44.24 2.31.293l.67.027.344.013h.244l1.256-.013a45.925 45.925 0 0 0 5.047-.413c1.662-.24 3.345-.587 5.027-.974 3.344-.773 6.669-1.866 10.297-2.76a35.577 35.577 0 0 1 2.817-.573l1.622-.187 1.439-.08c1.824.013 3.648.04 5.493.147 1.864.106 3.709.293 5.533.546l2.716.427 2.696.52c1.784.333 3.547.773 5.31 1.147l5.25 1.306-3.223 3.374a19.469 19.469 0 0 0-1.337-3.84c-.588-1.227-1.338-2.36-2.17-3.414a15.718 15.718 0 0 0-2.938-2.84 23.832 23.832 0 0 0-3.547-2.2l-1.054-.533c-.203-.12-.406-.213-.77-.48l-.163-.133a1.88 1.88 0 0 1-.243-.227c-.04-.066-.101-.133-.142-.2l-.08-.12a.9.9 0 0 1-.163-.293l-.122-.32-.04-.16v-.027l-.02-.346c0-.254.06-.627.1-.734.345-1.253.852-2 1.44-2.773a10.736 10.736 0 0 1 1.926-1.934 7.63 7.63 0 0 1 1.074-.786 9.95 9.95 0 0 1 1.115-.667c.73-.453 1.5-.786 2.29-1.133.77-.307 1.56-.6 2.351-.813 1.581-.507 3.182-.814 4.763-1.134l-1.317 4.027c-.669-.587-1.277-1.253-2.027-1.8-.69-.587-1.439-1.12-2.21-1.64-.364-.28-.79-.493-1.175-.747-.385-.24-.77-.493-1.216-.706a33.705 33.705 0 0 0-2.493-1.294c-.851-.4-1.723-.8-2.615-1.133-.892-.36-1.783-.68-2.675-.987-1.825-.6-3.69-1.133-5.534-1.493l-.02-.013a1.322 1.322 0 0 1-1.054-1.56 1.327 1.327 0 0 1 1.46-1.067" fill="#231F20"/>
        <path d="M24.361 23.613s-12.992 1.733-21.319 9.413c11.334 1.32 13.32 6.827 13.32 7.654 0 .84-9.657 2.68-13.32 14.333 14.523-3.747 19.66-4 26.33-4 6.669 0 15.524 5.013 27.75 5.013 15.67 0 17.912-12 12.81-20.066" fill="#FFF"/>
        <path d="M24.537 24.934c-1.822.36-3.7.893-5.504 1.493-.91.306-1.822.627-2.697.987-.875.333-1.75.733-2.606 1.133-.857.4-1.695.827-2.515 1.293-.42.214-.802.467-1.203.707-.401.253-.802.467-1.185.746-.747.52-1.513 1.054-2.205 1.64-.73.547-1.349 1.214-2.023 1.8l-1.312-4.026c1.603.32 3.189.613 4.756 1.133.802.214 1.586.507 2.37.814.765.333 1.53.68 2.278 1.133.383.2.747.413 1.112.667a7.86 7.86 0 0 1 1.075.786 11.9 11.9 0 0 1 1.932 1.934c.601.773 1.093 1.52 1.44 2.773.036.107.09.48.109.733l-.055.347v.027l-.036.16a1.11 1.11 0 0 1-.11.32c-.036.106-.09.2-.145.293l-.091.12a1.377 1.377 0 0 1-.146.2c-.091.093-.164.16-.237.226l-.164.134c-.365.267-.565.36-.766.467l-1.038.546a23.258 23.258 0 0 0-3.573 2.2c-1.093.827-2.096 1.773-2.934 2.84-.838 1.054-1.586 2.187-2.169 3.414-.565 1.226-1.039 2.506-1.33 3.84L2.357 52.44l5.23-1.307c1.769-.373 3.518-.813 5.304-1.146l2.68-.52 2.733-.427a63.773 63.773 0 0 1 5.523-.547c1.859-.12 3.7-.133 5.504-.146l1.44.08 1.603.187c.985.16 1.932.346 2.825.573 3.627.893 6.944 1.986 10.334 2.76 1.659.387 3.335.733 5.012.973 1.677.227 3.354.373 5.03.413l1.258.014h.255l.328-.014.675-.026a16.462 16.462 0 0 0 2.332-.293c1.531-.294 2.953-.827 4.138-1.52a9.421 9.421 0 0 0 2.88-2.534c.71-.986 1.239-2.08 1.512-3.346a13.15 13.15 0 0 0 .219-4.093c-.128-1.454-.474-2.934-.948-4.48l-.037-.134a2.065 2.065 0 0 1 1.367-2.547 2.022 2.022 0 0 1 2.042.534c1.44 1.466 2.515 3.293 3.189 5.32.656 2.013.966 4.253.62 6.506a12.51 12.51 0 0 1-2.716 6.334c-1.458 1.853-3.426 3.186-5.431 4.013-2.023.866-4.064 1.24-6.05 1.453a38.77 38.77 0 0 1-2.99.173l-1.421-.013-1.404-.053c-3.773-.147-7.49-.8-11.063-1.6-3.572-.827-7.053-1.907-10.334-2.694a35.01 35.01 0 0 0-2.424-.466l-1.038-.134-1.203-.053c-1.768.013-3.481.027-5.195.134-1.713.093-3.39.28-5.084.506l-2.552.4-2.57.494c-1.695.32-3.408.746-5.121 1.12L3.687 57.6l-.054.014A2.654 2.654 0 0 1 .425 55.68a2.506 2.506 0 0 1 .055-1.466c1.184-3.134 2.916-6.12 5.212-8.6a25.548 25.548 0 0 1 3.81-3.307c1.348-.96 2.824-1.774 4.264-2.44l1.003-.467.2-.107-.036.04c-.055.04-.092.08-.146.134-.037.04-.055.094-.11.147l-.054.093c-.055.08-.091.16-.146.253-.036.094-.055.2-.091.293l-.018.147v-.026l.018-.014c0-.293-.055.4-.037.333-.018.054.037.227 0 .16-.054-.213-.346-.8-.692-1.226a7.848 7.848 0 0 0-1.294-1.267 7.004 7.004 0 0 0-.766-.56 9.807 9.807 0 0 0-.838-.493c-.583-.32-1.221-.56-1.84-.8a19.4 19.4 0 0 0-1.987-.587c-.656-.187-1.386-.253-2.078-.373-.693-.107-1.403-.147-2.114-.213l-.383-.067a2.23 2.23 0 0 1-1.75-2.613c.11-.56.401-1.027.82-1.347.857-.653 1.677-1.36 2.57-1.92.857-.613 1.768-1.147 2.68-1.653.455-.28.91-.48 1.385-.72.455-.24.91-.48 1.403-.68a42.12 42.12 0 0 1 2.843-1.174c.966-.36 1.932-.693 2.916-.973.966-.307 1.932-.56 2.935-.813 1.986-.467 3.936-.854 6.014-1.08.729-.08 1.385.44 1.458 1.173a1.328 1.328 0 0 1-1.057 1.453l-.037.014" fill="#231F20"/>
        <path d="M358.568 45.693c2.637-4.667 20.98-4.933 20.98-4.933 4.129 0 7.511-4.32 7.511-9.654 0-3.947-2.537-5.573-2.537-8.826 0-3.254 2.537-4.88 2.537-8.827 0-5.333-3.382-9.653-7.51-9.653H29.214c-4.148 0-7.51 4.32-7.51 9.653 0 3.947 2.658 5.52 2.658 8.827 0 3.293-2.658 4.88-2.658 8.826 0 5.334 3.362 9.654 7.51 9.654 0 0 17.155-1.44 20.981 4.933l-.403-10.734c17.9 1.32 229.724 2.054 250.363 2.054 20.88 0 40.754-.747 58.795-2.094l-.382 10.774" fill="#FFF"/>
        <path d="M357.435 44.933l.222-.4c.08-.146.262-.373.423-.546a7.3 7.3 0 0 1 .847-.854c.564-.493 1.169-.826 1.774-1.173 1.209-.64 2.418-1.106 3.648-1.533 2.439-.827 4.898-1.307 7.357-1.747 2.48-.373 4.918-.707 7.438-.853l.241-.013c-.04 0 .242-.014-.04 0l.121-.014.444-.053c.201 0 .221-.04.262-.054.02-.026.06-.04.08-.04.282-.106.585-.24.847-.44.544-.373 1.068-.933 1.491-1.613.867-1.386 1.21-3.16 1.089-5v-1.026c-.02-.414-.06-.867-.162-1.414-.16-1.08-.624-2.467-.866-4.053-.121-.76-.161-1.627-.121-2.347 0-.267.04-.893.1-1.24.061-.4.122-.773.182-1.16.302-1.506.585-2.813.685-3.72.06-.453.101-.853.141-1.213.02-.174.02-.36.04-.547 0-.16.041-.426.02-.506-.02-.28-.02-.654-.04-.853l-.08-.534c-.08-.426-.181-.84-.302-1.254-.524-1.612-1.633-2.906-2.701-3.346-.605-.24-.686-.227-2.218-.227l-3.628.014-14.492.026-28.985.053-115.918.227c-19.31.067-38.64-.026-57.95-.04l-57.97-.12-57.969-.106L34.21 7.2l-3.628-.013h-1.37c.403-.013.06 0 .12 0h-.12l-.222.013c-.403.014-.363.067-.403.067-.04-.014-.242.08-.343.093-1.048.4-2.177 1.64-2.721 3.24a8.126 8.126 0 0 0-.484 2.547l-.02.16v.08c0 .16-.02-.12 0-.04v.76c0 .053 0 .107-.02.173 0 .36.04.747.06 1.187.101.907.464 2.094.847 3.56.403 1.427.564 3.24.343 4.747-.222 1.626-.827 3.013-1.089 4.106-.282 1.134-.282 1.92-.222 2.64-.02.187.04.374.04.56 0 .04 0-.2.021-.04v.12l.02.214c.02.16.02.306.02.453.02.293.06.387.08.587 0 .173.061.413.082.626.16.854.463 1.667.866 2.36.806 1.44 1.976 2.254 3.145 2.374h-.262c.564-.014 1.007-.027 1.531-.027h1.452c.987.04 1.955.093 2.922.16 1.956.16 3.89.4 5.846.826 1.955.4 3.87.974 5.764 1.907.948.453 1.855 1 2.721 1.707.424.346.827.746 1.19 1.186l.504.707.443.76c.343.64.121 1.44-.524 1.8a1.32 1.32 0 0 1-1.592-.24l-.182-.186-.363-.387-.423-.347a9.371 9.371 0 0 0-.947-.586c-.665-.36-1.431-.64-2.217-.854-1.593-.44-3.326-.627-5.06-.773a59.26 59.26 0 0 0-7.962.08l-1.33.107-1.27.12-.1.013h-.141a9.403 9.403 0 0 1-5.12-1.427c-1.512-.92-2.64-2.173-3.507-3.52a14.254 14.254 0 0 1-1.834-4.333c-.081-.387-.162-.72-.242-1.16-.04-.4-.101-.893-.121-1.214V31.04c.04-.426.08-.84.161-1.253.302-1.694 1.21-3.187 2.036-4.2.826-1.054 1.43-1.8 1.653-2.56l.06-.213c.02-.08.02-.28.04-.414.02-.147-.02-.386-.02-.573-.08-.4-.282-.76-.504-1.16-.524-.773-1.471-1.653-2.277-2.987a9.218 9.218 0 0 1-.948-2.293c-.04-.227-.08-.48-.12-.72l-.061-.36-.02-.227-.04-.453v-.413l.02-.294c.04-1.533.302-3.066.826-4.546 1.028-2.92 3.084-5.867 6.591-7.307.464-.147.826-.307 1.39-.413.545-.12 1.17-.214 1.371-.214l.666-.026h.463L30.581.4h3.628l7.236-.013L99.415.28l57.97-.12c19.309-.013 38.639-.12 57.949-.04l115.918.227L360.237.4l14.492.027h4.536c.221 0 .846.04 1.27.067.927.106 1.854.36 2.7.72 3.407 1.533 5.402 4.48 6.39 7.413.242.747.423 1.506.544 2.267.06.413.121.84.161 1.266.04.4.02.627.04.947.02.947-.04 1.707-.221 2.547-.161.84-.524 1.6-.887 2.266-.786 1.347-1.754 2.12-2.257 2.907-.121.187-.242.387-.303.573-.08.24-.12.214-.14.547-.082.493 0 .84.14 1.253.262.787 1.028 1.533 1.855 2.64.443.547.826 1.227 1.169 1.96.16.387.282.774.383 1.187.12.387.181.973.221 1.346.141 2.974-.625 6.147-2.439 8.8-.907 1.32-2.136 2.52-3.668 3.374-.746.44-1.592.76-2.48.973l-.785.134c-.283.04-.545.08-.666.066l-.443.013-.363.014h-.221c-2.298-.027-4.697-.027-7.015.093-2.358.08-4.676.293-6.934.6-2.197.347-4.555.853-5.664 2.04l-.04.04a1.346 1.346 0 0 1-1.895.067 1.39 1.39 0 0 1-.282-1.614" fill="#231F20"/>
        <path d="M359.004 36.253s-1.198.067-3.455.214c-2.257.133-5.572.333-9.806.587-4.214.226-9.326.506-15.218.826-5.891.24-12.541.48-19.79.693-14.52.467-31.475.92-49.589 1.174-9.047.133-18.413.333-27.92.4l-28.857.2-28.858-.2c-9.506-.133-18.873-.267-27.92-.4-18.133-.254-35.048-.707-49.547-1.174-7.25-.2-13.88-.44-19.772-.666-5.91-.32-11.043-.6-15.297-.827-4.214-.24-7.55-.44-9.826-.573-2.257-.147-3.455-.214-3.455-.214a1.348 1.348 0 0 1-1.258-1.413c.06-.707.619-1.254 1.338-1.254h3.575c2.256.014 5.572.014 9.786.028 4.213.026 9.346.066 15.217.12 5.892-.04 12.522-.094 19.772-.134 14.479-.014 31.394-.04 49.508-.054 18.093.028 37.425.068 56.737.094 19.312-.04 38.624-.08 56.737-.133 18.094.026 34.99.04 49.468.053 7.23.04 13.88.08 19.752.12 5.891-.04 11.024-.08 15.257-.12 4.234 0 7.55-.014 9.826-.014h3.515c.739 0 1.338.6 1.338 1.334 0 .707-.56 1.28-1.258 1.333" fill="#231F20"/>
    </g>
</svg>
