<svg width="167" height="168" xmlns="http://www.w3.org/2000/svg">
    <title>
        a
    </title>
    <g fill="none" fill-rule="evenodd">
        <path d="M163.477 83.947c0 44.18-35.818 79.988-80 79.988-44.184 0-80.001-35.807-80.001-79.988 0-44.18 35.817-80.004 80-80.004s80.001 35.823 80.001 80.004" fill-rule="nonzero" fill="#FFF"/>
        <path d="M163.477 83.947c0 44.18-35.818 79.988-80 79.988-44.184 0-80.001-35.807-80.001-79.988 0-44.18 35.817-80.004 80-80.004s80.001 35.823 80.001 80.004z" stroke="#231F20" stroke-width="6.667"/>
        <path d="M7.889 51.042s.357-.317 1.03-.934c.288-.285.85-.729 1.476-1.204.634-.523 1.346-.966 2.148-1.489 1.627-.998 3.673-2.107 6.142-2.946 2.46-.871 5.305-1.552 8.419-1.917 6.229-.728 13.496-.142 20.831 1.87 7.338 2.011 14.743 5.4 21.45 9.836a80.81 80.81 0 0 1 9.482 7.286c.73.665 1.472 1.314 2.161 2.011l1.048 1.014.588.586.474.523c1.262 1.378 2.509 2.74 3.736 4.07 1.184 1.49 2.349 2.962 3.49 4.388 1.117 1.441 2.046 2.93 3.037 4.324 1.012 1.394 1.802 2.867 2.633 4.26.41.698.811 1.379 1.206 2.044.385.68.7 1.378 1.042 2.043.656 1.346 1.336 2.614 1.887 3.88.52 1.268 1.012 2.472 1.475 3.596.495 1.109.818 2.218 1.146 3.231.325 1.014.623 1.933.892 2.772.462 1.695.734 3.073.96 3.992.214.918.327 1.41.327 1.41l-4.91.95s-.111-.46-.32-1.299c-.222-.84-.483-2.075-.927-3.643-.26-.76-.548-1.616-.862-2.55-.316-.935-.622-1.948-1.103-2.978-.445-1.045-.918-2.17-1.418-3.342-.529-1.156-1.187-2.328-1.815-3.596-.329-.617-.629-1.267-1-1.9-.379-.618-.766-1.252-1.16-1.9-.798-1.3-1.55-2.662-2.524-3.96-.946-1.3-1.85-2.71-2.892-4.008a764.038 764.038 0 0 0-3.215-3.944c-1.244-1.33-2.508-2.661-3.787-4.023l-.481-.507-.42-.412-.989-.934c-.65-.634-1.35-1.22-2.037-1.838a76.685 76.685 0 0 0-8.9-6.668c-6.273-4.007-13.16-7.048-19.854-8.775-6.694-1.742-13.174-2.138-18.473-1.441-2.652.332-5.004.95-6.986 1.663-1.995.713-3.571 1.615-4.822 2.392-.61.411-1.175.776-1.55 1.108-.41.333-.747.555-1.102.919l-1.017.95-4.516-4.91m62.649 54.714a8.991 8.991 0 0 1-9.59 8.359c-4.958-.326-8.702-4.621-8.361-9.584a8.992 8.992 0 0 1 9.591-8.359c4.958.341 8.7 4.637 8.36 9.584" fill-rule="nonzero" fill="#231F20"/>
        <path d="M99.033 105.925c-.51-.702-1.005-1.435-1.544-2.105a61.495 61.495 0 0 0-3.11-3.619 39.766 39.766 0 0 0-1.649-1.716c-.558-.561-1.115-1.123-1.708-1.653-1.147-1.092-2.372-2.074-3.59-3.072-1.269-.905-2.51-1.872-3.853-2.636-1.296-.874-2.697-1.482-4.06-2.184-1.413-.53-2.847-1.17-4.19-1.45-1.234-.453-3.05-.577-4.65-.827.341.047.084.016.156.031h-2.208c-.74-.062-1.485.078-2.228.172-1.494.093-2.962.53-4.44.873-1.446.5-2.917.92-4.32 1.607-1.434.577-2.796 1.357-4.177 2.09-1.343.81-2.69 1.622-3.976 2.558-.659.42-1.288.904-1.918 1.388-.635.483-1.263.967-1.868 1.481a55.658 55.658 0 0 0-3.575 3.167c-1.143 1.076-2.303 2.246-3.267 3.353l.217-3.166a54.055 54.055 0 0 0 2.778 3.774 66.94 66.94 0 0 0 3.11 3.619c.53.592 1.084 1.154 1.65 1.715.557.562 1.114 1.123 1.708 1.638 1.146 1.107 2.371 2.09 3.59 3.073 1.268.92 2.51 1.887 3.852 2.651 1.297.858 2.697 1.482 4.06 2.184 1.413.53 2.847 1.17 4.19 1.45.687.172 1.311.406 2.192.484l2.285.312c1.484-.032 2.965.109 4.454-.172 1.493-.11 2.961-.546 4.439-.873 1.446-.515 2.918-.936 4.32-1.607 1.435-.577 2.797-1.357 4.178-2.09 1.342-.827 2.69-1.622 3.976-2.558.659-.436 1.288-.92 1.917-1.403a33.889 33.889 0 0 0 1.869-1.467 60.703 60.703 0 0 0 3.575-3.166c.63-.592 1.215-1.248 1.815-1.856zm5.495 1.981a57.858 57.858 0 0 1-3.634 3.743 68.298 68.298 0 0 1-3.863 3.416 46.9 46.9 0 0 1-2.026 1.59c-.684.531-1.368 1.061-2.09 1.53-1.401 1.013-2.89 1.918-4.377 2.807-1.541.826-3.057 1.684-4.695 2.355-1.584.764-3.3 1.279-4.978 1.84-1.746.422-3.47.905-5.288 1.045-1.785.328-3.63.188-5.452.203l-2.633-.343c-.778-.062-1.736-.343-2.651-.577-1.905-.421-3.505-1.139-5.185-1.778-1.585-.796-3.214-1.544-4.679-2.511-1.532-.874-2.916-1.95-4.33-2.964-1.35-1.091-2.703-2.183-3.953-3.384a41.877 41.877 0 0 1-1.862-1.794 35.463 35.463 0 0 1-1.788-1.871 63.49 63.49 0 0 1-3.36-3.9 55.533 55.533 0 0 1-3.103-4.226 2.616 2.616 0 0 1 .217-3.167c1.221-1.388 2.388-2.558 3.65-3.758a68.352 68.352 0 0 1 3.863-3.416 37.628 37.628 0 0 1 2.026-1.607c.684-.514 1.368-1.045 2.09-1.528 1.402-.998 2.89-1.903 4.377-2.808 1.542-.81 3.057-1.684 4.695-2.34 1.584-.763 3.3-1.278 4.979-1.855 1.746-.406 3.469-.905 5.288-1.045.9-.11 1.793-.25 2.712-.203h2.718l.195.031c1.669.25 3.182.312 5.11.905 1.905.405 3.506 1.123 5.186 1.778 1.584.795 3.214 1.528 4.679 2.495 1.532.89 2.915 1.95 4.33 2.98 1.35 1.091 2.702 2.183 3.953 3.384.65.561 1.255 1.185 1.861 1.794a42.889 42.889 0 0 1 1.788 1.856 68.804 68.804 0 0 1 3.361 3.914 55.617 55.617 0 0 1 3.103 4.227 2.617 2.617 0 0 1-.216 3.166l-.018.016z" fill-rule="nonzero" fill="#231F20"/>
    </g>
</svg>
