<svg width="168" height="169" xmlns="http://www.w3.org/2000/svg">
    <title>
        an
    </title>
    <g fill="none" fill-rule="evenodd">
        <path d="M4.147 142.238c0-22.65 35.65-30.107 79.835-30.107 44.182 0 80.177 10.123 80.177 30.63 0 13.853-12.355 22.404-27.818 22.404-17.334 0-28.001-9.106-28.001-22.958 0 12.758-8.667 20.97-24.001 20.97-16.667 0-24-8.212-24-20.97 0 13.852-11.666 22.958-28.333 22.958-15.465 0-27.859-9.075-27.859-22.927" fill-rule="nonzero" fill="#FFF"/>
        <path d="M7.478 142.255c.007 2.885.68 5.693 2.007 8.192 1.32 2.484 3.283 4.659 5.654 6.356 2.359 1.727 5.117 3.008 8.036 3.825 1.46.417 2.962.726 4.484.91 1.535.201 3 .294 4.62.294 3.132.015 6.244-.324 9.209-1.08 2.962-.756 5.758-1.99 8.188-3.656 2.424-1.682 4.43-3.857 5.796-6.418 1.391-2.53 2.123-5.445 2.198-8.469l.002-.077a2.67 2.67 0 0 1 2.73-2.607 2.676 2.676 0 0 1 2.601 2.684c.153 2.777.596 5.477 1.621 7.806.98 2.36 2.463 4.366 4.44 5.831 1.972 1.466 4.344 2.515 6.945 3.132 1.298.324 2.638.54 4.013.679 1.424.123 2.633.185 4.22.185 1.309 0 2.751-.047 4.092-.185a27.974 27.974 0 0 0 3.976-.71c2.581-.663 4.946-1.774 6.96-3.255a14.925 14.925 0 0 0 4.637-5.816c1.103-2.298 1.61-4.936 1.763-7.667h5.334c.1 5.014 1.936 9.703 5.315 13.02 3.386 3.348 8.102 5.307 13.085 6.125 1.25.2 2.517.339 3.796.416.645.03 1.206.062 1.891.077h1.483l.478-.015c2.545-.062 5.074-.37 7.497-.972 4.855-1.173 9.318-3.61 12.328-7.143a16.39 16.39 0 0 0 3.244-6.031c.328-1.065.532-2.299.617-3.363.102-1.28.1-2.376-.056-3.471-.535-4.397-3.602-8.3-7.642-11.277-4.045-3.008-8.918-5.199-13.933-6.958-5.042-1.758-10.3-3.07-15.624-4.088-10.67-2.02-21.608-2.961-32.555-3.285a279.057 279.057 0 0 0-16.464.046c-5.488.154-10.964.447-16.41.94-5.444.495-10.86 1.173-16.19 2.16-5.324.972-10.575 2.268-15.545 4.089-4.946 1.805-9.686 4.18-13.267 7.497-1.78 1.65-3.226 3.533-4.176 5.6a14.995 14.995 0 0 0-1.064 3.224 18.69 18.69 0 0 0-.256 1.697l-.058.787-.02.971zm-6.665-.092l.03-1.05.098-1.28a26.02 26.02 0 0 1 .387-2.406 21.566 21.566 0 0 1 1.573-4.643c1.393-2.962 3.439-5.508 5.736-7.606 4.64-4.18 10.084-6.741 15.514-8.7 5.46-1.944 11.029-3.224 16.6-4.227 5.58-1.003 11.174-1.666 16.771-2.144a277.94 277.94 0 0 1 16.781-.864 405.431 405.431 0 0 1 16.778-.047c11.2.263 22.424 1.157 33.553 3.194 5.561 1.033 11.104 2.345 16.546 4.196 5.427 1.866 10.825 4.18 15.734 7.744 2.439 1.79 4.754 3.918 6.64 6.525 1.886 2.592 3.273 5.754 3.733 9.056.248 1.666.245 3.347.135 4.828a23.22 23.22 0 0 1-5.36 13.329c-4.176 4.982-10.05 7.913-15.925 9.317a40.191 40.191 0 0 1-8.96 1.096h-1.155l-1.04-.031a60.027 60.027 0 0 1-2.259-.14 43.744 43.744 0 0 1-4.449-.585c-2.957-.556-5.899-1.45-8.691-2.793-2.781-1.357-5.402-3.193-7.588-5.507-2.174-2.298-3.89-5.075-4.923-8.068-1.063-2.977-1.447-6.109-1.402-9.148a2.665 2.665 0 0 1 2.493-2.823 2.66 2.66 0 0 1 2.824 2.5l.003.03.014.293c.145 3.301-.314 6.742-1.582 10.012-1.292 3.24-3.46 6.232-6.203 8.454-2.732 2.267-5.978 3.702-9.22 4.597a32.185 32.185 0 0 1-4.917.94c-1.66.201-3.235.294-4.944.294a53.288 53.288 0 0 1-4.82-.278 36.453 36.453 0 0 1-4.9-.894c-3.242-.833-6.545-2.222-9.31-4.52-2.791-2.253-4.896-5.369-6.068-8.655-1.155-3.301-1.512-6.695-1.37-9.95h5.333c.094 3.749-.645 7.62-2.342 11.107-1.697 3.502-4.311 6.51-7.369 8.778-3.062 2.299-6.553 3.857-10.112 4.86-3.57 1.002-7.23 1.48-10.857 1.542a41.718 41.718 0 0 1-5.504-.309 39.108 39.108 0 0 1-5.455-1.064c-3.593-1.003-7.093-2.56-10.214-4.813-3.104-2.252-5.802-5.23-7.625-8.731C1.683 150.077.786 146.112.81 142.24v-.046l.002-.031z" fill-rule="nonzero" fill="#231F20"/>
        <path d="M164.311 67.891c0 35.326-35.817 63.965-80 63.965s-80-28.64-80-63.965c0-35.309 35.817-63.948 80-63.948s80 28.64 80 63.948" fill-rule="nonzero" fill="#FFF"/>
        <path d="M164.311 67.891c0 35.326-35.817 63.965-80 63.965s-80-28.64-80-63.965c0-35.309 35.817-63.948 80-63.948s80 28.64 80 63.948z" stroke="#231F20" stroke-width="6.667"/>
        <path d="M164.23 67.891c0 35.326-35.82 63.965-80.002 63.965-44.184 0-80-28.64-80-63.965 0-35.309 35.816-63.948 80-63.948 44.183 0 80.002 28.64 80.002 63.948" fill-rule="nonzero" fill="#FFF"/>
        <path d="M164.23 67.891c0 35.326-35.82 63.965-80.002 63.965-44.184 0-80-28.64-80-63.965 0-35.309 35.816-63.948 80-63.948 44.183 0 80.002 28.64 80.002 63.948z" stroke="#231F20" stroke-width="6.667"/>
        <path d="M13.863 31.788s.367-.271 1.055-.798c.32-.255.795-.59 1.395-.99.589-.414 1.26-.845 2.006-1.276 2.975-1.82 7.548-3.974 13.362-5.22 5.797-1.244 12.816-1.436 19.994.033 7.18 1.436 14.423 4.548 20.836 8.778a71.749 71.749 0 0 1 9.005 7.022 49.409 49.409 0 0 1 2.037 1.916l.994.973.962 1.006c1.212 1.245 2.457 2.665 3.628 4.022 4.601 5.458 8.16 11.156 10.635 16.311 1.228 2.586 2.253 5.012 3.011 7.198.792 2.187 1.347 4.15 1.79 5.762.405 1.612.711 2.889.876 3.767l.273 1.34-4.911.942s-.095-.43-.272-1.245c-.161-.814-.466-1.995-.862-3.48-.43-1.5-.97-3.303-1.735-5.314-.73-2.027-1.717-4.261-2.89-6.64-2.365-4.756-5.746-10.023-10.11-15.05-1.097-1.23-2.176-2.442-3.461-3.735l-.897-.91-.94-.878a45.986 45.986 0 0 0-1.919-1.771 66.016 66.016 0 0 0-8.382-6.336c-5.918-3.783-12.478-6.48-18.85-7.661-6.374-1.197-12.477-.926-17.444.207-4.981 1.133-8.821 3.033-11.303 4.597-.64.383-1.17.734-1.6 1.053-.438.287-.828.575-1.184.862-.68.527-1.042.798-1.042.798l-4.057-5.283M71.29 81.72c-.34 4.962-4.634 8.704-9.591 8.36-4.958-.33-8.701-4.635-8.36-9.582.34-4.962 4.632-8.704 9.59-8.36 4.957.345 8.7 4.634 8.36 9.582" fill-rule="nonzero" fill="#231F20"/>
        <path d="M99.78 81.885c-.51-.709-1.005-1.433-1.543-2.094a57.056 57.056 0 0 0-3.111-3.622 32.118 32.118 0 0 0-1.65-1.716c-.558-.566-1.113-1.133-1.708-1.653-1.147-1.102-2.372-2.078-3.59-3.07-1.268-.913-2.51-1.874-3.853-2.645-1.296-.866-2.697-1.48-4.06-2.189-1.413-.52-2.845-1.165-4.19-1.448-1.233-.44-3.051-.567-4.65-.819.342.032.084.016.157.016h-.539l-.557.016-1.112-.016c-.741-.047-1.486.094-2.228.173-1.495.11-2.961.551-4.438.882-1.447.504-2.919.929-4.322 1.606-1.436.582-2.796 1.37-4.178 2.094-1.342.819-2.69 1.621-3.976 2.55a34.16 34.16 0 0 0-1.917 1.402c-.636.472-1.262.96-1.868 1.48a59.564 59.564 0 0 0-3.575 3.149 56.832 56.832 0 0 0-3.267 3.353l.217-3.165c.805 1.229 1.793 2.551 2.777 3.78a61.22 61.22 0 0 0 3.111 3.62 51.01 51.01 0 0 0 1.649 1.716c.557.567 1.115 1.134 1.708 1.654 1.146 1.086 2.373 2.078 3.591 3.07 1.268.913 2.509 1.873 3.852 2.63 1.295.865 2.698 1.495 4.062 2.188 1.412.535 2.845 1.165 4.19 1.448.686.189 1.31.41 2.19.488l2.284.315c1.484-.031 2.966.11 4.454-.173 1.494-.11 2.961-.535 4.44-.866 1.447-.52 2.919-.929 4.32-1.622 1.434-.567 2.796-1.354 4.177-2.078 1.343-.819 2.69-1.637 3.975-2.55.66-.441 1.288-.93 1.918-1.402.636-.488 1.264-.96 1.869-1.48a60.319 60.319 0 0 0 3.576-3.164c.63-.599 1.213-1.244 1.815-1.858zm5.495 1.983c-1.187 1.354-2.38 2.551-3.634 3.748a67.312 67.312 0 0 1-3.864 3.4 37.42 37.42 0 0 1-2.025 1.606c-.684.52-1.368 1.055-2.09 1.528-1.402 1.007-2.89 1.905-4.376 2.802-1.543.819-3.057 1.685-4.696 2.362-1.584.755-3.299 1.275-4.977 1.842-1.748.41-3.472.897-5.29 1.039-1.786.315-3.63.189-5.45.205l-2.635-.347c-.778-.063-1.737-.33-2.651-.567-1.904-.425-3.503-1.133-5.185-1.779-1.584-.803-3.213-1.543-4.68-2.519-1.531-.881-2.913-1.936-4.329-2.96-1.35-1.102-2.702-2.188-3.952-3.385-.65-.567-1.256-1.18-1.862-1.795a42.577 42.577 0 0 1-1.787-1.873 62.526 62.526 0 0 1-3.362-3.905 55.37 55.37 0 0 1-3.103-4.22 2.614 2.614 0 0 1 .217-3.164 56.952 56.952 0 0 1 3.651-3.763 61.982 61.982 0 0 1 3.863-3.416 47.248 47.248 0 0 1 2.026-1.606c.683-.52 1.366-1.04 2.09-1.528 1.4-1.007 2.89-1.905 4.378-2.802 1.541-.819 3.057-1.685 4.695-2.346 1.584-.771 3.3-1.275 4.978-1.858 1.744-.41 3.469-.897 5.287-1.039.9-.11 1.793-.252 2.713-.205h2.719l.193.016c1.67.268 3.184.33 5.111.913 1.905.41 3.505 1.134 5.186 1.78 1.584.802 3.212 1.542 4.678 2.503 1.532.881 2.916 1.952 4.331 2.975 1.35 1.087 2.702 2.189 3.952 3.386.65.566 1.256 1.18 1.861 1.794a34.373 34.373 0 0 1 1.789 1.858 68.03 68.03 0 0 1 3.361 3.905c1.088 1.37 2.083 2.692 3.102 4.235a2.61 2.61 0 0 1-.216 3.165l-.017.015z" fill-rule="nonzero" fill="#231F20"/>
    </g>
</svg>
