<svg width="168" height="168" xmlns="http://www.w3.org/2000/svg">
    <title>
        e
    </title>
    <g fill="none" fill-rule="evenodd">
        <path d="M163.81 83.947c0 44.18-35.817 79.988-80 79.988-44.184 0-80-35.807-80-79.988 0-44.18 35.816-80.004 80-80.004 44.183 0 80 35.823 80 80.004" fill-rule="nonzero" fill="#FFF"/>
        <path d="M163.81 83.947c0 44.18-35.817 79.988-80 79.988-44.184 0-80-35.807-80-79.988 0-44.18 35.816-80.004 80-80.004 44.183 0 80 35.823 80 80.004z" stroke="#231F20" stroke-width="6.667"/>
        <path d="M87.143 47.946l.131 3.085c.053 1.978.187 4.778.246 8.164.053 3.37.182 7.31.202 11.534.029 4.209.057 8.718.087 13.211-.032 4.494-.06 9.003-.088 13.227-.027 4.209-.15 8.149-.205 11.519-.061 3.385-.19 6.186-.243 8.164l-.13 3.085a3.327 3.327 0 0 1-3.471 3.196c-1.744-.063-3.119-1.472-3.195-3.196l-.13-3.085c-.053-1.978-.183-4.779-.243-8.164-.055-3.37-.177-7.31-.204-11.519l-.09-13.227.087-13.21c.02-4.225.147-8.165.203-11.535.058-3.386.191-6.186.247-8.164l.13-3.085a3.329 3.329 0 0 1 3.472-3.196 3.357 3.357 0 0 1 3.193 3.196" fill-rule="nonzero" fill="#231F20"/>
        <path d="M47.81 80.615s1.126-.047 3.093-.14c1.97-.047 4.782-.172 8.157-.234 3.376-.063 7.313-.188 11.531-.203 4.22-.032 8.719-.063 13.22-.094 4.498.031 8.999.062 13.217.078 4.22.031 8.157.156 11.532.219 3.376.046 6.188.187 8.157.234 1.968.093 3.093.14 3.093.14a3.327 3.327 0 0 1 3.193 3.464 3.352 3.352 0 0 1-3.193 3.2l-3.093.124c-1.97.063-4.781.188-8.157.25-3.375.047-7.312.187-11.532.203-4.218.031-8.719.062-13.218.078-4.5-.016-9-.047-13.219-.078-4.218-.031-8.155-.156-11.53-.203-3.376-.062-6.188-.203-8.158-.25l-3.093-.124a3.346 3.346 0 0 1-3.196-3.48 3.34 3.34 0 0 1 3.196-3.184" fill-rule="nonzero" fill="#231F20"/>
    </g>
</svg>
