<svg width="167" height="169" xmlns="http://www.w3.org/2000/svg">
    <title>
        en
    </title>
    <g fill="none" fill-rule="evenodd">
        <path d="M3.481 142.238c0-22.65 35.651-30.107 79.832-30.107 44.186 0 80.187 10.123 80.187 30.63 0 13.853-12.36 22.404-27.827 22.404-17.334 0-28-9.106-28-22.958 0 12.758-8.667 20.97-24.001 20.97-16.667 0-24-8.212-24-20.97 0 13.852-11.665 22.958-28.332 22.958-15.464 0-27.859-9.075-27.859-22.927" fill-rule="nonzero" fill="#FFF"/>
        <path d="M6.812 142.255c.006 2.885.679 5.693 2.007 8.192 1.319 2.484 3.283 4.659 5.654 6.356 2.358 1.727 5.117 3.008 8.035 3.825 1.461.417 2.962.726 4.485.91 1.535.201 2.999.294 4.619.294 3.133.015 6.244-.324 9.21-1.08 2.963-.756 5.758-1.99 8.188-3.656 2.423-1.682 4.432-3.857 5.792-6.418 1.401-2.53 2.134-5.445 2.2-8.469v-.077a2.678 2.678 0 0 1 2.734-2.607c1.453.046 2.613 1.234 2.6 2.684.147 2.777.6 5.477 1.627 7.806.973 2.36 2.452 4.366 4.44 5.831 1.959 1.466 4.333 2.515 6.932 3.132a28.61 28.61 0 0 0 4.014.679 45.95 45.95 0 0 0 4.227.185c1.307 0 2.747-.047 4.093-.185a27.7 27.7 0 0 0 3.973-.71c2.587-.663 4.946-1.774 6.96-3.255a14.88 14.88 0 0 0 4.641-5.816c1.106-2.298 1.614-4.936 1.759-7.667h5.334c.107 5.014 1.933 9.703 5.32 13.02 3.387 3.348 8.094 5.307 13.08 6.125 1.254.2 2.52.339 3.8.416.64.03 1.2.062 1.893.077h1.48l.481-.015c2.546-.062 5.066-.37 7.493-.972 4.853-1.173 9.319-3.61 12.333-7.143a16.61 16.61 0 0 0 3.24-6.031c.333-1.065.534-2.299.614-3.363.106-1.28.106-2.376-.054-3.471-.534-4.397-3.6-8.3-7.64-11.277-4.04-3.008-8.92-5.199-13.934-6.958-5.04-1.758-10.307-3.07-15.626-4.088-10.667-2.02-21.6-2.961-32.56-3.285a278.698 278.698 0 0 0-16.454.046c-5.492.154-10.973.447-16.413.94-5.445.495-10.86 1.173-16.191 2.16-5.324.972-10.575 2.268-15.546 4.089-4.944 1.805-9.686 4.18-13.266 7.497-1.78 1.65-3.226 3.533-4.175 5.6a14.915 14.915 0 0 0-1.066 3.224c-.112.57-.194 1.126-.256 1.697l-.057.787-.02.971zm-6.666-.092l.031-1.05.097-1.28a25.51 25.51 0 0 1 .387-2.406 21.566 21.566 0 0 1 1.574-4.643c1.393-2.962 3.438-5.508 5.735-7.606 4.642-4.18 10.085-6.741 15.515-8.7 5.46-1.944 11.03-3.224 16.6-4.227 5.579-1.003 11.175-1.666 16.77-2.144 5.6-.463 11.188-.74 16.788-.864a405.132 405.132 0 0 1 16.773-.047c11.2.263 22.427 1.157 33.547 3.194 5.56 1.033 11.107 2.345 16.546 4.196 5.427 1.866 10.826 4.18 15.734 7.744 2.44 1.79 4.76 3.918 6.64 6.525 1.894 2.592 3.279 5.754 3.732 9.056.255 1.666.255 3.347.147 4.828-.133 1.697-.386 3.224-.84 4.798a23.425 23.425 0 0 1-4.52 8.53c-4.186 4.983-10.053 7.914-15.933 9.318a40.235 40.235 0 0 1-8.96 1.096h-1.16l-1.04-.031a57.606 57.606 0 0 1-2.252-.14 43.948 43.948 0 0 1-4.454-.585c-2.946-.556-5.894-1.45-8.694-2.793-2.774-1.357-5.4-3.193-7.573-5.507a22.498 22.498 0 0 1-4.933-8.068c-1.054-2.977-1.441-6.109-1.401-9.148a2.666 2.666 0 0 1 5.32-.324v.031l.014.293c.147 3.301-.307 6.742-1.587 10.012a20.87 20.87 0 0 1-6.2 8.454c-2.734 2.267-5.973 3.702-9.213 4.597a32.53 32.53 0 0 1-4.92.94c-1.653.201-3.24.294-4.947.294a53.188 53.188 0 0 1-4.813-.278 36.83 36.83 0 0 1-4.907-.894c-3.24-.833-6.547-2.222-9.307-4.52-2.786-2.253-4.893-5.369-6.067-8.655-1.158-3.301-1.52-6.695-1.373-9.95h5.333c.094 3.749-.64 7.62-2.346 11.107-1.694 3.502-4.306 6.51-7.363 8.778-3.062 2.299-6.554 3.857-10.112 4.86-3.57 1.002-7.23 1.48-10.858 1.542a41.718 41.718 0 0 1-5.504-.309 39.108 39.108 0 0 1-5.455-1.064c-3.592-1.003-7.093-2.56-10.214-4.813-3.103-2.252-5.8-5.23-7.625-8.731C1.016 150.077.12 146.112.145 142.24v-.046l.001-.031z" fill-rule="nonzero" fill="#231F20"/>
        <path d="M163.643 67.891c0 35.326-35.814 63.965-80 63.965-44.18 0-79.998-28.64-79.998-63.965 0-35.309 35.817-63.948 79.998-63.948 44.186 0 80 28.64 80 63.948" fill-rule="nonzero" fill="#FFF"/>
        <path d="M163.643 67.891c0 35.326-35.814 63.965-80 63.965-44.18 0-79.998-28.64-79.998-63.965 0-35.309 35.817-63.948 79.998-63.948 44.186 0 80 28.64 80 63.948z" stroke="#231F20" stroke-width="6.667"/>
        <path d="M163.562 67.891c0 35.326-35.812 63.965-80 63.965-44.183 0-80-28.64-80-63.965 0-35.309 35.817-63.948 80-63.948 44.188 0 80 28.64 80 63.948" fill-rule="nonzero" fill="#FFF"/>
        <path d="M163.562 67.891c0 35.326-35.812 63.965-80 63.965-44.183 0-80-28.64-80-63.965 0-35.309 35.817-63.948 80-63.948 44.188 0 80 28.64 80 63.948z" stroke="#231F20" stroke-width="6.667"/>
        <path d="M86.895 31.895s.052 1.13.133 3.105c.053 1.958.187 4.776.24 8.15.053 3.376.185 7.308.2 11.527.027 4.219.067 8.724.094 13.23-.027 4.49-.067 8.994-.094 13.213-.027 4.22-.147 8.151-.2 11.526-.068 3.376-.187 6.193-.24 8.168a269.895 269.895 0 0 0-.133 3.088 3.333 3.333 0 0 1-3.468 3.2 3.36 3.36 0 0 1-3.2-3.2s-.052-1.13-.133-3.088c-.053-1.975-.172-4.792-.24-8.168-.053-3.375-.173-7.307-.2-11.526-.027-4.219-.067-8.724-.094-13.213.027-4.506.054-9.011.094-13.23.013-4.219.147-8.151.2-11.526.053-3.375.187-6.193.24-8.151.08-1.974.133-3.105.133-3.105a3.331 3.331 0 0 1 3.468-3.184c1.746.064 3.12 1.48 3.2 3.184" fill-rule="nonzero" fill="#231F20"/>
        <path d="M47.56 64.564s1.123-.047 3.094-.125c1.968-.047 4.787-.189 8.16-.236 3.373-.063 7.307-.188 11.533-.204 4.213-.031 8.706-.063 13.213-.094 4.494.031 9 .063 13.215.094 4.225.016 8.16.141 11.532.188 3.374.063 6.186.205 8.16.252 1.974.078 3.094.125 3.094.125a3.334 3.334 0 0 1 3.186 3.487c-.066 1.743-1.48 3.109-3.186 3.187 0 0-1.12.048-3.094.126-1.974.063-4.786.189-8.16.251-3.373.047-7.307.173-11.532.205-4.215.03-8.72.047-13.215.078-4.507-.031-9-.063-13.213-.078-4.226-.032-8.16-.158-11.533-.205-3.373-.062-6.192-.188-8.16-.25l-3.093-.127a3.336 3.336 0 0 1-3.195-3.47 3.357 3.357 0 0 1 3.195-3.204" fill-rule="nonzero" fill="#231F20"/>
    </g>
</svg>
