<svg width="168" height="168" xmlns="http://www.w3.org/2000/svg">
    <title>
        i
    </title>
    <g fill="none" fill-rule="evenodd">
        <path d="M164.144 83.947c0 44.18-35.817 79.988-80 79.988s-80-35.807-80-79.988c0-44.18 35.817-80.004 80-80.004s80 35.823 80 80.004" fill-rule="nonzero" fill="#FFF"/>
        <path d="M164.144 83.947c0 44.18-35.817 79.988-80 79.988s-80-35.807-80-79.988c0-44.18 35.817-80.004 80-80.004s80 35.823 80 80.004z" stroke="#231F20" stroke-width="6.667"/>
        <path d="M87.417 3.95l.727 86.652a3.998 3.998 0 0 1-3.968 4.04 3.997 3.997 0 0 1-4.032-3.96v-.08l.725-86.653A3.272 3.272 0 0 1 84.171.7a3.278 3.278 0 0 1 3.246 3.25M57.44 60.61c0 5.145-4.17 9.327-9.317 9.327-5.143 0-9.314-4.182-9.314-9.327 0-5.144 4.171-9.31 9.314-9.31 5.146 0 9.317 4.166 9.317 9.31m72.036 0c0 5.145-4.17 9.327-9.315 9.327s-9.316-4.182-9.316-9.327c0-5.144 4.171-9.31 9.316-9.31 5.144 0 9.315 4.166 9.315 9.31" fill-rule="nonzero" fill="#231F20"/>
    </g>
</svg>
