<svg width="168" height="169" xmlns="http://www.w3.org/2000/svg">
    <title>
        in
    </title>
    <g fill="none" fill-rule="evenodd">
        <path d="M3.82 142.238c0-22.65 35.64-30.107 79.82-30.107 44.19 0 80.199 10.123 80.199 30.63 0 13.853-12.373 22.404-27.827 22.404-17.334 0-28.011-9.106-28.011-22.958 0 12.758-8.66 20.97-23.99 20.97-16.672 0-24.006-8.212-24.006-20.97 0 13.852-11.664 22.958-28.332 22.958-15.466 0-27.853-9.075-27.853-22.927" fill-rule="nonzero" fill="#FFF"/>
        <path d="M7.15 142.255c0 2.885.679 5.693 2 8.192 1.32 2.484 3.293 4.659 5.653 6.356 2.359 1.727 5.119 3.008 8.04 3.825 1.454.417 2.96.726 4.48.91 1.534.201 3 .294 4.627.294 3.133.015 6.24-.324 9.2-1.08 2.973-.756 5.759-1.99 8.2-3.656 2.417-1.682 4.422-3.857 5.78-6.418 1.404-2.53 2.144-5.445 2.206-8.469v-.077a2.68 2.68 0 0 1 2.73-2.607c1.45.046 2.623 1.234 2.607 2.684.14 2.777.602 5.477 1.62 7.806.972 2.36 2.453 4.366 4.443 5.831 1.96 1.466 4.335 2.515 6.926 3.132a28.86 28.86 0 0 0 4.027.679c1.419.123 2.638.185 4.227.185 1.295 0 2.746-.047 4.088-.185 1.357-.14 2.7-.386 3.98-.71 2.576-.663 4.936-1.774 6.957-3.255a14.879 14.879 0 0 0 4.628-5.816c1.11-2.298 1.62-4.936 1.774-7.667h5.322c.108 5.014 1.944 9.703 5.322 13.02 3.394 3.348 8.1 5.307 13.082 6.125 1.25.2 2.515.339 3.795.416.648.03 1.203.062 1.897.077h1.481l.479-.015c2.545-.062 5.075-.37 7.497-.972 4.86-1.173 9.318-3.61 12.326-7.143a16.471 16.471 0 0 0 3.24-6.031c.339-1.065.54-2.299.616-3.363.108-1.28.108-2.376-.046-3.471-.54-4.397-3.61-8.3-7.651-11.277-4.027-3.008-8.917-5.199-13.93-6.958-5.03-1.758-10.306-3.07-15.628-4.088-10.66-2.02-21.597-2.961-32.55-3.285a278.878 278.878 0 0 0-16.46.046c-5.492.154-10.968.447-16.414.94-5.445.495-10.865 1.173-16.185 2.16-5.333.972-10.573 2.268-15.547 4.089-4.946 1.805-9.692 4.18-13.265 7.497-1.788 1.65-3.228 3.533-4.175 5.6a14.586 14.586 0 0 0-1.066 3.224c-.12.57-.2 1.126-.254 1.697l-.067.787-.012.971zm-6.667-.092l.026-1.05.094-1.28c.093-.802.227-1.604.387-2.406.346-1.604.88-3.162 1.572-4.643 1.401-2.962 3.44-5.508 5.748-7.606 4.639-4.18 10.08-6.741 15.507-8.7 5.466-1.944 11.025-3.224 16.599-4.227 5.587-1.003 11.166-1.666 16.78-2.144 5.6-.463 11.185-.74 16.785-.864a404.879 404.879 0 0 1 16.769-.047c11.2.263 22.43 1.157 33.552 3.194 5.554 1.033 11.107 2.345 16.538 4.196 5.43 1.866 10.829 4.18 15.735 7.744 2.437 1.79 4.766 3.918 6.648 6.525 1.882 2.592 3.27 5.754 3.734 9.056.246 1.666.246 3.347.138 4.828-.138 1.697-.385 3.224-.833 4.798a23.448 23.448 0 0 1-4.52 8.53c-4.196 4.983-10.058 7.914-15.935 9.318a40.24 40.24 0 0 1-8.963 1.096h-1.157l-1.049-.031a60.724 60.724 0 0 1-2.252-.14 43.798 43.798 0 0 1-4.443-.585c-2.947-.556-5.893-1.45-8.7-2.793-2.777-1.357-5.4-3.193-7.575-5.507a22.57 22.57 0 0 1-4.937-8.068c-1.049-2.977-1.434-6.109-1.388-9.148a2.659 2.659 0 1 1 5.307-.324v.031l.015.293c.154 3.301-.308 6.742-1.589 10.012-1.28 3.24-3.44 6.232-6.186 8.454-2.746 2.267-5.985 3.702-9.225 4.597-1.635.447-3.27.756-4.92.94-1.652.201-3.24.294-4.937.294a53.06 53.06 0 0 1-4.813-.278 36.452 36.452 0 0 1-4.906-.894c-3.24-.833-6.556-2.222-9.318-4.52-2.776-2.253-4.89-5.369-6.062-8.655-1.157-3.301-1.512-6.695-1.373-9.95h5.337c.093 3.749-.648 7.62-2.345 11.107-1.696 3.502-4.319 6.51-7.358 8.778-3.07 2.299-6.567 3.857-10.128 4.86-3.558 1.002-7.225 1.48-10.852 1.542-1.76.015-3.68-.077-5.507-.309a39.263 39.263 0 0 1-5.454-1.064c-3.586-1.003-7.093-2.56-10.214-4.813-3.105-2.252-5.798-5.23-7.625-8.731-1.84-3.502-2.733-7.467-2.707-11.339v-.077z" fill-rule="nonzero" fill="#231F20"/>
        <path d="M163.982 67.891c0 35.326-35.824 63.965-80.006 63.965-44.187 0-80-28.64-80-63.965 0-35.309 35.813-63.948 80-63.948 44.182 0 80.006 28.64 80.006 63.948" fill-rule="nonzero" fill="#FFF"/>
        <path d="M163.982 67.891c0 35.326-35.824 63.965-80.006 63.965-44.187 0-80-28.64-80-63.965 0-35.309 35.813-63.948 80-63.948 44.182 0 80.006 28.64 80.006 63.948z" stroke="#231F20" stroke-width="6.667"/>
        <path d="M163.821 67.891c0 35.326-35.823 63.965-80.004 63.965-44.187 0-80.001-28.64-80.001-63.965 0-35.309 35.814-63.948 80-63.948 44.182 0 80.005 28.64 80.005 63.948" fill-rule="nonzero" fill="#FFF"/>
        <path d="M163.821 67.891c0 35.326-35.823 63.965-80.004 63.965-44.187 0-80.001-28.64-80.001-63.965 0-35.309 35.814-63.948 80-63.948 44.182 0 80.005 28.64 80.005 63.948z" stroke="#231F20" stroke-width="6.667"/>
        <path d="M87.095 3.95l.721 86.652a3.992 3.992 0 0 1-3.96 4.04 4.006 4.006 0 0 1-4.04-3.96v-.08l.733-86.653A3.267 3.267 0 0 1 83.843.7a3.291 3.291 0 0 1 3.252 3.25M57.106 60.61c0 5.145-4.16 9.327-9.306 9.327-5.146 0-9.32-4.182-9.32-9.327 0-5.144 4.174-9.31 9.32-9.31a9.303 9.303 0 0 1 9.306 9.31m72.046 0c0 5.145-4.182 9.327-9.311 9.327-5.145 0-9.327-4.182-9.327-9.327 0-5.144 4.182-9.31 9.327-9.31 5.129 0 9.31 4.166 9.31 9.31" fill-rule="nonzero" fill="#231F20"/>
    </g>
</svg>
