<svg width="168" height="167" xmlns="http://www.w3.org/2000/svg">
    <title>
        ja
    </title>
    <g fill="none" fill-rule="evenodd">
        <path d="M86.67 18.407c8.12-9.138 19.957-14.883 33.136-14.883 24.485 0 44.333 22.332 44.333 51.002V83.53c0 44.174-35.818 79.99-80 79.99-44.183 0-80-35.816-80-79.99v-7.175c0-34.33 27.5-62.162 61.833-62.162 34.334 0 62.167 27.833 62.167 62.162" fill-rule="nonzero" fill="#FFF"/>
        <path d="M84.771 16.534s.392-.419 1.152-1.257c.785-.824 1.78-2.053 3.678-3.629 1.774-1.663 4.092-3.325 6.982-5.074l2.307-1.258c.4-.217.801-.448 1.222-.65.433-.188.873-.376 1.32-.564.899-.362 1.826-.752 2.78-1.142.96-.376 2.002-.608 3.045-.926 2.078-.694 4.364-.997 6.743-1.416 1.19-.188 2.43-.188 3.688-.29.63-.043 1.267-.072 1.91-.115l.122-.015c-.13 0 .316.015.308.015h.226l.453.029.913.058c.612.029 1.23.057 1.854.1l.941.044c.326.03.697.101 1.046.16 1.41.245 2.882.447 4.314.765 1.378.39 2.78.796 4.208 1.215 1.382.535 2.773 1.127 4.19 1.706 5.553 2.602 10.891 6.534 15.407 11.623 4.53 5.088 8.18 11.363 10.606 18.36 1.19 3.498 2.142 7.17 2.674 10.972.247 1.908.565 3.817.584 5.768l.132 2.95c.048.982.016 1.879.027 2.833.013 7.517.028 15.28.04 23.275l.007 3.007-.01.838-.016.766-.037 1.518-.036 1.518-.115 1.62c-.09 1.07-.136 2.182-.268 3.238-.442 4.264-1.28 8.529-2.395 12.75a83.48 83.48 0 0 1-11.005 24.33c-10.016 15.166-25.597 27.454-43.836 33.309-9.082 2.92-18.782 4.365-28.397 4.004l-1.744-.043-1.846-.145c-1.23-.087-2.472-.173-3.66-.347-2.406-.26-4.792-.694-7.172-1.156a82.077 82.077 0 0 1-13.91-4.207c-9-3.614-17.396-8.76-24.575-15.237a84.5 84.5 0 0 1-17.824-22.466c-4.533-8.4-7.6-17.507-9.057-26.744-.717-4.612-1.01-9.31-1.02-13.85l.02-6.78c.13-2.212.179-4.351.374-6.592.364-2.313.625-4.684 1.11-6.925.281-1.099.561-2.212.84-3.31.301-1.085.508-2.212.938-3.253.385-1.07.77-2.125 1.152-3.18.376-1.056.752-2.111 1.27-3.109.483-.997.963-2.01 1.442-3.007l.723-1.503.855-1.431a65.532 65.532 0 0 1 16.944-19.372C39.75 14.019 56.36 9.798 70.79 11.128c1.687.014 3.6.404 5.406.665.909.144 1.813.289 2.713.433.88.174 1.72.434 2.575.65.849.218 1.693.435 2.532.666.843.202 1.673.434 2.468.766 1.606.593 3.193 1.185 4.76 1.764a72.243 72.243 0 0 1 16.135 9.845c9.086 7.72 14.907 16.61 18.254 24.417 3.347 7.878 4.28 14.586 4.86 19.068.16 2.27.182 4.019.243 5.19l.068 1.778a2.667 2.667 0 0 1-2.557 2.761 2.662 2.662 0 0 1-2.759-2.486l-.017-.275-.104-1.634c-.082-1.07-.135-2.674-.323-4.756-.628-4.091-1.614-10.192-4.802-17.29-3.12-7.07-8.507-15.064-16.801-21.974-4.236-3.325-9.13-6.36-14.674-8.746-1.417-.506-2.853-1.026-4.306-1.547-.717-.289-1.468-.477-2.23-.665-.758-.188-1.52-.376-2.287-.564-.766-.188-1.538-.419-2.31-.563a113.45 113.45 0 0 0-2.319-.333c-1.573-.217-3.048-.55-4.86-.564-.87-.029-1.745-.072-2.625-.115l-1.323-.058-.663-.03h.008l-.157.015-.315.015-5.096.26c-1.703.202-3.408.52-5.137.766-.872.087-1.717.333-2.569.55-.852.23-1.708.448-2.568.664a58.32 58.32 0 0 0-19.517 9.845 58.846 58.846 0 0 0-15.17 17.392l-.77 1.286-.64 1.345c-.429.896-.858 1.807-1.29 2.703-.47.896-.799 1.836-1.132 2.79-.343.954-.686 1.894-1.03 2.848-.393.94-.565 1.937-.833 2.92-.25.983-.502 1.98-.754 2.964-.42 1.98-.618 3.932-.963 5.913-.183 2.11-.235 4.351-.36 6.52l-.001 6.447c.02 4.308.294 8.53.957 12.78a77.099 77.099 0 0 0 8.344 24.518 77.658 77.658 0 0 0 16.385 20.6c6.595 5.928 14.304 10.626 22.551 13.922a75.503 75.503 0 0 0 12.744 3.846c2.181.404 4.366.81 6.572 1.04 1.108.174 2.182.217 3.262.304l1.62.13 1.727.044c8.9.332 17.723-.998 26.051-3.672 16.687-5.364 30.965-16.625 40.134-30.533a76.12 76.12 0 0 0 10.064-22.263c1.02-3.874 1.777-7.777 2.196-11.666.124-.969.16-1.908.246-2.862l.114-1.432.04-1.518.07-2.934.004-3.007c.015-7.995.03-15.758.04-23.275-.008-.925.027-1.909-.018-2.776l-.111-2.617c-.002-1.749-.29-3.455-.5-5.146-.46-3.383-1.299-6.636-2.335-9.744-2.121-6.173-5.306-11.68-9.22-16.104-3.902-4.438-8.469-7.807-13.171-10.019-1.2-.506-2.382-.997-3.543-1.474a389.909 389.909 0 0 1-3.551-1.041c-1.15-.246-2.258-.39-3.355-.607-.281-.058-.531-.116-.834-.145l-.94-.058c-.624-.043-1.242-.072-1.854-.115l-.913-.044-.453-.029-.226-.014c-.08 0 .288.014.083 0l-.104.014c-.555.03-1.104.044-1.647.073-1.084.072-2.158.043-3.186.202-2.05.333-4.034.535-5.833 1.128-.903.26-1.81.433-2.645.751-.834.304-1.643.622-2.429.911-.395.145-.783.29-1.166.434-.37.173-.724.361-1.078.535-.706.347-1.389.694-2.046 1.012-2.563 1.43-4.689 2.833-6.184 4.062-1.57 1.084-2.778 2.385-3.6 3.137-.82.766-1.245 1.157-1.245 1.157a2.67 2.67 0 0 1-3.771-.116 2.681 2.681 0 0 1-.026-3.629" fill-rule="nonzero" fill="#231F20"/>
        <path d="M118.471 42.635s8.88-4.67 14.562-6.164m-7.985 20.256s7.035-2.756 13.36-3.717" stroke="#231F20" stroke-width="4.667" stroke-linecap="round" stroke-linejoin="round"/>
        <path d="M73.88 111.22c-.28 4.092-3.674 7.175-7.58 6.912-3.907-.263-6.846-3.802-6.566-7.88.281-4.093 3.675-7.19 7.581-6.927 3.906.276 6.845 3.802 6.565 7.894" fill-rule="nonzero" fill="#231F20"/>
        <path d="M91.75 111.415c-.306-.43-.593-.89-.909-1.306a43.342 43.342 0 0 0-2.298-2.835 40.716 40.716 0 0 0-2.489-2.654c-.853-.862-1.76-1.654-2.67-2.432-.943-.723-1.867-1.487-2.87-2.098-.969-.681-2.012-1.181-3.031-1.737-1.05-.417-2.14-.931-3.112-1.154-.874-.347-2.298-.472-3.533-.667.336.042.086.014.157.028h-.819l-.833-.014c-.554-.041-1.114.084-1.673.14-1.122.083-2.23.43-3.346.68-1.094.403-2.204.75-3.267 1.279-1.088.458-2.119 1.083-3.163 1.653-1.022.64-2.039 1.293-3.015 2.015-.98.723-1.946 1.46-2.867 2.265a47.318 47.318 0 0 0-2.708 2.488 38.248 38.248 0 0 0-2.466 2.612l.185-2.682a37.518 37.518 0 0 0 2.085 2.932 48.362 48.362 0 0 0 2.343 2.835 45.311 45.311 0 0 0 2.53 2.64c.868.848 1.788 1.626 2.712 2.404.956.709 1.892 1.473 2.907 2.07.98.668 2.035 1.154 3.063 1.71 1.06.403 2.158.917 3.138 1.112.514.125.945.32 1.639.375l1.733.236c1.112-.042 2.217.056 3.333-.18 1.118-.084 2.219-.459 3.326-.723 1.086-.417 2.187-.764 3.24-1.306 1.077-.459 2.097-1.098 3.13-1.682 1.009-.653 2.013-1.306 2.976-2.042a39.148 39.148 0 0 0 2.828-2.293 46.18 46.18 0 0 0 2.664-2.488c.374-.375.718-.792 1.08-1.18zm5.453 1.946a47.088 47.088 0 0 1-2.796 2.973 48.862 48.862 0 0 1-2.968 2.724c-1.012.89-2.077 1.71-3.169 2.515-1.083.806-2.23 1.543-3.386 2.251-1.195.681-2.37 1.376-3.651 1.918-1.235.625-2.58 1.056-3.897 1.529-1.378.333-2.733.736-4.177.861-1.413.25-2.881.167-4.328.167l-2.072-.292c-.589-.056-1.376-.292-2.1-.486-1.529-.348-2.758-.945-4.078-1.487-1.232-.653-2.493-1.279-3.62-2.057-1.184-.722-2.239-1.598-3.318-2.432-1.035-.875-2.056-1.764-3.006-2.723-.957-.945-1.887-1.904-2.754-2.932-.884-1-1.723-2.043-2.524-3.113a46.034 46.034 0 0 1-2.322-3.35 2.319 2.319 0 0 1 .184-2.695 44.36 44.36 0 0 1 2.76-3.001 48.18 48.18 0 0 1 2.924-2.738 46.985 46.985 0 0 1 3.13-2.53c1.07-.819 2.204-1.555 3.35-2.292 1.182-.68 2.345-1.39 3.616-1.945 1.225-.626 2.56-1.07 3.869-1.557 1.37-.347 2.718-.764 4.158-.903.712-.083 1.416-.222 2.147-.195h2.159l.187.014c1.294.195 2.445.237 4.01.709 1.538.347 2.775.931 4.105 1.46 1.24.638 2.513 1.25 3.653 2.028 1.196.709 2.262 1.57 3.354 2.404 1.048.862 2.084 1.75 3.047 2.696a48.318 48.318 0 0 1 2.796 2.918c.9 1 1.753 2.043 2.568 3.099a46.058 46.058 0 0 1 2.375 3.363 2.596 2.596 0 0 1-.209 3.07l-.017.029z" fill-rule="nonzero" fill="#231F20"/>
        <path d="M2.694 78.278s.288-.424.828-1.229c.273-.396.61-.89 1.006-1.47.449-.593.965-1.256 1.543-2.02 1.177-1.483 2.67-3.164 4.523-5.014 1.898-1.78 4.09-3.758 6.76-5.566 2.647-1.809 5.666-3.589 9.07-5.03a50.277 50.277 0 0 1 11.129-3.263 26.725 26.725 0 0 1 3.019-.424c1.019-.113 2.045-.24 3.084-.254l1.56-.057c.287 0 .466-.028.842-.014l.751.014 1.508.043 1.619.127a45.39 45.39 0 0 1 12.574 2.868 48.78 48.78 0 0 1 11.313 6.088c3.445 2.473 6.554 5.284 9.212 8.307 5.344 6.046 8.982 12.757 11.226 18.775 2.28 6.032 3.146 11.386 3.555 15.116.167 1.879.272 3.348.28 4.365l.043 1.54a2.66 2.66 0 0 1-2.59 2.74 2.663 2.663 0 0 1-2.74-2.585l-.001-.028-.002-.127-.027-1.399c.005-.932-.081-2.274-.214-3.984-.34-3.404-1.078-8.32-3.114-13.858-1.998-5.552-5.277-11.74-10.11-17.32a50.164 50.164 0 0 0-8.322-7.657 44.773 44.773 0 0 0-10.186-5.622 41.027 41.027 0 0 0-11.247-2.698l-1.401-.128-1.508-.042-.75-.028c-.125-.014-.446 0-.658.014l-1.422.028c-.948 0-1.882.113-2.812.198-.932.07-1.849.198-2.754.353a46.591 46.591 0 0 0-10.185 2.882c-3.126 1.286-5.91 2.896-8.36 4.535-2.473 1.624-4.507 3.433-6.278 5.057-1.72 1.681-3.135 3.25-4.213 4.577-.524.664-.99 1.258-1.398 1.78-.398.565-.736 1.06-1.011 1.455l-.84 1.215a2.01 2.01 0 0 1-2.783.509 2.007 2.007 0 0 1-.52-2.769" fill-rule="nonzero" fill="#231F20"/>
    </g>
</svg>
