<svg width="169" height="167" xmlns="http://www.w3.org/2000/svg">
    <title>
        jan
    </title>
    <g fill="none" fill-rule="evenodd">
        <path d="M4.249 140.756c0-22.471 35.824-29.87 80.222-29.87 44.4 0 80.569 10.044 80.569 30.393 0 13.75-12.415 22.237-27.956 22.237-17.417 0-28.135-9.038-28.135-22.788 0 12.662-8.71 20.818-24.119 20.818-16.746 0-24.114-8.156-24.114-20.818 0 13.75-11.725 22.788-28.473 22.788-15.54 0-27.994-8.996-27.994-22.76" fill-rule="nonzero" fill="#FFF"/>
        <path d="M7.58 140.775c.005 2.883.69 5.684 2.036 8.154 1.336 2.469 3.322 4.621 5.708 6.304 2.379 1.697 5.148 2.967 8.075 3.767a30.69 30.69 0 0 0 4.494.896 36.17 36.17 0 0 0 4.624.29c3.136.014 6.251-.317 9.223-1.062 2.971-.745 5.776-1.96 8.224-3.6 2.444-1.656 4.471-3.822 5.853-6.347 1.409-2.525 2.155-5.436 2.228-8.443l.002-.083a2.663 2.663 0 0 1 2.73-2.594 2.668 2.668 0 0 1 2.602 2.677c.149 2.773.603 5.45 1.642 7.78.989 2.332 2.494 4.319 4.488 5.767 1.986 1.435 4.374 2.484 6.98 3.09 1.301.304 2.645.525 4.022.65 1.424.137 2.638.192 4.223.192 1.31 0 2.752-.055 4.093-.193a28.897 28.897 0 0 0 3.986-.69c2.588-.648 4.967-1.738 6.997-3.214 2.027-1.476 3.615-3.45 4.682-5.74 1.116-2.29 1.636-4.925 1.787-7.642h5.334c.08 2.497.523 4.939 1.446 7.132.923 2.208 2.253 4.194 3.957 5.836 3.425 3.311 8.185 5.229 13.186 6.015a38.72 38.72 0 0 0 3.81.414c.646.028 1.2.069 1.904.069h1.042l.917-.014c2.553-.069 5.088-.372 7.522-.98 4.866-1.172 9.355-3.586 12.38-7.118a16.123 16.123 0 0 0 3.246-6.015c.32-1.076.535-2.318.605-3.353.095-1.352.082-2.331-.085-3.463-.603-4.36-3.742-8.236-7.843-11.16-4.105-2.953-9.004-5.133-14.046-6.857-5.063-1.725-10.338-3.022-15.677-4.015-10.697-1.987-21.656-2.911-32.622-3.228a285.882 285.882 0 0 0-16.493.041c-5.497.166-10.984.455-16.439.938-5.453.497-10.88 1.16-16.222 2.125-5.338.98-10.603 2.249-15.597 4.042-4.965 1.794-9.737 4.139-13.363 7.422-1.802 1.642-3.27 3.505-4.235 5.56a14.955 14.955 0 0 0-1.085 3.215 17.551 17.551 0 0 0-.262 1.697l-.06.772-.018.966zm-6.666-.097l.032-1.034.1-1.297c.095-.814.221-1.614.397-2.414.354-1.6.9-3.174 1.611-4.65 1.424-2.952 3.502-5.49 5.822-7.56 4.688-4.139 10.15-6.65 15.594-8.581 5.474-1.918 11.053-3.187 16.634-4.18 5.587-.98 11.191-1.628 16.794-2.097 5.604-.47 11.206-.732 16.805-.87 5.605-.11 11.17-.151 16.8-.041 11.216.248 22.455 1.131 33.603 3.132 5.57 1.007 11.122 2.29 16.583 4.097 5.445 1.835 10.857 4.125 15.813 7.616 2.462 1.752 4.812 3.835 6.742 6.415 1.92 2.566 3.391 5.698 3.89 9.023.272 1.614.28 3.435.183 4.842a22.53 22.53 0 0 1-.825 4.829 22.809 22.809 0 0 1-4.545 8.553c-4.206 4.98-10.096 7.864-15.973 9.271a41.224 41.224 0 0 1-8.963 1.104h-1.162l-1.042-.028c-.681-.027-1.512-.082-2.253-.124a54.4 54.4 0 0 1-4.45-.58c-2.96-.537-5.906-1.42-8.712-2.73-2.79-1.34-5.442-3.133-7.649-5.423-2.206-2.29-3.96-5.05-5.025-8.043-1.081-2.98-1.485-6.112-1.439-9.16v-.014a2.652 2.652 0 0 1 2.492-2.815 2.658 2.658 0 0 1 2.826 2.483l.002.028.014.304c.15 3.31-.328 6.76-1.624 10.016a20.866 20.866 0 0 1-6.282 8.401c-2.751 2.222-5.998 3.629-9.236 4.512-1.626.427-3.27.745-4.907.924a44.8 44.8 0 0 1-4.935.29 49.43 49.43 0 0 1-4.81-.29 33.732 33.732 0 0 1-4.888-.869c-3.24-.814-6.54-2.166-9.324-4.429-2.81-2.22-4.961-5.311-6.154-8.595-1.183-3.297-1.552-6.705-1.408-9.96h5.334c.094 3.752-.666 7.643-2.395 11.12-1.726 3.476-4.372 6.47-7.45 8.705-3.08 2.262-6.574 3.794-10.13 4.787-3.568.98-7.221 1.435-10.844 1.504a43.732 43.732 0 0 1-5.492-.304 38.945 38.945 0 0 1-5.45-1.048c-3.591-.98-7.094-2.511-10.232-4.732-3.12-2.222-5.85-5.174-7.704-8.664-1.872-3.477-2.797-7.464-2.77-11.34v-.042l.002-.042z" fill-rule="nonzero" fill="#231F20"/>
        <path d="M87.184 15.332c8.161-7.247 20.054-11.808 33.297-11.808 24.605 0 44.55 17.713 44.55 40.464V67c0 35.051-35.992 63.462-80.389 63.462-44.4 0-80.39-28.41-80.39-63.462v-5.688c0-27.24 27.633-49.328 62.134-49.328 34.501 0 62.468 22.087 62.468 49.328" fill-rule="nonzero" fill="#FFF"/>
        <path d="M85.47 13.274s.385-.347 1.13-1.026c.737-.68 2.106-1.793 3.767-2.978 3.402-2.371 8.811-5.48 16.352-7.359A55.678 55.678 0 0 1 119.396.206l.878-.03h.504l.42.015c.563.015 1.133.03 1.707.03 1.255.086 2.553.158 3.793.317 2.521.29 5.12.752 7.746 1.475 5.246 1.43 10.649 3.802 15.665 7.358 5.007 3.556 9.643 8.327 12.998 14.283 3.399 5.899 5.378 13.011 5.394 20.37l.04 20.904.003 1.359.002.665-.022.795-.09 2.718c-.09 1.012-.185 2.01-.279 3.021-.102.998-.29 1.938-.435 2.92a56.309 56.309 0 0 1-3.31 11.436c-3.004 7.46-7.724 14.283-13.438 20.196-5.717 5.942-12.568 10.828-19.954 14.804a95.328 95.328 0 0 1-23.77 8.659c-8.3 1.85-16.939 2.646-25.48 2.4a102.824 102.824 0 0 1-25.56-3.903c-8.3-2.444-16.358-5.884-23.67-10.568-7.313-4.655-13.956-10.424-19.263-17.305C7.98 95.273 4.058 87.321 2.19 78.922 1.236 74.76.834 70.407.844 66.258l.003-2.978.001-1.475.01-.852.024-.738.047-1.489.148-1.648c.08-1.113.263-2.154.432-3.21 1.427-8.399 5.432-16.017 10.585-22.161 5.19-6.159 11.548-10.9 18.204-14.428 13.39-7.055 27.955-9.252 40.846-8.457 13.11.824 24.738 4.684 33.92 10.12 4.584 2.732 8.574 5.825 11.889 9.078 3.31 3.267 5.97 6.665 8.009 9.975 4.07 6.665 5.551 12.794 6.132 16.915.181 1.026.224 1.951.3 2.746.082.796.092 1.46.1 2.01.023 1.07.033 1.633.033 1.633a2.664 2.664 0 0 1-5.326.174l-.007-.174s-.024-.491-.065-1.43c-.02-.463-.04-1.056-.132-1.75-.082-.68-.136-1.489-.318-2.385-.596-3.571-2-8.848-5.71-14.63-1.83-2.877-4.22-5.87-7.213-8.761-3.001-2.877-6.633-5.61-10.82-8.038-8.36-4.843-19.17-8.27-31.098-8.877-6.065-.318-12.306.015-18.657 1.244-6.323 1.257-12.726 3.34-18.733 6.549-5.998 3.195-11.653 7.46-16.175 12.852-4.493 5.377-7.875 11.883-9.06 18.967-.14.882-.298 1.778-.352 2.616l-.122 1.287-.047 1.49-.021.736-.006.636.001 1.475.002 2.978c.003 3.802.357 7.474 1.197 11.16 1.648 7.345 5.1 14.356 9.856 20.5 4.765 6.144 10.81 11.407 17.523 15.671 6.712 4.28 14.176 7.445 21.888 9.715a96.24 96.24 0 0 0 23.775 3.585c8.081.217 16.077-.506 23.816-2.255 7.741-1.677 15.16-4.438 22.002-8.009 6.793-3.657 13.047-8.139 18.195-13.502 5.146-5.335 9.333-11.407 11.96-17.956a49.588 49.588 0 0 0 2.894-9.99c.124-.838.302-1.69.387-2.515l.248-2.443c.033-.896.065-1.792.096-2.703l.022-.564.002-.665.002-1.359.038-20.904c.003-6.159-1.605-12.043-4.43-17.001-2.787-4.988-6.696-9.065-10.972-12.115-4.285-3.08-8.946-5.147-13.5-6.404a44.548 44.548 0 0 0-6.74-1.316c-1.118-.144-2.152-.202-3.183-.275l-1.696-.043-.42-.014h-.331l-.781.014c-4.149.043-7.942.535-11.285 1.33-3.338.78-6.25 1.75-8.696 2.805-2.443 1.04-4.416 2.154-5.992 3.079-1.593.998-2.602 1.72-3.419 2.342-.802.607-1.214.925-1.214.925a2.656 2.656 0 0 1-3.744-.477c-.853-1.099-.7-2.66.305-3.6" fill-rule="nonzero" fill="#231F20"/>
        <path d="M119.139 34.565s8.922-3.711 14.632-4.896m-8.024 16.079s7.07-2.2 13.425-2.952" stroke="#231F20" stroke-width="4.667" stroke-linecap="round" stroke-linejoin="round"/>
        <path d="M73.996 90.99c-.279 4.086-3.673 7.183-7.58 6.904-3.906-.265-6.845-3.794-6.565-7.881.28-4.088 3.675-7.184 7.582-6.92 3.904.266 6.845 3.809 6.563 7.896" fill-rule="nonzero" fill="#231F20"/>
        <path d="M91.865 91.177c-.306-.435-.593-.884-.908-1.304a42.632 42.632 0 0 0-2.298-2.832c-.79-.94-1.63-1.809-2.489-2.664-.854-.855-1.76-1.64-2.67-2.426-.943-.715-1.868-1.486-2.87-2.089-.968-.687-2.013-1.191-3.03-1.738-1.052-.42-2.141-.94-3.113-1.15-.875-.35-2.298-.477-3.533-.673.336.042.085.014.157.014h-1.652c-.555-.042-1.114.07-1.674.14-1.121.07-2.229.42-3.345.687-1.094.393-2.205.73-3.268 1.276-1.088.449-2.119 1.08-3.163 1.655-1.02.63-2.039 1.275-3.014 2.004a43.527 43.527 0 0 0-2.868 2.272 47.217 47.217 0 0 0-2.707 2.481 41.872 41.872 0 0 0-2.466 2.622l.184-2.692c.6.94 1.344 1.991 2.084 2.944a48.183 48.183 0 0 0 2.345 2.819 41.3 41.3 0 0 0 2.53 2.635c.867.856 1.788 1.64 2.712 2.412.956.715 1.891 1.472 2.906 2.075.98.673 2.035 1.164 3.064 1.71 1.06.407 2.157.912 3.137 1.108.515.14.945.322 1.64.378l1.732.239c1.112-.042 2.218.042 3.334-.182 1.118-.085 2.218-.45 3.326-.73 1.086-.406 2.187-.757 3.24-1.303 1.077-.463 2.096-1.094 3.128-1.683 1.01-.645 2.015-1.304 2.978-2.033a42.95 42.95 0 0 0 2.828-2.3 41.768 41.768 0 0 0 2.665-2.495c.373-.364.718-.785 1.078-1.177zm5.453 1.948a43.114 43.114 0 0 1-2.795 2.973 49.225 49.225 0 0 1-2.968 2.734 47.175 47.175 0 0 1-3.17 2.51c-1.082.798-2.229 1.542-3.386 2.257-1.194.673-2.368 1.374-3.65 1.92-1.236.617-2.579 1.038-3.897 1.515-1.378.336-2.734.743-4.178.869-1.413.252-2.88.154-4.326.154l-2.073-.28c-.59-.056-1.376-.295-2.1-.491-1.53-.35-2.76-.953-4.078-1.486-1.231-.645-2.493-1.276-3.62-2.061-1.185-.715-2.24-1.585-3.318-2.426-1.034-.869-2.058-1.766-3.007-2.72a47.55 47.55 0 0 1-2.754-2.93 53.77 53.77 0 0 1-2.523-3.112 43.16 43.16 0 0 1-2.323-3.365 2.292 2.292 0 0 1 .185-2.678c.926-1.122 1.803-2.047 2.758-3.014a48.098 48.098 0 0 1 2.927-2.734c.997-.898 2.051-1.725 3.128-2.538 1.071-.813 2.205-1.556 3.35-2.285 1.183-.673 2.346-1.388 3.617-1.95 1.225-.616 2.56-1.065 3.87-1.541 1.369-.351 2.716-.772 4.158-.912.712-.084 1.414-.224 2.145-.196h2.16l.187.014c1.294.196 2.445.238 4.01.715 1.539.336 2.775.925 4.105 1.444 1.24.645 2.513 1.262 3.652 2.033 1.197.715 2.263 1.57 3.355 2.397 1.047.884 2.083 1.767 3.047 2.706.971.94 1.915 1.907 2.795 2.917a50.11 50.11 0 0 1 2.57 3.112 46.397 46.397 0 0 1 2.375 3.35c.625.982.506 2.23-.209 3.071l-.02.028z" fill-rule="nonzero" fill="#231F20"/>
        <path d="M2.827 59.248s.29-.413.836-1.182c.279-.399.596-.868 1.019-1.438.451-.57.972-1.224 1.556-1.965a60.004 60.004 0 0 1 4.55-4.84c1.909-1.71 4.1-3.617 6.758-5.326 2.638-1.737 5.636-3.431 8.997-4.798a52.78 52.78 0 0 1 10.955-3.133c.977-.156 1.96-.327 2.964-.412 1.003-.086 2.008-.228 3.027-.242 1.036-.029 2.008-.114 3.11-.072.991.029 1.946.015 3.044.128 4.24.328 8.395 1.14 12.409 2.578 4 1.423 7.826 3.331 11.29 5.666a55.315 55.315 0 0 1 9.315 7.888c5.465 5.781 9.215 12.302 11.554 18.197 1.19 2.933 1.985 5.752 2.575 8.258.606 2.52.9 4.755 1.126 6.592.18 1.85.286 3.303.295 4.3.03.997.044 1.523.044 1.523a2.666 2.666 0 0 1-2.589 2.748 2.672 2.672 0 0 1-2.74-2.591l-.002-.028-.003-.129-.027-1.38c.003-.898-.083-2.222-.226-3.888-.19-1.68-.43-3.716-.96-5.994-.513-2.292-1.206-4.855-2.264-7.546-2.076-5.396-5.442-11.39-10.37-16.702a49.582 49.582 0 0 0-8.407-7.275 45.97 45.97 0 0 0-10.179-5.24c-3.584-1.338-7.434-2.121-11.12-2.449-.884-.114-1.914-.114-2.892-.156-.871-.043-1.86.042-2.775.042-.932 0-1.852.128-2.769.2-.918.057-1.818.213-2.714.356a47.8 47.8 0 0 0-10.053 2.748c-3.093 1.224-5.858 2.748-8.3 4.314-2.463 1.552-4.495 3.303-6.27 4.855a55.59 55.59 0 0 0-4.23 4.4c-.527.654-.997 1.224-1.406 1.722-.404.541-.741 1.025-1.02 1.41l-.85 1.182a2 2 0 0 1-3.258-2.321" fill-rule="nonzero" fill="#231F20"/>
    </g>
</svg>
