<svg width="167" height="167" xmlns="http://www.w3.org/2000/svg">
    <title>
        je
    </title>
    <g fill="none" fill-rule="evenodd">
        <path d="M86.004 18.407c8.12-9.138 19.956-14.883 33.134-14.883 24.485 0 44.334 22.332 44.334 51.002V83.53c0 44.174-35.818 79.99-80 79.99-44.183 0-80-35.816-80-79.99v-7.175c0-34.33 27.5-62.162 61.833-62.162s62.167 27.833 62.167 62.162" fill-rule="nonzero" fill="#FFF"/>
        <path d="M84.102 16.534s.392-.419 1.153-1.257c.785-.824 1.78-2.053 3.679-3.629 1.774-1.663 4.091-3.325 6.98-5.074l2.308-1.258c.4-.217.802-.448 1.222-.65.433-.188.873-.376 1.321-.564.9-.362 1.826-.752 2.779-1.142.96-.376 2.003-.608 3.046-.926 2.078-.694 4.365-.997 6.742-1.416 1.191-.188 2.43-.188 3.688-.29.63-.043 1.268-.072 1.911-.115l.121-.015c-.13 0 .316.015.308.015h.227l.451.029.914.058c.612.029 1.23.057 1.855.1l.941.044c.325.03.695.101 1.045.16 1.411.245 2.883.447 4.314.765a448.1 448.1 0 0 1 4.208 1.215c1.384.535 2.773 1.127 4.19 1.706 5.554 2.602 10.893 6.534 15.408 11.623 4.53 5.088 8.18 11.363 10.605 18.36 1.19 3.498 2.142 7.17 2.676 10.972.246 1.908.564 3.817.584 5.768l.129 2.95c.049.982.017 1.879.028 2.833.013 7.517.028 15.28.04 23.275l.007 3.007-.009.838-.017.766-.036 1.518-.037 1.518-.115 1.62c-.09 1.07-.136 2.182-.266 3.238-.444 4.264-1.283 8.529-2.397 12.75a83.48 83.48 0 0 1-11.004 24.33c-10.017 15.166-25.597 27.454-43.836 33.309-9.083 2.92-18.783 4.365-28.397 4.004l-1.744-.043-1.847-.145c-1.23-.087-2.472-.173-3.658-.347-2.408-.26-4.793-.694-7.174-1.156a82.052 82.052 0 0 1-13.908-4.207c-9.001-3.614-17.397-8.76-24.577-15.237a84.452 84.452 0 0 1-17.823-22.466c-4.534-8.4-7.6-17.507-9.057-26.744-.717-4.612-1.012-9.31-1.02-13.85.007-2.27.012-4.54.02-6.78.128-2.212.179-4.351.374-6.592.364-2.313.626-4.684 1.109-6.925.282-1.099.562-2.212.841-3.31.3-1.085.509-2.212.938-3.253.385-1.07.77-2.125 1.153-3.18.375-1.056.751-2.111 1.269-3.109.483-.997.963-2.01 1.443-3.007l.721-1.503.854-1.431a65.555 65.555 0 0 1 16.945-19.372C39.083 14.019 55.694 9.798 70.124 11.128c1.687.014 3.6.404 5.406.665.909.144 1.813.289 2.712.433.882.174 1.721.434 2.576.65.847.218 1.693.435 2.531.666.843.202 1.674.434 2.468.766 1.607.593 3.193 1.185 4.76 1.764a72.246 72.246 0 0 1 16.135 9.845c9.086 7.72 14.907 16.61 18.255 24.417 3.346 7.878 4.28 14.586 4.859 19.068.159 2.27.183 4.019.244 5.19l.068 1.778a2.667 2.667 0 0 1-2.558 2.761 2.662 2.662 0 0 1-2.758-2.486l-.019-.275s-.033-.564-.102-1.634c-.083-1.07-.136-2.674-.323-4.756-.629-4.091-1.615-10.192-4.804-17.29-3.118-7.07-8.506-15.064-16.8-21.974-4.235-3.325-9.129-6.36-14.673-8.746-1.418-.506-2.852-1.026-4.307-1.547-.717-.289-1.467-.477-2.23-.665l-2.286-.564c-.766-.188-1.538-.419-2.31-.563a113.45 113.45 0 0 0-2.319-.333c-1.574-.217-3.049-.55-4.86-.564-.87-.029-1.746-.072-2.625-.115l-1.325-.058-.663-.03h.01l-.158.015-.315.015-5.096.26c-1.701.202-3.407.52-5.137.766-.872.087-1.716.333-2.568.55-.853.23-1.709.448-2.569.664a58.344 58.344 0 0 0-19.518 9.845 58.858 58.858 0 0 0-15.169 17.392l-.769 1.286-.64 1.345c-.43.896-.858 1.807-1.288 2.703-.472.896-.801 1.836-1.134 2.79-.343.954-.688 1.894-1.03 2.848-.394.94-.564 1.937-.833 2.92l-.754 2.964c-.423 1.98-.62 3.932-.962 5.913-.185 2.11-.236 4.351-.362 6.52l-.001 6.447c.02 4.308.293 8.53.957 12.78a77.134 77.134 0 0 0 8.344 24.518 77.67 77.67 0 0 0 16.385 20.6c6.595 5.928 14.305 10.626 22.55 13.922a75.56 75.56 0 0 0 12.744 3.846c2.183.404 4.366.81 6.574 1.04 1.107.174 2.181.217 3.263.304l1.617.13 1.73.044c8.9.332 17.722-.998 26.049-3.672 16.687-5.364 30.965-16.625 40.135-30.533a76.116 76.116 0 0 0 10.063-22.263c1.021-3.874 1.779-7.777 2.196-11.666.125-.969.16-1.908.248-2.862l.112-1.432.042-1.518c.023-.983.045-1.951.07-2.934.001-.998.001-2.01.004-3.007l.039-23.275c-.009-.925.027-1.909-.019-2.776l-.11-2.617c-.003-1.749-.292-3.455-.501-5.146-.46-3.383-1.297-6.636-2.335-9.744-2.12-6.173-5.306-11.68-9.219-16.104-3.903-4.438-8.469-7.807-13.171-10.019a390.73 390.73 0 0 0-3.544-1.474 401.191 401.191 0 0 1-3.552-1.041c-1.149-.246-2.256-.39-3.354-.607-.28-.058-.53-.116-.834-.145l-.94-.058c-.622-.043-1.241-.072-1.854-.115l-.914-.044-.45-.029-.226-.014c-.081 0 .287.014.082 0l-.104.014c-.555.03-1.105.044-1.648.073-1.084.072-2.157.043-3.185.202-2.051.333-4.035.535-5.833 1.128-.904.26-1.811.433-2.644.751-.836.304-1.644.622-2.43.911-.396.145-.784.29-1.167.434-.37.173-.723.361-1.077.535-.707.347-1.39.694-2.047 1.012-2.562 1.43-4.687 2.833-6.183 4.062-1.57 1.084-2.779 2.385-3.6 3.137-.82.766-1.244 1.157-1.244 1.157a2.67 2.67 0 0 1-3.772-.116 2.682 2.682 0 0 1-.028-3.629" fill-rule="nonzero" fill="#231F20"/>
        <path d="M124.382 56.727s7.035-2.756 13.361-3.717" stroke="#231F20" stroke-width="4.667" stroke-linecap="round" stroke-linejoin="round"/>
        <path d="M69.805 58.185l.132 2.485c.053 1.582.186 3.855.246 6.566.057 2.726.172 5.903.211 9.292.055 3.403.065 7.032.078 10.647-.014 3.629-.024 7.258-.08 10.647-.044 3.403-.154 6.58-.212 9.291-.062 2.726-.191 4.985-.245 6.58l-.13 2.486a3.34 3.34 0 0 1-3.504 3.163c-1.72-.085-3.069-1.483-3.162-3.163l-.127-2.485c-.055-1.596-.185-3.855-.246-6.58-.059-2.712-.168-5.889-.21-9.292-.058-3.389-.07-7.018-.082-10.647.013-3.615.021-7.244.078-10.647.038-3.39.152-6.566.211-9.292.058-2.71.192-4.984.248-6.566l.128-2.485a3.333 3.333 0 0 1 3.51-3.163c1.716.085 3.063 1.482 3.156 3.163" fill-rule="nonzero" fill="#231F20"/>
        <path d="M37.473 83.846s.906-.056 2.492-.126c1.586-.056 3.853-.195 6.57-.25 2.72-.057 5.89-.168 9.29-.21 3.399-.056 7.022-.07 10.647-.084 3.627.014 7.252.028 10.65.084 3.398.028 6.57.153 9.288.21 2.719.055 4.987.194 6.57.236 1.587.084 2.493.14 2.493.14a3.333 3.333 0 0 1 3.16 3.5c-.091 1.716-1.48 3.069-3.16 3.167 0 0-.906.041-2.492.125-1.584.056-3.852.182-6.57.251-2.72.056-5.89.168-9.29.21-3.397.055-7.022.07-10.649.07-3.625 0-7.248-.015-10.647-.07-3.4-.042-6.57-.154-9.29-.224-2.717-.055-4.984-.181-6.57-.237-1.586-.084-2.492-.125-2.492-.125a3.347 3.347 0 0 1-3.16-3.515 3.34 3.34 0 0 1 3.16-3.152" fill-rule="nonzero" fill="#231F20"/>
    </g>
</svg>
