<svg width="169" height="167" xmlns="http://www.w3.org/2000/svg">
    <title>
        jen
    </title>
    <g fill="none" fill-rule="evenodd">
        <path d="M3.711 140.756c0-22.471 35.824-29.87 80.228-29.87 44.388 0 80.554 10.044 80.554 30.393 0 13.75-12.414 22.237-27.941 22.237-17.428 0-28.147-9.038-28.147-22.788 0 12.662-8.708 20.818-24.107 20.818-16.746 0-24.12-8.156-24.12-20.818 0 13.75-11.725 22.788-28.473 22.788-15.54 0-27.994-8.996-27.994-22.76" fill-rule="nonzero" fill="#FFF"/>
        <path d="M7.042 140.775c.005 2.883.692 5.684 2.035 8.154 1.337 2.469 3.322 4.621 5.71 6.304 2.378 1.697 5.147 2.967 8.074 3.767 1.464.414 2.969.703 4.495.896 1.534.194 3.003.29 4.623.29 3.136.014 6.25-.317 9.223-1.062 2.97-.745 5.776-1.96 8.224-3.6 2.444-1.656 4.47-3.822 5.856-6.347 1.4-2.525 2.147-5.436 2.227-8.443v-.083a2.663 2.663 0 0 1 2.733-2.594 2.674 2.674 0 0 1 2.6 2.677c.146 2.773.6 5.45 1.64 7.78.987 2.332 2.494 4.319 4.493 5.767 1.986 1.435 4.373 2.484 6.974 3.09 1.306.304 2.653.525 4.027.65 1.426.137 2.639.192 4.225.192 1.307 0 2.747-.055 4.094-.193a29.025 29.025 0 0 0 3.987-.69c2.587-.648 4.96-1.738 6.986-3.214 2.021-1.476 3.608-3.45 4.684-5.74 1.117-2.29 1.642-4.925 1.78-7.642h5.339c.096 2.497.524 4.939 1.448 7.132a17.504 17.504 0 0 0 3.96 5.836c3.435 3.311 8.195 5.229 13.189 6.015 1.255.207 2.525.331 3.794.414.662.028 1.2.069 1.918.069h1.034l.925-.014c2.552-.069 5.09-.372 7.518-.98 4.87-1.172 9.354-3.586 12.39-7.118a16.352 16.352 0 0 0 3.242-6.015c.317-1.076.524-2.318.607-3.353.096-1.352.082-2.331-.097-3.463-.593-4.36-3.725-8.236-7.836-11.16-4.111-2.953-8.995-5.133-14.045-6.857-5.063-1.725-10.347-3.022-15.672-4.015-10.706-1.987-21.66-2.911-32.63-3.228-5.467-.152-11-.124-16.494.041-5.494.166-10.987.455-16.44.938-5.45.497-10.878 1.16-16.221 2.125-5.336.98-10.602 2.249-15.595 4.042-4.965 1.794-9.737 4.139-13.363 7.422-1.802 1.642-3.271 3.505-4.235 5.56a15.03 15.03 0 0 0-1.085 3.215 17.551 17.551 0 0 0-.262 1.697l-.06.772-.019.966zm-6.666-.097l.03-1.034.103-1.297c.092-.814.22-1.614.396-2.414.354-1.6.899-3.174 1.61-4.65 1.425-2.952 3.502-5.49 5.823-7.56 4.688-4.139 10.15-6.65 15.595-8.581 5.474-1.918 11.052-3.187 16.633-4.18 5.586-.98 11.191-1.628 16.795-2.097 5.601-.47 11.201-.732 16.801-.87 5.614-.11 11.173-.151 16.8-.041 11.21.248 22.454 1.131 33.601 3.132 5.574 1.007 11.134 2.29 16.583 4.097 5.45 1.835 10.858 4.125 15.81 7.616 2.47 1.752 4.816 3.835 6.747 6.415 1.931 2.566 3.394 5.698 3.904 9.023.262 1.614.276 3.435.166 4.842a21.948 21.948 0 0 1-.828 4.829 23.125 23.125 0 0 1-4.525 8.553c-4.222 4.98-10.113 7.864-15.976 9.271a41.333 41.333 0 0 1-8.981 1.104h-1.16l-1.034-.028c-.676-.027-1.504-.082-2.249-.124a53.911 53.911 0 0 1-4.456-.58c-2.966-.537-5.904-1.42-8.705-2.73-2.787-1.34-5.45-3.133-7.657-5.423-2.194-2.29-3.96-5.05-5.022-8.043-1.09-2.98-1.49-6.112-1.448-9.16v-.014a2.657 2.657 0 0 1 2.497-2.815 2.667 2.667 0 0 1 2.828 2.483v.028l.014.304c.152 3.31-.318 6.76-1.614 10.016-1.325 3.242-3.518 6.208-6.291 8.401-2.75 2.222-5.99 3.629-9.231 4.512a33.735 33.735 0 0 1-4.906.924 44.716 44.716 0 0 1-4.934.29c-1.44-.014-3.24-.11-4.813-.29a33.72 33.72 0 0 1-4.894-.869c-3.24-.814-6.532-2.166-9.32-4.429-2.812-2.22-4.96-5.311-6.159-8.595-1.174-3.297-1.548-6.705-1.4-9.96h5.333c.093 3.752-.667 7.643-2.4 11.12-1.72 3.476-4.374 6.47-7.447 8.705-3.08 2.262-6.573 3.794-10.13 4.787-3.567.98-7.22 1.435-10.843 1.504a43.754 43.754 0 0 1-5.494-.304 38.964 38.964 0 0 1-5.448-1.048c-3.591-.98-7.094-2.511-10.233-4.732-3.119-2.222-5.85-5.174-7.703-8.664-1.873-3.477-2.795-7.464-2.77-11.34v-.042l.002-.042z" fill-rule="nonzero" fill="#231F20"/>
        <path d="M86.64 15.332c8.16-7.247 20.053-11.808 33.306-11.808 24.601 0 44.547 17.713 44.547 40.464V67c0 35.051-35.986 63.462-80.386 63.462-44.402 0-80.393-28.41-80.393-63.462v-5.688c0-27.24 27.634-49.328 62.14-49.328 34.493 0 62.467 22.087 62.467 49.328" fill-rule="nonzero" fill="#FFF"/>
        <path d="M84.939 13.274s.374-.347 1.12-1.026c.748-.68 2.106-1.793 3.773-2.978 3.4-2.371 8.815-5.48 16.348-7.359A55.704 55.704 0 0 1 118.86.206l.879-.03h.507l.414.015c.56.015 1.133.03 1.706.03 1.253.086 2.547.158 3.8.317 2.52.29 5.12.752 7.746 1.475 5.24 1.43 10.64 3.802 15.654 7.358 5.013 3.556 9.654 8.327 13 14.283 3.4 5.899 5.387 13.011 5.402 20.37l.043 20.904v2.024l-.029.795-.087 2.718c-.086 1.012-.187 2.01-.274 3.021-.101.998-.29 1.938-.448 2.92-.674 3.875-1.793 7.72-3.3 11.436-3 7.46-7.72 14.283-13.44 20.196-5.72 5.942-12.56 10.828-19.947 14.804a95.515 95.515 0 0 1-23.773 8.659c-8.306 1.85-16.947 2.646-25.48 2.4a102.741 102.741 0 0 1-25.56-3.903C47.37 127.554 39.31 124.114 32 119.43c-7.31-4.655-13.957-10.424-19.26-17.305-5.299-6.852-9.22-14.804-11.09-23.203C.698 74.76.296 70.407.307 66.258l.002-2.978.002-1.475.009-.852.024-.738.048-1.489.147-1.648c.081-1.113.263-2.154.433-3.21 1.426-8.399 5.43-16.017 10.585-22.161 5.19-6.159 11.548-10.9 18.204-14.428 13.39-7.055 27.952-9.252 40.845-8.457 13.107.824 24.733 4.684 33.92 10.12 4.587 2.732 8.573 5.825 11.894 9.078 3.306 3.267 5.96 6.665 8 9.975 4.08 6.665 5.56 12.794 6.132 16.915.187 1.026.227 1.951.308 2.746.08.796.093 1.46.093 2.01l.04 1.633a2.67 2.67 0 0 1-2.613 2.718 2.663 2.663 0 0 1-2.72-2.544v-.174s-.027-.491-.068-1.43a16.08 16.08 0 0 0-.133-1.75c-.08-.68-.133-1.489-.32-2.385-.586-3.571-2-8.848-5.707-14.63-1.826-2.877-4.225-5.87-7.212-8.761-3-2.877-6.627-5.61-10.827-8.038-8.36-4.843-19.16-8.27-31.095-8.877-6.066-.318-12.305.015-18.654 1.244-6.324 1.257-12.727 3.34-18.733 6.549-5.997 3.195-11.654 7.46-16.176 12.852-4.493 5.377-7.874 11.883-9.06 18.967-.14.882-.298 1.778-.353 2.616l-.121 1.287-.046 1.49-.023.736-.005.636.002 1.475.003 2.978c.001 3.802.355 7.474 1.195 11.16 1.648 7.345 5.1 14.356 9.857 20.5 4.765 6.144 10.809 11.407 17.523 15.671 6.712 4.28 14.176 7.445 21.886 9.715a96.3 96.3 0 0 0 23.772 3.585c8.081.217 16.082-.506 23.815-2.255 7.745-1.677 15.173-4.438 22.013-8.009 6.787-3.657 13.04-8.139 18.186-13.502 5.147-5.335 9.333-11.407 11.96-17.956a48.848 48.848 0 0 0 2.894-9.99c.133-.838.307-1.69.386-2.515.094-.81.174-1.633.253-2.443.028-.896.067-1.792.094-2.703l.028-.564v-2.024l.039-20.904c0-6.159-1.6-12.043-4.44-17.001-2.774-4.988-6.693-9.065-10.96-12.115-4.293-3.08-8.947-5.147-13.508-6.404a44.408 44.408 0 0 0-6.732-1.316c-1.12-.144-2.16-.202-3.186-.275l-1.695-.043-.426-.014h-.32l-.786.014c-4.148.043-7.947.535-11.28 1.33-3.347.78-6.255 1.75-8.706 2.805-2.44 1.04-4.414 2.154-5.988 3.079a47.65 47.65 0 0 0-3.427 2.342c-.8.607-1.213.925-1.213.925a2.644 2.644 0 0 1-3.734-.477 2.675 2.675 0 0 1 .307-3.6" fill-rule="nonzero" fill="#231F20"/>
        <path d="M125.213 45.748s7.067-2.2 13.426-2.952" stroke="#231F20" stroke-width="4.667" stroke-linecap="round" stroke-linejoin="round"/>
        <path d="M70.345 40.903s.054.91.134 2.49c.052 1.579.186 3.855.253 6.572.054 2.718.174 5.89.213 9.29.053 3.4.053 7.014.067 10.642-.014 3.628-.014 7.256-.08 10.656-.04 3.4-.146 6.573-.214 9.29-.053 2.717-.187 4.98-.24 6.573-.079 1.579-.133 2.49-.133 2.49a3.324 3.324 0 0 1-3.493 3.158c-1.72-.085-3.08-1.48-3.174-3.158 0 0-.04-.911-.12-2.49-.053-1.594-.185-3.856-.252-6.573-.054-2.717-.161-5.89-.2-9.29-.068-3.4-.068-7.028-.08-10.656 0-3.628.012-7.241.066-10.642.04-3.4.16-6.572.214-9.29.067-2.717.199-4.993.253-6.572.08-1.58.12-2.49.12-2.49a3.34 3.34 0 0 1 3.52-3.158c1.706.085 3.054 1.48 3.146 3.158" fill-rule="nonzero" fill="#231F20"/>
        <path d="M38.02 66.559s.906-.042 2.492-.127c1.586-.056 3.85-.182 6.572-.239 2.718-.056 5.888-.168 9.289-.21 3.401-.057 7.027-.07 10.641-.085 3.626.014 7.253.028 10.653.085 3.4.028 6.573.14 9.293.21 2.721.057 4.987.183 6.573.24 1.574.084 2.48.126 2.48.126a3.33 3.33 0 0 1 3.161 3.513c-.08 1.715-1.481 3.064-3.16 3.162 0 0-.907.042-2.48.127-1.587.056-3.853.182-6.574.253-2.72.056-5.894.168-9.293.21-3.4.057-7.027.057-10.653.07-3.614-.013-7.24-.027-10.641-.084-3.4-.042-6.571-.154-9.29-.21-2.72-.057-4.985-.183-6.57-.24-1.587-.084-2.492-.126-2.492-.126a3.347 3.347 0 0 1-3.162-3.513c.09-1.715 1.48-3.064 3.162-3.162" fill-rule="nonzero" fill="#231F20"/>
    </g>
</svg>
