<svg width="167" height="167" xmlns="http://www.w3.org/2000/svg">
    <title>
        jo
    </title>
    <g fill="none" fill-rule="evenodd">
        <path d="M86.006 18.407c8.122-9.138 19.958-14.883 33.137-14.883 24.485 0 44.333 22.332 44.333 51.002V83.53c0 44.174-35.817 79.99-80 79.99-44.182 0-80-35.816-80-79.99v-7.175c0-34.33 27.5-62.162 61.833-62.162s62.168 27.833 62.168 62.162" fill-rule="nonzero" fill="#FFF"/>
        <path d="M84.105 16.534s.393-.419 1.152-1.257c.786-.824 1.78-2.053 3.679-3.629 1.775-1.663 4.093-3.325 6.981-5.074.742-.405 1.51-.824 2.309-1.258.399-.217.8-.448 1.221-.65.433-.188.873-.376 1.322-.564.896-.362 1.823-.752 2.778-1.142.962-.376 2.002-.608 3.045-.926 2.079-.694 4.364-.997 6.742-1.416 1.191-.188 2.432-.188 3.688-.29.632-.043 1.268-.072 1.911-.115l.122-.015c-.13 0 .315.015.308.015h.225l.453.029.913.058c.612.029 1.23.057 1.855.1l.941.044c.325.03.697.101 1.045.16 1.41.245 2.882.447 4.314.765 1.38.39 2.782.796 4.21 1.215 1.38.535 2.771 1.127 4.19 1.706 5.552 2.602 10.891 6.534 15.407 11.623 4.53 5.088 8.178 11.363 10.606 18.36 1.188 3.498 2.14 7.17 2.674 10.972.246 1.908.564 3.817.584 5.768.042.983.087 1.966.129 2.95.049.982.017 1.879.029 2.833.014 7.517.026 15.28.04 23.275.002.997.003 2.01.006 3.007l-.009.838-.017.766-.036 1.518-.035 1.518-.117 1.62c-.09 1.07-.136 2.182-.266 3.238-.442 4.264-1.28 8.529-2.395 12.75a83.485 83.485 0 0 1-11.006 24.33c-10.016 15.166-25.597 27.454-43.835 33.309-9.083 2.92-18.782 4.365-28.397 4.004l-1.745-.043-1.846-.145c-1.23-.087-2.472-.173-3.66-.347-2.406-.26-4.792-.694-7.173-1.156a82.052 82.052 0 0 1-13.908-4.207c-9-3.614-17.397-8.76-24.576-15.237a84.48 84.48 0 0 1-17.824-22.466c-4.533-8.4-7.6-17.507-9.058-26.744-.716-4.612-1.01-9.31-1.02-13.85.008-2.27.014-4.54.02-6.78.13-2.212.179-4.351.374-6.592.366-2.313.626-4.684 1.111-6.925.28-1.099.561-2.212.84-3.31.301-1.085.508-2.212.939-3.253.384-1.07.769-2.125 1.15-3.18.378-1.056.754-2.111 1.271-3.109.482-.997.963-2.01 1.443-3.007l.721-1.503.856-1.431A65.51 65.51 0 0 1 25.73 24.312C39.086 14.019 55.696 9.798 70.127 11.128c1.687.014 3.6.404 5.405.665.91.144 1.813.289 2.712.433.882.174 1.722.434 2.575.65.85.218 1.692.435 2.532.666.843.202 1.674.434 2.47.766 1.606.593 3.193 1.185 4.759 1.764a72.246 72.246 0 0 1 16.135 9.845c9.086 7.72 14.906 16.61 18.254 24.417 3.347 7.878 4.28 14.586 4.859 19.068.16 2.27.183 4.019.244 5.19l.068 1.778a2.661 2.661 0 1 1-5.316.275l-.017-.275-.104-1.634c-.083-1.07-.135-2.674-.322-4.756-.63-4.091-1.615-10.192-4.804-17.29-3.119-7.07-8.507-15.064-16.8-21.974-4.236-3.325-9.13-6.36-14.674-8.746-1.418-.506-2.852-1.026-4.306-1.547-.717-.289-1.468-.477-2.231-.665-.757-.188-1.52-.376-2.286-.564-.766-.188-1.538-.419-2.31-.563-.769-.116-1.542-.232-2.32-.333-1.573-.217-3.047-.55-4.857-.564-.872-.029-1.748-.072-2.627-.115l-1.323-.058-.665-.03h.01l-.157.015-.315.015-5.096.26c-1.703.202-3.408.52-5.137.766-.872.087-1.717.333-2.569.55-.853.23-1.709.448-2.569.664a58.344 58.344 0 0 0-19.517 9.845 58.858 58.858 0 0 0-15.17 17.392l-.769 1.286-.642 1.345c-.426.896-.857 1.807-1.288 2.703-.47.896-.8 1.836-1.132 2.79l-1.03 2.848c-.392.94-.564 1.937-.833 2.92l-.753 2.964c-.422 1.98-.62 3.932-.965 5.913-.183 2.11-.234 4.351-.36 6.52l-.001 6.447c.02 4.308.294 8.53.959 12.78a77.095 77.095 0 0 0 8.342 24.518 77.67 77.67 0 0 0 16.385 20.6c6.595 5.928 14.305 10.626 22.551 13.922a75.535 75.535 0 0 0 12.745 3.846c2.182.404 4.364.81 6.572 1.04 1.107.174 2.183.217 3.263.304l1.617.13 1.728.044c8.902.332 17.724-.998 26.052-3.672 16.686-5.364 30.965-16.625 40.134-30.533a76.116 76.116 0 0 0 10.064-22.263c1.02-3.874 1.778-7.777 2.196-11.666.124-.969.16-1.908.247-2.862l.113-1.432.041-1.518c.022-.983.045-1.951.07-2.934l.004-3.007c.015-7.995.028-15.758.04-23.275-.008-.925.027-1.909-.018-2.776l-.111-2.617c-.003-1.749-.292-3.455-.502-5.146-.46-3.383-1.297-6.636-2.335-9.744-2.12-6.173-5.305-11.68-9.219-16.104-3.902-4.438-8.468-7.807-13.171-10.019-1.2-.506-2.381-.997-3.543-1.474a416.046 416.046 0 0 1-3.552-1.041c-1.15-.246-2.257-.39-3.354-.607-.28-.058-.53-.116-.834-.145l-.94-.058c-.625-.043-1.242-.072-1.855-.115l-.914-.044-.45-.029-.226-.014c-.081 0 .288.014.082 0l-.104.014c-.553.03-1.103.044-1.648.073-1.084.072-2.157.043-3.185.202-2.051.333-4.034.535-5.833 1.128-.903.26-1.811.433-2.645.751-.835.304-1.643.622-2.428.911-.397.145-.785.29-1.166.434-.372.173-.725.361-1.079.535-.707.347-1.389.694-2.045 1.012-2.563 1.43-4.689 2.833-6.185 4.062-1.571 1.084-2.778 2.385-3.601 3.137-.821.766-1.243 1.157-1.243 1.157a2.671 2.671 0 0 1-3.773-.116 2.683 2.683 0 0 1-.026-3.629" fill-rule="nonzero" fill="#231F20"/>
        <path d="M117.808 42.635s8.88-4.67 14.563-6.164m-7.983 20.256s7.035-2.756 13.36-3.717" stroke="#231F20" stroke-width="4.667" stroke-linecap="round" stroke-linejoin="round"/>
        <path d="M92.474 85.853c0 14.359-11.64 25.997-26 25.997s-26-11.638-26-25.997c0-14.358 11.64-25.997 26-25.997s26 11.64 26 25.997" fill-rule="nonzero" fill="#FFF"/>
        <path d="M92.474 85.853c0 14.359-11.64 25.997-26 25.997s-26-11.638-26-25.997c0-14.358 11.64-25.997 26-25.997s26 11.64 26 25.997z" stroke="#231F20" stroke-width="6.667"/>
        <path d="M76.477 84.696c0 5.53-4.477 10.01-10 10.01-5.522 0-10-4.48-10-10.01 0-5.516 4.478-9.996 10-9.996 5.523 0 10 4.48 10 9.996" fill-rule="nonzero" fill="#231F20"/>
    </g>
</svg>
