<svg width="169" height="167" xmlns="http://www.w3.org/2000/svg">
    <title>
        jon
    </title>
    <g fill="none" fill-rule="evenodd">
        <path d="M3.79 140.756c0-22.471 35.835-29.87 80.212-29.87 44.405 0 80.584 10.044 80.584 30.393 0 13.75-12.413 22.237-27.968 22.237-17.415 0-28.134-9.038-28.134-22.788 0 12.662-8.707 20.818-24.124 20.818-16.74 0-24.097-8.156-24.097-20.818 0 13.75-11.738 22.788-28.478 22.788-15.54 0-27.996-8.996-27.996-22.76" fill-rule="nonzero" fill="#FFF"/>
        <path d="M7.128 140.775c0 2.883.69 5.684 2.014 8.154 1.352 2.469 3.339 4.621 5.726 6.304 2.373 1.697 5.146 2.967 8.07 3.767 1.463.414 2.967.703 4.484.896a36.52 36.52 0 0 0 4.636.29c3.131.014 6.25-.317 9.23-1.062 2.966-.745 5.766-1.96 8.222-3.6 2.442-1.656 4.47-3.822 5.85-6.347 1.407-2.525 2.152-5.436 2.234-8.443v-.083a2.648 2.648 0 0 1 2.732-2.594 2.671 2.671 0 0 1 2.594 2.677c.151 2.773.607 5.45 1.641 7.78.994 2.332 2.498 4.319 4.484 5.767 1.987 1.435 4.374 2.484 6.981 3.09 1.31.304 2.649.525 4.028.65 1.421.137 2.622.192 4.208.192 1.325 0 2.773-.055 4.098-.193a28.282 28.282 0 0 0 3.987-.69c2.594-.648 4.98-1.738 7.008-3.214 2.015-1.476 3.601-3.45 4.677-5.74 1.118-2.29 1.642-4.925 1.78-7.642h5.339c.083 2.497.538 4.939 1.449 7.132a17.504 17.504 0 0 0 3.96 5.836c3.42 3.311 8.18 5.229 13.174 6.015 1.256.207 2.539.331 3.822.414.648.028 1.2.069 1.904.069h1.034l.925-.014c2.538-.069 5.077-.372 7.519-.98 4.87-1.172 9.353-3.586 12.389-7.118a16.352 16.352 0 0 0 3.242-6.015 16.32 16.32 0 0 0 .593-3.353c.097-1.352.083-2.331-.083-3.463-.593-4.36-3.739-8.236-7.836-11.16-4.111-2.953-8.995-5.133-14.058-6.857-5.05-1.725-10.334-3.022-15.673-4.015-10.692-1.987-21.66-2.911-32.614-3.228a286.127 286.127 0 0 0-16.5.041c-5.49.166-10.982.455-16.431.938-5.463.497-10.885 1.16-16.238 2.125-5.325.98-10.596 2.249-15.576 4.042-4.98 1.794-9.754 4.139-13.382 7.422-1.794 1.642-3.256 3.505-4.222 5.56a14.253 14.253 0 0 0-1.09 3.215c-.11.552-.207 1.117-.262 1.697l-.055.772-.014.966zm-6.677-.097l.027-1.034.11-1.297c.097-.814.208-1.614.387-2.414.359-1.6.91-3.174 1.614-4.65 1.421-2.952 3.504-5.49 5.822-7.56 4.705-4.139 10.154-6.65 15.604-8.581 5.463-1.918 11.037-3.187 16.624-4.18 5.587-.98 11.189-1.628 16.804-2.097 5.6-.47 11.202-.732 16.803-.87 5.602-.11 11.175-.151 16.79-.041 11.216.248 22.46 1.131 33.608 3.132 5.573 1.007 11.12 2.29 16.583 4.097 5.435 1.835 10.857 4.125 15.81 7.616 2.47 1.752 4.815 3.835 6.732 6.415 1.946 2.566 3.408 5.698 3.905 9.023.276 1.614.276 3.435.18 4.842a21.948 21.948 0 0 1-.829 4.829 22.758 22.758 0 0 1-4.539 8.553c-4.207 4.98-10.098 7.864-15.976 9.271a41.21 41.21 0 0 1-8.967 1.104h-1.159l-1.035-.028c-.676-.027-1.517-.082-2.248-.124a53.911 53.911 0 0 1-4.457-.58c-2.966-.537-5.904-1.42-8.705-2.73-2.8-1.34-5.45-3.133-7.657-5.423s-3.96-5.05-5.022-8.043c-1.09-2.98-1.49-6.112-1.448-9.16v-.014c-.083-1.463 1.035-2.732 2.497-2.815a2.667 2.667 0 0 1 2.828 2.483v.028l.014.304c.138 3.31-.317 6.76-1.628 10.016-1.31 3.242-3.504 6.208-6.277 8.401-2.746 2.222-5.988 3.629-9.23 4.512a34.159 34.159 0 0 1-4.911.924 44.996 44.996 0 0 1-4.94.29 49.138 49.138 0 0 1-4.8-.29 33.775 33.775 0 0 1-4.898-.869c-3.242-.814-6.526-2.166-9.312-4.429-2.815-2.22-4.967-5.311-6.167-8.595-1.173-3.297-1.545-6.705-1.394-9.96h5.326c.096 3.752-.663 7.643-2.4 11.12-1.712 3.476-4.374 6.47-7.45 8.705-3.077 2.262-6.568 3.794-10.14 4.787-3.56.98-7.202 1.435-10.83 1.504a43.654 43.654 0 0 1-5.492-.304 38.754 38.754 0 0 1-5.45-1.048c-3.6-.98-7.09-2.511-10.236-4.732-3.118-2.222-5.836-5.174-7.712-8.664-1.862-3.477-2.787-7.464-2.76-11.34v-.084z" fill-rule="nonzero" fill="#231F20"/>
        <path d="M86.718 15.332c8.157-7.247 20.052-11.808 33.29-11.808 24.614 0 44.564 17.713 44.564 40.464V67c0 35.051-36.003 63.462-80.394 63.462-44.391 0-80.395-28.41-80.395-63.462v-5.688c0-27.24 27.645-49.328 62.133-49.328 34.517 0 62.48 22.087 62.48 49.328" fill-rule="nonzero" fill="#FFF"/>
        <path d="M85.005 13.274s.39-.347 1.142-1.026c.723-.68 2.096-1.793 3.773-2.978 3.398-2.371 8.79-5.48 16.336-7.359A55.782 55.782 0 0 1 118.935.206l.882-.03h.491l.434.015c.564.015 1.127.03 1.706.03 1.257.086 2.544.158 3.787.317 2.516.29 5.118.752 7.75 1.475 5.247 1.43 10.654 3.802 15.67 7.358 5.002 3.556 9.628 8.327 12.997 14.283 3.397 5.899 5.363 13.011 5.392 20.37.015 6.751.029 13.734.043 20.904v2.024l-.028.795c-.03.896-.044 1.807-.073 2.718-.1 1.012-.188 2.01-.289 3.021-.101.998-.289 1.938-.434 2.92-.679 3.875-1.807 7.72-3.31 11.436-3.007 7.46-7.734 14.283-13.445 20.196-5.71 5.942-12.563 10.828-19.95 14.804a95.245 95.245 0 0 1-23.767 8.659c-8.298 1.85-16.943 2.646-25.472 2.4a102.65 102.65 0 0 1-25.56-3.903c-8.312-2.444-16.365-5.884-23.68-10.568-7.315-4.655-13.95-10.424-19.256-17.305-5.291-6.852-9.224-14.804-11.088-23.203C.78 74.76.375 70.407.375 66.258L.39 63.28v-2.327l.029-.738.058-1.489.144-1.648c.073-1.113.26-2.154.42-3.21 1.43-8.399 5.45-16.017 10.596-22.161 5.19-6.159 11.537-10.9 18.201-14.428 13.402-7.055 27.96-9.252 40.855-8.457 13.098.824 24.735 4.684 33.915 10.12 4.583 2.732 8.573 5.825 11.898 9.078 3.296 3.267 5.956 6.665 7.995 9.975 4.062 6.665 5.551 12.794 6.13 16.915.187 1.026.23 1.951.303 2.746.087.796.101 1.46.101 2.01l.043 1.633a2.675 2.675 0 0 1-2.616 2.718 2.652 2.652 0 0 1-2.718-2.544v-.174s-.029-.491-.072-1.43c-.03-.463-.044-1.056-.13-1.75-.087-.68-.13-1.489-.319-2.385-.607-3.571-1.995-8.848-5.71-14.63-1.821-2.877-4.221-5.87-7.214-8.761-2.992-2.877-6.635-5.61-10.828-8.038-8.356-4.843-19.17-8.27-31.096-8.877-6.058-.318-12.303.015-18.65 1.244-6.331 1.257-12.736 3.34-18.735 6.549-6 3.195-11.652 7.46-16.177 12.852C12.33 41.45 8.934 47.956 7.749 55.04c-.145.882-.29 1.778-.347 2.616l-.13 1.287-.044 1.49-.014.736v5.089c0 3.802.347 7.474 1.2 11.16 1.633 7.345 5.088 14.356 9.845 20.5 4.756 6.144 10.813 11.407 17.521 15.671 6.722 4.28 14.182 7.445 21.887 9.715a96.225 96.225 0 0 0 23.782 3.585c8.08.217 16.075-.506 23.81-2.255 7.749-1.677 15.165-4.438 22.003-8.009 6.794-3.657 13.054-8.139 18.2-13.502 5.147-5.335 9.325-11.407 11.956-17.956a48.567 48.567 0 0 0 2.892-9.99c.13-.838.318-1.69.39-2.515.087-.81.16-1.633.26-2.443.015-.896.044-1.792.087-2.703l.015-.564.014-.665v-1.359l.043-20.904c0-6.159-1.619-12.043-4.438-17.001-2.79-4.988-6.693-9.065-10.987-12.115-4.28-3.08-8.92-5.147-13.488-6.404a44.465 44.465 0 0 0-6.751-1.316c-1.099-.144-2.14-.202-3.166-.275l-1.692-.043-.433-.014h-.333l-.766.014c-4.15.043-7.951.535-11.29 1.33-3.34.78-6.26 1.75-8.704 2.805-2.443 1.04-4.409 2.154-5.985 3.079a43.056 43.056 0 0 0-3.426 2.342l-1.214.925c-1.157.911-2.834.694-3.745-.477-.853-1.099-.694-2.66.304-3.6" fill-rule="nonzero" fill="#231F20"/>
        <path d="M118.68 34.565s8.923-3.711 14.619-4.896m-8.011 16.079s7.07-2.2 13.414-2.952" stroke="#231F20" stroke-width="4.667" stroke-linecap="round" stroke-linejoin="round"/>
        <path d="M93.102 67.928c0 14.356-11.644 26-26.001 26-14.357 0-26.001-11.644-26.001-26 0-14.357 11.644-26.002 26.001-26.002 14.357 0 26.001 11.645 26.001 26.002" fill-rule="nonzero" fill="#FFF"/>
        <path d="M93.102 67.928c0 14.356-11.644 26-26.001 26-14.357 0-26.001-11.644-26.001-26 0-14.357 11.644-26.002 26.001-26.002 14.357 0 26.001 11.645 26.001 26.002z" stroke="#231F20" stroke-width="6.667"/>
        <path d="M77.097 66.796c0 5.516-4.487 9.989-10.004 9.989-5.516 0-10.003-4.473-10.003-9.99 0-5.53 4.487-10.003 10.003-10.003 5.517 0 10.004 4.473 10.004 10.004" fill-rule="nonzero" fill="#231F20"/>
    </g>
</svg>
