<svg width="168" height="167" xmlns="http://www.w3.org/2000/svg">
    <title>
        ju
    </title>
    <g fill="none" fill-rule="evenodd">
        <path d="M86.34 18.407c8.122-9.138 19.957-14.883 33.136-14.883 24.486 0 44.333 22.332 44.333 51.002V83.53c0 44.174-35.817 79.99-80 79.99-44.182 0-80-35.816-80-79.99v-7.175c0-34.33 27.5-62.162 61.834-62.162s62.167 27.833 62.167 62.162" fill-rule="nonzero" fill="#FFF"/>
        <path d="M84.438 16.534s.392-.419 1.151-1.257c.786-.824 1.781-2.053 3.68-3.629 1.774-1.663 4.092-3.325 6.98-5.074.742-.405 1.51-.824 2.309-1.258.4-.217.8-.448 1.221-.65.434-.188.874-.376 1.322-.564.898-.362 1.824-.752 2.778-1.142.962-.376 2.003-.608 3.045-.926 2.079-.694 4.364-.997 6.742-1.416 1.192-.188 2.432-.188 3.69-.29.63-.043 1.266-.072 1.91-.115l.12-.015c-.128 0 .317.015.309.015h.225l.454.029.912.058c.613.029 1.232.057 1.855.1l.941.044c.326.03.697.101 1.047.16 1.408.245 2.881.447 4.312.765 1.38.39 2.782.796 4.21 1.215 1.38.535 2.771 1.127 4.19 1.706 5.552 2.602 10.891 6.534 15.407 11.623 4.53 5.088 8.178 11.363 10.606 18.36 1.19 3.498 2.14 7.17 2.674 10.972.247 1.908.564 3.817.584 5.768.044.983.087 1.966.129 2.95.05.982.017 1.879.03 2.833.013 7.517.025 15.28.04 23.275 0 .997.002 2.01.005 3.007l-.009.838-.016.766-.036 1.518-.036 1.518-.115 1.62c-.09 1.07-.138 2.182-.268 3.238-.442 4.264-1.28 8.529-2.395 12.75a83.447 83.447 0 0 1-11.006 24.33c-10.016 15.166-25.595 27.454-43.835 33.309-9.082 2.92-18.782 4.365-28.397 4.004l-1.745-.043-1.845-.145c-1.231-.087-2.473-.173-3.659-.347-2.408-.26-4.793-.694-7.173-1.156a82.068 82.068 0 0 1-13.91-4.207c-9-3.614-17.397-8.76-24.575-15.237a84.486 84.486 0 0 1-17.825-22.466c-4.533-8.4-7.6-17.507-9.057-26.744-.715-4.612-1.01-9.31-1.02-13.85l.02-6.78c.13-2.212.18-4.351.373-6.592.366-2.313.627-4.684 1.112-6.925.28-1.099.56-2.212.841-3.31.3-1.085.507-2.212.937-3.253.386-1.07.769-2.125 1.152-3.18.376-1.056.752-2.111 1.27-3.109.482-.997.964-2.01 1.442-3.007l.723-1.503.854-1.431a65.514 65.514 0 0 1 16.945-19.372C39.418 14.019 56.028 9.798 70.459 11.128c1.687.014 3.6.404 5.405.665.91.144 1.814.289 2.712.433.882.174 1.722.434 2.575.65.85.218 1.693.435 2.534.666.843.202 1.673.434 2.468.766 1.606.593 3.193 1.185 4.759 1.764a72.214 72.214 0 0 1 16.135 9.845c9.087 7.72 14.906 16.61 18.254 24.417 3.347 7.878 4.28 14.586 4.859 19.068.16 2.27.183 4.019.244 5.19.046 1.17.068 1.778.068 1.778a2.662 2.662 0 1 1-5.316.275l-.017-.275-.104-1.634c-.08-1.07-.134-2.674-.322-4.756-.63-4.091-1.614-10.192-4.803-17.29-3.12-7.07-8.507-15.064-16.8-21.974-4.235-3.325-9.13-6.36-14.673-8.746-1.42-.506-2.854-1.026-4.308-1.547-.716-.289-1.467-.477-2.23-.665-.757-.188-1.52-.376-2.286-.564-.767-.188-1.539-.419-2.31-.563-.77-.116-1.543-.232-2.32-.333-1.574-.217-3.048-.55-4.858-.564-.872-.029-1.748-.072-2.627-.115l-1.323-.058-.663-.03h.008l-.157.015-.314.015-5.096.26c-1.703.202-3.409.52-5.138.766-.871.087-1.717.333-2.569.55-.853.23-1.708.448-2.569.664a58.324 58.324 0 0 0-19.516 9.845 58.817 58.817 0 0 0-15.17 17.392l-.768 1.286-.642 1.345c-.428.896-.857 1.807-1.288 2.703-.471.896-.801 1.836-1.134 2.79-.342.954-.686 1.894-1.03 2.848-.392.94-.564 1.937-.833 2.92l-.753 2.964c-.422 1.98-.62 3.932-.963 5.913-.185 2.11-.236 4.351-.36 6.52l-.001 6.447c.02 4.308.292 8.53.957 12.78 1.351 8.486 4.178 16.827 8.344 24.518a77.611 77.611 0 0 0 16.385 20.6c6.594 5.928 14.303 10.626 22.55 13.922A75.52 75.52 0 0 0 68.2 158.44c2.182.404 4.366.81 6.572 1.04 1.109.174 2.183.217 3.263.304l1.62.13 1.727.044c8.9.332 17.722-.998 26.05-3.672 16.686-5.364 30.965-16.625 40.135-30.533a76.078 76.078 0 0 0 10.063-22.263c1.02-3.874 1.778-7.777 2.196-11.666.125-.969.16-1.908.247-2.862l.114-1.432.04-1.518.07-2.934.004-3.007c.015-7.995.028-15.758.04-23.275-.008-.925.027-1.909-.018-2.776l-.111-2.617c-.003-1.749-.292-3.455-.502-5.146-.46-3.383-1.297-6.636-2.335-9.744-2.119-6.173-5.304-11.68-9.219-16.104-3.901-4.438-8.468-7.807-13.171-10.019-1.2-.506-2.381-.997-3.542-1.474a416.514 416.514 0 0 1-3.553-1.041c-1.148-.246-2.257-.39-3.354-.607-.28-.058-.53-.116-.833-.145l-.941-.058c-.623-.043-1.242-.072-1.853-.115l-.914-.044-.452-.029-.226-.014c-.08 0 .288.014.082 0l-.102.014c-.555.03-1.105.044-1.65.073-1.082.072-2.157.043-3.184.202-2.052.333-4.035.535-5.834 1.128-.903.26-1.81.433-2.645.751-.833.304-1.642.622-2.427.911-.397.145-.785.29-1.167.434-.372.173-.724.361-1.079.535-.706.347-1.389.694-2.045 1.012-2.563 1.43-4.688 2.833-6.185 4.062-1.57 1.084-2.778 2.385-3.6 3.137-.82.766-1.244 1.157-1.244 1.157a2.671 2.671 0 0 1-3.773-.116 2.683 2.683 0 0 1-.025-3.629" fill-rule="nonzero" fill="#231F20"/>
        <path d="M118.142 42.635s8.88-4.67 14.562-6.164m-7.983 20.256s7.037-2.756 13.361-3.717" stroke="#231F20" stroke-width="4.667" stroke-linecap="round" stroke-linejoin="round"/>
        <path d="M12.787 119.668L63.58 92.292a2.991 2.991 0 0 1 4.063 1.21 3.009 3.009 0 0 1-1.217 4.07c-.011 0-.038.015-.05.029l-51.299 26.403a2.446 2.446 0 0 1-3.306-1.056 2.448 2.448 0 0 1 1.017-3.28" fill-rule="nonzero" fill="#231F20"/>
        <path d="M4.083 97.17s9.855-5.349 24.635-13.366c3.705-1.98 7.719-4.142 11.963-6.416l6.53-3.496a463.131 463.131 0 0 1 3.384-1.811c.726-.365 1.129-.59 1.861-.913a24.823 24.823 0 0 1 2.078-.842c5.515-2.008 11.92-2.233 17.807-.295 5.893 1.867 11.217 5.953 14.519 11.358 3.344 5.35 4.605 11.962 3.613 18.07-.951 6.135-4.041 11.751-8.346 15.753a27.308 27.308 0 0 1-3.405 2.723c-.595.408-1.206.787-1.823 1.138l-.928.505-.844.45c-2.245 1.165-4.442 2.302-6.58 3.411-4.28 2.204-8.325 4.296-12.058 6.234-7.458 3.875-13.724 7.02-18.088 9.252-4.37 2.218-6.868 3.496-6.868 3.496a2.403 2.403 0 0 1-3.23-1.053 2.393 2.393 0 0 1 .992-3.187s2.46-1.348 6.767-3.692c4.313-2.331 10.444-5.729 17.862-9.688 3.703-1.994 7.716-4.142 11.957-6.416 2.125-1.138 4.305-2.317 6.535-3.51l.84-.45.74-.407c.49-.28.97-.59 1.44-.912a20.142 20.142 0 0 0 2.677-2.163c3.374-3.159 5.779-7.595 6.5-12.383.753-4.787-.26-9.87-2.856-14.04-2.539-4.184-6.636-7.37-11.254-8.86-4.607-1.543-9.645-1.403-14.004.155-.555.211-1.083.408-1.562.632-.459.183-1.207.576-1.628.786a352.451 352.451 0 0 1-3.4 1.77c-2.246 1.165-4.443 2.302-6.583 3.411a5444.05 5444.05 0 0 1-12.055 6.234c-14.97 7.666-24.95 12.762-24.95 12.762a2.398 2.398 0 0 1-2.238-4.24" fill-rule="nonzero" fill="#231F20"/>
    </g>
</svg>
