<svg width="169" height="167" xmlns="http://www.w3.org/2000/svg">
    <title>
        jun
    </title>
    <g fill="none" fill-rule="evenodd">
        <path d="M4.084 140.756c0-22.471 35.835-29.87 80.212-29.87 44.405 0 80.585 10.044 80.585 30.393 0 13.75-12.414 22.237-27.968 22.237-17.415 0-28.134-9.038-28.134-22.788 0 12.662-8.707 20.818-24.124 20.818-16.74 0-24.097-8.156-24.097-20.818 0 13.75-11.739 22.788-28.478 22.788-15.541 0-27.996-8.996-27.996-22.76" fill-rule="nonzero" fill="#FFF"/>
        <path d="M7.41 140.775c0 2.883.703 5.684 2.028 8.154 1.352 2.469 3.338 4.621 5.725 6.304 2.373 1.697 5.146 2.967 8.07 3.767 1.463.414 2.967.703 4.485.896a36.36 36.36 0 0 0 4.635.29c3.132.014 6.25-.317 9.23-1.062 2.966-.745 5.766-1.96 8.222-3.6 2.442-1.656 4.47-3.822 5.85-6.347 1.407-2.525 2.152-5.436 2.22-8.443v-.083a2.671 2.671 0 0 1 5.34.083c.152 2.773.607 5.45 1.642 7.78.98 2.332 2.497 4.319 4.484 5.767 1.986 1.435 4.387 2.484 6.98 3.09 1.311.304 2.635.525 4.029.65 1.407.137 2.621.192 4.208.192a40.9 40.9 0 0 0 4.097-.193 28.282 28.282 0 0 0 3.987-.69c2.594-.648 4.98-1.738 6.995-3.214 2.028-1.476 3.614-3.45 4.69-5.74 1.118-2.29 1.642-4.925 1.78-7.642h5.34c.082 2.497.524 4.939 1.448 7.132.924 2.208 2.249 4.194 3.96 5.836 3.42 3.311 8.18 5.229 13.175 6.015 1.255.207 2.538.331 3.807.414.663.028 1.2.069 1.918.069h1.035l.924-.014c2.539-.069 5.09-.372 7.519-.98 4.856-1.172 9.354-3.586 12.389-7.118a16.122 16.122 0 0 0 3.228-6.015c.331-1.076.538-2.318.607-3.353.11-1.352.097-2.331-.082-3.463-.594-4.36-3.74-8.236-7.837-11.16-4.11-2.953-9.009-5.133-14.058-6.857-5.05-1.725-10.333-3.022-15.659-4.015-10.705-1.987-21.673-2.911-32.627-3.228a286.096 286.096 0 0 0-16.5.041c-5.491.166-10.982.455-16.432.938-5.463.497-10.885 1.16-16.238 2.125-5.325.98-10.595 2.249-15.576 4.042-4.98 1.794-9.754 4.139-13.382 7.422-1.793 1.642-3.27 3.505-4.222 5.56a14.253 14.253 0 0 0-1.09 3.215 17.06 17.06 0 0 0-.262 1.697l-.069.772-.013.966zm-6.664-.097l.028-1.034.11-1.297c.097-.814.207-1.614.4-2.414.345-1.6.897-3.174 1.6-4.65 1.422-2.952 3.505-5.49 5.823-7.56 4.69-4.139 10.153-6.65 15.603-8.581 5.463-1.918 11.05-3.187 16.624-4.18 5.588-.98 11.189-1.628 16.804-2.097 5.601-.47 11.202-.732 16.804-.87 5.587-.11 11.16-.151 16.79-.041 11.216.248 22.46 1.131 33.607 3.132 5.574 1.007 11.12 2.29 16.583 4.097 5.436 1.835 10.857 4.125 15.81 7.616 2.47 1.752 4.815 3.835 6.733 6.415 1.931 2.566 3.407 5.698 3.904 9.023.276 1.614.276 3.435.18 4.842a21.948 21.948 0 0 1-.828 4.829 22.954 22.954 0 0 1-4.54 8.553c-4.207 4.98-10.098 7.864-15.975 9.271a41.21 41.21 0 0 1-8.968 1.104h-1.159l-1.034-.028c-.676-.027-1.518-.082-2.249-.124a53.911 53.911 0 0 1-4.456-.58c-2.966-.537-5.905-1.42-8.706-2.73-2.8-1.34-5.449-3.133-7.656-5.423-2.222-2.29-3.96-5.05-5.022-8.043-1.09-2.98-1.49-6.112-1.449-9.16v-.014a2.657 2.657 0 0 1 2.497-2.815 2.667 2.667 0 0 1 2.829 2.483v.028l.013.304c.138 3.31-.317 6.76-1.614 10.016-1.324 3.242-3.518 6.208-6.29 8.401-2.746 2.222-5.988 3.629-9.23 4.512a34.159 34.159 0 0 1-4.912.924c-1.67.193-3.242.276-4.925.29a49.157 49.157 0 0 1-4.815-.29 33.775 33.775 0 0 1-4.898-.869c-3.242-.814-6.539-2.166-9.326-4.429-2.8-2.22-4.953-5.311-6.153-8.595-1.173-3.297-1.545-6.705-1.407-9.96h5.339c.097 3.752-.662 7.643-2.4 11.12-1.725 3.476-4.374 6.47-7.45 8.705-3.077 2.262-6.581 3.794-10.127 4.787-3.573.98-7.215 1.435-10.844 1.504a44.013 44.013 0 0 1-5.504-.304 38.948 38.948 0 0 1-5.436-1.048c-3.6-.98-7.091-2.511-10.237-4.732-3.118-2.222-5.835-5.174-7.712-8.664-1.862-3.477-2.786-7.464-2.759-11.34v-.084z" fill-rule="nonzero" fill="#231F20"/>
        <path d="M87.095 15.332c8.156-7.247 20.052-11.808 33.29-11.808 24.613 0 44.55 17.713 44.55 40.464V67c0 35.051-35.99 63.462-80.38 63.462-44.406 0-80.396-28.41-80.396-63.462v-5.688c0-27.24 27.646-49.328 62.134-49.328 34.502 0 62.465 22.087 62.465 49.328" fill-rule="nonzero" fill="#FFF"/>
        <path d="M85.383 13.274s.39-.347 1.128-1.026c.737-.68 2.11-1.793 3.758-2.978 3.426-2.371 8.819-5.48 16.365-7.359A55.556 55.556 0 0 1 119.313.206l.867-.03h.506l.434.015c.55.015 1.127.03 1.706.03 1.243.086 2.544.158 3.787.317 2.516.29 5.118.752 7.75 1.475 5.247 1.43 10.64 3.802 15.656 7.358 5.016 3.556 9.642 8.327 13.01 14.283 3.398 5.899 5.364 13.011 5.379 20.37l.043 20.904.014 1.359v.665l-.029.795c-.028.896-.057 1.807-.1 2.718-.073 1.012-.174 2.01-.261 3.021-.101.998-.29 1.938-.434 2.92-.68 3.875-1.807 7.72-3.31 11.436-3.022 7.46-7.735 14.283-13.445 20.196-5.71 5.942-12.577 10.828-19.965 14.804a94.83 94.83 0 0 1-23.766 8.659c-8.298 1.85-16.93 2.646-25.473 2.4a103.07 103.07 0 0 1-25.574-3.903c-8.284-2.444-16.336-5.884-23.665-10.568-7.301-4.655-13.937-10.424-19.242-17.305-5.306-6.852-9.238-14.804-11.103-23.203C1.158 74.76.739 70.407.754 66.258V63.28l.014-1.475v-.852l.029-.738.058-1.489.144-1.648c.073-1.113.246-2.154.42-3.21 1.43-8.399 5.435-16.017 10.596-22.161 5.176-6.159 11.537-10.9 18.187-14.428 13.387-7.055 27.973-9.252 40.854-8.457 13.113.824 24.736 4.684 33.93 10.12 4.568 2.732 8.573 5.825 11.884 9.078 3.31 3.267 5.97 6.665 8.009 9.975 4.062 6.665 5.536 12.794 6.13 16.915.173 1.026.23 1.951.288 2.746.101.796.101 1.46.116 2.01.029 1.07.029 1.633.029 1.633a2.663 2.663 0 0 1-2.602 2.718 2.652 2.652 0 0 1-2.718-2.544l-.015-.174s-.014-.491-.072-1.43c-.014-.463-.029-1.056-.116-1.75-.1-.68-.144-1.489-.318-2.385-.607-3.571-2.01-8.848-5.71-14.63-1.836-2.877-4.221-5.87-7.214-8.761-3.021-2.877-6.636-5.61-10.828-8.038-8.356-4.843-19.17-8.27-31.096-8.877-6.058-.318-12.303.015-18.664 1.244-6.317 1.257-12.722 3.34-18.736 6.549-5.985 3.195-11.637 7.46-16.177 12.852-4.481 5.377-7.864 11.883-9.05 18.967-.144.882-.289 1.778-.361 2.616l-.116 1.287-.043 1.49-.029.736v5.089c0 3.802.362 7.474 1.2 11.16 1.648 7.345 5.103 14.356 9.86 20.5 4.756 6.144 10.813 11.407 17.52 15.671 6.723 4.28 14.168 7.445 21.888 9.715a96.123 96.123 0 0 0 23.782 3.585c8.08.217 16.075-.506 23.81-2.255 7.748-1.677 15.165-4.438 22.003-8.009 6.794-3.657 13.054-8.139 18.2-13.502 5.147-5.335 9.325-11.407 11.956-17.956a50.439 50.439 0 0 0 2.892-9.99c.115-.838.303-1.69.39-2.515.072-.81.159-1.633.231-2.443.044-.896.073-1.792.116-2.703l.014-.564v-.665l.015-1.359c.014-7.17.029-14.153.029-20.904 0-6.159-1.605-12.043-4.438-17.001-2.776-4.988-6.694-9.065-10.973-12.115-4.28-3.08-8.949-5.147-13.488-6.404a44.81 44.81 0 0 0-6.751-1.316c-1.1-.144-2.14-.202-3.166-.275-.579-.014-1.157-.028-1.706-.043l-.42-.014h-.332l-.78.014c-4.15.043-7.937.535-11.291 1.33-3.325.78-6.246 1.75-8.689 2.805-2.443 1.04-4.41 2.154-5.985 3.079-1.605.998-2.616 1.72-3.426 2.342-.81.607-1.214.925-1.214.925a2.657 2.657 0 0 1-3.745-.477c-.853-1.099-.694-2.66.304-3.6" fill-rule="nonzero" fill="#231F20"/>
        <path d="M119.045 34.565s8.922-3.711 14.633-4.896m-8.028 16.079s7.083-2.2 13.428-2.952" stroke="#231F20" stroke-width="4.667" stroke-linecap="round" stroke-linejoin="round"/>
        <path d="M12.006 92.46l57.202-24.394a3.008 3.008 0 0 1 3.932 1.587 3.003 3.003 0 0 1-1.587 3.932c-.014.014-.042.014-.056.028L13.888 96.997a2.467 2.467 0 0 1-3.202-1.363c-.505-1.236.099-2.654 1.32-3.174" fill-rule="nonzero" fill="#231F20"/>
        <path d="M3.795 72.415s10.87-4.79 27.166-11.975c4.081-1.785 8.503-3.712 13.179-5.753 2.338-1.02 4.747-2.055 7.213-3.132 1.247-.538 2.508-1.091 3.812-1.644l.935-.368 1.106-.383c.736-.269 1.43-.467 2.182-.666a37.702 37.702 0 0 1 18.436-.269c6.15 1.488 12.3 4.662 16.538 10.033 2.097 2.65 3.67 5.838 4.308 9.268.666 3.43.354 7.014-.766 10.217-1.119 3.217-2.975 6.065-5.186 8.403-2.24 2.339-4.818 4.195-7.525 5.626-1.318.695-2.792 1.332-4.01 1.828-1.261.51-2.523 1.02-3.756 1.53-2.48 1.007-4.903 1.999-7.27 2.963-4.732 1.927-9.196 3.755-13.32 5.427a38868.469 38868.469 0 0 0-27.548 11.082 2.396 2.396 0 0 1-3.118-1.332c-.496-1.205.085-2.58 1.276-3.09 0 0 10.925-4.69 27.293-11.705a4311.68 4311.68 0 0 1 13.25-5.612c2.338-.992 4.761-2.012 7.227-3.06 2.423-1.077 5.116-2.055 7.255-3.189 4.393-2.338 8.262-6.108 9.835-10.784.78-2.324.992-4.804.524-7.185-.467-2.395-1.587-4.676-3.174-6.674-3.146-4.039-8.077-6.731-13.236-7.993a31.798 31.798 0 0 0-15.531.156c-.595.17-1.233.34-1.8.539l-.85.297-.964.369c-1.218.524-2.451 1.034-3.656 1.544-2.48 1.035-4.889 2.041-7.241 3.033-4.705 1.97-9.154 3.84-13.264 5.555C16.648 72.287 5.68 76.836 5.68 76.836a2.392 2.392 0 0 1-3.132-1.304c-.496-1.204.071-2.579 1.247-3.117" fill-rule="nonzero" fill="#231F20"/>
    </g>
</svg>
