<svg width="167" height="168" xmlns="http://www.w3.org/2000/svg">
    <title>
        ka
    </title>
    <g fill="none" fill-rule="evenodd">
        <path d="M160.808 124.453c0 22-15.165 39.827-37.165 39.827s-39.834-17.827-39.834-39.827c0-22 17.834-42.506 39.834-42.506 22 0 37.165 20.506 37.165 42.506" fill="#FFF" fill-rule="nonzero"/>
        <path d="M157.475 124.453l-.006-.68c-.01-.44.016-1.093-.041-1.946-.059-1.707-.273-4.214-.91-7.347-.627-3.133-1.713-6.92-3.71-10.92-2.001-3.973-4.939-8.213-9.159-11.68-4.173-3.48-9.61-6.213-15.778-6.933-6.146-.814-12.872.293-18.922 3.373-6.072 3.04-11.441 8.013-15.302 14.053-1.929 3.027-3.528 6.294-4.647 9.747a43.245 43.245 0 0 0-2.031 10.573l-.052 1.467-.013.36c.004-.04.004.187.007.267l.01.68c-.012.893.062 1.8.104 2.706.161 1.8.417 3.587.818 5.347.83 3.52 2.119 6.933 3.964 10.027 3.624 6.2 9.176 11.12 15.36 13.96a36.181 36.181 0 0 0 9.506 2.933c1.594.28 3.235.44 4.718.52 1.712.053 3.2.04 4.756-.107 6.144-.426 11.697-2.52 16.045-5.533 4.381-3 7.577-6.827 9.817-10.547 2.246-3.733 3.506-7.386 4.26-10.453a39.905 39.905 0 0 0 1.103-7.213c.075-.774.065-1.56.084-2.014l.019-.72v.08zm6.665.067l-.012.72c-.017.493.004 1.12-.072 2.173a46.39 46.39 0 0 1-1.217 8.494c-.852 3.573-2.291 7.893-4.931 12.373a38.832 38.832 0 0 1-11.881 12.68c-5.316 3.627-12.124 6.107-19.422 6.533-1.798.12-3.725.08-5.459-.04-1.96-.146-3.797-.373-5.67-.786a42.465 42.465 0 0 1-10.9-3.974 46.71 46.71 0 0 1-9.711-6.92c-2.919-2.773-5.564-5.92-7.71-9.44a52.17 52.17 0 0 1-2.865-5.493 45.2 45.2 0 0 1-2.083-5.893c-.55-2.014-.937-4.08-1.21-6.174-.093-1.04-.227-2.093-.244-3.146l-.027-.787-.011-.48.005-.36.023-1.467c.1-2.16.289-4.28.674-6.333.401-2.053.904-4.093 1.585-6.067 1.324-3.96 3.143-7.746 5.444-11.16 4.556-6.853 10.82-12.44 17.952-15.84 7.115-3.44 15.013-4.586 22.194-3.546 7.22 1.013 13.613 4.186 18.444 8.186 4.839 4.04 8.348 8.68 10.804 13.12 2.495 4.427 3.947 8.654 4.841 12.187.9 3.533 1.179 6.413 1.32 8.36.092.987.088 1.733.114 2.24l.026.773-.001.067z" fill="#231F20" fill-rule="nonzero"/>
        <path d="M123.975 124.453c0 22-15.166 39.827-37.165 39.827-22 0-39.833-17.827-39.833-39.827 0-22 17.834-51.84 39.833-51.84 22 0 37.165 29.84 37.165 51.84" fill="#FFF" fill-rule="nonzero"/>
        <path d="M121.074 124.453l-.009-.72c-.01-.466.005-1.173-.057-2.08a54.259 54.259 0 0 0-.963-7.92 63.702 63.702 0 0 0-3.532-11.986c-1.846-4.454-4.283-9.414-7.979-13.987-3.618-4.56-8.547-8.827-14.515-10.84-1.46-.467-3.086-.893-4.532-1.027-.649-.12-1.645-.133-2.554-.16l-.173-.013h.046l-.075.013-.301.014-.605.026c-.403.027-.809.027-1.212.094-1.623.133-3.24.533-4.855 1.013-1.595.56-3.194 1.213-4.726 2.08-6.178 3.427-11.507 9.107-15.686 15.613-4.19 6.52-7.285 13.987-8.809 21.694-.342 1.906-.642 3.906-.75 5.746-.049.44-.047 1-.068 1.507l-.025.773-.006.187c0-.067.005.08.007.12l.016.36.125 2.867a38.466 38.466 0 0 0 2.711 11.08 40.438 40.438 0 0 0 5.915 9.546c2.437 2.814 5.311 5.147 8.358 7.04.779.44 1.555.894 2.328 1.334.81.36 1.615.72 2.417 1.08.785.4 1.621.653 2.445.92.832.253 1.62.613 2.468.773.836.187 1.668.373 2.487.573.823.227 1.604.254 2.398.387 1.469.307 3.41.28 5.151.373l.332.014h.083c.179.013-.15 0-.088 0l.151-.014.605-.026 1.204-.067c.796-.053 1.602-.013 2.37-.173 1.552-.254 3.093-.44 4.539-.894 2.959-.693 5.605-1.986 8.068-3.306 4.832-2.867 8.483-6.707 11.006-10.574 2.54-3.866 3.959-7.733 4.862-10.96.371-1.626.775-3.106.89-4.346.177-1.254.373-2.28.383-3.307l.158-2.96-.003.133zm5.8.12l-.099 2.96c.013.934-.169 2.267-.352 3.787-.13 1.56-.539 3.213-.937 5.107-.96 3.733-2.51 8.24-5.407 12.866a39.873 39.873 0 0 1-12.947 12.827c-2.93 1.68-6.164 3.213-9.71 4.067-1.75.546-3.582.8-5.438 1.08-.925.186-1.87.16-2.815.226l-1.426.08-.718.027-.179.013h-.254l-.083-.013-.332-.013c-1.796-.147-3.47-.134-5.583-.534-.997-.186-2.056-.28-3.012-.546-.964-.254-1.926-.534-2.894-.814-3.8-1.293-7.596-2.946-10.991-5.36-6.872-4.64-12.584-11.4-16.04-19.36a47.586 47.586 0 0 1-3.173-12.653l-.187-3.293-.022-.414c-.002-.093-.011-.066-.008-.266l.004-.187.014-.773c.014-.534.004-1.014.051-1.587.105-2.293.4-4.387.756-6.533 1.556-8.534 4.774-16.627 9.251-23.854 4.466-7.2 10.33-13.626 17.692-17.826 1.83-1.054 3.787-1.894 5.771-2.6 2.02-.627 4.072-1.147 6.165-1.347.518-.08 1.043-.093 1.565-.107l.782-.026.39-.014h.316l.172.014c.931.053 1.77.053 2.922.226 2.177.254 4.044.787 5.938 1.454a33.179 33.179 0 0 1 9.696 5.773c2.74 2.333 5.052 4.88 7.05 7.467a68.485 68.485 0 0 1 8.726 15.266c1.973 4.854 3.215 9.254 3.997 12.934a60.067 60.067 0 0 1 1.22 8.693c.086 1.013.087 1.8.108 2.32l.024.813-.003.12z" fill="#231F20" fill-rule="nonzero"/>
        <path d="M118.37 108.28c35.106 0 45.106-16.333 45.106-52 0-28.72-23.779-52-53.11-52h-26.89c-44.183 0-80 35.813-80 80v40c0 22.093 17.909 40 40 40h-.056c22.092 0 40-17.907 40-40v-15.92l34.95-.08" fill="#FFF" fill-rule="nonzero"/>
        <path d="M118.37 108.28c35.106 0 45.106-16.333 45.106-52 0-28.72-23.779-52-53.11-52h-26.89c-44.183 0-80 35.813-80 80v40c0 22.093 17.909 40 40 40h-.056c22.092 0 40-17.907 40-40v-15.92l34.95-.08z" stroke="#231F20" stroke-width="6.667" stroke-linecap="round" stroke-linejoin="round"/>
        <path d="M33.951 18.693s.363-.106 1.044-.32c.655-.213 1.745-.52 3.075-.866a74.558 74.558 0 0 1 11.213-2.014c4.7-.453 10.257-.48 16.14.334a60.875 60.875 0 0 1 17.82 5.28 57.636 57.636 0 0 1 8.228 4.746c.639.467 1.286.907 1.898 1.387l.924.707.116.08.183.16.207.173.416.373c1.06.867 2.314 2.12 3.333 3.24 2.058 2.267 3.739 4.68 5.133 7.054 1.407 2.36 2.512 4.693 3.413 6.88a65.467 65.467 0 0 1 3.406 10.866c.293 1.347.502 2.4.612 3.12.12.734.184 1.107.184 1.107a2 2 0 0 1-1.645 2.307 2 2 0 0 1-2.276-1.507l-.007-.04s-.335-1.44-1.034-3.92c-.73-2.48-1.87-6-3.682-9.987-.898-2-2.045-4.08-3.327-6.186-1.292-2.12-2.826-4.227-4.64-6.147-.921-.96-1.716-1.773-2.926-2.747-.975-.84-2.18-1.733-3.326-2.533a52.021 52.021 0 0 0-7.473-4.307c-5.232-2.506-10.893-4.04-16.293-4.866-5.407-.827-10.565-.854-14.945-.507a71.619 71.619 0 0 0-10.515 1.587c-1.251.293-2.18.52-2.89.733-.686.187-1.052.293-1.052.293a2.337 2.337 0 0 1-2.874-1.626 2.338 2.338 0 0 1 1.56-2.854M86.565 60c-.299 4.347-4.066 7.627-8.416 7.333-4.348-.293-7.632-4.066-7.334-8.413.299-4.347 4.066-7.627 8.415-7.333 4.35.293 7.633 4.066 7.335 8.413" fill="#231F20" fill-rule="nonzero"/>
        <path d="M106.71 61.2c-.443-.6-.88-1.227-1.35-1.813a49.488 49.488 0 0 0-2.553-2.934 45.771 45.771 0 0 0-2.753-2.733c-.94-.88-1.944-1.68-2.941-2.493-1.039-.734-2.055-1.507-3.154-2.134-1.06-.693-2.205-1.2-3.32-1.76-1.154-.426-2.324-.933-3.421-1.16-1.009-.36-2.487-.453-3.79-.653.278.04.07.013.128.013h-.042l-.057.014H81.76c-.603-.027-1.208.08-1.812.16-1.213.093-2.404.453-3.603.72-1.173.426-2.366.773-3.502 1.333-1.163.467-2.265 1.12-3.383 1.72-1.087.667-2.178 1.32-3.217 2.08a44.356 44.356 0 0 0-3.061 2.36 47.23 47.23 0 0 0-2.888 2.573c-.922.88-1.86 1.854-2.632 2.734l.19-2.76c.643.973 1.44 2.066 2.234 3.066a48.58 48.58 0 0 0 2.509 2.947c.864.96 1.77 1.88 2.71 2.747.927.893 1.917 1.693 2.902 2.506 1.026.747 2.03 1.534 3.117 2.16 1.049.707 2.183 1.227 3.289 1.8 1.144.44 2.307.96 3.396 1.2.557.147 1.064.334 1.78.4l1.859.267c1.207-.027 2.413.093 3.627-.12 1.217-.08 2.414-.427 3.62-.693 1.182-.4 2.384-.747 3.53-1.294 1.173-.453 2.286-1.093 3.416-1.68 1.098-.666 2.201-1.32 3.253-2.066a44.893 44.893 0 0 0 3.1-2.334 48.536 48.536 0 0 0 2.931-2.56c.55-.506 1.063-1.066 1.585-1.613zm4.132 1.493a47.851 47.851 0 0 1-2.931 3.054 58.972 58.972 0 0 1-3.122 2.786 47.696 47.696 0 0 1-3.329 2.547c-1.134.827-2.339 1.56-3.543 2.307-1.248.666-2.476 1.373-3.803 1.92-1.284.626-2.675 1.053-4.037 1.52-1.417.346-2.816.746-4.294.866-1.45.267-2.95.174-4.432.187l-2.144-.267c-.632-.053-1.414-.266-2.16-.453-1.553-.333-2.858-.92-4.23-1.44-1.294-.64-2.625-1.24-3.823-2.027-1.252-.706-2.384-1.573-3.541-2.4-1.105-.88-2.212-1.773-3.236-2.733a48.738 48.738 0 0 1-2.99-2.973 55.04 55.04 0 0 1-2.757-3.174 45 45 0 0 1-2.55-3.44 2.28 2.28 0 0 1 .19-2.773 46.044 46.044 0 0 1 2.996-3.053 54.593 54.593 0 0 1 3.164-2.774 52.827 52.827 0 0 1 3.368-2.533c1.147-.813 2.364-1.547 3.58-2.267 1.26-.666 2.498-1.36 3.836-1.893 1.294-.613 2.694-1.027 4.064-1.493 1.424-.32 2.83-.72 4.311-.827.734-.08 1.46-.2 2.209-.16h1.115l.557.013h.539l.159.014c1.356.226 2.588.28 4.153.76 1.546.346 2.844.933 4.206 1.466 1.285.654 2.605 1.267 3.791 2.054 1.24.72 2.36 1.6 3.505 2.426 1.092.894 2.185 1.787 3.196 2.76a52.08 52.08 0 0 1 2.948 2.987 54.33 54.33 0 0 1 2.713 3.187 45.165 45.165 0 0 1 2.498 3.44c.494.76.403 1.72-.162 2.373l-.014.013z" fill="#231F20" fill-rule="nonzero"/>
    </g>
</svg>
