<svg width="168" height="168" xmlns="http://www.w3.org/2000/svg">
    <title>
        kan
    </title>
    <g fill="none" fill-rule="evenodd">
        <path d="M4.143 141.533c0-22.48 35.65-29.88 79.833-29.88s80.179 10.054 80.179 30.4c0 13.747-12.356 22.227-27.82 22.227-17.334 0-28-9.027-28-22.787 0 12.667-8.667 20.814-24 20.814-16.667 0-24-8.147-24-20.814 0 13.76-11.667 22.787-28.334 22.787-15.464 0-27.858-9-27.858-22.747" fill="#FFF" fill-rule="nonzero"/>
        <path d="M7.476 141.533c.005 2.88.684 5.667 2.017 8.134 1.326 2.48 3.295 4.626 5.668 6.32 2.362 1.706 5.119 2.96 8.032 3.773a31.49 31.49 0 0 0 4.476.907c1.53.186 2.992.28 4.607.28 3.125.013 6.228-.32 9.188-1.067 2.959-.747 5.75-1.96 8.184-3.613 2.427-1.654 4.439-3.814 5.81-6.347 1.397-2.52 2.137-5.413 2.21-8.427l.001-.08a2.676 2.676 0 0 1 2.731-2.6 2.676 2.676 0 0 1 2.601 2.68v.014c.151 2.746.599 5.426 1.63 7.76.981 2.333 2.473 4.306 4.453 5.76 1.973 1.453 4.347 2.493 6.943 3.093a30.04 30.04 0 0 0 4.004.667c1.421.12 2.628.186 4.209.186 1.305 0 2.743-.053 4.08-.186a27.657 27.657 0 0 0 3.97-.707c2.575-.64 4.94-1.733 6.958-3.213 2.012-1.48 3.59-3.44 4.647-5.747 1.108-2.28 1.621-4.907 1.773-7.627h5.333v.014c.083 2.48.518 4.906 1.434 7.106a17.493 17.493 0 0 0 3.918 5.827c3.398 3.307 8.124 5.24 13.103 6.04 1.248.2 2.516.333 3.792.413.643.027 1.199.067 1.893.067h1.038l.916-.013c2.541-.067 5.066-.374 7.488-.974 4.845-1.16 9.308-3.586 12.317-7.106a16.198 16.198 0 0 0 3.235-6 16.29 16.29 0 0 0 .608-3.334c.096-1.333.088-2.346-.075-3.453-.575-4.36-3.673-8.24-7.737-11.173-4.068-2.974-8.942-5.147-13.959-6.88-5.039-1.734-10.29-3.027-15.61-4.027-10.653-2-21.569-2.92-32.495-3.24-5.446-.16-10.964-.12-16.432.04-5.478.16-10.944.453-16.379.947-5.433.48-10.84 1.16-16.161 2.12-5.316.973-10.56 2.253-15.528 4.053-4.943 1.787-9.688 4.147-13.284 7.427-1.788 1.64-3.242 3.506-4.198 5.56a14.69 14.69 0 0 0-1.072 3.2 17.88 17.88 0 0 0-.258 1.693l-.059.773-.02.96zm-6.665-.093l.03-1.027.099-1.293c.093-.8.22-1.613.392-2.413a21.71 21.71 0 0 1 1.593-4.627c1.408-2.947 3.468-5.493 5.774-7.56 4.657-4.147 10.097-6.667 15.52-8.6 5.454-1.92 11.012-3.2 16.574-4.187 5.566-.986 11.151-1.64 16.735-2.106 5.584-.467 11.168-.734 16.745-.867 5.588-.12 11.132-.16 16.743-.04 11.177.253 22.377 1.133 33.485 3.133 5.55 1.027 11.083 2.307 16.522 4.134 5.422 1.84 10.813 4.12 15.738 7.64 2.447 1.76 4.776 3.853 6.683 6.44 1.904 2.573 3.339 5.706 3.821 9.013.262 1.627.266 3.387.164 4.827a22.794 22.794 0 0 1-.829 4.813 23.08 23.08 0 0 1-4.523 8.52c-4.186 4.96-10.053 7.853-15.913 9.253a39.925 39.925 0 0 1-8.937 1.094c-.391 0-.708.013-1.158 0l-1.037-.027a45.353 45.353 0 0 1-2.248-.12 50.375 50.375 0 0 1-4.439-.587c-2.952-.546-5.886-1.426-8.681-2.746-2.779-1.347-5.41-3.134-7.604-5.44-2.19-2.294-3.923-5.054-4.972-8.027-1.07-2.973-1.467-6.107-1.42-9.133v-.014a2.647 2.647 0 0 1 2.492-2.813 2.655 2.655 0 0 1 2.825 2.48l.003.04.013.293c.15 3.294-.321 6.734-1.602 9.987a20.822 20.822 0 0 1-6.235 8.4c-2.736 2.24-5.975 3.653-9.207 4.533-1.622.44-3.262.747-4.896.934-1.653.186-3.224.28-4.926.293a50.916 50.916 0 0 1-4.799-.28 36.862 36.862 0 0 1-4.88-.88c-3.232-.827-6.524-2.187-9.295-4.453-2.796-2.227-4.922-5.32-6.105-8.6-1.168-3.294-1.532-6.68-1.388-9.92v-.014h5.333c.095 3.747-.657 7.614-2.368 11.094-1.709 3.466-4.337 6.453-7.398 8.706-3.066 2.267-6.548 3.814-10.096 4.8-3.559.987-7.204 1.454-10.819 1.507a40.275 40.275 0 0 1-5.483-.293 40.177 40.177 0 0 1-5.437-1.054c-3.581-.973-7.075-2.52-10.197-4.746-3.106-2.227-5.816-5.187-7.655-8.667-1.853-3.48-2.765-7.453-2.739-11.307v-.04l.002-.053z" fill="#231F20" fill-rule="nonzero"/>
        <path d="M161.48 99.627c0 17.453-15.165 31.6-37.164 31.6-22 0-39.833-14.147-39.833-31.6 0-17.467 17.833-33.734 39.833-33.734 21.999 0 37.164 16.267 37.164 33.734" fill="#FFF" fill-rule="nonzero"/>
        <path d="M158.147 99.627l-.006-.574c-.002-.386.003-.946-.057-1.666-.085-1.467-.367-3.614-1.117-6.267a30.062 30.062 0 0 0-4.366-9c-2.273-3.16-5.502-6.373-9.746-8.787-4.218-2.426-9.37-4.16-14.983-4.573-5.635-.427-11.676.28-17.419 2.44-5.737 2.12-11.193 5.667-15.37 10.413-2.08 2.374-3.872 5.014-5.156 7.867-1.272 2.84-2.091 5.96-2.294 8.907-.172 3.2.164 6.213 1.203 9.186a25.034 25.034 0 0 0 4.655 8.12 30.935 30.935 0 0 0 7.15 6.16c1.334.84 2.716 1.574 4.122 2.254 1.432.613 2.865 1.2 4.337 1.653 2.92.96 5.907 1.533 8.844 1.853 1.472.174 2.935.254 4.308.307h2.216c.71-.027 1.42-.027 2.119-.093 5.598-.307 10.777-1.614 15.066-3.707 4.306-2.08 7.716-4.867 10.191-7.733a26.384 26.384 0 0 0 4.875-8.414 26.064 26.064 0 0 0 1.309-6.08c.075-.64.088-1.293.1-1.72l.02-.64-.001.094zm6.665.08l-.013.653c-.01.413-.01 1.013-.099 2.013-.153 1.894-.508 4.52-1.59 7.8a33.24 33.24 0 0 1-6.037 10.654c-3.03 3.653-7.298 7.013-12.486 9.453-5.174 2.467-11.263 3.92-17.676 4.213-.803.027-1.61.014-2.422.027-.79-.027-1.585-.053-2.385-.093-1.71-.107-3.365-.254-5.02-.534-3.317-.546-6.66-1.4-9.919-2.666a49.572 49.572 0 0 1-9.469-4.827c-2.988-2.013-5.844-4.36-8.31-7.173A42.38 42.38 0 0 1 86 114.72a32.283 32.283 0 0 1-2.601-5.12 27.682 27.682 0 0 1-1.588-5.613c-.192-.96-.282-1.934-.366-2.92l-.057-1.56.028-1.307c.048-.907.119-2.08.276-2.987.121-.973.335-1.92.541-2.88.479-1.893 1.15-3.706 1.939-5.466a36.455 36.455 0 0 1 6.29-9.414c5.055-5.506 11.43-9.413 18.038-11.693 6.617-2.32 13.487-2.96 19.827-2.387 6.389.614 12.281 2.547 17.174 5.334 4.876 2.826 8.791 6.346 11.644 9.986a35.908 35.908 0 0 1 5.835 10.494 33.166 33.166 0 0 1 1.667 7.653c.101.893.12 1.6.138 2.067l.028.72-.001.08z" fill="#231F20" fill-rule="nonzero"/>
        <path d="M124.648 99.627c0 17.453-15.165 31.6-37.165 31.6-21.999 0-39.834-14.147-39.834-31.6 0-17.467 17.835-41.134 39.834-41.134 22 0 37.165 23.667 37.165 41.134" fill="#FFF" fill-rule="nonzero"/>
        <path d="M121.747 99.627l-.102-2.4c-.1-1.56-.413-3.867-1.146-6.774-.823-2.88-2.028-6.36-4.096-10.053-2.094-3.627-4.863-7.587-8.747-10.96-.93-.88-2.03-1.587-3.063-2.413-1.09-.747-2.276-1.374-3.434-2.08-.618-.28-1.24-.56-1.867-.84-.632-.267-1.236-.614-1.912-.787-1.316-.36-2.676-.947-3.975-1.08-.656-.107-1.31-.253-1.97-.387-.747-.08-1.582-.106-2.376-.16l-1.211-.066-.304-.014-.152-.013h-.076c-.21-.013.203 0 .136 0l-.548.053c-.732.054-1.467.12-2.207.147-.745 0-1.478.173-2.217.32-.74.133-1.484.28-2.23.427-.73.226-1.462.466-2.198.706-.74.227-1.481.454-2.185.814-.718.32-1.438.653-2.16.973-.719.333-1.388.787-2.091 1.187-1.428.733-2.71 1.76-4.052 2.706-2.572 2.054-5.057 4.334-7.197 6.96-4.378 5.147-7.744 11.467-9.28 17.987l-.446 2.347c-.116.84-.141 1.8-.216 2.693l-.046.68-.012.173c.009-.293.005-.04.009-.08l.004.067.019.307.07 1.226.063 1.214.225 1.213c.556 3.2 1.752 6.32 3.624 9.027 1.827 2.72 4.119 5.12 6.662 7.186 2.645 1.934 5.486 3.547 8.453 4.76.748.294 1.512.534 2.26.8l1.12.387 1.148.293c.761.2 1.519.387 2.273.587.768.133 1.532.267 2.292.4 1.534.32 2.974.373 4.422.56.681.12 1.572.08 2.34.12.748.013 1.492.027 2.23.053 5.88-.026 11.342-1.186 15.975-3.106 1.196-.4 2.23-1.067 3.317-1.56 1.055-.574 2.002-1.24 2.978-1.827.88-.707 1.784-1.347 2.592-2.04.753-.76 1.572-1.413 2.222-2.173 2.706-2.96 4.459-6.04 5.419-8.734.297-.653.413-1.333.617-1.933.172-.613.386-1.187.44-1.707.096-.52.183-.986.264-1.44.043-.213.083-.426.123-.626.03-.214.033-.454.05-.667l.173-2.613-.004.16zm5.798.146l-.113 2.627c-.013.227-.01.44-.037.693-.04.267-.082.56-.124.854-.092.6-.192 1.266-.299 1.973-.085.72-.308 1.413-.505 2.173-.227.747-.374 1.587-.712 2.4-1.116 3.347-3.187 7.214-6.422 10.907-.784.947-1.74 1.773-2.652 2.707-.96.866-2.028 1.666-3.092 2.533-1.148.733-2.288 1.56-3.534 2.253-1.275.64-2.522 1.427-3.916 1.947-5.46 2.373-11.851 3.667-18.543 3.707h-.288l-.148-.014-.295-.013-.59-.027-1.19-.066c-.818-.067-1.54-.027-2.454-.174-1.746-.253-3.576-.386-5.256-.853-.855-.2-1.715-.4-2.579-.613-.847-.267-1.699-.534-2.555-.814l-1.28-.413-1.254-.52c-.835-.36-1.682-.68-2.511-1.067-3.285-1.6-6.507-3.493-9.457-5.866-2.938-2.374-5.626-5.187-7.795-8.454-2.197-3.24-3.707-7.026-4.473-10.973l-.29-1.48-.112-1.507-.104-1.52-.025-.373-.005-.093c0-.107-.011.093-.002-.254l.01-.173.037-.68c.063-.933.068-1.8.18-2.773l.501-3.054c1.688-7.76 5.331-14.733 10.139-20.64 4.737-5.96 10.845-10.746 17.655-13.733.826-.413 1.708-.707 2.592-1 .878-.28 1.754-.573 2.626-.867a174 174 0 0 0 2.699-.546c.896-.187 1.785-.374 2.697-.4.907-.054 1.808-.107 2.704-.174l.672-.026c-.017-.014.448.013.287 0l.076.013.152.013.304.014 1.21.093c.811.067 1.583.107 2.414.2.9.173 1.797.347 2.681.547 1.83.32 3.33 1.013 4.923 1.56.803.24 1.51.666 2.248 1.026.728.36 1.45.734 2.167 1.094 1.333.88 2.682 1.693 3.905 2.6 1.175.973 2.42 1.84 3.46 2.866 4.28 3.974 7.513 8.24 9.847 12.334 2.317 4.093 3.761 7.96 4.764 11.2.91 3.28 1.33 5.973 1.492 7.813l.174 2.867-.004.146z" fill="#231F20" fill-rule="nonzero"/>
        <path d="M119.043 86.787c35.106 0 45.106-12.947 45.106-41.254 0-22.773-23.778-41.253-53.112-41.253H84.15c-44.182 0-80 28.413-80 63.48v31.733c0 17.52 17.908 31.734 40 31.734h-.056c22.092 0 40-14.214 40-31.734V86.867l34.95-.08" fill="#FFF" fill-rule="nonzero"/>
        <path d="M119.043 86.787c35.106 0 45.106-12.947 45.106-41.254 0-22.773-23.778-41.253-53.112-41.253H84.15c-44.182 0-80 28.413-80 63.48v31.733c0 17.52 17.908 31.734 40 31.734h-.056c22.092 0 40-14.214 40-31.734V86.867l34.95-.08z" stroke="#231F20" stroke-width="6.667" stroke-linecap="round" stroke-linejoin="round"/>
        <path d="M34.896 15.867s1.383-.4 3.916-1.04c2.516-.6 6.128-1.4 10.536-2.067 4.41-.64 9.617-1.12 15.247-1.027 5.625.04 11.67.84 17.536 2.534 2.932.84 5.8 1.96 8.522 3.293a45.717 45.717 0 0 1 3.955 2.16l.24.133.285.187.436.293.868.587c.574.387 1.212.893 1.804 1.333 4.639 3.64 8.056 8.027 10.194 12.214 1.056 2.093 1.9 4.08 2.42 5.933.3.907.438 1.8.638 2.6.152.827.251 1.573.359 2.253.128 1.374.205 2.454.167 3.2l-.014 1.134a1.994 1.994 0 0 1-2.02 1.973 2.002 2.002 0 0 1-1.962-1.787l-.018-.186-.094-.96c-.039-.627-.194-1.547-.382-2.694-.141-.573-.272-1.213-.454-1.893-.231-.68-.396-1.427-.718-2.187-.509-1.56-1.321-3.24-2.308-5-.99-1.773-2.301-3.546-3.797-5.333a37.834 37.834 0 0 0-5.27-5.04c-.506-.373-.93-.747-1.513-1.133l-.868-.574-.437-.293a2.403 2.403 0 0 1-.152-.107l-.212-.133c-1.124-.693-2.283-1.373-3.496-1.973a46.69 46.69 0 0 0-7.645-3.107c-5.316-1.653-10.927-2.413-16.222-2.693-5.305-.28-10.305.013-14.572.44-4.274.413-7.824 1.013-10.298 1.453-2.455.44-3.902.747-3.902.747-.9.2-1.785-.374-1.978-1.28a1.676 1.676 0 0 1 1.158-1.947l.051-.013m52.334 32.6c-.354 4.266-4.167 7.533-8.517 7.306-4.35-.213-7.589-3.853-7.236-8.106.354-4.254 4.167-7.52 8.518-7.307 4.349.227 7.589 3.853 7.236 8.107" fill="#231F20" fill-rule="nonzero"/>
        <path d="M107.36 49.28c-.436-.587-.863-1.187-1.328-1.747a53.286 53.286 0 0 0-2.57-2.88c-.894-.92-1.805-1.826-2.775-2.653-.946-.867-1.962-1.627-2.968-2.4-1.039-.72-2.078-1.44-3.176-2.027a13.584 13.584 0 0 0-1.655-.866c-.567-.24-1.107-.574-1.692-.76l-1.73-.614c-.57-.173-1.12-.28-1.677-.426-.286-.067-.533-.147-.852-.2l-.996-.107-.997-.12-.499-.053h-.062l-.031-.014c-.13 0 .159.014.124.014h-.127l-.225.013-1.803.04c-.601 0-1.202.147-1.804.213l-.902.12-.894.227c-.593.16-1.194.28-1.782.467-1.171.426-2.347.813-3.479 1.373-1.155.48-2.25 1.133-3.357 1.733a46.653 46.653 0 0 0-3.207 2.08 45.216 45.216 0 0 0-3.055 2.334 53.092 53.092 0 0 0-2.89 2.546 42.067 42.067 0 0 0-2.647 2.694l.201-2.8a42.58 42.58 0 0 0 2.24 3.013c.8.987 1.647 1.96 2.524 2.88.88.933 1.778 1.84 2.735 2.68.93.867 1.933 1.64 2.928 2.413 1.025.734 2.052 1.454 3.14 2.067.527.333 1.077.613 1.637.88.562.24 1.098.573 1.678.76l1.718.64c.566.187 1.11.293 1.664.44.286.067.531.16.848.213l.996.12.996.12.498.067h.062l.031.013c.13.014-.159-.013-.124-.013h.352l1.804-.027c.603.014 1.205-.133 1.808-.186l.907-.12.897-.214c.596-.16 1.201-.266 1.793-.453 1.179-.4 2.364-.787 3.506-1.333 1.165-.467 2.27-1.107 3.39-1.707 1.099-.64 2.19-1.307 3.242-2.053a41.457 41.457 0 0 0 3.093-2.307 54.012 54.012 0 0 0 2.932-2.52c.54-.507 1.045-1.04 1.56-1.56zm4.139 1.52a47.53 47.53 0 0 1-2.938 2.987 53.484 53.484 0 0 1-3.117 2.746 47.965 47.965 0 0 1-3.31 2.52c-1.129.814-2.314 1.547-3.513 2.28-1.232.667-2.441 1.387-3.752 1.934-1.272.626-2.628 1.08-3.978 1.56-.68.213-1.392.36-2.088.546l-1.052.254-1.083.16c-.724.08-1.437.24-2.173.253l-2.208.04-.276.013h-.139l-.265-.026-.499-.054-.997-.106-.998-.12c-.342-.04-.738-.16-1.105-.227-.74-.187-1.513-.347-2.221-.56l-2.051-.733c-.695-.227-1.315-.6-1.975-.88a18.43 18.43 0 0 1-1.905-1c-1.259-.694-2.428-1.494-3.59-2.307-1.122-.853-2.249-1.707-3.283-2.653-1.068-.92-2.059-1.907-3.032-2.907-.971-1-1.902-2.04-2.788-3.12a44.619 44.619 0 0 1-2.575-3.4c-.6-.88-.488-2.04.201-2.8a46.087 46.087 0 0 1 3.002-3.013 55.184 55.184 0 0 1 3.158-2.72c1.075-.88 2.2-1.707 3.348-2.494 1.143-.813 2.339-1.546 3.551-2.253 1.243-.667 2.461-1.373 3.784-1.907 1.281-.613 2.645-1.066 4.004-1.52.684-.213 1.4-.36 2.099-.533l1.057-.253 1.085-.147c.727-.067 1.442-.227 2.179-.227l2.21-.026h.412l.173.013h.03l.063.013.498.054.996.12.996.133c.341.053.736.16 1.101.24.737.187 1.505.347 2.21.573l2.04.76c.689.227 1.303.6 1.96.894.651.306 1.287.626 1.887 1.013 1.248.693 2.404 1.507 3.554 2.32 1.109.867 2.222 1.733 3.244 2.68 1.054.92 2.03 1.92 2.989 2.92a53.48 53.48 0 0 1 2.743 3.133 44.074 44.074 0 0 1 2.521 3.4 1.97 1.97 0 0 1-.168 2.4l-.017.027z" fill="#231F20" fill-rule="nonzero"/>
    </g>
</svg>
