<svg width="168" height="168" xmlns="http://www.w3.org/2000/svg">
    <title>
        ke
    </title>
    <g fill="none" fill-rule="evenodd">
        <path d="M161.141 124.453c0 22-15.165 39.827-37.165 39.827-21.999 0-39.833-17.827-39.833-39.827 0-22 17.834-42.506 39.833-42.506 22 0 37.165 20.506 37.165 42.506" fill="#FFF" fill-rule="nonzero"/>
        <path d="M157.808 124.453l-.005-.68c-.011-.44.016-1.093-.042-1.946-.058-1.707-.273-4.214-.909-7.347-.628-3.133-1.713-6.92-3.71-10.92-2.002-3.973-4.94-8.213-9.16-11.68-4.173-3.48-9.61-6.213-15.777-6.933-6.146-.814-12.873.293-18.922 3.373-6.074 3.04-11.442 8.013-15.302 14.053-1.929 3.027-3.529 6.294-4.648 9.747a43.341 43.341 0 0 0-2.032 10.573l-.05 1.467-.014.36c.004-.04.004.187.007.267l.01.68c-.011.893.062 1.8.105 2.706.16 1.8.417 3.587.817 5.347.83 3.52 2.119 6.933 3.964 10.027 3.624 6.2 9.176 11.12 15.359 13.96a36.193 36.193 0 0 0 9.508 2.933c1.593.28 3.234.44 4.717.52 1.712.053 3.2.04 4.756-.107 6.145-.426 11.697-2.52 16.045-5.533 4.382-3 7.578-6.827 9.818-10.547 2.245-3.733 3.505-7.386 4.26-10.453a39.905 39.905 0 0 0 1.102-7.213c.075-.774.066-1.56.084-2.014.014-.466.019-.72.019-.72v.08zm6.665.067l-.012.72c-.017.493.004 1.12-.072 2.173a46.39 46.39 0 0 1-1.217 8.494c-.852 3.573-2.29 7.893-4.93 12.373a38.832 38.832 0 0 1-11.882 12.68c-5.316 3.627-12.124 6.107-19.421 6.533-1.799.12-3.726.08-5.459-.04-1.961-.146-3.797-.373-5.67-.786a42.46 42.46 0 0 1-10.9-3.974 46.735 46.735 0 0 1-9.713-6.92c-2.917-2.773-5.562-5.92-7.708-9.44a52.303 52.303 0 0 1-2.866-5.493 45.435 45.435 0 0 1-2.083-5.893c-.55-2.014-.937-4.08-1.21-6.174-.093-1.04-.227-2.093-.245-3.146l-.025-.787-.012-.48.005-.36.023-1.467c.1-2.16.29-4.28.675-6.333.4-2.053.904-4.093 1.585-6.067 1.323-3.96 3.143-7.746 5.443-11.16 4.557-6.853 10.821-12.44 17.953-15.84 7.115-3.44 15.013-4.586 22.193-3.546 7.22 1.013 13.614 4.186 18.444 8.186 4.839 4.04 8.348 8.68 10.804 13.12 2.495 4.427 3.947 8.654 4.842 12.187.9 3.533 1.178 6.413 1.32 8.36.092.987.088 1.733.113 2.24l.027.773-.002.067z" fill="#231F20" fill-rule="nonzero"/>
        <path d="M124.308 124.453c0 22-15.165 39.827-37.164 39.827-22 0-39.833-17.827-39.833-39.827 0-22 17.833-51.84 39.833-51.84 21.999 0 37.164 29.84 37.164 51.84" fill="#FFF" fill-rule="nonzero"/>
        <path d="M121.407 124.453l-.008-.72c-.011-.466.004-1.173-.058-2.08a54.3 54.3 0 0 0-.962-7.92 63.598 63.598 0 0 0-3.534-11.986c-1.845-4.454-4.282-9.414-7.977-13.987-3.619-4.56-8.547-8.827-14.516-10.84-1.46-.467-3.085-.893-4.532-1.027-.648-.12-1.645-.133-2.553-.16l-.174-.013h.047l-.076.013-.301.014-.604.026c-.403.027-.81.027-1.212.094-1.624.133-3.242.533-4.856 1.013-1.595.56-3.194 1.213-4.726 2.08-6.178 3.427-11.506 9.107-15.685 15.613-4.19 6.52-7.285 13.987-8.81 21.694-.342 1.906-.642 3.906-.749 5.746-.05.44-.048 1-.069 1.507l-.024.773-.007.187c0-.067.006.08.007.12l.017.36.124 2.867a38.496 38.496 0 0 0 2.711 11.08 40.473 40.473 0 0 0 5.916 9.546c2.437 2.814 5.31 5.147 8.357 7.04.779.44 1.555.894 2.328 1.334.81.36 1.615.72 2.416 1.08.786.4 1.623.653 2.447.92.83.253 1.62.613 2.467.773.836.187 1.669.373 2.488.573.822.227 1.604.254 2.397.387 1.47.307 3.41.28 5.152.373l.332.014h.083c.178.013-.15 0-.09 0l.152-.014.606-.026 1.204-.067c.796-.053 1.601-.013 2.37-.173 1.551-.254 3.092-.44 4.539-.894 2.957-.693 5.604-1.986 8.067-3.306 4.833-2.867 8.484-6.707 11.006-10.574 2.54-3.866 3.959-7.733 4.862-10.96.372-1.626.776-3.106.892-4.346.174-1.254.372-2.28.381-3.307.103-1.92.157-2.96.157-2.96l-.002.133zm5.8.12l-.098 2.96c.012.934-.169 2.267-.352 3.787-.13 1.56-.54 3.213-.937 5.107-.96 3.733-2.51 8.24-5.408 12.866a39.863 39.863 0 0 1-12.947 12.827c-2.93 1.68-6.164 3.213-9.71 4.067-1.748.546-3.582.8-5.438 1.08-.925.186-1.869.16-2.816.226l-1.425.08-.717.027-.179.013h-.255l-.082-.013-.332-.013c-1.796-.147-3.47-.134-5.583-.534-.997-.186-2.057-.28-3.012-.546-.965-.254-1.927-.534-2.895-.814-3.8-1.293-7.596-2.946-10.99-5.36-6.872-4.64-12.584-11.4-16.04-19.36a47.607 47.607 0 0 1-3.174-12.653l-.186-3.293-.023-.414c-.001-.093-.01-.066-.008-.266l.004-.187.015-.773c.014-.534.004-1.014.05-1.587.104-2.293.402-4.387.756-6.533 1.556-8.534 4.775-16.627 9.251-23.854 4.467-7.2 10.33-13.626 17.692-17.826 1.83-1.054 3.788-1.894 5.772-2.6 2.019-.627 4.07-1.147 6.164-1.347.519-.08 1.044-.093 1.565-.107l.782-.026.39-.014h.316l.172.014c.932.053 1.771.053 2.922.226 2.178.254 4.045.787 5.938 1.454a33.185 33.185 0 0 1 9.696 5.773c2.74 2.333 5.052 4.88 7.05 7.467a68.47 68.47 0 0 1 8.726 15.266c1.974 4.854 3.215 9.254 3.996 12.934a59.913 59.913 0 0 1 1.222 8.693c.086 1.013.086 1.8.108 2.32.014.533.024.813.024.813l-.004.12z" fill="#231F20" fill-rule="nonzero"/>
        <path d="M118.703 108.28c35.106 0 45.106-16.333 45.106-52 0-28.72-23.778-52-53.11-52h-26.89c-44.182 0-80 35.813-80 80v40c0 22.093 17.908 40 40 40h-.056c22.092 0 40-17.907 40-40v-15.92l34.95-.08" fill="#FFF" fill-rule="nonzero"/>
        <path d="M118.703 108.28c35.106 0 45.106-16.333 45.106-52 0-28.72-23.778-52-53.11-52h-26.89c-44.182 0-80 35.813-80 80v40c0 22.093 17.908 40 40 40h-.056c22.092 0 40-17.907 40-40v-15.92l34.95-.08z" stroke="#231F20" stroke-width="6.667" stroke-linecap="round" stroke-linejoin="round"/>
        <path d="M86.587 29.613s.18 3.12.313 7.814c.045 2.346.152 5.08.17 8l.071 9.186-.073 9.187c-.023 2.92-.124 5.653-.17 8-.051 2.347-.16 4.293-.203 5.667l-.108 2.146a2.78 2.78 0 0 1-2.916 2.64c-1.436-.066-2.564-1.226-2.639-2.64l-.108-2.146c-.044-1.374-.152-3.32-.203-5.667-.046-2.347-.148-5.08-.17-8l-.074-9.187.072-9.186c.018-2.92.124-5.654.17-8 .133-4.694.313-7.814.313-7.814A2.775 2.775 0 0 1 83.969 27a2.77 2.77 0 0 1 2.618 2.613" fill="#231F20" fill-rule="nonzero"/>
        <path d="M58.808 51.84s.781-.04 2.148-.107c1.368-.053 3.321-.16 5.665-.213 2.343-.04 5.078-.147 8.008-.16 2.93-.027 6.055-.053 9.18-.08 3.126.027 6.251.053 9.18.08 2.931.013 5.666.12 8.01.16 4.686.133 7.812.32 7.812.32a2.774 2.774 0 0 1 2.618 2.933 2.78 2.78 0 0 1-2.618 2.614s-3.126.186-7.812.32c-2.344.04-5.079.146-8.01.16l-9.18.08-9.18-.08c-2.93-.014-5.665-.12-8.008-.16-2.344-.054-4.297-.16-5.665-.214-1.367-.066-2.148-.106-2.148-.106a2.78 2.78 0 0 1-2.64-2.92 2.784 2.784 0 0 1 2.64-2.627" fill="#231F20" fill-rule="nonzero"/>
    </g>
</svg>
