<svg width="167" height="168" xmlns="http://www.w3.org/2000/svg">
    <title>
        ken
    </title>
    <g fill="none" fill-rule="evenodd">
        <path d="M3.476 141.533c0-22.48 35.65-29.88 79.83-29.88 44.187 0 80.187 10.054 80.187 30.4 0 13.747-12.36 22.227-27.826 22.227-17.334 0-28-9.027-28-22.787 0 12.667-8.667 20.814-24 20.814-16.667 0-24-8.147-24-20.814 0 13.76-11.666 22.787-28.332 22.787-15.464 0-27.859-9-27.859-22.747" fill="#FFF" fill-rule="nonzero"/>
        <path d="M6.81 141.533c.005 2.88.683 5.667 2.017 8.134 1.325 2.48 3.294 4.626 5.668 6.32 2.361 1.706 5.118 2.96 8.032 3.773 1.457.413 2.956.707 4.476.907 1.53.186 2.992.28 4.606.28 3.126.013 6.228-.32 9.188-1.067 2.959-.747 5.75-1.96 8.184-3.613 2.427-1.654 4.446-3.814 5.806-6.347 1.4-2.52 2.146-5.413 2.213-8.427v-.08a2.684 2.684 0 0 1 2.733-2.6c1.454.04 2.614 1.24 2.6 2.68v.014c.147 2.746.6 5.426 1.627 7.76.987 2.333 2.48 4.306 4.453 5.76 1.974 1.453 4.347 2.493 6.947 3.093 1.293.307 2.64.533 4 .667 1.427.12 2.627.186 4.213.186a42.25 42.25 0 0 0 4.08-.186c1.36-.147 2.68-.374 3.974-.707 2.573-.64 4.933-1.733 6.96-3.213 2-1.48 3.586-3.44 4.64-5.747 1.106-2.28 1.626-4.907 1.773-7.627h5.333v.014c.08 2.48.52 4.906 1.44 7.106a17.342 17.342 0 0 0 3.92 5.827c3.387 3.307 8.12 5.24 13.094 6.04 1.253.2 2.52.333 3.8.413.64.027 1.186.067 1.893.067h1.027l.92-.013c2.546-.067 5.066-.374 7.493-.974 4.84-1.16 9.307-3.586 12.32-7.106a16.296 16.296 0 0 0 3.227-6c.32-1.067.533-2.307.613-3.334.093-1.333.08-2.346-.08-3.453-.573-4.36-3.667-8.24-7.733-11.173-4.067-2.974-8.947-5.147-13.96-6.88-5.04-1.734-10.294-3.027-15.614-4.027-10.653-2-21.573-2.92-32.493-3.24-5.44-.16-10.96-.12-16.427.04-5.48.16-10.946.453-16.386.947-5.431.48-10.838 1.16-16.158 2.12-5.317.973-10.561 2.253-15.529 4.053-4.943 1.787-9.688 4.147-13.284 7.427-1.788 1.64-3.241 3.506-4.197 5.56a14.76 14.76 0 0 0-1.072 3.2 17.88 17.88 0 0 0-.259 1.693l-.059.773-.02.96zm-6.666-.093l.03-1.027.1-1.293c.093-.8.22-1.613.391-2.413a21.71 21.71 0 0 1 1.594-4.627c1.408-2.947 3.468-5.493 5.773-7.56 4.657-4.147 10.097-6.667 15.52-8.6 5.455-1.92 11.012-3.2 16.575-4.187 5.565-.986 11.15-1.64 16.74-2.106 5.573-.467 11.16-.734 16.746-.867 5.587-.12 11.12-.16 16.734-.04 11.173.253 22.386 1.133 33.493 3.133 5.547 1.027 11.08 2.307 16.52 4.134 5.413 1.84 10.813 4.12 15.733 7.64 2.454 1.76 4.774 3.853 6.68 6.44 1.907 2.573 3.347 5.706 3.827 9.013.267 1.627.267 3.387.16 4.827-.12 1.72-.373 3.226-.827 4.813a23.054 23.054 0 0 1-4.52 8.52c-4.186 4.96-10.053 7.853-15.92 9.253a39.843 39.843 0 0 1-8.933 1.094c-.387 0-.707.013-1.16 0l-1.04-.027a45.215 45.215 0 0 1-2.24-.12c-1.48-.133-2.96-.32-4.44-.587-2.947-.546-5.893-1.426-8.68-2.746-2.787-1.347-5.413-3.134-7.6-5.44-2.2-2.294-3.933-5.054-4.973-8.027-1.08-2.973-1.467-6.107-1.427-9.133v-.014a2.648 2.648 0 0 1 2.493-2.813 2.658 2.658 0 0 1 2.827 2.48v.04l.013.293c.147 3.294-.32 6.734-1.6 9.987a20.883 20.883 0 0 1-6.24 8.4c-2.733 2.24-5.973 3.653-9.2 4.533-1.626.44-3.266.747-4.893.934-1.653.186-3.227.28-4.933.293a50.969 50.969 0 0 1-4.8-.28 37.176 37.176 0 0 1-4.88-.88c-3.227-.827-6.52-2.187-9.294-4.453-2.8-2.227-4.92-5.32-6.106-8.6-1.16-3.294-1.534-6.68-1.387-9.92v-.014h5.333c.094 3.747-.653 7.614-2.36 11.094-1.72 3.466-4.346 6.453-7.405 8.706-3.067 2.267-6.548 3.814-10.096 4.8-3.559.987-7.204 1.454-10.819 1.507a40.275 40.275 0 0 1-5.482-.293 40.177 40.177 0 0 1-5.438-1.054c-3.581-.973-7.074-2.52-10.197-4.746-3.105-2.227-5.816-5.187-7.655-8.667-1.853-3.48-2.765-7.453-2.738-11.307v-.04l.001-.053z" fill="#231F20" fill-rule="nonzero"/>
        <path d="M160.813 99.627c0 17.453-15.16 31.6-37.16 31.6-22 0-39.84-14.147-39.84-31.6 0-17.467 17.84-33.734 39.84-33.734 22 0 37.16 16.267 37.16 33.734" fill="#FFF" fill-rule="nonzero"/>
        <path d="M157.48 99.627v-.574c-.013-.386 0-.946-.067-1.666-.08-1.467-.36-3.614-1.12-6.267-.76-2.64-2.08-5.8-4.36-9a30.86 30.86 0 0 0-9.746-8.787c-4.214-2.426-9.374-4.16-14.987-4.573-5.627-.427-11.667.28-17.413 2.44-5.734 2.12-11.187 5.667-15.374 10.413-2.08 2.374-3.866 5.014-5.16 7.867-1.266 2.84-2.08 5.96-2.293 8.907-.16 3.2.173 6.213 1.213 9.186a24.982 24.982 0 0 0 4.654 8.12 30.67 30.67 0 0 0 7.146 6.16c1.334.84 2.72 1.574 4.12 2.254 1.44.613 2.867 1.2 4.334 1.653 2.92.96 5.92 1.533 8.853 1.853 1.467.174 2.933.254 4.307.307h2.213c.707-.027 1.427-.027 2.12-.093 5.6-.307 10.773-1.614 15.067-3.707 4.306-2.08 7.72-4.867 10.186-7.733a26.46 26.46 0 0 0 4.88-8.414 26.1 26.1 0 0 0 1.307-6.08c.08-.64.093-1.293.107-1.72.013-.426.013-.64.013-.64v.094zm6.667.08s0 .226-.014.653c-.013.413-.013 1.013-.093 2.013-.16 1.894-.52 4.52-1.6 7.8a33.42 33.42 0 0 1-6.027 10.654c-3.04 3.653-7.306 7.013-12.493 9.453-5.173 2.467-11.267 3.92-17.68 4.213-.8.027-1.6.014-2.413.027-.8-.027-1.587-.053-2.387-.093-1.707-.107-3.373-.254-5.027-.534-3.32-.546-6.653-1.4-9.92-2.666a49.905 49.905 0 0 1-9.466-4.827c-2.987-2.013-5.84-4.36-8.307-7.173a41.858 41.858 0 0 1-3.387-4.507 32.389 32.389 0 0 1-2.6-5.12c-.72-1.8-1.253-3.68-1.586-5.613-.2-.96-.28-1.934-.374-2.92l-.053-1.56.027-1.307c.053-.907.12-2.08.28-2.987.12-.973.333-1.92.546-2.88.467-1.893 1.147-3.706 1.934-5.466a36.334 36.334 0 0 1 6.293-9.414c5.053-5.506 11.427-9.413 18.04-11.693 6.613-2.32 13.48-2.96 19.813-2.387 6.4.614 12.294 2.547 17.187 5.334 4.867 2.826 8.787 6.346 11.64 9.986a35.959 35.959 0 0 1 5.827 10.494 32.402 32.402 0 0 1 1.666 7.653c.107.893.134 1.6.147 2.067.013.466.027.72.027.72v.08z" fill="#231F20" fill-rule="nonzero"/>
        <path d="M123.987 99.627c0 17.453-15.174 31.6-37.174 31.6s-39.83-14.147-39.83-31.6c0-17.467 17.83-41.134 39.83-41.134s37.174 23.667 37.174 41.134" fill="#FFF" fill-rule="nonzero"/>
        <path d="M121.08 99.627s-.04-.84-.107-2.4c-.093-1.56-.413-3.867-1.146-6.774-.814-2.88-2.027-6.36-4.094-10.053-2.093-3.627-4.866-7.587-8.746-10.96-.934-.88-2.027-1.587-3.067-2.413-1.08-.747-2.267-1.374-3.427-2.08-.613-.28-1.24-.56-1.866-.84-.627-.267-1.24-.614-1.907-.787-1.32-.36-2.68-.947-3.987-1.08-.653-.107-1.306-.253-1.96-.387-.746-.08-1.586-.106-2.386-.16l-1.2-.066-.307-.014-.16-.013h-.067c-.213-.013.2 0 .134 0l-.547.053c-.733.054-1.467.12-2.213.147-.747 0-1.48.173-2.214.32-.733.133-1.48.28-2.226.427-.734.226-1.467.466-2.2.706-.747.227-1.48.454-2.187.814-.72.32-1.44.653-2.16.973-.72.333-1.387.787-2.093 1.187-1.427.733-2.707 1.76-4.054 2.706-2.573 2.054-5.053 4.334-7.186 6.96C55.32 81.04 51.956 87.36 50.42 93.88l-.445 2.347c-.116.84-.142 1.8-.216 2.693l-.047.68-.012.173c.01-.293.005-.04.01-.08l.003.067.019.307.07 1.226.063 1.214.226 1.213c.556 3.2 1.752 6.32 3.629 9.027 1.827 2.72 4.12 5.12 6.653 7.186 2.654 1.934 5.494 3.547 8.454 4.76.746.294 1.52.534 2.266.8l1.12.387 1.147.293c.76.2 1.52.387 2.267.587.773.133 1.533.267 2.293.4 1.533.32 2.973.373 4.427.56.68.12 1.573.08 2.333.12.747.013 1.493.027 2.24.053 5.88-.026 11.333-1.186 15.973-3.106 1.187-.4 2.227-1.067 3.307-1.56 1.067-.574 2.013-1.24 2.987-1.827.88-.707 1.786-1.347 2.586-2.04.76-.76 1.574-1.413 2.227-2.173 2.707-2.96 4.453-6.04 5.413-8.734.307-.653.414-1.333.627-1.933.16-.613.373-1.187.44-1.707.093-.52.173-.986.253-1.44.054-.213.094-.426.134-.626.026-.214.026-.454.04-.667.12-1.707.173-2.613.173-2.613v.16zm5.8.146s-.04.92-.12 2.627c-.013.227 0 .44-.027.693-.04.267-.08.56-.133.854-.093.6-.187 1.266-.293 1.973-.08.72-.307 1.413-.507 2.173-.227.747-.373 1.587-.707 2.4-1.12 3.347-3.186 7.214-6.426 10.907-.787.947-1.747 1.773-2.654 2.707-.96.866-2.026 1.666-3.093 2.533-1.147.733-2.28 1.56-3.533 2.253-1.267.64-2.52 1.427-3.92 1.947-5.454 2.373-11.84 3.667-18.534 3.707h-.293l-.147-.014-.293-.013-.587-.027-1.2-.066c-.813-.067-1.533-.027-2.453-.174-1.747-.253-3.573-.386-5.253-.853-.854-.2-1.72-.4-2.574-.613-.853-.267-1.706-.534-2.56-.814l-1.28-.413-1.253-.52c-.84-.36-1.68-.68-2.507-1.067-3.293-1.6-6.506-3.493-9.466-5.866-2.934-2.374-5.62-5.187-7.79-8.454-2.197-3.24-3.706-7.026-4.473-10.973l-.29-1.48-.111-1.507-.104-1.52-.026-.373-.005-.093c0-.107-.01.093-.001-.254l.009-.173.037-.68c.063-.933.068-1.8.18-2.773l.502-3.054c1.688-7.76 5.33-14.733 10.138-20.64 4.734-5.96 10.84-10.746 17.654-13.733.826-.413 1.706-.707 2.586-1 .88-.28 1.76-.573 2.627-.867.907-.173 1.813-.36 2.707-.546.893-.187 1.786-.374 2.693-.4.907-.054 1.813-.107 2.707-.174l.666-.026c-.013-.014.454.013.294 0l.08.013.146.013.307.014 1.2.093c.813.067 1.587.107 2.427.2.893.173 1.786.347 2.68.547 1.826.32 3.32 1.013 4.92 1.56.8.24 1.506.666 2.253 1.026.72.36 1.44.734 2.16 1.094 1.333.88 2.68 1.693 3.907 2.6 1.173.973 2.413 1.84 3.453 2.866 4.28 3.974 7.52 8.24 9.853 12.334 2.32 4.093 3.76 7.96 4.76 11.2.907 3.28 1.334 5.973 1.494 7.813.12 1.867.173 2.867.173 2.867v.146z" fill="#231F20" fill-rule="nonzero"/>
        <path d="M118.373 86.787c35.107 0 45.107-12.947 45.107-41.254 0-22.773-23.773-41.253-53.107-41.253H83.48C39.3 4.28 3.483 32.693 3.483 67.76v31.733c0 17.52 17.908 31.734 40 31.734h-.056c22.093 0 40-14.214 40-31.734V86.867l34.946-.08" fill="#FFF" fill-rule="nonzero"/>
        <path d="M118.373 86.787c35.107 0 45.107-12.947 45.107-41.254 0-22.773-23.773-41.253-53.107-41.253H83.48C39.3 4.28 3.483 32.693 3.483 67.76v31.733c0 17.52 17.908 31.734 40 31.734h-.056c22.093 0 40-14.214 40-31.734V86.867l34.946-.08z" stroke="#231F20" stroke-width="6.667" stroke-linecap="round" stroke-linejoin="round"/>
        <path d="M86.267 21.28s.173 2.867.306 7.173c.04 2.147.147 4.654.174 7.347.013 2.68.04 5.547.066 8.413-.026 2.867-.053 5.734-.066 8.414-.027 2.693-.134 5.2-.174 7.346-.053 2.16-.16 3.947-.2 5.2-.08 1.254-.106 1.974-.106 1.974a2.795 2.795 0 0 1-2.934 2.626 2.803 2.803 0 0 1-2.626-2.626l-.107-1.974c-.053-1.253-.16-3.04-.2-5.2-.053-2.146-.16-4.653-.173-7.346-.027-2.68-.054-5.547-.08-8.414.026-2.866.053-5.733.08-8.413.013-2.693.12-5.2.16-7.347.133-4.306.32-7.173.32-7.173a2.777 2.777 0 0 1 2.946-2.6c1.414.08 2.52 1.227 2.614 2.6" fill="#231F20" fill-rule="nonzero"/>
        <path d="M58.48 41.44l2.147-.107c1.373-.053 3.32-.16 5.666-.213 2.347-.04 5.08-.147 8.014-.16 2.92-.027 6.053-.053 9.173-.08 3.133.027 6.253.053 9.187.08 2.92.013 5.666.12 8 .16 4.693.133 7.813.32 7.813.32a2.787 2.787 0 0 1 2.627 2.933 2.78 2.78 0 0 1-2.627 2.614s-3.12.186-7.813.32c-2.334.04-5.08.146-8 .16l-9.187.08-9.173-.08c-2.934-.014-5.667-.12-8.014-.16-2.346-.054-4.293-.16-5.666-.214-1.36-.066-2.147-.106-2.147-.106a2.766 2.766 0 0 1-2.64-2.907 2.797 2.797 0 0 1 2.64-2.64" fill="#231F20" fill-rule="nonzero"/>
    </g>
</svg>
