<svg width="168" height="168" xmlns="http://www.w3.org/2000/svg">
    <title>
        ki
    </title>
    <g fill="none" fill-rule="evenodd">
        <path d="M161.475 124.453c0 22-15.166 39.827-37.166 39.827-21.998 0-39.833-17.827-39.833-39.827 0-22 17.835-42.506 39.833-42.506 22 0 37.166 20.506 37.166 42.506" fill="#FFF" fill-rule="nonzero"/>
        <path d="M158.141 124.453l-.005-.68c-.01-.44.016-1.093-.041-1.946-.059-1.707-.274-4.214-.91-7.347-.628-3.133-1.713-6.92-3.71-10.92-2.002-3.973-4.939-8.213-9.159-11.68-4.173-3.48-9.61-6.213-15.777-6.933-6.147-.814-12.874.293-18.923 3.373-6.073 3.04-11.441 8.013-15.301 14.053-1.93 3.027-3.53 6.294-4.648 9.747a43.341 43.341 0 0 0-2.032 10.573l-.051 1.467-.013.36c.004-.04.004.187.006.267l.011.68c-.012.893.061 1.8.104 2.706.16 1.8.417 3.587.817 5.347.831 3.52 2.119 6.933 3.964 10.027 3.624 6.2 9.176 11.12 15.359 13.96a36.193 36.193 0 0 0 9.508 2.933c1.593.28 3.235.44 4.717.52 1.712.053 3.2.04 4.756-.107 6.144-.426 11.698-2.52 16.046-5.533 4.381-3 7.577-6.827 9.817-10.547 2.245-3.733 3.505-7.386 4.26-10.453a39.905 39.905 0 0 0 1.103-7.213c.074-.774.065-1.56.084-2.014.013-.466.018-.72.018-.72v.08zm6.666.067l-.012.72c-.018.493.004 1.12-.072 2.173a46.39 46.39 0 0 1-1.218 8.494c-.852 3.573-2.29 7.893-4.93 12.373a38.832 38.832 0 0 1-11.882 12.68c-5.316 3.627-12.124 6.107-19.421 6.533-1.799.12-3.725.08-5.459-.04-1.961-.146-3.797-.373-5.67-.786a42.46 42.46 0 0 1-10.9-3.974 46.735 46.735 0 0 1-9.712-6.92c-2.918-2.773-5.563-5.92-7.708-9.44a52.303 52.303 0 0 1-2.867-5.493 45.435 45.435 0 0 1-2.083-5.893c-.549-2.014-.937-4.08-1.209-6.174-.093-1.04-.228-2.093-.245-3.146l-.026-.787-.012-.48.006-.36.022-1.467c.1-2.16.29-4.28.675-6.333.4-2.053.904-4.093 1.585-6.067 1.323-3.96 3.143-7.746 5.443-11.16 4.557-6.853 10.821-12.44 17.953-15.84 7.115-3.44 15.014-4.586 22.194-3.546 7.22 1.013 13.613 4.186 18.444 8.186 4.838 4.04 8.348 8.68 10.804 13.12 2.494 4.427 3.946 8.654 4.841 12.187.9 3.533 1.179 6.413 1.32 8.36.092.987.088 1.733.113 2.24l.027.773-.001.067z" fill="#231F20" fill-rule="nonzero"/>
        <path d="M124.641 124.453c0 22-15.165 39.827-37.164 39.827-22 0-39.833-17.827-39.833-39.827 0-22 17.833-51.84 39.833-51.84 21.999 0 37.164 29.84 37.164 51.84" fill="#FFF" fill-rule="nonzero"/>
        <path d="M121.74 124.453l-.008-.72c-.01-.466.004-1.173-.057-2.08a54.3 54.3 0 0 0-.963-7.92 63.598 63.598 0 0 0-3.533-11.986c-1.846-4.454-4.283-9.414-7.978-13.987-3.618-4.56-8.546-8.827-14.516-10.84-1.46-.467-3.085-.893-4.532-1.027-.648-.12-1.645-.133-2.553-.16l-.173-.013h.046l-.076.013-.301.014-.604.026c-.403.027-.81.027-1.212.094-1.624.133-3.241.533-4.856 1.013-1.595.56-3.193 1.213-4.725 2.08-6.179 3.427-11.507 9.107-15.686 15.613-4.19 6.52-7.285 13.987-8.809 21.694-.343 1.906-.643 3.906-.75 5.746-.05.44-.047 1-.069 1.507l-.024.773-.006.187c0-.067.005.08.006.12l.018.36.124 2.867a38.496 38.496 0 0 0 2.71 11.08 40.473 40.473 0 0 0 5.916 9.546c2.438 2.814 5.311 5.147 8.358 7.04.778.44 1.554.894 2.328 1.334.809.36 1.614.72 2.416 1.08.785.4 1.622.653 2.446.92.831.253 1.62.613 2.467.773.836.187 1.67.373 2.488.573.823.227 1.604.254 2.397.387 1.47.307 3.41.28 5.152.373l.332.014h.083c.179.013-.15 0-.09 0l.153-.014.605-.026 1.204-.067c.796-.053 1.601-.013 2.37-.173 1.551-.254 3.093-.44 4.54-.894 2.957-.693 5.603-1.986 8.066-3.306 4.833-2.867 8.484-6.707 11.007-10.574 2.54-3.866 3.958-7.733 4.861-10.96.372-1.626.776-3.106.892-4.346.175-1.254.372-2.28.381-3.307l.158-2.96-.003.133zm5.8.12l-.097 2.96c.012.934-.17 2.267-.352 3.787-.131 1.56-.54 3.213-.938 5.107-.96 3.733-2.51 8.24-5.408 12.866A39.863 39.863 0 0 1 107.8 162.12c-2.931 1.68-6.164 3.213-9.711 4.067-1.748.546-3.581.8-5.437 1.08-.926.186-1.87.16-2.816.226l-1.426.08-.717.027-.179.013h-.254l-.083-.013-.332-.013c-1.797-.147-3.47-.134-5.583-.534-.997-.186-2.057-.28-3.012-.546-.965-.254-1.926-.534-2.894-.814-3.8-1.293-7.596-2.946-10.991-5.36-6.872-4.64-12.584-11.4-16.04-19.36a47.607 47.607 0 0 1-3.173-12.653l-.187-3.293-.023-.414c-.001-.093-.01-.066-.008-.266l.004-.187.015-.773c.015-.534.004-1.014.05-1.587.105-2.293.402-4.387.757-6.533 1.556-8.534 4.774-16.627 9.25-23.854 4.467-7.2 10.331-13.626 17.692-17.826 1.831-1.054 3.788-1.894 5.772-2.6 2.019-.627 4.071-1.147 6.164-1.347.519-.08 1.044-.093 1.566-.107l.781-.026.39-.014h.317l.172.014c.932.053 1.77.053 2.921.226 2.177.254 4.045.787 5.939 1.454a33.185 33.185 0 0 1 9.696 5.773c2.74 2.333 5.052 4.88 7.049 7.467a68.47 68.47 0 0 1 8.727 15.266c1.973 4.854 3.214 9.254 3.996 12.934a59.913 59.913 0 0 1 1.221 8.693c.087 1.013.087 1.8.108 2.32l.024.813-.004.12z" fill="#231F20" fill-rule="nonzero"/>
        <path d="M119.036 108.28c35.107 0 45.107-16.333 45.107-52 0-28.72-23.779-52-53.111-52h-26.89c-44.182 0-80 35.813-80 80v40c0 22.093 17.909 40 40 40h-.055c22.092 0 40-17.907 40-40v-15.92l34.949-.08" fill="#FFF" fill-rule="nonzero"/>
        <path d="M119.036 108.28c35.107 0 45.107-16.333 45.107-52 0-28.72-23.779-52-53.111-52h-26.89c-44.182 0-80 35.813-80 80v40c0 22.093 17.909 40 40 40h-.055c22.092 0 40-17.907 40-40v-15.92l34.949-.08z" stroke="#231F20" stroke-width="6.667" stroke-linecap="round" stroke-linejoin="round"/>
        <path d="M87.143 4.28l.333 69a3.326 3.326 0 0 1-3.317 3.347 3.322 3.322 0 0 1-3.35-3.307v-.04l.334-69a3.008 3.008 0 0 1 3.014-2.987 3.007 3.007 0 0 1 2.986 2.987M65.659 48.133c0 4.374-3.547 7.934-7.923 7.934-4.376 0-7.923-3.56-7.923-7.934a7.922 7.922 0 0 1 7.923-7.92 7.922 7.922 0 0 1 7.923 7.92m52.813 0c0 4.374-3.547 7.934-7.923 7.934-4.374 0-7.922-3.56-7.922-7.934a7.922 7.922 0 0 1 7.922-7.92 7.922 7.922 0 0 1 7.923 7.92" fill="#231F20" fill-rule="nonzero"/>
    </g>
</svg>
