<svg width="168" height="168" xmlns="http://www.w3.org/2000/svg">
    <title>
        kin
    </title>
    <g fill="none" fill-rule="evenodd">
        <path d="M3.813 141.533c0-22.48 35.64-29.88 79.827-29.88s80.187 10.054 80.187 30.4c0 13.747-12.36 22.227-27.827 22.227-17.333 0-28-9.027-28-22.787 0 12.667-8.667 20.814-24 20.814-16.667 0-24-8.147-24-20.814 0 13.76-11.667 22.787-28.333 22.787-15.467 0-27.854-9-27.854-22.747" fill="#FFF" fill-rule="nonzero"/>
        <path d="M7.147 141.533c0 2.88.68 5.667 2.013 8.134 1.32 2.48 3.293 4.626 5.667 6.32 2.36 1.706 5.12 2.96 8.026 3.773a31.8 31.8 0 0 0 4.48.907c1.534.186 3 .28 4.614.28 3.12.013 6.226-.32 9.186-1.067 2.96-.747 5.747-1.96 8.187-3.613 2.427-1.654 4.44-3.814 5.8-6.347 1.4-2.52 2.147-5.413 2.213-8.427v-.08a2.684 2.684 0 0 1 2.734-2.6c1.453.04 2.613 1.24 2.6 2.68v.014c.146 2.746.6 5.426 1.626 7.76.987 2.333 2.48 4.306 4.454 5.76 1.973 1.453 4.346 2.493 6.946 3.093 1.294.307 2.64.533 4 .667a46.71 46.71 0 0 0 4.214.186c1.306 0 2.746-.053 4.08-.186 1.36-.147 2.68-.374 3.973-.707 2.573-.64 4.933-1.733 6.96-3.213 2-1.48 3.587-3.44 4.64-5.747 1.107-2.28 1.627-4.907 1.773-7.627h5.334v.014c.08 2.48.52 4.906 1.44 7.106a17.342 17.342 0 0 0 3.92 5.827c3.386 3.307 8.12 5.24 13.093 6.04 1.253.2 2.52.333 3.8.413.64.027 1.187.067 1.893.067h1.027l.92-.013c2.547-.067 5.067-.374 7.493-.974 4.84-1.16 9.307-3.586 12.32-7.106a16.296 16.296 0 0 0 3.227-6c.32-1.067.533-2.307.613-3.334.094-1.333.08-2.346-.08-3.453-.573-4.36-3.666-8.24-7.733-11.173-4.067-2.974-8.947-5.147-13.96-6.88-5.04-1.734-10.293-3.027-15.613-4.027-10.654-2-21.574-2.92-32.494-3.24-5.44-.16-10.96-.12-16.426.04-5.48.16-10.947.453-16.387.947-5.427.48-10.84 1.16-16.16 2.12-5.32.973-10.56 2.253-15.533 4.053-4.934 1.787-9.68 4.147-13.28 7.427-1.787 1.64-3.24 3.506-4.2 5.56a15.039 15.039 0 0 0-1.067 3.2c-.12.56-.2 1.12-.253 1.693l-.067.773-.013.96zM.48 141.44l.027-1.027.106-1.293c.08-.8.214-1.613.387-2.413a22.065 22.065 0 0 1 1.587-4.627c1.413-2.947 3.48-5.493 5.773-7.56 4.667-4.147 10.107-6.667 15.52-8.6 5.453-1.92 11.013-3.2 16.573-4.187 5.574-.986 11.16-1.64 16.747-2.106 5.573-.467 11.16-.734 16.747-.867 5.586-.12 11.12-.16 16.733-.04 11.173.253 22.387 1.133 33.493 3.133 5.547 1.027 11.08 2.307 16.52 4.134 5.414 1.84 10.814 4.12 15.734 7.64 2.453 1.76 4.773 3.853 6.68 6.44 1.906 2.573 3.346 5.706 3.826 9.013.267 1.627.267 3.387.16 4.827-.12 1.72-.373 3.226-.826 4.813a23.054 23.054 0 0 1-4.52 8.52c-4.187 4.96-10.054 7.853-15.92 9.253a39.843 39.843 0 0 1-8.934 1.094c-.386 0-.706.013-1.16 0l-1.04-.027a45.215 45.215 0 0 1-2.24-.12c-1.48-.133-2.96-.32-4.44-.587-2.946-.546-5.893-1.426-8.68-2.746-2.786-1.347-5.413-3.134-7.6-5.44-2.2-2.294-3.933-5.054-4.973-8.027-1.08-2.973-1.467-6.107-1.427-9.133v-.014a2.648 2.648 0 0 1 2.494-2.813 2.658 2.658 0 0 1 2.826 2.48v.04l.014.293c.146 3.294-.32 6.734-1.6 9.987a20.883 20.883 0 0 1-6.24 8.4c-2.734 2.24-5.974 3.653-9.2 4.533a33.34 33.34 0 0 1-4.894.934c-1.653.186-3.226.28-4.933.293a50.969 50.969 0 0 1-4.8-.28 37.176 37.176 0 0 1-4.88-.88c-3.227-.827-6.52-2.187-9.293-4.453-2.8-2.227-4.92-5.32-6.107-8.6-1.16-3.294-1.533-6.68-1.387-9.92v-.014h5.334c.093 3.747-.654 7.614-2.36 11.094-1.72 3.466-4.347 6.453-7.4 8.706-3.067 2.267-6.547 3.814-10.107 4.8-3.56.987-7.2 1.454-10.813 1.507a40.18 40.18 0 0 1-10.92-1.347c-3.587-.973-7.08-2.52-10.2-4.746-3.107-2.227-5.814-5.187-7.654-8.667-1.853-3.48-2.76-7.453-2.733-11.307v-.093z" fill="#231F20" fill-rule="nonzero"/>
        <path d="M161.147 99.627c0 17.453-15.16 31.6-37.16 31.6-22 0-39.84-14.147-39.84-31.6 0-17.467 17.84-33.734 39.84-33.734 22 0 37.16 16.267 37.16 33.734" fill="#FFF" fill-rule="nonzero"/>
        <path d="M157.813 99.627v-.574c-.013-.386 0-.946-.066-1.666-.08-1.467-.36-3.614-1.12-6.267-.76-2.64-2.08-5.8-4.36-9a30.86 30.86 0 0 0-9.747-8.787c-4.213-2.426-9.373-4.16-14.987-4.573-5.626-.427-11.666.28-17.413 2.44-5.733 2.12-11.187 5.667-15.373 10.413-2.08 2.374-3.867 5.014-5.16 7.867-1.267 2.84-2.08 5.96-2.294 8.907-.16 3.2.174 6.213 1.214 9.186a24.982 24.982 0 0 0 4.653 8.12 30.67 30.67 0 0 0 7.147 6.16c1.333.84 2.72 1.574 4.12 2.254 1.44.613 2.866 1.2 4.333 1.653 2.92.96 5.92 1.533 8.853 1.853 1.467.174 2.934.254 4.307.307h2.213c.707-.027 1.427-.027 2.12-.093 5.6-.307 10.774-1.614 15.067-3.707 4.307-2.08 7.72-4.867 10.187-7.733a26.46 26.46 0 0 0 4.88-8.414 26.1 26.1 0 0 0 1.306-6.08c.08-.64.094-1.293.107-1.72.013-.426.013-.64.013-.64v.094zm6.667.08s0 .226-.013.653c-.014.413-.014 1.013-.094 2.013-.16 1.894-.52 4.52-1.6 7.8a33.42 33.42 0 0 1-6.026 10.654c-3.04 3.653-7.307 7.013-12.494 9.453-5.173 2.467-11.266 3.92-17.68 4.213-.8.027-1.6.014-2.413.027-.8-.027-1.587-.053-2.387-.093-1.706-.107-3.373-.254-5.026-.534-3.32-.546-6.654-1.4-9.92-2.666a49.905 49.905 0 0 1-9.467-4.827c-2.987-2.013-5.84-4.36-8.307-7.173a41.858 41.858 0 0 1-3.386-4.507 32.389 32.389 0 0 1-2.6-5.12c-.72-1.8-1.254-3.68-1.587-5.613-.2-.96-.28-1.934-.373-2.92l-.054-1.56.027-1.307c.053-.907.12-2.08.28-2.987.12-.973.333-1.92.547-2.88.466-1.893 1.146-3.706 1.933-5.466a36.334 36.334 0 0 1 6.293-9.414c5.054-5.506 11.427-9.413 18.04-11.693 6.614-2.32 13.48-2.96 19.814-2.387 6.4.614 12.293 2.547 17.186 5.334 4.867 2.826 8.787 6.346 11.64 9.986a35.959 35.959 0 0 1 5.827 10.494 32.402 32.402 0 0 1 1.667 7.653c.106.893.133 1.6.146 2.067.014.466.027.72.027.72v.08z" fill="#231F20" fill-rule="nonzero"/>
        <path d="M124.32 99.627c0 17.453-15.173 31.6-37.173 31.6S47.32 117.08 47.32 99.627c0-17.467 17.827-41.134 39.827-41.134 22 0 37.173 23.667 37.173 41.134" fill="#FFF" fill-rule="nonzero"/>
        <path d="M121.413 99.627s-.04-.84-.106-2.4c-.094-1.56-.414-3.867-1.147-6.774-.813-2.88-2.027-6.36-4.093-10.053-2.094-3.627-4.867-7.587-8.747-10.96-.933-.88-2.027-1.587-3.067-2.413-1.08-.747-2.266-1.374-3.426-2.08-.614-.28-1.24-.56-1.867-.84-.627-.267-1.24-.614-1.907-.787-1.32-.36-2.68-.947-3.986-1.08-.654-.107-1.307-.253-1.96-.387-.747-.08-1.587-.106-2.387-.16l-1.2-.066-.307-.014-.16-.013h-.066c-.214-.013.2 0 .133 0l-.547.053c-.733.054-1.466.12-2.213.147-.747 0-1.48.173-2.213.32-.734.133-1.48.28-2.227.427-.733.226-1.467.466-2.2.706-.747.227-1.48.454-2.187.814-.72.32-1.44.653-2.16.973-.72.333-1.386.787-2.093 1.187-1.427.733-2.707 1.76-4.053 2.706-2.574 2.054-5.054 4.334-7.187 6.96-4.387 5.147-7.747 11.467-9.293 17.987l-.44 2.347c-.12.84-.134 1.8-.214 2.693l-.053.68v.093l.013.067.014.307.066 1.226.067 1.214.227 1.213c.56 3.2 1.746 6.32 3.626 9.027 1.827 2.72 4.12 5.12 6.654 7.186 2.653 1.934 5.493 3.547 8.453 4.76.747.294 1.52.534 2.267.8l1.12.387 1.146.293c.76.2 1.52.387 2.267.587.773.133 1.533.267 2.293.4 1.534.32 2.974.373 4.427.56.68.12 1.573.08 2.333.12.747.013 1.494.027 2.24.053 5.88-.026 11.334-1.186 15.974-3.106 1.186-.4 2.226-1.067 3.306-1.56 1.067-.574 2.014-1.24 2.987-1.827.88-.707 1.787-1.347 2.587-2.04.76-.76 1.573-1.413 2.226-2.173 2.707-2.96 4.454-6.04 5.414-8.734.306-.653.413-1.333.626-1.933.16-.613.374-1.187.44-1.707.094-.52.174-.986.254-1.44.053-.213.093-.426.133-.626.027-.214.027-.454.04-.667.12-1.707.173-2.613.173-2.613v.16zm5.8.146s-.04.92-.12 2.627c-.013.227 0 .44-.026.693-.04.267-.08.56-.134.854-.093.6-.186 1.266-.293 1.973-.08.72-.307 1.413-.507 2.173-.226.747-.373 1.587-.706 2.4-1.12 3.347-3.187 7.214-6.427 10.907-.787.947-1.747 1.773-2.653 2.707-.96.866-2.027 1.666-3.094 2.533-1.146.733-2.28 1.56-3.533 2.253-1.267.64-2.52 1.427-3.92 1.947-5.453 2.373-11.84 3.667-18.533 3.707h-.294l-.146-.014-.294-.013-.586-.027-1.2-.066c-.814-.067-1.534-.027-2.454-.174-1.746-.253-3.573-.386-5.253-.853-.853-.2-1.72-.4-2.573-.613-.854-.267-1.707-.534-2.56-.814l-1.28-.413-1.254-.52c-.84-.36-1.68-.68-2.506-1.067-3.294-1.6-6.507-3.493-9.467-5.866-2.933-2.374-5.613-5.187-7.787-8.454-2.2-3.24-3.706-7.026-4.48-10.973l-.28-1.48-.12-1.507-.106-1.52-.014-.373-.013-.093c0-.107-.013.093 0-.254l.013-.173.027-.68c.067-.933.08-1.8.187-2.773l.506-3.054c1.68-7.76 5.32-14.733 10.134-20.64C60.2 66.173 66.307 61.387 73.12 58.4c.827-.413 1.707-.707 2.587-1 .88-.28 1.76-.573 2.626-.867.907-.173 1.814-.36 2.707-.546.893-.187 1.787-.374 2.693-.4.907-.054 1.814-.107 2.707-.174l.667-.026c-.014-.014.453.013.293 0l.08.013.147.013.306.014 1.2.093c.814.067 1.587.107 2.427.2.893.173 1.787.347 2.68.547 1.827.32 3.32 1.013 4.92 1.56.8.24 1.507.666 2.253 1.026.72.36 1.44.734 2.16 1.094 1.334.88 2.68 1.693 3.907 2.6 1.173.973 2.413 1.84 3.453 2.866 4.28 3.974 7.52 8.24 9.854 12.334 2.32 4.093 3.76 7.96 4.76 11.2.906 3.28 1.333 5.973 1.493 7.813.12 1.867.173 2.867.173 2.867v.146z" fill="#231F20" fill-rule="nonzero"/>
        <path d="M118.707 86.787c35.106 0 45.106-12.947 45.106-41.254 0-22.773-23.773-41.253-53.106-41.253H83.813c-44.186 0-80 28.413-80 63.48v31.733c0 17.52 17.907 31.734 40 31.734h-.053c22.093 0 40-14.214 40-31.734V86.867l34.947-.08" fill="#FFF" fill-rule="nonzero"/>
        <path d="M118.707 86.787c35.106 0 45.106-12.947 45.106-41.254 0-22.773-23.773-41.253-53.106-41.253H83.813c-44.186 0-80 28.413-80 63.48v31.733c0 17.52 17.907 31.734 40 31.734h-.053c22.093 0 40-14.214 40-31.734V86.867l34.947-.08z" stroke="#231F20" stroke-width="6.667" stroke-linecap="round" stroke-linejoin="round"/>
        <path d="M86.813 4.28l.334 54.747a3.315 3.315 0 0 1-3.307 3.346 3.335 3.335 0 0 1-3.36-3.306v-.04l.333-54.747a3.016 3.016 0 0 1 3.027-2.987 3.005 3.005 0 0 1 2.973 2.987m-21.48 35.093c0 4.387-3.546 7.934-7.92 7.934a7.927 7.927 0 0 1-7.933-7.934c0-4.373 3.547-7.92 7.933-7.92a7.921 7.921 0 0 1 7.92 7.92m52.814 0c0 4.387-3.547 7.934-7.92 7.934a7.935 7.935 0 0 1-7.934-7.934c0-4.373 3.56-7.92 7.934-7.92a7.921 7.921 0 0 1 7.92 7.92" fill="#231F20" fill-rule="nonzero"/>
    </g>
</svg>
