<svg width="167" height="168" xmlns="http://www.w3.org/2000/svg">
    <title>
        ko
    </title>
    <g fill="none" fill-rule="evenodd">
        <path d="M160.808 124.453c0 22-15.165 39.827-37.165 39.827-21.999 0-39.834-17.827-39.834-39.827 0-22 17.835-42.506 39.834-42.506 22 0 37.165 20.506 37.165 42.506" fill="#FFF" fill-rule="nonzero"/>
        <path d="M157.475 124.453l-.006-.68c-.01-.44.016-1.093-.041-1.946-.059-1.707-.273-4.214-.91-7.347-.627-3.133-1.713-6.92-3.71-10.92-2.001-3.973-4.939-8.213-9.159-11.68-4.173-3.48-9.61-6.213-15.777-6.933-6.147-.814-12.873.293-18.923 3.373-6.073 3.04-11.441 8.013-15.301 14.053-1.93 3.027-3.53 6.294-4.648 9.747a43.341 43.341 0 0 0-2.032 10.573l-.05 1.467-.014.36c.004-.04.004.187.007.267l.01.68c-.012.893.062 1.8.104 2.706.162 1.8.418 3.587.818 5.347.83 3.52 2.118 6.933 3.964 10.027 3.624 6.2 9.176 11.12 15.36 13.96a36.169 36.169 0 0 0 9.506 2.933c1.594.28 3.235.44 4.718.52 1.712.053 3.2.04 4.756-.107 6.145-.426 11.697-2.52 16.045-5.533 4.381-3 7.577-6.827 9.817-10.547 2.246-3.733 3.506-7.386 4.26-10.453a39.905 39.905 0 0 0 1.103-7.213c.075-.774.065-1.56.084-2.014l.019-.72v.08zm6.665.067l-.012.72c-.017.493.004 1.12-.072 2.173a46.39 46.39 0 0 1-1.217 8.494c-.852 3.573-2.291 7.893-4.931 12.373a38.832 38.832 0 0 1-11.881 12.68c-5.315 3.627-12.124 6.107-19.422 6.533-1.798.12-3.725.08-5.458-.04-1.962-.146-3.798-.373-5.671-.786a42.46 42.46 0 0 1-10.9-3.974 46.735 46.735 0 0 1-9.712-6.92c-2.917-2.773-5.563-5.92-7.708-9.44a52.303 52.303 0 0 1-2.867-5.493 45.435 45.435 0 0 1-2.082-5.893c-.55-2.014-.938-4.08-1.21-6.174-.093-1.04-.228-2.093-.245-3.146l-.025-.787-.012-.48.005-.36.023-1.467c.1-2.16.289-4.28.674-6.333.402-2.053.904-4.093 1.586-6.067 1.322-3.96 3.142-7.746 5.442-11.16 4.558-6.853 10.822-12.44 17.954-15.84 7.114-3.44 15.013-4.586 22.193-3.546 7.22 1.013 13.613 4.186 18.444 8.186 4.839 4.04 8.348 8.68 10.804 13.12 2.495 4.427 3.947 8.654 4.841 12.187.9 3.533 1.179 6.413 1.322 8.36.09.987.086 1.733.112 2.24l.026.773-.001.067z" fill="#231F20" fill-rule="nonzero"/>
        <path d="M123.975 124.453c0 22-15.166 39.827-37.164 39.827-22 0-39.834-17.827-39.834-39.827 0-22 17.834-51.84 39.834-51.84 21.998 0 37.164 29.84 37.164 51.84" fill="#FFF" fill-rule="nonzero"/>
        <path d="M121.073 124.453l-.008-.72c-.01-.466.004-1.173-.057-2.08a54.3 54.3 0 0 0-.963-7.92 63.598 63.598 0 0 0-3.533-11.986c-1.845-4.454-4.281-9.414-7.977-13.987-3.619-4.56-8.547-8.827-14.516-10.84-1.46-.467-3.086-.893-4.532-1.027-.648-.12-1.646-.133-2.554-.16l-.173-.013h.047l-.076.013-.302.014-.604.026c-.402.027-.809.027-1.212.094-1.624.133-3.241.533-4.856 1.013-1.594.56-3.193 1.213-4.725 2.08-6.179 3.427-11.507 9.107-15.685 15.613-4.191 6.52-7.286 13.987-8.81 21.694-.342 1.906-.642 3.906-.749 5.746-.05.44-.048 1-.07 1.507l-.023.773-.007.187c0-.067.005.08.007.12l.017.36.124 2.867a38.455 38.455 0 0 0 2.712 11.08 40.425 40.425 0 0 0 5.915 9.546c2.437 2.814 5.31 5.147 8.357 7.04.779.44 1.555.894 2.328 1.334.81.36 1.615.72 2.416 1.08.785.4 1.623.653 2.447.92.83.253 1.62.613 2.466.773.836.187 1.67.373 2.488.573.823.227 1.604.254 2.398.387 1.469.307 3.409.28 5.152.373l.332.014h.082c.179.013-.149 0-.089 0l.152-.014.605-.026 1.204-.067c.796-.053 1.602-.013 2.371-.173 1.55-.254 3.092-.44 4.539-.894 2.957-.693 5.604-1.986 8.066-3.306 4.834-2.867 8.484-6.707 11.007-10.574 2.541-3.866 3.959-7.733 4.861-10.96.372-1.626.776-3.106.892-4.346.175-1.254.372-2.28.383-3.307l.156-2.96-.003.133zm5.8.12l-.097 2.96c.012.934-.17 2.267-.352 3.787-.13 1.56-.54 3.213-.937 5.107-.96 3.733-2.511 8.24-5.408 12.866a39.863 39.863 0 0 1-12.947 12.827c-2.93 1.68-6.164 3.213-9.71 4.067-1.749.546-3.582.8-5.438 1.08-.925.186-1.87.16-2.816.226l-1.425.08-.718.027-.178.013h-.255l-.083-.013-.332-.013c-1.796-.147-3.469-.134-5.582-.534-.998-.186-2.056-.28-3.012-.546-.966-.254-1.927-.534-2.895-.814-3.8-1.293-7.596-2.946-10.99-5.36-6.873-4.64-12.585-11.4-16.04-19.36a47.607 47.607 0 0 1-3.174-12.653l-.187-3.293-.022-.414c-.002-.093-.011-.066-.007-.266l.003-.187.014-.773c.015-.534.004-1.014.051-1.587.105-2.293.401-4.387.756-6.533 1.556-8.534 4.775-16.627 9.252-23.854 4.465-7.2 10.33-13.626 17.69-17.826 1.831-1.054 3.789-1.894 5.773-2.6 2.018-.627 4.07-1.147 6.164-1.347.518-.08 1.044-.093 1.565-.107l.781-.026.391-.014h.316l.172.014c.932.053 1.77.053 2.921.226 2.179.254 4.046.787 5.939 1.454a33.185 33.185 0 0 1 9.696 5.773c2.74 2.333 5.052 4.88 7.05 7.467a68.47 68.47 0 0 1 8.726 15.266c1.973 4.854 3.215 9.254 3.996 12.934a59.913 59.913 0 0 1 1.221 8.693c.087 1.013.087 1.8.108 2.32l.024.813-.004.12z" fill="#231F20" fill-rule="nonzero"/>
        <path d="M118.37 108.28c35.106 0 45.106-16.333 45.106-52 0-28.72-23.779-52-53.11-52h-26.89c-44.183 0-80 35.813-80 80v40c0 22.093 17.908 40 40 40h-.056c22.092 0 40-17.907 40-40v-15.92l34.95-.08" fill="#FFF" fill-rule="nonzero"/>
        <path d="M118.37 108.28c35.106 0 45.106-16.333 45.106-52 0-28.72-23.779-52-53.11-52h-26.89c-44.183 0-80 35.813-80 80v40c0 22.093 17.908 40 40 40h-.056c22.092 0 40-17.907 40-40v-15.92l34.95-.08z" stroke="#231F20" stroke-width="6.667" stroke-linecap="round" stroke-linejoin="round"/>
        <path d="M105.81 51.173c0 11.654-10 21.107-22.334 21.107-12.335 0-22.333-9.453-22.333-21.107 0-11.666 9.998-21.106 22.333-21.106 12.335 0 22.333 9.44 22.333 21.106z" stroke="#231F20" stroke-width="5.333" stroke-linecap="round" stroke-linejoin="round"/>
        <path d="M91.592 51.173c0 4.24-3.633 7.667-8.116 7.667s-8.116-3.427-8.116-7.667 3.633-7.68 8.116-7.68 8.116 3.44 8.116 7.68" fill="#231F20" fill-rule="nonzero"/>
    </g>
</svg>
