<svg width="168" height="168" xmlns="http://www.w3.org/2000/svg">
    <title>
        kon
    </title>
    <g fill="none" fill-rule="evenodd">
        <path d="M4.147 141.533c0-22.48 35.64-29.88 79.826-29.88 44.187 0 80.187 10.054 80.187 30.4 0 13.747-12.36 22.227-27.827 22.227-17.333 0-28-9.027-28-22.787 0 12.667-8.666 20.814-24 20.814-16.666 0-24-8.147-24-20.814 0 13.76-11.666 22.787-28.333 22.787-15.467 0-27.853-9-27.853-22.747" fill="#FFF" fill-rule="nonzero"/>
        <path d="M7.48 141.533c0 2.88.68 5.667 2.013 8.134 1.32 2.48 3.294 4.626 5.667 6.32 2.36 1.706 5.12 2.96 8.027 3.773 1.466.413 2.96.707 4.48.907 1.533.186 3 .28 4.613.28 3.12.013 6.227-.32 9.187-1.067 2.96-.747 5.746-1.96 8.186-3.613 2.427-1.654 4.44-3.814 5.8-6.347 1.4-2.52 2.147-5.413 2.214-8.427v-.08a2.684 2.684 0 0 1 2.733-2.6c1.453.04 2.613 1.24 2.6 2.68v.014c.147 2.746.6 5.426 1.627 7.76.986 2.333 2.48 4.306 4.453 5.76 1.973 1.453 4.347 2.493 6.947 3.093 1.293.307 2.64.533 4 .667 1.426.12 2.626.186 4.213.186a42.25 42.25 0 0 0 4.08-.186c1.36-.147 2.68-.374 3.973-.707 2.574-.64 4.934-1.733 6.96-3.213 2-1.48 3.587-3.44 4.64-5.747 1.107-2.28 1.627-4.907 1.774-7.627H111v.014c.08 2.48.52 4.906 1.44 7.106a17.342 17.342 0 0 0 3.92 5.827c3.387 3.307 8.12 5.24 13.093 6.04 1.254.2 2.52.333 3.8.413.64.027 1.187.067 1.894.067h1.026l.92-.013c2.547-.067 5.067-.374 7.494-.974 4.84-1.16 9.306-3.586 12.32-7.106a16.296 16.296 0 0 0 3.226-6c.32-1.067.534-2.307.614-3.334.093-1.333.08-2.346-.08-3.453-.574-4.36-3.667-8.24-7.734-11.173-4.066-2.974-8.946-5.147-13.96-6.88-5.04-1.734-10.293-3.027-15.613-4.027-10.653-2-21.573-2.92-32.493-3.24-5.44-.16-10.96-.12-16.427.04-5.48.16-10.947.453-16.387.947-5.426.48-10.84 1.16-16.16 2.12-5.32.973-10.56 2.253-15.533 4.053-4.933 1.787-9.68 4.147-13.28 7.427-1.787 1.64-3.24 3.506-4.2 5.56a15.039 15.039 0 0 0-1.067 3.2c-.12.56-.2 1.12-.253 1.693l-.067.773-.013.96zm-6.667-.093l.027-1.027.107-1.293c.093-.8.213-1.613.386-2.413a22.065 22.065 0 0 1 1.587-4.627c1.413-2.947 3.48-5.493 5.773-7.56 4.667-4.147 10.107-6.667 15.52-8.6 5.454-1.92 11.014-3.2 16.574-4.187 5.573-.986 11.16-1.64 16.746-2.106 5.574-.467 11.16-.734 16.747-.867 5.587-.12 11.12-.16 16.733-.04 11.174.253 22.387 1.133 33.494 3.133 5.546 1.027 11.08 2.307 16.52 4.134 5.413 1.84 10.813 4.12 15.733 7.64 2.453 1.76 4.773 3.853 6.68 6.44 1.907 2.573 3.347 5.706 3.827 9.013.266 1.627.266 3.387.16 4.827-.12 1.72-.374 3.226-.827 4.813a23.054 23.054 0 0 1-4.52 8.52c-4.187 4.96-10.053 7.853-15.92 9.253a39.843 39.843 0 0 1-8.933 1.094c-.387 0-.707.013-1.16 0l-1.04-.027a45.215 45.215 0 0 1-2.24-.12c-1.48-.133-2.96-.32-4.44-.587-2.947-.546-5.894-1.426-8.68-2.746-2.787-1.347-5.414-3.134-7.6-5.44-2.2-2.294-3.934-5.054-4.974-8.027-1.08-2.973-1.466-6.107-1.426-9.133v-.014a2.648 2.648 0 0 1 2.493-2.813 2.658 2.658 0 0 1 2.827 2.48v.04l.013.293c.147 3.294-.32 6.734-1.6 9.987a20.883 20.883 0 0 1-6.24 8.4c-2.733 2.24-5.973 3.653-9.2 4.533-1.627.44-3.267.747-4.893.934-1.654.186-3.227.28-4.934.293a50.969 50.969 0 0 1-4.8-.28 37.176 37.176 0 0 1-4.88-.88c-3.226-.827-6.52-2.187-9.293-4.453-2.8-2.227-4.92-5.32-6.107-8.6-1.16-3.294-1.533-6.68-1.386-9.92v-.014H63c.093 3.747-.653 7.614-2.36 11.094-1.72 3.466-4.347 6.453-7.4 8.706-3.067 2.267-6.547 3.814-10.107 4.8-3.56.987-7.2 1.454-10.813 1.507a40.18 40.18 0 0 1-10.92-1.347c-3.587-.973-7.08-2.52-10.2-4.746-3.107-2.227-5.813-5.187-7.653-8.667-1.854-3.48-2.76-7.453-2.734-11.307v-.093z" fill="#231F20" fill-rule="nonzero"/>
        <path d="M161.48 99.627c0 17.453-15.16 31.6-37.16 31.6-22 0-39.84-14.147-39.84-31.6 0-17.467 17.84-33.734 39.84-33.734 22 0 37.16 16.267 37.16 33.734" fill="#FFF" fill-rule="nonzero"/>
        <path d="M158.147 99.627v-.574c-.014-.386 0-.946-.067-1.666-.08-1.467-.36-3.614-1.12-6.267-.76-2.64-2.08-5.8-4.36-9a30.86 30.86 0 0 0-9.747-8.787c-4.213-2.426-9.373-4.16-14.986-4.573-5.627-.427-11.667.28-17.414 2.44-5.733 2.12-11.186 5.667-15.373 10.413-2.08 2.374-3.867 5.014-5.16 7.867-1.267 2.84-2.08 5.96-2.293 8.907-.16 3.2.173 6.213 1.213 9.186a24.982 24.982 0 0 0 4.653 8.12 30.67 30.67 0 0 0 7.147 6.16c1.333.84 2.72 1.574 4.12 2.254 1.44.613 2.867 1.2 4.333 1.653 2.92.96 5.92 1.533 8.854 1.853 1.466.174 2.933.254 4.306.307h2.214c.706-.027 1.426-.027 2.12-.093 5.6-.307 10.773-1.614 15.066-3.707 4.307-2.08 7.72-4.867 10.187-7.733a26.46 26.46 0 0 0 4.88-8.414 26.1 26.1 0 0 0 1.307-6.08c.08-.64.093-1.293.106-1.72.014-.426.014-.64.014-.64v.094zm6.666.08s0 .226-.013.653c-.013.413-.013 1.013-.093 2.013-.16 1.894-.52 4.52-1.6 7.8a33.42 33.42 0 0 1-6.027 10.654c-3.04 3.653-7.307 7.013-12.493 9.453-5.174 2.467-11.267 3.92-17.68 4.213-.8.027-1.6.014-2.414.027-.8-.027-1.586-.053-2.386-.093-1.707-.107-3.374-.254-5.027-.534-3.32-.546-6.653-1.4-9.92-2.666a49.905 49.905 0 0 1-9.467-4.827c-2.986-2.013-5.84-4.36-8.306-7.173A41.858 41.858 0 0 1 86 114.72a32.389 32.389 0 0 1-2.6-5.12 27.9 27.9 0 0 1-1.587-5.613c-.2-.96-.28-1.934-.373-2.92l-.053-1.56.026-1.307c.054-.907.12-2.08.28-2.987.12-.973.334-1.92.547-2.88.467-1.893 1.147-3.706 1.933-5.466a36.334 36.334 0 0 1 6.294-9.414c5.053-5.506 11.426-9.413 18.04-11.693 6.613-2.32 13.48-2.96 19.813-2.387 6.4.614 12.293 2.547 17.187 5.334 4.866 2.826 8.786 6.346 11.64 9.986a35.959 35.959 0 0 1 5.826 10.494 32.402 32.402 0 0 1 1.667 7.653c.107.893.133 1.6.147 2.067.013.466.026.72.026.72v.08z" fill="#231F20" fill-rule="nonzero"/>
        <path d="M124.653 99.627c0 17.453-15.173 31.6-37.173 31.6s-39.827-14.147-39.827-31.6c0-17.467 17.827-41.134 39.827-41.134 22 0 37.173 23.667 37.173 41.134" fill="#FFF" fill-rule="nonzero"/>
        <path d="M121.747 99.627s-.04-.84-.107-2.4c-.093-1.56-.413-3.867-1.147-6.774-.813-2.88-2.026-6.36-4.093-10.053-2.093-3.627-4.867-7.587-8.747-10.96-.933-.88-2.026-1.587-3.066-2.413-1.08-.747-2.267-1.374-3.427-2.08-.613-.28-1.24-.56-1.867-.84-.626-.267-1.24-.614-1.906-.787-1.32-.36-2.68-.947-3.987-1.08-.653-.107-1.307-.253-1.96-.387-.747-.08-1.587-.106-2.387-.16l-1.2-.066-.306-.014-.16-.013h-.067c-.213-.013.2 0 .133 0l-.546.053c-.734.054-1.467.12-2.214.147-.746 0-1.48.173-2.213.32-.733.133-1.48.28-2.227.427-.733.226-1.466.466-2.2.706-.746.227-1.48.454-2.186.814-.72.32-1.44.653-2.16.973-.72.333-1.387.787-2.094 1.187-1.426.733-2.706 1.76-4.053 2.706-2.573 2.054-5.053 4.334-7.187 6.96-4.386 5.147-7.746 11.467-9.293 17.987l-.44 2.347c-.12.84-.133 1.8-.213 2.693l-.054.68v.093l.014.067.013.307.067 1.226.066 1.214.227 1.213c.56 3.2 1.747 6.32 3.627 9.027 1.826 2.72 4.12 5.12 6.653 7.186 2.653 1.934 5.493 3.547 8.453 4.76.747.294 1.52.534 2.267.8l1.12.387 1.147.293c.76.2 1.52.387 2.266.587.774.133 1.534.267 2.294.4 1.533.32 2.973.373 4.426.56.68.12 1.574.08 2.334.12.746.013 1.493.027 2.24.053 5.88-.026 11.333-1.186 15.973-3.106 1.187-.4 2.227-1.067 3.307-1.56 1.066-.574 2.013-1.24 2.986-1.827.88-.707 1.787-1.347 2.587-2.04.76-.76 1.573-1.413 2.227-2.173 2.706-2.96 4.453-6.04 5.413-8.734.307-.653.413-1.333.627-1.933.16-.613.373-1.187.44-1.707.093-.52.173-.986.253-1.44.053-.213.093-.426.133-.626.027-.214.027-.454.04-.667.12-1.707.174-2.613.174-2.613v.16zm5.8.146s-.04.92-.12 2.627c-.014.227 0 .44-.027.693-.04.267-.08.56-.133.854-.094.6-.187 1.266-.294 1.973-.08.72-.306 1.413-.506 2.173-.227.747-.374 1.587-.707 2.4-1.12 3.347-3.187 7.214-6.427 10.907-.786.947-1.746 1.773-2.653 2.707-.96.866-2.027 1.666-3.093 2.533-1.147.733-2.28 1.56-3.534 2.253-1.266.64-2.52 1.427-3.92 1.947-5.453 2.373-11.84 3.667-18.533 3.707h-.293l-.147-.014-.293-.013-.587-.027-1.2-.066c-.813-.067-1.533-.027-2.453-.174-1.747-.253-3.574-.386-5.254-.853-.853-.2-1.72-.4-2.573-.613-.853-.267-1.707-.534-2.56-.814l-1.28-.413-1.253-.52c-.84-.36-1.68-.68-2.507-1.067-3.293-1.6-6.507-3.493-9.467-5.866-2.933-2.374-5.613-5.187-7.786-8.454-2.2-3.24-3.707-7.026-4.48-10.973l-.28-1.48-.12-1.507-.107-1.52-.013-.373-.014-.093c0-.107-.013.093 0-.254l.014-.173.026-.68c.067-.933.08-1.8.187-2.773l.507-3.054c1.68-7.76 5.32-14.733 10.133-20.64 4.733-5.96 10.84-10.746 17.653-13.733.827-.413 1.707-.707 2.587-1 .88-.28 1.76-.573 2.627-.867.906-.173 1.813-.36 2.706-.546.894-.187 1.787-.374 2.694-.4.906-.054 1.813-.107 2.706-.174l.667-.026c-.013-.014.453.013.293 0l.08.013.147.013.307.014 1.2.093c.813.067 1.586.107 2.426.2.894.173 1.787.347 2.68.547 1.827.32 3.32 1.013 4.92 1.56.8.24 1.507.666 2.254 1.026.72.36 1.44.734 2.16 1.094 1.333.88 2.68 1.693 3.906 2.6 1.174.973 2.414 1.84 3.454 2.866 4.28 3.974 7.52 8.24 9.853 12.334 2.32 4.093 3.76 7.96 4.76 11.2.907 3.28 1.333 5.973 1.493 7.813.12 1.867.174 2.867.174 2.867v.146z" fill="#231F20" fill-rule="nonzero"/>
        <path d="M119.04 86.787c35.107 0 45.107-12.947 45.107-41.254 0-22.773-23.774-41.253-53.107-41.253H84.147c-44.187 0-80 28.413-80 63.48v31.733c0 17.52 17.906 31.734 40 31.734h-.054c22.094 0 40-14.214 40-31.734V86.867l34.947-.08" fill="#FFF" fill-rule="nonzero"/>
        <path d="M119.04 86.787c35.107 0 45.107-12.947 45.107-41.254 0-22.773-23.774-41.253-53.107-41.253H84.147c-44.187 0-80 28.413-80 63.48v31.733c0 17.52 17.906 31.734 40 31.734h-.054c22.094 0 40-14.214 40-31.734V86.867l34.947-.08z" stroke="#231F20" stroke-width="6.667" stroke-linecap="round" stroke-linejoin="round"/>
        <path d="M106.48 44.4c0 12.333-10 22.333-22.333 22.333-12.334 0-22.334-10-22.334-22.333 0-12.333 10-22.333 22.334-22.333 12.333 0 22.333 10 22.333 22.333z" stroke="#231F20" stroke-width="5.333" stroke-linecap="round" stroke-linejoin="round"/>
        <path d="M92.267 44.4c0 4.48-3.64 8.12-8.12 8.12-4.48 0-8.12-3.64-8.12-8.12 0-4.48 3.64-8.12 8.12-8.12 4.48 0 8.12 3.64 8.12 8.12" fill="#231F20" fill-rule="nonzero"/>
    </g>
</svg>
