<svg width="168" height="168" xmlns="http://www.w3.org/2000/svg">
    <title>
        ku
    </title>
    <g fill="none" fill-rule="evenodd">
        <path d="M161.141 124.453c0 22-15.165 39.827-37.165 39.827-21.999 0-39.833-17.827-39.833-39.827 0-22 17.834-42.506 39.833-42.506 22 0 37.165 20.506 37.165 42.506" fill="#FFF" fill-rule="nonzero"/>
        <path d="M157.808 124.453l-.005-.68c-.011-.44.016-1.093-.042-1.946-.058-1.707-.273-4.214-.909-7.347-.628-3.133-1.713-6.92-3.71-10.92-2.002-3.973-4.94-8.213-9.16-11.68-4.173-3.48-9.61-6.213-15.777-6.933-6.146-.814-12.873.293-18.922 3.373-6.074 3.04-11.442 8.013-15.302 14.053-1.929 3.027-3.529 6.294-4.648 9.747a43.341 43.341 0 0 0-2.032 10.573l-.05 1.467-.014.36c.004-.04.004.187.007.267l.01.68c-.011.893.062 1.8.105 2.706.161 1.8.417 3.587.817 5.347.83 3.52 2.119 6.933 3.964 10.027 3.624 6.2 9.176 11.12 15.36 13.96a36.169 36.169 0 0 0 9.507 2.933c1.593.28 3.234.44 4.717.52 1.712.053 3.2.04 4.756-.107 6.145-.426 11.697-2.52 16.045-5.533 4.382-3 7.578-6.827 9.818-10.547 2.245-3.733 3.505-7.386 4.26-10.453a39.905 39.905 0 0 0 1.102-7.213c.075-.774.066-1.56.086-2.014l.017-.72v.08zm6.665.067l-.012.72c-.017.493.004 1.12-.072 2.173a46.39 46.39 0 0 1-1.217 8.494c-.852 3.573-2.29 7.893-4.93 12.373a38.832 38.832 0 0 1-11.882 12.68c-5.315 3.627-12.124 6.107-19.421 6.533-1.799.12-3.726.08-5.459-.04-1.961-.146-3.797-.373-5.67-.786a42.46 42.46 0 0 1-10.9-3.974 46.735 46.735 0 0 1-9.713-6.92c-2.917-2.773-5.562-5.92-7.708-9.44a52.303 52.303 0 0 1-2.866-5.493 45.435 45.435 0 0 1-2.083-5.893c-.55-2.014-.937-4.08-1.21-6.174-.093-1.04-.227-2.093-.245-3.146l-.025-.787-.012-.48.005-.36.023-1.467c.1-2.16.29-4.28.675-6.333.401-2.053.904-4.093 1.585-6.067 1.323-3.96 3.143-7.746 5.444-11.16 4.556-6.853 10.82-12.44 17.952-15.84 7.115-3.44 15.013-4.586 22.193-3.546 7.22 1.013 13.614 4.186 18.444 8.186 4.839 4.04 8.348 8.68 10.804 13.12 2.495 4.427 3.947 8.654 4.842 12.187.9 3.533 1.178 6.413 1.321 8.36.09.987.087 1.733.112 2.24l.027.773-.002.067z" fill="#231F20" fill-rule="nonzero"/>
        <path d="M124.308 124.453c0 22-15.165 39.827-37.164 39.827-22 0-39.833-17.827-39.833-39.827 0-22 17.833-51.84 39.833-51.84 21.999 0 37.164 29.84 37.164 51.84" fill="#FFF" fill-rule="nonzero"/>
        <path d="M121.407 124.453l-.008-.72c-.011-.466.004-1.173-.058-2.08a54.3 54.3 0 0 0-.962-7.92 63.598 63.598 0 0 0-3.534-11.986c-1.845-4.454-4.281-9.414-7.977-13.987-3.619-4.56-8.547-8.827-14.516-10.84-1.46-.467-3.085-.893-4.532-1.027-.648-.12-1.645-.133-2.553-.16l-.174-.013h.047l-.076.013-.301.014-.604.026c-.403.027-.81.027-1.212.094-1.624.133-3.242.533-4.856 1.013-1.595.56-3.194 1.213-4.726 2.08-6.178 3.427-11.506 9.107-15.685 15.613-4.19 6.52-7.285 13.987-8.81 21.694-.342 1.906-.642 3.906-.749 5.746-.049.44-.048 1-.069 1.507l-.024.773-.007.187c0-.067.006.08.007.12l.017.36.124 2.867a38.455 38.455 0 0 0 2.712 11.08 40.425 40.425 0 0 0 5.915 9.546c2.437 2.814 5.31 5.147 8.357 7.04.779.44 1.555.894 2.328 1.334.81.36 1.615.72 2.416 1.08.786.4 1.623.653 2.447.92.83.253 1.62.613 2.467.773.836.187 1.669.373 2.488.573.822.227 1.604.254 2.397.387 1.47.307 3.41.28 5.152.373l.332.014h.083c.178.013-.15 0-.09 0l.152-.014.606-.026 1.204-.067c.796-.053 1.601-.013 2.37-.173 1.551-.254 3.092-.44 4.539-.894 2.957-.693 5.604-1.986 8.067-3.306 4.833-2.867 8.484-6.707 11.006-10.574 2.542-3.866 3.959-7.733 4.862-10.96.372-1.626.776-3.106.892-4.346.174-1.254.372-2.28.382-3.307l.156-2.96-.002.133zm5.8.12l-.098 2.96c.012.934-.169 2.267-.352 3.787-.13 1.56-.54 3.213-.937 5.107-.96 3.733-2.51 8.24-5.408 12.866a39.863 39.863 0 0 1-12.947 12.827c-2.93 1.68-6.164 3.213-9.71 4.067-1.748.546-3.582.8-5.438 1.08-.925.186-1.869.16-2.816.226l-1.425.08-.717.027-.179.013h-.255l-.082-.013-.332-.013c-1.796-.147-3.47-.134-5.583-.534-.997-.186-2.056-.28-3.012-.546-.965-.254-1.927-.534-2.895-.814-3.8-1.293-7.596-2.946-10.99-5.36-6.872-4.64-12.584-11.4-16.04-19.36a47.607 47.607 0 0 1-3.174-12.653l-.186-3.293-.023-.414c-.001-.093-.01-.066-.007-.266l.003-.187.015-.773c.014-.534.004-1.014.05-1.587.106-2.293.402-4.387.756-6.533 1.556-8.534 4.775-16.627 9.252-23.854 4.466-7.2 10.33-13.626 17.691-17.826 1.83-1.054 3.788-1.894 5.772-2.6 2.019-.627 4.07-1.147 6.164-1.347.519-.08 1.044-.093 1.565-.107l.783-.026.39-.014h.315l.172.014c.932.053 1.771.053 2.922.226 2.178.254 4.045.787 5.938 1.454a33.185 33.185 0 0 1 9.696 5.773c2.74 2.333 5.052 4.88 7.05 7.467a68.47 68.47 0 0 1 8.726 15.266c1.974 4.854 3.215 9.254 3.996 12.934a59.913 59.913 0 0 1 1.222 8.693c.086 1.013.086 1.8.108 2.32.014.533.024.813.024.813l-.004.12z" fill="#231F20" fill-rule="nonzero"/>
        <path d="M118.703 108.28c35.106 0 45.106-16.333 45.106-52 0-28.72-23.778-52-53.11-52h-26.89c-44.182 0-80 35.813-80 80v40c0 22.093 17.91 40 40 40h-.056c22.092 0 40-17.907 40-40v-15.92l34.95-.08" fill="#FFF" fill-rule="nonzero"/>
        <path d="M118.703 108.28c35.106 0 45.106-16.333 45.106-52 0-28.72-23.778-52-53.11-52h-26.89c-44.182 0-80 35.813-80 80v40c0 22.093 17.91 40 40 40h-.056c22.092 0 40-17.907 40-40v-15.92l34.95-.08z" stroke="#231F20" stroke-width="6.667" stroke-linecap="round" stroke-linejoin="round"/>
        <path d="M86.264 4.453l.545 45.414a3.01 3.01 0 0 1-2.964 3.04 3.006 3.006 0 0 1-3.036-2.974v-.066l.546-45.414a2.455 2.455 0 0 1 4.909 0" fill="#231F20" fill-rule="nonzero"/>
        <path d="M106.703 4.28l.338 23.547c.031 3.533.066 7.36.1 11.413.019 2.027.036 4.107.055 6.227l.019 3.226c-.018.707-.004 1.054-.064 1.8-.039.68-.124 1.294-.208 1.92-.752 4.987-3.247 9.894-7.134 13.52-3.848 3.64-9.08 5.96-14.474 6.294-5.376.373-10.883-1.24-15.171-4.36-4.317-3.094-7.441-7.627-8.827-12.48a21.979 21.979 0 0 1-.752-3.68c-.088-.614-.118-1.227-.156-1.84a41.761 41.761 0 0 1-.022-1.734l.05-6.226.107-11.4c.045-7.067.19-12.96.244-17.08.07-4.12.108-6.48.108-6.48a2.41 2.41 0 0 1 2.44-2.36 2.412 2.412 0 0 1 2.36 2.36l.108 6.48c.055 4.12.2 10.013.244 17.08l.107 11.4.05 6.226c-.002.56.014 1.014.027 1.467.033.467.055.933.125 1.387.115.92.304 1.853.579 2.746 1.053 3.627 3.417 7.014 6.663 9.307 3.224 2.333 7.302 3.48 11.332 3.2 4.022-.227 7.917-1.92 10.821-4.64a17.531 17.531 0 0 0 5.4-10.093c.061-.467.133-.947.157-1.36.047-.347.05-1.08.062-1.454l.018-3.226c.019-2.12.036-4.2.055-6.227l.1-11.413.339-23.547a2.394 2.394 0 0 1 2.434-2.36 2.394 2.394 0 0 1 2.366 2.36" fill="#231F20" fill-rule="nonzero"/>
    </g>
</svg>
