<svg width="167" height="168" xmlns="http://www.w3.org/2000/svg">
    <title>
        kun
    </title>
    <g fill="none" fill-rule="evenodd">
        <path d="M3.467 141.533c0-22.48 35.653-29.88 79.84-29.88 44.173 0 80.173 10.054 80.173 30.4 0 13.747-12.36 22.227-27.813 22.227-17.334 0-28-9.027-28-22.787 0 12.667-8.667 20.814-24 20.814-16.667 0-24-8.147-24-20.814 0 13.76-11.667 22.787-28.334 22.787-15.466 0-27.866-9-27.866-22.747" fill="#FFF" fill-rule="nonzero"/>
        <path d="M6.8 141.533c.013 2.88.693 5.667 2.027 8.134 1.32 2.48 3.293 4.626 5.666 6.32 2.36 1.706 5.107 2.96 8.027 3.773 1.453.413 2.96.707 4.48.907 1.52.186 2.987.28 4.6.28 3.133.013 6.227-.32 9.187-1.067 2.96-.747 5.76-1.96 8.186-3.613 2.427-1.654 4.44-3.814 5.814-6.347 1.4-2.52 2.133-5.413 2.213-8.427v-.08c.027-1.466 1.253-2.626 2.733-2.6 1.454.04 2.6 1.24 2.6 2.68v.014c.147 2.746.587 5.426 1.627 7.76.973 2.333 2.467 4.306 4.453 5.76 1.974 1.453 4.347 2.493 6.947 3.093 1.293.307 2.627.533 4 .667 1.413.12 2.627.186 4.213.186a42.63 42.63 0 0 0 4.08-.186 27.628 27.628 0 0 0 3.96-.707c2.574-.64 4.947-1.733 6.96-3.213 2.014-1.48 3.587-3.44 4.654-5.747 1.106-2.28 1.613-4.907 1.773-7.627h5.333v.014c.08 2.48.507 4.906 1.427 7.106s2.227 4.174 3.92 5.827c3.4 3.307 8.12 5.24 13.107 6.04 1.24.2 2.506.333 3.786.413.64.027 1.2.067 1.894.067h1.04l.92-.013c2.533-.067 5.066-.374 7.48-.974 4.853-1.16 9.306-3.586 12.32-7.106 1.506-1.76 2.6-3.8 3.24-6 .32-1.067.533-2.307.6-3.334.093-1.333.093-2.346-.067-3.453-.573-4.36-3.68-8.24-7.747-11.173-4.066-2.974-8.933-5.147-13.96-6.88-5.026-1.734-10.28-3.027-15.6-4.027-10.653-2-21.573-2.92-32.493-3.24-5.453-.16-10.973-.12-16.44.04-5.48.16-10.947.453-16.373.947-5.44.48-10.84 1.16-16.16 2.12-5.32.973-10.56 2.253-15.534 4.053-4.946 1.787-9.693 4.147-13.28 7.427-1.786 1.64-3.24 3.506-4.2 5.56a14.327 14.327 0 0 0-1.066 3.2c-.12.56-.2 1.12-.267 1.693l-.053.773-.027.96zm-6.667-.093l.04-1.027.094-1.293c.093-.8.213-1.613.386-2.413a22.14 22.14 0 0 1 1.6-4.627c1.414-2.947 3.467-5.493 5.774-7.56 4.653-4.147 10.093-6.667 15.52-8.6C29 114 34.56 112.72 40.12 111.733c5.56-.986 11.147-1.64 16.733-2.106 5.587-.467 11.174-.734 16.747-.867 5.587-.12 11.133-.16 16.747-.04 11.173.253 22.373 1.133 33.48 3.133 5.546 1.027 11.08 2.307 16.52 4.134 5.426 1.84 10.813 4.12 15.746 7.64 2.44 1.76 4.774 3.853 6.68 6.44 1.907 2.573 3.334 5.706 3.814 9.013.266 1.627.266 3.387.173 4.827a23.586 23.586 0 0 1-.827 4.813 23.084 23.084 0 0 1-4.533 8.52c-4.187 4.96-10.053 7.853-15.907 9.253a39.937 39.937 0 0 1-8.933 1.094c-.4 0-.72.013-1.16 0l-1.04-.027a45.732 45.732 0 0 1-2.253-.12c-1.48-.133-2.96-.32-4.44-.587-2.947-.546-5.88-1.426-8.68-2.746-2.774-1.347-5.4-3.134-7.6-5.44-2.187-2.294-3.92-5.054-4.974-8.027-1.066-2.973-1.466-6.107-1.413-9.133v-.014a2.64 2.64 0 0 1 2.493-2.813 2.638 2.638 0 0 1 2.814 2.48l.013.04.013.293c.147 3.294-.32 6.734-1.613 9.987a20.73 20.73 0 0 1-6.227 8.4c-2.733 2.24-5.973 3.653-9.213 4.533-1.613.44-3.253.747-4.893.934a46.3 46.3 0 0 1-4.92.293 50.969 50.969 0 0 1-4.8-.28 36.784 36.784 0 0 1-4.88-.88c-3.24-.827-6.534-2.187-9.294-4.453-2.8-2.227-4.933-5.32-6.106-8.6-1.174-3.294-1.534-6.68-1.387-9.92v-.014h5.333c.094 3.747-.666 7.614-2.373 11.094-1.707 3.466-4.333 6.453-7.4 8.706-3.067 2.267-6.547 3.814-10.093 4.8-3.56.987-7.2 1.454-10.827 1.507a39.789 39.789 0 0 1-10.907-1.347c-3.586-.973-7.08-2.52-10.2-4.746-3.106-2.227-5.813-5.187-7.653-8.667-1.853-3.48-2.773-7.453-2.747-11.307v-.093z" fill="#231F20" fill-rule="nonzero"/>
        <path d="M160.813 99.627c0 17.453-15.16 31.6-37.16 31.6-22 0-39.84-14.147-39.84-31.6 0-17.467 17.84-33.734 39.84-33.734 22 0 37.16 16.267 37.16 33.734" fill="#FFF" fill-rule="nonzero"/>
        <path d="M157.48 99.627v-.574c-.013-.386 0-.946-.067-1.666-.08-1.467-.36-3.614-1.12-6.267-.76-2.64-2.08-5.8-4.36-9a30.86 30.86 0 0 0-9.746-8.787c-4.214-2.426-9.374-4.16-14.987-4.573-5.627-.427-11.667.28-17.413 2.44-5.734 2.12-11.187 5.667-15.374 10.413-2.08 2.374-3.866 5.014-5.16 7.867-1.266 2.84-2.08 5.96-2.293 8.907-.16 3.2.173 6.213 1.213 9.186a24.982 24.982 0 0 0 4.654 8.12 30.67 30.67 0 0 0 7.146 6.16c1.334.84 2.72 1.574 4.12 2.254 1.44.613 2.867 1.2 4.334 1.653 2.92.96 5.92 1.533 8.853 1.853 1.467.174 2.933.254 4.307.307h2.213c.707-.027 1.427-.027 2.12-.093 5.6-.307 10.773-1.614 15.067-3.707 4.306-2.08 7.72-4.867 10.186-7.733a26.46 26.46 0 0 0 4.88-8.414 26.1 26.1 0 0 0 1.307-6.08c.08-.64.093-1.293.107-1.72.013-.426.013-.64.013-.64v.094zm6.667.08s0 .226-.014.653c-.013.413-.013 1.013-.093 2.013-.16 1.894-.52 4.52-1.6 7.8a33.42 33.42 0 0 1-6.027 10.654c-3.04 3.653-7.306 7.013-12.493 9.453-5.173 2.467-11.267 3.92-17.68 4.213-.8.027-1.6.014-2.413.027-.8-.027-1.587-.053-2.387-.093-1.707-.107-3.373-.254-5.027-.534-3.32-.546-6.653-1.4-9.92-2.666a49.905 49.905 0 0 1-9.466-4.827c-2.987-2.013-5.84-4.36-8.307-7.173a41.858 41.858 0 0 1-3.387-4.507 32.389 32.389 0 0 1-2.6-5.12c-.72-1.8-1.253-3.68-1.586-5.613-.2-.96-.28-1.934-.374-2.92l-.053-1.56.027-1.307c.053-.907.12-2.08.28-2.987.12-.973.333-1.92.546-2.88.467-1.893 1.147-3.706 1.934-5.466a36.334 36.334 0 0 1 6.293-9.414c5.053-5.506 11.427-9.413 18.04-11.693 6.613-2.32 13.48-2.96 19.813-2.387 6.4.614 12.294 2.547 17.187 5.334 4.867 2.826 8.787 6.346 11.64 9.986a35.959 35.959 0 0 1 5.827 10.494 32.402 32.402 0 0 1 1.666 7.653c.107.893.134 1.6.147 2.067.013.466.027.72.027.72v.08z" fill="#231F20" fill-rule="nonzero"/>
        <path d="M123.987 99.627c0 17.453-15.174 31.6-37.174 31.6s-39.826-14.147-39.826-31.6c0-17.467 17.826-41.134 39.826-41.134s37.174 23.667 37.174 41.134" fill="#FFF" fill-rule="nonzero"/>
        <path d="M121.08 99.627s-.04-.84-.107-2.4c-.093-1.56-.413-3.867-1.146-6.774-.814-2.88-2.027-6.36-4.094-10.053-2.093-3.627-4.866-7.587-8.746-10.96-.934-.88-2.027-1.587-3.067-2.413-1.08-.747-2.267-1.374-3.427-2.08-.613-.28-1.24-.56-1.866-.84-.627-.267-1.24-.614-1.907-.787-1.32-.36-2.68-.947-3.987-1.08-.653-.107-1.306-.253-1.96-.387-.746-.08-1.586-.106-2.386-.16l-1.2-.066-.307-.014-.16-.013h-.067c-.213-.013.2 0 .134 0l-.547.053c-.733.054-1.467.12-2.213.147-.747 0-1.48.173-2.214.32-.733.133-1.48.28-2.226.427-.734.226-1.467.466-2.2.706-.747.227-1.48.454-2.187.814-.72.32-1.44.653-2.16.973-.72.333-1.387.787-2.093 1.187-1.427.733-2.707 1.76-4.054 2.706-2.573 2.054-5.053 4.334-7.186 6.96C55.32 81.04 51.96 87.36 50.413 93.88l-.44 2.347c-.12.84-.133 1.8-.213 2.693l-.053.68v.093l.013.067.013.307.067 1.226.067 1.214.226 1.213c.56 3.2 1.747 6.32 3.627 9.027 1.827 2.72 4.12 5.12 6.653 7.186 2.654 1.934 5.494 3.547 8.454 4.76.746.294 1.52.534 2.266.8l1.12.387 1.147.293c.76.2 1.52.387 2.267.587.773.133 1.533.267 2.293.4 1.533.32 2.973.373 4.427.56.68.12 1.573.08 2.333.12.747.013 1.493.027 2.24.053 5.88-.026 11.333-1.186 15.973-3.106 1.187-.4 2.227-1.067 3.307-1.56 1.067-.574 2.013-1.24 2.987-1.827.88-.707 1.786-1.347 2.586-2.04.76-.76 1.574-1.413 2.227-2.173 2.707-2.96 4.453-6.04 5.413-8.734.307-.653.414-1.333.627-1.933.16-.613.373-1.187.44-1.707.093-.52.173-.986.253-1.44.054-.213.094-.426.134-.626.026-.214.026-.454.04-.667.12-1.707.173-2.613.173-2.613v.16zm5.8.146s-.04.92-.12 2.627c-.013.227 0 .44-.027.693-.04.267-.08.56-.133.854-.093.6-.187 1.266-.293 1.973-.08.72-.307 1.413-.507 2.173-.227.747-.373 1.587-.707 2.4-1.12 3.347-3.186 7.214-6.426 10.907-.787.947-1.747 1.773-2.654 2.707-.96.866-2.026 1.666-3.093 2.533-1.147.733-2.28 1.56-3.533 2.253-1.267.64-2.52 1.427-3.92 1.947-5.454 2.373-11.84 3.667-18.534 3.707h-.293l-.147-.014-.293-.013-.587-.027-1.2-.066c-.813-.067-1.533-.027-2.453-.174-1.747-.253-3.573-.386-5.253-.853-.854-.2-1.72-.4-2.574-.613-.853-.267-1.706-.534-2.56-.814l-1.28-.413-1.253-.52c-.84-.36-1.68-.68-2.507-1.067-3.293-1.6-6.506-3.493-9.466-5.866-2.934-2.374-5.614-5.187-7.787-8.454-2.2-3.24-3.707-7.026-4.48-10.973l-.28-1.48-.12-1.507-.107-1.52-.013-.373-.013-.093c0-.107-.014.093 0-.254l.013-.173.027-.68c.066-.933.08-1.8.186-2.773L45 92.773c1.68-7.76 5.32-14.733 10.133-20.64 4.734-5.96 10.84-10.746 17.654-13.733.826-.413 1.706-.707 2.586-1 .88-.28 1.76-.573 2.627-.867.907-.173 1.813-.36 2.707-.546.893-.187 1.786-.374 2.693-.4.907-.054 1.813-.107 2.707-.174l.666-.026c-.013-.014.454.013.294 0l.08.013.146.013.307.014 1.2.093c.813.067 1.587.107 2.427.2.893.173 1.786.347 2.68.547 1.826.32 3.32 1.013 4.92 1.56.8.24 1.506.666 2.253 1.026.72.36 1.44.734 2.16 1.094 1.333.88 2.68 1.693 3.907 2.6 1.173.973 2.413 1.84 3.453 2.866 4.28 3.974 7.52 8.24 9.853 12.334 2.32 4.093 3.76 7.96 4.76 11.2.907 3.28 1.334 5.973 1.494 7.813.12 1.867.173 2.867.173 2.867v.146z" fill="#231F20" fill-rule="nonzero"/>
        <path d="M118.373 86.787c35.107 0 45.107-12.947 45.107-41.254 0-22.773-23.773-41.253-53.107-41.253H83.48c-44.187 0-80 28.413-80 63.48v31.733c0 17.52 17.907 31.734 40 31.734h-.053c22.093 0 40-14.214 40-31.734V86.867l34.946-.08" fill="#FFF" fill-rule="nonzero"/>
        <path d="M118.373 86.787c35.107 0 45.107-12.947 45.107-41.254 0-22.773-23.773-41.253-53.107-41.253H83.48c-44.187 0-80 28.413-80 63.48v31.733c0 17.52 17.907 31.734 40 31.734h-.053c22.093 0 40-14.214 40-31.734V86.867l34.946-.08z" stroke="#231F20" stroke-width="6.667" stroke-linecap="round" stroke-linejoin="round"/>
        <path d="M85.933 4.44l.547 43.053c.027 1.654-1.307 3.014-2.96 3.04-1.653.027-3.013-1.306-3.04-2.96v-.08l.547-43.053a2.459 2.459 0 0 1 2.493-2.427 2.46 2.46 0 0 1 2.413 2.427" fill="#231F20" fill-rule="nonzero"/>
        <path d="M106.373 4.28s.134 9.04.347 22.587c.027 3.4.067 7.066.093 10.946.027 1.947.04 3.934.067 5.974 0 1.053.013 1.973 0 3.173 0 .467-.053 1.133-.107 1.787-.08.613-.146 1.213-.266 1.813-.894 4.84-3.627 9.44-7.52 12.707-3.894 3.306-8.934 5.293-14.067 5.586-5.12.32-10.36-1.066-14.613-3.853-4.267-2.773-7.547-6.947-9.094-11.613a21.06 21.06 0 0 1-1.133-7.067l.04-5.973c.04-3.88.08-7.56.12-10.947.04-6.773.187-12.427.24-16.373.067-3.96.107-6.214.107-6.214a2.4 2.4 0 1 1 4.8 0s.04 2.254.106 6.214c.067 3.946.2 9.6.254 16.373.026 3.387.066 7.067.106 10.947.014 1.933.027 3.933.054 5.973 0 1.773.266 3.48.84 5.187 1.16 3.373 3.573 6.453 6.786 8.52 3.2 2.066 7.134 3.08 11.04 2.84 3.894-.2 7.68-1.68 10.6-4.12 2.92-2.44 4.92-5.8 5.587-9.294.093-.44.147-.88.213-1.32.027-.4.08-.76.08-1.333.014-1.013.014-2.013.027-3.013.013-2.04.04-4.027.053-5.974.04-3.88.067-7.546.107-10.946l.333-22.587a2.399 2.399 0 0 1 2.44-2.36 2.39 2.39 0 0 1 2.36 2.36" fill="#231F20" fill-rule="nonzero"/>
    </g>
</svg>
