<svg width="87" height="168" xmlns="http://www.w3.org/2000/svg">
    <title>
        la
    </title>
    <g fill="none" fill-rule="evenodd">
        <path d="M43.476 3.947c-22.091 0-40 17.906-40 40 0 44.186 21.59 120 40 120s40-75.814 40-120c0-22.094-17.908-40-40-40" fill="#FFF" fill-rule="nonzero"/>
        <path d="M43.476 3.947c-22.091 0-40 17.906-40 40 0 44.186 21.59 120 40 120s40-75.814 40-120c0-22.094-17.908-40-40-40z" stroke="#231F20" stroke-width="6.667"/>
        <path d="M44.641 123.267s-.479.066-1.317.186c-.831.107-2.01.24-3.43.36-2.837.227-6.64.36-10.48.12-.96-.066-1.92-.173-2.868-.253-.947-.147-1.88-.253-2.783-.427-.902-.186-1.778-.333-2.603-.546-.824-.24-1.606-.44-2.324-.667-.713-.253-1.367-.507-1.946-.72-.584-.187-1.067-.48-1.478-.667-.815-.4-1.28-.626-1.28-.626a2.66 2.66 0 0 1-1.22-3.56 2.655 2.655 0 0 1 3.567-1.227l.084.04.257.147s.357.186.982.52c.322.16.667.413 1.148.586.468.2.996.427 1.573.667.605.2 1.26.427 1.954.653.701.214 1.474.387 2.256.587.794.187 1.633.32 2.477.493.86.107 1.73.254 2.611.347 3.526.387 7.129.427 9.82.333 1.346-.053 2.468-.12 3.243-.2.767-.066 1.205-.12 1.205-.12h.078a1.995 1.995 0 0 1 2.182 1.8 2.012 2.012 0 0 1-1.708 2.174m3.055 18.026s-.42.067-1.16.174c-.73.106-1.765.213-3.011.333-2.493.2-5.833.333-9.212.133-.844-.053-1.692-.146-2.526-.226-.834-.12-1.657-.214-2.454-.36-.797-.174-1.569-.294-2.3-.48-.729-.214-1.419-.4-2.056-.574-.632-.24-1.212-.453-1.726-.64-.518-.173-.948-.426-1.314-.586-.724-.36-1.138-.56-1.138-.56a2.66 2.66 0 0 1-1.23-3.56 2.668 2.668 0 0 1 3.567-1.24c.033.026.066.04.098.053l.252.147s.306.16.84.453c.277.133.57.347.985.507.403.173.857.373 1.353.586.522.174 1.088.36 1.687.56.606.187 1.274.334 1.952.52.688.16 1.417.28 2.15.427.746.107 1.502.227 2.267.32 3.065.347 6.205.387 8.552.32a60.685 60.685 0 0 0 2.826-.173c.666-.054 1.047-.094 1.047-.094h.079a1.996 1.996 0 0 1 .472 3.96m1.792-80.546c.34 4.4-2.798 8.24-7.008 8.56-4.21.32-7.896-2.987-8.235-7.387-.34-4.4 2.798-8.24 7.007-8.56 4.21-.333 7.896 2.987 8.236 7.387" fill="#231F20" fill-rule="nonzero"/>
        <path d="M62.731 59.547c-.315-.347-.614-.72-.934-1.054a46.333 46.333 0 0 0-2.48-2.426c-1.71-1.56-3.511-3-5.415-4.24-1.897-1.24-3.895-2.28-5.952-2.987-1.028-.36-2.069-.653-3.113-.8-.515-.107-1.057-.147-1.551-.187l-.71-.04c-.25 0-.594.027-.885.027-.984.053-2.074.187-3.093.453-1.032.267-2.058.6-3.055 1.054-2.003.866-3.91 2.08-5.702 3.466a41.268 41.268 0 0 0-5.018 4.72 48.883 48.883 0 0 0-2.238 2.654c-.7.906-1.417 1.893-1.981 2.773l-.029-2.48a39.76 39.76 0 0 0 2.103 2.8 50.33 50.33 0 0 0 2.36 2.68c1.64 1.72 3.402 3.307 5.28 4.667 1.882 1.346 3.886 2.466 5.965 3.173 1.036.36 2.092.587 3.145.72.548.08 1.01.08 1.481.107l.926-.04.234-.014h.088c.095-.013-.111 0-.086 0h.013l.099-.013.396-.053c4.253-.507 8.365-2.934 11.93-5.947 1.795-1.52 3.475-3.213 5.054-5 .79-.907 1.55-1.827 2.281-2.773.307-.4.588-.827.887-1.24zm5.638 1.293a48.012 48.012 0 0 1-2.356 3.2 62.114 62.114 0 0 1-2.523 3c-1.749 1.947-3.617 3.787-5.66 5.48-2.041 1.693-4.25 3.24-6.696 4.48-2.432 1.24-5.126 2.187-7.991 2.493l-.536.054-.134.013-.22.013h-.234l-.949.027c-.777-.013-1.567-.053-2.257-.16-1.426-.187-2.825-.507-4.143-1-2.654-.933-5.038-2.32-7.2-3.907-2.158-1.6-4.106-3.4-5.895-5.32a50.438 50.438 0 0 1-2.564-2.986c-.824-1.04-1.578-2.027-2.359-3.227a2.302 2.302 0 0 1-.028-2.48c.737-1.173 1.45-2.16 2.23-3.2.773-1.013 1.58-2 2.426-2.96a45.634 45.634 0 0 1 5.56-5.333c2.031-1.627 4.25-3.08 6.703-4.187 1.218-.56 2.509-1 3.832-1.347 1.335-.36 2.67-.573 4.116-.653.316-.013.58-.04.94-.04l1.115.027c.718.053 1.396.106 2.077.226 1.367.187 2.687.547 3.965.974 2.558.853 4.92 2.066 7.112 3.453 2.2 1.4 4.225 2.987 6.138 4.693a53.923 53.923 0 0 1 2.769 2.654c.903.933 1.733 1.813 2.621 2.906.742.907.77 2.16.151 3.094l-.01.013z" fill="#231F20" fill-rule="nonzero"/>
        <path d="M10.69 18.293s1.175-.213 3.229-.6c1.044-.16 2.22-.48 3.802-.546.77-.054 1.59-.12 2.454-.174.862-.053 1.782-.186 2.711-.106.936.04 1.91.066 2.92.106.504.027 1.017.04 1.539.067.519.053 1.041.147 1.574.227 1.065.16 2.158.333 3.276.506 1.11.214 2.214.587 3.353.88.568.147 1.141.307 1.718.467.57.187 1.119.44 1.686.653 1.119.467 2.28.88 3.399 1.414 1.09.586 2.189 1.186 3.291 1.773.565.28 1.085.64 1.597 1l1.552 1.067 1.55 1.08 1.428 1.226c.924.84 1.951 1.574 2.774 2.507.85.893 1.693 1.787 2.526 2.667.784.92 1.49 1.893 2.219 2.813.755.907 1.372 1.893 1.968 2.853.587.96 1.239 1.867 1.73 2.827.959 1.933 1.983 3.707 2.61 5.48.348.88.682 1.72 1 2.507.289.813.491 1.6.72 2.333.44 1.453.84 2.733 1.014 3.827.434 2.146.681 3.386.681 3.386a2.663 2.663 0 0 1-2.086 3.134 2.66 2.66 0 0 1-3.144-2.107l-.047-.253-.563-3.067c-.134-.973-.48-2.133-.854-3.453-.195-.667-.36-1.387-.61-2.12-.275-.72-.564-1.48-.866-2.267-.53-1.627-1.439-3.227-2.266-5-.426-.867-1.006-1.693-1.518-2.573-.521-.88-1.06-1.774-1.73-2.6-.644-.84-1.26-1.734-1.951-2.574-.736-.8-1.48-1.613-2.23-2.44-.722-.853-1.638-1.506-2.452-2.28l-1.26-1.133-1.374-.987-1.374-.986c-.452-.334-.911-.667-1.414-.92a636.09 636.09 0 0 1-2.92-1.64c-.995-.494-2.03-.88-3.026-1.32-.505-.2-.991-.44-1.501-.614a374.54 374.54 0 0 1-1.538-.44c-1.02-.28-2.005-.64-3.005-.853-1.007-.173-1.993-.333-2.953-.507-.481-.08-.952-.173-1.422-.24a46.55 46.55 0 0 1-1.4-.066 590.1 590.1 0 0 1-2.658-.16c-.86-.094-1.65.026-2.417.053-.764.04-1.489.08-2.17.12-1.335 0-2.633.32-3.652.453-2.06.347-3.238.534-3.238.534a1.997 1.997 0 0 1-2.299-1.64 2.006 2.006 0 0 1 1.618-2.294" fill="#231F20" fill-rule="nonzero"/>
    </g>
</svg>
