<svg width="100" height="168" xmlns="http://www.w3.org/2000/svg">
    <title>
        lan
    </title>
    <g fill="none" fill-rule="evenodd">
        <path d="M96.107 149.16c0 8.16-6.859 14.787-15.319 14.787-8.461 0-15.32-6.627-15.32-14.787 0 8.16-6.859 13.733-15.319 13.733-8.461 0-15.32-5.573-15.32-13.733 0 8.16-6.858 14.787-15.318 14.787-8.462 0-15.32-6.627-15.32-14.787l.573-7.907c0-22.466 20.312-29.88 45.484-29.88 25.173 0 45.683 10.054 45.683 30.4l.176 7.387" fill="#FFF" fill-rule="nonzero"/>
        <path d="M92.633 150.413l-.016-1.173-.116-8.133a23.878 23.878 0 0 0-1.121-6.974 21.515 21.515 0 0 0-3.253-6.24c-1.418-1.92-3.202-3.6-5.159-5.12-3.94-3.013-8.707-5.146-13.696-6.573-4.985-1.467-10.267-2.133-15.508-2.387-5.296-.24-10.657 0-15.87.707-2.609.36-5.182.88-7.69 1.547-2.504.68-4.947 1.506-7.243 2.56-4.605 2.08-8.589 5.133-11.18 9.026-2.556 3.92-3.669 8.667-3.604 13.6l-.004.174-.005.08-.497 7.893.008-.24c.045 2.987 1.285 5.907 3.505 8a12.271 12.271 0 0 0 3.804 2.507c.71.293 1.448.533 2.205.68.376.08.772.146 1.14.186l.52.054.658.026c3.126.107 6.277-.973 8.738-3.013a12.988 12.988 0 0 0 3.06-3.707c.818-1.426 1.29-3.04 1.519-4.733l.061-.453A1.994 1.994 0 0 1 35.121 147a1.999 1.999 0 0 1 1.71 2.16h-.002c.223 1.653.688 3.187 1.458 4.533.75 1.347 1.792 2.494 3.006 3.427 1.232.907 2.626 1.64 4.14 2.08.754.227 1.526.413 2.318.52.389.067.804.107 1.182.133l.564.027.656.013c3.227.014 6.408-.933 8.856-2.786 1.215-.934 2.255-2.08 3.004-3.427.77-1.333 1.232-2.88 1.455-4.52l.06-.453a1.982 1.982 0 0 1 2.23-1.694 1.981 1.981 0 0 1 1.711 2.147h-.001c.207 1.693.679 3.32 1.485 4.747a12.087 12.087 0 0 0 3.06 3.733c1.251 1.013 2.646 1.813 4.148 2.307.747.24 1.511.44 2.287.546.383.054.787.094 1.159.107l.526.027.658-.014a12.74 12.74 0 0 0 8.316-3.453 11.46 11.46 0 0 0 2.601-3.653c.319-.68.568-1.387.743-2.12.074-.32.132-.654.182-.974zm6.703-8.773l.104 7.6.01.747-.045.986a19.059 19.059 0 0 1-.246 1.814 18.016 18.016 0 0 1-1.051 3.52 18.4 18.4 0 0 1-4.165 5.946c-1.75 1.68-3.862 2.96-6.108 3.827-2.255.853-4.668 1.24-7.043 1.2l-.821-.04-.948-.093a24.56 24.56 0 0 1-1.767-.294 18.685 18.685 0 0 1-3.387-1.08c-2.166-.96-4.161-2.293-5.772-4a17.355 17.355 0 0 1-3.71-5.866c-.776-2.187-1.126-4.507-.919-6.747h4.001c.223 2.173-.094 4.467-.934 6.613a14.924 14.924 0 0 1-3.95 5.587c-1.701 1.56-3.738 2.667-5.856 3.427-2.13.746-4.365 1.08-6.574 1.106l-.78-.026-.871-.054a22.319 22.319 0 0 1-1.667-.2c-1.1-.186-2.196-.44-3.258-.826-2.118-.747-4.156-1.867-5.859-3.414a14.993 14.993 0 0 1-3.952-5.6c-.841-2.133-1.161-4.426-.939-6.613h-.001 4.003c.23 2.24-.116 4.573-.88 6.76-.8 2.173-2.072 4.2-3.71 5.88-1.622 1.707-3.622 3.053-5.797 4a18.764 18.764 0 0 1-6.933 1.48l-.822-.013-.954-.04a25.768 25.768 0 0 1-1.788-.227 19.661 19.661 0 0 1-3.467-.96c-2.245-.853-4.352-2.133-6.115-3.8a18.27 18.27 0 0 1-4.197-5.933 17.242 17.242 0 0 1-1.465-7.147v-.067c0-.066.004-.133.009-.186l.647-7.894-.01.24c.027-2.96.375-5.973 1.208-8.92a27.655 27.655 0 0 1 3.958-8.306c1.789-2.52 4.014-4.68 6.457-6.427 2.443-1.76 5.09-3.093 7.785-4.16 5.404-2.12 10.996-3.173 16.543-3.76 5.56-.587 11.077-.733 16.623-.587 5.593.174 11.144.88 16.654 2.187 5.479 1.347 10.928 3.387 15.823 6.72 2.435 1.653 4.725 3.64 6.645 6 1.924 2.36 3.504 5.053 4.583 7.947 1.056 2.893 1.575 5.96 1.684 8.986l.024.707z" fill="#231F20" fill-rule="nonzero"/>
        <path d="M50.26 3.947c-22.09 0-40 14.413-40 32.2 0 35.56 21.59 96.6 40 96.6s40-61.04 40-96.6c0-17.787-17.908-32.2-40-32.2" fill="#FFF" fill-rule="nonzero"/>
        <path d="M50.26 3.947c-22.09 0-40 14.413-40 32.2 0 35.56 21.59 96.6 40 96.6s40-61.04 40-96.6c0-17.787-17.908-32.2-40-32.2z" stroke="#231F20" stroke-width="6.667"/>
        <path d="M51.372 100.387s-1.903.253-4.69.453c-2.803.2-6.554.333-10.338.16a67.144 67.144 0 0 1-5.575-.507 91.63 91.63 0 0 1-2.577-.413c-.82-.187-1.596-.36-2.312-.52-.715-.2-1.37-.4-1.952-.56-.583-.16-1.083-.387-1.499-.547-.829-.32-1.302-.506-1.302-.506a2.664 2.664 0 0 1-1.514-3.454 2.654 2.654 0 0 1 3.455-1.506c.03.013.061.013.09.04l.235.093s.374.173 1.028.453c.334.134.707.347 1.202.494.484.173 1.029.36 1.625.56.62.173 1.292.346 2.001.533.73.16 1.499.32 2.294.493 1.613.28 3.356.52 5.124.68 3.533.334 7.124.374 9.812.307 2.705-.067 4.448-.227 4.448-.227a1.991 1.991 0 0 1 2.172 1.814 2.007 2.007 0 0 1-1.727 2.16m3.056 14.52s-1.675.226-4.119.413c-2.461.187-5.752.307-9.078.16a57.492 57.492 0 0 1-4.907-.427c-.788-.12-1.55-.24-2.273-.36-.724-.16-1.41-.306-2.042-.44-.633-.186-1.214-.36-1.729-.506-.515-.134-.96-.347-1.33-.467a84.68 84.68 0 0 0-1.157-.453 2.667 2.667 0 1 1 1.93-4.973l.108.04.229.106s.321.147.881.387c.288.12.606.306 1.034.44.417.133.888.306 1.401.48.537.146 1.119.306 1.733.466.632.147 1.299.28 1.988.44 1.4.24 2.916.467 4.455.614 3.076.293 6.21.346 8.553.293a65.28 65.28 0 0 0 3.876-.187 1.993 1.993 0 0 1 2.167 1.814 2.01 2.01 0 0 1-1.72 2.16" fill="#231F20" fill-rule="nonzero"/>
        <path d="M50.15 3.947c-22.093 0-40 14.413-40 32.2 0 35.56 21.59 96.6 40 96.6 18.409 0 40-61.04 40-96.6 0-17.787-17.91-32.2-40-32.2" fill="#FFF" fill-rule="nonzero"/>
        <path d="M50.15 3.947c-22.093 0-40 14.413-40 32.2 0 35.56 21.59 96.6 40 96.6 18.409 0 40-61.04 40-96.6 0-17.787-17.91-32.2-40-32.2z" stroke="#231F20" stroke-width="6.667"/>
        <path d="M51.261 100.387s-1.902.253-4.689.453c-2.804.2-6.555.333-10.339.16a67.092 67.092 0 0 1-5.574-.507 91.63 91.63 0 0 1-2.578-.413c-.821-.187-1.596-.36-2.312-.52-.716-.2-1.37-.4-1.952-.56-.584-.16-1.082-.387-1.498-.547-.83-.32-1.303-.506-1.303-.506a2.665 2.665 0 0 1-1.515-3.454 2.654 2.654 0 0 1 3.455-1.506c.03.013.061.013.092.04l.235.093s.373.173 1.026.453c.335.134.707.347 1.203.494.484.173 1.03.36 1.625.56.62.173 1.291.346 2.002.533.729.16 1.497.32 2.293.493 1.612.28 3.356.52 5.123.68 3.533.334 7.125.374 9.812.307 2.705-.067 4.448-.227 4.448-.227a1.993 1.993 0 0 1 2.173 1.814 2.007 2.007 0 0 1-1.727 2.16m3.055 14.52s-1.673.226-4.117.413c-2.462.187-5.754.307-9.079.16a57.492 57.492 0 0 1-4.907-.427c-.789-.12-1.55-.24-2.273-.36-.724-.16-1.41-.306-2.043-.44-.633-.186-1.213-.36-1.728-.506-.516-.134-.961-.347-1.329-.467-.737-.293-1.157-.453-1.157-.453a2.667 2.667 0 1 1 1.93-4.973l.106.04.23.106s.32.147.882.387c.286.12.605.306 1.033.44.417.133.888.306 1.401.48.536.146 1.118.306 1.732.466.632.147 1.299.28 1.99.44 1.4.24 2.916.467 4.454.614 3.076.293 6.208.346 8.552.293 2.363-.053 3.878-.187 3.878-.187 1.1-.106 2.07.72 2.166 1.814a2.01 2.01 0 0 1-1.721 2.16m1.845-64.974c.339 4.014-2.798 7.507-7.008 7.8-4.209.294-7.896-2.72-8.236-6.733-.338-4.013 2.799-7.507 7.008-7.8 4.21-.307 7.896 2.707 8.236 6.733" fill="#231F20" fill-rule="nonzero"/>
        <path d="M69.27 48.867c-.26-.267-.503-.547-.763-.787a51.46 51.46 0 0 0-2.516-2.24c-1.731-1.427-3.548-2.747-5.451-3.867-1.9-1.12-3.885-2.053-5.919-2.693-1.017-.307-2.044-.573-3.073-.72-.51-.093-1.039-.12-1.536-.16-.468-.013-.913-.053-1.555-.013-2.03.053-4.116.52-6.096 1.293-1.99.76-3.904 1.827-5.709 3.093a38.496 38.496 0 0 0-5.099 4.307 46.83 46.83 0 0 0-2.293 2.48 34.69 34.69 0 0 0-2.036 2.573l-.03-2.64a37.16 37.16 0 0 0 2.147 2.6c.77.854 1.575 1.68 2.406 2.48a37.086 37.086 0 0 0 5.33 4.24c1.888 1.214 3.879 2.214 5.932 2.814 1.024.333 2.064.533 3.102.64.538.066.996.066 1.468.093l.894-.027.228-.013.114-.013h.028c.025 0-.163.013-.078.013h.012l.048-.013.391-.04c4.183-.44 8.261-2.56 11.86-5.32 1.812-1.374 3.515-2.934 5.127-4.587a51.013 51.013 0 0 0 2.329-2.56c.255-.307.488-.627.739-.933zm5.707 1.373a50.402 50.402 0 0 1-2.434 3.013 59.42 59.42 0 0 1-2.591 2.787c-1.792 1.8-3.695 3.507-5.763 5.04-2.062 1.533-4.282 2.92-6.698 4.013-2.408 1.094-5.031 1.907-7.779 2.147l-.515.053-.214.014h-.114l-.228.013-.921.013c-.74-.013-1.495-.04-2.16-.133a21.095 21.095 0 0 1-4.003-.867c-2.588-.8-4.953-2.04-7.129-3.466a42.028 42.028 0 0 1-5.977-4.88 53.933 53.933 0 0 1-2.631-2.76c-.848-.987-1.624-1.92-2.439-3.04a2.317 2.317 0 0 1-.03-2.654 41.517 41.517 0 0 1 2.317-3.026 53.139 53.139 0 0 1 2.505-2.76 42.83 42.83 0 0 1 5.682-4.92c4.082-2.934 9.002-5.2 14.421-5.454.543-.04 1.28-.013 1.995 0 .681.054 1.34.094 1.996.2 1.318.174 2.597.48 3.846.854 2.496.746 4.834 1.826 7.024 3.08 2.196 1.253 4.243 2.706 6.182 4.266a52.91 52.91 0 0 1 2.817 2.454c.923.866 1.77 1.693 2.688 2.72.84.933.879 2.306.163 3.28l-.01.013z" fill="#231F20" fill-rule="nonzero"/>
        <path d="M17.383 15.253s1.096-.2 3.014-.533c.982-.133 2.075-.427 3.51-.533 1.414-.12 3.009-.267 4.75-.427 1.73 0 3.606-.053 5.591.013.993.08 2.013.174 3.057.267.522.04 1.048.093 1.58.133.528.107 1.062.2 1.599.307 1.073.2 2.172.373 3.27.627 1.085.32 2.183.64 3.29.96 1.124.28 2.173.813 3.265 1.24l1.628.666c.539.24 1.044.547 1.567.827 1.021.587 2.11 1.067 3.07 1.747.969.666 1.933 1.346 2.89 2 1.777 1.506 3.559 2.96 5.01 4.653.378.4.754.8 1.126 1.2.363.4.667.853.997 1.267.638.853 1.295 1.666 1.871 2.506 1.036 1.734 2.15 3.32 2.86 4.934.39.786.763 1.546 1.117 2.266.327.734.575 1.454.84 2.12.52 1.334.975 2.494 1.223 3.494l.895 3.08a2.667 2.667 0 0 1-1.82 3.306 2.659 2.659 0 0 1-3.311-1.853l-.06-.227s-.275-1.013-.757-2.8c-.203-.906-.598-1.946-1.042-3.146-.226-.6-.433-1.254-.713-1.92-.305-.654-.627-1.334-.961-2.04-.6-1.467-1.574-2.867-2.456-4.44-.496-.747-1.067-1.467-1.614-2.227-.285-.387-.542-.787-.857-1.147-.321-.36-.647-.72-.973-1.08-1.247-1.52-2.798-2.813-4.331-4.173-.833-.6-1.673-1.2-2.516-1.813-.832-.627-1.795-1.054-2.687-1.6-.458-.24-.897-.534-1.372-.747l-1.441-.627c-.968-.386-1.887-.906-2.896-1.16-.99-.306-1.972-.613-2.941-.92-.99-.24-1.987-.413-2.956-.626-.487-.107-.97-.2-1.448-.294-.487-.053-.97-.106-1.447-.16-.956-.106-1.89-.2-2.801-.306-1.832-.094-3.578-.054-5.184-.107-1.587.12-3.042.227-4.331.307a13.45 13.45 0 0 0-1.845.226c-.58.08-1.112.16-1.594.24-1.924.294-3.024.467-3.024.467a2.01 2.01 0 0 1-2.281-1.68 1.995 1.995 0 0 1 1.639-2.267" fill="#231F20" fill-rule="nonzero"/>
    </g>
</svg>
