<svg width="88" height="168" xmlns="http://www.w3.org/2000/svg">
    <title>
        le
    </title>
    <g fill="none" fill-rule="evenodd">
        <path d="M43.81 3.947c-22.093 0-40 17.906-40 40 0 44.186 21.59 120 40 120 18.409 0 40-75.814 40-120 0-22.094-17.909-40-40-40" fill="#FFF" fill-rule="nonzero"/>
        <path d="M43.81 3.947c-22.093 0-40 17.906-40 40 0 44.186 21.59 120 40 120 18.409 0 40-75.814 40-120 0-22.094-17.909-40-40-40z" stroke="#231F20" stroke-width="6.667"/>
        <path d="M44.975 123.267s-.48.066-1.318.186c-.83.107-2.01.24-3.429.36-2.839.227-6.641.36-10.48.12-.96-.066-1.921-.173-2.868-.253-.948-.147-1.881-.253-2.784-.427-.901-.186-1.777-.333-2.603-.546-.824-.24-1.606-.44-2.324-.667-.713-.253-1.366-.507-1.946-.72-.584-.187-1.067-.48-1.478-.667-.814-.4-1.28-.626-1.28-.626a2.66 2.66 0 0 1-1.22-3.56 2.654 2.654 0 0 1 3.567-1.227l.084.04.257.147s.358.186.982.52c.322.16.668.413 1.149.586.468.2.996.427 1.572.667.605.2 1.26.427 1.953.653.703.214 1.475.387 2.258.587.793.187 1.633.32 2.477.493.86.107 1.73.254 2.61.347 3.526.387 7.129.427 9.82.333 1.346-.053 2.469-.12 3.243-.2.767-.066 1.206-.12 1.206-.12h.077a1.995 1.995 0 0 1 2.183 1.8 2.012 2.012 0 0 1-1.708 2.174m3.055 18.026s-.422.067-1.16.174c-.73.106-1.766.213-3.013.333-2.492.2-5.832.333-9.21.133-.844-.053-1.692-.146-2.526-.226-.836-.12-1.658-.214-2.454-.36-.798-.174-1.57-.294-2.3-.48-.73-.214-1.42-.4-2.056-.574a128.59 128.59 0 0 0-1.727-.64c-.517-.173-.948-.426-1.313-.586-.724-.36-1.139-.56-1.139-.56a2.66 2.66 0 0 1-1.228-3.56 2.667 2.667 0 0 1 3.565-1.24c.034.026.066.04.098.053l.253.147s.305.16.84.453c.277.133.57.347.984.507.403.173.857.373 1.353.586.523.174 1.088.36 1.687.56.605.187 1.275.334 1.952.52.688.16 1.417.28 2.15.427.746.107 1.502.227 2.267.32 3.066.347 6.206.387 8.552.32a60.595 60.595 0 0 0 2.826-.173c.666-.054 1.046-.094 1.046-.094h.08a1.994 1.994 0 0 1 .472 3.96m-1.442-118.68s.18 2.814.313 7.027c.045 2.12.152 4.573.17 7.213l.071 8.254-.073 8.266c-.023 2.64-.124 5.094-.17 7.214-.051 2.106-.16 3.866-.203 5.093l-.108 1.933a2.788 2.788 0 0 1-2.932 2.627 2.784 2.784 0 0 1-2.623-2.627l-.108-1.933c-.044-1.227-.152-2.987-.203-5.093-.046-2.12-.148-4.574-.17-7.214l-.074-8.266c.024-2.8.05-5.614.072-8.254.018-2.64.124-5.093.17-7.213.133-4.213.313-7.027.313-7.027a2.786 2.786 0 0 1 2.955-2.6 2.788 2.788 0 0 1 2.6 2.6" fill="#231F20" fill-rule="nonzero"/>
        <path d="M21.699 42.333s.69-.04 1.9-.106c1.209-.04 2.936-.147 5.009-.2 2.073-.054 4.492-.147 7.083-.174 2.59-.026 5.354-.053 8.118-.066 2.764.013 5.528.04 8.119.066 2.59.014 5.01.12 7.083.174a251.7 251.7 0 0 1 6.909.306 2.79 2.79 0 0 1 2.597 2.96 2.79 2.79 0 0 1-2.597 2.6s-2.764.174-6.91.307c-2.073.053-4.491.16-7.082.173-2.59.027-5.355.054-8.119.067-2.764-.013-5.528-.04-8.118-.067-2.591-.026-5.01-.12-7.083-.173-2.073-.053-3.8-.16-5.01-.2-1.209-.067-1.9-.107-1.9-.107a2.785 2.785 0 0 1-2.62-2.933 2.792 2.792 0 0 1 2.62-2.627" fill="#231F20" fill-rule="nonzero"/>
    </g>
</svg>
