<svg width="99" height="168" xmlns="http://www.w3.org/2000/svg">
    <title>
        len
    </title>
    <g fill="none" fill-rule="evenodd">
        <path d="M95.44 149.16c0 8.16-6.853 14.787-15.32 14.787-8.453 0-15.32-6.627-15.32-14.787 0 8.16-6.853 13.733-15.32 13.733-8.453 0-15.32-5.573-15.32-13.733 0 8.16-6.853 14.787-15.316 14.787-8.461 0-15.32-6.627-15.32-14.787l.573-7.907c0-22.466 20.316-29.88 45.49-29.88 25.173 0 45.68 10.054 45.68 30.4l.173 7.387" fill="#FFF" fill-rule="nonzero"/>
        <path d="M91.973 150.413l-.026-1.173-.107-8.133a23.921 23.921 0 0 0-1.12-6.974 21.946 21.946 0 0 0-3.253-6.24c-1.427-1.92-3.214-3.6-5.16-5.12-3.947-3.013-8.707-5.146-13.707-6.573-4.987-1.467-10.267-2.133-15.507-2.387-5.293-.24-10.653 0-15.866.707a63.87 63.87 0 0 0-7.694 1.547c-2.506.68-4.946 1.506-7.24 2.56-4.604 2.08-8.588 5.133-11.178 9.026-2.556 3.92-3.67 8.667-3.604 13.6l-.004.174-.006.08-.497 7.893.008-.24c.045 2.987 1.285 5.907 3.505 8a12.271 12.271 0 0 0 3.804 2.507c.71.293 1.448.533 2.206.68.376.08.772.146 1.14.186l.52.054.657.026c3.13.107 6.276-.973 8.743-3.013 1.213-1.027 2.28-2.28 3.053-3.707.813-1.426 1.293-3.04 1.52-4.733l.067-.453A1.991 1.991 0 0 1 34.453 147a2.002 2.002 0 0 1 1.707 2.16c.227 1.653.693 3.187 1.467 4.533.746 1.347 1.786 2.494 3 3.427 1.226.907 2.626 1.64 4.133 2.08.76.227 1.533.413 2.32.52.4.067.813.107 1.187.133l.56.027.653.013c3.24.014 6.413-.933 8.867-2.786 1.213-.934 2.253-2.08 3-3.427.773-1.333 1.226-2.88 1.453-4.52l.067-.453a1.981 1.981 0 0 1 2.226-1.694c1.054.134 1.8 1.094 1.707 2.147.213 1.693.68 3.32 1.493 4.747a12.048 12.048 0 0 0 3.054 3.733c1.253 1.013 2.64 1.813 4.146 2.307.747.24 1.507.44 2.294.546.373.054.786.094 1.146.107l.534.027.653-.014a12.746 12.746 0 0 0 8.32-3.453c1.107-1.04 2-2.293 2.6-3.653.32-.68.573-1.387.747-2.12.066-.32.133-.654.186-.974zm6.694-8.773l.106 7.6.014.747-.054.986a20.428 20.428 0 0 1-.24 1.814 18.116 18.116 0 0 1-1.053 3.52 18.569 18.569 0 0 1-4.16 5.946c-1.747 1.68-3.867 2.96-6.107 3.827a19.11 19.11 0 0 1-7.053 1.2l-.813-.04-.947-.093a24.585 24.585 0 0 1-1.773-.294 18.887 18.887 0 0 1-3.387-1.08c-2.16-.96-4.16-2.293-5.773-4-1.614-1.693-2.894-3.693-3.707-5.866-.773-2.187-1.12-4.507-.92-6.747h4c.227 2.173-.093 4.467-.933 6.613a14.888 14.888 0 0 1-3.947 5.587c-1.707 1.56-3.747 2.667-5.853 3.427-2.134.746-4.374 1.08-6.574 1.106l-.786-.026-.867-.054a21.905 21.905 0 0 1-1.667-.2c-1.106-.186-2.2-.44-3.266-.826-2.107-.747-4.147-1.867-5.854-3.414a14.935 14.935 0 0 1-3.946-5.6 14.36 14.36 0 0 1-.947-6.613h4c.24 2.24-.107 4.573-.88 6.76-.8 2.173-2.067 4.2-3.707 5.88-1.626 1.707-3.626 3.053-5.8 4-2.173.933-4.56 1.427-6.929 1.48l-.821-.013-.955-.04A25.768 25.768 0 0 1 15.28 167a19.661 19.661 0 0 1-3.467-.96c-2.245-.853-4.352-2.133-6.114-3.8a18.27 18.27 0 0 1-4.198-5.933 17.242 17.242 0 0 1-1.465-7.147v-.067c0-.066.004-.133.008-.186l.648-7.894-.01.24c.027-2.96.375-5.973 1.209-8.92a27.655 27.655 0 0 1 3.957-8.306c1.79-2.52 4.015-4.68 6.457-6.427 2.443-1.76 5.091-3.093 7.788-4.16 5.4-2.12 11-3.173 16.534-3.76 5.56-.587 11.08-.733 16.626-.587 5.6.174 11.147.88 16.654 2.187 5.48 1.347 10.933 3.387 15.826 6.72 2.44 1.653 4.72 3.64 6.64 6a28.092 28.092 0 0 1 4.587 7.947c1.053 2.893 1.573 5.96 1.68 8.986l.027.707z" fill="#231F20" fill-rule="nonzero"/>
        <path d="M49.6 3.947c-22.093 0-40.007 14.413-40.007 32.2 0 35.56 21.594 96.6 40.007 96.6 18.4 0 40-61.04 40-96.6 0-17.787-17.92-32.2-40-32.2" fill="#FFF" fill-rule="nonzero"/>
        <path d="M49.6 3.947c-22.093 0-40.007 14.413-40.007 32.2 0 35.56 21.594 96.6 40.007 96.6 18.4 0 40-61.04 40-96.6 0-17.787-17.92-32.2-40-32.2z" stroke="#231F20" stroke-width="6.667"/>
        <path d="M50.707 100.387s-1.907.253-4.694.453c-2.8.2-6.546.333-10.333.16a67.059 67.059 0 0 1-5.573-.507 96.538 96.538 0 0 1-2.587-.413c-.813-.187-1.587-.36-2.307-.52-.72-.2-1.373-.4-1.946-.56-.587-.16-1.094-.387-1.507-.547l-1.307-.506a2.666 2.666 0 0 1-1.506-3.454 2.65 2.65 0 0 1 3.453-1.506c.027.013.067.013.093.04l.24.093s.374.173 1.027.453c.333.134.707.347 1.2.494.48.173 1.027.36 1.627.56.613.173 1.28.346 2 .533.72.16 1.493.32 2.293.493 1.613.28 3.347.52 5.12.68 3.533.334 7.12.374 9.813.307 2.707-.067 4.44-.227 4.44-.227a1.986 1.986 0 0 1 2.174 1.814c.106 1.066-.667 2.013-1.72 2.16m3.053 14.52s-1.68.226-4.12.413a78.474 78.474 0 0 1-9.08.16 57.874 57.874 0 0 1-4.907-.427c-.786-.12-1.546-.24-2.266-.36-.734-.16-1.414-.306-2.04-.44-.64-.186-1.214-.36-1.734-.506-.52-.134-.96-.347-1.333-.467-.733-.293-1.16-.453-1.16-.453a2.668 2.668 0 0 1 1.933-4.974c.04.014.08.027.107.04l.24.107s.32.147.88.387c.28.12.6.306 1.027.44.413.133.893.306 1.4.48.533.146 1.12.306 1.733.466.64.147 1.307.28 1.987.44 1.4.24 2.92.467 4.453.614 3.08.293 6.213.346 8.56.293a65.71 65.71 0 0 0 3.88-.187c1.093-.106 2.067.72 2.16 1.814a2.015 2.015 0 0 1-1.72 2.16" fill="#231F20" fill-rule="nonzero"/>
        <path d="M49.48 3.947c-22.093 0-39.997 14.413-39.997 32.2 0 35.56 21.584 96.6 39.997 96.6s40-61.04 40-96.6c0-17.787-17.907-32.2-40-32.2" fill="#FFF" fill-rule="nonzero"/>
        <path d="M49.48 3.947c-22.093 0-39.997 14.413-39.997 32.2 0 35.56 21.584 96.6 39.997 96.6s40-61.04 40-96.6c0-17.787-17.907-32.2-40-32.2z" stroke="#231F20" stroke-width="6.667"/>
        <path d="M50.6 100.387s-1.907.253-4.693.453c-2.8.2-6.56.333-10.334.16a67.386 67.386 0 0 1-5.586-.507 95.363 95.363 0 0 1-2.574-.413c-.813-.187-1.6-.36-2.306-.52-.72-.2-1.374-.4-1.96-.56-.574-.16-1.08-.387-1.494-.547l-1.306-.506a2.665 2.665 0 0 1-1.512-3.454 2.659 2.659 0 0 1 3.458-1.506c.027.013.054.013.094.04l.226.093s.374.173 1.027.453c.333.134.707.347 1.2.494.493.173 1.04.36 1.627.56.626.173 1.293.346 2 .533.733.16 1.506.32 2.293.493 1.613.28 3.36.52 5.133.68 3.534.334 7.12.374 9.814.307 2.693-.067 4.44-.227 4.44-.227a1.986 1.986 0 0 1 2.173 1.814 2.015 2.015 0 0 1-1.72 2.16m3.053 14.52s-1.68.226-4.12.413c-2.466.187-5.76.307-9.08.16a57.397 57.397 0 0 1-4.906-.427c-.787-.12-1.547-.24-2.267-.36-.733-.16-1.413-.306-2.053-.44-.627-.186-1.214-.36-1.72-.506-.52-.134-.96-.347-1.334-.467-.733-.293-1.16-.453-1.16-.453a2.668 2.668 0 0 1 1.934-4.974c.04.014.066.027.106.04l.227.107s.32.147.88.387c.293.12.613.306 1.04.44.413.133.88.306 1.4.48.533.146 1.12.306 1.733.466.627.147 1.294.28 1.987.44 1.4.24 2.92.467 4.453.614 3.08.293 6.214.346 8.56.293a64.75 64.75 0 0 0 3.867-.187 1.995 1.995 0 0 1 2.173 1.814 2.015 2.015 0 0 1-1.72 2.16m-1.386-94.6s.173 2.813.306 7.026c.04 2.12.147 4.574.174 7.214.013 2.64.04 5.453.066 8.266-.026 2.814-.053 5.614-.066 8.254-.027 2.64-.134 5.093-.174 7.213-.053 2.107-.16 3.867-.2 5.093a75.968 75.968 0 0 0-.106 1.934 2.795 2.795 0 0 1-2.934 2.626 2.782 2.782 0 0 1-2.626-2.626l-.107-1.934c-.053-1.226-.16-2.986-.2-5.093-.053-2.12-.16-4.573-.173-7.213-.027-2.64-.054-5.44-.08-8.254.026-2.813.053-5.626.08-8.266.013-2.64.12-5.094.16-7.214.133-4.213.32-7.026.32-7.026a2.777 2.777 0 0 1 2.946-2.6 2.798 2.798 0 0 1 2.614 2.6" fill="#231F20" fill-rule="nonzero"/>
        <path d="M27.373 40.027l1.894-.107c1.213-.04 2.946-.147 5.013-.2 2.08-.053 4.493-.147 7.08-.173 2.6-.027 5.36-.054 8.12-.067 2.76.013 5.533.04 8.12.067 2.587.013 5.013.12 7.08.173 4.147.133 6.907.307 6.907.307a2.779 2.779 0 0 1 2.6 2.96 2.785 2.785 0 0 1-2.6 2.6s-2.76.173-6.907.306c-2.067.054-4.493.16-7.08.174-2.587.026-5.36.053-8.12.066-2.76-.013-5.52-.04-8.12-.066-2.587-.027-5-.12-7.08-.174-2.067-.053-3.8-.16-5.013-.2-1.2-.066-1.894-.106-1.894-.106a2.795 2.795 0 0 1-2.626-2.934 2.793 2.793 0 0 1 2.626-2.626" fill="#231F20" fill-rule="nonzero"/>
    </g>
</svg>
