<svg width="88" height="168" xmlns="http://www.w3.org/2000/svg">
    <title>
        li
    </title>
    <g fill="none" fill-rule="evenodd">
        <path d="M44.143 3.947c-22.092 0-40 17.906-40 40 0 44.186 21.59 120 40 120 18.409 0 40-75.814 40-120 0-22.094-17.908-40-40-40" fill="#FFF" fill-rule="nonzero"/>
        <path d="M44.143 3.947c-22.092 0-40 17.906-40 40 0 44.186 21.59 120 40 120 18.409 0 40-75.814 40-120 0-22.094-17.908-40-40-40z" stroke="#231F20" stroke-width="6.667"/>
        <path d="M45.308 123.267s-.48.066-1.317.186c-.831.107-2.011.24-3.43.36-2.838.227-6.641.36-10.48.12-.96-.066-1.921-.173-2.868-.253-.948-.147-1.881-.253-2.784-.427-.901-.186-1.777-.333-2.602-.546-.824-.24-1.607-.44-2.324-.667-.714-.253-1.367-.507-1.947-.72-.584-.187-1.067-.48-1.477-.667-.815-.4-1.28-.626-1.28-.626a2.66 2.66 0 0 1-1.22-3.56 2.653 2.653 0 0 1 3.566-1.227l.084.04.258.147s.357.186.981.52c.323.16.668.413 1.15.586.467.2.995.427 1.571.667.606.2 1.26.427 1.954.653.702.214 1.474.387 2.257.587.793.187 1.633.32 2.477.493.86.107 1.731.254 2.611.347 3.525.387 7.128.427 9.82.333 1.345-.053 2.468-.12 3.243-.2.766-.066 1.205-.12 1.205-.12h.077a1.995 1.995 0 0 1 2.183 1.8 2.012 2.012 0 0 1-1.708 2.174m3.055 18.026s-.422.067-1.159.174c-.73.106-1.767.213-3.013.333-2.492.2-5.832.333-9.211.133-.844-.053-1.692-.146-2.525-.226-.836-.12-1.659-.214-2.455-.36-.797-.174-1.57-.294-2.3-.48-.73-.214-1.42-.4-2.056-.574a128.59 128.59 0 0 0-1.727-.64c-.517-.173-.948-.426-1.313-.586-.724-.36-1.139-.56-1.139-.56a2.66 2.66 0 0 1-1.228-3.56 2.667 2.667 0 0 1 3.566-1.24c.033.026.065.04.097.053l.253.147s.306.16.84.453c.276.133.571.347.984.507.403.173.858.373 1.354.586.522.174 1.088.36 1.686.56.606.187 1.275.334 1.952.52.688.16 1.418.28 2.15.427.746.107 1.502.227 2.268.32 3.065.347 6.205.387 8.552.32a60.537 60.537 0 0 0 2.825-.173 48.533 48.533 0 0 0 1.047-.094h.08a1.994 1.994 0 0 1 .472 3.96M4.365 48.28l58-.333a3.337 3.337 0 0 1 3.352 3.32 3.33 3.33 0 0 1-3.314 3.346h-.038l-58-.333a3 3 0 0 1 0-6m37.634 14.427A6.497 6.497 0 0 1 48.5 69.2c0 3.587-2.91 6.507-6.501 6.507-3.59 0-6.5-2.92-6.5-6.507a6.497 6.497 0 0 1 6.5-6.493m0-35.854A6.5 6.5 0 0 1 48.5 33.36a6.497 6.497 0 0 1-6.501 6.493c-3.59 0-6.5-2.906-6.5-6.493a6.5 6.5 0 0 1 6.5-6.507" fill="#231F20" fill-rule="nonzero"/>
    </g>
</svg>
