<svg width="100" height="168" xmlns="http://www.w3.org/2000/svg">
    <title>
        lin
    </title>
    <g fill="none" fill-rule="evenodd">
        <path d="M95.773 149.16c0 8.16-6.853 14.787-15.32 14.787-8.453 0-15.32-6.627-15.32-14.787 0 8.16-6.853 13.733-15.32 13.733-8.453 0-15.32-5.573-15.32-13.733 0 8.16-6.853 14.787-15.32 14.787-8.453 0-15.32-6.627-15.32-14.787l.574-7.907c0-22.466 20.32-29.88 45.493-29.88 25.173 0 45.68 10.054 45.68 30.4l.173 7.387" fill="#FFF" fill-rule="nonzero"/>
        <path d="M92.307 150.413l-.027-1.173-.107-8.133a23.921 23.921 0 0 0-1.12-6.974 21.946 21.946 0 0 0-3.253-6.24c-1.427-1.92-3.213-3.6-5.16-5.12-3.947-3.013-8.707-5.146-13.707-6.573-4.986-1.467-10.266-2.133-15.506-2.387-5.294-.24-10.654 0-15.867.707a63.87 63.87 0 0 0-7.693 1.547c-2.507.68-4.947 1.506-7.24 2.56-4.6 2.08-8.587 5.133-11.174 9.026-2.56 3.92-3.68 8.667-3.613 13.6v.254l-.507 7.893.014-.24a11.213 11.213 0 0 0 3.506 8 12.16 12.16 0 0 0 3.8 2.507c.707.293 1.454.533 2.214.68.373.08.76.146 1.133.186l.52.054.653.026c3.134.107 6.28-.973 8.747-3.013 1.213-1.027 2.28-2.28 3.053-3.707.814-1.426 1.294-3.04 1.52-4.733l.067-.453A1.991 1.991 0 0 1 34.787 147a2.002 2.002 0 0 1 1.706 2.16c.227 1.653.694 3.187 1.467 4.533.747 1.347 1.787 2.494 3 3.427 1.227.907 2.627 1.64 4.133 2.08.76.227 1.534.413 2.32.52.4.067.814.107 1.187.133l.56.027.653.013c3.24.014 6.414-.933 8.867-2.786 1.213-.934 2.253-2.08 3-3.427.773-1.333 1.227-2.88 1.453-4.52l.067-.453a1.981 1.981 0 0 1 2.227-1.694c1.053.134 1.8 1.094 1.706 2.147.214 1.693.68 3.32 1.494 4.747a12.048 12.048 0 0 0 3.053 3.733c1.253 1.013 2.64 1.813 4.147 2.307.746.24 1.506.44 2.293.546.373.054.787.094 1.147.107l.533.027.653-.014a12.746 12.746 0 0 0 8.32-3.453c1.107-1.04 2-2.293 2.6-3.653.32-.68.574-1.387.747-2.12.067-.32.133-.654.187-.974zM99 141.64l.107 7.6.013.747-.053.986a20.428 20.428 0 0 1-.24 1.814 18.116 18.116 0 0 1-1.054 3.52 18.569 18.569 0 0 1-4.16 5.946c-1.746 1.68-3.866 2.96-6.106 3.827a19.11 19.11 0 0 1-7.054 1.2l-.813-.04-.947-.093a24.585 24.585 0 0 1-1.773-.294 18.887 18.887 0 0 1-3.387-1.08c-2.16-.96-4.16-2.293-5.773-4-1.613-1.693-2.893-3.693-3.707-5.866-.773-2.187-1.12-4.507-.92-6.747h4c.227 2.173-.093 4.467-.933 6.613a14.888 14.888 0 0 1-3.947 5.587c-1.706 1.56-3.746 2.667-5.853 3.427-2.133.746-4.373 1.08-6.573 1.106l-.787-.026-.867-.054a21.905 21.905 0 0 1-1.666-.2c-1.107-.186-2.2-.44-3.267-.826-2.107-.747-4.147-1.867-5.853-3.414a14.935 14.935 0 0 1-3.947-5.6 14.36 14.36 0 0 1-.947-6.613h4c.24 2.24-.106 4.573-.88 6.76-.8 2.173-2.066 4.2-3.706 5.88-1.627 1.707-3.627 3.053-5.8 4-2.174.933-4.56 1.427-6.934 1.48l-.813-.013-.96-.04a26.148 26.148 0 0 1-1.787-.227 19.661 19.661 0 0 1-3.466-.96c-2.24-.853-4.347-2.133-6.12-3.8a18.3 18.3 0 0 1-4.187-5.933 17.16 17.16 0 0 1-1.467-7.147v-.253l.654-7.894-.014.24c.027-2.96.374-5.973 1.214-8.92.84-2.933 2.173-5.786 3.96-8.306 1.786-2.52 4.013-4.68 6.453-6.427 2.44-1.76 5.093-3.093 7.787-4.16 5.4-2.12 11-3.173 16.533-3.76 5.56-.587 11.08-.733 16.627-.587 5.6.174 11.146.88 16.653 2.187 5.48 1.347 10.933 3.387 15.827 6.72 2.44 1.653 4.72 3.64 6.64 6a28.092 28.092 0 0 1 4.586 7.947c1.054 2.893 1.574 5.96 1.68 8.986l.027.707z" fill="#231F20" fill-rule="nonzero"/>
        <path d="M49.933 3.947c-22.093 0-40 14.413-40 32.2 0 35.56 21.587 96.6 40 96.6 18.4 0 40-61.04 40-96.6 0-17.787-17.92-32.2-40-32.2" fill="#FFF" fill-rule="nonzero"/>
        <path d="M49.933 3.947c-22.093 0-40 14.413-40 32.2 0 35.56 21.587 96.6 40 96.6 18.4 0 40-61.04 40-96.6 0-17.787-17.92-32.2-40-32.2z" stroke="#231F20" stroke-width="6.667"/>
        <path d="M51.04 100.387s-1.907.253-4.693.453c-2.8.2-6.547.333-10.334.16a67.059 67.059 0 0 1-5.573-.507 96.538 96.538 0 0 1-2.587-.413c-.813-.187-1.586-.36-2.306-.52-.72-.2-1.374-.4-1.947-.56-.587-.16-1.093-.387-1.507-.547l-1.306-.506a2.673 2.673 0 0 1-1.507-3.454 2.65 2.65 0 0 1 3.453-1.506c.027.013.067.013.094.04l.24.093s.373.173 1.026.453c.334.134.707.347 1.2.494.48.173 1.027.36 1.627.56.613.173 1.28.346 2 .533.72.16 1.493.32 2.293.493 1.614.28 3.347.52 5.12.68 3.534.334 7.12.374 9.814.307 2.706-.067 4.44-.227 4.44-.227a1.986 1.986 0 0 1 2.173 1.814c.107 1.066-.667 2.013-1.72 2.16m3.053 14.52s-1.68.226-4.12.413a78.474 78.474 0 0 1-9.08.16 57.874 57.874 0 0 1-4.906-.427c-.787-.12-1.547-.24-2.267-.36-.733-.16-1.413-.306-2.04-.44-.64-.186-1.213-.36-1.733-.506-.52-.134-.96-.347-1.334-.467a63.7 63.7 0 0 0-1.16-.453 2.668 2.668 0 0 1 1.934-4.974c.04.014.08.027.106.04l.24.107s.32.147.88.387c.28.12.6.306 1.027.44.413.133.893.306 1.4.48.533.146 1.12.306 1.733.466.64.147 1.307.28 1.987.44 1.4.24 2.92.467 4.453.614 3.08.293 6.214.346 8.56.293a65.71 65.71 0 0 0 3.88-.187c1.094-.106 2.067.72 2.16 1.814a2.015 2.015 0 0 1-1.72 2.16" fill="#231F20" fill-rule="nonzero"/>
        <path d="M49.813 3.947c-22.093 0-40 14.413-40 32.2 0 35.56 21.587 96.6 40 96.6 18.414 0 40-61.04 40-96.6 0-17.787-17.906-32.2-40-32.2" fill="#FFF" fill-rule="nonzero"/>
        <path d="M49.813 3.947c-22.093 0-40 14.413-40 32.2 0 35.56 21.587 96.6 40 96.6 18.414 0 40-61.04 40-96.6 0-17.787-17.906-32.2-40-32.2z" stroke="#231F20" stroke-width="6.667"/>
        <path d="M50.933 100.387s-1.906.253-4.693.453c-2.8.2-6.56.333-10.333.16a67.386 67.386 0 0 1-5.587-.507 95.363 95.363 0 0 1-2.573-.413c-.814-.187-1.6-.36-2.307-.52-.72-.2-1.373-.4-1.96-.56-.573-.16-1.08-.387-1.493-.547l-1.307-.506a2.65 2.65 0 0 1-1.507-3.454 2.65 2.65 0 0 1 3.454-1.506c.026.013.053.013.093.04l.227.093s.373.173 1.026.453c.334.134.707.347 1.2.494.494.173 1.04.36 1.627.56.627.173 1.293.346 2 .533.733.16 1.507.32 2.293.493 1.614.28 3.36.52 5.134.68 3.533.334 7.12.374 9.813.307 2.693-.067 4.44-.227 4.44-.227a1.986 1.986 0 0 1 2.173 1.814 2.015 2.015 0 0 1-1.72 2.16m3.054 14.52s-1.68.226-4.12.413c-2.467.187-5.76.307-9.08.16a57.397 57.397 0 0 1-4.907-.427c-.787-.12-1.547-.24-2.267-.36-.733-.16-1.413-.306-2.053-.44-.627-.186-1.213-.36-1.72-.506-.52-.134-.96-.347-1.333-.467a67.488 67.488 0 0 0-1.16-.453 2.668 2.668 0 0 1 1.933-4.974c.04.014.067.027.107.04l.226.107s.32.147.88.387c.294.12.614.306 1.04.44.414.133.88.306 1.4.48.534.146 1.12.306 1.734.466.626.147 1.293.28 1.986.44 1.4.24 2.92.467 4.454.614 3.08.293 6.213.346 8.56.293a64.676 64.676 0 0 0 3.866-.187 1.995 1.995 0 0 1 2.174 1.814 2.015 2.015 0 0 1-1.72 2.16M10.04 41.72l58-.333a3.323 3.323 0 0 1 3.347 3.306 3.335 3.335 0 0 1-3.307 3.36h-.04l-58-.333a3.007 3.007 0 0 1-2.987-3.027 3.005 3.005 0 0 1 2.987-2.973m37.627 14.413a6.507 6.507 0 0 1 0 13.014c-3.587 0-6.494-2.92-6.494-6.507 0-3.587 2.907-6.507 6.494-6.507m0-35.84c3.6 0 6.506 2.907 6.506 6.507a6.496 6.496 0 0 1-6.506 6.493 6.493 6.493 0 0 1-6.494-6.493c0-3.6 2.907-6.507 6.494-6.507" fill="#231F20" fill-rule="nonzero"/>
    </g>
</svg>
