<svg width="87" height="168" xmlns="http://www.w3.org/2000/svg">
    <title>
        lo
    </title>
    <g fill="none" fill-rule="evenodd">
        <path d="M43.476 3.947c-22.09 0-40 17.906-40 40 0 44.186 21.59 120 40 120s40-75.814 40-120c0-22.094-17.908-40-40-40" fill="#FFF" fill-rule="nonzero"/>
        <path d="M43.476 3.947c-22.09 0-40 17.906-40 40 0 44.186 21.59 120 40 120s40-75.814 40-120c0-22.094-17.908-40-40-40z" stroke="#231F20" stroke-width="6.667"/>
        <path d="M44.641 123.267s-.48.066-1.317.186c-.83.107-2.01.24-3.43.36-2.838.227-6.64.36-10.48.12-.96-.066-1.92-.173-2.867-.253-.948-.147-1.882-.253-2.784-.427-.902-.186-1.778-.333-2.603-.546-.824-.24-1.607-.44-2.324-.667-.713-.253-1.367-.507-1.947-.72-.584-.187-1.066-.48-1.477-.667-.815-.4-1.28-.626-1.28-.626a2.66 2.66 0 0 1-1.22-3.56 2.653 2.653 0 0 1 3.567-1.227l.084.04.257.147s.357.186.981.52c.323.16.668.413 1.15.586.468.2.996.427 1.572.667.605.2 1.26.427 1.953.653.703.214 1.475.387 2.257.587.794.187 1.634.32 2.478.493.86.107 1.73.254 2.61.347 3.526.387 7.128.427 9.82.333 1.346-.053 2.468-.12 3.243-.2.767-.066 1.205-.12 1.205-.12h.078a1.995 1.995 0 0 1 2.182 1.8 2.012 2.012 0 0 1-1.708 2.174m3.055 18.026s-.421.067-1.159.174c-.73.106-1.766.213-3.013.333-2.492.2-5.832.333-9.21.133-.845-.053-1.693-.146-2.526-.226-.836-.12-1.659-.214-2.455-.36-.797-.174-1.569-.294-2.3-.48-.729-.214-1.418-.4-2.056-.574a128.59 128.59 0 0 0-1.726-.64c-.518-.173-.948-.426-1.314-.586-.724-.36-1.138-.56-1.138-.56a2.66 2.66 0 0 1-1.228-3.56 2.667 2.667 0 0 1 3.565-1.24c.033.026.065.04.097.053l.254.147s.305.16.84.453c.277.133.57.347.985.507.403.173.856.373 1.352.586.523.174 1.088.36 1.687.56.605.187 1.274.334 1.952.52.688.16 1.417.28 2.149.427.747.107 1.503.227 2.268.32 3.065.347 6.205.387 8.552.32a60.537 60.537 0 0 0 2.825-.173 48.533 48.533 0 0 0 1.047-.094h.08a1.994 1.994 0 0 1 .472 3.96" fill="#231F20" fill-rule="nonzero"/>
        <path d="M63.81 53.387c0 11.24-9.103 20.333-20.334 20.333-11.23 0-20.333-9.093-20.333-20.333 0-11.227 9.104-20.334 20.333-20.334 11.23 0 20.333 9.107 20.333 20.334" fill="#FFF" fill-rule="nonzero"/>
        <path d="M63.81 53.387c0 11.24-9.103 20.333-20.334 20.333-11.23 0-20.333-9.093-20.333-20.333 0-11.227 9.104-20.334 20.333-20.334 11.23 0 20.333 9.107 20.333 20.334z" stroke="#231F20" stroke-width="5.333"/>
        <path d="M51.556 52.76c0 4.453-3.617 8.08-8.08 8.08s-8.08-3.627-8.08-8.08a8.077 8.077 0 0 1 8.08-8.08 8.077 8.077 0 0 1 8.08 8.08" fill="#231F20" fill-rule="nonzero"/>
    </g>
</svg>
