<svg width="100" height="168" xmlns="http://www.w3.org/2000/svg">
    <title>
        lon
    </title>
    <g fill="none" fill-rule="evenodd">
        <path d="M96.107 149.16c0 8.16-6.854 14.787-15.32 14.787-8.454 0-15.32-6.627-15.32-14.787 0 8.16-6.854 13.733-15.32 13.733-8.454 0-15.32-5.573-15.32-13.733 0 8.16-6.854 14.787-15.32 14.787-8.454 0-15.32-6.627-15.32-14.787l.573-7.907c0-22.466 20.32-29.88 45.493-29.88 25.174 0 45.68 10.054 45.68 30.4l.174 7.387" fill="#FFF" fill-rule="nonzero"/>
        <path d="M92.64 150.413l-.027-1.173-.106-8.133a23.921 23.921 0 0 0-1.12-6.974 21.946 21.946 0 0 0-3.254-6.24c-1.426-1.92-3.213-3.6-5.16-5.12-3.946-3.013-8.706-5.146-13.706-6.573-4.987-1.467-10.267-2.133-15.507-2.387a88.73 88.73 0 0 0-15.867.707 63.87 63.87 0 0 0-7.693 1.547c-2.507.68-4.947 1.506-7.24 2.56-4.6 2.08-8.587 5.133-11.173 9.026-2.56 3.92-3.68 8.667-3.614 13.6v.254l-.506 7.893.013-.24a11.213 11.213 0 0 0 3.507 8 12.16 12.16 0 0 0 3.8 2.507c.706.293 1.453.533 2.213.68.373.08.76.146 1.133.186l.52.054.654.026c3.133.107 6.28-.973 8.746-3.013a12.836 12.836 0 0 0 3.054-3.707c.813-1.426 1.293-3.04 1.52-4.733l.066-.453A1.991 1.991 0 0 1 35.12 147a2.002 2.002 0 0 1 1.707 2.16c.226 1.653.693 3.187 1.466 4.533.747 1.347 1.787 2.494 3 3.427 1.227.907 2.627 1.64 4.134 2.08.76.227 1.533.413 2.32.52.4.067.813.107 1.186.133l.56.027.654.013c3.24.014 6.413-.933 8.866-2.786 1.214-.934 2.254-2.08 3-3.427.774-1.333 1.227-2.88 1.454-4.52l.066-.453a1.981 1.981 0 0 1 2.227-1.694c1.053.134 1.8 1.094 1.707 2.147.213 1.693.68 3.32 1.493 4.747a12.048 12.048 0 0 0 3.053 3.733c1.254 1.013 2.64 1.813 4.147 2.307.747.24 1.507.44 2.293.546.374.054.787.094 1.16.107l.52.027.654-.014a12.746 12.746 0 0 0 8.32-3.453c1.106-1.04 2-2.293 2.6-3.653.32-.68.573-1.387.746-2.12.067-.32.134-.654.187-.974zm6.693-8.773l.107 7.6.013.747-.053.986a20.428 20.428 0 0 1-.24 1.814 18.116 18.116 0 0 1-1.053 3.52 18.569 18.569 0 0 1-4.16 5.946c-1.747 1.68-3.867 2.96-6.107 3.827a19.11 19.11 0 0 1-7.053 1.2l-.814-.04-.946-.093a24.585 24.585 0 0 1-1.774-.294 18.887 18.887 0 0 1-3.386-1.08c-2.16-.96-4.16-2.293-5.774-4-1.613-1.693-2.893-3.693-3.706-5.866-.774-2.187-1.12-4.507-.92-6.747h4c.226 2.173-.094 4.467-.934 6.613a14.888 14.888 0 0 1-3.946 5.587c-1.707 1.56-3.747 2.667-5.854 3.427-2.133.746-4.373 1.08-6.573 1.106l-.787-.026-.866-.054a21.905 21.905 0 0 1-1.667-.2c-1.107-.186-2.2-.44-3.267-.826-2.106-.747-4.146-1.867-5.853-3.414a14.935 14.935 0 0 1-3.947-5.6 14.36 14.36 0 0 1-.946-6.613h4c.24 2.24-.107 4.573-.88 6.76-.8 2.173-2.067 4.2-3.707 5.88-1.627 1.707-3.627 3.053-5.8 4-2.173.933-4.56 1.427-6.933 1.48l-.814-.013-.96-.04a26.148 26.148 0 0 1-1.786-.227 19.661 19.661 0 0 1-3.467-.96c-2.24-.853-4.347-2.133-6.12-3.8a18.3 18.3 0 0 1-4.187-5.933 17.16 17.16 0 0 1-1.466-7.147v-.253l.653-7.894-.013.24c.026-2.96.373-5.973 1.213-8.92.84-2.933 2.173-5.786 3.96-8.306 1.787-2.52 4.013-4.68 6.453-6.427 2.44-1.76 5.094-3.093 7.787-4.16 5.4-2.12 11-3.173 16.533-3.76 5.56-.587 11.08-.733 16.627-.587 5.6.174 11.147.88 16.653 2.187 5.48 1.347 10.934 3.387 15.827 6.72 2.44 1.653 4.72 3.64 6.64 6a28.092 28.092 0 0 1 4.587 7.947c1.053 2.893 1.573 5.96 1.68 8.986l.026.707z" fill="#231F20" fill-rule="nonzero"/>
        <path d="M50.267 3.947c-22.094 0-40 14.413-40 32.2 0 35.56 21.586 96.6 40 96.6 18.4 0 40-61.04 40-96.6 0-17.787-17.92-32.2-40-32.2" fill="#FFF" fill-rule="nonzero"/>
        <path d="M50.267 3.947c-22.094 0-40 14.413-40 32.2 0 35.56 21.586 96.6 40 96.6 18.4 0 40-61.04 40-96.6 0-17.787-17.92-32.2-40-32.2z" stroke="#231F20" stroke-width="6.667"/>
        <path d="M51.373 100.387s-1.906.253-4.693.453c-2.8.2-6.547.333-10.333.16a67.059 67.059 0 0 1-5.574-.507 96.538 96.538 0 0 1-2.586-.413c-.814-.187-1.587-.36-2.307-.52-.72-.2-1.373-.4-1.947-.56-.586-.16-1.093-.387-1.506-.547l-1.307-.506a2.673 2.673 0 0 1-1.507-3.454 2.65 2.65 0 0 1 3.454-1.506c.026.013.066.013.093.04l.24.093s.373.173 1.027.453c.333.134.706.347 1.2.494.48.173 1.026.36 1.626.56.614.173 1.28.346 2 .533.72.16 1.494.32 2.294.493 1.613.28 3.346.52 5.12.68 3.533.334 7.12.374 9.813.307 2.707-.067 4.44-.227 4.44-.227a1.986 1.986 0 0 1 2.173 1.814c.107 1.066-.666 2.013-1.72 2.16m3.054 14.52s-1.68.226-4.12.413a78.474 78.474 0 0 1-9.08.16 57.874 57.874 0 0 1-4.907-.427c-.787-.12-1.547-.24-2.267-.36-.733-.16-1.413-.306-2.04-.44-.64-.186-1.213-.36-1.733-.506-.52-.134-.96-.347-1.333-.467a67.488 67.488 0 0 0-1.16-.453 2.668 2.668 0 0 1 1.933-4.974c.04.014.08.027.107.04l.24.107s.32.147.88.387c.28.12.6.306 1.026.44.414.133.894.306 1.4.48.534.146 1.12.306 1.734.466.64.147 1.306.28 1.986.44 1.4.24 2.92.467 4.454.614 3.08.293 6.213.346 8.56.293a65.71 65.71 0 0 0 3.88-.187c1.093-.106 2.066.72 2.16 1.814a2.015 2.015 0 0 1-1.72 2.16" fill="#231F20" fill-rule="nonzero"/>
        <path d="M50.147 3.947c-22.094 0-40 14.413-40 32.2 0 35.56 21.586 96.6 40 96.6 18.413 0 40-61.04 40-96.6 0-17.787-17.907-32.2-40-32.2" fill="#FFF" fill-rule="nonzero"/>
        <path d="M50.147 3.947c-22.094 0-40 14.413-40 32.2 0 35.56 21.586 96.6 40 96.6 18.413 0 40-61.04 40-96.6 0-17.787-17.907-32.2-40-32.2z" stroke="#231F20" stroke-width="6.667"/>
        <path d="M51.267 100.387s-1.907.253-4.694.453c-2.8.2-6.56.333-10.333.16a67.386 67.386 0 0 1-5.587-.507 95.363 95.363 0 0 1-2.573-.413c-.813-.187-1.6-.36-2.307-.52-.72-.2-1.373-.4-1.96-.56-.573-.16-1.08-.387-1.493-.547l-1.307-.506a2.65 2.65 0 0 1-1.506-3.454 2.65 2.65 0 0 1 3.453-1.506c.027.013.053.013.093.04l.227.093s.373.173 1.027.453c.333.134.706.347 1.2.494.493.173 1.04.36 1.626.56.627.173 1.294.346 2 .533.734.16 1.507.32 2.294.493 1.613.28 3.36.52 5.133.68 3.533.334 7.12.374 9.813.307 2.694-.067 4.44-.227 4.44-.227a1.986 1.986 0 0 1 2.174 1.814 2.015 2.015 0 0 1-1.72 2.16m3.053 14.52s-1.68.226-4.12.413c-2.467.187-5.76.307-9.08.16a57.397 57.397 0 0 1-4.907-.427c-.786-.12-1.546-.24-2.266-.36a256.22 256.22 0 0 0-2.054-.44c-.626-.186-1.213-.36-1.72-.506-.52-.134-.96-.347-1.333-.467-.733-.293-1.16-.453-1.16-.453a2.668 2.668 0 0 1 1.933-4.974c.04.014.067.027.107.04l.227.107s.32.147.88.387c.293.12.613.306 1.04.44.413.133.88.306 1.4.48.533.146 1.12.306 1.733.466.627.147 1.293.28 1.987.44 1.4.24 2.92.467 4.453.614 3.08.293 6.213.346 8.56.293a64.75 64.75 0 0 0 3.867-.187 1.995 1.995 0 0 1 2.173 1.814 2.015 2.015 0 0 1-1.72 2.16" fill="#231F20" fill-rule="nonzero"/>
        <path d="M70.48 45.08c0 11.227-9.107 20.333-20.333 20.333-11.227 0-20.334-9.106-20.334-20.333 0-11.227 9.107-20.333 20.334-20.333 11.226 0 20.333 9.106 20.333 20.333" fill="#FFF" fill-rule="nonzero"/>
        <path d="M70.48 45.08c0 11.227-9.107 20.333-20.333 20.333-11.227 0-20.334-9.106-20.334-20.333 0-11.227 9.107-20.333 20.334-20.333 11.226 0 20.333 9.106 20.333 20.333z" stroke="#231F20" stroke-width="5.333"/>
        <path d="M58.227 44.453c0 4.454-3.614 8.08-8.08 8.08-4.467 0-8.08-3.626-8.08-8.08a8.075 8.075 0 0 1 8.08-8.08 8.075 8.075 0 0 1 8.08 8.08" fill="#231F20" fill-rule="nonzero"/>
    </g>
</svg>
