<svg width="88" height="168" xmlns="http://www.w3.org/2000/svg">
    <title>
        lu
    </title>
    <g fill="none" fill-rule="evenodd">
        <path d="M43.81 3.947c-22.091 0-40 17.906-40 40 0 44.186 21.59 120 40 120 18.409 0 40-75.814 40-120 0-22.094-17.909-40-40-40" fill="#FFF" fill-rule="nonzero"/>
        <path d="M43.81 3.947c-22.091 0-40 17.906-40 40 0 44.186 21.59 120 40 120 18.409 0 40-75.814 40-120 0-22.094-17.909-40-40-40z" stroke="#231F20" stroke-width="6.667"/>
        <path d="M44.975 123.267s-.48.066-1.318.186c-.83.107-2.01.24-3.429.36-2.839.227-6.641.36-10.48.12-.96-.066-1.921-.173-2.868-.253-.948-.147-1.881-.253-2.784-.427-.901-.186-1.777-.333-2.603-.546-.824-.24-1.606-.44-2.324-.667-.713-.253-1.366-.507-1.946-.72-.584-.187-1.067-.48-1.478-.667-.814-.4-1.28-.626-1.28-.626a2.66 2.66 0 0 1-1.22-3.56 2.653 2.653 0 0 1 3.567-1.227l.084.04.257.147s.358.186.982.52c.322.16.668.413 1.149.586.468.2.996.427 1.572.667.605.2 1.26.427 1.953.653.703.214 1.475.387 2.258.587.793.187 1.633.32 2.477.493.86.107 1.73.254 2.61.347 3.526.387 7.129.427 9.82.333 1.346-.053 2.469-.12 3.243-.2.767-.066 1.206-.12 1.206-.12h.077a1.995 1.995 0 0 1 2.183 1.8 2.012 2.012 0 0 1-1.708 2.174m3.055 18.026s-.422.067-1.16.174c-.73.106-1.766.213-3.013.333-2.492.2-5.832.333-9.21.133-.844-.053-1.692-.146-2.526-.226-.836-.12-1.658-.214-2.454-.36-.798-.174-1.57-.294-2.3-.48-.73-.214-1.419-.4-2.056-.574a128.59 128.59 0 0 0-1.727-.64c-.517-.173-.948-.426-1.313-.586-.724-.36-1.139-.56-1.139-.56a2.66 2.66 0 0 1-1.228-3.56 2.667 2.667 0 0 1 3.565-1.24c.034.026.066.04.098.053l.253.147s.305.16.84.453c.277.133.57.347.985.507.403.173.856.373 1.352.586.523.174 1.088.36 1.687.56.605.187 1.275.334 1.952.52.688.16 1.417.28 2.15.427.746.107 1.502.227 2.267.32 3.066.347 6.206.387 8.552.32a60.595 60.595 0 0 0 2.826-.173c.666-.054 1.046-.094 1.046-.094h.08a1.994 1.994 0 0 1 .472 3.96M4.197 49.333l42.55-.56a3.009 3.009 0 0 1 3.038 2.974 2.987 2.987 0 0 1-2.961 3.026.08.08 0 0 1-.077 0l-42.55-.533a2.464 2.464 0 0 1-2.422-2.493 2.446 2.446 0 0 1 2.422-2.414" fill="#231F20" fill-rule="nonzero"/>
        <path d="M5.587 30.893s8.932-.146 22.328-.346c3.349-.04 6.977-.067 10.814-.107 1.919-.013 3.89-.04 5.906-.053 1.037 0 1.956-.027 3.121 0 .465 0 1.163.053 1.761.093.587.067 1.176.133 1.764.24 4.702.787 9.36 3.107 12.859 6.8 3.52 3.64 5.752 8.787 5.79 14.04l.005.32-.007.213-.013.414c0 .253-.032.626-.06.973-.055.72-.147 1.32-.267 1.973a20.419 20.419 0 0 1-1.073 3.76 21.334 21.334 0 0 1-4.076 6.507c-3.424 3.773-8.047 6.16-12.73 7.04a24.3 24.3 0 0 1-3.517.4c-1.232.04-2.141.013-3.177.013-2.015-.013-3.986-.04-5.904-.053-3.839-.04-7.467-.067-10.816-.107-13.396-.2-22.327-.346-22.327-.346a2.39 2.39 0 0 1-2.363-2.427 2.41 2.41 0 0 1 2.363-2.373l22.327-.334c3.349-.04 6.977-.066 10.816-.106 1.918-.014 3.889-.04 5.904-.054.978-.013 2.106 0 2.929-.04.887-.04 1.777-.146 2.661-.306 3.527-.694 6.966-2.507 9.447-5.28 2.503-2.747 3.952-6.414 3.88-10.12-.01-3.707-1.536-7.347-4.097-10.04-2.542-2.72-6.008-4.494-9.552-5.107-.443-.08-.888-.133-1.332-.187-.436-.026-.768-.08-1.332-.08-1.006-.013-2-.013-2.984-.026-2.016-.014-3.987-.04-5.906-.054-3.837-.04-7.465-.08-10.814-.106l-22.328-.334a2.41 2.41 0 0 1-2.363-2.44 2.391 2.391 0 0 1 2.363-2.36" fill="#231F20" fill-rule="nonzero"/>
    </g>
</svg>
