<svg width="99" height="168" xmlns="http://www.w3.org/2000/svg">
    <title>
        lun
    </title>
    <g fill="none" fill-rule="evenodd">
        <path d="M95.44 149.16c0 8.16-6.853 14.787-15.32 14.787-8.453 0-15.32-6.627-15.32-14.787 0 8.16-6.853 13.733-15.32 13.733-8.453 0-15.32-5.573-15.32-13.733 0 8.16-6.853 14.787-15.32 14.787-8.453 0-15.32-6.627-15.32-14.787l.573-7.907c0-22.466 20.32-29.88 45.494-29.88 25.173 0 45.68 10.054 45.68 30.4l.173 7.387" fill="#FFF" fill-rule="nonzero"/>
        <path d="M91.973 150.413l-.026-1.173-.107-8.133a23.921 23.921 0 0 0-1.12-6.974 21.946 21.946 0 0 0-3.253-6.24c-1.427-1.92-3.214-3.6-5.16-5.12-3.947-3.013-8.707-5.146-13.707-6.573-4.987-1.467-10.267-2.133-15.507-2.387-5.293-.24-10.653 0-15.866.707a63.87 63.87 0 0 0-7.694 1.547c-2.506.68-4.946 1.506-7.24 2.56-4.6 2.08-8.586 5.133-11.173 9.026-2.56 3.92-3.68 8.667-3.613 13.6v.254L7 149.4l.013-.24a11.213 11.213 0 0 0 3.507 8 12.16 12.16 0 0 0 3.8 2.507c.707.293 1.453.533 2.213.68.374.08.76.146 1.134.186l.52.054.653.026c3.133.107 6.28-.973 8.747-3.013a12.836 12.836 0 0 0 3.053-3.707c.813-1.426 1.293-3.04 1.52-4.733l.067-.453A1.991 1.991 0 0 1 34.453 147a2.002 2.002 0 0 1 1.707 2.16c.227 1.653.693 3.187 1.467 4.533.746 1.347 1.786 2.494 3 3.427 1.226.907 2.626 1.64 4.133 2.08.76.227 1.533.413 2.32.52.4.067.813.107 1.187.133l.56.027.653.013c3.24.014 6.413-.933 8.867-2.786 1.213-.934 2.253-2.08 3-3.427.773-1.333 1.226-2.88 1.453-4.52l.067-.453a1.981 1.981 0 0 1 2.226-1.694c1.054.134 1.8 1.094 1.707 2.147.213 1.693.68 3.32 1.493 4.747a12.048 12.048 0 0 0 3.054 3.733c1.253 1.013 2.64 1.813 4.146 2.307.747.24 1.507.44 2.294.546.373.054.786.094 1.16.107l.52.027.653-.014a12.746 12.746 0 0 0 8.32-3.453c1.107-1.04 2-2.293 2.6-3.653.32-.68.573-1.387.747-2.12.066-.32.133-.654.186-.974zm6.694-8.773l.106 7.6.014.747-.054.986a20.428 20.428 0 0 1-.24 1.814 18.116 18.116 0 0 1-1.053 3.52 18.569 18.569 0 0 1-4.16 5.946c-1.747 1.68-3.867 2.96-6.107 3.827a19.11 19.11 0 0 1-7.053 1.2l-.813-.04-.947-.093a24.585 24.585 0 0 1-1.773-.294 18.887 18.887 0 0 1-3.387-1.08c-2.16-.96-4.16-2.293-5.773-4-1.614-1.693-2.894-3.693-3.707-5.866-.773-2.187-1.12-4.507-.92-6.747h4c.227 2.173-.093 4.467-.933 6.613a14.888 14.888 0 0 1-3.947 5.587c-1.707 1.56-3.747 2.667-5.853 3.427-2.134.746-4.374 1.08-6.574 1.106l-.786-.026-.867-.054a21.905 21.905 0 0 1-1.667-.2c-1.106-.186-2.2-.44-3.266-.826-2.107-.747-4.147-1.867-5.854-3.414a14.935 14.935 0 0 1-3.946-5.6 14.36 14.36 0 0 1-.947-6.613h4c.24 2.24-.107 4.573-.88 6.76-.8 2.173-2.067 4.2-3.707 5.88-1.626 1.707-3.626 3.053-5.8 4-2.173.933-4.56 1.427-6.933 1.48l-.813-.013-.96-.04A26.148 26.148 0 0 1 15.28 167a19.661 19.661 0 0 1-3.467-.96c-2.24-.853-4.346-2.133-6.12-3.8a18.3 18.3 0 0 1-4.186-5.933A17.16 17.16 0 0 1 .04 149.16v-.253l.653-7.894-.013.24c.027-2.96.373-5.973 1.213-8.92.84-2.933 2.174-5.786 3.96-8.306 1.787-2.52 4.014-4.68 6.454-6.427 2.44-1.76 5.093-3.093 7.786-4.16 5.4-2.12 11-3.173 16.534-3.76 5.56-.587 11.08-.733 16.626-.587 5.6.174 11.147.88 16.654 2.187 5.48 1.347 10.933 3.387 15.826 6.72 2.44 1.653 4.72 3.64 6.64 6a28.092 28.092 0 0 1 4.587 7.947c1.053 2.893 1.573 5.96 1.68 8.986l.027.707z" fill="#231F20" fill-rule="nonzero"/>
        <path d="M49.6 3.947c-22.093 0-40 14.413-40 32.2 0 35.56 21.587 96.6 40 96.6 18.4 0 40-61.04 40-96.6 0-17.787-17.92-32.2-40-32.2" fill="#FFF" fill-rule="nonzero"/>
        <path d="M49.6 3.947c-22.093 0-40 14.413-40 32.2 0 35.56 21.587 96.6 40 96.6 18.4 0 40-61.04 40-96.6 0-17.787-17.92-32.2-40-32.2z" stroke="#231F20" stroke-width="6.667"/>
        <path d="M50.707 100.387s-1.907.253-4.694.453c-2.8.2-6.546.333-10.333.16a67.059 67.059 0 0 1-5.573-.507 96.538 96.538 0 0 1-2.587-.413c-.813-.187-1.587-.36-2.307-.52-.72-.2-1.373-.4-1.946-.56-.587-.16-1.094-.387-1.507-.547l-1.307-.506a2.673 2.673 0 0 1-1.506-3.454 2.65 2.65 0 0 1 3.453-1.506c.027.013.067.013.093.04l.24.093s.374.173 1.027.453c.333.134.707.347 1.2.494.48.173 1.027.36 1.627.56.613.173 1.28.346 2 .533.72.16 1.493.32 2.293.493 1.613.28 3.347.52 5.12.68 3.533.334 7.12.374 9.813.307 2.707-.067 4.44-.227 4.44-.227a1.986 1.986 0 0 1 2.174 1.814c.106 1.066-.667 2.013-1.72 2.16m3.053 14.52s-1.68.226-4.12.413a78.474 78.474 0 0 1-9.08.16 57.874 57.874 0 0 1-4.907-.427c-.786-.12-1.546-.24-2.266-.36-.734-.16-1.414-.306-2.04-.44-.64-.186-1.214-.36-1.734-.506-.52-.134-.96-.347-1.333-.467-.733-.293-1.16-.453-1.16-.453a2.668 2.668 0 0 1 1.933-4.974c.04.014.08.027.107.04l.24.107s.32.147.88.387c.28.12.6.306 1.027.44.413.133.893.306 1.4.48.533.146 1.12.306 1.733.466.64.147 1.307.28 1.987.44 1.4.24 2.92.467 4.453.614 3.08.293 6.213.346 8.56.293a65.71 65.71 0 0 0 3.88-.187c1.093-.106 2.067.72 2.16 1.814a2.015 2.015 0 0 1-1.72 2.16" fill="#231F20" fill-rule="nonzero"/>
        <path d="M49.48 3.947c-22.093 0-40 14.413-40 32.2 0 35.56 21.587 96.6 40 96.6s40-61.04 40-96.6c0-17.787-17.907-32.2-40-32.2" fill="#FFF" fill-rule="nonzero"/>
        <path d="M49.48 3.947c-22.093 0-40 14.413-40 32.2 0 35.56 21.587 96.6 40 96.6s40-61.04 40-96.6c0-17.787-17.907-32.2-40-32.2z" stroke="#231F20" stroke-width="6.667"/>
        <path d="M50.6 100.387s-1.907.253-4.693.453c-2.8.2-6.56.333-10.334.16a67.386 67.386 0 0 1-5.586-.507 95.363 95.363 0 0 1-2.574-.413c-.813-.187-1.6-.36-2.306-.52-.72-.2-1.374-.4-1.96-.56-.574-.16-1.08-.387-1.494-.547l-1.306-.506a2.65 2.65 0 0 1-1.507-3.454 2.65 2.65 0 0 1 3.453-1.506c.027.013.054.013.094.04l.226.093s.374.173 1.027.453c.333.134.707.347 1.2.494.493.173 1.04.36 1.627.56.626.173 1.293.346 2 .533.733.16 1.506.32 2.293.493 1.613.28 3.36.52 5.133.68 3.534.334 7.12.374 9.814.307 2.693-.067 4.44-.227 4.44-.227a1.986 1.986 0 0 1 2.173 1.814 2.015 2.015 0 0 1-1.72 2.16m3.053 14.52s-1.68.226-4.12.413c-2.466.187-5.76.307-9.08.16a57.397 57.397 0 0 1-4.906-.427c-.787-.12-1.547-.24-2.267-.36-.733-.16-1.413-.306-2.053-.44-.627-.186-1.214-.36-1.72-.506-.52-.134-.96-.347-1.334-.467-.733-.293-1.16-.453-1.16-.453a2.668 2.668 0 0 1 1.934-4.974c.04.014.066.027.106.04l.227.107s.32.147.88.387c.293.12.613.306 1.04.44.413.133.88.306 1.4.48.533.146 1.12.306 1.733.466.627.147 1.294.28 1.987.44 1.4.24 2.92.467 4.453.614 3.08.293 6.214.346 8.56.293a64.75 64.75 0 0 0 3.867-.187 1.995 1.995 0 0 1 2.173 1.814 2.015 2.015 0 0 1-1.72 2.16M9.867 42.653l42.56-.546a2.985 2.985 0 0 1 3.026 2.96 2.996 2.996 0 0 1-2.96 3.04h-.066l-42.56-.547c-1.347-.027-2.44-1.133-2.414-2.493a2.439 2.439 0 0 1 2.414-2.414" fill="#231F20" fill-rule="nonzero"/>
        <path d="M11.267 25.16s2.186-.027 6.013-.093c3.827-.054 9.307-.147 15.867-.24 3.293-.027 6.84-.067 10.6-.094 1.893-.026 3.826-.04 5.8-.066.986 0 1.986 0 2.986-.014.654 0 1.014.014 1.627.04.613.027 1.213.08 1.773.147 4.614.547 9.28 2.453 13 5.8 3.72 3.28 6.374 8.2 6.64 13.44.32 5.227-1.8 10.467-5.226 14.093-3.414 3.694-7.934 5.987-12.494 6.88-1.133.24-2.28.387-3.426.454-.56.04-1.134.026-1.68.04h-1.494c-1.973-.014-3.906-.04-5.786-.054-3.76-.04-7.32-.08-10.6-.106-6.574-.04-12.04-.187-15.867-.24-3.84-.067-6.027-.107-6.027-.107a2.416 2.416 0 0 1-2.36-2.44 2.418 2.418 0 0 1 2.36-2.36s2.187-.04 6.027-.107c3.827-.053 9.293-.2 15.867-.24 3.28-.026 6.84-.066 10.6-.106 1.88-.014 3.813-.027 5.786-.054h1.494c.453-.026.88-.013 1.32-.053.88-.053 1.746-.173 2.626-.36 3.467-.693 6.854-2.48 9.294-5.16 2.453-2.653 3.813-6.2 3.6-9.747-.16-3.546-1.92-6.96-4.627-9.386-2.693-2.454-6.213-3.96-9.733-4.387-1.56-.24-3.734-.133-5.68-.187a797.047 797.047 0 0 1-5.8-.053c-3.76-.027-7.307-.067-10.6-.093-6.56-.107-12.04-.187-15.867-.24-3.827-.067-6.013-.107-6.013-.107a2.382 2.382 0 0 1-2.36-2.44c.013-1.293 1.066-2.333 2.36-2.36" fill="#231F20" fill-rule="nonzero"/>
    </g>
</svg>
