<svg width="168" height="167" xmlns="http://www.w3.org/2000/svg">
    <title>
        ma
    </title>
    <g fill="none">
        <path d="M163.668 132.24c0 17.333-12.536 31.387-28 31.387-17.334 0-28-16.734-28-34.054 0 15.947-8.667 31.56-24 31.56-16.667 0-24-15.613-24-31.56 0 17.32-11.667 34.054-28.334 34.054-15.464 0-27.691-15.36-27.691-32.694l.025-47.306c0-44.187 35.817-80 80-80s80 35.813 80 80v48.613" fill="#FFF"/>
        <path d="M160.335 132.16l-.014-27.653-.005-13.867-.004-6.933c-.05-2.227-.087-4.427-.301-6.64-.756-8.827-3.006-17.52-6.76-25.534-3.728-8.026-8.816-15.44-15.059-21.72a77.615 77.615 0 0 0-21.52-15.333c-7.988-3.813-16.65-6.187-25.442-7.08l-3.237-.24c-1.113-.067-2.298-.067-3.444-.107l-.866-.026-.748.026-1.66.04c-1.108.014-2.212.08-3.315.174-4.41.333-8.801 1-13.085 2.106A77.492 77.492 0 0 0 40.772 20.16a77.716 77.716 0 0 0-19.007 18.36c-5.257 7.12-9.179 15.213-11.66 23.707-1.226 4.24-2.14 8.586-2.59 13-.206 2.2-.402 4.253-.425 6.626l-.044 1.734-.004 1.653-.003 3.467-.028 27.733-.013 13.867c-.033 4.306.634 8.453 2.148 12.4 1.484 3.92 3.713 7.546 6.563 10.52 2.832 2.986 6.4 5.146 10.198 6.266.483.187.931.267 1.371.334l1.33.266c.534.067 1.142.08 1.71.12l.864.054.216.013.108.013c.083 0-.324-.013-.108-.013l.373-.027c1.992-.066 3.99-.293 5.88-.946 3.797-1.187 7.327-3.44 10.12-6.52 2.85-3.014 5.09-6.694 6.63-10.667 1.566-3.96 2.435-8.24 2.6-12.533v-.014h5.334l.176 2.614c.08.866.198 1.733.293 2.586.256 1.72.579 3.427 1.028 5.067.86 3.32 2.137 6.48 3.923 9.213.888 1.36 1.92 2.587 3.022 3.72.55.56 1.188 1.014 1.768 1.534.63.453 1.298.84 1.937 1.28l2.094.973c.74.213 1.483.48 2.21.693.72.107 1.4.254 2.14.387l2.762.147 2.163-.12c.767-.094 1.515-.28 2.279-.414.736-.213 1.456-.48 2.191-.706.685-.36 1.394-.667 2.072-1.04.636-.44 1.325-.814 1.935-1.307.583-.533 1.247-.973 1.781-1.573a25.838 25.838 0 0 0 3.087-3.734 28.028 28.028 0 0 0 2.42-4.36c.702-1.533 1.264-3.133 1.738-4.773.491-1.64.848-3.32 1.132-5.027.105-.853.237-1.706.326-2.56l.19-2.6a2.658 2.658 0 0 1 2.704-2.626 2.66 2.66 0 0 1 2.621 2.493l.007.133.168 2.787c.09.933.245 1.853.361 2.773.322 1.84.729 3.654 1.3 5.414.556 1.76 1.205 3.493 2.025 5.133.36.84.843 1.613 1.3 2.4.427.813.967 1.547 1.492 2.28.493.76 1.091 1.427 1.68 2.093.556.72 1.217 1.307 1.863 1.92.617.64 1.338 1.147 2.036 1.68.672.574 1.45.974 2.193 1.427.723.493 1.547.773 2.33 1.147.77.4 1.627.573 2.443.84.839.32 1.607.346 2.395.52.69.2 1.805.186 2.776.253l.747.027.373.026h.047c.053 0-.371-.013-.182-.013h.1l.163-.013 1.296-.08c.87 0 1.715-.2 2.567-.334 1.7-.32 3.348-.88 4.937-1.573.801-.333 1.537-.813 2.315-1.213.745-.454 1.446-.974 2.178-1.454l2.015-1.706c.607-.64 1.25-1.24 1.836-1.907.54-.707 1.144-1.36 1.653-2.08.476-.76 1.024-1.467 1.455-2.24.405-.8.893-1.547 1.244-2.373.333-.827.752-1.627 1.028-2.48.259-.867.6-1.694.804-2.574.184-.866.441-1.76.577-2.613.104-.867.254-1.653.348-2.573l.138-2.907zm6.662.227l-.128 2.986c-.094 1.067-.272 2.254-.418 3.36-.176 1.12-.463 2.147-.695 3.227-.25 1.067-.647 2.093-.97 3.133-.337 1.054-.831 2.04-1.246 3.054-.432 1.013-1.015 1.946-1.521 2.92-.531.973-1.195 1.866-1.792 2.786-.632.907-1.367 1.747-2.056 2.6-.738.827-1.544 1.6-2.318 2.387a79.383 79.383 0 0 1-2.562 2.147c-.93.626-1.834 1.28-2.794 1.866-.996.507-1.952 1.107-2.99 1.547-2.06.893-4.214 1.613-6.435 2.013-1.115.187-2.223.414-3.355.427l-1.689.093-.212.014h-.407l-.373-.027-.745-.053c-1.016-.094-1.907-.08-3.164-.36-1.16-.24-2.395-.4-3.429-.8-1.067-.374-2.17-.654-3.172-1.174-1.015-.493-2.067-.92-2.994-1.56-.95-.6-1.927-1.16-2.77-1.893-.874-.693-1.763-1.373-2.52-2.187-.79-.773-1.587-1.546-2.254-2.413-.704-.853-1.41-1.693-1.988-2.613-.615-.907-1.235-1.8-1.727-2.76-.522-.947-1.066-1.894-1.472-2.894a38.76 38.76 0 0 1-2.212-6.026c-.576-2.067-.962-4.16-1.242-6.267-.095-1.053-.224-2.12-.284-3.173l-.062-3.174h5.333l.002 2.947c-.042.973-.139 1.947-.208 2.933-.215 1.96-.52 3.907-.986 5.84a39.356 39.356 0 0 1-1.851 5.667 33.317 33.317 0 0 1-2.768 5.4 27.817 27.817 0 0 1-3.834 4.867c-.695.773-1.566 1.4-2.35 2.106-.814.667-1.745 1.214-2.62 1.814-.926.533-1.907.986-2.865 1.466-1.012.36-2.025.734-3.054 1.04-1.05.214-2.1.467-3.157.6l-1.591.12-.797.054-.399.026h-.15l-.024.014-.226-.014-.172-.013-2.761-.173a103.014 103.014 0 0 1-3.303-.6c-1.047-.294-2.043-.654-3.061-.987-.98-.44-1.942-.92-2.902-1.4-.892-.587-1.81-1.16-2.666-1.8-.797-.693-1.653-1.347-2.384-2.107a26.712 26.712 0 0 1-3.829-4.933c-2.136-3.533-3.512-7.347-4.366-11.213-.415-1.934-.678-3.88-.859-5.827-.056-.973-.137-1.947-.168-2.92l.016-2.907v-.213a2.661 2.661 0 0 1 2.685-2.653 2.658 2.658 0 0 1 2.649 2.866l-.001.014c.232 9.866-3.088 19.906-9.85 27.546-3.377 3.814-7.842 6.814-12.837 8.44-2.482.867-5.122 1.227-7.737 1.347l-.492.027c.145.013-.333 0-.324 0l-.108-.014-.216-.013-.865-.053c-.585-.04-1.135-.054-1.749-.107l-2.077-.373c-.7-.12-1.386-.254-1.993-.48-5.064-1.467-9.644-4.32-13.172-8.027-3.556-3.693-6.246-8.107-8.037-12.827-1.818-4.693-2.63-9.826-2.589-14.76l.001-13.866.002-27.72V85.24l.005-1.827.043-1.72c.015-2.253.223-4.8.456-7.2.488-4.8 1.474-9.533 2.807-14.16 2.692-9.253 6.96-18.053 12.672-25.826A84.505 84.505 0 0 1 36.946 14.52c7.989-5.4 16.91-9.4 26.255-11.787 4.671-1.186 9.456-1.92 14.258-2.28C78.659.36 79.86.28 81.065.267l1.806-.04.451-.014h.534l.866.014c1.163.04 2.291.053 3.484.106l3.676.28c9.598.987 19.02 3.574 27.72 7.734a84.884 84.884 0 0 1 23.406 16.706c6.783 6.854 12.313 14.907 16.363 23.64 4.076 8.734 6.52 18.214 7.332 27.814.229 2.386.273 4.8.32 7.2l-.003 6.933-.007 13.867-.012 27.733c0 .04-.001.107-.004.147z" fill="#231F20"/>
        <path d="M140.73 122.72c-15.934 4.48-35.665 7.12-57.03 7.12-21.405 0-41.17-2.627-57.12-7.12" fill="#FFF"/>
        <path d="M141.195 124.667s-1.726.52-4.762 1.4c-1.52.426-3.364.946-5.48 1.533-2.08.68-4.588 1.107-7.295 1.64-2.716.507-5.66 1.067-8.773 1.653-3.117.387-6.404.76-9.813 1.12-1.704.174-3.437.36-5.19.547-1.758.12-3.54.173-5.337.24-3.61.12-7.278.24-10.946.373-3.623-.106-7.163-.066-10.81-.306-1.807-.08-3.603-.174-5.367-.307-1.755-.16-3.49-.307-5.195-.467-3.413-.28-6.692-.8-9.804-1.2-3.099-.533-6.037-.96-8.718-1.56-2.687-.56-5.146-1.066-7.297-1.666-2.155-.587-4.045-1.014-5.572-1.507-3.064-.947-4.797-1.52-4.797-1.52a1.998 1.998 0 0 1-1.274-2.52 1.998 1.998 0 0 1 2.273-1.347l.085.014s1.756.333 4.8.986c1.51.36 3.39.627 5.52 1.014 2.127.4 4.563.693 7.197 1.106 1.314.214 2.694.374 4.126.534 1.427.173 2.902.346 4.42.533 1.522.133 3.086.267 4.684.413 1.599.147 3.228.32 4.895.4 1.664.107 3.356.214 5.068.32 1.705.067 3.43.147 5.17.214 3.44.2 7.115.133 10.7.2l10.563-.28c1.75-.04 3.488-.094 5.204-.134 1.71-.133 3.398-.266 5.059-.4 3.325-.266 6.54-.506 9.588-.746 2.994-.427 5.836-.8 8.465-1.134 2.626-.373 5.044-.56 7.209-1.066 2.158-.414 4.04-.787 5.59-1.08 3.102-.6 4.883-.894 4.883-.894a1.998 1.998 0 0 1 2.316 1.627 2.015 2.015 0 0 1-1.385 2.267m-54.942-43.2c-.333 4.84-4.355 8.506-8.984 8.2-4.629-.32-8.112-4.507-7.78-9.36.332-4.84 4.354-8.507 8.984-8.187 4.629.32 8.112 4.507 7.78 9.347" fill="#231F20"/>
        <path d="M107.633 81.707c-.386-.547-.752-1.134-1.153-1.654a52.553 52.553 0 0 0-2.732-3.373 29.76 29.76 0 0 0-1.452-1.613c-.497-.52-.98-1.054-1.506-1.547-1.015-1.013-2.093-1.96-3.177-2.88-1.122-.853-2.22-1.773-3.416-2.493-1.152-.814-2.395-1.4-3.61-2.067-1.253-.493-2.548-1.12-3.718-1.373-1.056-.414-2.736-.56-4.2-.787.377.04.095 0 .176.013H80.87c-.662-.053-1.33.08-1.997.16-1.34.094-2.659.507-3.99.814-1.302.48-2.625.893-3.89 1.52-1.293.546-2.52 1.293-3.762 1.973-1.214.76-2.423 1.533-3.581 2.4-.596.4-1.156.867-1.726 1.307-.576.44-1.135.906-1.68 1.386a52.306 52.306 0 0 0-3.215 2.947 47.324 47.324 0 0 0-2.932 3.12l.207-3.027c.715 1.12 1.6 2.36 2.479 3.494a57.1 57.1 0 0 0 2.782 3.36c.475.546.966 1.08 1.476 1.586.504.52.995 1.067 1.53 1.547 1.03 1.013 2.123 1.933 3.222 2.853 1.136.854 2.249 1.76 3.457 2.467 1.166.813 2.421 1.387 3.646 2.04 1.265.48 2.57 1.093 3.748 1.333.615.16 1.136.374 1.955.44l2.065.28c1.327-.04 2.648.067 3.98-.2 1.334-.106 2.646-.546 3.967-.866 1.294-.494 2.606-.907 3.859-1.56 1.282-.547 2.495-1.294 3.724-2 1.2-.774 2.396-1.547 3.54-2.414.588-.413 1.14-.88 1.704-1.333.567-.44 1.12-.907 1.657-1.387a56.148 56.148 0 0 0 3.168-2.973c.474-.467.911-1 1.37-1.493zm6.136 2.186a52.183 52.183 0 0 1-3.302 3.52 59.868 59.868 0 0 1-3.508 3.227c-.596.52-1.21 1.027-1.842 1.52-.627.48-1.242.987-1.903 1.44-1.28.96-2.635 1.827-4.001 2.68-1.412.787-2.798 1.613-4.31 2.267-1.46.72-3.045 1.226-4.6 1.786-1.625.4-3.222.88-4.925 1.027-1.665.293-3.394.187-5.098.187l-2.445-.347c-.702-.053-1.624-.333-2.475-.56-1.796-.413-3.249-1.12-4.805-1.747-1.453-.773-2.941-1.506-4.274-2.44-1.398-.853-2.644-1.88-3.918-2.853-1.224-1.04-2.431-2.093-3.554-3.227-.585-.533-1.117-1.133-1.663-1.706a32.766 32.766 0 0 1-1.594-1.76 59.047 59.047 0 0 1-2.986-3.68 54.686 54.686 0 0 1-2.745-3.96 2.598 2.598 0 0 1 .208-3.027 53.228 53.228 0 0 1 3.26-3.547 54.735 54.735 0 0 1 3.46-3.24c.59-.533 1.195-1.04 1.82-1.533.62-.493 1.227-1 1.881-1.467 1.266-.96 2.606-1.84 3.96-2.693 1.397-.8 2.771-1.653 4.272-2.307 1.447-.733 3.021-1.253 4.567-1.826 1.616-.414 3.206-.907 4.903-1.067.84-.107 1.669-.267 2.53-.227l1.282-.013h1.261c.092.013-.178-.013.212.027 1.532.226 2.904.28 4.738.84 1.806.4 3.267 1.093 4.834 1.706 1.464.76 2.966 1.48 4.31 2.4 1.412.854 2.672 1.867 3.961 2.84 1.238 1.027 2.461 2.067 3.6 3.2.592.534 1.132 1.12 1.686 1.694.56.56 1.1 1.146 1.618 1.746a64.036 64.036 0 0 1 3.036 3.667c.982 1.28 1.874 2.507 2.804 3.973a2.92 2.92 0 0 1-.235 3.454l-.02.026z" fill="#231F20"/>
        <path d="M19.584 33.013s.418-.226 1.2-.68a58.156 58.156 0 0 1 3.606-1.866c3.133-1.52 7.782-3.4 13.61-4.747a67.381 67.381 0 0 1 9.526-1.507c1.705-.16 3.464-.226 5.262-.253l2.697.04c.864 0 1.864.107 2.802.16 3.78.293 7.597.933 11.418 1.947a64.066 64.066 0 0 1 11.201 4.173c7.234 3.48 13.749 8.413 18.84 13.987 5.113 5.56 8.798 11.72 11.086 17.36 1.128 2.813 1.984 5.48 2.55 7.893.302 1.2.49 2.347.709 3.4.15 1.067.29 2.04.414 2.92.17 1.787.284 3.173.289 4.133l.047 1.467a3 3 0 1 1-5.996.187V81.6l-.004-.16-.03-1.293c.007-.854-.085-2.08-.216-3.654l-.34-2.6c-.187-.933-.34-1.96-.6-3.026-.478-2.16-1.219-4.534-2.2-7.08-1.997-5.054-5.257-10.654-9.85-15.76-4.57-5.107-10.471-9.68-17.057-12.947a58.772 58.772 0 0 0-10.22-3.92 58.437 58.437 0 0 0-10.426-1.893c-.86-.054-1.637-.174-2.543-.174l-2.557-.08c-1.669.014-3.303.04-4.888.16a63.55 63.55 0 0 0-8.867 1.254c-5.43 1.16-9.777 2.84-12.71 4.2-1.5.68-2.533 1.226-3.352 1.666l-1.212.654c-1.091.6-2.458.2-3.053-.894a2.26 2.26 0 0 1 .864-3.04" fill="#231F20"/>
    </g>
</svg>
