<svg width="168" height="167" xmlns="http://www.w3.org/2000/svg">
    <title>
        man
    </title>
    <g fill="none">
        <path d="M4.143 140.867c0-22.467 35.65-29.88 79.833-29.88s80.179 10.053 80.179 30.4c0 13.746-12.356 22.226-27.82 22.226-17.334 0-28-9.026-28-22.786 0 12.666-8.667 20.813-24 20.813-16.667 0-24-8.147-24-20.813 0 13.76-11.667 22.786-28.334 22.786-15.464 0-27.858-9-27.858-22.746" fill="#FFF"/>
        <path d="M7.476 140.867c.005 2.88.684 5.666 2.017 8.146 1.326 2.467 3.295 4.614 5.668 6.307 2.363 1.707 5.119 2.96 8.032 3.773 1.458.414 2.956.707 4.476.907 1.531.187 2.992.28 4.607.28 3.125.013 6.228-.32 9.188-1.067 2.959-.746 5.75-1.96 8.184-3.613 2.427-1.653 4.439-3.813 5.81-6.347 1.397-2.52 2.137-5.413 2.21-8.426l.001-.08a2.676 2.676 0 0 1 2.731-2.6 2.676 2.676 0 0 1 2.601 2.68v.013c.151 2.747.599 5.427 1.63 7.76.981 2.333 2.473 4.307 4.453 5.76 1.973 1.453 4.347 2.493 6.943 3.093a30.04 30.04 0 0 0 4.004.667c1.421.12 2.628.187 4.209.187 1.305 0 2.743-.054 4.08-.187a27.657 27.657 0 0 0 3.97-.707c2.575-.64 4.94-1.733 6.958-3.213 2.012-1.48 3.59-3.44 4.647-5.747 1.108-2.28 1.621-4.906 1.773-7.626h5.333v.013c.083 2.48.518 4.907 1.434 7.107a17.489 17.489 0 0 0 3.918 5.826c3.398 3.307 8.124 5.24 13.103 6.04 1.248.2 2.516.334 3.792.414.643.026 1.199.066 1.893.066h1.038l.916-.013c2.541-.067 5.066-.373 7.488-.973 4.845-1.16 9.309-3.587 12.317-7.107a16.198 16.198 0 0 0 3.235-6 16.29 16.29 0 0 0 .608-3.333c.096-1.334.088-2.347-.075-3.454-.575-4.36-3.673-8.24-7.737-11.173-4.068-2.973-8.942-5.147-13.959-6.88-5.039-1.733-10.29-3.027-15.61-4.027-10.653-2-21.569-2.92-32.495-3.24-5.446-.16-10.964-.12-16.432.04-5.478.16-10.944.454-16.379.947-5.433.48-10.84 1.16-16.16 2.12-5.317.973-10.561 2.253-15.53 4.053-4.942 1.787-9.687 4.147-13.283 7.427-1.787 1.64-3.242 3.507-4.198 5.56a14.69 14.69 0 0 0-1.072 3.2 17.88 17.88 0 0 0-.258 1.693l-.059.774-.02.96zm-6.665-.094l.03-1.026.099-1.294c.093-.8.22-1.613.392-2.413a21.71 21.71 0 0 1 1.593-4.627c1.408-2.946 3.468-5.493 5.774-7.56 4.658-4.146 10.097-6.666 15.521-8.6 5.453-1.92 11.01-3.2 16.573-4.186 5.566-.987 11.151-1.64 16.735-2.107 5.584-.467 11.168-.733 16.745-.867 5.587-.12 11.132-.16 16.743-.04 11.177.254 22.377 1.134 33.485 3.134 5.55 1.026 11.083 2.306 16.522 4.133 5.422 1.84 10.813 4.133 15.737 7.64 2.448 1.76 4.777 3.853 6.684 6.44 1.904 2.573 3.339 5.707 3.821 9.013.262 1.627.266 3.387.164 4.827a22.71 22.71 0 0 1-.829 4.813 23.08 23.08 0 0 1-4.523 8.52c-4.186 4.96-10.053 7.854-15.913 9.254a39.925 39.925 0 0 1-8.937 1.093c-.391 0-.708.013-1.158 0l-1.037-.027a45.439 45.439 0 0 1-2.248-.12 50.442 50.442 0 0 1-4.439-.586c-2.95-.547-5.886-1.427-8.681-2.747-2.777-1.347-5.41-3.133-7.604-5.44-2.19-2.28-3.923-5.053-4.972-8.027-1.07-2.973-1.467-6.106-1.42-9.133v-.013a2.647 2.647 0 0 1 2.492-2.814 2.655 2.655 0 0 1 2.825 2.48l.003.04.013.294c.15 3.293-.321 6.733-1.602 9.986a20.813 20.813 0 0 1-6.236 8.4c-2.736 2.24-5.974 3.654-9.206 4.534-1.622.44-3.262.746-4.896.933-1.653.187-3.224.28-4.926.293a50.916 50.916 0 0 1-4.799-.28 36.862 36.862 0 0 1-4.88-.88c-3.232-.826-6.524-2.186-9.295-4.453-2.794-2.227-4.922-5.32-6.105-8.6-1.168-3.293-1.532-6.68-1.388-9.92v-.013h5.333c.095 3.746-.657 7.613-2.368 11.093-1.709 3.467-4.337 6.453-7.398 8.707-3.067 2.266-6.548 3.813-10.098 4.8-3.557.986-7.202 1.453-10.817 1.506a40.275 40.275 0 0 1-5.483-.293 40.177 40.177 0 0 1-5.437-1.053c-3.581-.974-7.073-2.52-10.197-4.747-3.106-2.227-5.815-5.187-7.654-8.667-1.854-3.48-2.766-7.453-2.74-11.306v-.04l.002-.054z" fill="#231F20"/>
        <path d="M164.335 105.667c0 13.746-12.536 24.893-28 24.893-17.334 0-28-13.267-28-27.013 0 12.653-8.667 25.04-24 25.04-16.667 0-24-12.387-24-25.04 0 13.746-11.667 27.013-28.334 27.013-15.464 0-27.692-12.187-27.692-25.933l.026-37.534c0-35.053 35.817-63.466 80-63.466 44.182 0 80 28.413 80 63.466v38.574" fill="#FFF"/>
        <path d="M161.001 105.6l-.013-24.173-.005-12.12c.009-2.067-.027-3.907-.152-5.8-.102-.934-.16-1.88-.292-2.814l-.459-2.786c-1.444-7.427-4.717-14.454-9.228-20.614-4.521-6.146-10.219-11.493-16.65-15.773-6.413-4.32-13.5-7.68-20.911-10.04-3.696-1.213-7.491-2.12-11.322-2.84a89.812 89.812 0 0 0-11.573-1.4c-1.868-.16-3.935-.16-5.947-.2-1.825.04-3.87.027-5.788.173-3.897.2-7.777.68-11.609 1.387-3.836.68-7.627 1.6-11.33 2.8-3.7 1.187-7.35 2.547-10.846 4.227-6.993 3.346-13.57 7.586-19.176 12.866-5.615 5.24-10.32 11.427-13.493 18.32a49.173 49.173 0 0 0-3.52 10.76c-.364 1.854-.648 3.734-.788 5.52-.12.854-.111 1.934-.154 2.934l-.024.76-.013.373c-.001.053.003-.133.001-.013v.28l-.002 1.52-.028 24.226.002 12.027c.079 3.453 1.124 6.88 2.879 9.92 3.535 6.12 9.987 10.533 17.02 11.707 7.037 1.213 14.659-.4 20.285-4.867 5.732-4.28 9.512-11.213 9.803-18.413h5.333c.151 2.973.66 5.906 1.684 8.613.98 2.707 2.435 5.187 4.338 7.173 1.906 1.987 4.193 3.547 6.798 4.52a21.73 21.73 0 0 0 4.064 1.054c.688.133 1.438.2 2.11.253.35.013.65.053 1.041.067l1.216.013c1.31.013 2.817-.08 4.173-.333 1.383-.227 2.731-.6 4.018-1.12 2.584-1.014 4.88-2.627 6.836-4.627 1.949-2 3.489-4.453 4.549-7.133 1.105-2.654 1.687-5.56 1.84-8.48a2.678 2.678 0 0 1 2.663-2.68c1.449 0 2.63 1.16 2.668 2.6l.002.08a24.26 24.26 0 0 0 2.091 9.226c1.27 2.894 3.097 5.534 5.359 7.694a23.971 23.971 0 0 0 7.844 5c1.454.573 2.968 1 4.514 1.293a27.61 27.61 0 0 0 2.346.32c.818.08 1.409.133 2.368.133 3.197.067 6.356-.36 9.35-1.346 2.99-.974 5.796-2.467 8.199-4.44 2.408-1.947 4.417-4.36 5.796-7.067a19.369 19.369 0 0 0 1.583-4.227c.18-.733.309-1.466.408-2.226l.1-1.027.042-1.28zm6.666.16l-.038 1.333c-.042.534-.08 1.08-.137 1.614a27.52 27.52 0 0 1-.537 3 26.18 26.18 0 0 1-2.098 5.693c-1.824 3.613-4.44 6.773-7.524 9.28-3.096 2.507-6.649 4.373-10.393 5.573a33.915 33.915 0 0 1-11.577 1.6c-.811-.013-1.987-.106-2.927-.213-.972-.12-1.939-.28-2.903-.48a31.279 31.279 0 0 1-5.644-1.733c-3.65-1.52-7.022-3.76-9.777-6.6a29.668 29.668 0 0 1-6.385-9.827 29.828 29.828 0 0 1-2.059-11.453h5.333c.15 3.546-.409 7.146-1.558 10.56a27.86 27.86 0 0 1-5.502 9.386c-2.446 2.76-5.598 4.934-9.029 6.36a26.722 26.722 0 0 1-5.312 1.56 29.975 29.975 0 0 1-5.505.494l-1.216-.04a26.76 26.76 0 0 1-1.386-.094 28.934 28.934 0 0 1-8.027-1.813c-3.457-1.347-6.691-3.52-9.14-6.347-2.471-2.8-4.23-6.12-5.311-9.546a31.788 31.788 0 0 1-1.347-10.52 2.67 2.67 0 0 1 2.532-2.8 2.675 2.675 0 0 1 2.793 2.533l.002.04.006.227c.131 4.48-.885 8.986-2.845 13.013A30.739 30.739 0 0 1 51.828 127a30.935 30.935 0 0 1-12.027 5.92 33.14 33.14 0 0 1-6.654.947l-.839.013-.49.013-.378-.013c-.507-.013-.981-.013-1.608-.067-1.21-.08-2.281-.2-3.404-.413-8.905-1.507-17.07-7.013-21.659-14.907-2.282-3.946-3.68-8.48-3.794-13.106L.956 93.173.96 68.947v-1.52l.003-.48.012-.387.024-.747c.044-1.026.025-1.973.158-3.12.17-2.24.494-4.36.906-6.466A55.48 55.48 0 0 1 6.049 44c3.582-7.8 8.836-14.707 15.014-20.48 6.172-5.813 13.328-10.427 20.894-14.053 3.784-1.827 7.716-3.307 11.7-4.587a93.397 93.397 0 0 1 12.175-3.013A97.547 97.547 0 0 1 78.268.4c2.11-.16 4.108-.147 6.319-.187 2.025.054 4 .054 6.16.214 4.232.24 8.341.746 12.461 1.533 4.108.76 8.181 1.747 12.16 3.053 7.973 2.56 15.632 6.187 22.617 10.894 6.999 4.68 13.276 10.546 18.311 17.413 5.023 6.867 8.737 14.827 10.375 23.293.193 1.054.348 2.12.521 3.187.15 1.067.219 2.133.33 3.213.145 2.134.177 4.334.165 6.294l-.007 12.12-.012 24.24-.001.093z" fill="#231F20"/>
        <path d="M141.396 98.107c-15.933 3.546-35.665 5.653-57.03 5.653-21.405 0-41.17-2.093-57.118-5.653" fill="#FFF"/>
        <path d="M141.77 100.067s-1.743.453-4.805 1.173c-1.53.36-3.39.787-5.524 1.28-2.105.56-4.606.92-7.306 1.347-2.711.426-5.647.88-8.752 1.36-3.103.306-6.376.626-9.768.92-1.696.146-3.42.293-5.166.453-1.746.093-3.518.133-5.302.187-3.598.093-7.252.2-10.907.306-3.59-.106-7.179-.213-10.713-.306-1.768-.054-3.515-.094-5.255-.187-1.755-.16-3.488-.307-5.193-.453-3.41-.294-6.703-.6-9.816-.92-3.087-.48-6.006-.934-8.699-1.347-2.69-.427-5.157-.787-7.31-1.347-2.16-.506-4.043-.933-5.593-1.293-3.094-.733-4.85-1.187-4.85-1.187a1.99 1.99 0 0 1-1.438-2.426 2.001 2.001 0 0 1 2.176-1.494l.135.027s1.773.213 4.855.64c1.537.227 3.404.507 5.545.813 2.127.374 4.58.507 7.228.787 2.65.267 5.52.56 8.555.867 3.034.173 6.233.36 9.542.533 1.652.107 3.332.213 5.032.32 1.731.027 3.483.053 5.248.093 3.534.067 7.124.147 10.715.214 3.525-.067 7.05-.147 10.521-.214 1.75-.026 3.484-.066 5.199-.093 1.71-.107 3.399-.213 5.06-.307 3.327-.186 6.541-.373 9.59-.546 3.018-.307 5.87-.6 8.502-.867 2.637-.28 5.059-.4 7.233-.773 2.168-.32 4.058-.6 5.614-.827 3.113-.44 4.9-.653 4.9-.653 1.098-.147 2.1.64 2.236 1.733a2 2 0 0 1-1.49 2.187M87 62.707c-.313 4.64-4.319 8.146-8.948 7.813-4.63-.32-8.128-4.347-7.816-8.987a8.387 8.387 0 0 1 8.948-7.813c4.63.32 8.13 4.347 7.816 8.987" fill="#231F20"/>
        <path d="M108.308 63.027c-.368-.494-.712-1.014-1.09-1.494a55.456 55.456 0 0 0-2.769-3.266c-.47-.534-.964-1.04-1.468-1.547-.497-.507-.992-1.013-1.52-1.493-1.021-.987-2.11-1.867-3.196-2.774-1.126-.813-2.23-1.693-3.424-2.386-1.153-.787-2.396-1.334-3.606-1.974-1.251-.48-2.534-1.066-3.702-1.32-1.06-.4-2.714-.546-4.16-.773h-.017c.076.013-.196-.013.165.013h-.956L81.58 46c-.658-.04-1.32.067-1.983.147-1.328.08-2.641.453-3.961.746-1.296.44-2.615.814-3.876 1.414-1.288.506-2.515 1.213-3.758 1.853-1.21.733-2.426 1.453-3.586 2.28-.595.387-1.164.827-1.732 1.253-.575.427-1.142.854-1.69 1.32a56.715 56.715 0 0 0-3.234 2.827 49.822 49.822 0 0 0-2.952 3.013l.212-3.106a47.398 47.398 0 0 0 2.516 3.373 53.304 53.304 0 0 0 2.817 3.253c.48.534.981 1.04 1.492 1.547.505.507 1.008 1.013 1.544 1.48 1.037.973 2.141 1.853 3.24 2.747 1.143.813 2.26 1.68 3.467 2.36 1.165.773 2.42 1.32 3.641 1.946 1.261.467 2.552 1.04 3.73 1.28 1.069.387 2.722.507 4.17.72h.017c-.076-.013.196.014-.165-.013h.092l.124-.013h1.726c.656.04 1.317-.08 1.977-.16 1.324-.107 2.63-.494 3.941-.8 1.287-.454 2.595-.84 3.844-1.454 1.278-.52 2.492-1.226 3.722-1.88 1.197-.746 2.4-1.466 3.545-2.306.588-.4 1.15-.827 1.71-1.267a31.715 31.715 0 0 0 1.667-1.333 55.764 55.764 0 0 0 3.187-2.854c.444-.426.853-.893 1.284-1.346zm6.164 2.24a51.346 51.346 0 0 1-3.34 3.413 59.085 59.085 0 0 1-3.539 3.093c-.598.52-1.222.987-1.854 1.467-.627.467-1.254.947-1.915 1.387-1.283.906-2.648 1.72-4.01 2.546-1.415.734-2.805 1.52-4.309 2.12-1.453.694-3.03 1.16-4.572 1.667-1.605.373-3.19.813-4.864.933-.826.107-1.648.227-2.493.174h-1.26l-.63-.014h-.59l-.219-.026c-1.509-.24-2.866-.32-4.657-.867-1.761-.387-3.21-1.067-4.747-1.667-1.442-.733-2.925-1.426-4.256-2.32-1.392-.813-2.644-1.786-3.925-2.733-1.224-1-2.445-2.013-3.576-3.093-.588-.534-1.133-1.094-1.681-1.654A38.514 38.514 0 0 1 56.42 68a62.925 62.925 0 0 1-3.03-3.573 51.302 51.302 0 0 1-2.799-3.867 2.584 2.584 0 0 1 .213-3.107 49.418 49.418 0 0 1 3.299-3.44 63.7 63.7 0 0 1 3.49-3.12 36.3 36.3 0 0 1 1.833-1.466c.62-.48 1.238-.96 1.893-1.4 1.27-.92 2.62-1.747 3.97-2.574 1.4-.76 2.778-1.56 4.271-2.173 1.442-.693 3.007-1.173 4.542-1.707 1.596-.373 3.173-.826 4.842-.973.824-.093 1.646-.227 2.49-.2h2.202l.158.013h.118l.219.014c1.512.226 2.868.28 4.668.813 1.77.387 3.227 1.04 4.775 1.627 1.452.733 2.948 1.413 4.29 2.293 1.406.8 2.672 1.773 3.968 2.707 1.238 1 2.475 1.986 3.62 3.08.596.52 1.15 1.08 1.706 1.626.562.56 1.112 1.12 1.637 1.694a60.61 60.61 0 0 1 3.08 3.56 51.907 51.907 0 0 1 2.857 3.866 2.907 2.907 0 0 1-.242 3.547l-.019.027z" fill="#231F20"/>
        <path d="M21.312 25.147l1.141-.614c.699-.4 1.966-1.04 3.442-1.693 2.989-1.36 7.376-3.013 12.814-4.293 5.428-1.294 11.922-2.227 18.931-2.147 1.66 0 3.492.08 5.287.173 1.789.12 3.597.294 5.418.507 3.639.467 7.32 1.173 10.939 2.187 7.236 1.986 14.228 5.306 19.855 9.84 2.814 2.24 5.28 4.76 7.309 7.413a40.645 40.645 0 0 1 4.824 8.04c1.187 2.653 2.05 5.2 2.579 7.493.301 1.134.468 2.227.676 3.227.137 1 .264 1.92.377 2.76.156 1.667.253 2.987.257 3.88l.043 1.387a2.994 2.994 0 0 1-2.907 3.08 2.991 2.991 0 0 1-3.089-2.907l-.001-.027-.003-.146s-.01-.427-.025-1.227c.008-.8-.068-1.96-.186-3.427l-.301-2.426c-.176-.867-.304-1.827-.556-2.814-.433-2-1.159-4.186-2.15-6.493-1.978-4.587-5.425-9.48-10.353-13.48-4.893-4.04-11.15-7.147-17.81-9.053a70.174 70.174 0 0 0-10.156-2.147 83.962 83.962 0 0 0-5.094-.533c-1.681-.12-3.288-.214-5.013-.227-6.539-.173-12.663.6-17.784 1.733-5.133 1.12-9.253 2.6-12.032 3.814-1.413.613-2.377 1.066-3.165 1.493-.75.387-1.151.6-1.151.6a2.25 2.25 0 0 1-3.036-.96 2.248 2.248 0 0 1 .92-3.013" fill="#231F20"/>
    </g>
</svg>
