<svg width="167" height="167" xmlns="http://www.w3.org/2000/svg">
    <title>
        men
    </title>
    <g fill="none">
        <path d="M3.428 140.867c0-22.467 35.65-29.88 79.839-29.88 44.173 0 80.173 10.053 80.173 30.4 0 13.746-12.36 22.226-27.827 22.226-17.333 0-28-9.026-28-22.786 0 12.666-8.666 20.813-24 20.813-16.666 0-24-8.147-24-20.813 0 13.76-11.66 22.786-28.326 22.786-15.464 0-27.859-9-27.859-22.746" fill="#FFF"/>
        <path d="M6.763 140.867c.004 2.88.682 5.666 2.016 8.146 1.325 2.467 3.294 4.614 5.668 6.307 2.362 1.707 5.118 2.96 8.032 3.773 1.457.414 2.957.707 4.476.907 1.53.187 2.992.28 4.606.28 3.126.013 6.228-.32 9.188-1.067 2.959-.746 5.75-1.96 8.184-3.613 2.427-1.653 4.44-3.813 5.814-6.347 1.4-2.52 2.133-5.413 2.2-8.426l.013-.08c.027-1.467 1.253-2.627 2.72-2.6a2.663 2.663 0 0 1 2.6 2.68v.013c.16 2.747.6 5.427 1.64 7.76.973 2.333 2.467 4.307 4.453 5.76 1.974 1.453 4.347 2.493 6.934 3.093a30.36 30.36 0 0 0 4.013.667 46.38 46.38 0 0 0 4.2.187c1.307 0 2.747-.054 4.08-.187a27.483 27.483 0 0 0 3.973-.707c2.574-.64 4.947-1.733 6.96-3.213 2.014-1.48 3.587-3.44 4.654-5.747 1.106-2.28 1.613-4.906 1.76-7.626h5.333v.013c.093 2.48.52 4.907 1.44 7.107a17.342 17.342 0 0 0 3.92 5.826c3.4 3.307 8.12 5.24 13.107 6.04 1.24.2 2.506.334 3.786.414.64.026 1.2.066 1.894.066h1.04l.92-.013c2.533-.067 5.053-.373 7.48-.973 4.853-1.16 9.306-3.587 12.32-7.107a16.103 16.103 0 0 0 3.226-6c.334-1.067.534-2.307.614-3.333.093-1.334.093-2.347-.067-3.454-.587-4.36-3.68-8.24-7.747-11.173-4.066-2.973-8.933-5.147-13.96-6.88-5.04-1.733-10.28-3.027-15.6-4.027-10.653-2-21.573-2.92-32.506-3.24-5.44-.16-10.96-.12-16.427.04-5.48.16-10.947.454-16.373.947-5.439.48-10.846 1.16-16.166 2.12-5.317.973-10.561 2.253-15.529 4.053-4.943 1.787-9.687 4.147-13.284 7.427-1.787 1.64-3.241 3.507-4.197 5.56a14.833 14.833 0 0 0-1.072 3.2 18.32 18.32 0 0 0-.259 1.693l-.059.774-.018.96zm-6.667-.094l.03-1.026.1-1.294c.093-.8.22-1.613.391-2.413a21.71 21.71 0 0 1 1.594-4.627c1.408-2.946 3.469-5.493 5.773-7.56 4.659-4.146 10.097-6.666 15.521-8.6 5.454-1.92 11.011-3.2 16.574-4.186 5.565-.987 11.15-1.64 16.734-2.107 5.587-.467 11.174-.733 16.747-.867 5.587-.12 11.133-.16 16.747-.04 11.173.254 22.373 1.134 33.48 3.134 5.546 1.026 11.08 2.306 16.52 4.133 5.426 1.84 10.813 4.133 15.733 7.64 2.453 1.76 4.787 3.853 6.693 6.44 1.894 2.573 3.334 5.707 3.814 9.013.266 1.627.266 3.387.173 4.827a22.716 22.716 0 0 1-.84 4.813 22.86 22.86 0 0 1-4.52 8.52c-4.187 4.96-10.053 7.854-15.907 9.254a40.054 40.054 0 0 1-8.946 1.093c-.387 0-.707.013-1.147 0l-1.04-.027a44.881 44.881 0 0 1-2.253-.12c-1.48-.133-2.96-.32-4.44-.586-2.947-.547-5.88-1.427-8.68-2.747-2.774-1.347-5.414-3.133-7.6-5.44-2.187-2.28-3.92-5.053-4.974-8.027-1.066-2.973-1.466-6.106-1.426-9.133v-.013c-.08-1.467 1.026-2.734 2.493-2.814a2.65 2.65 0 0 1 2.827 2.48v.04l.013.294c.16 3.293-.32 6.733-1.6 9.986a20.73 20.73 0 0 1-6.227 8.4c-2.746 2.24-5.973 3.654-9.213 4.534-1.627.44-3.253.746-4.893.933-1.654.187-3.227.28-4.92.293a50.714 50.714 0 0 1-4.8-.28 36.4 36.4 0 0 1-4.88-.88c-3.24-.826-6.534-2.186-9.294-4.453-2.8-2.227-4.933-5.32-6.106-8.6-1.174-3.293-1.534-6.68-1.4-9.92v-.013h5.333c.107 3.746-.653 7.613-2.36 11.093-1.707 3.467-4.333 6.453-7.4 8.707-3.067 2.266-6.548 3.813-10.096 4.8-3.559.986-7.204 1.453-10.819 1.506a40.275 40.275 0 0 1-5.482-.293 40.177 40.177 0 0 1-5.438-1.053c-3.581-.974-7.073-2.52-10.197-4.747-3.105-2.227-5.815-5.187-7.653-8.667-1.855-3.48-2.767-7.453-2.74-11.306v-.04l.001-.054z" fill="#231F20"/>
        <path d="M163.613 105.667c0 13.746-12.533 24.893-28 24.893-17.333 0-28-13.267-28-27.013 0 12.653-8.666 25.04-24 25.04-16.666 0-24-12.387-24-25.04 0 13.746-11.66 27.013-28.326 27.013-15.464 0-27.692-12.187-27.692-25.933l.025-37.534c0-35.053 35.817-63.466 79.993-63.466 44.187 0 80 28.413 80 63.466v38.574" fill="#FFF"/>
        <path d="M160.28 105.6V81.427l-.013-12.12a81.488 81.488 0 0 0-.147-5.8c-.107-.934-.16-1.88-.293-2.814l-.467-2.786c-1.44-7.427-4.707-14.454-9.227-20.614-4.52-6.146-10.213-11.493-16.64-15.773-6.413-4.32-13.506-7.68-20.92-10.04-3.693-1.213-7.493-2.12-11.32-2.84a89.869 89.869 0 0 0-11.573-1.4c-1.867-.16-3.933-.16-5.947-.2-1.826.04-3.866.027-5.786.173-3.894.2-7.774.68-11.614 1.387-3.826.68-7.626 1.6-11.32 2.8-3.706 1.187-7.356 2.547-10.852 4.227-6.993 3.346-13.57 7.586-19.176 12.866-5.614 5.24-10.32 11.427-13.493 18.32a49.173 49.173 0 0 0-3.52 10.76c-.363 1.854-.648 3.734-.788 5.52-.12.854-.11 1.934-.153 2.934l-.024.76-.014.373c-.001.053.003-.133.002-.013v.28l-.003 1.52-.028 24.226.003 12.027c.078 3.453 1.124 6.88 2.878 9.92 3.535 6.12 9.987 10.533 17.02 11.707 7.038 1.213 14.659-.4 20.286-4.867 5.732-4.28 9.516-11.213 9.796-18.413h5.333c.16 2.973.667 5.906 1.693 8.613.974 2.707 2.427 5.187 4.334 7.173 1.906 1.987 4.2 3.547 6.8 4.52 1.293.48 2.666.827 4.066 1.054.68.133 1.44.2 2.107.253.347.013.653.053 1.04.067l1.213.013c1.32.013 2.827-.08 4.174-.333 1.386-.227 2.733-.6 4.026-1.12 2.574-1.014 4.88-2.627 6.827-4.627s3.493-4.453 4.56-7.133c1.093-2.654 1.68-5.56 1.827-8.48 0-1.48 1.2-2.667 2.666-2.68 1.454 0 2.64 1.16 2.667 2.6v.08a24.643 24.643 0 0 0 2.093 9.226c1.28 2.894 3.107 5.534 5.36 7.694a24.052 24.052 0 0 0 7.84 5c1.467.573 2.974 1 4.52 1.293.774.133 1.56.253 2.347.32.813.08 1.413.133 2.373.133 3.187.067 6.347-.36 9.347-1.346 2.987-.974 5.8-2.467 8.2-4.44 2.4-1.947 4.413-4.36 5.787-7.067a19.246 19.246 0 0 0 2-6.453l.093-1.027.04-1.28zm6.667.16l-.027 1.333c-.053.534-.08 1.08-.147 1.614-.12 1-.293 2.013-.533 3a26.734 26.734 0 0 1-2.093 5.693c-1.827 3.613-4.44 6.773-7.534 9.28-3.093 2.507-6.64 4.373-10.386 5.573a33.947 33.947 0 0 1-11.574 1.6c-.813-.013-1.986-.106-2.933-.213a36.75 36.75 0 0 1-2.907-.48c-1.92-.4-3.813-.973-5.64-1.733-3.653-1.52-7.026-3.76-9.773-6.6a29.692 29.692 0 0 1-6.387-9.827 30.14 30.14 0 0 1-2.066-11.453h5.333c.16 3.546-.4 7.146-1.547 10.56-1.2 3.413-3.04 6.626-5.506 9.386-2.454 2.76-5.6 4.934-9.027 6.36a26.717 26.717 0 0 1-5.32 1.56 29.895 29.895 0 0 1-5.507.494l-1.213-.04a28.88 28.88 0 0 1-1.387-.094c-.933-.08-1.8-.186-2.706-.346-1.8-.32-3.587-.8-5.32-1.467-3.454-1.347-6.68-3.52-9.134-6.347-2.48-2.8-4.226-6.12-5.32-9.546a31.893 31.893 0 0 1-1.346-10.52 2.678 2.678 0 0 1 2.533-2.8 2.678 2.678 0 0 1 2.8 2.533v.267c.133 4.48-.88 8.986-2.84 13.013-1.96 4.04-4.827 7.613-8.327 10.44a30.935 30.935 0 0 1-12.026 5.92 33.14 33.14 0 0 1-6.655.947l-.839.013-.489.013-.379-.013c-.506-.013-.981-.013-1.608-.067-1.208-.08-2.281-.2-3.404-.413-8.904-1.507-17.069-7.013-21.658-14.907-2.283-3.946-3.68-8.48-3.795-13.106L.241 93.173l.004-24.226v-1.52l.003-.48.012-.387.024-.747c.044-1.026.025-1.973.159-3.12.169-2.24.493-4.36.905-6.466A55.48 55.48 0 0 1 5.335 44c3.581-7.8 8.836-14.707 15.013-20.48 6.172-5.813 13.328-10.427 20.895-14.053C45.027 7.64 48.959 6.16 52.944 4.88A93.416 93.416 0 0 1 65.12 1.867 97.411 97.411 0 0 1 77.56.4c2.107-.16 4.107-.147 6.307-.187 2.026.054 4 .054 6.16.214 4.24.24 8.346.746 12.466 1.533 4.107.76 8.187 1.747 12.16 3.053 7.974 2.56 15.627 6.187 22.614 10.894 7 4.68 13.28 10.546 18.32 17.413 5.013 6.867 8.733 14.827 10.373 23.293.187 1.054.347 2.12.52 3.187.147 1.067.213 2.133.333 3.213.134 2.134.174 4.334.16 6.294l-.013 12.12-.013 24.24v.093z" fill="#231F20"/>
        <path d="M140.68 98.107c-15.933 3.546-35.667 5.653-57.027 5.653-21.4 0-41.172-2.093-57.12-5.653" fill="#FFF"/>
        <path d="M141.053 100.067s-1.746.453-4.8 1.173c-1.533.36-3.4.787-5.533 1.28-2.093.56-4.6.92-7.307 1.347-2.706.426-5.64.88-8.746 1.36a809.59 809.59 0 0 1-9.76.92c-1.707.146-3.427.293-5.174.453-1.746.093-3.52.133-5.306.187-3.587.093-7.254.2-10.907.306-3.587-.106-7.173-.213-10.707-.306-1.773-.054-3.52-.094-5.253-.187-1.76-.16-3.493-.307-5.2-.453-3.4-.294-6.693-.6-9.812-.92-3.087-.48-6.005-.934-8.699-1.347-2.689-.427-5.157-.787-7.31-1.347-2.16-.506-4.043-.933-5.592-1.293-3.095-.733-4.85-1.187-4.85-1.187a1.99 1.99 0 0 1-1.438-2.426 2.001 2.001 0 0 1 2.176-1.494l.134.027s1.774.213 4.855.64c1.537.227 3.404.507 5.545.813 2.127.374 4.58.507 7.228.787 2.65.267 5.52.56 8.555.867 3.035.173 6.235.36 9.541.533 1.654.107 3.334.213 5.04.32 1.72.027 3.48.053 5.24.093 3.534.067 7.12.147 10.72.214 3.52-.067 7.054-.147 10.52-.214 1.747-.026 3.48-.066 5.2-.093 1.707-.107 3.4-.213 5.054-.307 3.333-.186 6.546-.373 9.6-.546 3.013-.307 5.866-.6 8.493-.867 2.64-.28 5.053-.4 7.24-.773 2.16-.32 4.053-.6 5.613-.827 3.107-.44 4.894-.653 4.894-.653a1.992 1.992 0 0 1 2.24 1.733 2.009 2.009 0 0 1-1.494 2.187M86.373 26.28s.174 3.507.307 8.747c.053 2.626.16 5.693.173 8.973.027 3.28.054 6.787.08 10.28-.026 3.507-.053 7-.08 10.28-.026 3.28-.12 6.347-.173 8.973-.053 2.627-.16 4.814-.2 6.347l-.107 2.4a2.786 2.786 0 0 1-2.906 2.653 2.8 2.8 0 0 1-2.654-2.653s-.04-.88-.106-2.4c-.04-1.533-.147-3.72-.2-6.347-.04-2.626-.147-5.693-.174-8.973-.026-3.28-.04-6.773-.066-10.28.026-3.493.04-7 .066-10.28.014-3.28.12-6.347.174-8.973.133-5.24.306-8.747.306-8.747a2.795 2.795 0 0 1 2.92-2.64c1.44.08 2.56 1.24 2.64 2.64" fill="#231F20"/>
        <path d="M55.147 51.507l2.44-.107c1.56-.053 3.786-.16 6.453-.2 2.667-.053 5.773-.16 9.107-.173 3.333-.027 6.893-.054 10.453-.08 3.547.026 7.107.053 10.44.08 3.333.013 6.44.12 9.107.16 5.333.133 8.893.32 8.893.32a2.786 2.786 0 0 1 2.64 2.92 2.818 2.818 0 0 1-2.64 2.64s-3.56.173-8.893.306c-2.667.04-5.774.147-9.107.174-3.333.013-6.893.04-10.44.066-3.56-.026-7.12-.053-10.453-.08-3.334-.013-6.44-.12-9.107-.16-2.667-.053-4.893-.16-6.453-.213-1.547-.067-2.44-.093-2.44-.093a2.795 2.795 0 0 1-2.655-2.907 2.79 2.79 0 0 1 2.655-2.653" fill="#231F20"/>
    </g>
</svg>
