<svg width="168" height="167" xmlns="http://www.w3.org/2000/svg">
    <title>
        mi
    </title>
    <g fill="none">
        <path d="M164.239 132.24c0 17.333-12.536 31.387-28 31.387-17.334 0-28-16.734-28-34.054 0 15.947-8.667 31.56-24 31.56-16.667 0-24-15.613-24-31.56 0 17.32-11.667 34.054-28.334 34.054-15.464 0-27.692-15.36-27.692-32.694l.026-47.306c0-44.187 35.817-80 80-80 44.182 0 80 35.813 80 80v48.613" fill="#FFF"/>
        <path d="M160.905 132.16l-.012-27.653-.006-13.867-.003-6.933c-.05-2.227-.088-4.427-.303-6.64-.756-8.827-3.005-17.52-6.76-25.534-3.728-8.026-8.816-15.44-15.058-21.72A77.597 77.597 0 0 0 117.24 14.48c-7.986-3.813-16.648-6.187-25.44-7.08l-3.237-.24c-1.113-.067-2.299-.067-3.444-.107l-.867-.026-.748.026-1.66.04c-1.106.014-2.212.08-3.313.174-4.412.333-8.803 1-13.087 2.106A77.508 77.508 0 0 0 41.343 20.16a77.709 77.709 0 0 0-19.007 18.36c-5.257 7.12-9.179 15.213-11.66 23.707-1.227 4.24-2.14 8.586-2.59 13-.206 2.2-.402 4.253-.425 6.626l-.045 1.734-.003 1.653-.004 3.467-.026 27.733-.014 13.867c-.033 4.306.634 8.453 2.147 12.4 1.485 3.92 3.715 7.546 6.564 10.52 2.832 2.986 6.399 5.146 10.197 6.266.483.187.932.267 1.372.334l1.331.266c.533.067 1.141.08 1.708.12l.864.054.217.013.108.013c.083 0-.324-.013-.108-.013l.374-.027c1.99-.066 3.989-.293 5.878-.946 3.798-1.187 7.327-3.44 10.122-6.52 2.849-3.014 5.089-6.694 6.628-10.667 1.566-3.96 2.436-8.24 2.6-12.533v-.014h5.334l.176 2.614c.08.866.199 1.733.294 2.586.256 1.72.578 3.427 1.028 5.067.86 3.32 2.137 6.48 3.924 9.213.886 1.36 1.92 2.587 3.021 3.72.55.56 1.188 1.014 1.768 1.534.63.453 1.299.84 1.936 1.28l2.095.973c.741.213 1.482.48 2.21.693.72.107 1.399.254 2.139.387l2.763.147 2.162-.12c.768-.094 1.516-.28 2.279-.414.736-.213 1.457-.48 2.192-.706.684-.36 1.395-.667 2.072-1.04.636-.44 1.325-.814 1.935-1.307.582-.533 1.246-.973 1.781-1.573a25.905 25.905 0 0 0 3.088-3.734 28.023 28.023 0 0 0 2.419-4.36c.701-1.533 1.264-3.133 1.738-4.773.491-1.64.848-3.32 1.132-5.027.106-.853.238-1.706.326-2.56l.189-2.6a2.657 2.657 0 0 1 2.705-2.626 2.659 2.659 0 0 1 2.62 2.493l.008.133.167 2.787c.092.933.245 1.853.361 2.773.323 1.84.73 3.654 1.3 5.414.556 1.76 1.206 3.493 2.026 5.133.36.84.844 1.613 1.3 2.4.426.813.966 1.547 1.492 2.28.493.76 1.092 1.427 1.68 2.093.556.72 1.217 1.307 1.864 1.92.616.64 1.337 1.147 2.034 1.68.674.574 1.451.974 2.194 1.427.724.493 1.548.773 2.33 1.147.768.4 1.627.573 2.443.84.839.32 1.607.346 2.396.52.688.2 1.804.186 2.775.253l.746.027.374.026h.046c.054 0-.37-.013-.181-.013h.101l.162-.013 1.296-.08c.869 0 1.714-.2 2.566-.334 1.702-.32 3.348-.88 4.938-1.573.801-.333 1.537-.813 2.314-1.213.746-.454 1.447-.974 2.179-1.454l2.015-1.706c.606-.64 1.249-1.24 1.836-1.907.54-.707 1.144-1.36 1.653-2.08.476-.76 1.024-1.467 1.455-2.24.405-.8.893-1.547 1.244-2.373.333-.827.753-1.627 1.028-2.48.258-.867.6-1.694.804-2.574.184-.866.441-1.76.577-2.613.104-.867.253-1.653.348-2.573l.137-2.907zm6.663.227l-.128 2.986c-.095 1.067-.272 2.254-.419 3.36-.176 1.12-.461 2.147-.693 3.227-.25 1.067-.647 2.093-.97 3.133-.338 1.054-.831 2.04-1.247 3.054-.432 1.013-1.015 1.946-1.522 2.92-.53.973-1.193 1.866-1.79 2.786-.634.907-1.368 1.747-2.058 2.6-.737.827-1.542 1.6-2.317 2.387a79.383 79.383 0 0 1-2.563 2.147c-.929.626-1.833 1.28-2.793 1.866-.996.507-1.952 1.107-2.99 1.547-2.06.893-4.214 1.613-6.435 2.013-1.115.187-2.223.414-3.355.427l-1.69.093-.21.014h-.408l-.373-.027-.746-.053c-1.016-.094-1.905-.08-3.164-.36-1.16-.24-2.394-.4-3.428-.8-1.068-.374-2.17-.654-3.172-1.174-1.016-.493-2.068-.92-2.994-1.56-.95-.6-1.927-1.16-2.77-1.893-.874-.693-1.764-1.373-2.52-2.187-.79-.773-1.586-1.546-2.254-2.413-.704-.853-1.41-1.693-1.988-2.613-.615-.907-1.235-1.8-1.727-2.76-.523-.947-1.067-1.894-1.472-2.894a38.8 38.8 0 0 1-2.212-6.026c-.576-2.067-.961-4.16-1.243-6.267-.094-1.053-.224-2.12-.284-3.173l-.061-3.174h5.333l.002 2.947c-.043.973-.139 1.947-.208 2.933-.216 1.96-.52 3.907-.986 5.84a39.276 39.276 0 0 1-1.852 5.667 33.282 33.282 0 0 1-2.766 5.4 27.865 27.865 0 0 1-3.835 4.867c-.696.773-1.567 1.4-2.35 2.106-.814.667-1.745 1.214-2.62 1.814-.927.533-1.907.986-2.865 1.466-1.013.36-2.026.734-3.054 1.04-1.05.214-2.1.467-3.156.6l-1.592.12-.798.054-.398.026h-.149l-.025.014-.226-.014-.172-.013-2.762-.173a103.592 103.592 0 0 1-3.302-.6c-1.047-.294-2.044-.654-3.062-.987-.98-.44-1.941-.92-2.901-1.4-.892-.587-1.81-1.16-2.665-1.8-.798-.693-1.655-1.347-2.386-2.107a26.714 26.714 0 0 1-3.828-4.933c-2.136-3.533-3.512-7.347-4.366-11.213-.415-1.934-.678-3.88-.859-5.827-.056-.973-.137-1.947-.168-2.92l.015-2.907.001-.213a2.662 2.662 0 0 1 2.685-2.653 2.658 2.658 0 0 1 2.648 2.866l-.001.014c.233 9.866-3.087 19.906-9.85 27.546-3.377 3.814-7.84 6.814-12.837 8.44-2.481.867-5.121 1.227-7.736 1.347l-.492.027c.144.013-.333 0-.324 0l-.108-.014-.217-.013-.864-.053c-.585-.04-1.135-.054-1.75-.107l-2.077-.373c-.7-.12-1.385-.254-1.992-.48-5.064-1.467-9.645-4.32-13.173-8.027-3.556-3.693-6.245-8.107-8.036-12.827-1.817-4.693-2.63-9.826-2.59-14.76l.002-13.866.003-27.72V85.24l.004-1.827.042-1.72c.016-2.253.224-4.8.456-7.2.488-4.8 1.475-9.533 2.808-14.16 2.692-9.253 6.96-18.053 12.672-25.826A84.508 84.508 0 0 1 37.517 14.52c7.988-5.4 16.91-9.4 26.255-11.787 4.672-1.186 9.456-1.92 14.257-2.28C79.23.36 80.432.28 81.636.267l1.805-.04.452-.014h.534l.865.014c1.164.04 2.292.053 3.485.106l3.676.28c9.598.987 19.019 3.574 27.719 7.734a84.909 84.909 0 0 1 23.408 16.706c6.781 6.854 12.312 14.907 16.361 23.64 4.076 8.734 6.52 18.214 7.334 27.814.228 2.386.272 4.8.318 7.2l-.002 6.933-.007 13.867-.012 27.733c0 .04-.001.107-.004.147z" fill="#231F20"/>
        <path d="M141.3 122.72c-15.933 4.48-35.665 7.12-57.03 7.12-21.405 0-41.169-2.627-57.118-7.12" fill="#FFF"/>
        <path d="M141.765 124.667s-1.725.52-4.761 1.4c-1.52.426-3.364.946-5.481 1.533-2.079.68-4.587 1.107-7.294 1.64-2.717.507-5.66 1.067-8.773 1.653-3.117.387-6.404.76-9.813 1.12-1.704.174-3.436.36-5.191.547-1.757.12-3.54.173-5.336.24-3.61.12-7.279.24-10.945.373-3.624-.106-7.164-.066-10.811-.306-1.807-.08-3.603-.174-5.367-.307-1.756-.16-3.489-.307-5.196-.467-3.413-.28-6.692-.8-9.804-1.2-3.098-.533-6.037-.96-8.717-1.56-2.687-.56-5.145-1.066-7.297-1.666-2.156-.587-4.044-1.014-5.572-1.507a288.736 288.736 0 0 1-4.798-1.52 1.997 1.997 0 0 1-1.273-2.52 1.996 1.996 0 0 1 2.272-1.347l.085.014s1.756.333 4.8.986c1.511.36 3.391.627 5.522 1.014 2.126.4 4.562.693 7.196 1.106 1.314.214 2.694.374 4.125.534 1.428.173 2.903.346 4.42.533 1.523.133 3.087.267 4.685.413 1.599.147 3.228.32 4.895.4 1.664.107 3.356.214 5.068.32 1.705.067 3.43.147 5.17.214 3.44.2 7.115.133 10.7.2l10.562-.28c1.75-.04 3.488-.094 5.205-.134 1.708-.133 3.398-.266 5.059-.4 3.325-.266 6.539-.506 9.588-.746 2.995-.427 5.836-.8 8.464-1.134 2.627-.373 5.044-.56 7.21-1.066 2.158-.414 4.04-.787 5.59-1.08 3.101-.6 4.883-.894 4.883-.894a1.998 1.998 0 0 1 2.316 1.627 2.015 2.015 0 0 1-1.386 2.267M87.213 3.613l.334 82.667a3.329 3.329 0 0 1-3.32 3.347 3.323 3.323 0 0 1-3.347-3.32v-.027l.333-82.667a3 3 0 1 1 6 0M64.21 59.08a8.573 8.573 0 1 1-17.146 0 8.573 8.573 0 0 1 17.147 0m57.152 0a8.575 8.575 0 0 1-17.147 0 8.575 8.575 0 0 1 17.147 0" fill="#231F20"/>
    </g>
</svg>
