<svg width="168" height="167" xmlns="http://www.w3.org/2000/svg">
    <title>
        min
    </title>
    <g fill="none">
        <path d="M3.72 140.867C3.72 118.4 39.36 111 83.547 111c44.186 0 80.173 10.04 80.173 30.387 0 13.746-12.347 22.24-27.813 22.24-17.334 0-28-9.04-28-22.787 0 12.653-8.667 20.8-24 20.8-16.667 0-24-8.147-24-20.8 0 13.747-11.667 22.787-28.334 22.787-15.466 0-27.853-9.014-27.853-22.76" fill="#FFF"/>
        <path d="M7.053 140.88c0 2.88.68 5.667 2.014 8.133 1.32 2.48 3.293 4.614 5.666 6.307 2.36 1.707 5.12 2.973 8.027 3.773a31.66 31.66 0 0 0 4.48.907c1.533.2 2.987.28 4.613.28 3.12.027 6.227-.307 9.187-1.053 2.947-.76 5.747-1.974 8.173-3.614 2.427-1.666 4.44-3.826 5.814-6.36 1.4-2.52 2.133-5.413 2.213-8.413v-.08a2.658 2.658 0 0 1 2.733-2.6 2.655 2.655 0 0 1 2.6 2.68c.147 2.76.6 5.44 1.627 7.76.987 2.333 2.48 4.307 4.453 5.76 1.974 1.453 4.347 2.493 6.947 3.107 1.293.306 2.627.533 4 .653 1.427.133 2.627.187 4.213.187 1.307 0 2.747-.04 4.08-.187a27.29 27.29 0 0 0 3.96-.693c2.587-.654 4.947-1.747 6.96-3.214a14.725 14.725 0 0 0 4.654-5.746c1.106-2.294 1.613-4.92 1.773-7.627h5.333c.08 2.48.52 4.907 1.427 7.107a17.8 17.8 0 0 0 3.92 5.84c3.4 3.306 8.133 5.24 13.107 6.026 1.253.2 2.52.334 3.786.414.654.026 1.2.066 1.894.066l1.04.014.92-.027c2.546-.067 5.066-.373 7.48-.973 4.853-1.16 9.32-3.574 12.32-7.107a15.977 15.977 0 0 0 3.24-5.987c.32-1.08.533-2.306.6-3.346.106-1.32.093-2.347-.067-3.454-.573-4.36-3.68-8.226-7.733-11.173-4.08-2.96-8.947-5.133-13.96-6.88-5.04-1.733-10.294-3.027-15.614-4.027-10.653-1.986-21.573-2.92-32.493-3.226-5.453-.16-10.973-.134-16.44.026-5.467.174-10.933.467-16.373.947-5.44.493-10.84 1.16-16.16 2.133-5.32.96-10.56 2.24-15.534 4.04-4.933 1.8-9.68 4.147-13.28 7.427-1.786 1.64-3.24 3.507-4.2 5.56a14.434 14.434 0 0 0-1.066 3.213c-.12.547-.2 1.12-.267 1.68l-.053.787-.014.96zm-6.666-.093l.026-1.04.094-1.294c.093-.8.226-1.6.4-2.4.346-1.6.88-3.16 1.586-4.626 1.414-2.96 3.467-5.494 5.774-7.56 4.666-4.147 10.106-6.68 15.52-8.614 5.453-1.92 11.013-3.186 16.573-4.186 5.573-.974 11.16-1.64 16.733-2.107 5.587-.467 11.174-.733 16.747-.867 5.587-.106 11.133-.146 16.747-.04 11.173.254 22.373 1.134 33.48 3.147 5.56 1.013 11.093 2.307 16.52 4.12 5.426 1.84 10.813 4.133 15.746 7.64 2.44 1.76 4.774 3.853 6.68 6.453 1.907 2.574 3.334 5.694 3.827 9.014.253 1.626.267 3.386.16 4.813a23.586 23.586 0 0 1-.827 4.813 23.042 23.042 0 0 1-4.52 8.52c-4.186 4.974-10.053 7.867-15.92 9.267a40.63 40.63 0 0 1-8.933 1.093c-.387 0-.707.014-1.16 0l-1.04-.026c-.68-.027-1.507-.08-2.24-.134a41.721 41.721 0 0 1-4.44-.586c-2.96-.547-5.893-1.427-8.68-2.734-2.787-1.346-5.413-3.146-7.613-5.44-2.187-2.293-3.92-5.053-4.974-8.04-1.066-2.973-1.466-6.093-1.413-9.133a2.668 2.668 0 0 1 2.493-2.827 2.668 2.668 0 0 1 2.827 2.494v.026l.013.307c.147 3.293-.32 6.72-1.6 9.973-1.306 3.24-3.493 6.214-6.24 8.414-2.733 2.226-5.973 3.64-9.2 4.52-1.626.44-3.266.746-4.906.946-1.654.187-3.214.28-4.92.28a50.97 50.97 0 0 1-4.8-.28 34.745 34.745 0 0 1-4.88-.88c-3.227-.826-6.52-2.173-9.294-4.453-2.8-2.227-4.92-5.32-6.106-8.587-1.174-3.293-1.534-6.68-1.387-9.933h5.333c.094 3.733-.653 7.613-2.373 11.08-1.707 3.48-4.333 6.467-7.4 8.707-3.067 2.266-6.547 3.813-10.093 4.8-3.56.986-7.2 1.453-10.814 1.52-1.76.013-3.666-.08-5.48-.307a36.28 36.28 0 0 1-5.44-1.053c-3.586-.974-7.08-2.52-10.2-4.747-3.106-2.227-5.813-5.173-7.653-8.667-1.853-3.48-2.773-7.44-2.733-11.306v-.08z" fill="#231F20"/>
        <path d="M163.907 105.667c0 13.746-12.534 24.893-28 24.893-17.334 0-28-13.267-28-27.013 0 12.653-8.667 25.04-24 25.04-16.667 0-24-12.387-24-25.04 0 13.746-11.667 27.013-28.334 27.013-15.466 0-27.693-12.187-27.693-25.933l.027-37.534c0-35.053 35.813-63.466 80-63.466 44.186 0 80 28.413 80 63.466v38.574" fill="#FFF"/>
        <path d="M160.573 105.613l-.013-24.186-.013-12.107c.013-2.08-.027-3.92-.147-5.8-.107-.947-.16-1.88-.293-2.813l-.454-2.8c-1.44-7.414-4.72-14.454-9.226-20.6-4.52-6.16-10.227-11.507-16.654-15.787-6.413-4.32-13.506-7.667-20.906-10.027-3.707-1.213-7.494-2.133-11.334-2.84A87.339 87.339 0 0 0 89.96 7.24c-1.867-.147-3.933-.16-5.933-.2-1.827.04-3.88.027-5.8.187-3.894.2-7.774.68-11.6 1.373a86.817 86.817 0 0 0-11.334 2.8c-3.706 1.187-7.346 2.56-10.84 4.24-7 3.333-13.573 7.587-19.186 12.853-5.614 5.24-10.32 11.44-13.494 18.334a49.473 49.473 0 0 0-3.52 10.746c-.36 1.854-.64 3.734-.786 5.52-.12.867-.107 1.947-.147 2.934l-.027.76-.013.373c0 .053 0-.133 0 0v1.787l-.027 24.24V105.2c.08 3.453 1.12 6.88 2.88 9.933 3.534 6.107 9.987 10.52 17.014 11.707 7.04 1.2 14.666-.413 20.293-4.867 5.733-4.293 9.507-11.226 9.8-18.426h5.333c.147 2.973.654 5.92 1.68 8.613.987 2.707 2.44 5.187 4.334 7.187 1.92 1.973 4.2 3.546 6.8 4.506 1.306.48 2.666.84 4.066 1.067.694.12 1.44.2 2.107.24.36.027.653.053 1.053.067l1.214.026c1.306 0 2.813-.093 4.173-.333a20.579 20.579 0 0 0 4.013-1.12c2.587-1.027 4.88-2.64 6.84-4.627 1.947-2.013 3.48-4.466 4.547-7.133 1.107-2.667 1.68-5.56 1.84-8.493a2.667 2.667 0 1 1 5.333-.08v.08c.08 3.186.8 6.346 2.094 9.226 1.266 2.894 3.093 5.534 5.36 7.694a23.563 23.563 0 0 0 7.84 5c1.453.573 2.973 1 4.52 1.293.773.133 1.546.253 2.333.333.827.067 1.413.12 2.373.134 3.2.066 6.36-.36 9.347-1.347 2.987-.987 5.8-2.48 8.2-4.44 2.413-1.96 4.427-4.36 5.8-7.067a19.352 19.352 0 0 0 1.587-4.24c.173-.733.306-1.466.4-2.213l.106-1.04.04-1.267zm6.667.147l-.04 1.333c-.04.534-.08 1.094-.133 1.614a28.27 28.27 0 0 1-.547 3c-.467 1.986-1.187 3.893-2.093 5.706-1.827 3.614-4.44 6.76-7.52 9.267-3.094 2.507-6.654 4.373-10.4 5.587a34.185 34.185 0 0 1-11.574 1.6c-.813-.014-1.986-.12-2.92-.227a35.635 35.635 0 0 1-2.906-.467 32.105 32.105 0 0 1-5.64-1.746c-3.654-1.507-7.027-3.76-9.787-6.587a29.748 29.748 0 0 1-6.387-9.84 29.828 29.828 0 0 1-2.053-11.453h5.333c.147 3.56-.413 7.146-1.56 10.573-1.186 3.4-3.04 6.627-5.506 9.373-2.44 2.774-5.6 4.947-9.027 6.36-1.72.72-3.507 1.227-5.307 1.574-1.84.333-3.573.48-5.506.493l-1.214-.04c-.426-.013-.933-.067-1.386-.093-.947-.094-1.814-.187-2.72-.36a27.081 27.081 0 0 1-5.307-1.467c-3.453-1.347-6.693-3.507-9.147-6.333-2.466-2.814-4.226-6.12-5.306-9.56a31.893 31.893 0 0 1-1.347-10.52 2.649 2.649 0 0 1 2.533-2.787 2.647 2.647 0 0 1 2.787 2.52v.04l.013.227c.134 4.48-.893 8.986-2.853 13.013-1.96 4.04-4.827 7.613-8.32 10.453-3.507 2.814-7.653 4.84-12.027 5.92-2.186.534-4.426.84-6.653.934l-.84.026h-.493l-.374-.013c-.506-.013-.986-.013-1.613-.067-1.2-.08-2.28-.2-3.4-.4-8.907-1.506-17.067-7.026-21.667-14.92-2.28-3.933-3.68-8.466-3.786-13.093L.533 93.173V66.947l.014-.374.026-.76c.04-1.026.027-1.973.16-3.12.16-2.24.494-4.36.894-6.466a55.393 55.393 0 0 1 4-12.227C9.2 36.2 14.453 29.293 20.64 23.52c6.16-5.8 13.32-10.427 20.893-14.053 3.774-1.814 7.707-3.307 11.694-4.574A91.227 91.227 0 0 1 65.4 1.867C69.52 1.12 73.667.613 77.84.4c2.107-.16 4.107-.147 6.32-.187 2.027.054 4 .054 6.16.214a96.86 96.86 0 0 1 12.453 1.533c4.12.76 8.187 1.747 12.16 3.067 7.974 2.546 15.64 6.173 22.627 10.88 7 4.68 13.267 10.546 18.307 17.426 5.026 6.854 8.733 14.814 10.373 23.28.2 1.067.347 2.12.52 3.187.147 1.067.227 2.147.333 3.213.147 2.147.174 4.347.16 6.307v12.107l-.013 24.24v.093z" fill="#231F20"/>
        <path d="M140.973 98.107c-15.933 3.56-35.666 5.653-57.04 5.653-21.4 0-41.16-2.08-57.12-5.653" fill="#FFF"/>
        <path d="M141.347 100.08s-1.747.44-4.814 1.16c-1.533.36-3.386.787-5.52 1.293-2.106.547-4.613.907-7.306 1.334-2.707.426-5.654.88-8.747 1.36-3.107.32-6.387.626-9.773.92-1.694.146-3.427.293-5.16.453-1.76.093-3.52.133-5.307.187-3.6.106-7.253.2-10.907.306-3.586-.106-7.186-.2-10.72-.306-1.76-.054-3.506-.094-5.253-.187-1.747-.16-3.48-.307-5.187-.453a586.61 586.61 0 0 1-9.813-.92c-3.093-.48-6.013-.934-8.707-1.347-2.693-.427-5.16-.773-7.306-1.347-2.16-.493-4.04-.933-5.6-1.293-3.094-.72-4.84-1.173-4.84-1.173a1.998 1.998 0 0 1-1.44-2.44 1.985 1.985 0 0 1 2.173-1.48l.133.013s1.774.213 4.854.653c1.533.227 3.4.494 5.546.8 2.134.374 4.587.507 7.227.787 2.653.28 5.52.56 8.56.867 3.027.173 6.227.36 9.547.546 1.64.094 3.32.2 5.026.307 1.734.04 3.48.067 5.24.093 3.547.08 7.134.147 10.72.214 3.534-.067 7.054-.134 10.52-.214 1.747-.026 3.494-.053 5.2-.093 1.707-.093 3.4-.2 5.067-.307 3.32-.186 6.533-.373 9.587-.546 3.013-.307 5.866-.587 8.506-.854 2.627-.28 5.054-.413 7.227-.786 2.173-.32 4.053-.6 5.613-.827 3.12-.44 4.907-.653 4.907-.653a1.996 1.996 0 0 1 2.227 1.746c.133 1-.52 1.934-1.48 2.187M86.88 3.627l.333 71.933c.014 1.84-1.48 3.333-3.32 3.347a3.343 3.343 0 0 1-3.346-3.32v-.027l.333-71.933c.013-1.667 1.36-3 3.013-3a3.01 3.01 0 0 1 2.987 3m-23 45.773c0 4.733-3.84 8.56-8.573 8.56-4.734 0-8.574-3.827-8.574-8.56a8.567 8.567 0 0 1 8.574-8.573A8.567 8.567 0 0 1 63.88 49.4m57.147 0c0 4.733-3.84 8.56-8.574 8.56-4.733 0-8.573-3.827-8.573-8.56a8.567 8.567 0 0 1 8.573-8.573 8.567 8.567 0 0 1 8.574 8.573" fill="#231F20"/>
    </g>
</svg>
