<svg width="167" height="167" xmlns="http://www.w3.org/2000/svg">
    <title>
        mo
    </title>
    <g fill="none" fill-rule="evenodd">
        <path d="M163.572 132.24c0 17.333-12.536 31.387-28 31.387-17.333 0-28-16.734-28-34.054 0 15.947-8.667 31.56-24 31.56-16.667 0-24-15.613-24-31.56 0 17.32-11.667 34.054-28.333 34.054-15.464 0-27.692-15.36-27.692-32.694l.025-47.306c0-44.187 35.817-80 80-80s80 35.813 80 80v48.613" fill="#FFF" fill-rule="nonzero"/>
        <path d="M160.239 132.16l-.014-27.653-.005-13.867-.003-6.933c-.049-2.227-.088-4.427-.302-6.64-.756-8.827-3.006-17.52-6.76-25.534-3.728-8.026-8.816-15.44-15.058-21.72a77.636 77.636 0 0 0-21.521-15.333c-7.988-3.813-16.65-6.187-25.441-7.08l-3.238-.24c-1.113-.067-2.298-.067-3.444-.107l-.866-.026-.748.026-1.66.04c-1.107.014-2.212.08-3.314.174-4.41.333-8.802 1-13.086 2.106A77.508 77.508 0 0 0 40.676 20.16a77.733 77.733 0 0 0-19.007 18.36c-5.257 7.12-9.178 15.213-11.66 23.707-1.226 4.24-2.14 8.586-2.59 13-.206 2.2-.402 4.253-.424 6.626l-.046 1.734-.002 1.653-.004 3.467-.027 27.733-.013 13.867c-.034 4.306.633 8.453 2.146 12.4 1.486 3.92 3.715 7.546 6.564 10.52 2.832 2.986 6.399 5.146 10.198 6.266.482.187.932.267 1.372.334l1.33.266c.534.067 1.142.08 1.708.12l.864.054.218.013.108.013c.082 0-.324-.013-.108-.013l.373-.027c1.99-.066 3.99-.293 5.879-.946 3.797-1.187 7.326-3.44 10.121-6.52 2.85-3.014 5.09-6.694 6.628-10.667 1.567-3.96 2.437-8.24 2.6-12.533l.001-.014h5.334l.176 2.614c.08.866.198 1.733.293 2.586.256 1.72.579 3.427 1.028 5.067.86 3.32 2.137 6.48 3.924 9.213.888 1.36 1.92 2.587 3.021 3.72.55.56 1.188 1.014 1.768 1.534.63.453 1.299.84 1.936 1.28l2.095.973c.741.213 1.483.48 2.21.693.72.107 1.4.254 2.14.387l2.762.147 2.163-.12c.768-.094 1.516-.28 2.278-.414.736-.213 1.458-.48 2.192-.706.684-.36 1.395-.667 2.072-1.04.636-.44 1.326-.814 1.935-1.307.584-.533 1.247-.973 1.781-1.573a25.905 25.905 0 0 0 3.088-3.734 28.023 28.023 0 0 0 2.419-4.36c.701-1.533 1.264-3.133 1.739-4.773.49-1.64.848-3.32 1.132-5.027.105-.853.237-1.706.325-2.56l.19-2.6a2.658 2.658 0 0 1 2.705-2.626 2.659 2.659 0 0 1 2.62 2.493l.008.133.166 2.787c.092.933.246 1.853.362 2.773.322 1.84.729 3.654 1.3 5.414.556 1.76 1.205 3.493 2.025 5.133.36.84.844 1.613 1.3 2.4.428.813.967 1.547 1.492 2.28.493.76 1.092 1.427 1.68 2.093.556.72 1.217 1.307 1.864 1.92.616.64 1.337 1.147 2.035 1.68.673.574 1.45.974 2.193 1.427.724.493 1.548.773 2.33 1.147.77.4 1.627.573 2.443.84.839.32 1.607.346 2.396.52.688.2 1.804.186 2.776.253l.746.027.373.026h.048c.052 0-.372-.013-.183-.013h.102l.161-.013 1.296-.08c.87 0 1.715-.2 2.567-.334 1.701-.32 3.348-.88 4.937-1.573.801-.333 1.537-.813 2.315-1.213.745-.454 1.446-.974 2.178-1.454l2.015-1.706c.607-.64 1.25-1.24 1.836-1.907.54-.707 1.144-1.36 1.653-2.08.476-.76 1.024-1.467 1.455-2.24.405-.8.893-1.547 1.244-2.373.333-.827.753-1.627 1.028-2.48.259-.867.6-1.694.804-2.574.184-.866.441-1.76.577-2.613.104-.867.254-1.653.348-2.573l.138-2.907zm6.662.227l-.128 2.986c-.094 1.067-.272 2.254-.418 3.36-.176 1.12-.462 2.147-.694 3.227-.25 1.067-.646 2.093-.97 3.133-.338 1.054-.831 2.04-1.247 3.054-.432 1.013-1.015 1.946-1.521 2.92-.531.973-1.194 1.866-1.791 2.786-.633.907-1.368 1.747-2.057 2.6-.738.827-1.543 1.6-2.318 2.387a79.383 79.383 0 0 1-2.562 2.147c-.93.626-1.834 1.28-2.794 1.866-.996.507-1.952 1.107-2.99 1.547-2.06.893-4.214 1.613-6.435 2.013-1.115.187-2.223.414-3.355.427l-1.689.093-.21.014h-.409l-.373-.027-.745-.053c-1.016-.094-1.906-.08-3.164-.36-1.16-.24-2.395-.4-3.428-.8-1.068-.374-2.171-.654-3.172-1.174-1.016-.493-2.068-.92-2.995-1.56-.95-.6-1.927-1.16-2.77-1.893-.874-.693-1.763-1.373-2.52-2.187-.79-.773-1.586-1.546-2.254-2.413-.704-.853-1.41-1.693-1.988-2.613-.615-.907-1.235-1.8-1.727-2.76-.522-.947-1.066-1.894-1.472-2.894a38.8 38.8 0 0 1-2.212-6.026c-.576-2.067-.961-4.16-1.242-6.267-.095-1.053-.224-2.12-.284-3.173l-.062-3.174h5.334l.001 2.947c-.043.973-.139 1.947-.208 2.933-.216 1.96-.52 3.907-.985 5.84a39.276 39.276 0 0 1-1.852 5.667 33.282 33.282 0 0 1-2.767 5.4 27.865 27.865 0 0 1-3.835 4.867c-.696.773-1.566 1.4-2.349 2.106-.815.667-1.745 1.214-2.621 1.814-.926.533-1.907.986-2.864 1.466-1.014.36-2.027.734-3.055 1.04-1.05.214-2.1.467-3.156.6l-1.592.12-.797.054-.399.026h-.149l-.024.014-.227-.014-.172-.013-2.761-.173a103.592 103.592 0 0 1-3.303-.6c-1.047-.294-2.044-.654-3.061-.987-.979-.44-1.942-.92-2.902-1.4-.892-.587-1.81-1.16-2.665-1.8-.797-.693-1.653-1.347-2.385-2.107a26.714 26.714 0 0 1-3.828-4.933c-2.136-3.533-3.512-7.347-4.367-11.213-.415-1.934-.677-3.88-.859-5.827-.056-.973-.137-1.947-.168-2.92l.016-2.907v-.213a2.662 2.662 0 0 1 2.686-2.653 2.658 2.658 0 0 1 2.648 2.866l-.002.014c.234 9.866-3.086 19.906-9.849 27.546-3.377 3.814-7.841 6.814-12.837 8.44-2.482.867-5.122 1.227-7.736 1.347l-.492.027c.144.013-.334 0-.324 0l-.108-.014-.218-.013-.864-.053c-.585-.04-1.134-.054-1.749-.107l-2.077-.373c-.7-.12-1.386-.254-1.992-.48-5.064-1.467-9.646-4.32-13.174-8.027-3.556-3.693-6.245-8.107-8.036-12.827-1.817-4.693-2.629-9.826-2.589-14.76l.001-13.866.003-27.72V85.24L.2 83.413l.043-1.72c.016-2.253.224-4.8.456-7.2.488-4.8 1.474-9.533 2.808-14.16 2.692-9.253 6.96-18.053 12.672-25.826A84.508 84.508 0 0 1 36.85 14.52 84.163 84.163 0 0 1 63.104 2.733C67.776 1.547 72.56.813 77.362.453c1.2-.093 2.402-.173 3.606-.186l1.806-.04.452-.014h.533l.865.014c1.164.04 2.292.053 3.486.106l3.676.28c9.597.987 19.018 3.574 27.718 7.734a84.909 84.909 0 0 1 23.408 16.706c6.782 6.854 12.312 14.907 16.362 23.64 4.076 8.734 6.52 18.214 7.333 27.814.228 2.386.272 4.8.319 7.2l-.003 6.933-.007 13.867-.012 27.733c0 .04-.001.107-.004.147z" fill="#231F20" fill-rule="nonzero"/>
        <path d="M140.633 122.72c-15.933 4.48-35.665 7.12-57.029 7.12-21.405 0-41.17-2.627-57.119-7.12" fill="#FFF" fill-rule="nonzero"/>
        <path d="M141.1 124.667s-1.727.52-4.763 1.4c-1.52.426-3.364.946-5.48 1.533-2.08.68-4.588 1.107-7.294 1.64-2.718.507-5.66 1.067-8.774 1.653-3.117.387-6.404.76-9.813 1.12-1.704.174-3.436.36-5.19.547-1.758.12-3.54.173-5.337.24-3.61.12-7.278.24-10.945.373-3.624-.106-7.164-.066-10.81-.306-1.807-.08-3.603-.174-5.367-.307-1.756-.16-3.49-.307-5.196-.467-3.414-.28-6.692-.8-9.803-1.2-3.1-.533-6.037-.96-8.719-1.56-2.686-.56-5.145-1.066-7.297-1.666-2.156-.587-4.044-1.014-5.572-1.507-3.064-.947-4.797-1.52-4.797-1.52a1.997 1.997 0 0 1-1.274-2.52 1.996 1.996 0 0 1 2.274-1.347l.084.014s1.756.333 4.8.986c1.51.36 3.39.627 5.521 1.014 2.127.4 4.563.693 7.196 1.106 1.315.214 2.695.374 4.127.534 1.426.173 2.901.346 4.418.533 1.523.133 3.087.267 4.686.413 1.598.147 3.228.32 4.894.4 1.664.107 3.356.214 5.068.32 1.706.067 3.431.147 5.17.214 3.44.2 7.116.133 10.7.2l10.562-.28c1.752-.04 3.488-.094 5.206-.134 1.709-.133 3.397-.266 5.058-.4 3.326-.266 6.539-.506 9.588-.746 2.995-.427 5.836-.8 8.466-1.134 2.625-.373 5.044-.56 7.208-1.066 2.158-.414 4.041-.787 5.59-1.08 3.102-.6 4.883-.894 4.883-.894a1.998 1.998 0 0 1 2.316 1.627 2.016 2.016 0 0 1-1.384 2.267" fill="#231F20" fill-rule="nonzero"/>
        <path d="M109.56 72.96c0 14.36-11.641 26-26 26-14.36 0-26-11.64-26-26s11.64-26 26-26c14.359 0 26 11.64 26 26" fill="#FFF" fill-rule="nonzero"/>
        <path d="M109.56 72.96c0 14.36-11.641 26-26 26-14.36 0-26-11.64-26-26s11.64-26 26-26c14.359 0 26 11.64 26 26z" stroke="#231F20" stroke-width="6.667"/>
        <path d="M93.56 71.813c0 5.52-4.477 10-10 10-5.524 0-10-4.48-10-10s4.476-10 10-10c5.523 0 10 4.48 10 10" fill="#231F20" fill-rule="nonzero"/>
    </g>
</svg>
