<svg width="168" height="167" xmlns="http://www.w3.org/2000/svg">
    <title>
        mon
    </title>
    <g fill="none" fill-rule="evenodd">
        <path d="M4 140.867c0-22.467 35.653-29.88 79.827-29.88 44.186 0 80.186 10.053 80.186 30.4 0 13.746-12.36 22.226-27.826 22.226-17.334 0-28-9.026-28-22.786 0 12.666-8.667 20.813-24 20.813-16.667 0-24-8.147-24-20.813 0 13.76-11.667 22.786-28.334 22.786-15.466 0-27.853-9-27.853-22.746" fill="#FFF" fill-rule="nonzero"/>
        <path d="M7.333 140.867c0 2.88.68 5.666 2.014 8.146 1.333 2.467 3.293 4.614 5.666 6.307 2.36 1.707 5.12 2.96 8.04 3.773 1.454.414 2.947.707 4.467.907 1.533.187 3 .28 4.613.28 3.12.013 6.227-.32 9.187-1.067 2.96-.746 5.747-1.96 8.187-3.613 2.426-1.653 4.44-3.813 5.813-6.347 1.387-2.52 2.133-5.413 2.2-8.426h5.333v.013c.16 2.747.6 5.427 1.627 7.76.987 2.333 2.48 4.307 4.467 5.76 1.973 1.453 4.346 2.493 6.933 3.093a30 30 0 0 0 4.013.667c1.414.12 2.627.187 4.2.187 1.307 0 2.747-.054 4.08-.187a27.483 27.483 0 0 0 3.974-.707c2.573-.64 4.946-1.733 6.96-3.213 2.013-1.48 3.586-3.44 4.64-5.747 1.106-2.28 1.626-4.906 1.773-7.626h5.333v.013c.08 2.48.52 4.907 1.44 7.107a17.342 17.342 0 0 0 3.92 5.826c3.4 3.307 8.12 5.24 13.094 6.04 1.253.2 2.52.334 3.8.414.64.026 1.2.066 1.893.066h1.04l.907-.013c2.546-.067 5.066-.373 7.493-.973 4.84-1.16 9.307-3.587 12.32-7.107a16.296 16.296 0 0 0 3.227-6c.333-1.067.533-2.307.613-3.333.093-1.334.08-2.347-.08-3.454-.573-4.36-3.667-8.24-7.733-11.173-4.067-2.973-8.947-5.147-13.96-6.88-5.04-1.733-10.294-3.027-15.614-4.027-10.653-2-21.56-2.92-32.493-3.24-5.44-.16-10.96-.12-16.427.04-5.48.16-10.946.454-16.386.947-5.427.48-10.84 1.16-16.16 2.12-5.307.973-10.56 2.253-15.52 4.053-4.947 1.787-9.694 4.147-13.294 7.427-1.786 1.64-3.24 3.507-4.186 5.56a15.077 15.077 0 0 0-1.08 3.2c-.107.56-.2 1.12-.254 1.693l-.066.774-.014.96zm-6.666-.094l.026-1.026.107-1.294c.093-.8.213-1.613.387-2.413a21.368 21.368 0 0 1 1.6-4.627c1.4-2.946 3.466-5.493 5.773-7.56 4.653-4.146 10.093-6.666 15.52-8.6 5.453-1.92 11.013-3.2 16.573-4.186 5.56-.987 11.147-1.64 16.734-2.107 5.586-.467 11.16-.733 16.746-.867 5.587-.12 11.134-.16 16.734-.04 11.186.254 22.386 1.134 33.493 3.134 5.547 1.026 11.08 2.306 16.52 4.133 5.427 1.84 10.813 4.133 15.733 7.64 2.454 1.76 4.787 3.853 6.68 6.44 1.907 2.573 3.347 5.707 3.827 9.013.267 1.627.267 3.387.16 4.827a21.894 21.894 0 0 1-.827 4.813 23.054 23.054 0 0 1-4.52 8.52c-4.186 4.96-10.053 7.854-15.906 9.254a40.054 40.054 0 0 1-8.947 1.093c-.387 0-.707.013-1.16 0l-1.027-.027a44.881 44.881 0 0 1-2.253-.12c-1.48-.133-2.96-.32-4.44-.586-2.947-.547-5.88-1.427-8.68-2.747-2.773-1.347-5.413-3.133-7.6-5.44-2.187-2.28-3.92-5.053-4.973-8.027-1.08-2.973-1.467-6.106-1.427-9.133v-.013a2.648 2.648 0 0 1 2.493-2.814 2.658 2.658 0 0 1 2.827 2.48v.04l.013.294c.147 3.293-.32 6.733-1.6 9.986-1.306 3.24-3.48 6.2-6.24 8.4-2.733 2.24-5.973 3.654-9.2 4.534a33.3 33.3 0 0 1-4.893.933c-1.653.187-3.227.28-4.933.293a50.969 50.969 0 0 1-4.8-.28 37.176 37.176 0 0 1-4.88-.88c-3.227-.826-6.52-2.186-9.294-4.453-2.786-2.227-4.92-5.32-6.106-8.6-1.16-3.293-1.534-6.68-1.387-9.92v-.013a2.665 2.665 0 0 1 2.56-2.76 2.669 2.669 0 0 1 2.773 2.56v.2c.094 3.746-.653 7.613-2.36 11.093-1.72 3.467-4.346 6.453-7.4 8.707-3.066 2.266-6.546 3.813-10.093 4.8-3.56.986-7.213 1.453-10.827 1.506a40.18 40.18 0 0 1-10.92-1.346c-3.573-.974-7.066-2.52-10.2-4.747-3.093-2.227-5.813-5.187-7.653-8.667-1.853-3.48-2.76-7.453-2.733-11.306v-.094z" fill="#231F20" fill-rule="nonzero"/>
        <path d="M164.187 105.667c0 13.746-12.534 24.893-28 24.893-17.334 0-28-13.267-28-27.013 0 12.653-8.667 25.04-24 25.04-16.667 0-24-12.387-24-25.04 0 13.746-11.667 27.013-28.334 27.013-15.466 0-27.693-12.187-27.693-25.933l.027-37.534c0-35.053 35.826-63.466 80-63.466 44.186 0 80 28.413 80 63.466v38.574" fill="#FFF" fill-rule="nonzero"/>
        <path d="M160.853 105.6l-.013-24.173v-12.12a81.488 81.488 0 0 0-.147-5.8c-.106-.934-.16-1.88-.293-2.814l-.467-2.786c-1.44-7.427-4.72-14.454-9.226-20.614-4.52-6.146-10.214-11.493-16.654-15.773-6.413-4.32-13.493-7.68-20.906-10.04-3.694-1.213-7.494-2.12-11.32-2.84a89.869 89.869 0 0 0-11.574-1.4c-1.866-.16-3.933-.16-5.946-.2-1.827.04-3.867.027-5.787.173-3.907.2-7.773.68-11.613 1.387a84.75 84.75 0 0 0-11.334 2.8c-3.693 1.187-7.346 2.547-10.84 4.227-7 3.346-13.573 7.586-19.173 12.866-5.613 5.24-10.32 11.427-13.493 18.32a48.404 48.404 0 0 0-3.52 10.76c-.374 1.854-.654 3.734-.787 5.52-.12.854-.12 1.934-.16 2.934l-.027.76-.013.373c0 .053.013-.133 0-.013v1.8l-.027 24.226V105.2c.08 3.453 1.134 6.88 2.88 9.92 3.534 6.12 9.987 10.533 17.027 11.707 7.04 1.213 14.653-.4 20.28-4.867 5.733-4.28 9.52-11.213 9.8-18.413h5.333c.16 2.973.667 5.906 1.694 8.613.973 2.707 2.426 5.187 4.333 7.173 1.907 1.987 4.187 3.547 6.8 4.52 1.293.48 2.653.827 4.067 1.054.68.133 1.426.2 2.106.253.347.013.654.053 1.04.067l1.214.013c1.306.013 2.813-.08 4.173-.333 1.387-.227 2.733-.6 4.013-1.12 2.587-1.014 4.88-2.627 6.84-4.627 1.947-2 3.494-4.453 4.547-7.133 1.107-2.654 1.693-5.56 1.84-8.48 0-1.48 1.2-2.667 2.667-2.68a2.67 2.67 0 0 1 2.666 2.6v.08c.08 3.186.814 6.333 2.094 9.226 1.266 2.894 3.093 5.534 5.36 7.694a24.051 24.051 0 0 0 7.84 5c1.453.573 2.973 1 4.52 1.293.773.133 1.56.253 2.346.32.814.08 1.414.133 2.36.133 3.2.067 6.36-.36 9.36-1.346 2.987-.974 5.787-2.467 8.2-4.44 2.4-1.947 4.414-4.36 5.787-7.067a19.246 19.246 0 0 0 2-6.453l.093-1.027.04-1.28zm6.667.16l-.04 1.333c-.04.534-.08 1.08-.133 1.614-.12 1-.294 2.013-.534 3a26.734 26.734 0 0 1-2.093 5.693c-1.827 3.613-4.44 6.773-7.533 9.28-3.094 2.507-6.654 4.373-10.387 5.573a33.978 33.978 0 0 1-11.587 1.6c-.8-.013-1.986-.106-2.92-.213-.973-.12-1.933-.28-2.906-.48-1.92-.4-3.814-.973-5.64-1.733-3.654-1.52-7.027-3.76-9.774-6.6a29.485 29.485 0 0 1-6.386-9.827 29.636 29.636 0 0 1-2.067-11.453h5.333c.147 3.546-.4 7.146-1.56 10.56-1.186 3.413-3.026 6.626-5.493 9.386-2.453 2.76-5.6 4.934-9.027 6.36a26.717 26.717 0 0 1-5.32 1.56 29.895 29.895 0 0 1-5.506.494l-1.214-.04c-.413-.014-.92-.054-1.386-.094-.934-.08-1.8-.186-2.707-.346-1.8-.32-3.587-.8-5.32-1.467-3.453-1.347-6.693-3.52-9.133-6.347-2.48-2.8-4.24-6.12-5.32-9.546a31.893 31.893 0 0 1-1.347-10.52 2.678 2.678 0 0 1 2.533-2.8 2.687 2.687 0 0 1 2.8 2.533v.267c.134 4.48-.88 8.986-2.84 13.013A30.627 30.627 0 0 1 51.68 127a30.899 30.899 0 0 1-12.027 5.92 32.941 32.941 0 0 1-6.653.947l-.84.013-.48.013-.387-.013c-.506-.013-.973-.013-1.6-.067-1.213-.08-2.28-.2-3.413-.413-8.907-1.507-17.067-7.013-21.653-14.907-2.28-3.946-3.68-8.48-3.8-13.106L.813 93.173V66.947l.014-.387.026-.747c.04-1.026.027-1.973.16-3.12.174-2.24.494-4.36.907-6.466A55.131 55.131 0 0 1 5.907 44c3.573-7.8 8.84-14.707 15.013-20.48 6.173-5.813 13.333-10.427 20.893-14.053C45.6 7.64 49.533 6.16 53.52 4.88a93.271 93.271 0 0 1 12.173-3.013A97.488 97.488 0 0 1 78.12.4c2.12-.16 4.107-.147 6.32-.187 2.027.054 4 .054 6.16.214 4.24.24 8.347.746 12.467 1.533 4.106.76 8.173 1.747 12.16 3.053 7.973 2.56 15.626 6.187 22.613 10.894 7 4.68 13.28 10.546 18.307 17.413 5.026 6.867 8.746 14.827 10.386 23.293.187 1.054.347 2.12.52 3.187.147 1.067.214 2.133.32 3.213.147 2.134.187 4.334.174 6.294l-.014 12.12-.013 24.24v.093z" fill="#231F20" fill-rule="nonzero"/>
        <path d="M141.253 98.107c-15.933 3.546-35.666 5.653-57.026 5.653-21.414 0-41.174-2.093-57.12-5.653" fill="#FFF" fill-rule="nonzero"/>
        <path d="M141.627 100.067s-1.747.453-4.8 1.173c-1.534.36-3.4.787-5.534 1.28-2.106.56-4.6.92-7.306 1.347-2.707.426-5.64.88-8.747 1.36a787.57 787.57 0 0 1-9.773.92c-1.694.146-3.414.293-5.16.453-1.747.093-3.52.133-5.307.187-3.6.093-7.253.2-10.907.306-3.586-.106-7.173-.213-10.706-.306-1.774-.054-3.52-.094-5.254-.187-1.76-.16-3.493-.307-5.2-.453-3.413-.294-6.706-.6-9.813-.92-3.093-.48-6-.934-8.693-1.347-2.694-.427-5.16-.787-7.32-1.347-2.16-.506-4.04-.933-5.587-1.293-3.093-.733-4.853-1.187-4.853-1.187-1.067-.266-1.707-1.36-1.44-2.426a2.003 2.003 0 0 1 2.173-1.494l.133.027s1.787.213 4.867.64c1.533.227 3.4.507 5.533.813 2.134.374 4.587.507 7.24.787l8.547.867c3.04.173 6.24.36 9.547.533 1.653.107 3.333.213 5.026.32 1.734.027 3.48.053 5.254.093 3.533.067 7.12.147 10.72.214 3.52-.067 7.04-.147 10.52-.214 1.746-.026 3.48-.066 5.2-.093 1.706-.107 3.386-.213 5.053-.307 3.333-.186 6.547-.373 9.587-.546 3.026-.307 5.866-.6 8.506-.867 2.64-.28 5.054-.4 7.227-.773l5.613-.827c3.12-.44 4.907-.653 4.907-.653 1.093-.147 2.093.64 2.24 1.733a2.009 2.009 0 0 1-1.493 2.187" fill="#231F20" fill-rule="nonzero"/>
        <path d="M108.667 55.787c0 13.533-10.96 24.493-24.494 24.493-13.52 0-24.493-10.96-24.493-24.493 0-13.52 10.973-24.494 24.493-24.494 13.534 0 24.494 10.974 24.494 24.494" fill="#FFF" fill-rule="nonzero"/>
        <path d="M108.667 55.787c0 13.533-10.96 24.493-24.494 24.493-13.52 0-24.493-10.96-24.493-24.493 0-13.52 10.973-24.494 24.493-24.494 13.534 0 24.494 10.974 24.494 24.494z" stroke="#231F20" stroke-width="6.667"/>
        <path d="M93.6 54.707c0 5.2-4.213 9.426-9.427 9.426-5.2 0-9.413-4.226-9.413-9.426s4.213-9.414 9.413-9.414c5.214 0 9.427 4.214 9.427 9.414" fill="#231F20" fill-rule="nonzero"/>
    </g>
</svg>
