<svg width="168" height="167" xmlns="http://www.w3.org/2000/svg">
    <title>
        mu
    </title>
    <g fill="none">
        <path d="M163.905 132.24c0 17.333-12.536 31.387-28 31.387-17.333 0-28-16.734-28-34.054 0 15.947-8.666 31.56-24 31.56-16.666 0-24-15.613-24-31.56 0 17.32-11.666 34.054-28.333 34.054-15.464 0-27.692-15.36-27.692-32.694l.025-47.306c0-44.187 35.818-80 80-80 44.183 0 80 35.813 80 80v48.613" fill="#FFF"/>
        <path d="M160.572 132.16l-.013-27.653-.006-13.867-.002-6.933c-.05-2.227-.088-4.427-.303-6.64-.756-8.827-3.005-17.52-6.76-25.534-3.728-8.026-8.816-15.44-15.057-21.72a77.636 77.636 0 0 0-21.522-15.333c-7.988-3.813-16.649-6.187-25.441-7.08l-3.237-.24c-1.114-.067-2.299-.067-3.444-.107l-.867-.026-.748.026-1.66.04c-1.107.014-2.212.08-3.313.174-4.411.333-8.803 1-13.087 2.106A77.508 77.508 0 0 0 41.009 20.16a77.733 77.733 0 0 0-19.006 18.36c-5.258 7.12-9.179 15.213-11.659 23.707-1.228 4.24-2.141 8.586-2.592 13-.205 2.2-.401 4.253-.424 6.626l-.045 1.734-.003 1.653-.004 3.467-.027 27.733-.013 13.867c-.033 4.306.633 8.453 2.147 12.4 1.485 3.92 3.714 7.546 6.564 10.52 2.832 2.986 6.398 5.146 10.197 6.266.483.187.932.267 1.372.334l1.33.266c.534.067 1.142.08 1.709.12l.865.054.216.013.108.013c.083 0-.324-.013-.108-.013l.373-.027c1.991-.066 3.99-.293 5.879-.946 3.799-1.187 7.327-3.44 10.121-6.52 2.85-3.014 5.09-6.694 6.628-10.667 1.567-3.96 2.438-8.24 2.6-12.533l.002-.014h5.333l.176 2.614c.08.866.199 1.733.293 2.586.256 1.72.579 3.427 1.028 5.067.86 3.32 2.138 6.48 3.924 9.213.888 1.36 1.92 2.587 3.022 3.72.549.56 1.188 1.014 1.768 1.534.629.453 1.298.84 1.936 1.28l2.094.973c.742.213 1.483.48 2.211.693.72.107 1.399.254 2.139.387l2.762.147 2.163-.12c.768-.094 1.516-.28 2.279-.414.736-.213 1.457-.48 2.192-.706.684-.36 1.394-.667 2.072-1.04.636-.44 1.325-.814 1.934-1.307.584-.533 1.247-.973 1.782-1.573a25.905 25.905 0 0 0 3.088-3.734 28.023 28.023 0 0 0 2.418-4.36c.702-1.533 1.264-3.133 1.739-4.773.49-1.64.848-3.32 1.132-5.027.105-.853.237-1.706.325-2.56l.19-2.6a2.658 2.658 0 0 1 2.705-2.626 2.659 2.659 0 0 1 2.62 2.493l.008.133.167 2.787c.092.933.245 1.853.361 2.773.323 1.84.73 3.654 1.3 5.414.556 1.76 1.205 3.493 2.025 5.133.36.84.844 1.613 1.3 2.4.428.813.967 1.547 1.492 2.28.494.76 1.092 1.427 1.68 2.093.556.72 1.218 1.307 1.864 1.92.616.64 1.338 1.147 2.035 1.68.673.574 1.45.974 2.193 1.427.724.493 1.548.773 2.331 1.147.77.4 1.627.573 2.443.84.838.32 1.606.346 2.396.52.688.2 1.804.186 2.776.253l.745.027.373.026h.048c.052 0-.372-.013-.182-.013h.101l.161-.013 1.296-.08c.87 0 1.715-.2 2.567-.334 1.701-.32 3.348-.88 4.937-1.573.802-.333 1.538-.813 2.315-1.213.745-.454 1.447-.974 2.179-1.454l2.014-1.706c.607-.64 1.25-1.24 1.836-1.907.54-.707 1.144-1.36 1.654-2.08.476-.76 1.024-1.467 1.454-2.24.406-.8.894-1.547 1.244-2.373.334-.827.754-1.627 1.028-2.48.259-.867.6-1.694.806-2.574.182-.866.44-1.76.576-2.613.104-.867.253-1.653.348-2.573l.137-2.907zm6.663.227l-.128 2.986c-.095 1.067-.272 2.254-.419 3.36-.176 1.12-.461 2.147-.693 3.227-.251 1.067-.647 2.093-.97 3.133-.338 1.054-.832 2.04-1.248 3.054-.432 1.013-1.014 1.946-1.521 2.92-.53.973-1.193 1.866-1.79 2.786-.634.907-1.369 1.747-2.058 2.6-.737.827-1.543 1.6-2.317 2.387a79.383 79.383 0 0 1-2.563 2.147c-.93.626-1.833 1.28-2.793 1.866-.996.507-1.952 1.107-2.991 1.547-2.06.893-4.213 1.613-6.435 2.013-1.114.187-2.222.414-3.354.427l-1.69.093-.21.014h-.408l-.374-.027-.745-.053c-1.016-.094-1.905-.08-3.164-.36-1.16-.24-2.395-.4-3.428-.8-1.068-.374-2.17-.654-3.172-1.174-1.016-.493-2.068-.92-2.995-1.56-.949-.6-1.926-1.16-2.769-1.893-.875-.693-1.764-1.373-2.52-2.187-.79-.773-1.587-1.546-2.255-2.413-.704-.853-1.409-1.693-1.988-2.613-.614-.907-1.234-1.8-1.726-2.76-.523-.947-1.067-1.894-1.472-2.894a38.8 38.8 0 0 1-2.212-6.026c-.576-2.067-.962-4.16-1.243-6.267-.095-1.053-.224-2.12-.284-3.173l-.061-3.174h5.333l.001 2.947c-.042.973-.138 1.947-.208 2.933-.216 1.96-.52 3.907-.985 5.84a39.276 39.276 0 0 1-1.852 5.667 33.282 33.282 0 0 1-2.767 5.4 27.865 27.865 0 0 1-3.834 4.867c-.695.773-1.567 1.4-2.35 2.106-.814.667-1.745 1.214-2.621 1.814-.925.533-1.907.986-2.864 1.466-1.013.36-2.027.734-3.055 1.04-1.049.214-2.1.467-3.156.6l-1.592.12-.797.054-.399.026h-.149l-.024.014-.227-.014-.172-.013-2.761-.173a103.592 103.592 0 0 1-3.303-.6c-1.046-.294-2.044-.654-3.061-.987-.979-.44-1.941-.92-2.901-1.4-.892-.587-1.811-1.16-2.666-1.8-.797-.693-1.653-1.347-2.385-2.107a26.714 26.714 0 0 1-3.828-4.933c-2.136-3.533-3.512-7.347-4.367-11.213-.414-1.934-.677-3.88-.858-5.827-.056-.973-.138-1.947-.168-2.92l.016-2.907v-.213a2.662 2.662 0 0 1 2.685-2.653 2.658 2.658 0 0 1 2.648 2.866l-.001.014c.233 9.866-3.087 19.906-9.85 27.546-3.377 3.814-7.841 6.814-12.837 8.44-2.481.867-5.121 1.227-7.736 1.347l-.492.027c.144.013-.333 0-.324 0l-.108-.014-.217-.013-.864-.053c-.586-.04-1.135-.054-1.75-.107l-2.077-.373c-.7-.12-1.385-.254-1.992-.48-5.064-1.467-9.645-4.32-13.173-8.027-3.556-3.693-6.246-8.107-8.036-12.827-1.818-4.693-2.63-9.826-2.59-14.76l.002-13.866.002-27.72V85.24l.004-1.827.043-1.72c.016-2.253.224-4.8.456-7.2.488-4.8 1.475-9.533 2.808-14.16C6.532 51.08 10.8 42.28 16.512 34.507A84.508 84.508 0 0 1 37.184 14.52c7.988-5.4 16.91-9.4 26.255-11.787C68.11 1.547 72.895.813 77.696.453c1.2-.093 2.403-.173 3.607-.186l1.805-.04.452-.014h.533l.867.014c1.163.04 2.29.053 3.484.106l3.676.28c9.597.987 19.019 3.574 27.719 7.734a84.909 84.909 0 0 1 23.408 16.706c6.781 6.854 12.312 14.907 16.361 23.64 4.076 8.734 6.52 18.214 7.333 27.814.228 2.386.272 4.8.319 7.2l-.003 6.933-.006 13.867-.012 27.733c0 .04-.002.107-.004.147z" fill="#231F20"/>
        <path d="M140.967 122.72c-15.934 4.48-35.666 7.12-57.03 7.12-21.405 0-41.169-2.627-57.118-7.12" fill="#FFF"/>
        <path d="M141.433 124.667s-1.726.52-4.762 1.4c-1.52.426-3.364.946-5.48 1.533-2.08.68-4.588 1.107-7.295 1.64-2.717.507-5.66 1.067-8.773 1.653-3.118.387-6.404.76-9.814 1.12-1.704.174-3.436.36-5.19.547-1.758.12-3.54.173-5.336.24-3.611.12-7.279.24-10.946.373-3.624-.106-7.164-.066-10.81-.306-1.807-.08-3.603-.174-5.367-.307-1.756-.16-3.49-.307-5.196-.467-3.413-.28-6.692-.8-9.803-1.2-3.1-.533-6.037-.96-8.718-1.56-2.687-.56-5.146-1.066-7.298-1.666-2.156-.587-4.044-1.014-5.57-1.507a291.362 291.362 0 0 1-4.799-1.52 1.997 1.997 0 0 1-1.273-2.52 1.996 1.996 0 0 1 2.273-1.347l.084.014s1.756.333 4.8.986c1.51.36 3.39.627 5.521 1.014 2.127.4 4.563.693 7.196 1.106 1.315.214 2.695.374 4.127.534 1.427.173 2.903.346 4.419.533 1.522.133 3.086.267 4.685.413 1.599.147 3.228.32 4.895.4 1.664.107 3.356.214 5.068.32 1.705.067 3.43.147 5.169.214 3.44.2 7.116.133 10.7.2l10.563-.28c1.752-.04 3.488-.094 5.205-.134 1.71-.133 3.397-.266 5.059-.4 3.325-.266 6.538-.506 9.588-.746 2.994-.427 5.836-.8 8.465-1.134 2.625-.373 5.044-.56 7.208-1.066 2.159-.414 4.041-.787 5.59-1.08 3.102-.6 4.883-.894 4.883-.894a1.998 1.998 0 0 1 2.316 1.627 2.016 2.016 0 0 1-1.384 2.267M86.608 3.627l.605 66.093a3.348 3.348 0 0 1-3.302 3.373 3.34 3.34 0 0 1-3.364-3.306v-.067l.606-66.093A2.722 2.722 0 0 1 83.905.92a2.727 2.727 0 0 1 2.703 2.707" fill="#231F20"/>
        <path d="M112.473 8.467l.375 31.44.11 15.226.06 8.32c.009 1.414.015 2.854.022 4.294l.001.546-.026.707-.052 1.093-.055 1.107-.181 1.293c-.214 1.787-.643 3.36-1.134 4.974-.289.786-.564 1.6-.88 2.373-.368.773-.734 1.547-1.104 2.307a29.453 29.453 0 0 1-6.396 8.08c-5.189 4.653-12.233 7.373-19.333 7.4l-2.523-.134c-.82-.066-1.826-.24-2.728-.373-1.804-.36-3.477-.8-5.134-1.453a29.423 29.423 0 0 1-15.343-13.52c-1.621-3.014-2.639-6.28-3.105-9.56l-.182-1.227-.065-1.24c-.032-.787-.1-1.693-.08-2.373l.021-4.294.062-8.32c.038-5.4.076-10.506.11-15.226l.374-31.44a2.66 2.66 0 0 1 2.698-2.627 2.66 2.66 0 0 1 2.635 2.627l.375 31.44c.034 4.72.072 9.826.11 15.226l.062 8.32.021 4.294c-.016.773.055 1.333.079 1.986l.049.96.152.96c.375 2.547 1.168 5.08 2.439 7.414a23.144 23.144 0 0 0 4.998 6.24 22.837 22.837 0 0 0 6.944 4.173c1.254.493 2.635.84 3.907 1.093.653.067 1.192.214 1.937.267l2.187.12c5.5 0 10.923-2.067 14.976-5.653a23.17 23.17 0 0 0 4.999-6.24l.864-1.787.689-1.84c.38-1.24.736-2.547.873-3.693l.152-.88.059-1.094.059-1.093.013-.28.008-.133.003-.067c-.007.307-.002.04-.003.093l.001-.546.022-4.294.06-8.32.11-15.226.375-31.44a2.658 2.658 0 0 1 2.699-2.627 2.661 2.661 0 0 1 2.634 2.627" fill="#231F20"/>
    </g>
</svg>
