<svg width="168" height="167" xmlns="http://www.w3.org/2000/svg">
    <title>
        mun
    </title>
    <g fill="none">
        <path d="M4.28 140.867c0-22.467 35.653-29.88 79.84-29.88 44.187 0 80.173 10.053 80.173 30.4 0 13.746-12.36 22.226-27.813 22.226-17.333 0-28-9.026-28-22.786 0 12.666-8.667 20.813-24 20.813-16.667 0-24-8.147-24-20.813 0 13.76-11.667 22.786-28.333 22.786-15.467 0-27.867-9-27.867-22.746" fill="#FFF"/>
        <path d="M7.613 140.867c.014 2.88.694 5.666 2.027 8.146 1.32 2.467 3.293 4.614 5.667 6.307 2.36 1.707 5.12 2.96 8.026 3.773 1.454.414 2.96.707 4.48.907 1.534.187 2.987.28 4.6.28 3.134.013 6.227-.32 9.187-1.067 2.96-.746 5.76-1.96 8.187-3.613 2.426-1.653 4.44-3.813 5.813-6.347 1.4-2.52 2.133-5.413 2.213-8.426h5.334v.013c.146 2.747.6 5.427 1.626 7.76.987 2.333 2.467 4.307 4.454 5.76 1.973 1.453 4.346 2.493 6.946 3.093 1.294.307 2.627.534 4 .667 1.427.12 2.627.187 4.214.187 1.293 0 2.733-.054 4.08-.187a27.628 27.628 0 0 0 3.96-.707c2.586-.64 4.946-1.733 6.96-3.213 2.013-1.48 3.586-3.44 4.653-5.747 1.107-2.28 1.613-4.906 1.773-7.626h5.334v.013c.08 2.48.52 4.907 1.426 7.107.92 2.2 2.227 4.173 3.92 5.826 3.4 3.307 8.12 5.24 13.107 6.04 1.24.2 2.507.334 3.787.414.64.026 1.2.066 1.893.066h1.04l.92-.013c2.533-.067 5.067-.373 7.48-.973 4.853-1.16 9.307-3.587 12.32-7.107 1.507-1.76 2.6-3.8 3.24-6 .32-1.067.533-2.307.6-3.333.107-1.334.093-2.347-.067-3.454-.573-4.36-3.68-8.24-7.746-11.173-4.067-2.973-8.934-5.147-13.947-6.88-5.04-1.733-10.293-3.027-15.613-4.027-10.654-2-21.574-2.92-32.494-3.24-5.453-.16-10.973-.12-16.44.04-5.48.16-10.946.454-16.373.947-5.44.48-10.84 1.16-16.16 2.12-5.32.973-10.56 2.253-15.533 4.053-4.947 1.787-9.68 4.147-13.28 7.427-1.787 1.64-3.24 3.507-4.2 5.56a14.327 14.327 0 0 0-1.067 3.2c-.12.56-.2 1.12-.267 1.693l-.053.774-.027.96zm-6.666-.094l.04-1.026.093-1.294c.093-.8.227-1.613.4-2.413.347-1.587.88-3.147 1.587-4.627 1.413-2.946 3.466-5.493 5.773-7.56 4.653-4.146 10.093-6.666 15.52-8.6 5.453-1.92 11.013-3.2 16.573-4.186 5.574-.987 11.147-1.64 16.734-2.107 5.586-.467 11.173-.733 16.746-.867 5.587-.12 11.134-.16 16.747-.04 11.173.254 22.373 1.134 33.48 3.134 5.547 1.026 11.08 2.306 16.52 4.133 5.427 1.84 10.813 4.133 15.747 7.64 2.44 1.76 4.773 3.853 6.68 6.44 1.906 2.573 3.333 5.707 3.826 9.013.254 1.627.254 3.387.16 4.827a23.586 23.586 0 0 1-.826 4.813 23.084 23.084 0 0 1-4.534 8.52c-4.186 4.96-10.053 7.854-15.906 9.254a39.937 39.937 0 0 1-8.934 1.093c-.4 0-.72.013-1.16 0l-1.04-.027a46.614 46.614 0 0 1-2.253-.12c-1.48-.133-2.96-.32-4.427-.586-2.96-.547-5.893-1.427-8.693-2.747-2.773-1.347-5.4-3.133-7.6-5.44-2.187-2.28-3.92-5.053-4.973-8.027-1.067-2.973-1.467-6.106-1.414-9.133v-.013a2.64 2.64 0 0 1 2.494-2.814 2.658 2.658 0 0 1 2.826 2.48v.04l.014.294c.146 3.293-.32 6.733-1.6 9.986a20.883 20.883 0 0 1-6.24 8.4c-2.734 2.24-5.974 3.654-9.214 4.534-1.613.44-3.253.746-4.893.933-1.653.187-3.227.28-4.92.293a50.969 50.969 0 0 1-4.8-.28 36.784 36.784 0 0 1-4.88-.88c-3.24-.826-6.533-2.186-9.293-4.453-2.8-2.227-4.934-5.32-6.107-8.6-1.173-3.293-1.533-6.68-1.387-9.92v-.013a2.647 2.647 0 0 1 2.56-2.76 2.665 2.665 0 0 1 2.76 2.56v.026l.014.174c.093 3.746-.667 7.613-2.374 11.093-1.706 3.467-4.333 6.453-7.4 8.707-3.066 2.266-6.546 3.813-10.093 4.8-3.56.986-7.2 1.453-10.813 1.506a40.486 40.486 0 0 1-5.494-.293 40.186 40.186 0 0 1-5.426-1.053c-3.587-.974-7.08-2.52-10.2-4.747-3.107-2.227-5.814-5.187-7.654-8.667C1.84 148.693.92 144.72.947 140.867v-.094z" fill="#231F20"/>
        <path d="M164.48 105.667c0 13.746-12.547 24.893-28 24.893-17.333 0-28-13.267-28-27.013 0 12.653-8.667 25.04-24 25.04-16.667 0-24-12.387-24-25.04 0 13.746-11.667 27.013-28.333 27.013-15.467 0-27.694-12.187-27.694-25.933l.027-37.534c0-35.053 35.813-63.466 80-63.466 44.173 0 80 28.413 80 63.466v38.574" fill="#FFF"/>
        <path d="M161.147 105.6l-.014-24.173-.013-12.12a81.488 81.488 0 0 0-.147-5.8c-.106-.934-.16-1.88-.293-2.814l-.453-2.786c-1.454-7.427-4.72-14.454-9.227-20.614-4.533-6.146-10.227-11.493-16.653-15.773-6.414-4.32-13.507-7.68-20.92-10.04-3.694-1.213-7.48-2.12-11.32-2.84a89.586 89.586 0 0 0-11.574-1.4c-1.866-.16-3.933-.16-5.946-.2-1.827.04-3.867.027-5.787.173-3.893.2-7.773.68-11.6 1.387-3.84.68-7.64 1.6-11.333 2.8-3.707 1.187-7.347 2.547-10.854 4.227-6.986 3.346-13.56 7.586-19.173 12.866-5.613 5.24-10.32 11.427-13.493 18.32a49.102 49.102 0 0 0-3.52 10.76c-.36 1.854-.64 3.734-.787 5.52-.12.854-.107 1.934-.147 2.934l-.026.76-.014.373v-.013 1.8l-.04 24.226.014 12.027c.08 3.453 1.12 6.88 2.88 9.92 3.533 6.12 9.986 10.533 17.013 11.707 7.04 1.213 14.667-.4 20.28-4.867 5.733-4.28 9.52-11.213 9.813-18.413h5.334c.146 2.973.653 5.906 1.68 8.613.986 2.707 2.44 5.187 4.333 7.173 1.907 1.987 4.2 3.547 6.8 4.52 1.293.48 2.667.827 4.067 1.054.693.133 1.44.2 2.106.253.347.013.654.053 1.04.067l1.227.013c1.307.013 2.813-.08 4.173-.333a19.09 19.09 0 0 0 4.014-1.12c2.586-1.014 4.88-2.627 6.84-4.627 1.946-2 3.48-4.453 4.546-7.133 1.107-2.654 1.68-5.56 1.84-8.48a2.675 2.675 0 0 1 2.654-2.68c1.453 0 2.64 1.16 2.68 2.6v.08c.08 3.186.8 6.333 2.093 9.226a24.042 24.042 0 0 0 5.347 7.694 23.97 23.97 0 0 0 7.853 5c1.453.573 2.96 1 4.507 1.293.786.133 1.56.253 2.346.32.827.08 1.414.133 2.374.133 3.2.067 6.36-.36 9.346-1.346 2.987-.974 5.8-2.467 8.2-4.44 2.414-1.947 4.414-4.36 5.8-7.067a19.903 19.903 0 0 0 1.574-4.227c.186-.733.32-1.466.413-2.226l.107-1.027.04-1.28zm6.666.16l-.04 1.333c-.04.534-.08 1.08-.146 1.614-.12 1-.294 2.013-.534 3A26.031 26.031 0 0 1 165 117.4c-1.827 3.613-4.44 6.773-7.52 9.28-3.107 2.507-6.653 4.373-10.4 5.573a33.857 33.857 0 0 1-11.573 1.6c-.814-.013-1.987-.106-2.934-.213-.973-.12-1.933-.28-2.893-.48a31.112 31.112 0 0 1-5.653-1.733c-3.654-1.52-7.014-3.76-9.774-6.6a29.692 29.692 0 0 1-6.386-9.827 29.873 29.873 0 0 1-2.054-11.453h5.334c.146 3.546-.414 7.146-1.56 10.56a27.786 27.786 0 0 1-5.507 9.386c-2.44 2.76-5.6 4.934-9.027 6.36a26.856 26.856 0 0 1-5.306 1.56 30 30 0 0 1-5.507.494l-1.213-.04a25.944 25.944 0 0 1-1.387-.094 29.703 29.703 0 0 1-2.72-.346c-1.8-.32-3.587-.8-5.307-1.467-3.466-1.347-6.693-3.52-9.146-6.347-2.467-2.8-4.227-6.12-5.307-9.546a31.545 31.545 0 0 1-1.347-10.52 2.66 2.66 0 0 1 2.534-2.8 2.666 2.666 0 0 1 2.786 2.533v.04l.014.227c.133 4.48-.894 8.986-2.854 13.013-1.96 4.04-4.826 7.613-8.32 10.44a31.08 31.08 0 0 1-12.026 5.92 33.212 33.212 0 0 1-6.654.947l-.84.013-.493.013-.373-.013c-.507-.013-.987-.013-1.614-.067-1.213-.08-2.28-.2-3.4-.413-8.906-1.507-17.066-7.013-21.666-14.907-2.28-3.946-3.68-8.48-3.787-13.106l-.027-12.214.014-24.226v-2l.013-.387.013-.747c.054-1.026.027-1.973.16-3.12.174-2.24.494-4.36.907-6.466A55.832 55.832 0 0 1 6.187 44c3.586-7.8 8.84-14.707 15.013-20.48 6.173-5.813 13.333-10.427 20.893-14.053C45.88 7.64 49.813 6.16 53.8 4.88a93.271 93.271 0 0 1 12.173-3.013A97.411 97.411 0 0 1 78.413.4C80.52.24 82.52.253 84.733.213c2.027.054 4 .054 6.16.214 4.227.24 8.334.746 12.454 1.533 4.106.76 8.186 1.747 12.16 3.053 7.973 2.56 15.64 6.187 22.613 10.894 7 4.68 13.28 10.546 18.32 17.413 5.027 6.867 8.733 14.827 10.373 23.293.187 1.054.347 2.12.52 3.187.147 1.067.214 2.133.334 3.213.146 2.134.173 4.334.16 6.294v12.12l-.014 24.24v.093z" fill="#231F20"/>
        <path d="M141.533 98.107c-15.933 3.546-35.666 5.653-57.026 5.653-21.4 0-41.174-2.093-57.12-5.653" fill="#FFF"/>
        <path d="M141.907 100.067s-1.734.453-4.8 1.173c-1.534.36-3.387.787-5.52 1.28-2.107.56-4.614.92-7.307 1.347-2.72.426-5.653.88-8.76 1.36-3.093.306-6.373.626-9.76.92-1.693.146-3.427.293-5.173.453-1.747.093-3.52.133-5.294.187-3.6.093-7.253.2-10.906.306-3.6-.106-7.187-.213-10.72-.306-1.76-.054-3.507-.094-5.254-.187-1.76-.16-3.493-.307-5.186-.453a602.2 602.2 0 0 1-9.827-.92c-3.08-.48-6-.934-8.693-1.347-2.694-.427-5.16-.787-7.307-1.347-2.16-.506-4.053-.933-5.6-1.293-3.093-.733-4.853-1.187-4.853-1.187a1.98 1.98 0 0 1-1.427-2.426 1.995 1.995 0 0 1 2.173-1.494l.134.027s1.773.213 4.853.64c1.533.227 3.4.507 5.547.813 2.12.374 4.573.507 7.226.787 2.654.267 5.52.56 8.56.867 3.027.173 6.227.36 9.534.533 1.653.107 3.333.213 5.04.32 1.733.027 3.48.053 5.24.093 3.533.067 7.133.147 10.72.214 3.52-.067 7.053-.147 10.52-.214 1.746-.026 3.48-.066 5.2-.093 1.706-.107 3.4-.213 5.053-.307 3.333-.186 6.547-.373 9.6-.546 3.013-.307 5.867-.6 8.493-.867 2.64-.28 5.067-.4 7.24-.773 2.16-.32 4.054-.6 5.614-.827 3.106-.44 4.893-.653 4.893-.653a1.992 1.992 0 0 1 2.24 1.733 2.009 2.009 0 0 1-1.493 2.187M87.173 3.627l.614 55.88c.013 1.853-1.454 3.36-3.294 3.373a3.318 3.318 0 0 1-3.373-3.293v-.08l.6-55.88A2.737 2.737 0 0 1 84.48.92a2.732 2.732 0 0 1 2.693 2.707" fill="#231F20"/>
        <path d="M113.04 7.72s.053 2.76.133 7.587c.054 4.826.147 11.72.24 20 .04 4.133.08 8.626.12 13.36.014 2.373.04 4.813.054 7.293.013.627.013 1.253.013 1.88l.013.467-.04.666-.053.96c-.013.32-.027.614-.067.974l-.186 1.186c-.134.8-.28 1.614-.52 2.307a23.281 23.281 0 0 1-4.12 8.093c-1.894 2.4-4.214 4.44-6.787 6.107-5.133 3.36-11.293 4.947-17.387 5.013-2.84-.026-6.173-.453-9.053-1.266-2.96-.8-5.773-2.107-8.347-3.747-2.56-1.667-4.88-3.707-6.773-6.107a23.281 23.281 0 0 1-4.12-8.093c-.867-2.853-.92-6.16-.853-8.44.026-2.48.04-4.92.066-7.293.04-4.734.08-9.227.107-13.36.107-8.28.187-15.174.253-20 .08-4.827.12-7.587.12-7.587a2.667 2.667 0 0 1 2.72-2.613c1.44.013 2.587 1.186 2.614 2.613 0 0 .053 2.76.133 7.587.053 4.826.147 11.72.24 20 .04 4.133.08 8.626.12 13.36.013 2.373.04 4.813.053 7.293 0 2.68.054 4.533.667 6.667 1.12 4.146 4.2 7.906 8.2 10.426 2.013 1.267 4.227 2.307 6.587 2.92 2.413.627 4.586.934 7.266.974 4.907-.04 9.854-1.294 13.84-3.894 4.014-2.52 7.08-6.28 8.214-10.426.2-.534.253-1 .346-1.467l.147-.693c.04-.267.04-.614.067-.92l.053-.947.027-.24v-.187.134-.467c.013-.627.013-1.253.013-1.88.027-2.48.04-4.92.067-7.293.04-4.734.08-9.227.106-13.36.107-8.28.187-15.174.254-20 .08-4.827.12-7.587.12-7.587a2.667 2.667 0 0 1 2.72-2.613c1.44.013 2.586 1.186 2.613 2.613" fill="#231F20"/>
    </g>
</svg>
