<svg width="94" height="168" xmlns="http://www.w3.org/2000/svg">
    <title>
        na
    </title>
    <g fill="none">
        <path d="M43.94 4.28c14.537 0 26.647 10.707 26.647 23.907 0 7.92-4.26 14.92-10.794 19.266 12.205.854 21.822 10.094 21.822 21.4 0 8.654-5.643 16.094-13.757 19.494 13.278 6.506 22.423 20.16 22.423 35.946 0 22.08-16.329 40-38.42 40-33.384 0-48.246-35.653-48.246-79.84V44.28c0-22.093 18.234-40 40.326-40" fill="#FFF"/>
        <path d="M43.94 7.653c-5.997.04-11.948 1.534-17.27 4.28-5.296 2.814-9.863 6.947-13.312 11.84-1.6 2.52-3.125 5.12-4.087 7.96-.24.707-.572 1.387-.74 2.107l-.565 2.173c-.226.734-.324 1.427-.425 2.134l-.344 2.106c-.067.787-.091 1.627-.139 2.427l-.063 1.227-.015.306-.009.147-.003.08c.007-.32.002-.04.003-.093v5.52l-.002 9.8-.003 19.6c-.005 3.28-.01 6.533.057 9.72.096 3.2.223 6.413.498 9.6.494 6.386 1.398 12.72 2.777 18.92.704 3.08 1.499 6.16 2.492 9.146.964 3 2.085 5.934 3.407 8.76 2.583 5.667 5.987 10.907 10.24 15.187 4.258 4.28 9.494 7.4 15.232 9 .725.173 1.441.387 2.17.547l2.212.386c1.466.16 2.786.36 4.51.374l1.224.04.154.013c.05 0-.165-.013-.041-.013h.07l.28-.014.561-.04 2.243-.12c.752 0 1.477-.2 2.217-.293.733-.133 1.482-.187 2.203-.373l2.156-.574c.357-.106.724-.173 1.075-.293l1.04-.4 2.083-.787 1.988-1 .996-.506c.322-.174.627-.387.942-.587l1.878-1.2c.6-.427 1.168-.907 1.756-1.36.587-.453 1.178-.907 1.69-1.453l1.606-1.547c.52-.533.974-1.12 1.467-1.68 1.024-1.08 1.798-2.373 2.675-3.573.434-.6.75-1.294 1.133-1.934.349-.653.783-1.266 1.052-1.973.595-1.373 1.272-2.707 1.704-4.147.231-.706.518-1.4.71-2.133l.531-2.187.265-1.093.154-1.067.326-2.146c.092-.747.098-1.614.152-2.414l.064-1.213.031-.613.005-.08c-.006.28-.003.04-.005.08l-.003-.134-.007-.28-.047-2.253-.21-2.24c-.73-5.96-2.93-11.733-6.353-16.733-3.451-4.987-8.098-9.174-13.495-12.134l-.115-.066a2.332 2.332 0 0 1-.915-3.16c.266-.48.68-.827 1.153-1.027h.006c.987-.52 1.955-1.053 2.865-1.68.906-.613 1.783-1.28 2.564-2.04.818-.72 1.542-1.52 2.228-2.347a18.64 18.64 0 0 0 1.77-2.653c.246-.48.505-.933.696-1.427.23-.48.416-.96.585-1.466.36-.974.577-2 .76-3.027.036-.493.126-.88.156-1.467l.034-.92.008-.226.004-.12.002-.054.001-.026a4.04 4.04 0 0 1-.002.106l-.001-.013-.026-.4c-.043-.507-.037-1.04-.109-1.547l-.251-1.546-.4-1.507c-.151-.493-.364-.973-.538-1.467-.412-.96-.883-1.906-1.46-2.786-.254-.467-.58-.88-.902-1.307a10.67 10.67 0 0 0-1.014-1.227c-.697-.8-1.493-1.533-2.31-2.226-.43-.32-.84-.68-1.285-.987l-1.364-.893c-.954-.52-1.917-1.04-2.94-1.44-.493-.24-1.02-.4-1.54-.587a12.939 12.939 0 0 0-1.585-.48c-1.068-.307-2.169-.467-3.273-.667h-.003a2.305 2.305 0 0 1-2.172-2.44c.039-.666.347-1.24.81-1.626l.232-.2 1.364-1.147.684-.573.612-.64 1.22-1.267 1.06-1.4c.378-.44.68-.933.968-1.427.286-.506.623-.973.872-1.493.445-1.053.997-2.053 1.255-3.173.135-.534.392-1.094.437-1.6.074-.507.173-1.014.273-1.52l.077-.374.022-.493.044-.973.044-.987.011-.24.005-.12.004-.067v-.026l-.006.186h-.001l-.038-.426-.136-1.654-.328-1.64c-.082-.546-.321-1.066-.466-1.586-.142-.547-.364-1.054-.601-1.56-.4-1.027-.983-1.987-1.548-2.947l-.965-1.373c-.345-.44-.732-.854-1.092-1.294-.344-.44-.786-.8-1.179-1.2-.394-.413-.804-.8-1.261-1.146-.853-.747-1.815-1.36-2.763-2-1.002-.547-1.98-1.147-3.052-1.56-1.032-.507-2.148-.814-3.236-1.187-1.12-.253-2.26-.56-3.304-.667-.956-.213-2.426-.213-3.69-.293l.155.013zM44.096.92c1.341.08 2.496.027 4.116.293 1.562.147 2.952.507 4.376.84 1.391.44 2.804.84 4.133 1.467 1.365.533 2.639 1.267 3.921 1.987 1.23.8 2.46 1.613 3.577 2.586.587.44 1.126.947 1.647 1.48.521.52 1.078 1.014 1.53 1.614.47.573.959 1.133 1.402 1.733l1.245 1.853c.74 1.307 1.485 2.614 1.99 4.027.284.693.546 1.4.718 2.133.177.734.436 1.44.531 2.187l.338 2.227.09 2.253.02.56-.011.28-.006.053-.01.12-.022.254-.087.973-.087.973-.044.494-.116.573c-.16.773-.32 1.56-.506 2.32-.16.787-.487 1.427-.727 2.133-.456 1.414-1.223 2.694-1.902 3.987-.366.64-.82 1.213-1.228 1.813-.412.6-.83 1.2-1.342 1.72l-1.466 1.6-1.621 1.427-.814.707-.881.613-1.773 1.187-1.13-4.267h.004c1.335.08 2.68.147 4.004.413.67.094 1.326.254 1.98.427.654.173 1.316.32 1.95.573 1.295.427 2.526 1 3.753 1.614l1.775 1.026c.583.36 1.13.787 1.695 1.174 1.093.84 2.162 1.72 3.093 2.746.494.494.947 1.027 1.368 1.574.437.546.871 1.093 1.235 1.693.795 1.16 1.429 2.413 1.995 3.707.25.653.53 1.306.742 1.973l.558 2.053.332 2.094c.089.706.09 1.413.133 2.12l.023.52-.02.586-.042.92c-.038.64-.154 1.467-.252 2.187-.274 1.387-.616 2.76-1.13 4.067-.477 1.333-1.121 2.586-1.853 3.773a24.677 24.677 0 0 1-2.478 3.333c-.932 1.027-1.908 2-2.985 2.84-1.063.867-2.217 1.6-3.393 2.28-1.176.667-2.418 1.214-3.675 1.68l-.007.014.124-4.254c6.323 2.827 11.942 7.307 16.179 12.894 4.288 5.573 6.995 12.32 8.07 19.293l.32 2.64.134 2.64.016.333.008.174c-.001.093.007-.107-.001.226l-.004.08-.024.614-.05 1.226c-.045.827-.037 1.6-.126 2.48l-.354 2.707-.186 1.36-.291 1.293-.598 2.574c-.22.853-.537 1.693-.804 2.533-2.213 6.72-6.242 12.853-11.492 17.667-.624.626-1.33 1.173-2.037 1.72-.707.546-1.396 1.106-2.121 1.626l-2.263 1.427c-.38.24-.75.48-1.139.707l-1.197.586-2.398 1.187-2.504.947-1.253.453c-.422.147-.857.24-1.287.36l-2.584.667c-.864.213-1.751.293-2.626.44-.88.106-1.752.32-2.639.333l-2.652.133-.663.027-.332.013h-.082c.073.014-.194 0-.194 0h-.153l-1.224-.04c-1.547-.013-3.475-.226-5.25-.44l-2.615-.466c-.866-.187-1.724-.427-2.586-.64-6.862-1.894-13.202-5.707-18.158-10.694-4.962-5-8.76-10.92-11.594-17.12-1.45-3.093-2.662-6.28-3.7-9.493-1.067-3.213-1.914-6.48-2.66-9.76-1.463-6.56-2.407-13.187-2.925-19.84-.287-3.32-.42-6.653-.52-9.973C.254 85.8.258 82.52.262 79.267l-.003-19.6-.002-9.8v-5.52l.032-.787.062-1.227c.048-.813.07-1.613.14-2.453.487-3.707 1.173-7.2 2.48-10.493 1.156-3.36 2.935-6.454 4.845-9.427 4.065-5.787 9.454-10.653 15.71-13.973A45.163 45.163 0 0 1 43.94.907l.154.013z" fill="#231F20"/>
        <path d="M45.399 107.84c.337 3.88-2.394 7.28-6.102 7.613-3.707.32-6.986-2.573-7.323-6.453-.338-3.88 2.394-7.28 6.101-7.6 3.707-.32 6.986 2.56 7.324 6.44" fill="#231F20"/>
        <path d="M56.66 106.693c-.224-.24-.431-.493-.655-.72a37.687 37.687 0 0 0-2.19-2.106c-1.508-1.347-3.096-2.6-4.767-3.667-1.665-1.067-3.414-1.96-5.203-2.56-.894-.293-1.797-.547-2.7-.667-.446-.093-.915-.106-1.337-.146l-.603-.027c-.213 0-.52.013-.777.027-.838.053-1.784.173-2.66.413-.89.24-1.777.533-2.638.933-1.732.774-3.384 1.84-4.937 3.067a35.258 35.258 0 0 0-4.35 4.16c-.673.76-1.32 1.547-1.938 2.347-.604.8-1.228 1.68-1.708 2.44l-.052-2.48c.528.76 1.205 1.626 1.861 2.413a37.762 37.762 0 0 0 2.091 2.333 33.934 33.934 0 0 0 4.66 4.027c1.652 1.16 3.406 2.107 5.21 2.693.9.32 1.813.494 2.719.6.475.067.862.054 1.26.08l.815-.04.206-.013h.052l.026-.013c.093 0-.113.013-.088.013h.01l.086-.013.34-.054c3.655-.466 7.214-2.613 10.3-5.28 1.554-1.346 3.01-2.853 4.376-4.44.683-.786 1.34-1.6 1.972-2.44.214-.28.408-.586.619-.88zm5.648 1.227a44.022 44.022 0 0 1-2.066 2.88c-.71.907-1.446 1.8-2.212 2.667-1.534 1.733-3.176 3.386-4.977 4.906-1.798 1.52-3.75 2.92-5.92 4.04-2.159 1.134-4.56 2-7.127 2.294l-.48.053-.12.013-.205.014-.207.013-.837.027c-.703-.014-1.42-.04-2.038-.12-1.28-.16-2.536-.44-3.718-.867-2.382-.813-4.518-2.027-6.455-3.427-1.932-1.4-3.676-2.986-5.28-4.68a42.35 42.35 0 0 1-2.297-2.613c-.74-.92-1.414-1.8-2.123-2.853a2.303 2.303 0 0 1-.052-2.48 36.708 36.708 0 0 1 1.95-2.867 45.911 45.911 0 0 1 2.125-2.64 39.72 39.72 0 0 1 4.885-4.8c1.791-1.453 3.752-2.773 5.931-3.787 1.082-.506 2.23-.92 3.412-1.24a18.291 18.291 0 0 1 3.682-.626c.28-.014.508-.04.831-.04l1.008.013c.646.04 1.252.08 1.864.173a20.99 20.99 0 0 1 3.553.84c2.292.734 4.407 1.8 6.368 3.014 1.969 1.213 3.782 2.613 5.494 4.106.855.747 1.68 1.52 2.48 2.32.812.827 1.552 1.6 2.36 2.56.752.907.792 2.16.181 3.094l-.01.013z" fill="#231F20"/>
        <path d="M3.116 65.227S4.31 65 6.4 64.587c1.063-.174 2.26-.52 3.87-.587.783-.067 1.617-.147 2.496-.213.877-.054 1.813-.214 2.76-.134.954.027 1.947.054 2.975.08.514.027 1.038.04 1.568.054.529.053 1.063.146 1.607.213 1.085.16 2.2.32 3.34.493 1.134.2 2.262.56 3.425.854.58.146 1.165.306 1.754.466.583.174 1.144.427 1.723.64 1.145.467 2.332.88 3.476 1.414 1.116.586 2.241 1.173 3.37 1.773.578.28 1.112.627 1.636 1l1.592 1.08 1.59 1.08 1.465 1.227 1.46 1.24c.493.4.968.813 1.39 1.28.875.906 1.743 1.813 2.6 2.706.808.92 1.536 1.907 2.288 2.84.362.48.76.92 1.083 1.414.32.493.636.986.95 1.466.608.974 1.28 1.894 1.79 2.867.995 1.947 2.056 3.747 2.712 5.547.363.893.712 1.746 1.044 2.546.303.827.517 1.627.756 2.36.464 1.494.883 2.787 1.071 3.894.464 2.186.728 3.44.728 3.44a2.668 2.668 0 0 1-2.056 3.16 2.661 2.661 0 0 1-3.158-2.054l-.006-.026-.049-.254s-.22-1.133-.607-3.106c-.146-1.014-.512-2.174-.907-3.534-.206-.666-.382-1.4-.644-2.146-.288-.734-.59-1.507-.907-2.307-.558-1.653-1.502-3.28-2.364-5.08-.444-.88-1.044-1.72-1.576-2.613-.275-.44-.553-.894-.834-1.334-.282-.453-.638-.866-.957-1.293-.666-.853-1.306-1.76-2.019-2.613-.759-.814-1.527-1.64-2.302-2.467a10.252 10.252 0 0 0-1.231-1.173l-1.294-1.134-1.297-1.133-1.413-1-1.412-.987c-.465-.346-.938-.666-1.453-.92-1.004-.56-2.004-1.106-2.997-1.653-1.02-.493-2.08-.867-3.102-1.307-.517-.2-1.016-.453-1.539-.613-.528-.147-1.053-.293-1.573-.44-1.045-.28-2.053-.64-3.076-.84-1.03-.16-2.038-.32-3.019-.48-.491-.08-.973-.173-1.453-.227-.484-.026-.96-.04-1.43-.066-.937-.04-1.843-.08-2.713-.12-.878-.094-1.684.04-2.466.066-.78.054-1.52.094-2.214.147-1.365.013-2.683.347-3.72.507-2.097.36-3.296.573-3.296.573a2.001 2.001 0 0 1-2.315-1.627 1.996 1.996 0 0 1 1.595-2.306" fill="#231F20"/>
    </g>
</svg>
