<svg width="100" height="168" xmlns="http://www.w3.org/2000/svg">
    <title>
        nan
    </title>
    <g fill="none">
        <path d="M95.768 149.48c0 8.173-6.859 14.8-15.32 14.8-8.46 0-15.319-6.627-15.319-14.8 0 8.173-6.858 13.747-15.32 13.747-8.46 0-15.32-5.574-15.32-13.747 0 8.173-6.858 14.8-15.318 14.8-8.462 0-15.32-6.627-15.32-14.8l.573-7.893c0-22.48 20.312-29.894 45.485-29.894 25.174 0 45.682 10.054 45.682 30.414l.177 7.373" fill="#FFF"/>
        <path d="M92.295 150.733l-.018-1.16-.114-8.133a24.084 24.084 0 0 0-1.122-6.987 21.649 21.649 0 0 0-3.252-6.24c-1.417-1.92-3.201-3.6-5.158-5.12-3.939-3.013-8.706-5.146-13.695-6.573-4.987-1.467-10.27-2.133-15.51-2.387-5.297-.24-10.66 0-15.873.707-2.609.36-5.181.88-7.689 1.547-2.505.68-4.948 1.506-7.244 2.56-4.607 2.093-8.59 5.133-11.179 9.026-2.556 3.92-3.668 8.68-3.604 13.614l-.004.16-.004.08-.498 7.906.009-.253c.044 2.987 1.284 5.92 3.504 8.013A12.271 12.271 0 0 0 14.648 160c.71.293 1.448.533 2.207.68.374.08.772.147 1.138.187l.52.053.658.027c3.126.106 6.278-.974 8.74-3.014a12.84 12.84 0 0 0 3.058-3.72c.818-1.413 1.29-3.026 1.52-4.733l.06-.44a1.985 1.985 0 0 1 2.234-1.707 1.986 1.986 0 0 1 1.708 2.147v.013c.222 1.654.686 3.187 1.457 4.52.75 1.36 1.79 2.507 3.005 3.427 1.232.92 2.626 1.653 4.14 2.093.754.227 1.527.414 2.318.52.389.067.804.107 1.184.134l.562.026.656.014c3.228.013 6.41-.934 8.858-2.787 1.214-.933 2.254-2.08 3.002-3.427.77-1.346 1.232-2.88 1.455-4.533l.06-.44a1.983 1.983 0 0 1 3.941.44v.013c.207 1.694.678 3.307 1.486 4.747a12.22 12.22 0 0 0 3.058 3.733c1.251 1.014 2.646 1.814 4.148 2.307.747.24 1.511.44 2.287.547.384.053.788.093 1.159.12l.526.013.658-.013a12.745 12.745 0 0 0 8.317-3.454 11.456 11.456 0 0 0 2.6-3.653c.319-.68.568-1.387.743-2.12.076-.32.133-.653.184-.987zm6.702-8.773l.103 7.613.01.734-.043 1a17.798 17.798 0 0 1-1.297 5.32 18.291 18.291 0 0 1-4.166 5.96c-1.748 1.68-3.861 2.96-6.107 3.826-2.256.854-4.669 1.24-7.045 1.2l-.82-.04-.95-.093a24.72 24.72 0 0 1-1.766-.293 18.651 18.651 0 0 1-3.387-1.08c-2.168-.96-4.162-2.294-5.772-4a17.486 17.486 0 0 1-3.71-5.867c-.776-2.187-1.126-4.507-.918-6.747l-.001-.013h4.001c.223 2.187-.094 4.48-.933 6.613a14.983 14.983 0 0 1-3.948 5.6c-1.703 1.56-3.74 2.667-5.857 3.427-2.131.747-4.366 1.08-6.576 1.107l-.78-.027-.87-.053a22.27 22.27 0 0 1-1.668-.2c-1.1-.187-2.196-.44-3.258-.827-2.119-.76-4.156-1.867-5.859-3.413a15.084 15.084 0 0 1-3.952-5.6c-.841-2.134-1.16-4.44-.937-6.614l-.002-.013h4.002c.232 2.253-.115 4.573-.879 6.76a16.701 16.701 0 0 1-3.71 5.893c-1.62 1.707-3.622 3.054-5.795 4a18.784 18.784 0 0 1-6.936 1.48l-.822-.013-.954-.04a19.613 19.613 0 0 1-1.788-.24c-1.179-.2-2.343-.52-3.467-.947-2.247-.853-4.353-2.133-6.116-3.8a18.267 18.267 0 0 1-4.196-5.933c-.999-2.24-1.487-4.72-1.465-7.16v-.067c.001-.053.004-.12.009-.186l.647-7.894-.008.254c.025-2.96.373-5.987 1.206-8.934a27.58 27.58 0 0 1 3.956-8.293c1.79-2.52 4.014-4.693 6.456-6.44 2.443-1.76 5.091-3.093 7.786-4.16 5.404-2.12 10.997-3.173 16.544-3.76 5.561-.6 11.08-.733 16.625-.587 5.595.174 11.147.88 16.656 2.187 5.481 1.347 10.93 3.387 15.824 6.72 2.435 1.667 4.727 3.64 6.645 6.013a28.08 28.08 0 0 1 4.58 7.947c1.056 2.893 1.575 5.96 1.683 8.973l.025.707z" fill="#231F20"/>
        <path d="M47.613 4.28c14.536 0 26.647 8.613 26.647 19.24 0 6.387-4.26 12.013-10.795 15.52 12.207.693 21.822 8.133 21.822 17.24 0 6.96-5.642 12.96-13.756 15.693 13.278 5.24 22.422 16.227 22.422 28.947 0 17.787-16.328 32.2-38.42 32.2-33.384 0-48.246-28.707-48.246-64.28V36.493c0-17.786 18.236-32.213 40.326-32.213" fill="#FFF"/>
        <path d="M47.613 7.653c-5.342 0-10.678.92-15.654 2.747-4.975 1.827-9.579 4.613-13.286 8.24-3.685 3.627-6.446 8.12-7.489 13.013-.159.6-.225 1.227-.335 1.84-.062.614-.133 1.08-.165 1.787l-.033 1.08-.006.133-.001.067c-.003.12 0-.08 0-.04v2.947l-.001 8.586-.004 17.174c.005 2.893-.022 5.68.105 8.453.096 2.773.332 5.547.643 8.293.649 5.507 1.748 10.92 3.43 16.12 1.687 5.2 3.979 10.16 6.994 14.56 3.03 4.387 6.785 8.227 11.214 11.027a39.102 39.102 0 0 0 7.032 3.507c2.467.92 5.048 1.533 7.67 1.986l1.978.28 1.939.174c1.188.133 2.912.12 4.088.16a43.88 43.88 0 0 0 7.94-.76c5.21-.974 10.205-2.947 14.48-5.907 4.276-2.933 7.79-6.88 9.965-11.453 2.211-4.534 2.964-9.787 2.232-14.72-.761-4.974-3.244-9.667-6.728-13.56-3.5-3.907-8.014-6.987-12.946-9.24l-.154-.067a2.319 2.319 0 0 1-1.146-3.067 2.313 2.313 0 0 1 1.408-1.24l.004-.013a37.04 37.04 0 0 0 2.714-1.293c.867-.48 1.71-1 2.491-1.587.787-.56 1.552-1.16 2.217-1.827.695-.653 1.28-1.373 1.834-2.106.496-.76.984-1.52 1.321-2.32.38-.787.597-1.64.767-2.44.018-.187.045-.36.077-.534.013-.106.037-.16.045-.293l.019-.413.037-.814c-.006.294-.002.067-.004.134v-.014l-.001-.013-.001-.04-.004-.08-.007-.16-.01-.32c-.06-.84-.231-1.667-.5-2.48-.52-1.627-1.477-3.16-2.71-4.533-1.227-1.374-2.747-2.56-4.407-3.56-3.341-2.014-7.282-3.187-11.33-3.694l-.248-.026a2.313 2.313 0 0 1-2-2.574c.1-.8.608-1.453 1.277-1.786h.001c3.618-2.267 6.676-5.36 8.006-8.934.32-.893.53-1.813.672-2.706.024-.414.094-.707.088-1.374l.006-.44.003-.12V23.4l-.003.12-.002-.013-.003-.054-.012-.16c-.023-.226-.017-.453-.056-.68-.195-1.8-.89-3.533-1.921-5.106-2.052-3.174-5.46-5.68-9.242-7.334a29.564 29.564 0 0 0-5.98-1.88 27.501 27.501 0 0 0-3.132-.466 21.082 21.082 0 0 0-1.541-.12c-.472-.04-1.137-.04-1.697-.054h.062zM47.676.92c.61.013 1.113 0 1.808.04.672.027 1.33.067 1.956.133 1.273.107 2.543.294 3.803.534a36.463 36.463 0 0 1 7.393 2.266c2.381 1.04 4.68 2.36 6.77 4.027 2.063 1.693 3.967 3.693 5.395 6.107 1.412 2.4 2.379 5.173 2.544 8.053.036.36.024.72.035 1.067l.003.28-.004.253-.007.107-.03.44c-.013.506-.13 1.36-.246 2.106a17.85 17.85 0 0 1-1.287 4.014c-1.18 2.533-2.86 4.706-4.802 6.493-1.952 1.773-4.144 3.173-6.438 4.253h-.001l-.97-4.386c4.72 0 9.522 1.08 13.858 3.4a22.78 22.78 0 0 1 5.967 4.506c1.75 1.854 3.204 4.12 4.057 6.68.42 1.267.677 2.614.76 3.974l.016.506.007.254.002.4-.046.826-.023.414c-.01.146-.044.36-.067.533l-.172 1.093c-.304 1.334-.705 2.614-1.304 3.8-.552 1.214-1.3 2.294-2.084 3.32-.825.974-1.694 1.907-2.653 2.72-.939.827-1.956 1.547-2.996 2.2-1.05.64-2.141 1.174-3.247 1.667-.554.227-1.118.44-1.678.653l-1.714.534h-.002l.108-4.374c5.688 1.974 11.093 5.12 15.476 9.547 4.425 4.347 7.697 10.12 8.904 16.453.304 1.587.47 3.2.506 4.8l.01.4-.004.267-.012.533c-.015.387-.002.68-.038 1.12-.065.827-.117 1.694-.242 2.467-.415 3.173-1.348 6.28-2.69 9.173-2.705 5.814-7.126 10.654-12.284 14.174-5.174 3.533-11.078 5.786-17.121 6.88a52.613 52.613 0 0 1-9.132.826c-1.683-.053-2.828-.013-4.49-.173-.777-.067-1.566-.12-2.335-.2l-2.271-.32c-3.019-.507-6.021-1.24-8.924-2.32a45.296 45.296 0 0 1-8.31-4.133c-5.253-3.32-9.66-7.84-13.129-12.867-3.453-5.04-5.994-10.587-7.846-16.267-1.846-5.706-3.023-11.546-3.719-17.413-.333-2.933-.583-5.88-.685-8.813-.136-2.947-.11-5.894-.115-8.72l-.004-17.174-.001-8.586v-2.68l.009-.64.033-1.08c.027-.707.128-1.68.222-2.467.133-.8.232-1.6.429-2.387 1.36-6.346 4.884-12 9.337-16.373 4.486-4.387 9.902-7.627 15.664-9.747C35.391 1.96 41.511.92 47.613.907l.063.013z" fill="#231F20"/>
        <path d="M49.072 89.2c.337 3.88-2.395 7.293-6.101 7.613-3.708.32-6.987-2.56-7.324-6.44-.338-3.88 2.394-7.293 6.101-7.613 3.708-.32 6.987 2.56 7.324 6.44" fill="#231F20"/>
        <path d="M60.333 88.053c-.224-.24-.432-.493-.654-.72a37.876 37.876 0 0 0-2.191-2.106c-1.508-1.347-3.096-2.6-4.767-3.667-1.665-1.067-3.414-1.96-5.204-2.56-.893-.293-1.797-.533-2.7-.667-.445-.08-.914-.106-1.337-.146l-.601-.027c-.214 0-.522.027-.778.027-.838.053-1.784.186-2.661.426-.89.227-1.776.52-2.637.92-1.732.774-3.383 1.84-4.936 3.067a35.344 35.344 0 0 0-4.35 4.173 36.081 36.081 0 0 0-1.938 2.347 33.265 33.265 0 0 0-1.708 2.427l-.054-2.48a36.53 36.53 0 0 0 1.862 2.426c.668.8 1.368 1.574 2.092 2.32 1.45 1.494 3.006 2.867 4.658 4.027 1.652 1.16 3.407 2.107 5.211 2.707.899.306 1.812.48 2.719.586.474.067.862.054 1.261.08l.813-.04.207-.013h.077c.094-.013-.112 0-.086 0h.01l.084-.013.342-.04c3.654-.48 7.213-2.627 10.3-5.294a42.748 42.748 0 0 0 4.374-4.426c.683-.8 1.342-1.614 1.972-2.454.215-.28.408-.586.62-.88zm5.648 1.227a44.022 44.022 0 0 1-2.066 2.88 57.45 57.45 0 0 1-2.212 2.667c-1.535 1.733-3.176 3.4-4.978 4.92-1.797 1.506-3.749 2.906-5.92 4.04-2.158 1.12-4.558 1.986-7.126 2.28l-.479.066-.12.014h-.207l-.206.013-.838.027c-.702-.014-1.418-.027-2.037-.12-1.28-.16-2.536-.44-3.719-.854-2.381-.826-4.517-2.04-6.454-3.44-1.932-1.4-3.676-2.986-5.279-4.666-.8-.854-1.567-1.72-2.297-2.627-.74-.92-1.415-1.787-2.124-2.853a2.304 2.304 0 0 1-.052-2.48c.649-1.067 1.269-1.934 1.95-2.867a45.982 45.982 0 0 1 2.126-2.64 39.77 39.77 0 0 1 4.884-4.8c1.792-1.453 3.752-2.773 5.932-3.773 1.081-.52 2.23-.934 3.41-1.254a18.306 18.306 0 0 1 3.683-.626c.28-.014.508-.027.832-.027l1.007.013c.646.04 1.252.067 1.864.174a19.68 19.68 0 0 1 3.553.826c2.292.734 4.407 1.8 6.368 3.014 1.97 1.226 3.781 2.613 5.495 4.106.854.747 1.68 1.52 2.48 2.32.812.827 1.55 1.6 2.358 2.574.752.893.792 2.16.182 3.08l-.01.013z" fill="#231F20"/>
        <path d="M6.779 49.253s1.17-.226 3.221-.626c1.047-.187 2.21-.534 3.777-.64 1.524-.12 3.258-.374 5.13-.44.932 0 1.904.013 2.91.013 1.006 0 2.048-.027 3.114.133 1.066.12 2.162.24 3.282.36.564.04 1.126.147 1.686.28.564.134 1.133.254 1.706.387 2.323.4 4.598 1.293 6.946 2.08 2.241 1.053 4.584 2.013 6.681 3.44 1.08.64 2.164 1.293 3.13 2.107.978.786 2.018 1.493 2.929 2.333.894.867 1.784 1.72 2.661 2.56.86.867 1.584 1.827 2.361 2.72.376.467.771.893 1.12 1.36.328.48.652.96.974 1.427.624.946 1.308 1.84 1.834 2.773 1.018 1.92 2.096 3.667 2.758 5.44.368.88.72 1.707 1.056 2.507.294.8.516 1.586.753 2.32.47 1.453.879 2.733 1.064 3.826.459 2.147.721 3.387.721 3.387a2.67 2.67 0 0 1-2.052 3.16 2.665 2.665 0 0 1-3.166-2.08l-.051-.267-.597-3.04c-.144-.986-.498-2.133-.896-3.453-.203-.653-.384-1.36-.635-2.093l-.91-2.254c-.558-1.6-1.509-3.173-2.38-4.906-.454-.854-1.06-1.654-1.598-2.52-.279-.427-.56-.854-.844-1.28-.305-.427-.653-.814-.981-1.227-.683-.8-1.308-1.693-2.063-2.467a366.17 366.17 0 0 0-2.335-2.32c-.797-.773-1.718-1.413-2.577-2.133-.844-.747-1.805-1.333-2.76-1.933-1.845-1.307-3.933-2.2-5.923-3.174-2.101-.733-4.125-1.6-6.226-1.986-.516-.134-1.03-.254-1.538-.374a8.626 8.626 0 0 0-1.525-.293c-1.02-.12-2.016-.253-2.987-.373-.966-.174-1.926-.147-2.85-.174a205.23 205.23 0 0 0-2.676-.053c-1.706.013-3.236.227-4.612.307-1.348.04-2.646.386-3.66.546-2.056.36-3.231.574-3.231.574a1.993 1.993 0 0 1-2.324-1.614 2.013 2.013 0 0 1 1.583-2.32" fill="#231F20"/>
    </g>
</svg>
