<svg width="94" height="168" xmlns="http://www.w3.org/2000/svg">
    <title>
        ne
    </title>
    <g fill="none">
        <path d="M44.239 4.28c14.537 0 26.648 10.707 26.648 23.907 0 7.92-4.262 14.92-10.795 19.266 12.205.854 21.821 10.094 21.821 21.4 0 8.654-5.642 16.094-13.757 19.494 13.279 6.506 22.424 20.16 22.424 35.946 0 22.08-16.33 40-38.42 40-33.384 0-48.247-35.653-48.247-79.84V44.28c0-22.093 18.235-40 40.326-40" fill="#FFF"/>
        <path d="M44.239 7.653c-5.998.04-11.948 1.534-17.27 4.28-5.297 2.814-9.864 6.947-13.313 11.84-1.6 2.52-3.124 5.12-4.087 7.96-.238.707-.57 1.387-.738 2.107l-.567 2.173c-.225.734-.324 1.427-.425 2.134l-.343 2.106c-.067.787-.092 1.627-.139 2.427l-.062 1.227-.016.306-.008.147-.004.08c.008-.32.001-.04.004-.093v.613l-.002 4.907-.001 9.8-.004 19.6c-.004 3.28-.01 6.533.057 9.72.096 3.2.223 6.413.499 9.6.493 6.386 1.397 12.72 2.777 18.92.704 3.08 1.499 6.16 2.492 9.146.964 3 2.084 5.934 3.407 8.76 2.583 5.667 5.987 10.907 10.239 15.187 4.258 4.28 9.494 7.4 15.233 9 .724.173 1.441.387 2.17.547l2.211.386c1.467.16 2.787.36 4.511.374l1.224.04.153.013c.051 0-.165-.013-.04-.013h.07l.28-.014.561-.04 2.243-.12c.752 0 1.477-.2 2.217-.293.733-.133 1.481-.187 2.203-.373l2.156-.574c.357-.106.722-.173 1.074-.293l1.04-.4 2.084-.787 1.987-1 .996-.506c.323-.174.628-.387.943-.587l1.878-1.2c.6-.427 1.168-.907 1.755-1.36.588-.453 1.179-.907 1.69-1.453l1.607-1.547c.52-.533.974-1.12 1.467-1.68 1.024-1.08 1.797-2.373 2.675-3.573.434-.6.749-1.294 1.133-1.934.348-.653.783-1.266 1.052-1.973.595-1.373 1.272-2.707 1.703-4.147.232-.706.518-1.4.712-2.133l.53-2.187.266-1.093.153-1.067.325-2.146c.092-.747.099-1.614.152-2.414l.064-1.213.032-.613.004-.08c-.005.28-.002.04-.004.08l-.004-.134-.006-.28-.048-2.253-.21-2.24c-.73-5.96-2.929-11.733-6.352-16.733-3.452-4.987-8.098-9.174-13.496-12.134l-.114-.066a2.331 2.331 0 0 1-.915-3.16c.265-.48.68-.827 1.153-1.027h.006c.988-.52 1.954-1.053 2.865-1.68.905-.613 1.783-1.28 2.564-2.04.817-.72 1.541-1.52 2.228-2.347a18.64 18.64 0 0 0 1.77-2.653c.246-.48.505-.933.695-1.427.231-.48.418-.96.586-1.466.361-.974.577-2 .76-3.027.036-.493.125-.88.156-1.467l.033-.92.01-.226.003-.12.002-.054.001-.026c.001-.04-.004.213-.003.106l-.001-.013-.025-.4c-.043-.507-.038-1.04-.11-1.547l-.25-1.546-.4-1.507c-.152-.493-.364-.973-.538-1.467-.412-.96-.884-1.906-1.46-2.786-.254-.467-.58-.88-.902-1.307a10.76 10.76 0 0 0-1.015-1.227c-.696-.8-1.492-1.533-2.31-2.226-.43-.32-.838-.68-1.285-.987l-1.364-.893c-.953-.52-1.917-1.04-2.94-1.44-.492-.24-1.018-.4-1.54-.587a12.938 12.938 0 0 0-1.585-.48c-1.068-.307-2.168-.467-3.272-.667h-.004a2.307 2.307 0 0 1-2.172-2.44c.04-.666.348-1.24.81-1.626l.233-.2 1.364-1.147.684-.573.612-.64 1.22-1.267 1.058-1.4c.379-.44.682-.933.97-1.427.285-.506.622-.973.872-1.493.445-1.053.997-2.053 1.254-3.173.136-.534.392-1.094.438-1.6.073-.507.173-1.014.273-1.52l.077-.374.022-.493.044-.973.044-.987.01-.24.006-.12.004-.067.001-.026c-.004.093.007-.227-.007.186h-.001l-.039-.426-.136-1.654-.328-1.64c-.081-.546-.321-1.066-.466-1.586-.14-.547-.363-1.054-.6-1.56-.399-1.027-.983-1.987-1.548-2.947l-.966-1.373c-.344-.44-.732-.854-1.092-1.294-.344-.44-.785-.8-1.178-1.2-.394-.413-.804-.8-1.262-1.146-.853-.747-1.814-1.36-2.762-2-1.003-.547-1.98-1.147-3.052-1.56-1.032-.507-2.148-.814-3.236-1.187-1.12-.253-2.26-.56-3.304-.667-.956-.213-2.427-.213-3.69-.293l.154.013zM44.393.92c1.342.08 2.496.027 4.118.293 1.561.147 2.95.507 4.376.84 1.39.44 2.802.84 4.132 1.467 1.365.533 2.638 1.267 3.921 1.987 1.23.8 2.46 1.613 3.577 2.586.587.44 1.126.947 1.646 1.48.522.52 1.08 1.014 1.532 1.614.468.573.957 1.133 1.401 1.733l1.245 1.853c.739 1.307 1.484 2.614 1.99 4.027.284.693.545 1.4.717 2.133.177.734.437 1.44.532 2.187l.337 2.227.091 2.253.019.56-.011.28-.005.053-.011.12-.021.254-.088.973-.087.973-.043.494-.116.573c-.16.773-.32 1.56-.506 2.32-.16.787-.487 1.427-.727 2.133-.456 1.414-1.223 2.694-1.903 3.987-.365.64-.818 1.213-1.226 1.813-.412.6-.832 1.2-1.343 1.72l-1.465 1.6-1.623 1.427-.813.707-.882.613-1.772 1.187-1.129-4.267h.003c1.334.08 2.681.147 4.004.413.669.094 1.325.254 1.978.427.656.173 1.319.32 1.952.573 1.294.427 2.526 1 3.752 1.614l1.776 1.026c.582.36 1.13.787 1.695 1.174 1.093.84 2.161 1.72 3.093 2.746.494.494.947 1.027 1.367 1.574.437.546.872 1.093 1.236 1.693.795 1.16 1.428 2.413 1.995 3.707.249.653.53 1.306.742 1.973l.558 2.053.332 2.094c.088.706.09 1.413.133 2.12l.023.52-.02.586-.042.92c-.038.64-.154 1.467-.252 2.187-.274 1.387-.617 2.76-1.13 4.067-.478 1.333-1.122 2.586-1.854 3.773a24.716 24.716 0 0 1-2.477 3.333c-.932 1.027-1.908 2-2.985 2.84-1.063.867-2.216 1.6-3.394 2.28-1.176.667-2.417 1.214-3.674 1.68l-.007.014.124-4.254c6.323 2.827 11.941 7.307 16.179 12.894 4.288 5.573 6.996 12.32 8.069 19.293l.32 2.64.135 2.64.016.333.008.174c-.002.093.006-.107-.002.226l-.004.08-.024.614-.049 1.226c-.045.827-.037 1.6-.127 2.48l-.353 2.707-.187 1.36-.29 1.293-.599 2.574c-.219.853-.536 1.693-.804 2.533-2.212 6.72-6.241 12.853-11.49 17.667-.626.626-1.331 1.173-2.038 1.72-.707.546-1.396 1.106-2.121 1.626l-2.263 1.427c-.38.24-.75.48-1.139.707l-1.197.586-2.399 1.187-2.502.947-1.254.453c-.422.147-.858.24-1.286.36l-2.586.667c-.864.213-1.75.293-2.625.44-.88.106-1.752.32-2.639.333l-2.652.133-.664.027-.33.013h-.083c.073.014-.193 0-.193 0h-.154l-1.225-.04c-1.547-.013-3.475-.226-5.25-.44l-2.614-.466c-.867-.187-1.724-.427-2.585-.64-6.863-1.894-13.203-5.707-18.159-10.694-4.963-5-8.76-10.92-11.595-17.12-1.449-3.093-2.662-6.28-3.698-9.493-1.068-3.213-1.915-6.48-2.662-9.76-1.462-6.56-2.406-13.187-2.924-19.84-.288-3.32-.421-6.653-.521-9.973-.07-3.347-.065-6.627-.063-9.88l-.002-19.6-.002-9.8-.001-4.907v-.613l.032-.787.063-1.227c.048-.813.07-1.613.14-2.453.486-3.707 1.173-7.2 2.48-10.493 1.156-3.36 2.934-6.454 4.845-9.427 4.065-5.787 9.455-10.653 15.71-13.973A45.165 45.165 0 0 1 44.238.907l.154.013z" fill="#231F20"/>
        <path d="M40.023 64.947s.18 2.413.313 6.04c.045 1.813.152 3.933.17 6.2l.071 7.093-.073 7.107c-.023 2.266-.124 4.373-.17 6.186-.051 1.814-.16 3.32-.203 4.387l-.108 1.653a2.78 2.78 0 0 1-2.958 2.6 2.778 2.778 0 0 1-2.597-2.6l-.108-1.653c-.045-1.067-.152-2.573-.204-4.387-.045-1.813-.147-3.92-.17-6.186-.023-2.267-.047-4.68-.073-7.107.024-2.413.05-4.827.072-7.093.018-2.267.124-4.387.17-6.2.133-3.627.313-6.04.313-6.04a2.792 2.792 0 0 1 2.984-2.574 2.795 2.795 0 0 1 2.57 2.574" fill="#231F20"/>
        <path d="M18.244 81.507s.593-.04 1.633-.107c1.039-.04 2.523-.16 4.304-.2 1.782-.053 3.86-.147 6.087-.173 2.227-.027 4.603-.054 6.977-.08 2.375.026 4.751.053 6.978.08 2.226.013 4.304.12 6.085.16 3.563.133 5.939.32 5.939.32a2.788 2.788 0 0 1 2.568 2.986 2.802 2.802 0 0 1-2.568 2.574s-2.376.173-5.939.306c-1.781.04-3.859.147-6.085.174-2.227.026-4.603.04-6.978.066-2.374-.026-4.75-.053-6.977-.066-2.227-.027-4.305-.134-6.087-.174-1.781-.053-3.265-.16-4.304-.2-1.04-.066-1.633-.106-1.633-.106a2.786 2.786 0 0 1 0-5.56" fill="#231F20"/>
    </g>
</svg>
