<svg width="100" height="168" xmlns="http://www.w3.org/2000/svg">
    <title>
        nen
    </title>
    <g fill="none">
        <path d="M96.107 149.48c0 8.173-6.867 14.8-15.32 14.8-8.467 0-15.32-6.627-15.32-14.8 0 8.173-6.867 13.747-15.32 13.747-8.467 0-15.32-5.574-15.32-13.747 0 8.173-6.867 14.8-15.32 14.8-8.464 0-15.323-6.627-15.323-14.8l.573-7.893c0-22.48 20.31-29.894 45.483-29.894s45.68 10.054 45.68 30.414l.187 7.373" fill="#FFF"/>
        <path d="M92.627 150.733l-.014-1.16-.12-8.133a24.083 24.083 0 0 0-1.12-6.987 21.457 21.457 0 0 0-3.253-6.24c-1.413-1.92-3.2-3.6-5.16-5.12-3.933-3.013-8.707-5.146-13.693-6.573-4.987-1.467-10.267-2.133-15.507-2.387a88.73 88.73 0 0 0-15.867.707 63.87 63.87 0 0 0-7.693 1.547c-2.507.68-4.947 1.506-7.253 2.56-4.6 2.093-8.583 5.133-11.172 9.026-2.556 3.92-3.668 8.68-3.604 13.614l-.004.16-.004.08-.499 7.906.01-.253c.043 2.987 1.283 5.92 3.503 8.013A12.271 12.271 0 0 0 14.981 160c.71.293 1.448.533 2.207.68.372.08.772.147 1.145.187l.52.053.654.027c3.12.106 6.28-.974 8.733-3.014a12.973 12.973 0 0 0 3.067-3.72c.813-1.413 1.28-3.026 1.52-4.733l.053-.44a1.987 1.987 0 0 1 3.947.44v.013c.213 1.654.68 3.187 1.453 4.52.747 1.36 1.787 2.507 3.013 3.427 1.227.92 2.614 1.653 4.134 2.093.76.227 1.52.414 2.32.52.386.067.8.107 1.186.134l.56.026.654.014c3.226.013 6.413-.934 8.853-2.787 1.213-.933 2.253-2.08 3.013-3.427.76-1.346 1.227-2.88 1.454-4.533l.053-.44a1.981 1.981 0 0 1 2.227-1.707 1.99 1.99 0 0 1 1.72 2.147v.013c.2 1.694.68 3.307 1.48 4.747.76 1.44 1.813 2.72 3.066 3.733 1.24 1.014 2.64 1.814 4.147 2.307.747.24 1.507.44 2.28.547.387.053.787.093 1.16.12l.52.013.667-.013a12.746 12.746 0 0 0 8.32-3.454 11.731 11.731 0 0 0 2.6-3.653c.32-.68.56-1.387.733-2.12.08-.32.133-.653.187-.987zm6.706-8.773l.094 7.613.013.734-.04 1a16.477 16.477 0 0 1-.253 1.813 17.952 17.952 0 0 1-1.04 3.507 18.314 18.314 0 0 1-4.174 5.96c-1.746 1.68-3.853 2.96-6.106 3.826-2.254.854-4.667 1.24-7.04 1.2l-.827-.04-.947-.093c-.6-.08-1.173-.173-1.76-.293a18.552 18.552 0 0 1-3.386-1.08c-2.174-.96-4.16-2.294-5.774-4a17.31 17.31 0 0 1-3.706-5.867c-.787-2.187-1.134-4.507-.92-6.747v-.013h4a14.35 14.35 0 0 1-.934 6.613 15.086 15.086 0 0 1-3.946 5.6c-1.707 1.56-3.747 2.667-5.867 3.427-2.133.747-4.36 1.08-6.573 1.107l-.774-.027-.88-.053a22.747 22.747 0 0 1-1.666-.2c-1.094-.187-2.187-.44-3.254-.827-2.12-.76-4.16-1.867-5.866-3.413-1.707-1.534-3.094-3.467-3.947-5.6-.84-2.134-1.16-4.44-.933-6.614v-.013h4c.226 2.253-.12 4.573-.88 6.76a16.657 16.657 0 0 1-3.707 5.893c-1.627 1.707-3.627 3.054-5.8 4a18.793 18.793 0 0 1-6.933 1.48l-.827-.013-.947-.04a19.48 19.48 0 0 1-1.793-.24c-1.179-.2-2.343-.52-3.468-.947-2.245-.853-4.352-2.133-6.115-3.8a18.267 18.267 0 0 1-4.196-5.933c-.998-2.24-1.486-4.72-1.465-7.16v-.067c.001-.053.004-.12.01-.186l.646-7.894-.008.254c.025-2.96.373-5.987 1.207-8.934a27.58 27.58 0 0 1 3.956-8.293c1.789-2.52 4.013-4.693 6.456-6.44 2.442-1.76 5.09-3.093 7.784-4.16 5.4-2.12 11-3.173 16.546-3.76 5.56-.6 11.08-.733 16.627-.587a83.13 83.13 0 0 1 16.653 2.187c5.48 1.347 10.934 3.387 15.827 6.72 2.427 1.667 4.72 3.64 6.64 6.013a28.227 28.227 0 0 1 4.587 7.947c1.053 2.893 1.573 5.96 1.68 8.973l.026.707z" fill="#231F20"/>
        <path d="M47.907 4.28c14.546 0 26.653 8.613 26.653 19.24 0 6.387-4.267 12.013-10.8 15.52 12.213.693 21.827 8.133 21.827 17.24 0 6.96-5.64 12.96-13.76 15.693 13.28 5.24 22.426 16.227 22.426 28.947 0 17.787-16.333 32.2-38.426 32.2-33.374 0-48.24-28.707-48.24-64.28V36.493c0-17.786 18.24-32.213 40.32-32.213" fill="#FFF"/>
        <path d="M47.907 7.653c-5.334 0-10.667.92-15.654 2.747-4.973 1.827-9.573 4.613-13.28 8.24-3.686 3.627-6.448 8.12-7.49 13.013-.159.6-.226 1.227-.335 1.84-.063.614-.133 1.08-.164 1.787l-.035 1.08-.005.133-.001.067c-.003.12 0-.08 0-.04v2.947l-.002 8.586-.004 17.174c.006 2.893-.021 5.68.107 8.453.095 2.773.33 5.547.641 8.293.65 5.507 1.748 10.92 3.431 16.12 1.687 5.2 3.977 10.16 6.99 14.56 3.04 4.387 6.787 8.227 11.214 11.027a38.955 38.955 0 0 0 7.04 3.507c2.467.92 5.04 1.533 7.667 1.986l1.973.28 1.947.174c1.186.133 2.906.12 4.08.16a43.965 43.965 0 0 0 7.946-.76c5.214-.974 10.2-2.947 14.48-5.907 4.28-2.933 7.787-6.88 9.96-11.453 2.214-4.534 2.974-9.787 2.24-14.72-.773-4.974-3.253-9.667-6.733-13.56-3.493-3.907-8.013-6.987-12.947-9.24l-.146-.067a2.306 2.306 0 0 1-1.147-3.067c.28-.613.8-1.053 1.4-1.24v-.013c.933-.4 1.84-.827 2.72-1.293.867-.48 1.707-1 2.493-1.587.787-.56 1.547-1.16 2.214-1.827.693-.653 1.28-1.373 1.84-2.106.493-.76.973-1.52 1.32-2.32.373-.787.6-1.64.76-2.44a49 49 0 0 1 .08-.534c.013-.106.04-.16.04-.293l.026-.413.04-.814c-.013.294-.013.067-.013.134v-.147l-.013-.16-.014-.32a9.979 9.979 0 0 0-.493-2.48c-.52-1.627-1.48-3.16-2.707-4.533-1.226-1.374-2.746-2.56-4.413-3.56-3.333-2.014-7.28-3.187-11.333-3.694l-.24-.026a2.307 2.307 0 0 1-2-2.574c.093-.8.613-1.453 1.28-1.786 3.613-2.267 6.666-5.36 8-8.934.32-.893.533-1.813.68-2.706.013-.414.093-.707.08-1.374l.013-.44V23.4v.12-.013l-.013-.054-.014-.16c-.013-.226-.013-.453-.053-.68-.187-1.8-.893-3.533-1.92-5.106-2.053-3.174-5.453-5.68-9.24-7.334a29.636 29.636 0 0 0-5.973-1.88 27.748 27.748 0 0 0-3.134-.466 21.785 21.785 0 0 0-1.546-.12c-.467-.04-1.134-.04-1.694-.054h.054zM47.973.92c.614.013 1.12 0 1.814.04.666.027 1.32.067 1.946.133 1.28.107 2.547.294 3.814.534 2.52.493 5 1.24 7.386 2.266 2.387 1.04 4.68 2.36 6.774 4.027 2.066 1.693 3.96 3.693 5.386 6.107 1.414 2.4 2.387 5.173 2.547 8.053.04.36.027.72.04 1.067v.533l-.013.107-.027.44c-.013.506-.133 1.36-.24 2.106-.28 1.4-.72 2.747-1.293 4.014-1.174 2.533-2.854 4.706-4.8 6.493-1.96 1.773-4.147 3.173-6.44 4.253l-.974-4.386c4.72 0 9.52 1.08 13.867 3.4a22.749 22.749 0 0 1 5.96 4.506c1.747 1.854 3.2 4.12 4.053 6.68.427 1.267.68 2.614.76 3.974l.027.506v.654l-.04.826-.027.414c-.013.146-.04.36-.066.533l-.174 1.093c-.306 1.334-.706 2.614-1.306 3.8-.547 1.214-1.294 2.294-2.08 3.32-.827.974-1.694 1.907-2.654 2.72-.933.827-1.96 1.547-3 2.2-1.04.64-2.133 1.174-3.24 1.667-.56.227-1.12.44-1.68.653l-1.706.534h-.014l.107-4.374c5.693 1.974 11.093 5.12 15.48 9.547 4.427 4.347 7.693 10.12 8.907 16.453.306 1.587.466 3.2.506 4.8l.014.4-.014.267-.013.533c-.013.387 0 .68-.027 1.12-.066.827-.12 1.694-.253 2.467-.413 3.173-1.347 6.28-2.68 9.173-2.707 5.814-7.133 10.654-12.293 14.174-5.174 3.533-11.08 5.786-17.12 6.88-3.014.546-6.08.813-9.134.826-1.68-.053-2.826-.013-4.48-.173-.786-.067-1.573-.12-2.333-.2l-2.28-.32c-3.013-.507-6.013-1.24-8.92-2.32a45.148 45.148 0 0 1-8.307-4.133c-5.253-3.32-9.666-7.84-13.133-12.867-3.453-5.04-5.995-10.587-7.847-16.267-1.845-5.706-3.022-11.546-3.717-17.413-.335-2.933-.584-5.88-.687-8.813-.136-2.947-.109-5.894-.114-8.72l-.003-17.174-.003-8.586v-2.68l.01-.64.033-1.08c.027-.707.128-1.68.221-2.467.134-.8.232-1.6.43-2.387 1.36-6.346 4.884-12 9.337-16.373 4.487-4.387 9.9-7.627 15.66-9.747C35.693 1.96 41.813.92 47.907.907l.066.013z" fill="#231F20"/>
        <path d="M43.693 49.373s.187 2.414.32 6.04c.04 1.814.147 3.92.16 6.187.027 2.267.054 4.68.08 7.107-.026 2.413-.053 4.826-.08 7.093-.013 2.267-.12 4.387-.16 6.2-.053 1.813-.16 3.32-.213 4.373l-.107 1.667c-.093 1.533-1.426 2.693-2.96 2.6a2.773 2.773 0 0 1-2.586-2.6s-.04-.613-.12-1.667c-.04-1.053-.147-2.56-.2-4.373-.04-1.813-.147-3.933-.174-6.2-.013-2.267-.04-4.68-.066-7.093.026-2.427.053-4.84.066-7.107.027-2.267.134-4.373.174-6.187.133-3.626.32-6.04.32-6.04A2.76 2.76 0 0 1 41.12 46.8a2.767 2.767 0 0 1 2.573 2.573" fill="#231F20"/>
        <path d="M21.92 65.92s.587-.04 1.627-.107c1.04-.04 2.533-.146 4.306-.2 1.787-.04 3.867-.146 6.094-.173 2.226-.027 4.6-.04 6.973-.067 2.373.027 4.747.04 6.973.067 2.227.013 4.307.12 6.094.173 3.56.134 5.933.307 5.933.307a2.799 2.799 0 0 1 2.573 2.987 2.8 2.8 0 0 1-2.573 2.573s-2.373.173-5.933.307c-1.787.053-3.867.16-6.094.173-2.226.027-4.6.053-6.973.08-2.373-.027-4.747-.053-6.973-.08-2.227-.027-4.307-.12-6.094-.173-1.773-.054-3.266-.16-4.306-.2-1.04-.067-1.627-.107-1.627-.107a2.797 2.797 0 0 1-2.6-2.96 2.796 2.796 0 0 1 2.6-2.6" fill="#231F20"/>
    </g>
</svg>
