<svg width="95" height="168" xmlns="http://www.w3.org/2000/svg">
    <title>
        ni
    </title>
    <g fill="none">
        <path d="M44.539 4.28c14.536 0 26.646 10.707 26.646 23.907 0 7.92-4.261 14.92-10.794 19.266 12.205.854 21.821 10.094 21.821 21.4 0 8.654-5.643 16.094-13.757 19.494 13.278 6.506 22.424 20.16 22.424 35.946 0 22.08-16.33 40-38.42 40-33.384 0-48.247-35.653-48.247-79.84V44.28c0-22.093 18.235-40 40.327-40" fill="#FFF"/>
        <path d="M44.539 7.653c-5.999.04-11.95 1.534-17.271 4.28-5.296 2.814-9.864 6.947-13.313 11.84-1.6 2.52-3.124 5.12-4.087 7.96-.239.707-.57 1.387-.739 2.107l-.566 2.173c-.226.734-.324 1.427-.424 2.134l-.344 2.106c-.067.787-.092 1.627-.139 2.427l-.063 1.227-.016.306-.008.147-.004.08c.008-.32.003-.04.004-.093v.613l-.001 4.907-.001 9.8-.004 19.6c-.004 3.28-.01 6.533.057 9.72.096 3.2.224 6.413.499 9.6.494 6.386 1.397 12.72 2.777 18.92.704 3.08 1.499 6.16 2.492 9.146.964 3 2.084 5.934 3.407 8.76 2.582 5.667 5.986 10.907 10.238 15.187 4.259 4.28 9.495 7.4 15.234 9 .724.173 1.441.387 2.17.547l2.211.386c1.467.16 2.787.36 4.51.374l1.225.04.153.013c.05 0-.165-.013-.04-.013h.07l.28-.014.56-.04 2.243-.12c.752 0 1.478-.2 2.218-.293.733-.133 1.481-.187 2.202-.373l2.156-.574c.358-.106.724-.173 1.075-.293l1.04-.4 2.084-.787 1.987-1 .996-.506c.322-.174.628-.387.942-.587l1.879-1.2c.6-.427 1.168-.907 1.755-1.36.588-.453 1.178-.907 1.69-1.453l1.607-1.547c.52-.533.973-1.12 1.467-1.68 1.024-1.08 1.798-2.373 2.674-3.573.435-.6.75-1.294 1.134-1.934.348-.653.782-1.266 1.052-1.973.594-1.373 1.272-2.707 1.702-4.147.232-.706.519-1.4.712-2.133l.531-2.187.265-1.093.154-1.067.325-2.146c.092-.747.099-1.614.152-2.414l.064-1.213.032-.613.004-.08c-.005.28-.003.04-.004.08l-.004-.134-.007-.28-.046-2.253-.211-2.24c-.73-5.96-2.93-11.733-6.352-16.733-3.452-4.987-8.099-9.174-13.496-12.134l-.115-.066a2.331 2.331 0 0 1-.914-3.16c.265-.48.68-.827 1.153-1.027h.005c.988-.52 1.955-1.053 2.866-1.68.905-.613 1.782-1.28 2.564-2.04.817-.72 1.542-1.52 2.228-2.347.66-.84 1.268-1.72 1.769-2.653.247-.48.505-.933.696-1.427.23-.48.417-.96.585-1.466.362-.974.578-2 .762-3.027.034-.493.124-.88.154-1.467l.034-.92.009-.226.004-.12.001-.054.002-.026c.001-.04-.004.213-.003.106v-.013l-.027-.4c-.042-.507-.037-1.04-.109-1.547l-.25-1.546-.4-1.507c-.153-.493-.365-.973-.538-1.467-.412-.96-.884-1.906-1.46-2.786-.255-.467-.58-.88-.903-1.307a10.75 10.75 0 0 0-1.014-1.227c-.696-.8-1.492-1.533-2.311-2.226-.43-.32-.837-.68-1.283-.987l-1.365-.893c-.953-.52-1.917-1.04-2.939-1.44-.493-.24-1.02-.4-1.541-.587a12.938 12.938 0 0 0-1.585-.48c-1.067-.307-2.168-.467-3.272-.667h-.004a2.307 2.307 0 0 1-2.172-2.44c.04-.666.348-1.24.81-1.626l.232-.2 1.364-1.147.684-.573.612-.64 1.22-1.267 1.059-1.4c.379-.44.681-.933.97-1.427.285-.506.622-.973.871-1.493.446-1.053.998-2.053 1.255-3.173.136-.534.392-1.094.437-1.6.075-.507.174-1.014.274-1.52l.077-.374.021-.493.044-.973.044-.987.011-.24.007-.12.002-.067.002-.026c-.004.093.006-.227-.007.186h-.001l-.038-.426-.137-1.654-.328-1.64c-.081-.546-.32-1.066-.467-1.586-.14-.547-.362-1.054-.6-1.56-.398-1.027-.982-1.987-1.548-2.947l-.964-1.373c-.345-.44-.733-.854-1.092-1.294-.345-.44-.786-.8-1.18-1.2-.393-.413-.804-.8-1.261-1.146-.853-.747-1.815-1.36-2.763-2-1.002-.547-1.98-1.147-3.052-1.56-1.032-.507-2.148-.814-3.236-1.187-1.12-.253-2.26-.56-3.304-.667-.956-.213-2.425-.213-3.689-.293l.155.013zM44.692.92c1.343.08 2.496.027 4.117.293 1.562.147 2.951.507 4.376.84 1.391.44 2.803.84 4.132 1.467 1.366.533 2.639 1.267 3.922 1.987 1.23.8 2.46 1.613 3.577 2.586.587.44 1.125.947 1.645 1.48.523.52 1.08 1.014 1.532 1.614.468.573.958 1.133 1.402 1.733l1.245 1.853c.739 1.307 1.484 2.614 1.99 4.027.283.693.545 1.4.718 2.133.176.734.436 1.44.53 2.187l.338 2.227.09 2.253.02.56-.011.28-.006.053-.01.12-.022.254-.088.973-.086.973-.043.494-.116.573c-.16.773-.32 1.56-.507 2.32-.16.787-.486 1.427-.726 2.133-.456 1.414-1.223 2.694-1.903 3.987-.365.64-.819 1.213-1.227 1.813-.412.6-.832 1.2-1.342 1.72l-1.466 1.6-1.622 1.427-.814.707-.881.613-1.772 1.187-1.13-4.267h.003c1.335.08 2.682.147 4.004.413.67.094 1.326.254 1.979.427.656.173 1.319.32 1.952.573 1.293.427 2.525 1 3.752 1.614l1.776 1.026c.583.36 1.13.787 1.695 1.174 1.093.84 2.161 1.72 3.093 2.746.493.494.947 1.027 1.367 1.574.437.546.872 1.093 1.236 1.693.794 1.16 1.428 2.413 1.996 3.707.248.653.529 1.306.741 1.973l.557 2.053.332 2.094c.088.706.091 1.413.134 2.12l.024.52-.022.586-.041.92c-.039.64-.155 1.467-.252 2.187-.275 1.387-.617 2.76-1.13 4.067-.478 1.333-1.122 2.586-1.853 3.773a24.84 24.84 0 0 1-2.478 3.333c-.932 1.027-1.908 2-2.986 2.84-1.062.867-2.216 1.6-3.393 2.28-1.176.667-2.417 1.214-3.675 1.68l-.006.014.124-4.254c6.324 2.827 11.941 7.307 16.178 12.894 4.288 5.573 6.996 12.32 8.07 19.293l.32 2.64.134 2.64.016.333.008.174c-.001.093.007-.107-.001.226l-.004.08-.024.614-.05 1.226c-.045.827-.037 1.6-.126 2.48l-.353 2.707-.187 1.36-.29 1.293-.6 2.574c-.218.853-.535 1.693-.803 2.533-2.212 6.72-6.242 12.853-11.491 17.667-.625.626-1.33 1.173-2.037 1.72-.707.546-1.396 1.106-2.122 1.626l-2.262 1.427c-.38.24-.75.48-1.139.707l-1.197.586-2.399 1.187-2.503.947-1.253.453c-.423.147-.859.24-1.287.36l-2.585.667c-.864.213-1.75.293-2.625.44-.88.106-1.752.32-2.639.333l-2.652.133-.663.027-.332.013h-.082c.073.014-.194 0-.194 0h-.153l-1.225-.04c-1.547-.013-3.475-.226-5.25-.44l-2.614-.466c-.867-.187-1.724-.427-2.586-.64-6.862-1.894-13.202-5.707-18.158-10.694-4.963-5-8.76-10.92-11.595-17.12-1.45-3.093-2.661-6.28-3.699-9.493-1.068-3.213-1.914-6.48-2.661-9.76-1.463-6.56-2.407-13.187-2.924-19.84-.288-3.32-.421-6.653-.521-9.973C.852 85.8.857 82.52.86 79.267l-.003-19.6-.001-9.8-.001-4.907v-.613l.032-.787.062-1.227c.048-.813.071-1.613.14-2.453.487-3.707 1.174-7.2 2.48-10.493 1.156-3.36 2.936-6.454 4.846-9.427 4.065-5.787 9.454-10.653 15.709-13.973A45.166 45.166 0 0 1 44.539.907l.153.013z" fill="#231F20"/>
        <path d="M4.281 94.573l49.222-5.933a3.336 3.336 0 0 1 3.708 2.907 3.328 3.328 0 0 1-2.911 3.706c-.008.014-.035.014-.044.014L4.96 100.533a2.99 2.99 0 0 1-3.303-2.653 3.009 3.009 0 0 1 2.624-3.307m33.554 10.347c3.457-.4 6.578 2.093 6.972 5.547.393 3.453-2.091 6.573-5.548 6.973-3.456.387-6.579-2.093-6.972-5.547-.394-3.453 2.09-6.586 5.548-6.973M33.907 70.4c3.456-.387 6.578 2.093 6.972 5.547.393 3.466-2.091 6.586-5.548 6.973a6.288 6.288 0 0 1-6.972-5.547c-.394-3.453 2.09-6.573 5.548-6.973" fill="#231F20"/>
    </g>
</svg>
