<svg width="99" height="168" xmlns="http://www.w3.org/2000/svg">
    <title>
        nin
    </title>
    <g fill="none">
        <path d="M95.44 149.48c0 8.173-6.867 14.8-15.32 14.8-8.467 0-15.32-6.627-15.32-14.8 0 8.173-6.867 13.747-15.32 13.747-8.467 0-15.32-5.574-15.32-13.747 0 8.173-6.867 14.8-15.32 14.8-8.467 0-15.32-6.627-15.32-14.8l.573-7.893c0-22.48 20.307-29.894 45.48-29.894 25.174 0 45.68 10.054 45.68 30.414l.187 7.373" fill="#FFF"/>
        <path d="M91.96 150.733l-.013-1.16-.12-8.133a24.083 24.083 0 0 0-1.12-6.987 21.457 21.457 0 0 0-3.254-6.24c-1.413-1.92-3.2-3.6-5.16-5.12-3.933-3.013-8.706-5.146-13.693-6.573-4.987-1.467-10.267-2.133-15.507-2.387-5.293-.24-10.653 0-15.866.707a63.87 63.87 0 0 0-7.694 1.547c-2.506.68-4.946 1.506-7.253 2.56-4.6 2.093-8.587 5.133-11.173 9.026-2.56 3.92-3.667 8.68-3.6 13.614v.16l-.014.08L7 149.733v-.253c.053 2.987 1.293 5.92 3.507 8.013 1.106 1.054 2.386 1.92 3.813 2.507.707.293 1.44.533 2.2.68.373.08.773.147 1.147.187l.52.053.653.027c3.12.106 6.28-.974 8.733-3.014a12.973 12.973 0 0 0 3.067-3.72c.813-1.413 1.28-3.026 1.52-4.733l.053-.44a1.987 1.987 0 0 1 3.947.44v.013c.213 1.654.68 3.187 1.453 4.52.747 1.36 1.787 2.507 3.014 3.427 1.226.92 2.613 1.653 4.133 2.093.76.227 1.52.414 2.32.52.387.067.8.107 1.187.134l.56.026.653.014c3.227.013 6.413-.934 8.853-2.787 1.214-.933 2.254-2.08 3.014-3.427.76-1.346 1.226-2.88 1.453-4.533l.053-.44a1.981 1.981 0 0 1 2.227-1.707 1.99 1.99 0 0 1 1.72 2.147v.013c.2 1.694.68 3.307 1.48 4.747.76 1.44 1.813 2.72 3.067 3.733 1.24 1.014 2.64 1.814 4.146 2.307.747.24 1.507.44 2.28.547.387.053.787.093 1.16.12l.52.013.667-.013a12.746 12.746 0 0 0 8.32-3.454 11.731 11.731 0 0 0 2.6-3.653c.32-.68.56-1.387.733-2.12.08-.32.134-.653.187-.987zm6.707-8.773l.093 7.613.013.734-.04 1a16.477 16.477 0 0 1-.253 1.813 17.952 17.952 0 0 1-1.04 3.507 18.314 18.314 0 0 1-4.173 5.96c-1.747 1.68-3.854 2.96-6.107 3.826-2.253.854-4.667 1.24-7.04 1.2l-.827-.04-.946-.093a25.42 25.42 0 0 1-1.76-.293 18.552 18.552 0 0 1-3.387-1.08c-2.173-.96-4.16-2.294-5.773-4a17.31 17.31 0 0 1-3.707-5.867c-.787-2.187-1.133-4.507-.92-6.747v-.013h4a14.35 14.35 0 0 1-.933 6.613 15.086 15.086 0 0 1-3.947 5.6c-1.707 1.56-3.747 2.667-5.867 3.427-2.133.747-4.36 1.08-6.573 1.107l-.773-.027-.88-.053a22.747 22.747 0 0 1-1.667-.2c-1.093-.187-2.187-.44-3.253-.827-2.12-.76-4.16-1.867-5.867-3.413-1.707-1.534-3.093-3.467-3.947-5.6-.84-2.134-1.16-4.44-.933-6.614v-.013h4c.227 2.253-.12 4.573-.88 6.76a16.657 16.657 0 0 1-3.707 5.893c-1.626 1.707-3.626 3.054-5.8 4a18.793 18.793 0 0 1-6.933 1.48l-.827-.013-.946-.04c-.614-.053-1.2-.133-1.787-.24-1.187-.2-2.347-.52-3.48-.947-2.24-.853-4.347-2.133-6.107-3.8a18.338 18.338 0 0 1-4.2-5.933c-1-2.24-1.48-4.72-1.466-7.16v-.067c0-.053.013-.12.013-.186l.64-7.894v.254c.027-2.96.373-5.987 1.2-8.934a27.783 27.783 0 0 1 3.96-8.293c1.787-2.52 4.013-4.693 6.453-6.44 2.44-1.76 5.094-3.093 7.787-4.16 5.4-2.12 11-3.173 16.547-3.76 5.56-.6 11.08-.733 16.626-.587a83.13 83.13 0 0 1 16.654 2.187c5.48 1.347 10.933 3.387 15.826 6.72 2.427 1.667 4.72 3.64 6.64 6.013a28.227 28.227 0 0 1 4.587 7.947c1.053 2.893 1.573 5.96 1.68 8.973l.027.707z" fill="#231F20"/>
        <path d="M47.213 4.28c14.534 0 26.64 8.613 26.64 19.24 0 6.387-4.253 12.013-10.786 15.52 12.2.693 21.813 8.133 21.813 17.24 0 6.96-5.64 12.96-13.747 15.693C84.4 77.213 93.547 88.2 93.547 100.92c0 17.787-16.32 32.2-38.414 32.2-33.386 0-48.253-28.707-48.253-64.28V36.493C6.88 18.707 25.12 4.28 47.213 4.28" fill="#FFF"/>
        <path d="M47.213 7.653c-5.346 0-10.68.92-15.653 2.747-4.973 1.827-9.587 4.613-13.293 8.24-3.68 3.627-6.44 8.12-7.48 13.013-.16.6-.227 1.227-.334 1.84-.066.614-.146 1.08-.173 1.787l-.027 1.08-.013.133v28.734c0 2.893-.027 5.68.107 8.453.093 2.773.333 5.547.64 8.293.653 5.507 1.746 10.92 3.426 16.12 1.694 5.2 3.974 10.16 7 14.56 3.027 4.387 6.774 8.227 11.214 11.027a39.275 39.275 0 0 0 7.026 3.507c2.467.92 5.054 1.533 7.667 1.986l1.987.28 1.933.174c1.187.133 2.92.12 4.093.16a43.819 43.819 0 0 0 7.934-.76c5.213-.974 10.213-2.947 14.48-5.907 4.28-2.933 7.786-6.88 9.973-11.453 2.2-4.534 2.96-9.787 2.227-14.72-.76-4.974-3.24-9.667-6.734-13.56-3.493-3.907-8.013-6.987-12.946-9.24l-.147-.067a2.317 2.317 0 0 1-1.147-3.067 2.315 2.315 0 0 1 1.414-1.24v-.013c.92-.4 1.84-.827 2.706-1.293.867-.48 1.72-1 2.494-1.587.786-.56 1.56-1.16 2.226-1.827.694-.653 1.267-1.373 1.827-2.106.493-.76.987-1.52 1.32-2.32.387-.787.6-1.64.773-2.44.014-.187.04-.36.067-.534.013-.106.04-.16.053-.293l.014-.413.04-.814c-.014.294 0 .067 0 .134v-.027l-.014-.04v-.24l-.013-.32a10.622 10.622 0 0 0-.493-2.48c-.534-1.627-1.48-3.16-2.72-4.533-1.227-1.374-2.747-2.56-4.4-3.56-3.347-2.014-7.28-3.187-11.334-3.694l-.253-.026c-1.253-.16-2.147-1.32-2-2.574a2.35 2.35 0 0 1 1.28-1.786c3.613-2.267 6.68-5.36 8.013-8.934.32-.893.52-1.813.667-2.706.027-.414.093-.707.093-1.374V23.4v.12-.067l-.013-.16c-.027-.226-.013-.453-.053-.68-.2-1.8-.894-3.533-1.92-5.106-2.054-3.174-5.467-5.68-9.254-7.334a29.372 29.372 0 0 0-5.973-1.88 27.748 27.748 0 0 0-3.133-.466 20.693 20.693 0 0 0-1.547-.12c-.467-.04-1.133-.04-1.693-.054h.066zM47.267.92c.613.013 1.12 0 1.813.04.667.027 1.333.067 1.96.133a36.682 36.682 0 0 1 11.2 2.8c2.373 1.04 4.68 2.36 6.76 4.027 2.067 1.693 3.973 3.693 5.4 6.107 1.413 2.4 2.373 5.173 2.547 8.053.026.36.013.72.026 1.067v.64l-.026.44c-.014.506-.134 1.36-.254 2.106a17.842 17.842 0 0 1-1.28 4.014c-1.186 2.533-2.866 4.706-4.813 6.493-1.947 1.773-4.147 3.173-6.427 4.253h-.013l-.96-4.386c4.72 0 9.52 1.08 13.853 3.4a22.749 22.749 0 0 1 5.96 4.506c1.76 1.854 3.214 4.12 4.067 6.68.413 1.267.68 2.614.76 3.974l.013.506.014.254v.4l-.054.826-.013.414c-.013.146-.053.36-.067.533l-.173 1.093c-.307 1.334-.707 2.614-1.307 3.8-.56 1.214-1.306 2.294-2.08 3.32-.826.974-1.706 1.907-2.666 2.72-.934.827-1.947 1.547-2.987 2.2-1.053.64-2.147 1.174-3.253 1.667-.547.227-1.12.44-1.68.653l-1.707.534.107-4.374c5.68 1.974 11.093 5.12 15.48 9.547 4.413 4.347 7.693 10.12 8.893 16.453.307 1.587.48 3.2.507 4.8l.013.4v.267l-.013.533c-.014.387 0 .68-.04 1.12-.067.827-.12 1.694-.24 2.467-.414 3.173-1.347 6.28-2.694 9.173-2.706 5.814-7.12 10.654-12.28 14.174-5.173 3.533-11.08 5.786-17.12 6.88a52.64 52.64 0 0 1-9.133.826c-1.68-.053-2.827-.013-4.493-.173-.774-.067-1.56-.12-2.334-.2l-2.266-.32c-3.027-.507-6.027-1.24-8.934-2.32a45.515 45.515 0 0 1-8.306-4.133c-5.254-3.32-9.667-7.84-13.134-12.867-3.453-5.04-5.986-10.587-7.84-16.267-1.84-5.706-3.026-11.546-3.72-17.413-.333-2.933-.586-5.88-.68-8.813-.146-2.947-.12-5.894-.12-8.72v-29.08l.04-1.08c.027-.707.12-1.68.214-2.467.133-.8.24-1.6.44-2.387 1.36-6.346 4.88-12 9.333-16.373 4.48-4.387 9.907-7.627 15.667-9.747C34.987 1.96 41.107.92 47.213.907l.054.013z" fill="#231F20"/>
        <path d="M6.96 77.12l49.213-5.933a3.322 3.322 0 0 1 3.707 2.906 3.322 3.322 0 0 1-2.907 3.707h-.04L7.627 83.08a2.994 2.994 0 0 1-3.294-2.667A3.006 3.006 0 0 1 6.96 77.12m33.547 10.347c3.453-.4 6.573 2.08 6.973 5.546.387 3.454-2.093 6.574-5.547 6.96-3.453.4-6.573-2.08-6.973-5.546-.4-3.454 2.093-6.574 5.547-6.96m-3.934-34.52a6.29 6.29 0 0 1 6.974 5.546c.4 3.454-2.08 6.574-5.547 6.974a6.314 6.314 0 0 1-6.973-5.547c-.387-3.467 2.093-6.587 5.546-6.973" fill="#231F20"/>
    </g>
</svg>
