<svg width="94" height="168" xmlns="http://www.w3.org/2000/svg">
    <title>
        no
    </title>
    <g fill="none" fill-rule="evenodd">
        <path d="M43.837 4.28c14.536 0 26.647 10.707 26.647 23.907 0 7.92-4.261 14.92-10.795 19.266 12.206.854 21.822 10.094 21.822 21.4 0 8.654-5.643 16.094-13.758 19.494 13.279 6.506 22.424 20.16 22.424 35.946 0 22.08-16.329 40-38.42 40-33.384 0-48.246-35.653-48.246-79.84V44.28c0-22.093 18.234-40 40.326-40" fill="#FFF" fill-rule="nonzero"/>
        <path d="M43.837 7.653c-5.998.04-11.949 1.534-17.27 4.28-5.296 2.814-9.864 6.947-13.312 11.84-1.602 2.52-3.126 5.12-4.088 7.96-.239.707-.571 1.387-.739 2.107l-.565 2.173c-.227.734-.324 1.427-.426 2.134l-.344 2.106c-.066.787-.09 1.627-.138 2.427l-.063 1.227-.016.306-.008.147-.004.08c.008-.32.003-.04.004-.093v.613l-.001 4.907-.002 9.8-.002 19.6c-.006 3.28-.01 6.533.056 9.72.096 3.2.224 6.413.498 9.6.495 6.386 1.398 12.72 2.778 18.92.704 3.08 1.498 6.16 2.492 9.146.964 3 2.084 5.934 3.406 8.76 2.584 5.667 5.988 10.907 10.24 15.187 4.258 4.28 9.494 7.4 15.232 9 .724.173 1.442.387 2.171.547l2.21.386c1.467.16 2.789.36 4.511.374l1.224.04.154.013c.05 0-.166-.013-.04-.013h.069l.281-.014.56-.04 2.243-.12c.752 0 1.477-.2 2.217-.293.734-.133 1.482-.187 2.203-.373l2.156-.574c.357-.106.724-.173 1.075-.293l1.04-.4 2.084-.787 1.988-1 .994-.506c.323-.174.628-.387.943-.587l1.879-1.2c.6-.427 1.168-.907 1.756-1.36.586-.453 1.177-.907 1.689-1.453l1.607-1.547c.52-.533.973-1.12 1.466-1.68 1.024-1.08 1.799-2.373 2.675-3.573.435-.6.75-1.294 1.133-1.934.35-.653.783-1.266 1.052-1.973.595-1.373 1.272-2.707 1.703-4.147.232-.706.519-1.4.712-2.133l.53-2.187.266-1.093.153-1.067.326-2.146c.092-.747.098-1.614.152-2.414l.064-1.213.032-.613.004-.08c-.006.28-.003.04-.004.08l-.004-.134-.006-.28-.048-2.253-.21-2.24c-.731-5.96-2.93-11.733-6.352-16.733-3.452-4.987-8.099-9.174-13.496-12.134l-.115-.066a2.331 2.331 0 0 1-.915-3.16c.266-.48.68-.827 1.154-1.027h.005c.988-.52 1.955-1.053 2.865-1.68.906-.613 1.783-1.28 2.564-2.04.818-.72 1.543-1.52 2.228-2.347.66-.84 1.268-1.72 1.771-2.653.245-.48.504-.933.695-1.427.23-.48.417-.96.585-1.466.361-.974.577-2 .761-3.027.035-.493.124-.88.155-1.467l.033-.92.01-.226.004-.12.001-.054.001-.026c.002-.04-.004.213-.002.106v-.013l-.026-.4c-.044-.507-.038-1.04-.109-1.547l-.252-1.546-.4-1.507c-.15-.493-.364-.973-.537-1.467-.412-.96-.884-1.906-1.46-2.786-.255-.467-.58-.88-.903-1.307-.305-.427-.64-.84-1.013-1.227-.698-.8-1.494-1.533-2.311-2.226-.43-.32-.839-.68-1.284-.987l-1.365-.893c-.954-.52-1.916-1.04-2.939-1.44-.493-.24-1.02-.4-1.541-.587a12.989 12.989 0 0 0-1.584-.48c-1.068-.307-2.17-.467-3.274-.667h-.004a2.307 2.307 0 0 1-2.172-2.44c.04-.666.348-1.24.811-1.626l.232-.2 1.364-1.147.684-.573.612-.64 1.22-1.267 1.059-1.4c.378-.44.681-.933.969-1.427.287-.506.623-.973.872-1.493.445-1.053.997-2.053 1.255-3.173.136-.534.392-1.094.437-1.6.075-.507.173-1.014.273-1.52l.078-.374.021-.493.044-.973.044-.987.012-.24.005-.12.003-.067.001-.026-.006.186h-.002l-.037-.426-.137-1.654-.328-1.64c-.082-.546-.32-1.066-.467-1.586-.14-.547-.363-1.054-.6-1.56-.399-1.027-.983-1.987-1.548-2.947l-.964-1.373c-.345-.44-.733-.854-1.092-1.294-.345-.44-.787-.8-1.18-1.2-.393-.413-.804-.8-1.261-1.146-.852-.747-1.815-1.36-2.763-2-1.001-.547-1.979-1.147-3.052-1.56-1.032-.507-2.148-.814-3.236-1.187-1.12-.253-2.26-.56-3.304-.667-.956-.213-2.425-.213-3.69-.293l.155.013zM43.991.92c1.342.08 2.496.027 4.117.293 1.561.147 2.95.507 4.376.84 1.39.44 2.803.84 4.132 1.467 1.365.533 2.639 1.267 3.921 1.987 1.231.8 2.46 1.613 3.578 2.586.586.44 1.125.947 1.646 1.48.522.52 1.079 1.014 1.531 1.614.468.573.957 1.133 1.401 1.733l1.246 1.853c.738 1.307 1.484 2.614 1.989 4.027.284.693.545 1.4.719 2.133.176.734.436 1.44.53 2.187l.338 2.227.092 2.253.017.56-.01.28-.006.053-.01.12-.022.254-.087.973-.088.973-.042.494-.116.573c-.16.773-.32 1.56-.507 2.32-.16.787-.487 1.427-.727 2.133-.456 1.414-1.222 2.694-1.902 3.987-.366.64-.819 1.213-1.227 1.813-.412.6-.832 1.2-1.343 1.72l-1.465 1.6-1.621 1.427-.815.707-.881.613-1.772 1.187-1.13-4.267h.004c1.334.08 2.68.147 4.003.413.67.094 1.327.254 1.98.427.655.173 1.317.32 1.95.573 1.295.427 2.527 1 3.754 1.614l1.775 1.026c.582.36 1.129.787 1.694 1.174 1.094.84 2.162 1.72 3.094 2.746.493.494.946 1.027 1.368 1.574.437.546.87 1.093 1.234 1.693.795 1.16 1.43 2.413 1.996 3.707.248.653.53 1.306.742 1.973l.557 2.053.332 2.094c.09.706.09 1.413.133 2.12l.024.52-.021.586-.041.92c-.039.64-.155 1.467-.252 2.187-.275 1.387-.618 2.76-1.131 4.067-.477 1.333-1.121 2.586-1.852 3.773a24.84 24.84 0 0 1-2.479 3.333c-.932 1.027-1.908 2-2.985 2.84-1.063.867-2.216 1.6-3.393 2.28-1.176.667-2.418 1.214-3.675 1.68l-.007.014.124-4.254c6.324 2.827 11.942 7.307 16.179 12.894 4.288 5.573 6.996 12.32 8.07 19.293l.32 2.64.134 2.64.016.333.008.174c-.001.093.007-.107-.001.226l-.003.08-.025.614-.05 1.226c-.045.827-.037 1.6-.126 2.48l-.354 2.707-.186 1.36-.291 1.293-.599 2.574c-.218.853-.536 1.693-.802 2.533-2.214 6.72-6.243 12.853-11.492 17.667-.624.626-1.331 1.173-2.038 1.72-.706.546-1.396 1.106-2.121 1.626l-2.263 1.427c-.38.24-.749.48-1.138.707l-1.198.586-2.398 1.187-2.503.947-1.253.453c-.422.147-.859.24-1.287.36l-2.585.667c-.864.213-1.751.293-2.626.44-.88.106-1.752.32-2.638.333l-2.652.133-.663.027-.332.013h-.083c.074.014-.193 0-.193 0h-.153l-1.226-.04c-1.546-.013-3.474-.226-5.249-.44l-2.615-.466c-.866-.187-1.724-.427-2.585-.64-6.863-1.894-13.203-5.707-18.159-10.694-4.962-5-8.76-10.92-11.594-17.12-1.45-3.093-2.662-6.28-3.699-9.493-1.068-3.213-1.915-6.48-2.661-9.76C2.204 112.4 1.26 105.773.743 99.12.455 95.8.32 92.467.22 89.147.151 85.8.156 82.52.16 79.267l-.003-19.6-.001-9.8-.002-4.907v-.613l.032-.787.063-1.227c.048-.813.07-1.613.14-2.453.487-3.707 1.173-7.2 2.48-10.493 1.156-3.36 2.936-6.454 4.845-9.427 4.066-5.787 9.455-10.653 15.71-13.973A45.166 45.166 0 0 1 43.837.907l.154.013z" fill="#231F20" fill-rule="nonzero"/>
        <path d="M55.428 93.36c0 9.813-7.947 17.76-17.75 17.76-9.806 0-17.753-7.947-17.753-17.76 0-9.8 7.947-17.747 17.752-17.747 9.804 0 17.751 7.947 17.751 17.747" fill="#FFF" fill-rule="nonzero"/>
        <path d="M55.428 93.36c0 9.813-7.947 17.76-17.75 17.76-9.806 0-17.753-7.947-17.753-17.76 0-9.8 7.947-17.747 17.752-17.747 9.804 0 17.751 7.947 17.751 17.747z" stroke="#231F20" stroke-width="5.333"/>
        <path d="M44.73 92.813a7.055 7.055 0 0 1-14.107 0 7.055 7.055 0 0 1 14.108 0" fill="#231F20" fill-rule="nonzero"/>
    </g>
</svg>
