<svg width="100" height="168" xmlns="http://www.w3.org/2000/svg">
    <title>
        non
    </title>
    <g fill="none" fill-rule="evenodd">
        <path d="M95.773 149.48c0 8.173-6.866 14.8-15.32 14.8-8.466 0-15.32-6.627-15.32-14.8 0 8.173-6.866 13.747-15.32 13.747-8.466 0-15.32-5.574-15.32-13.747 0 8.173-6.866 14.8-15.32 14.8-8.466 0-15.32-6.627-15.32-14.8l.574-7.893c0-22.48 20.306-29.894 45.48-29.894 25.173 0 45.68 10.054 45.68 30.414l.186 7.373" fill="#FFF" fill-rule="nonzero"/>
        <path d="M92.293 150.733l-.013-1.16-.12-8.133a24.083 24.083 0 0 0-1.12-6.987 21.457 21.457 0 0 0-3.253-6.24c-1.414-1.92-3.2-3.6-5.16-5.12-3.934-3.013-8.707-5.146-13.694-6.573-4.986-1.467-10.266-2.133-15.506-2.387-5.294-.24-10.654 0-15.867.707a63.87 63.87 0 0 0-7.693 1.547c-2.507.68-4.947 1.506-7.254 2.56-4.6 2.093-8.586 5.133-11.173 9.026-2.56 3.92-3.667 8.68-3.6 13.614v.16l-.013.08-.494 7.906v-.253c.054 2.987 1.294 5.92 3.507 8.013 1.107 1.054 2.387 1.92 3.813 2.507.707.293 1.44.533 2.2.68.374.08.774.147 1.147.187l.52.053.653.027c3.12.106 6.28-.974 8.734-3.014a12.973 12.973 0 0 0 3.066-3.72c.814-1.413 1.28-3.026 1.52-4.733l.054-.44a1.987 1.987 0 0 1 3.946.44v.013c.214 1.654.68 3.187 1.454 4.52.746 1.36 1.786 2.507 3.013 3.427 1.227.92 2.613 1.653 4.133 2.093.76.227 1.52.414 2.32.52.387.067.8.107 1.187.134l.56.026.653.014c3.227.013 6.414-.934 8.854-2.787 1.213-.933 2.253-2.08 3.013-3.427.76-1.346 1.227-2.88 1.453-4.533l.054-.44a1.981 1.981 0 0 1 2.226-1.707 1.99 1.99 0 0 1 1.72 2.147v.013c.2 1.694.68 3.307 1.48 4.747.76 1.44 1.814 2.72 3.067 3.733 1.24 1.014 2.64 1.814 4.147 2.307.746.24 1.506.44 2.28.547.386.053.786.093 1.16.12l.52.013.666-.013a12.746 12.746 0 0 0 8.32-3.454 11.731 11.731 0 0 0 2.6-3.653c.32-.68.56-1.387.734-2.12.08-.32.133-.653.186-.987zM99 141.96l.093 7.613.014.734-.04 1a16.477 16.477 0 0 1-.254 1.813 17.952 17.952 0 0 1-1.04 3.507 18.314 18.314 0 0 1-4.173 5.96c-1.747 1.68-3.853 2.96-6.107 3.826-2.253.854-4.666 1.24-7.04 1.2l-.826-.04-.947-.093c-.6-.08-1.173-.173-1.76-.293a18.552 18.552 0 0 1-3.387-1.08c-2.173-.96-4.16-2.294-5.773-4a17.31 17.31 0 0 1-3.707-5.867c-.786-2.187-1.133-4.507-.92-6.747v-.013h4a14.35 14.35 0 0 1-.933 6.613 15.086 15.086 0 0 1-3.947 5.6c-1.706 1.56-3.746 2.667-5.866 3.427-2.134.747-4.36 1.08-6.574 1.107l-.773-.027-.88-.053a22.747 22.747 0 0 1-1.667-.2c-1.093-.187-2.186-.44-3.253-.827-2.12-.76-4.16-1.867-5.867-3.413-1.706-1.534-3.093-3.467-3.946-5.6-.84-2.134-1.16-4.44-.934-6.614v-.013h4c.227 2.253-.12 4.573-.88 6.76a16.657 16.657 0 0 1-3.706 5.893c-1.627 1.707-3.627 3.054-5.8 4a18.793 18.793 0 0 1-6.934 1.48l-.826-.013-.947-.04c-.613-.053-1.2-.133-1.787-.24-1.186-.2-2.346-.52-3.48-.947-2.24-.853-4.346-2.133-6.106-3.8a18.338 18.338 0 0 1-4.2-5.933c-1-2.24-1.48-4.72-1.467-7.16v-.067c0-.053.013-.12.013-.186l.64-7.894v.254c.027-2.96.374-5.987 1.2-8.934a27.783 27.783 0 0 1 3.96-8.293c1.787-2.52 4.014-4.693 6.454-6.44 2.44-1.76 5.093-3.093 7.786-4.16 5.4-2.12 11-3.173 16.547-3.76 5.56-.6 11.08-.733 16.627-.587A83.13 83.13 0 0 1 70.24 111.6c5.48 1.347 10.933 3.387 15.827 6.72 2.426 1.667 4.72 3.64 6.64 6.013a28.227 28.227 0 0 1 4.586 7.947c1.054 2.893 1.574 5.96 1.68 8.973l.027.707z" fill="#231F20" fill-rule="nonzero"/>
        <path d="M47.507 4.28c14.533 0 26.653 8.613 26.653 19.24 0 6.387-4.267 12.013-10.8 15.52 12.213.693 21.827 8.133 21.827 17.24 0 6.96-5.64 12.96-13.76 15.693 13.28 5.24 22.426 16.227 22.426 28.947 0 17.787-16.333 32.2-38.426 32.2-33.387 0-48.24-28.707-48.24-64.28V36.493c0-17.786 18.226-32.213 40.32-32.213" fill="#FFF" fill-rule="nonzero"/>
        <path d="M47.507 7.653c-5.334 0-10.68.92-15.654 2.747-4.973 1.827-9.573 4.613-13.28 8.24-3.693 3.627-6.453 8.12-7.493 13.013-.16.6-.227 1.227-.333 1.84-.067.614-.134 1.08-.16 1.787l-.04 1.08v.133l-.014.067c0 .12.014-.08.014-.04v.8l-.014 2.147v25.76c0 2.893-.026 5.68.107 8.453.093 2.773.333 5.547.64 8.293.653 5.507 1.747 10.92 3.427 16.12 1.693 5.2 3.986 10.16 7 14.56 3.026 4.387 6.786 8.227 11.213 11.027a38.955 38.955 0 0 0 7.04 3.507c2.467.92 5.04 1.533 7.667 1.986l1.973.28 1.947.174c1.186.133 2.906.12 4.08.16a43.965 43.965 0 0 0 7.946-.76c5.2-.974 10.2-2.947 14.48-5.907 4.267-2.933 7.787-6.88 9.96-11.453 2.214-4.534 2.96-9.787 2.227-14.72-.76-4.974-3.24-9.667-6.72-13.56-3.507-3.907-8.013-6.987-12.947-9.24l-.16-.067a2.329 2.329 0 0 1-1.146-3.067 2.315 2.315 0 0 1 1.413-1.24v-.013c.933-.4 1.84-.827 2.72-1.293.867-.48 1.707-1 2.493-1.587.787-.56 1.547-1.16 2.214-1.827.693-.653 1.28-1.373 1.826-2.106.507-.76.987-1.52 1.334-2.32.373-.787.586-1.64.76-2.44a3.4 3.4 0 0 1 .08-.534c.013-.106.04-.16.04-.293l.026-.413.027-.814v.134-.147l-.013-.16-.014-.32a9.979 9.979 0 0 0-.493-2.48c-.52-1.627-1.48-3.16-2.707-4.533-1.226-1.374-2.746-2.56-4.413-3.56-3.347-2.014-7.28-3.187-11.333-3.694l-.24-.026a2.307 2.307 0 0 1-2-2.574c.093-.8.6-1.453 1.266-1.786h.014c3.613-2.267 6.666-5.36 8-8.934.32-.893.533-1.813.666-2.706.027-.414.094-.707.094-1.374l.013-.44V23.4c0-.12-.013.16-.013.12v-.067l-.014-.16c-.013-.226-.013-.453-.053-.68-.2-1.8-.893-3.533-1.92-5.106-2.053-3.174-5.467-5.68-9.24-7.334a29.758 29.758 0 0 0-5.987-1.88 27.304 27.304 0 0 0-3.133-.466 20.874 20.874 0 0 0-1.533-.12c-.48-.04-1.134-.04-1.694-.054h.054zM47.573.92c.614.013 1.107 0 1.814.04.666.027 1.32.067 1.946.133a36.26 36.26 0 0 1 3.8.534 36.47 36.47 0 0 1 7.4 2.266c2.387 1.04 4.68 2.36 6.774 4.027 2.053 1.693 3.96 3.693 5.386 6.107 1.414 2.4 2.387 5.173 2.547 8.053.04.36.027.72.04 1.067v.533l-.013.107-.027.44c-.013.506-.133 1.36-.253 2.106a17.842 17.842 0 0 1-1.28 4.014c-1.187 2.533-2.867 4.706-4.8 6.493-1.96 1.773-4.147 3.173-6.44 4.253l-.974-4.386c4.72 0 9.52 1.08 13.854 3.4a22.593 22.593 0 0 1 5.973 4.506c1.747 1.854 3.2 4.12 4.053 6.68.427 1.267.68 2.614.76 3.974l.014.506.013.254v.4l-.04.826-.027.414c-.013.146-.04.36-.066.533l-.174 1.093c-.306 1.334-.706 2.614-1.306 3.8-.547 1.214-1.294 2.294-2.08 3.32-.827.974-1.694 1.907-2.654 2.72-.933.827-1.96 1.547-3 2.2-1.04.64-2.133 1.174-3.24 1.667-.56.227-1.12.44-1.68.653l-1.72.534.107-4.374c5.693 1.974 11.093 5.12 15.48 9.547 4.427 4.347 7.693 10.12 8.907 16.453.306 1.587.466 3.2.506 4.8v.667l-.013.533c-.013.387 0 .68-.04 1.12-.053.827-.107 1.694-.24 2.467-.413 3.173-1.347 6.28-2.68 9.173-2.707 5.814-7.133 10.654-12.293 14.174-5.174 3.533-11.08 5.786-17.12 6.88-3.014.546-6.08.813-9.134.826-1.68-.053-2.826-.013-4.48-.173-.786-.067-1.573-.12-2.346-.2l-2.267-.32c-3.013-.507-6.027-1.24-8.92-2.32a45.631 45.631 0 0 1-8.32-4.133c-5.24-3.32-9.653-7.84-13.12-12.867-3.453-5.04-6-10.587-7.853-16.267-1.84-5.706-3.014-11.546-3.72-17.413-.334-2.933-.574-5.88-.68-8.813-.134-2.947-.107-5.894-.12-8.72v-28.44l.013-.64.027-1.08c.026-.707.133-1.68.226-2.467.134-.8.227-1.6.427-2.387 1.36-6.346 4.88-12 9.333-16.373 4.494-4.387 9.907-7.627 15.667-9.747C35.293 1.96 41.413.92 47.507.907l.066.013z" fill="#231F20" fill-rule="nonzero"/>
        <path d="M59.107 76.013c0 9.8-7.947 17.76-17.76 17.76-9.8 0-17.747-7.96-17.747-17.76s7.947-17.746 17.747-17.746c9.813 0 17.76 7.946 17.76 17.746" fill="#FFF" fill-rule="nonzero"/>
        <path d="M59.107 76.013c0 9.8-7.947 17.76-17.76 17.76-9.8 0-17.747-7.96-17.747-17.76s7.947-17.746 17.747-17.746c9.813 0 17.76 7.946 17.76 17.746z" stroke="#231F20" stroke-width="5.333"/>
        <path d="M48.4 75.467a7.056 7.056 0 0 1-7.053 7.053 7.056 7.056 0 0 1-7.054-7.053c0-3.907 3.16-7.067 7.054-7.067 3.893 0 7.053 3.16 7.053 7.067" fill="#231F20" fill-rule="nonzero"/>
    </g>
</svg>
