<svg width="94" height="168" xmlns="http://www.w3.org/2000/svg">
    <title>
        nu
    </title>
    <g fill="none">
        <path d="M44.136 4.28c14.536 0 26.647 10.707 26.647 23.907 0 7.92-4.262 14.92-10.795 19.266 12.205.854 21.821 10.094 21.821 21.4 0 8.654-5.642 16.094-13.756 19.494 13.278 6.506 22.423 20.16 22.423 35.946 0 22.08-16.33 40-38.42 40-33.384 0-48.247-35.653-48.247-79.84V44.28c0-22.093 18.235-40 40.327-40" fill="#FFF"/>
        <path d="M44.136 7.653c-5.999.04-11.95 1.534-17.27 4.28-5.297 2.814-9.865 6.947-13.313 11.84-1.601 2.52-3.125 5.12-4.088 7.96-.238.707-.57 1.387-.738 2.107l-.566 2.173c-.226.734-.324 1.427-.425 2.134l-.344 2.106c-.067.787-.09 1.627-.139 2.427l-.062 1.227-.016.306-.008.147-.004.08c.008-.32.002-.04.004-.093v.613l-.002 4.907-.001 9.8-.003 19.6c-.005 3.28-.009 6.533.058 9.72.094 3.2.222 6.413.497 9.6.495 6.386 1.397 12.72 2.777 18.92.704 3.08 1.499 6.16 2.492 9.146.964 3 2.084 5.934 3.407 8.76 2.584 5.667 5.988 10.907 10.24 15.187 4.257 4.28 9.493 7.4 15.232 9 .725.173 1.441.387 2.17.547l2.211.386c1.467.16 2.788.36 4.511.374l1.224.04.153.013c.051 0-.164-.013-.04-.013h.07l.281-.014.56-.04 2.243-.12c.752 0 1.477-.2 2.217-.293.733-.133 1.481-.187 2.203-.373l2.156-.574c.357-.106.724-.173 1.074-.293l1.04-.4 2.084-.787 1.988-1 .996-.506c.322-.174.627-.387.942-.587l1.878-1.2c.6-.427 1.168-.907 1.756-1.36.587-.453 1.178-.907 1.69-1.453l1.606-1.547c.52-.533.974-1.12 1.467-1.68 1.024-1.08 1.799-2.373 2.675-3.573.434-.6.749-1.294 1.133-1.934.35-.653.783-1.266 1.052-1.973.595-1.373 1.272-2.707 1.703-4.147.232-.706.52-1.4.712-2.133l.53-2.187.266-1.093.153-1.067.325-2.146c.092-.747.099-1.614.152-2.414l.064-1.213.032-.613.004-.08c-.005.28-.002.04-.004.08l-.004-.134-.005-.28-.048-2.253-.21-2.24c-.731-5.96-2.93-11.733-6.353-16.733-3.452-4.987-8.098-9.174-13.496-12.134l-.114-.066a2.331 2.331 0 0 1-.915-3.16c.265-.48.68-.827 1.153-1.027h.006c.988-.52 1.954-1.053 2.865-1.68.905-.613 1.784-1.28 2.564-2.04.817-.72 1.543-1.52 2.228-2.347.66-.84 1.268-1.72 1.77-2.653.246-.48.505-.933.697-1.427.229-.48.416-.96.584-1.466.361-.974.577-2 .761-3.027.035-.493.124-.88.155-1.467l.034-.92.008-.226.004-.12.003-.054v-.026c.001-.04-.004.213-.003.106v-.013l-.025-.4c-.044-.507-.039-1.04-.11-1.547l-.251-1.546-.4-1.507c-.151-.493-.364-.973-.538-1.467-.412-.96-.884-1.906-1.46-2.786-.254-.467-.58-.88-.902-1.307-.306-.427-.64-.84-1.014-1.227-.697-.8-1.493-1.533-2.31-2.226-.431-.32-.839-.68-1.284-.987l-1.366-.893c-.953-.52-1.916-1.04-2.938-1.44-.494-.24-1.02-.4-1.542-.587a12.918 12.918 0 0 0-1.584-.48c-1.068-.307-2.169-.467-3.273-.667h-.004a2.307 2.307 0 0 1-2.172-2.44c.04-.666.348-1.24.81-1.626l.233-.2 1.364-1.147.684-.573.613-.64 1.219-1.267 1.06-1.4c.377-.44.68-.933.968-1.427.286-.506.622-.973.873-1.493.444-1.053.996-2.053 1.253-3.173.136-.534.392-1.094.438-1.6.074-.507.173-1.014.273-1.52l.077-.374.022-.493.044-.973.044-.987.012-.24.005-.12.003-.067.001-.026-.007.186h-.001l-.037-.426-.138-1.654-.328-1.64c-.081-.546-.32-1.066-.465-1.586-.141-.547-.364-1.054-.601-1.56-.399-1.027-.983-1.987-1.548-2.947l-.964-1.373c-.346-.44-.734-.854-1.092-1.294-.346-.44-.787-.8-1.18-1.2-.394-.413-.804-.8-1.262-1.146-.852-.747-1.814-1.36-2.762-2-1.002-.547-1.979-1.147-3.052-1.56-1.032-.507-2.148-.814-3.236-1.187-1.12-.253-2.26-.56-3.304-.667-.956-.213-2.426-.213-3.69-.293l.155.013zM44.289.92c1.343.08 2.496.027 4.118.293 1.561.147 2.95.507 4.376.84 1.39.44 2.802.84 4.132 1.467 1.365.533 2.638 1.267 3.921 1.987 1.23.8 2.46 1.613 3.577 2.586.587.44 1.126.947 1.647 1.48.521.52 1.079 1.014 1.53 1.614.469.573.958 1.133 1.402 1.733l1.245 1.853c.739 1.307 1.484 2.614 1.99 4.027.285.693.545 1.4.718 2.133.176.734.436 1.44.531 2.187l.337 2.227.092 2.253.018.56-.011.28-.005.053-.011.12-.021.254-.087.973-.087.973-.044.494-.116.573c-.16.773-.32 1.56-.506 2.32-.16.787-.487 1.427-.727 2.133-.456 1.414-1.223 2.694-1.903 3.987-.365.64-.818 1.213-1.226 1.813-.412.6-.832 1.2-1.343 1.72l-1.465 1.6-1.622 1.427-.814.707-.882.613-1.772 1.187-1.129-4.267h.004c1.333.08 2.68.147 4.003.413.67.094 1.326.254 1.98.427.654.173 1.317.32 1.95.573 1.295.427 2.527 1 3.754 1.614l1.774 1.026c.583.36 1.13.787 1.695 1.174 1.093.84 2.161 1.72 3.093 2.746.495.494.947 1.027 1.368 1.574.438.546.872 1.093 1.235 1.693.795 1.16 1.43 2.413 1.996 3.707.248.653.53 1.306.741 1.973l.558 2.053.332 2.094c.089.706.09 1.413.133 2.12l.024.52-.021.586-.042.92c-.037.64-.154 1.467-.252 2.187-.274 1.387-.617 2.76-1.13 4.067-.478 1.333-1.122 2.586-1.852 3.773a24.84 24.84 0 0 1-2.479 3.333c-.932 1.027-1.908 2-2.985 2.84-1.063.867-2.216 1.6-3.394 2.28-1.176.667-2.417 1.214-3.674 1.68l-.007.014.124-4.254c6.324 2.827 11.941 7.307 16.179 12.894 4.288 5.573 6.996 12.32 8.069 19.293l.321 2.64.134 2.64.016.333.008.174c-.002.093.006-.107-.002.226l-.002.08-.026.614-.049 1.226c-.045.827-.037 1.6-.127 2.48l-.353 2.707-.187 1.36-.29 1.293-.598 2.574c-.22.853-.537 1.693-.804 2.533-2.213 6.72-6.242 12.853-11.492 17.667-.624.626-1.33 1.173-2.037 1.72-.707.546-1.396 1.106-2.121 1.626l-2.263 1.427c-.38.24-.75.48-1.139.707l-1.197.586-2.399 1.187-2.502.947-1.254.453c-.421.147-.858.24-1.286.36l-2.584.667c-.866.213-1.752.293-2.627.44-.88.106-1.752.32-2.639.333l-2.652.133-.662.027-.332.013H52.1c.073.014-.193 0-.193 0h-.154l-1.224-.04c-1.546-.013-3.474-.226-5.25-.44l-2.615-.466c-.867-.187-1.724-.427-2.585-.64-6.863-1.894-13.203-5.707-18.158-10.694-4.962-5-8.761-10.92-11.594-17.12-1.451-3.093-2.663-6.28-3.7-9.493-1.068-3.213-1.915-6.48-2.662-9.76-1.462-6.56-2.406-13.187-2.924-19.84C.755 95.8.62 92.467.52 89.147.45 85.8.455 82.52.457 79.267l-.002-19.6-.002-9.8-.001-4.907v-.613l.032-.787.063-1.227c.048-.813.07-1.613.14-2.453.486-3.707 1.173-7.2 2.48-10.493 1.156-3.36 2.936-6.454 4.845-9.427 4.065-5.787 9.455-10.653 15.71-13.973A45.166 45.166 0 0 1 44.135.907l.153.013z" fill="#231F20"/>
        <path d="M6.085 99.747l34.89-5.307a2.991 2.991 0 0 1 3.418 2.507 3.01 3.01 0 0 1-2.514 3.426c-.027 0-.066 0-.092.014l-35.038 4.226a2.46 2.46 0 0 1-2.732-2.146 2.458 2.458 0 0 1 2.068-2.72" fill="#231F20"/>
        <path d="M5.16 84.453s1.844-.293 5.072-.8c3.23-.493 7.835-1.266 13.377-2.066 2.77-.414 5.771-.854 8.946-1.32 1.586-.24 3.217-.48 4.882-.734l1.258-.173c.445-.053.892-.107 1.341-.173a23.92 23.92 0 0 1 3.081-.08c4.082.2 8.288 1.706 11.632 4.533 3.352 2.787 5.754 6.973 6.238 11.507.54 4.466-.867 9.106-3.48 12.573-2.61 3.507-6.346 5.947-10.27 7.08-.981.28-1.972.493-2.962.627-.86.12-1.712.226-2.556.333-1.672.2-3.308.4-4.902.587-3.185.386-6.196.76-8.976 1.093-5.558.693-10.202 1.16-13.448 1.547-3.246.36-5.101.573-5.101.573a2.403 2.403 0 0 1-2.655-2.12 2.41 2.41 0 0 1 2.023-2.64l5.076-.773c3.23-.48 7.84-1.227 13.384-2.014 2.772-.4 5.775-.84 8.95-1.293 1.589-.227 3.22-.467 4.887-.707.826-.12 1.662-.226 2.504-.346.714-.107 1.42-.267 2.119-.467 2.79-.84 5.396-2.587 7.17-5 1.769-2.427 2.655-5.44 2.274-8.413-.301-2.92-1.83-5.707-4.105-7.627-2.27-1.96-5.215-3.04-8.114-3.213a15.82 15.82 0 0 0-2.117.04l-.64.066-.565.067-1.26.173c-1.671.2-3.307.414-4.899.614-3.184.4-6.193.773-8.972 1.12-5.556.706-10.199 1.2-13.443 1.586-3.245.374-5.1.6-5.1.6a2.412 2.412 0 0 1-2.661-2.106 2.404 2.404 0 0 1 2.012-2.654" fill="#231F20"/>
    </g>
</svg>
