<svg width="100" height="168" xmlns="http://www.w3.org/2000/svg">
    <title>
        nun
    </title>
    <g fill="none">
        <path d="M96.107 149.48c0 8.173-6.867 14.8-15.32 14.8-8.467 0-15.32-6.627-15.32-14.8 0 8.173-6.867 13.747-15.32 13.747-8.467 0-15.32-5.574-15.32-13.747 0 8.173-6.867 14.8-15.32 14.8-8.467 0-15.32-6.627-15.32-14.8l.573-7.893c0-22.48 20.307-29.894 45.48-29.894s45.68 10.054 45.68 30.414l.187 7.373" fill="#FFF"/>
        <path d="M92.627 150.733l-.014-1.16-.12-8.133a24.083 24.083 0 0 0-1.12-6.987 21.457 21.457 0 0 0-3.253-6.24c-1.413-1.92-3.2-3.6-5.16-5.12-3.933-3.013-8.707-5.146-13.693-6.573-4.987-1.467-10.267-2.133-15.507-2.387a88.73 88.73 0 0 0-15.867.707 63.87 63.87 0 0 0-7.693 1.547c-2.507.68-4.947 1.506-7.253 2.56-4.6 2.093-8.587 5.133-11.174 9.026-2.56 3.92-3.666 8.68-3.6 13.614v.16l-.013.08-.493 7.906v-.253c.053 2.987 1.293 5.92 3.506 8.013 1.107 1.054 2.387 1.92 3.814 2.507a11.4 11.4 0 0 0 2.2.68c.373.08.773.147 1.146.187l.52.053.654.027c3.12.106 6.28-.974 8.733-3.014a12.973 12.973 0 0 0 3.067-3.72c.813-1.413 1.28-3.026 1.52-4.733l.053-.44a1.987 1.987 0 0 1 3.947.44v.013c.213 1.654.68 3.187 1.453 4.52.747 1.36 1.787 2.507 3.013 3.427 1.227.92 2.614 1.653 4.134 2.093.76.227 1.52.414 2.32.52.386.067.8.107 1.186.134l.56.026.654.014c3.226.013 6.413-.934 8.853-2.787 1.213-.933 2.253-2.08 3.013-3.427.76-1.346 1.227-2.88 1.454-4.533l.053-.44a1.981 1.981 0 0 1 2.227-1.707 1.99 1.99 0 0 1 1.72 2.147v.013c.2 1.694.68 3.307 1.48 4.747.76 1.44 1.813 2.72 3.066 3.733 1.24 1.014 2.64 1.814 4.147 2.307.747.24 1.507.44 2.28.547.387.053.787.093 1.16.12l.52.013.667-.013a12.746 12.746 0 0 0 8.32-3.454 11.731 11.731 0 0 0 2.6-3.653c.32-.68.56-1.387.733-2.12.08-.32.133-.653.187-.987zm6.706-8.773l.094 7.613.013.734-.04 1a16.477 16.477 0 0 1-.253 1.813 17.952 17.952 0 0 1-1.04 3.507 18.314 18.314 0 0 1-4.174 5.96c-1.746 1.68-3.853 2.96-6.106 3.826-2.254.854-4.667 1.24-7.04 1.2l-.827-.04-.947-.093c-.6-.08-1.173-.173-1.76-.293a18.552 18.552 0 0 1-3.386-1.08c-2.174-.96-4.16-2.294-5.774-4a17.31 17.31 0 0 1-3.706-5.867c-.787-2.187-1.134-4.507-.92-6.747v-.013h4a14.35 14.35 0 0 1-.934 6.613 15.086 15.086 0 0 1-3.946 5.6c-1.707 1.56-3.747 2.667-5.867 3.427-2.133.747-4.36 1.08-6.573 1.107l-.774-.027-.88-.053a22.747 22.747 0 0 1-1.666-.2c-1.094-.187-2.187-.44-3.254-.827-2.12-.76-4.16-1.867-5.866-3.413-1.707-1.534-3.094-3.467-3.947-5.6-.84-2.134-1.16-4.44-.933-6.614v-.013h4c.226 2.253-.12 4.573-.88 6.76a16.657 16.657 0 0 1-3.707 5.893c-1.627 1.707-3.627 3.054-5.8 4a18.793 18.793 0 0 1-6.933 1.48l-.827-.013-.947-.04c-.613-.053-1.2-.133-1.786-.24-1.187-.2-2.347-.52-3.48-.947-2.24-.853-4.347-2.133-6.107-3.8a18.338 18.338 0 0 1-4.2-5.933c-1-2.24-1.48-4.72-1.467-7.16v-.067c0-.053.014-.12.014-.186l.64-7.894v.254c.026-2.96.373-5.987 1.2-8.934a27.783 27.783 0 0 1 3.96-8.293c1.786-2.52 4.013-4.693 6.453-6.44 2.44-1.76 5.093-3.093 7.787-4.16 5.4-2.12 11-3.173 16.546-3.76 5.56-.6 11.08-.733 16.627-.587a83.13 83.13 0 0 1 16.653 2.187c5.48 1.347 10.934 3.387 15.827 6.72 2.427 1.667 4.72 3.64 6.64 6.013a28.227 28.227 0 0 1 4.587 7.947c1.053 2.893 1.573 5.96 1.68 8.973l.026.707z" fill="#231F20"/>
        <path d="M47.813 4.28c14.534 0 26.64 8.613 26.64 19.24 0 6.387-4.253 12.013-10.786 15.52 12.2.693 21.813 8.133 21.813 17.24 0 6.96-5.64 12.96-13.76 15.693C85 77.213 94.147 88.2 94.147 100.92c0 17.787-16.334 32.2-38.414 32.2-33.386 0-48.253-28.707-48.253-64.28V36.493C7.48 18.707 25.72 4.28 47.813 4.28" fill="#FFF"/>
        <path d="M47.813 7.653c-5.346 0-10.68.92-15.653 2.747-4.987 1.827-9.587 4.613-13.293 8.24-3.68 3.627-6.44 8.12-7.494 13.013-.146.6-.213 1.227-.333 1.84-.053.614-.133 1.08-.16 1.787l-.04 1.08v28.867c0 2.893-.027 5.68.093 8.453.107 2.773.334 5.547.654 8.293.64 5.507 1.746 10.92 3.426 16.12 1.68 5.2 3.974 10.16 6.987 14.56 3.04 4.387 6.787 8.227 11.227 11.027a38.836 38.836 0 0 0 7.026 3.507c2.467.92 5.054 1.533 7.667 1.986l1.987.28 1.933.174c1.187.133 2.907.12 4.08.16a43.85 43.85 0 0 0 7.947-.76c5.213-.974 10.2-2.947 14.48-5.907 4.28-2.933 7.786-6.88 9.96-11.453 2.213-4.534 2.973-9.787 2.24-14.72-.76-4.974-3.24-9.667-6.734-13.56-3.493-3.907-8.013-6.987-12.946-9.24l-.147-.067a2.317 2.317 0 0 1-1.147-3.067c.28-.613.8-1.053 1.4-1.24l.014-.013c.92-.4 1.826-.827 2.706-1.293.867-.48 1.707-1 2.494-1.587.786-.56 1.546-1.16 2.213-1.827.693-.653 1.28-1.373 1.84-2.106.493-.76.987-1.52 1.32-2.32.373-.787.6-1.64.76-2.44.027-.187.053-.36.08-.534.013-.106.04-.16.053-.293l.014-.413.04-.814c-.014.294 0 .067 0 .134v-.014l-.014-.013v-.28l-.013-.32c-.067-.84-.24-1.667-.507-2.48-.52-1.627-1.466-3.16-2.706-4.533-1.227-1.374-2.747-2.56-4.4-3.56-3.347-2.014-7.294-3.187-11.334-3.694l-.253-.026a2.317 2.317 0 0 1-2-2.574 2.35 2.35 0 0 1 1.28-1.786c3.613-2.267 6.68-5.36 8-8.934.32-.893.533-1.813.68-2.706.027-.414.093-.707.08-1.374l.013-.44V23.4v.12-.067l-.013-.16c-.027-.226-.027-.453-.067-.68-.186-1.8-.88-3.533-1.92-5.106-2.053-3.174-5.453-5.68-9.24-7.334a29.372 29.372 0 0 0-5.973-1.88 27.748 27.748 0 0 0-3.133-.466c-.534-.067-1.054-.094-1.547-.12-.467-.04-1.133-.04-1.693-.054h.066zM47.867.92c.613.013 1.12 0 1.813.04.667.027 1.333.067 1.96.133 1.267.107 2.533.294 3.8.534 2.52.493 5 1.24 7.387 2.266 2.386 1.04 4.68 2.36 6.773 4.027 2.067 1.693 3.973 3.693 5.4 6.107 1.413 2.4 2.373 5.173 2.547 8.053.026.36.013.72.026 1.067v.64l-.04.44c-.013.506-.133 1.36-.24 2.106A17.87 17.87 0 0 1 76 30.347c-1.173 2.533-2.853 4.706-4.8 6.493-1.947 1.773-4.147 3.173-6.44 4.253l-.973-4.386c4.733 0 9.533 1.08 13.866 3.4a22.749 22.749 0 0 1 5.96 4.506c1.76 1.854 3.214 4.12 4.067 6.68a16.5 16.5 0 0 1 .76 3.974l.013.506v.654l-.04.826-.026.414c0 .146-.04.36-.067.533l-.173 1.093c-.294 1.334-.707 2.614-1.294 3.8-.56 1.214-1.306 2.294-2.093 3.32-.827.974-1.693 1.907-2.653 2.72-.934.827-1.947 1.547-2.987 2.2-1.053.64-2.147 1.174-3.253 1.667-.547.227-1.12.44-1.68.653l-1.707.534h-.013l.12-4.374c5.68 1.974 11.093 5.12 15.466 9.547 4.427 4.347 7.707 10.12 8.907 16.453.307 1.587.467 3.2.507 4.8l.013.4v.267l-.013.533c-.014.387 0 .68-.04 1.12-.067.827-.12 1.694-.24 2.467-.414 3.173-1.347 6.28-2.694 9.173-2.706 5.814-7.133 10.654-12.28 14.174-5.173 3.533-11.08 5.786-17.12 6.88a52.758 52.758 0 0 1-9.133.826c-1.693-.053-2.827-.013-4.493-.173-.774-.067-1.574-.12-2.334-.2l-2.28-.32c-3.013-.507-6.013-1.24-8.92-2.32a45.107 45.107 0 0 1-8.306-4.133c-5.254-3.32-9.667-7.84-13.134-12.867-3.453-5.04-5.986-10.587-7.84-16.267C6.8 94.467 5.627 88.627 4.933 82.76c-.333-2.933-.586-5.88-.693-8.813-.133-2.947-.107-5.894-.107-8.72V48.053l-.013-8.586v-2.68l.013-.64.04-1.08c.027-.707.12-1.68.214-2.467.133-.8.24-1.6.426-2.387 1.36-6.346 4.894-12 9.347-16.373 4.48-4.387 9.893-7.627 15.653-9.747C35.587 1.96 41.707.92 47.813.907l.054.013z" fill="#231F20"/>
        <path d="M8.44 81.187l36.227-5.32c1.64-.24 3.16.893 3.4 2.533a3.009 3.009 0 0 1-2.534 3.413c-.026 0-.066 0-.093.014L9.08 86.053a2.449 2.449 0 0 1-2.72-2.16 2.443 2.443 0 0 1 2.08-2.706" fill="#231F20"/>
        <path d="M7.427 67.24l5.16-.987c3.293-.6 7.973-1.533 13.626-2.533 2.814-.507 5.88-1.067 9.107-1.64 1.613-.293 3.28-.6 4.973-.907.907-.146 1.814-.306 2.734-.466.44-.054.853-.107 1.453-.147.573-.04 1.053-.04 1.587-.04 4.173.053 8.533 1.467 12.026 4.28 3.494 2.773 6.014 7.013 6.56 11.68.574 4.533-.88 9.32-3.6 12.827-2.693 3.573-6.573 6-10.613 7.053-1 .28-2.08.467-3.013.573-.867.107-1.734.214-2.587.307-1.72.213-3.4.4-5.027.6-3.266.373-6.346.733-9.2 1.067-5.693.68-10.44 1.146-13.773 1.52-3.32.36-5.227.573-5.227.573-1.306.147-2.493-.813-2.64-2.133a2.409 2.409 0 0 1 2.04-2.627s1.894-.28 5.2-.773C19.52 95 24.24 94.253 29.92 93.48c2.84-.4 5.92-.827 9.173-1.28 1.627-.213 3.294-.453 5.014-.693.853-.107 1.706-.227 2.586-.347.814-.107 1.48-.227 2.227-.44 2.867-.76 5.587-2.52 7.413-4.973 1.854-2.467 2.76-5.534 2.347-8.614-.32-2.96-1.933-5.826-4.32-7.733-2.373-1.947-5.427-2.973-8.4-3.027a9.56 9.56 0 0 0-1.08.014c-.293 0-.76.053-1.2.106-.813.134-1.627.267-2.413.4-1.707.267-3.374.52-5 .787-3.24.507-6.307.987-9.147 1.44-5.653.907-10.387 1.56-13.693 2.067-3.307.493-5.2.786-5.2.786a2.418 2.418 0 0 1-2.734-2.026 2.399 2.399 0 0 1 1.934-2.707" fill="#231F20"/>
    </g>
</svg>
