<svg width="167" height="168" xmlns="http://www.w3.org/2000/svg">
    <title>
        o
    </title>
    <g fill="none" fill-rule="evenodd">
        <path d="M163.477 83.947c0 44.18-35.817 79.988-80 79.988-44.182 0-80-35.807-80-79.988 0-44.18 35.818-80.004 80-80.004 44.183 0 80 35.823 80 80.004" fill-rule="nonzero" fill="#FFF"/>
        <path d="M163.477 83.947c0 44.18-35.817 79.988-80 79.988-44.182 0-80-35.807-80-79.988 0-44.18 35.818-80.004 80-80.004 44.183 0 80 35.823 80 80.004z" stroke="#231F20" stroke-width="6.667"/>
        <path d="M109.474 79.947c0 14.362-11.64 26.012-26 26.012s-26-11.65-26-26.012 11.64-25.996 26-25.996 26 11.634 26 25.996" fill-rule="nonzero" fill="#FFF"/>
        <path d="M109.474 79.947c0 14.362-11.64 26.012-26 26.012s-26-11.65-26-26.012 11.64-25.996 26-25.996 26 11.634 26 25.996z" stroke="#231F20" stroke-width="6.667"/>
        <path d="M93.477 78.795c0 5.517-4.476 10-10 10-5.521 0-10-4.483-10-10s4.479-10 10-10c5.524 0 10 4.483 10 10" fill-rule="nonzero" fill="#231F20"/>
    </g>
</svg>
