<svg width="168" height="169" xmlns="http://www.w3.org/2000/svg">
    <title>
        on
    </title>
    <g fill="none" fill-rule="evenodd">
        <path d="M4.15 142.238c0-22.65 35.638-30.107 79.828-30.107 44.19 0 80.183 10.123 80.183 30.63 0 13.853-12.358 22.404-27.827 22.404-17.334 0-27.996-9.106-27.996-22.958 0 12.758-8.66 20.97-23.99 20.97-16.671 0-24.006-8.212-24.006-20.97 0 13.852-11.663 22.958-28.335 22.958-15.47 0-27.857-9.075-27.857-22.927" fill-rule="nonzero" fill="#FFF"/>
        <path d="M7.487 142.255c0 2.885.678 5.693 1.99 8.192 1.326 2.484 3.301 4.659 5.661 6.356 2.36 1.727 5.122 3.008 8.038 3.825 1.45.417 2.961.726 4.473.91a34.92 34.92 0 0 0 4.628.294c3.147.015 6.248-.324 9.21-1.08 2.962-.756 5.754-1.99 8.191-3.656 2.422-1.682 4.428-3.857 5.785-6.418 1.404-2.53 2.145-5.445 2.206-8.469v-.077a2.68 2.68 0 0 1 2.73-2.607c1.45.046 2.623 1.234 2.608 2.684.154 2.777.601 5.477 1.62 7.806.971 2.36 2.452 4.366 4.442 5.831 1.96 1.466 4.335 2.515 6.927 3.132a28.86 28.86 0 0 0 4.026.679c1.42.123 2.638.185 4.227.185 1.296 0 2.746-.047 4.088-.185 1.358-.14 2.7-.386 3.98-.71 2.576-.663 4.937-1.774 6.958-3.255a14.879 14.879 0 0 0 4.628-5.816c1.11-2.298 1.62-4.936 1.774-7.667h5.322c.108 5.014 1.944 9.703 5.322 13.02 3.394 3.348 8.099 5.307 13.082 6.125 1.25.2 2.514.339 3.795.416.647.03 1.203.062 1.897.077h1.481l.478-.015c2.546-.062 5.076-.37 7.497-.972 4.86-1.173 9.318-3.61 12.326-7.143a16.471 16.471 0 0 0 3.24-6.031c.34-1.065.54-2.299.617-3.363.108-1.28.108-2.376-.046-3.471-.54-4.397-3.61-8.3-7.652-11.277-4.026-3.008-8.916-5.199-13.93-6.958-5.03-1.758-10.305-3.07-15.627-4.088-10.66-2.02-21.597-2.961-32.55-3.285a278.878 278.878 0 0 0-16.46.046c-5.492.154-10.969.447-16.414.94-5.446.495-10.86 1.173-16.183 2.16-5.337.972-10.582 2.268-15.55 4.089-4.951 1.805-9.687 4.18-13.266 7.497-1.79 1.65-3.224 3.533-4.165 5.6a14.159 14.159 0 0 0-1.08 3.224c-.108.57-.2 1.126-.247 1.697l-.062.787-.015.971zm-6.665-.092l.016-1.05.092-1.28a32.51 32.51 0 0 1 .386-2.406 22.26 22.26 0 0 1 1.574-4.643c1.403-2.962 3.44-5.508 5.754-7.606 4.643-4.18 10.073-6.741 15.503-8.7 5.477-1.944 11.03-3.224 16.6-4.227 5.584-1.003 11.184-1.666 16.783-2.144 5.6-.463 11.185-.74 16.784-.864a404.879 404.879 0 0 1 16.77-.047c11.199.263 22.43 1.157 33.552 3.194 5.553 1.033 11.107 2.345 16.537 4.196 5.43 1.866 10.83 4.18 15.735 7.744 2.438 1.79 4.767 3.918 6.649 6.525 1.882 2.592 3.27 5.754 3.733 9.056.247 1.666.247 3.347.139 4.828-.139 1.697-.386 3.224-.833 4.798a23.448 23.448 0 0 1-4.52 8.53c-4.196 4.983-10.058 7.914-15.936 9.318a40.24 40.24 0 0 1-8.962 1.096h-1.157l-1.05-.031a60.723 60.723 0 0 1-2.252-.14 43.798 43.798 0 0 1-4.443-.585c-2.946-.556-5.892-1.45-8.7-2.793-2.777-1.357-5.4-3.193-7.575-5.507a22.57 22.57 0 0 1-4.936-8.068c-1.049-2.977-1.435-6.109-1.388-9.148a2.659 2.659 0 1 1 5.306-.324v.031l.016.293c.154 3.301-.309 6.742-1.59 10.012-1.28 3.24-3.44 6.232-6.185 8.454-2.746 2.267-5.986 3.702-9.225 4.597-1.635.447-3.27.756-4.921.94-1.651.201-3.24.294-4.937.294a53.06 53.06 0 0 1-4.813-.278 36.452 36.452 0 0 1-4.906-.894c-3.24-.833-6.556-2.222-9.317-4.52-2.777-2.253-4.89-5.369-6.063-8.655-1.157-3.301-1.512-6.695-1.373-9.95h5.338c.092 3.749-.648 7.62-2.345 11.107-1.697 3.502-4.32 6.51-7.358 8.778-3.07 2.299-6.572 3.857-10.12 4.86-3.564 1.002-7.235 1.48-10.86 1.542a41.78 41.78 0 0 1-5.508-.309 38.76 38.76 0 0 1-5.445-1.064c-3.595-1.003-7.097-2.56-10.228-4.813-3.1-2.252-5.8-5.23-7.62-8.731-1.837-3.502-2.731-7.467-2.7-11.339v-.077z" fill-rule="nonzero" fill="#231F20"/>
        <path d="M164.316 67.891c0 35.326-35.823 63.965-80.004 63.965-44.197 0-80.005-28.64-80.005-63.965 0-35.309 35.808-63.948 80.005-63.948 44.18 0 80.004 28.64 80.004 63.948" fill-rule="nonzero" fill="#FFF"/>
        <path d="M164.316 67.891c0 35.326-35.823 63.965-80.004 63.965-44.197 0-80.005-28.64-80.005-63.965 0-35.309 35.808-63.948 80.005-63.948 44.18 0 80.004 28.64 80.004 63.948z" stroke="#231F20" stroke-width="6.667"/>
        <path d="M164.156 67.891c0 35.326-35.824 63.965-80.005 63.965-44.18 0-80.004-28.64-80.004-63.965 0-35.309 35.823-63.948 80.004-63.948 44.181 0 80.005 28.64 80.005 63.948" fill-rule="nonzero" fill="#FFF"/>
        <path d="M164.156 67.891c0 35.326-35.824 63.965-80.005 63.965-44.18 0-80.004-28.64-80.004-63.965 0-35.309 35.823-63.948 80.004-63.948 44.181 0 80.005 28.64 80.005 63.948z" stroke="#231F20" stroke-width="6.667"/>
        <path d="M110.151 64.686c0 14.368-11.64 26.008-25.991 26.008-14.368 0-26.008-11.64-26.008-26.008 0-14.352 11.64-25.992 26.008-25.992 14.351 0 25.991 11.64 25.991 25.992" fill-rule="nonzero" fill="#FFF"/>
        <path d="M110.151 64.686c0 14.368-11.64 26.008-25.991 26.008-14.368 0-26.008-11.64-26.008-26.008 0-14.352 11.64-25.992 26.008-25.992 14.351 0 25.991 11.64 25.991 25.992z" stroke="#231F20" stroke-width="6.667"/>
        <path d="M94.141 63.556a9.99 9.99 0 0 1-9.996 9.997 9.99 9.99 0 0 1-9.997-9.997c0-5.518 4.478-9.996 9.997-9.996 5.518 0 9.996 4.478 9.996 9.996" fill-rule="nonzero" fill="#231F20"/>
    </g>
</svg>
