<svg width="168" height="168" xmlns="http://www.w3.org/2000/svg">
    <title>
        pa
    </title>
    <g fill="none">
        <path d="M63.333 48.733C73.987 41.6 87.909 37.28 103.143 37.28c33.505 0 60.666 20.893 60.666 46.667 0 44.186-35.816 80-80 80-44.182 0-80-35.814-80-80 0-44.187 35.818-80 80-80h.168c36.542 0 67.166 21.666 65.499 49.333" fill="#FFF"/>
        <path d="M62.287 47.027s.49-.307 1.438-.92c.983-.587 2.256-1.56 4.337-2.614 4.001-2.28 10.034-4.973 18.25-6.88 4.109-.84 8.708-1.666 13.774-1.853 1.277-.04 2.531-.173 3.9-.133 1.272 0 2.561.013 3.978.093 2.788.12 5.578.427 8.493.867 5.799.906 11.91 2.506 18.011 5.133 6.09 2.613 12.221 6.24 17.656 11.267 5.419 5 10.172 11.466 12.855 19.213a40.85 40.85 0 0 1 2.146 12.253l.015.4v.267l-.004.187-.019.733-.034 1.467c-.016.96-.046 1.946-.142 3.013-.081 1.04-.162 2.093-.245 3.133l-.388 3.094c-.613 4.12-1.45 8.266-2.71 12.346a87.77 87.77 0 0 1-4.687 12.08c-3.85 7.854-8.911 15.347-15.278 21.84-12.6 13.067-30.191 22.267-49.169 24.574-2.36.333-4.748.48-7.135.613l-3.67.08-3.454-.093a84.767 84.767 0 0 1-14.358-1.867c-9.44-2.027-18.516-5.84-26.69-11.027-16.42-10.333-28.874-26.64-34.678-44.813-5.855-18.173-5.12-37.947 1.327-54.947 6.406-17.053 18.24-31.16 32.176-40.266C51.91 5.053 67.751.76 82.252.6c14.473-.267 27.723 2.787 38.48 7.747 5.388 2.466 10.15 5.44 14.201 8.68a54.27 54.27 0 0 1 9.854 10.386c2.569 3.534 4.245 7.147 5.393 10.36a35.06 35.06 0 0 1 1.901 8.467l.155 1.653.036 1.454c.035.906.03 1.653-.025 2.266l-.108 1.827a2.673 2.673 0 0 1-2.816 2.507 2.679 2.679 0 0 1-2.504-2.614l-.004-.213-.026-1.587c.008-.52-.029-1.16-.101-1.92-.03-.386-.063-.786-.097-1.24-.067-.426-.138-.893-.214-1.386-.6-3.934-2.289-9.72-6.812-15.787-4.476-6.053-11.772-12.28-21.63-16.773-9.818-4.507-22.111-7.334-35.558-7.054-13.352.147-27.834 4.16-40.646 12.587-12.819 8.333-23.724 21.293-29.638 36.947-2.938 7.8-4.678 16.24-4.89 24.826-.3 8.627.97 17.347 3.622 25.707 5.334 16.707 16.798 31.72 31.91 41.227 7.521 4.773 15.862 8.28 24.543 10.146a78.551 78.551 0 0 0 13.096 1.707l3.453.093 3.225-.08c2.197-.12 4.394-.266 6.565-.573 17.445-2.16 33.58-10.64 45.148-22.667 5.868-5.96 10.527-12.84 14.082-20.04a81.915 81.915 0 0 0 4.328-11.093c1.165-3.76 1.937-7.573 2.51-11.347l.364-2.84c.075-.933.15-1.853.224-2.786.091-.894.123-1.867.14-2.854l.038-1.466.02-.734.004-.173c.004-.147.002-.027 0-.093l-.011-.334a34.289 34.289 0 0 0-1.677-10.253c-2.183-6.533-6.192-12.2-10.951-16.693-4.779-4.507-10.25-7.907-15.773-10.414-5.531-2.52-11.153-4.12-16.522-5.08-2.678-.453-5.344-.8-7.844-.946-1.226-.107-2.536-.147-3.815-.174-1.18-.053-2.426.027-3.6.04-4.751.027-9.073.694-12.95 1.36-7.711 1.534-13.54 4.014-17.19 5.867-1.867.813-3.32 1.813-4.289 2.333-.972.574-1.474.867-1.474.867-.954.56-2.179.24-2.737-.72-.544-.92-.25-2.12.645-2.693" fill="#231F20"/>
        <path d="M99.81 22.787a5.501 5.501 0 0 1-5.5 5.493 5.501 5.501 0 0 1-5.5-5.493 5.504 5.504 0 0 1 5.5-5.507c3.037 0 5.5 2.467 5.5 5.507m18.333 1.493a5.333 5.333 0 1 1-10.666 0 5.333 5.333 0 1 1 10.666 0m-31.723 92.2c-.333 4.84-4.354 8.507-8.984 8.2-4.629-.32-8.112-4.507-7.78-9.347.333-4.853 4.355-8.52 8.984-8.2 4.629.32 8.112 4.507 7.78 9.347" fill="#231F20"/>
        <path d="M107.801 116.72c-.387-.547-.753-1.133-1.154-1.653a52.417 52.417 0 0 0-2.732-3.374 29.76 29.76 0 0 0-1.452-1.613c-.496-.52-.98-1.053-1.506-1.547-1.015-1.013-2.092-1.946-3.177-2.88-1.122-.853-2.22-1.773-3.415-2.493-1.153-.813-2.396-1.4-3.61-2.067-1.253-.493-2.55-1.12-3.719-1.373-1.055-.413-2.735-.56-4.2-.787.378.04.095.014.176.014h-1.973c-.663-.054-1.33.093-1.997.16-1.34.093-2.66.52-3.99.826-1.302.467-2.626.88-3.89 1.52-1.294.534-2.52 1.28-3.762 1.96-1.214.76-2.423 1.534-3.582 2.4-.596.4-1.155.867-1.726 1.307-.575.44-1.135.907-1.68 1.387a52.306 52.306 0 0 0-3.215 2.946 47.324 47.324 0 0 0-2.932 3.12l.207-3.026c.715 1.12 1.6 2.36 2.48 3.493a52.7 52.7 0 0 0 2.78 3.36c.476.547.967 1.08 1.477 1.6.504.52.995 1.053 1.53 1.533 1.03 1.014 2.123 1.947 3.222 2.854 1.136.853 2.249 1.76 3.457 2.466 1.166.814 2.422 1.387 3.647 2.04 1.264.48 2.568 1.094 3.747 1.334.615.16 1.136.373 1.955.44l2.065.293c1.327-.053 2.648.067 3.98-.213 1.334-.107 2.646-.547 3.967-.867 1.294-.48 2.606-.907 3.86-1.547 1.281-.56 2.495-1.306 3.723-2.013 1.201-.76 2.396-1.547 3.54-2.413.589-.414 1.14-.88 1.704-1.334.567-.44 1.12-.906 1.658-1.386a56.1 56.1 0 0 0 3.167-2.974c.474-.466.912-1 1.37-1.493zm6.135 2.187a51.875 51.875 0 0 1-3.302 3.52 59.867 59.867 0 0 1-3.508 3.226c-.596.52-1.21 1.027-1.842 1.52-.627.48-1.242.987-1.903 1.44-1.28.96-2.635 1.827-4.001 2.68-1.412.787-2.798 1.627-4.31 2.267-1.46.72-3.045 1.24-4.6 1.787-1.625.4-3.222.88-4.924 1.026-1.666.307-3.395.187-5.1.187l-2.444-.333c-.7-.067-1.623-.347-2.475-.574-1.796-.413-3.248-1.12-4.805-1.746-1.453-.774-2.941-1.507-4.274-2.44-1.397-.854-2.643-1.867-3.918-2.854-1.224-1.04-2.431-2.093-3.554-3.226-.585-.534-1.117-1.12-1.663-1.694a32.807 32.807 0 0 1-1.594-1.773 59.007 59.007 0 0 1-2.986-3.68c-.963-1.28-1.842-2.507-2.745-3.96a2.598 2.598 0 0 1 .208-3.027 53.228 53.228 0 0 1 3.26-3.546 54.6 54.6 0 0 1 3.461-3.24 34.924 34.924 0 0 1 1.82-1.534c.62-.493 1.227-1 1.88-1.453 1.266-.973 2.606-1.853 3.96-2.707 1.398-.8 2.771-1.64 4.272-2.293 1.447-.747 3.021-1.267 4.567-1.84 1.616-.4 3.206-.907 4.904-1.067.838-.106 1.668-.266 2.529-.226l1.282-.014h1.261c.092.014-.178-.013.212.027 1.532.227 2.904.28 4.739.84 1.805.4 3.266 1.093 4.833 1.707 1.464.773 2.966 1.493 4.31 2.413 1.412.84 2.672 1.853 3.961 2.827 1.238 1.026 2.461 2.08 3.6 3.2.593.533 1.132 1.12 1.686 1.693.56.573 1.1 1.147 1.618 1.747a59.992 59.992 0 0 1 3.036 3.68 52.035 52.035 0 0 1 2.804 3.96 2.92 2.92 0 0 1-.235 3.453l-.02.027z" fill="#231F20"/>
        <path d="M2.268 83.28l1.023-1.267c.344-.413.72-.933 1.253-1.533.551-.613 1.185-1.307 1.895-2.093.719-.76 1.554-1.534 2.444-2.414.909-.853 1.948-1.72 3.037-2.653 2.273-1.773 4.874-3.733 7.965-5.467 3.073-1.76 6.523-3.466 10.344-4.84a69.187 69.187 0 0 1 12.33-3.16c4.345-.72 8.992-1 13.54-.826 4.768.186 9.398.92 14 2.16 4.576 1.24 9.023 2.986 13.137 5.2a63.952 63.952 0 0 1 11.332 7.72c6.781 5.8 11.78 12.693 14.909 19.16a57.076 57.076 0 0 1 3.526 9.146c.765 2.827 1.272 5.334 1.531 7.427.27 2.093.397 3.747.418 4.88l.056 1.733a3 3 0 0 1-2.901 3.094 2.995 2.995 0 0 1-3.094-2.894l-.002-.026-.003-.174-.036-1.533c-.004-1-.105-2.467-.324-4.32-.208-1.853-.638-4.093-1.29-6.613a51.431 51.431 0 0 0-3.071-8.227c-2.747-5.827-7.203-12.12-13.328-17.48a58.725 58.725 0 0 0-10.275-7.16c-3.741-2.067-7.798-3.707-11.981-4.88a57.878 57.878 0 0 0-12.73-2.12c-4.393-.213-8.584 0-12.656.627-4.054.613-7.91 1.6-11.46 2.826-3.552 1.227-6.76 2.787-9.62 4.374-2.878 1.573-5.292 3.373-7.41 4.973-1.01.867-1.98 1.653-2.826 2.427-.82.8-1.616 1.52-2.262 2.2-.635.68-1.201 1.28-1.695 1.813-.493.547-.906 1.093-1.245 1.493L5.764 86.12a2.252 2.252 0 0 1-3.167.32 2.265 2.265 0 0 1-.329-3.16" fill="#231F20"/>
    </g>
</svg>
