<svg width="168" height="168" xmlns="http://www.w3.org/2000/svg">
    <title>
        pan
    </title>
    <g fill="none">
        <path d="M4.143 141.2c0-22.48 35.65-29.88 79.833-29.88 44.184 0 80.18 10.053 80.18 30.4 0 13.747-12.357 22.227-27.821 22.227-17.334 0-28-9.027-28-22.787 0 12.667-8.667 20.813-24 20.813-16.667 0-24-8.146-24-20.813 0 13.76-11.667 22.787-28.334 22.787-15.464 0-27.858-9-27.858-22.747" fill="#FFF"/>
        <path d="M7.477 141.2c.004 2.88.684 5.667 2.016 8.133 1.327 2.48 3.296 4.627 5.668 6.32 2.363 1.707 5.119 2.96 8.032 3.774a31.5 31.5 0 0 0 4.476.906c1.531.187 2.992.28 4.607.28 3.125.014 6.23-.32 9.188-1.066 2.959-.747 5.75-1.96 8.184-3.614 2.428-1.653 4.44-3.813 5.81-6.346 1.398-2.52 2.137-5.414 2.21-8.427h5.333c.151 2.76.599 5.44 1.63 7.76.982 2.347 2.473 4.32 4.453 5.773 1.973 1.454 4.348 2.494 6.943 3.094 1.296.306 2.634.533 4.005.666 1.42.12 2.628.187 4.208.187 1.305 0 2.743-.053 4.08-.187a27.657 27.657 0 0 0 3.97-.706c2.577-.64 4.942-1.734 6.958-3.214 2.012-1.48 3.59-3.453 4.647-5.746 1.108-2.28 1.621-4.907 1.773-7.627h5.333v.013c.083 2.48.519 4.907 1.434 7.107.913 2.187 2.229 4.173 3.92 5.827 3.396 3.306 8.122 5.24 13.101 6.04 1.248.2 2.516.333 3.792.413.644.027 1.199.053 1.895.067h1.036l.916-.014c2.541-.066 5.066-.373 7.488-.973 4.846-1.173 9.309-3.587 12.318-7.107 1.5-1.76 2.594-3.8 3.234-6 .324-1.066.533-2.306.608-3.333.097-1.333.088-2.347-.074-3.453-.576-4.36-3.674-8.24-7.738-11.174-4.067-2.973-8.942-5.146-13.958-6.88-5.038-1.733-10.29-3.026-15.609-4.04-10.655-1.986-21.57-2.906-32.497-3.226-5.446-.16-10.964-.12-16.432.04-5.478.16-10.944.453-16.379.946-5.433.48-10.839 1.147-16.16 2.12-5.316.974-10.561 2.254-15.53 4.054-4.942 1.786-9.686 4.146-13.282 7.426-1.788 1.64-3.241 3.507-4.197 5.56a14.765 14.765 0 0 0-1.074 3.2c-.113.56-.196 1.12-.258 1.694l-.058.773-.02.96zm-6.666-.093l.03-1.027.1-1.293a24.27 24.27 0 0 1 .392-2.414c.35-1.586.888-3.146 1.592-4.626 1.408-2.947 3.47-5.494 5.774-7.56 4.658-4.147 10.097-6.667 15.521-8.614 5.453-1.92 11.01-3.186 16.573-4.173 5.567-.987 11.151-1.64 16.735-2.107 5.584-.48 11.168-.733 16.747-.866 5.586-.12 11.13-.16 16.742-.04 11.176.253 22.376 1.12 33.486 3.133 5.549 1.027 11.082 2.307 16.521 4.133 5.421 1.84 10.813 4.12 15.737 7.64 2.447 1.76 4.778 3.854 6.684 6.44 1.903 2.574 3.338 5.707 3.82 9.014.263 1.626.266 3.386.164 4.826a22.44 22.44 0 0 1-.829 4.8 23.013 23.013 0 0 1-4.523 8.534c-4.185 4.96-10.053 7.853-15.913 9.253a39.925 39.925 0 0 1-8.937 1.093c-.391 0-.708.014-1.158 0l-1.036-.026c-.686-.014-1.512-.08-2.249-.12a50.442 50.442 0 0 1-4.439-.587c-2.95-.547-5.885-1.427-8.681-2.747-2.777-1.346-5.41-3.146-7.603-5.44-2.189-2.293-3.924-5.053-4.973-8.026-1.07-2.974-1.465-6.107-1.42-9.134v-.013a2.667 2.667 0 0 1 2.492-2.827 2.675 2.675 0 0 1 2.827 2.494l.001.04.013.293c.15 3.293-.321 6.733-1.601 9.987-1.303 3.226-3.487 6.2-6.236 8.4-2.736 2.24-5.973 3.653-9.205 4.533-1.624.44-3.263.747-4.898.933-1.652.187-3.222.28-4.925.294a51.023 51.023 0 0 1-4.799-.294 36.827 36.827 0 0 1-4.881-.866c-3.232-.827-6.524-2.187-9.295-4.454-2.794-2.226-4.922-5.32-6.105-8.6-1.168-3.293-1.532-6.68-1.388-9.92v-.013a2.659 2.659 0 0 1 2.56-2.76 2.654 2.654 0 0 1 2.768 2.56l.001.013.004.187c.095 3.747-.656 7.613-2.366 11.093-1.711 3.467-4.338 6.454-7.4 8.707-3.066 2.267-6.547 3.8-10.096 4.8-3.559.987-7.204 1.453-10.819 1.507a40.097 40.097 0 0 1-10.919-1.347c-3.581-.987-7.074-2.52-10.198-4.747-3.104-2.226-5.815-5.186-7.654-8.666-1.854-3.48-2.766-7.454-2.74-11.307l.002-.053v-.04z" fill="#231F20"/>
        <path d="M63.833 39.48c10.654-5.653 24.576-9.08 39.81-9.08 33.505 0 60.666 16.573 60.666 37.013 0 35.054-35.816 63.48-80 63.48-44.182 0-80-28.426-80-63.48 0-35.053 35.818-63.466 80-63.466h.167c36.544 0 67.167 17.186 65.5 39.146" fill="#FFF"/>
        <path d="M62.927 37.693s.466-.253 1.37-.733c.88-.467 2.372-1.24 4.22-2.053 3.722-1.694 9.4-3.734 16.866-5.267a98.509 98.509 0 0 1 12.49-1.707c2.292-.146 4.671-.253 7.162-.226.604 0 1.213 0 1.828.013.638.013 1.284.04 1.933.067 1.31.026 2.6.133 3.93.226 5.293.427 10.923 1.254 16.722 2.814 5.8 1.52 11.796 3.746 17.61 7.08 2.903 1.666 5.76 3.613 8.447 5.933 2.69 2.307 5.214 5.013 7.288 8.187 2.102 3.16 3.694 6.84 4.435 10.826.15 1 .321 2 .355 3.027l.062 1.533-.042 1.44c-.01 1.72-.211 3.787-.432 5.747-1.019 7.707-3.786 15.347-7.986 22.253-4.225 6.907-9.86 13.054-16.356 18.227-13.094 10.253-29.581 16.6-46.716 18.48-4.298.507-8.586.667-12.984.64l-3.16-.067-3.308-.2c-1.112-.053-2.174-.2-3.265-.293a53.265 53.265 0 0 1-3.247-.4c-8.656-1.133-17.186-3.52-25.284-6.947-8.066-3.506-15.684-8.16-22.317-14.013-6.633-5.827-12.225-12.92-16.047-20.907C2.665 83.4.748 74.533 1.024 65.813c.225-8.706 2.64-17.226 6.59-24.64C11.585 33.733 16.986 27.36 23 22.08c6.065-5.227 12.73-9.413 19.604-12.587C49.46 6.28 56.53 4.107 63.472 2.653 70.431 1.24 77.279.613 83.845.573c13.084-.053 25.082 2 35.239 5.454 5.081 1.733 9.708 3.813 13.788 6.173 4.061 2.387 7.57 5.053 10.421 7.867 5.767 5.626 8.466 11.986 9.138 16.4.364 2.213.388 3.933.333 5.08-.05 1.16-.128 1.746-.128 1.746l-.013.094a2.667 2.667 0 0 1-3.002 2.28c-1.381-.187-2.37-1.414-2.304-2.787 0 0 .026-.467-.012-1.36a20.795 20.795 0 0 0-.516-3.933 23.091 23.091 0 0 0-2.384-5.947c-1.265-2.227-3.133-4.587-5.6-6.947-2.469-2.346-5.582-4.64-9.266-6.72-3.664-2.106-7.899-4.013-12.604-5.6-9.407-3.186-20.703-5.12-33.06-5.04a99.8 99.8 0 0 0-19.03 1.987c-6.464 1.373-13.029 3.4-19.378 6.36a76.779 76.779 0 0 0-18.031 11.507c-5.484 4.8-10.35 10.533-13.89 17.133-3.52 6.6-5.64 14.04-5.855 21.707-.243 7.626 1.426 15.4 4.825 22.466 3.388 7.08 8.399 13.48 14.45 18.8 6.043 5.32 13.06 9.627 20.537 12.88 7.512 3.174 15.458 5.4 23.552 6.467 1.008.16 2.02.28 3.036.36 1.01.093 2.037.24 3.03.28l2.998.187 3.145.066c4.001.014 8.104-.133 12.095-.626 16.022-1.774 31.318-7.774 43.269-17.16 5.94-4.707 11.035-10.254 14.815-16.4 3.753-6.16 6.19-12.88 7.1-19.627.18-1.653.369-3.2.389-5.08l.041-1.227-.048-1.146c-.02-.76-.15-1.52-.246-2.267-.523-2.987-1.686-5.853-3.358-8.427-3.297-5.186-8.28-9.186-13.42-12.24-5.197-3.04-10.669-5.24-16.038-6.773-5.366-1.573-10.646-2.467-15.634-2.987-10.013-.973-18.838-.386-25.95.84-7.123 1.227-12.526 3.04-16.108 4.44a56.714 56.714 0 0 0-4.028 1.734c-.926.44-1.403.68-1.403.68a2.005 2.005 0 1 1-1.813-3.573" fill="#231F20"/>
        <path d="M100.31 18.893c0 2.4-2.462 4.36-5.5 4.36s-5.5-1.96-5.5-4.36c0-2.413 2.462-4.373 5.5-4.373s5.5 1.96 5.5 4.373m18.333 1.187c0 2.333-2.387 4.227-5.334 4.227-2.945 0-5.333-1.894-5.333-4.227s2.388-4.227 5.333-4.227c2.947 0 5.334 1.894 5.334 4.227M86.908 93.4c-.381 4.56-4.444 8.067-9.075 7.827-4.629-.24-8.073-4.134-7.692-8.694.383-4.573 4.446-8.066 9.075-7.826 4.63.24 8.073 4.133 7.692 8.693" fill="#231F20"/>
        <path d="M108.213 93.28c-.357-.48-.689-.987-1.058-1.44a50.786 50.786 0 0 0-2.778-3.2c-.47-.533-.976-1.027-1.476-1.52a27.64 27.64 0 0 0-1.532-1.453c-1.024-.96-2.125-1.814-3.218-2.68-1.127-.814-2.254-1.614-3.447-2.294a14.13 14.13 0 0 0-1.797-.96c-.615-.28-1.203-.653-1.838-.866l-1.881-.707c-.616-.2-1.2-.307-1.799-.48-.308-.067-.569-.173-.917-.227l-1.11-.133-1.107-.147-.555-.066h-.07l-.034-.014c-.17-.013.21.027.165.014h-.016l-.122.013h-.246l-1.97.013c-.656 0-1.318.16-1.978.214l-.99.133-.984.24c-.655.173-1.318.28-1.967.493-1.295.44-2.596.867-3.853 1.48-.639.254-1.27.547-1.883.894-.615.333-1.247.626-1.85.986a56.204 56.204 0 0 0-3.575 2.28c-1.163.814-2.314 1.654-3.414 2.574a51.528 51.528 0 0 0-3.237 2.8c-1.036.96-2.093 2-2.97 2.973l.227-3.133A44.986 44.986 0 0 0 57.45 92.4a56.007 56.007 0 0 0 2.828 3.187c.479.533.992 1.013 1.5 1.506.5.507 1.02.987 1.555 1.44 1.04.96 2.157 1.814 3.264 2.667 1.143.8 2.283 1.6 3.49 2.253.585.374 1.194.68 1.814.96.621.267 1.215.627 1.855.84l1.894.68c.622.2 1.21.294 1.812.467.311.067.572.16.922.213l1.11.134 1.111.12.555.066h.069l.035.014c.168.013-.21-.027-.166-.014l.016-.013h.37l1.968-.04c.656-.013 1.314-.173 1.972-.24l.986-.147.98-.24c.65-.186 1.31-.306 1.954-.52 1.286-.466 2.577-.893 3.824-1.52a17.29 17.29 0 0 0 1.864-.906c.609-.347 1.234-.64 1.832-1.014 1.2-.733 2.388-1.48 3.534-2.306a58.767 58.767 0 0 0 3.371-2.587 62.046 62.046 0 0 0 3.19-2.827c.434-.413.834-.866 1.255-1.293zm6.168 2.267a55.262 55.262 0 0 1-3.344 3.36 59.503 59.503 0 0 1-3.529 3.053c-1.2 1-2.459 1.92-3.743 2.813-1.278.907-2.617 1.734-3.974 2.547-.676.4-1.396.747-2.092 1.12a20.57 20.57 0 0 1-2.154 1.027c-1.438.693-2.973 1.2-4.504 1.72-.769.253-1.577.413-2.365.613l-1.19.28-1.229.16c-.821.093-1.628.267-2.461.28l-2.5.013h-.468l-.22-.013h-.035l-.069-.013-.555-.067-1.108-.133-1.109-.134c-.385-.066-.837-.186-1.253-.28-.838-.213-1.716-.4-2.512-.666l-2.298-.854c-.777-.266-1.469-.68-2.206-1.026a15.797 15.797 0 0 1-2.123-1.147c-1.401-.787-2.696-1.707-3.984-2.627-1.243-.973-2.487-1.96-3.628-3.026a30.52 30.52 0 0 1-1.705-1.614c-.554-.546-1.114-1.093-1.632-1.68a58.041 58.041 0 0 1-3.059-3.52 47.944 47.944 0 0 1-2.816-3.84 2.585 2.585 0 0 1 .22-3.133h.007a52.548 52.548 0 0 1 3.304-3.387 58.843 58.843 0 0 1 3.481-3.093c1.185-1 2.43-1.933 3.7-2.84 1.264-.907 2.59-1.747 3.935-2.56.669-.413 1.382-.76 2.073-1.147.685-.386 1.403-.72 2.136-1.04 1.428-.706 2.952-1.226 4.473-1.76.764-.253 1.57-.413 2.354-.626l1.186-.294 1.223-.173c.819-.107 1.624-.28 2.456-.293l2.499-.054h.469l.324.027.555.067 1.11.12 1.11.12c.386.066.84.186 1.257.28.841.2 1.725.373 2.525.626l2.312.84c.782.267 1.48.667 2.223 1 .741.347 1.461.707 2.141 1.134 1.415.786 2.723 1.693 4.026 2.613 1.256.96 2.517 1.933 3.673 2.987a30.51 30.51 0 0 1 1.728 1.613c.561.547 1.13 1.08 1.657 1.667a59.09 59.09 0 0 1 3.108 3.506 48.156 48.156 0 0 1 2.878 3.84 2.923 2.923 0 0 1-.254 3.587l-.024.027z" fill="#231F20"/>
        <path d="M2.941 66.413l1.075-1.066c.368-.347.745-.774 1.33-1.28.574-.507 1.237-1.08 1.978-1.734.759-.586 1.597-1.24 2.512-1.946.95-.654 1.967-1.387 3.09-2.107 2.257-1.413 4.869-2.893 7.845-4.24 2.98-1.333 6.27-2.64 9.86-3.667a87.638 87.638 0 0 1 11.448-2.466 90.859 90.859 0 0 1 12.502-.814c2.018 0 4.279.094 6.427.294 2.156.186 4.317.453 6.46.84 8.581 1.453 16.93 4.44 24.021 8.653 7.119 4.147 12.934 9.533 16.806 15.053a41.564 41.564 0 0 1 4.488 8.08c1.082 2.56 1.693 4.934 2.082 6.907.19.987.342 1.867.407 2.653.09.774.164 1.44.17 1.974l.066 1.666a2.993 2.993 0 0 1-2.877 3.107 2.99 2.99 0 0 1-3.116-2.867l-.002-.04-.005-.2-.041-1.36c.004-.453-.054-1-.122-1.64-.042-.64-.162-1.373-.309-2.2-.305-1.64-.784-3.626-1.677-5.8a35.75 35.75 0 0 0-3.78-6.973c-3.312-4.853-8.447-9.76-14.911-13.64-6.432-3.92-14.132-6.787-22.115-8.24-1.992-.387-4.006-.653-6.02-.853-2.02-.2-3.929-.307-6.05-.347-3.97-.04-7.958.173-11.74.653a80.406 80.406 0 0 0-10.779 2.2c-3.376.92-6.46 2.12-9.25 3.32-2.786 1.227-5.22 2.587-7.32 3.867-1.042.653-1.98 1.32-2.865 1.907-.842.64-1.617 1.226-2.317 1.76a214.8 214.8 0 0 1-1.736 1.48c-.507.426-.948.906-1.3 1.226-.708.68-1.087 1.054-1.087 1.054a2.247 2.247 0 0 1-3.181-.054 2.245 2.245 0 0 1 .033-3.16" fill="#231F20"/>
    </g>
</svg>
