<svg width="168" height="168" xmlns="http://www.w3.org/2000/svg">
    <title>
        pe
    </title>
    <g fill="none">
        <path d="M63.624 48.733C74.279 41.6 88.201 37.28 103.434 37.28c33.506 0 60.667 20.893 60.667 46.667 0 44.186-35.817 80-80 80-44.182 0-80-35.814-80-80 0-44.187 35.818-80 80-80h.167c36.543 0 67.167 21.666 65.5 49.333" fill="#FFF"/>
        <path d="M62.579 47.027s.489-.307 1.437-.92c.984-.587 2.256-1.56 4.337-2.614 4.002-2.28 10.034-4.973 18.25-6.88 4.109-.84 8.709-1.666 13.774-1.853 1.278-.04 2.531-.173 3.9-.133 1.272 0 2.562.013 3.978.093 2.788.12 5.578.427 8.493.867 5.799.906 11.91 2.506 18.01 5.133 6.093 2.613 12.222 6.24 17.658 11.267 5.417 5 10.172 11.466 12.855 19.213a40.892 40.892 0 0 1 2.146 12.253l.015.4v.267l-.005.187-.018.733-.036 1.467c-.014.96-.044 1.946-.14 3.013-.081 1.04-.162 2.093-.245 3.133-.13 1.027-.259 2.067-.39 3.094-.611 4.12-1.45 8.266-2.707 12.346a87.777 87.777 0 0 1-4.69 12.08c-3.848 7.854-8.909 15.347-15.276 21.84-12.601 13.067-30.192 22.267-49.169 24.574-2.361.333-4.75.48-7.136.613l-3.67.08-3.453-.093a84.747 84.747 0 0 1-14.358-1.867c-9.442-2.027-18.516-5.84-26.69-11.027-16.42-10.333-28.874-26.64-34.68-44.813-5.853-18.173-5.118-37.947 1.328-54.947 6.407-17.053 18.24-31.16 32.178-40.266C52.2 5.053 68.043.76 82.544.6c14.472-.267 27.723 2.787 38.479 7.747 5.389 2.466 10.15 5.44 14.202 8.68a54.354 54.354 0 0 1 9.854 10.386c2.568 3.534 4.244 7.147 5.392 10.36a35.134 35.134 0 0 1 1.902 8.467l.155 1.653.036 1.454c.033.906.03 1.653-.025 2.266-.072 1.2-.108 1.827-.108 1.827a2.674 2.674 0 0 1-2.816 2.507 2.681 2.681 0 0 1-2.506-2.614l-.002-.213-.027-1.587c.008-.52-.028-1.16-.1-1.92-.03-.386-.063-.786-.097-1.24a671.61 671.61 0 0 1-.215-1.386c-.599-3.934-2.29-9.72-6.81-15.787-4.477-6.053-11.774-12.28-21.633-16.773-9.817-4.507-22.11-7.334-35.557-7.054-13.352.147-27.833 4.16-40.645 12.587-12.819 8.333-23.724 21.293-29.639 36.947-2.937 7.8-4.677 16.24-4.89 24.826-.3 8.627.97 17.347 3.622 25.707 5.335 16.707 16.799 31.72 31.91 41.227 7.522 4.773 15.862 8.28 24.543 10.146a78.57 78.57 0 0 0 13.096 1.707l3.454.093 3.224-.08c2.197-.12 4.396-.266 6.565-.573 17.445-2.16 33.58-10.64 45.15-22.667 5.866-5.96 10.525-12.84 14.08-20.04a81.565 81.565 0 0 0 4.327-11.093c1.166-3.76 1.939-7.573 2.512-11.347.122-.96.243-1.906.364-2.84.075-.933.15-1.853.223-2.786.09-.894.124-1.867.14-2.854l.039-1.466.02-.734.004-.173c.004-.147.001-.027-.002-.093l-.009-.334a34.289 34.289 0 0 0-1.677-10.253c-2.183-6.533-6.192-12.2-10.951-16.693-4.779-4.507-10.25-7.907-15.773-10.414-5.532-2.52-11.154-4.12-16.523-5.08-2.677-.453-5.344-.8-7.844-.946-1.225-.107-2.536-.147-3.815-.174-1.181-.053-2.426.027-3.6.04-4.75.027-9.072.694-12.949 1.36-7.712 1.534-13.54 4.014-17.19 5.867-1.867.813-3.32 1.813-4.289 2.333-.973.574-1.474.867-1.474.867-.954.56-2.179.24-2.738-.72a2.007 2.007 0 0 1 .646-2.693" fill="#231F20"/>
        <path d="M100.101 22.787a5.501 5.501 0 0 1-5.5 5.493 5.501 5.501 0 0 1-5.5-5.493 5.504 5.504 0 0 1 5.5-5.507c3.038 0 5.5 2.467 5.5 5.507m18.334 1.493a5.333 5.333 0 1 1-10.667 0 5.333 5.333 0 1 1 10.667 0M87.17 64.387l.12 2.826c.049 1.8.17 4.374.225 7.454.049 3.08.166 6.68.185 10.533l.08 12.08-.081 12.08c-.026 3.853-.136 7.453-.187 10.533-.056 3.08-.175 5.654-.224 7.454l-.119 2.826a3.05 3.05 0 0 1-3.182 2.92 3.069 3.069 0 0 1-2.928-2.92l-.119-2.826c-.05-1.8-.168-4.374-.224-7.454-.05-3.08-.161-6.68-.187-10.533l-.08-12.08.079-12.08c.019-3.853.136-7.453.185-10.533.055-3.08.176-5.654.226-7.454l.12-2.826c.07-1.68 1.497-3 3.184-2.92a3.068 3.068 0 0 1 2.926 2.92" fill="#231F20"/>
        <path d="M51.224 94.227s1.028-.04 2.827-.12c1.798-.054 4.368-.174 7.452-.227 3.082-.053 6.68-.16 10.534-.187l12.078-.08 12.076.08c3.854.014 7.452.134 10.534.187 3.084.053 5.654.173 7.452.227 1.799.08 2.827.12 2.827.12a3.055 3.055 0 0 1 2.927 3.186 3.07 3.07 0 0 1-2.927 2.92s-1.028.04-2.827.12c-1.798.054-4.368.174-7.452.227-3.082.053-6.68.173-10.534.187l-12.076.08-12.078-.08c-3.854-.027-7.452-.134-10.534-.187-3.084-.053-5.654-.173-7.452-.227-1.799-.08-2.827-.12-2.827-.12a3.056 3.056 0 0 1-2.928-3.186 3.068 3.068 0 0 1 2.928-2.92" fill="#231F20"/>
    </g>
</svg>
