<svg width="167" height="168" xmlns="http://www.w3.org/2000/svg">
    <title>
        pen
    </title>
    <g fill="none">
        <path d="M3.435 141.2c0-22.48 35.65-29.88 79.832-29.88 44.186 0 80.186 10.053 80.186 30.4 0 13.747-12.36 22.227-27.826 22.227-17.334 0-28-9.027-28-22.787 0 12.667-8.667 20.813-24 20.813-16.667 0-24-8.146-24-20.813 0 13.76-11.667 22.787-28.334 22.787-15.464 0-27.858-9-27.858-22.747" fill="#FFF"/>
        <path d="M6.768 141.2c.005 2.88.684 5.667 2.017 8.133 1.326 2.48 3.295 4.627 5.668 6.32 2.362 1.707 5.119 2.96 8.032 3.774 1.458.413 2.956.706 4.476.906 1.531.187 2.992.28 4.607.28 3.125.014 6.228-.32 9.188-1.066 2.959-.747 5.75-1.96 8.184-3.614 2.427-1.653 4.433-3.813 5.807-6.346 1.4-2.52 2.133-5.414 2.213-8.427v-.08a2.684 2.684 0 0 1 2.733-2.6c1.454.04 2.614 1.24 2.6 2.68.147 2.76.6 5.44 1.627 7.76.987 2.347 2.48 4.32 4.453 5.773 1.974 1.454 4.347 2.494 6.947 3.094 1.293.306 2.627.533 4 .666 1.427.12 2.627.187 4.213.187 1.307 0 2.747-.053 4.08-.187a27.79 27.79 0 0 0 3.974-.706c2.573-.64 4.933-1.734 6.946-3.214a14.725 14.725 0 0 0 4.654-5.746c1.106-2.28 1.626-4.907 1.773-7.627h5.333v.013c.08 2.48.52 4.907 1.427 7.107a17.883 17.883 0 0 0 3.92 5.827c3.4 3.306 8.133 5.24 13.107 6.04 1.253.2 2.52.333 3.786.413.654.027 1.2.053 1.907.067h1.027l.92-.014c2.546-.066 5.066-.373 7.493-.973 4.84-1.173 9.307-3.587 12.307-7.107 1.506-1.76 2.6-3.8 3.24-6 .32-1.066.533-2.306.613-3.333.093-1.333.08-2.347-.08-3.453-.573-4.36-3.667-8.24-7.733-11.174-4.067-2.973-8.947-5.146-13.96-6.88-5.04-1.733-10.294-3.026-15.614-4.04-10.653-1.986-21.573-2.906-32.493-3.226-5.44-.16-10.96-.12-16.44.04-5.467.16-10.933.453-16.373.946-5.432.48-10.839 1.147-16.159 2.12-5.317.974-10.561 2.254-15.53 4.054-4.942 1.786-9.687 4.146-13.283 7.426-1.788 1.64-3.242 3.507-4.198 5.56a14.76 14.76 0 0 0-1.072 3.2 17.88 17.88 0 0 0-.258 1.694l-.059.773-.02.96zm-6.665-.093l.03-1.027.099-1.293c.093-.814.22-1.614.392-2.414a21.71 21.71 0 0 1 1.593-4.626c1.408-2.947 3.468-5.494 5.774-7.56 4.657-4.147 10.097-6.667 15.52-8.614 5.454-1.92 11.012-3.186 16.574-4.173 5.566-.987 11.151-1.64 16.728-2.107 5.587-.48 11.174-.733 16.747-.866 5.587-.12 11.133-.16 16.747-.04 11.173.253 22.373 1.12 33.493 3.133 5.547 1.027 11.08 2.307 16.52 4.133 5.413 1.84 10.813 4.12 15.733 7.64 2.454 1.76 4.774 3.854 6.68 6.44 1.907 2.574 3.347 5.707 3.827 9.014.253 1.626.267 3.386.16 4.826-.12 1.72-.373 3.227-.827 4.8a23.202 23.202 0 0 1-4.52 8.534c-4.186 4.96-10.053 7.853-15.92 9.253a39.843 39.843 0 0 1-8.933 1.093c-.387 0-.707.014-1.16 0l-1.04-.026c-.68-.014-1.507-.08-2.24-.12-1.48-.134-2.96-.32-4.44-.587-2.96-.547-5.893-1.427-8.68-2.747-2.787-1.346-5.413-3.146-7.613-5.44-2.187-2.293-3.92-5.053-4.96-8.026-1.08-2.974-1.467-6.107-1.427-9.134v-.013a2.668 2.668 0 0 1 2.493-2.827 2.677 2.677 0 0 1 2.827 2.494v.04l.013.293c.147 3.293-.32 6.733-1.6 9.987-1.306 3.226-3.493 6.2-6.24 8.4-2.733 2.24-5.973 3.653-9.2 4.533-1.626.44-3.266.747-4.906.933a45.78 45.78 0 0 1-4.92.294 51.132 51.132 0 0 1-4.8-.294 36.732 36.732 0 0 1-4.88-.866c-3.227-.827-6.52-2.187-9.294-4.454-2.8-2.226-4.92-5.32-6.106-8.6-1.174-3.293-1.534-6.68-1.387-9.92v-.013h5.333c.094 3.747-.653 7.613-2.373 11.093-1.707 3.467-4.333 6.454-7.393 8.707-3.067 2.267-6.548 3.8-10.096 4.8-3.559.987-7.204 1.453-10.819 1.507a40.263 40.263 0 0 1-5.483-.294 40.177 40.177 0 0 1-5.437-1.053c-3.581-.987-7.075-2.52-10.197-4.747-3.106-2.226-5.816-5.186-7.655-8.666C.987 149.027.075 145.053.101 141.2v-.053l.002-.04z" fill="#231F20"/>
        <path d="M63.12 39.48c10.653-5.653 24.587-9.08 39.813-9.08 33.507 0 60.667 16.573 60.667 37.013 0 35.054-35.813 63.48-80 63.48-44.181 0-79.999-28.426-79.999-63.48C3.601 32.36 39.42 3.947 83.6 3.947h.173c36.534 0 67.16 17.186 65.494 39.146" fill="#FFF"/>
        <path d="M62.213 37.693s.467-.253 1.374-.733a63.13 63.13 0 0 1 4.226-2.053c3.72-1.694 9.4-3.734 16.867-5.267a98.462 98.462 0 0 1 12.48-1.707c2.293-.146 4.68-.253 7.16-.226.613 0 1.213 0 1.84.013s1.28.04 1.933.067c1.307.026 2.6.133 3.92.226 5.294.427 10.934 1.254 16.734 2.814 5.786 1.52 11.786 3.746 17.6 7.08 2.906 1.666 5.76 3.613 8.453 5.933 2.68 2.307 5.213 5.013 7.28 8.187 2.107 3.16 3.693 6.84 4.44 10.826.147 1 .32 2 .36 3.027l.053 1.533-.04 1.44c-.013 1.72-.213 3.787-.426 5.747-1.027 7.707-3.787 15.347-7.987 22.253-4.227 6.907-9.867 13.054-16.36 18.227-13.093 10.253-29.587 16.6-46.72 18.48-4.293.507-8.587.667-12.973.64l-3.16-.067-3.32-.2c-1.107-.053-2.174-.2-3.254-.293a52.839 52.839 0 0 1-3.253-.4c-8.653-1.133-17.185-3.52-25.284-6.947-8.065-3.506-15.683-8.16-22.316-14.013-6.633-5.827-12.225-12.92-16.047-20.907C1.956 83.4.04 74.533.316 65.813c.224-8.706 2.64-17.226 6.59-24.64 3.97-7.44 9.37-13.813 15.383-19.093 6.066-5.227 12.731-9.413 19.604-12.587 6.86-3.213 13.934-5.386 20.867-6.84C69.72 1.24 76.573.613 83.133.573c13.094-.053 25.08 2 35.24 5.454 5.08 1.733 9.707 3.813 13.787 6.173 4.067 2.387 7.573 5.053 10.427 7.867 5.76 5.626 8.466 11.986 9.133 16.4.36 2.213.387 3.933.333 5.08-.04 1.16-.12 1.746-.12 1.746l-.013.094a2.676 2.676 0 0 1-3.013 2.28c-1.374-.187-2.36-1.414-2.294-2.787 0 0 .027-.467-.013-1.36-.04-.907-.133-2.24-.52-3.933a22.684 22.684 0 0 0-2.387-5.947c-1.266-2.227-3.133-4.587-5.6-6.947-2.466-2.346-5.573-4.64-9.266-6.72-3.667-2.106-7.894-4.013-12.6-5.6-9.414-3.186-20.707-5.12-33.067-5.04A99.762 99.762 0 0 0 64.133 9.32c-6.466 1.373-13.025 3.4-19.376 6.36a76.771 76.771 0 0 0-18.029 11.507c-5.484 4.8-10.35 10.533-13.892 17.133-3.52 6.6-5.637 14.04-5.853 21.707-.244 7.626 1.425 15.4 4.824 22.466 3.388 7.08 8.4 13.48 14.449 18.8 6.045 5.32 13.061 9.627 20.539 12.88 7.512 3.174 15.458 5.4 23.552 6.467 1.013.16 2.013.28 3.04.36 1 .093 2.026.24 3.026.28l3 .187 3.147.066c4 .014 8.093-.133 12.093-.626 16.014-1.774 31.32-7.774 43.267-17.16 5.933-4.707 11.04-10.254 14.813-16.4 3.76-6.16 6.187-12.88 7.107-19.627.173-1.653.36-3.2.387-5.08l.04-1.227-.054-1.146c-.013-.76-.146-1.52-.24-2.267-.52-2.987-1.693-5.853-3.36-8.427-3.293-5.186-8.28-9.186-13.413-12.24-5.2-3.04-10.68-5.24-16.04-6.773-5.373-1.573-10.653-2.467-15.64-2.987-10.013-.973-18.84-.386-25.947.84-7.12 1.227-12.533 3.04-16.106 4.44a54.265 54.265 0 0 0-4.027 1.734c-.933.44-1.413.68-1.413.68-.987.48-2.187.053-2.667-.947-.467-.96-.08-2.12.853-2.627" fill="#231F20"/>
        <path d="M99.6 18.893c0 2.4-2.467 4.36-5.493 4.36-3.04 0-5.507-1.96-5.507-4.36 0-2.413 2.467-4.373 5.507-4.373 3.026 0 5.493 1.96 5.493 4.373m18.333 1.187c0 2.333-2.386 4.227-5.333 4.227s-5.333-1.894-5.333-4.227 2.386-4.227 5.333-4.227 5.333 1.894 5.333 4.227M86.667 51.907s.04.92.12 2.546c.053 1.627.173 3.947.226 6.747.054 2.787.174 6.04.187 9.52.027 3.48.053 7.2.08 10.92-.027 3.72-.053 7.427-.08 10.92-.027 3.48-.133 6.733-.187 9.52-.053 2.787-.173 5.107-.226 6.733-.08 1.627-.12 2.56-.12 2.56a3.059 3.059 0 0 1-3.2 2.92 3.075 3.075 0 0 1-2.907-2.92s-.04-.933-.12-2.56c-.053-1.626-.173-3.946-.227-6.733-.053-2.787-.16-6.04-.186-9.52-.027-3.493-.054-7.2-.08-10.92.026-3.72.053-7.44.08-10.92.026-3.48.133-6.733.186-9.52.054-2.8.174-5.12.227-6.747.08-1.626.12-2.546.12-2.546.08-1.694 1.507-3 3.2-2.92a3.075 3.075 0 0 1 2.907 2.92" fill="#231F20"/>
        <path d="M50.724 78.587s1.028-.054 2.823-.12c1.8-.054 4.373-.174 7.453-.227 3.08-.053 6.68-.16 10.533-.187l12.08-.08 12.08.08c3.854.014 7.454.134 10.534.187 3.08.053 5.653.173 7.453.227 1.8.066 2.827.12 2.827.12 1.68.066 3 1.493 2.92 3.186a3.067 3.067 0 0 1-2.92 2.92s-1.027.04-2.827.12c-1.8.054-4.373.174-7.453.227-3.08.053-6.68.16-10.534.187l-12.08.08-12.08-.08C67.68 85.2 64.08 85.08 61 85.04c-3.08-.067-5.653-.173-7.453-.227-1.795-.08-2.823-.12-2.823-.12a3.055 3.055 0 0 1 0-6.106" fill="#231F20"/>
    </g>
</svg>
