<svg width="167" height="168" xmlns="http://www.w3.org/2000/svg">
    <title>
        pi
    </title>
    <g fill="none">
        <path d="M62.916 48.733C73.571 41.6 87.493 37.28 102.726 37.28c33.506 0 60.667 20.893 60.667 46.667 0 44.186-35.817 80-80 80-44.182 0-80-35.814-80-80 0-44.187 35.818-80 80-80h.167c36.543 0 67.167 21.666 65.5 49.333" fill="#FFF"/>
        <path d="M61.87 47.027s.49-.307 1.438-.92c.983-.587 2.256-1.56 4.337-2.614 4-2.28 10.034-4.973 18.25-6.88 4.109-.84 8.708-1.666 13.774-1.853 1.276-.04 2.531-.173 3.9-.133 1.272 0 2.562.013 3.978.093 2.788.12 5.577.427 8.493.867 5.799.906 11.91 2.506 18.01 5.133 6.093 2.613 12.222 6.24 17.657 11.267 5.418 5 10.172 11.466 12.854 19.213a40.851 40.851 0 0 1 2.148 12.253l.014.4v.267l-.004.187-.018.733-.036 1.467a39.74 39.74 0 0 1-.14 3.013l-.245 3.133c-.13 1.027-.259 2.067-.39 3.094-.613 4.12-1.45 8.266-2.709 12.346a87.6 87.6 0 0 1-4.688 12.08c-3.849 7.854-8.91 15.347-15.277 21.84-12.6 13.067-30.19 22.267-49.17 24.574-2.36.333-4.747.48-7.134.613l-3.67.08-3.454-.093a84.782 84.782 0 0 1-14.359-1.867c-9.44-2.027-18.516-5.84-26.689-11.027-16.42-10.333-28.873-26.64-34.679-44.813-5.853-18.173-5.12-37.947 1.328-54.947 6.406-17.053 18.24-31.16 32.176-40.266C51.492 5.053 67.333.76 81.835.6c14.473-.267 27.724 2.787 38.48 7.747 5.388 2.466 10.15 5.44 14.201 8.68a54.27 54.27 0 0 1 9.853 10.386c2.57 3.534 4.246 7.147 5.394 10.36a35.06 35.06 0 0 1 1.901 8.467c.056.587.107 1.147.156 1.653.012.52.024 1.014.036 1.454.033.906.028 1.653-.025 2.266l-.11 1.827a2.672 2.672 0 0 1-2.814 2.507 2.681 2.681 0 0 1-2.506-2.614l-.004-.213-.025-1.587c.008-.52-.03-1.16-.101-1.92-.03-.386-.062-.786-.096-1.24-.068-.426-.139-.893-.215-1.386-.599-3.934-2.29-9.72-6.812-15.787-4.475-6.053-11.772-12.28-21.63-16.773C107.7 9.92 95.406 7.093 81.96 7.373c-13.352.147-27.833 4.16-40.645 12.587-12.82 8.333-23.724 21.293-29.639 36.947-2.939 7.8-4.679 16.24-4.89 24.826-.3 8.627.97 17.347 3.622 25.707 5.335 16.707 16.797 31.72 31.91 41.227 7.52 4.773 15.862 8.28 24.543 10.146a78.551 78.551 0 0 0 13.096 1.707l3.454.093 3.224-.08c2.197-.12 4.394-.266 6.565-.573 17.445-2.16 33.58-10.64 45.15-22.667 5.866-5.96 10.525-12.84 14.08-20.04a81.74 81.74 0 0 0 4.327-11.093c1.166-3.76 1.938-7.573 2.512-11.347.122-.96.243-1.906.364-2.84.075-.933.15-1.853.223-2.786.09-.894.123-1.867.14-2.854l.039-1.466.018-.734.006-.173c.002-.147.001-.027-.002-.093l-.009-.334a34.331 34.331 0 0 0-1.677-10.253c-2.183-6.533-6.194-12.2-10.952-16.693-4.778-4.507-10.25-7.907-15.772-10.414-5.532-2.52-11.154-4.12-16.523-5.08-2.679-.453-5.344-.8-7.844-.946-1.225-.107-2.536-.147-3.815-.174-1.181-.053-2.426.027-3.601.04-4.75.027-9.072.694-12.948 1.36-7.712 1.534-13.54 4.014-17.19 5.867-1.867.813-3.32 1.813-4.29 2.333-.972.574-1.475.867-1.475.867-.953.56-2.178.24-2.736-.72a2.005 2.005 0 0 1 .646-2.693" fill="#231F20"/>
        <path d="M99.393 22.787a5.501 5.501 0 0 1-5.5 5.493 5.501 5.501 0 0 1-5.5-5.493 5.504 5.504 0 0 1 5.5-5.507c3.038 0 5.5 2.467 5.5 5.507m18.334 1.493a5.333 5.333 0 1 1-10.667 0 5.333 5.333 0 1 1 10.667 0M80.093 163.947l-.366-90.667a3.668 3.668 0 0 1 7.333-.027v.027l-.367 90.667a3.308 3.308 0 0 1-3.313 3.293 3.309 3.309 0 0 1-3.287-3.293m24.477-57.627c0-5.013 4.065-9.08 9.078-9.08 5.013 0 9.077 4.067 9.077 9.08s-4.064 9.08-9.077 9.08-9.077-4.067-9.077-9.08m-60.51 0c0-5.013 4.064-9.08 9.078-9.08 5.013 0 9.077 4.067 9.077 9.08s-4.064 9.08-9.077 9.08c-5.014 0-9.078-4.067-9.078-9.08" fill="#231F20"/>
    </g>
</svg>
