<svg width="168" height="168" xmlns="http://www.w3.org/2000/svg">
    <title>
        pin
    </title>
    <g fill="none">
        <path d="M3.72 141.2c0-22.48 35.653-29.88 79.84-29.88 44.187 0 80.173 10.053 80.173 30.4 0 13.747-12.346 22.227-27.813 22.227-17.333 0-28-9.027-28-22.787 0 12.667-8.667 20.813-24 20.813-16.667 0-24-8.146-24-20.813 0 13.76-11.667 22.787-28.333 22.787-15.467 0-27.867-9-27.867-22.747" fill="#FFF"/>
        <path d="M7.067 141.2c0 2.88.68 5.667 2.013 8.133 1.32 2.48 3.293 4.627 5.667 6.32 2.36 1.707 5.12 2.96 8.026 3.774 1.467.413 2.96.706 4.48.906 1.534.187 2.987.28 4.6.28 3.134.014 6.24-.32 9.2-1.066 2.947-.747 5.747-1.96 8.174-3.614 2.426-1.653 4.44-3.813 5.813-6.346 1.4-2.52 2.133-5.414 2.213-8.427v-.08a2.676 2.676 0 0 1 2.734-2.6c1.453.04 2.6 1.24 2.6 2.68.146 2.76.6 5.44 1.626 7.76.987 2.347 2.48 4.32 4.454 5.773 1.973 1.454 4.346 2.494 6.946 3.094 1.294.306 2.627.533 4 .666 1.427.12 2.627.187 4.214.187a42.35 42.35 0 0 0 4.08-.187 27.628 27.628 0 0 0 3.96-.706c2.586-.64 4.946-1.734 6.96-3.214a14.725 14.725 0 0 0 4.653-5.746c1.107-2.28 1.613-4.907 1.773-7.627h5.334v.013c.08 2.48.52 4.907 1.426 7.107a17.883 17.883 0 0 0 3.92 5.827c3.4 3.306 8.134 5.24 13.107 6.04 1.253.2 2.52.333 3.787.413.653.027 1.2.053 1.893.067h1.04l.92-.014c2.533-.066 5.067-.373 7.48-.973 4.853-1.173 9.32-3.587 12.32-7.107 1.507-1.76 2.6-3.8 3.24-6 .32-1.066.533-2.306.6-3.333.107-1.333.093-2.347-.067-3.453-.573-4.36-3.68-8.24-7.733-11.174-4.08-2.973-8.947-5.146-13.96-6.88-5.04-1.733-10.293-3.026-15.613-4.04-10.654-1.986-21.574-2.906-32.494-3.226-5.453-.16-10.973-.12-16.44.04-5.466.16-10.933.453-16.373.946-5.44.48-10.84 1.147-16.16 2.12-5.32.974-10.56 2.254-15.533 4.054-4.934 1.786-9.68 4.146-13.28 7.426-1.787 1.64-3.24 3.507-4.2 5.56a14.327 14.327 0 0 0-1.067 3.2c-.12.56-.2 1.12-.267 1.694l-.053.773-.013.96zM.4 141.107l.027-1.027.093-1.293a24.61 24.61 0 0 1 .4-2.414c.347-1.586.88-3.146 1.587-4.626 1.413-2.947 3.466-5.494 5.773-7.56 4.667-4.147 10.093-6.667 15.52-8.614 5.453-1.92 11.013-3.186 16.573-4.173 5.574-.987 11.16-1.64 16.734-2.107 5.586-.48 11.173-.733 16.746-.866 5.587-.12 11.134-.16 16.747-.04 11.173.253 22.373 1.12 33.48 3.133 5.56 1.027 11.093 2.307 16.52 4.133 5.427 1.84 10.813 4.12 15.747 7.64 2.44 1.76 4.773 3.854 6.68 6.44 1.906 2.574 3.333 5.707 3.826 9.014.254 1.626.267 3.386.16 4.826a23.3 23.3 0 0 1-.826 4.8 23.202 23.202 0 0 1-4.52 8.534c-4.187 4.96-10.054 7.853-15.92 9.253a39.843 39.843 0 0 1-8.934 1.093c-.4 0-.706.014-1.16 0l-1.04-.026c-.68-.014-1.506-.08-2.24-.12a49.945 49.945 0 0 1-4.44-.587c-2.96-.547-5.893-1.427-8.68-2.747-2.786-1.346-5.413-3.146-7.613-5.44-2.187-2.293-3.92-5.053-4.973-8.026-1.067-2.974-1.467-6.107-1.414-9.134v-.013a2.668 2.668 0 0 1 2.494-2.827 2.677 2.677 0 0 1 2.826 2.494v.04l.014.293c.146 3.293-.32 6.733-1.6 9.987-1.307 3.226-3.494 6.2-6.24 8.4-2.734 2.24-5.974 3.653-9.2 4.533-1.627.44-3.267.747-4.907.933-1.653.187-3.213.28-4.92.294a51.132 51.132 0 0 1-4.8-.294 36.732 36.732 0 0 1-4.88-.866c-3.227-.827-6.52-2.187-9.293-4.454-2.8-2.226-4.92-5.32-6.107-8.6-1.173-3.293-1.533-6.68-1.387-9.92v-.013h5.334c.093 3.747-.654 7.613-2.374 11.093-1.706 3.467-4.333 6.454-7.4 8.707-3.066 2.267-6.546 3.8-10.093 4.8-3.56.987-7.2 1.453-10.813 1.507a40.18 40.18 0 0 1-10.92-1.347c-3.587-.987-7.08-2.52-10.2-4.747-3.107-2.226-5.814-5.186-7.654-8.666C1.28 149.027.36 145.053.387 141.2v-.053c.013 0 .013-.027.013-.04z" fill="#231F20"/>
        <path d="M63.413 39.48c10.654-5.653 24.574-9.08 39.814-9.08 33.506 0 60.666 16.573 60.666 37.013 0 35.054-35.813 63.48-80 63.48-44.186 0-80-28.426-80-63.48 0-35.053 35.814-63.466 80-63.466h.16c36.547 0 67.174 17.186 65.507 39.146" fill="#FFF"/>
        <path d="M62.507 37.693s.466-.253 1.373-.733a63.13 63.13 0 0 1 4.227-2.053c3.72-1.694 9.4-3.734 16.853-5.267a98.69 98.69 0 0 1 12.493-1.707c2.294-.146 4.68-.253 7.16-.226.614 0 1.214 0 1.827.013.64.013 1.293.04 1.933.067 1.32.026 2.6.133 3.934.226 5.293.427 10.92 1.254 16.72 2.814 5.8 1.52 11.8 3.746 17.613 7.08 2.907 1.666 5.76 3.613 8.453 5.933 2.68 2.307 5.214 5.013 7.28 8.187 2.107 3.16 3.694 6.84 4.44 10.826.147 1 .32 2 .347 3.027l.067 1.533-.04 1.44c-.014 1.72-.214 3.787-.44 5.747-1.014 7.707-3.774 15.347-7.974 22.253-4.226 6.907-9.866 13.054-16.36 18.227-13.093 10.253-29.586 16.6-46.72 18.48-4.293.507-8.586.667-12.986.64l-3.16-.067-3.307-.2c-1.107-.053-2.173-.2-3.267-.293a53.705 53.705 0 0 1-3.24-.4c-8.653-1.133-17.186-3.52-25.28-6.947-8.066-3.506-15.693-8.16-22.32-14.013-6.64-5.827-12.226-12.92-16.053-20.907C2.253 83.4.333 74.533.613 65.813c.214-8.706 2.64-17.226 6.587-24.64 3.973-7.44 9.373-13.813 15.387-19.093 6.053-5.227 12.72-9.413 19.6-12.587C49.04 6.28 56.12 4.107 63.053 2.653 70.013 1.24 76.867.613 83.427.573c13.08-.053 25.08 2 35.24 5.454 5.08 1.733 9.706 3.813 13.786 6.173 4.067 2.387 7.574 5.053 10.427 7.867 5.76 5.626 8.467 11.986 9.133 16.4.36 2.213.387 3.933.334 5.08a22.046 22.046 0 0 1-.134 1.746l-.013.094a2.656 2.656 0 0 1-3 2.28 2.666 2.666 0 0 1-2.293-2.787s.013-.467-.014-1.36c-.04-.907-.133-2.24-.52-3.933a22.684 22.684 0 0 0-2.386-5.947c-1.267-2.227-3.134-4.587-5.6-6.947-2.467-2.346-5.587-4.64-9.267-6.72-3.667-2.106-7.893-4.013-12.6-5.6-9.413-3.186-20.707-5.12-33.067-5.04A99.762 99.762 0 0 0 64.427 9.32c-6.467 1.373-13.027 3.4-19.374 6.36a76.833 76.833 0 0 0-18.04 11.507c-5.48 4.8-10.346 10.533-13.88 17.133-3.52 6.6-5.64 14.04-5.853 21.707-.253 7.626 1.413 15.4 4.813 22.466 3.387 7.08 8.4 13.48 14.454 18.8 6.04 5.32 13.066 9.627 20.533 12.88 7.52 3.174 15.467 5.4 23.56 6.467 1 .16 2.013.28 3.04.36 1 .093 2.027.24 3.027.28l3 .187 3.146.066c4 .014 8.094-.133 12.094-.626 16.013-1.774 31.32-7.774 43.266-17.16 5.934-4.707 11.027-10.254 14.814-16.4 3.746-6.16 6.186-12.88 7.093-19.627.187-1.653.373-3.2.4-5.08l.04-1.227-.053-1.146c-.014-.76-.147-1.52-.24-2.267-.534-2.987-1.694-5.853-3.36-8.427-3.294-5.186-8.28-9.186-13.427-12.24-5.187-3.04-10.667-5.24-16.04-6.773-5.36-1.573-10.64-2.467-15.627-2.987-10.013-.973-18.84-.386-25.946.84-7.134 1.227-12.534 3.04-16.107 4.44a57.791 57.791 0 0 0-4.04 1.734c-.92.44-1.4.68-1.4.68-1 .48-2.187.053-2.667-.947-.466-.96-.08-2.12.854-2.627" fill="#231F20"/>
        <path d="M99.893 18.893c0 2.4-2.466 4.36-5.506 4.36-3.027 0-5.494-1.96-5.494-4.36 0-2.413 2.467-4.373 5.494-4.373 3.04 0 5.506 1.96 5.506 4.373m18.334 1.187c0 2.333-2.387 4.227-5.334 4.227-2.946 0-5.333-1.894-5.333-4.227s2.387-4.227 5.333-4.227c2.947 0 5.334 1.894 5.334 4.227m-37.64 110.813l-.36-71.933a3.676 3.676 0 0 1 3.653-3.693c2.013-.014 3.667 1.626 3.68 3.653v.04l-.373 71.933a3.292 3.292 0 0 1-3.307 3.28 3.315 3.315 0 0 1-3.293-3.28m24.48-47.6a9.082 9.082 0 0 1 9.08-9.08 9.082 9.082 0 0 1 9.08 9.08 9.082 9.082 0 0 1-9.08 9.08 9.082 9.082 0 0 1-9.08-9.08m-60.507 0a9.082 9.082 0 0 1 9.08-9.08 9.082 9.082 0 0 1 9.08 9.08 9.082 9.082 0 0 1-9.08 9.08 9.082 9.082 0 0 1-9.08-9.08" fill="#231F20"/>
    </g>
</svg>
