<svg width="168" height="168" xmlns="http://www.w3.org/2000/svg">
    <title>
        po
    </title>
    <g fill="none" fill-rule="evenodd">
        <path d="M63.208 48.733C73.861 41.6 87.784 37.28 103.018 37.28c33.505 0 60.666 20.893 60.666 46.667 0 44.186-35.816 80-80 80-44.183 0-80-35.814-80-80 0-44.187 35.817-80 80-80h.167c36.544 0 67.166 21.666 65.5 49.333" fill="#FFF" fill-rule="nonzero"/>
        <path d="M62.161 47.027s.49-.307 1.438-.92c.984-.587 2.257-1.56 4.337-2.614 4.001-2.28 10.035-4.973 18.25-6.88 4.11-.84 8.709-1.666 13.775-1.853 1.276-.04 2.531-.173 3.9-.133 1.272 0 2.562.013 3.978.093 2.788.12 5.577.427 8.493.867 5.799.906 11.91 2.506 18.01 5.133 6.091 2.613 12.22 6.24 17.657 11.267 5.418 5 10.172 11.466 12.854 19.213A40.892 40.892 0 0 1 167 83.453l.015.4v.267l-.004.187-.019.733-.035 1.467c-.016.96-.045 1.946-.141 3.013l-.245 3.133c-.13 1.027-.259 2.067-.388 3.094-.614 4.12-1.451 8.266-2.71 12.346a87.77 87.77 0 0 1-4.688 12.08c-3.849 7.854-8.91 15.347-15.277 21.84-12.6 13.067-30.192 22.267-49.17 24.574-2.36.333-4.747.48-7.134.613l-3.67.08-3.454-.093a84.782 84.782 0 0 1-14.359-1.867c-9.44-2.027-18.516-5.84-26.689-11.027-16.42-10.333-28.875-26.64-34.679-44.813C-1.5 91.307-.767 71.533 5.68 54.533c6.407-17.053 18.24-31.16 32.177-40.266C51.784 5.053 67.625.76 82.127.6c14.472-.267 27.724 2.787 38.478 7.747 5.39 2.466 10.151 5.44 14.203 8.68a54.27 54.27 0 0 1 9.853 10.386c2.568 3.534 4.246 7.147 5.394 10.36a35.124 35.124 0 0 1 1.901 8.467l.155 1.653.036 1.454c.034.906.029 1.653-.026 2.266l-.108 1.827a2.673 2.673 0 0 1-2.816 2.507 2.679 2.679 0 0 1-2.504-2.614l-.004-.213-.025-1.587c.008-.52-.03-1.16-.101-1.92l-.098-1.24-.213-1.386c-.6-3.934-2.29-9.72-6.812-15.787-4.476-6.053-11.773-12.28-21.63-16.773-9.82-4.507-22.111-7.334-35.56-7.054-13.35.147-27.833 4.16-40.645 12.587-12.818 8.333-23.722 21.293-29.637 36.947-2.939 7.8-4.679 16.24-4.89 24.826-.3 8.627.969 17.347 3.622 25.707 5.335 16.707 16.797 31.72 31.91 41.227 7.52 4.773 15.862 8.28 24.542 10.146a78.567 78.567 0 0 0 13.097 1.707l3.452.093 3.226-.08c2.197-.12 4.394-.266 6.565-.573 17.444-2.16 33.58-10.64 45.148-22.667 5.867-5.96 10.527-12.84 14.081-20.04a81.915 81.915 0 0 0 4.328-11.093c1.166-3.76 1.938-7.573 2.511-11.347l.364-2.84c.075-.933.15-1.853.224-2.786.09-.894.123-1.867.14-2.854l.037-1.466.02-.734.004-.173c.004-.147.003-.027 0-.093l-.01-.334a34.289 34.289 0 0 0-1.678-10.253c-2.182-6.533-6.192-12.2-10.95-16.693-4.779-4.507-10.25-7.907-15.774-10.414-5.53-2.52-11.152-4.12-16.522-5.08-2.678-.453-5.343-.8-7.844-.946-1.224-.107-2.535-.147-3.814-.174-1.181-.053-2.426.027-3.601.04-4.75.027-9.072.694-12.95 1.36-7.711 1.534-13.538 4.014-17.19 5.867-1.865.813-3.319 1.813-4.288 2.333-.973.574-1.475.867-1.475.867-.953.56-2.178.24-2.737-.72-.543-.92-.25-2.12.645-2.693" fill="#231F20" fill-rule="nonzero"/>
        <path d="M99.684 22.787a5.5 5.5 0 0 1-11 0 5.504 5.504 0 0 1 5.5-5.507c3.039 0 5.5 2.467 5.5 5.507m18.333 1.493a5.332 5.332 0 0 1-5.333 5.333 5.333 5.333 0 1 1 0-10.666 5.332 5.332 0 0 1 5.333 5.333" fill="#231F20" fill-rule="nonzero"/>
        <path d="M109.697 96.28c0 14.36-11.641 26-26 26-14.36 0-26-11.64-26-26s11.64-26 26-26c14.359 0 26 11.64 26 26" fill="#FFF" fill-rule="nonzero"/>
        <path d="M109.697 96.28c0 14.36-11.641 26-26 26-14.36 0-26-11.64-26-26s11.64-26 26-26c14.359 0 26 11.64 26 26z" stroke="#231F20" stroke-width="6.667"/>
        <path d="M93.697 95.133c0 5.534-4.477 10-10 10-5.522 0-10-4.466-10-10 0-5.52 4.478-10 10-10 5.523 0 10 4.48 10 10" fill="#231F20" fill-rule="nonzero"/>
    </g>
</svg>
