<svg width="168" height="168" xmlns="http://www.w3.org/2000/svg">
    <title>
        pon
    </title>
    <g fill="none" fill-rule="evenodd">
        <path d="M4.013 141.2c0-22.48 35.654-29.88 79.84-29.88 44.187 0 80.174 10.053 80.174 30.4 0 13.747-12.347 22.227-27.814 22.227-17.333 0-28-9.027-28-22.787 0 12.667-8.666 20.813-24 20.813-16.666 0-24-8.146-24-20.813 0 13.76-11.666 22.787-28.333 22.787-15.467 0-27.867-9-27.867-22.747" fill="#FFF" fill-rule="nonzero"/>
        <path d="M7.347 141.2c.013 2.88.693 5.667 2.026 8.133 1.32 2.48 3.294 4.627 5.667 6.32 2.36 1.707 5.12 2.96 8.027 3.774 1.453.413 2.96.706 4.48.906 1.533.187 2.986.28 4.6.28 3.133.014 6.226-.32 9.186-1.066 2.96-.747 5.76-1.96 8.187-3.614 2.427-1.653 4.44-3.813 5.813-6.346 1.4-2.52 2.134-5.414 2.214-8.427v-.08a2.676 2.676 0 0 1 2.733-2.6c1.453.04 2.6 1.24 2.6 2.68.147 2.76.6 5.44 1.627 7.76.986 2.347 2.466 4.32 4.453 5.773 1.973 1.454 4.347 2.494 6.947 3.094 1.293.306 2.626.533 4 .666 1.426.12 2.626.187 4.213.187a42.35 42.35 0 0 0 4.08-.187 27.628 27.628 0 0 0 3.96-.706c2.587-.64 4.947-1.734 6.96-3.214s3.587-3.453 4.653-5.746c1.107-2.28 1.614-4.907 1.774-7.627h5.333v.013c.08 2.48.52 4.907 1.427 7.107.92 2.187 2.226 4.173 3.92 5.827 3.4 3.306 8.12 5.24 13.106 6.04 1.24.2 2.52.333 3.787.413.64.027 1.2.053 1.893.067h1.04l.92-.014c2.534-.066 5.067-.373 7.48-.973 4.854-1.173 9.307-3.587 12.32-7.107 1.507-1.76 2.6-3.8 3.24-6 .32-1.066.534-2.306.6-3.333.107-1.333.094-2.347-.066-3.453-.574-4.36-3.68-8.24-7.747-11.174-4.067-2.973-8.933-5.146-13.947-6.88-5.04-1.733-10.293-3.026-15.613-4.04-10.653-1.986-21.573-2.906-32.493-3.226-5.454-.16-10.974-.12-16.44.04-5.48.16-10.947.453-16.374.946-5.44.48-10.84 1.147-16.16 2.12-5.32.974-10.56 2.254-15.533 4.054-4.947 1.786-9.68 4.146-13.28 7.426-1.787 1.64-3.24 3.507-4.2 5.56a14.327 14.327 0 0 0-1.067 3.2c-.12.56-.2 1.12-.266 1.694l-.054.773-.026.96zm-6.667-.093l.04-1.027.093-1.293a24.61 24.61 0 0 1 .4-2.414c.347-1.586.88-3.146 1.587-4.626 1.413-2.947 3.467-5.494 5.773-7.56 4.654-4.147 10.094-6.667 15.52-8.614 5.454-1.92 11.014-3.186 16.574-4.173 5.573-.987 11.146-1.64 16.733-2.107 5.587-.48 11.173-.733 16.747-.866 5.586-.12 11.133-.16 16.746-.04 11.174.253 22.374 1.12 33.48 3.133 5.547 1.027 11.08 2.307 16.52 4.133 5.427 1.84 10.814 4.12 15.747 7.64 2.44 1.76 4.773 3.854 6.68 6.44 1.907 2.574 3.333 5.707 3.827 9.014.253 1.626.253 3.386.16 4.826a23.3 23.3 0 0 1-.827 4.8 23.036 23.036 0 0 1-4.533 8.534c-4.187 4.96-10.054 7.853-15.907 9.253a39.937 39.937 0 0 1-8.933 1.093c-.4 0-.72.014-1.16 0l-1.04-.026c-.68-.014-1.507-.08-2.254-.12-1.48-.134-2.96-.32-4.426-.587-2.96-.547-5.894-1.427-8.694-2.747-2.773-1.346-5.4-3.146-7.6-5.44-2.186-2.293-3.92-5.053-4.973-8.026-1.067-2.974-1.467-6.107-1.413-9.134v-.013a2.66 2.66 0 0 1 2.493-2.827 2.677 2.677 0 0 1 2.827 2.494v.04l.013.293c.147 3.293-.32 6.733-1.6 9.987-1.307 3.226-3.493 6.2-6.24 8.4-2.733 2.24-5.973 3.653-9.213 4.533-1.614.44-3.254.747-4.894.933-1.653.187-3.226.28-4.92.294a51.132 51.132 0 0 1-4.8-.294 36.732 36.732 0 0 1-4.88-.866c-3.24-.827-6.533-2.187-9.293-4.454-2.8-2.226-4.933-5.32-6.107-8.6-1.173-3.293-1.533-6.68-1.386-9.92v-.013h5.333c.093 3.747-.667 7.613-2.373 11.093-1.707 3.467-4.334 6.454-7.4 8.707-3.067 2.267-6.547 3.8-10.094 4.8-3.56.987-7.2 1.453-10.813 1.507a40.486 40.486 0 0 1-5.493-.294 40.186 40.186 0 0 1-5.427-1.053c-3.587-.987-7.08-2.52-10.2-4.747-3.107-2.226-5.813-5.186-7.653-8.666C1.573 149.027.653 145.053.68 141.2v-.093z" fill="#231F20" fill-rule="nonzero"/>
        <path d="M63.707 39.48C74.36 33.827 88.28 30.4 103.52 30.4c33.507 0 60.667 16.573 60.667 37.013 0 35.054-35.814 63.48-80 63.48-44.187 0-80-28.426-80-63.48 0-35.053 35.813-63.466 80-63.466h.16c36.546 0 67.173 17.186 65.506 39.146" fill="#FFF" fill-rule="nonzero"/>
        <path d="M62.8 37.693s.467-.253 1.373-.733c.88-.467 2.374-1.24 4.214-2.053 3.733-1.694 9.4-3.734 16.866-5.267a98.69 98.69 0 0 1 12.494-1.707c2.293-.146 4.666-.253 7.16-.226.6 0 1.213 0 1.826.013.64.013 1.294.04 1.934.067 1.32.026 2.6.133 3.933.226 5.293.427 10.92 1.254 16.72 2.814 5.8 1.52 11.8 3.746 17.613 7.08 2.907 1.666 5.76 3.613 8.454 5.933 2.68 2.307 5.2 5.013 7.28 8.187 2.106 3.16 3.693 6.84 4.44 10.826.146 1 .32 2 .346 3.027l.067 1.533-.04 1.44c-.013 1.72-.213 3.787-.44 5.747-1.013 7.707-3.787 15.347-7.987 22.253-4.213 6.907-9.853 13.054-16.346 18.227-13.094 10.253-29.587 16.6-46.72 18.48-4.294.507-8.587.667-12.987.64l-3.16-.067-3.307-.2c-1.106-.053-2.173-.2-3.266-.293a53.705 53.705 0 0 1-3.24-.4c-8.654-1.133-17.187-3.52-25.294-6.947-8.053-3.506-15.68-8.16-22.306-14.013-6.64-5.827-12.227-12.92-16.054-20.907C2.533 83.4.627 74.533.893 65.813c.227-8.706 2.64-17.226 6.6-24.64 3.96-7.44 9.36-13.813 15.374-19.093C28.933 16.853 35.6 12.667 42.48 9.493c6.853-3.213 13.92-5.386 20.867-6.84C70.307 1.24 77.16.613 83.72.573c13.08-.053 25.08 2 35.24 5.454 5.08 1.733 9.707 3.813 13.787 6.173 4.066 2.387 7.573 5.053 10.426 7.867 5.76 5.626 8.467 11.986 9.134 16.4.36 2.213.386 3.933.333 5.08-.053 1.16-.133 1.746-.133 1.746l-.014.094a2.663 2.663 0 0 1-3 2.28 2.688 2.688 0 0 1-2.306-2.787s.026-.467 0-1.36c-.04-.907-.134-2.24-.52-3.933a23.654 23.654 0 0 0-2.387-5.947c-1.267-2.227-3.133-4.587-5.6-6.947-2.467-2.346-5.587-4.64-9.267-6.72-3.666-2.106-7.893-4.013-12.6-5.6-9.413-3.186-20.706-5.12-33.066-5.04A99.762 99.762 0 0 0 64.72 9.32c-6.467 1.373-13.027 3.4-19.373 6.36a76.833 76.833 0 0 0-18.04 11.507c-5.48 4.8-10.347 10.533-13.894 17.133-3.52 6.6-5.626 14.04-5.853 21.707-.24 7.626 1.427 15.4 4.827 22.466 3.386 7.08 8.4 13.48 14.453 18.8 6.04 5.32 13.067 9.627 20.533 12.88 7.52 3.174 15.467 5.4 23.56 6.467 1 .16 2.014.28 3.027.36 1.013.093 2.04.24 3.04.28l2.987.187 3.146.066c4 .014 8.107-.133 12.094-.626 16.026-1.774 31.32-7.774 43.28-17.16 5.933-4.707 11.026-10.254 14.813-16.4 3.747-6.16 6.187-12.88 7.093-19.627.187-1.653.374-3.2.387-5.08l.053-1.227-.053-1.146c-.013-.76-.147-1.52-.24-2.267-.533-2.987-1.693-5.853-3.36-8.427-3.307-5.186-8.28-9.186-13.427-12.24-5.2-3.04-10.666-5.24-16.04-6.773-5.36-1.573-10.64-2.467-15.626-2.987-10.014-.973-18.84-.386-25.96.84-7.12 1.227-12.52 3.04-16.107 4.44a59.803 59.803 0 0 0-4.027 1.734c-.92.44-1.4.68-1.4.68-1 .48-2.186.053-2.666-.947-.467-.96-.08-2.12.853-2.627" fill="#231F20" fill-rule="nonzero"/>
        <path d="M100.187 18.893c0 2.4-2.467 4.36-5.507 4.36-3.027 0-5.493-1.96-5.493-4.36 0-2.413 2.466-4.373 5.493-4.373 3.04 0 5.507 1.96 5.507 4.373m18.333 1.187c0 2.333-2.387 4.227-5.333 4.227-2.947 0-5.334-1.894-5.334-4.227s2.387-4.227 5.334-4.227c2.946 0 5.333 1.894 5.333 4.227" fill="#231F20" fill-rule="nonzero"/>
        <path d="M110.2 79.84c0 14.36-11.64 26-26 26s-26-11.64-26-26 11.64-26 26-26 26 11.64 26 26" fill="#FFF" fill-rule="nonzero"/>
        <path d="M110.2 79.84c0 14.36-11.64 26-26 26s-26-11.64-26-26 11.64-26 26-26 26 11.64 26 26z" stroke="#231F20" stroke-width="6.667"/>
        <path d="M94.2 78.693c0 5.52-4.48 10-10 10s-10-4.48-10-10 4.48-10 10-10 10 4.48 10 10" fill="#231F20" fill-rule="nonzero"/>
    </g>
</svg>
