<svg width="168" height="168" xmlns="http://www.w3.org/2000/svg">
    <title>
        pu
    </title>
    <g fill="none">
        <path d="M63.499 48.733C74.153 41.6 88.076 37.28 103.309 37.28c33.506 0 60.667 20.893 60.667 46.667 0 44.186-35.817 80-80 80s-80-35.814-80-80c0-44.187 35.817-80 80-80h.167c36.542 0 67.166 21.666 65.5 49.333" fill="#FFF"/>
        <path d="M62.453 47.027s.49-.307 1.438-.92c.984-.587 2.256-1.56 4.337-2.614 4.001-2.28 10.033-4.973 18.25-6.88 4.109-.84 8.707-1.666 13.774-1.853 1.277-.04 2.53-.173 3.9-.133 1.272 0 2.561.013 3.977.093 2.788.12 5.579.427 8.494.867 5.798.906 11.91 2.506 18.01 5.133 6.092 2.613 12.222 6.24 17.658 11.267 5.417 5 10.17 11.466 12.854 19.213a40.892 40.892 0 0 1 2.147 12.253l.015.4v.267l-.006.187-.017.733-.036 1.467a39.74 39.74 0 0 1-.14 3.013l-.245 3.133c-.13 1.027-.259 2.067-.39 3.094-.612 4.12-1.45 8.266-2.708 12.346a87.777 87.777 0 0 1-4.689 12.08c-3.848 7.854-8.91 15.347-15.277 21.84-12.6 13.067-30.191 22.267-49.168 24.574-2.362.333-4.75.48-7.136.613l-3.671.08-3.452-.093a84.747 84.747 0 0 1-14.359-1.867c-9.441-2.027-18.516-5.84-26.689-11.027-16.42-10.333-28.875-26.64-34.68-44.813-5.853-18.173-5.119-37.947 1.328-54.947 6.407-17.053 18.24-31.16 32.177-40.266C52.076 5.053 67.917.76 82.42.6c14.47-.267 27.72 2.787 38.477 7.747 5.39 2.466 10.151 5.44 14.202 8.68a54.27 54.27 0 0 1 9.853 10.386c2.57 3.534 4.245 7.147 5.393 10.36a35.134 35.134 0 0 1 1.903 8.467l.155 1.653.036 1.454c.033.906.029 1.653-.026 2.266l-.109 1.827a2.672 2.672 0 0 1-2.815 2.507 2.681 2.681 0 0 1-2.505-2.614l-.003-.213-.026-1.587c.008-.52-.028-1.16-.1-1.92l-.098-1.24-.214-1.386c-.599-3.934-2.29-9.72-6.811-15.787-4.476-6.053-11.773-12.28-21.632-16.773-9.817-4.507-22.11-7.334-35.557-7.054-13.352.147-27.834 4.16-40.646 12.587C29.08 28.293 18.173 41.253 12.26 56.907c-2.939 7.8-4.679 16.24-4.891 24.826-.299 8.627.97 17.347 3.623 25.707 5.334 16.707 16.798 31.72 31.91 41.227 7.522 4.773 15.862 8.28 24.543 10.146a78.551 78.551 0 0 0 13.096 1.707l3.453.093 3.224-.08c2.198-.12 4.395-.266 6.566-.573 17.445-2.16 33.58-10.64 45.149-22.667 5.867-5.96 10.525-12.84 14.08-20.04a81.565 81.565 0 0 0 4.328-11.093c1.165-3.76 1.939-7.573 2.512-11.347.121-.96.243-1.906.364-2.84.075-.933.15-1.853.223-2.786.09-.894.122-1.867.14-2.854l.038-1.466.019-.734.005-.173c.004-.147.002-.027-.001-.093l-.01-.334a34.289 34.289 0 0 0-1.677-10.253c-2.182-6.533-6.193-12.2-10.95-16.693-4.779-4.507-10.251-7.907-15.774-10.414-5.532-2.52-11.153-4.12-16.522-5.08-2.679-.453-5.344-.8-7.844-.946-1.226-.107-2.536-.147-3.815-.174-1.181-.053-2.427.027-3.6.04-4.75.027-9.072.694-12.95 1.36-7.711 1.534-13.54 4.014-17.19 5.867-1.867.813-3.319 1.813-4.288 2.333-.973.574-1.475.867-1.475.867-.953.56-2.178.24-2.737-.72-.544-.92-.25-2.12.645-2.693" fill="#231F20"/>
        <path d="M99.976 22.787a5.501 5.501 0 0 1-5.5 5.493 5.501 5.501 0 0 1-5.5-5.493 5.504 5.504 0 0 1 5.5-5.507c3.037 0 5.5 2.467 5.5 5.507m18.334 1.493a5.333 5.333 0 1 1-10.667 0 5.333 5.333 0 1 1 10.666 0M31.97 144.947L75.03 101.2a3.009 3.009 0 0 1 4.242-.027 2.999 2.999 0 0 1 .033 4.24c-.009.014-.029.027-.038.04l-43.828 42.96a2.441 2.441 0 0 1-3.472-.026 2.457 2.457 0 0 1 .004-3.44" fill="#231F20"/>
        <path d="M15.23 125.64s8.358-8.533 20.894-21.32l10.165-10.293c1.803-1.814 3.656-3.694 5.55-5.614.948-.946 1.906-1.92 2.873-2.893l.73-.733.795-.774c.456-.453 1.115-1.013 1.726-1.533 4.798-3.947 11.102-6.44 17.66-6.587 6.54-.213 13.282 1.974 18.494 6.174a28.361 28.361 0 0 1 3.564 3.44 26.712 26.712 0 0 1 2.959 4.08 28.333 28.333 0 0 1 3.472 9.24c1.21 6.466.09 13.146-2.803 18.653a29.608 29.608 0 0 1-5.404 7.333 7542.125 7542.125 0 0 1-5.621 5.547 5649.424 5649.424 0 0 0-10.312 10.133c-6.37 6.294-11.755 11.467-15.493 15.107l-5.888 5.72a2.395 2.395 0 0 1-3.394-.04 2.401 2.401 0 0 1 .003-3.347s2.085-2.146 5.735-5.88c3.656-3.733 8.838-9.106 15.145-15.466 3.145-3.187 6.553-6.64 10.159-10.28 1.804-1.827 3.658-3.707 5.553-5.614 1.701-1.72 3.18-3.693 4.313-5.906 2.292-4.414 3.156-9.747 2.175-14.867a22.344 22.344 0 0 0-2.77-7.267c-.65-1.12-1.482-2.226-2.28-3.146a24.469 24.469 0 0 0-2.87-2.774c-4.081-3.32-9.377-5.08-14.59-4.933-5.222.093-10.26 2.067-14.12 5.2-1.829 1.52-3.811 3.667-5.734 5.507-1.92 1.893-3.797 3.733-5.627 5.533-3.656 3.6-7.112 7-10.302 10.147a53492.039 53492.039 0 0 0-21.366 20.853 2.407 2.407 0 0 1-3.394-.04 2.408 2.408 0 0 1 .004-3.36" fill="#231F20"/>
    </g>
</svg>
