<svg width="168" height="168" xmlns="http://www.w3.org/2000/svg">
    <title>
        pun
    </title>
    <g fill="none">
        <path d="M4.307 141.2c0-22.48 35.653-29.88 79.84-29.88 44.173 0 80.173 10.053 80.173 30.4 0 13.747-12.36 22.227-27.813 22.227-17.334 0-28-9.027-28-22.787 0 12.667-8.667 20.813-24 20.813-16.667 0-24-8.146-24-20.813 0 13.76-11.667 22.787-28.334 22.787-15.466 0-27.866-9-27.866-22.747" fill="#FFF"/>
        <path d="M7.64 141.2c.013 2.88.693 5.667 2.013 8.133 1.334 2.48 3.307 4.627 5.68 6.32 2.36 1.707 5.107 2.96 8.027 3.774 1.453.413 2.96.706 4.48.906 1.52.187 2.987.28 4.6.28 3.133.014 6.227-.32 9.187-1.066 2.96-.747 5.746-1.96 8.186-3.614 2.427-1.653 4.44-3.813 5.814-6.346 1.4-2.52 2.133-5.414 2.213-8.427v-.08c.027-1.467 1.253-2.627 2.733-2.6 1.454.04 2.6 1.24 2.6 2.68.147 2.76.587 5.44 1.627 7.76.973 2.347 2.467 4.32 4.453 5.773 1.974 1.454 4.347 2.494 6.934 3.094a30.36 30.36 0 0 0 4.013.666 46.38 46.38 0 0 0 4.2.187c1.307 0 2.747-.053 4.08-.187a27.483 27.483 0 0 0 3.973-.706c2.574-.64 4.947-1.734 6.96-3.214 2.014-1.48 3.587-3.453 4.654-5.746 1.106-2.28 1.613-4.907 1.773-7.627h5.333v.013c.08 2.48.507 4.907 1.427 7.107.92 2.187 2.227 4.173 3.92 5.827 3.4 3.306 8.12 5.24 13.107 6.04 1.24.2 2.506.333 3.786.413.64.027 1.2.053 1.894.067h1.04l.92-.014c2.533-.066 5.066-.373 7.48-.973 4.853-1.173 9.306-3.587 12.32-7.107 1.506-1.76 2.6-3.8 3.24-6 .32-1.066.533-2.306.6-3.333.093-1.333.093-2.347-.067-3.453-.587-4.36-3.68-8.24-7.747-11.174-4.066-2.973-8.933-5.146-13.96-6.88-5.026-1.733-10.28-3.026-15.6-4.04-10.653-1.986-21.573-2.906-32.506-3.226-5.44-.16-10.96-.12-16.427.04-5.48.16-10.947.453-16.373.946-5.44.48-10.84 1.147-16.16 2.12-5.32.974-10.56 2.254-15.534 4.054-4.946 1.786-9.693 4.146-13.28 7.426-1.786 1.64-3.24 3.507-4.2 5.56a15.077 15.077 0 0 0-1.08 3.2 24.07 24.07 0 0 0-.253 1.694l-.053.773-.027.96zm-6.667-.093l.04-1.027.094-1.293c.093-.814.213-1.614.386-2.414.36-1.586.894-3.146 1.6-4.626 1.4-2.947 3.467-5.494 5.774-7.56 4.653-4.147 10.093-6.667 15.52-8.614 5.453-1.92 11.013-3.186 16.573-4.173 5.56-.987 11.147-1.64 16.733-2.107 5.587-.48 11.174-.733 16.747-.866 5.587-.12 11.133-.16 16.747-.04 11.173.253 22.373 1.12 33.48 3.133 5.546 1.027 11.08 2.307 16.52 4.133 5.426 1.84 10.813 4.12 15.746 7.64 2.44 1.76 4.774 3.854 6.68 6.44 1.907 2.574 3.334 5.707 3.814 9.014.266 1.626.266 3.386.173 4.826a22.445 22.445 0 0 1-.84 4.8 22.814 22.814 0 0 1-4.52 8.534c-4.187 4.96-10.053 7.853-15.907 9.253a39.96 39.96 0 0 1-8.946 1.093c-.387 0-.707.014-1.147 0l-1.04-.026c-.693-.014-1.507-.08-2.253-.12-1.48-.134-2.96-.32-4.44-.587-2.947-.547-5.88-1.427-8.68-2.747-2.774-1.346-5.4-3.146-7.6-5.44-2.187-2.293-3.92-5.053-4.974-8.026-1.066-2.974-1.466-6.107-1.413-9.134v-.013a2.658 2.658 0 0 1 2.48-2.827c1.48-.08 2.747 1.027 2.827 2.494l.013.04.013.293c.147 3.293-.32 6.733-1.613 9.987a20.82 20.82 0 0 1-6.227 8.4c-2.733 2.24-5.973 3.653-9.213 4.533-1.613.44-3.253.747-4.893.933a46.3 46.3 0 0 1-4.92.294 51.132 51.132 0 0 1-4.8-.294 36.732 36.732 0 0 1-4.88-.866c-3.24-.827-6.534-2.187-9.294-4.454-2.8-2.226-4.933-5.32-6.106-8.6-1.174-3.293-1.534-6.68-1.387-9.92v-.013h5.333c.094 3.747-.666 7.613-2.373 11.093-1.707 3.467-4.333 6.454-7.4 8.707-3.067 2.267-6.547 3.8-10.093 4.8-3.56.987-7.2 1.453-10.827 1.507a39.789 39.789 0 0 1-10.907-1.347c-3.586-.987-7.08-2.52-10.2-4.747-3.106-2.226-5.813-5.186-7.653-8.666-1.853-3.48-2.773-7.454-2.747-11.307v-.093z" fill="#231F20"/>
        <path d="M64 39.48c10.653-5.653 24.573-9.08 39.813-9.08 33.507 0 60.667 16.573 60.667 37.013 0 35.054-35.827 63.48-80 63.48-44.187 0-80-28.426-80-63.48 0-35.053 35.813-63.466 80-63.466h.16c36.547 0 67.173 17.186 65.507 39.146" fill="#FFF"/>
        <path d="M63.093 37.693s.467-.253 1.374-.733c.88-.467 2.373-1.24 4.213-2.053 3.72-1.694 9.4-3.734 16.867-5.267a98.69 98.69 0 0 1 12.493-1.707c2.293-.146 4.667-.253 7.16-.226.6 0 1.213 0 1.827.013.64.013 1.28.04 1.933.067 1.307.026 2.6.133 3.933.226 5.294.427 10.92 1.254 16.72 2.814 5.8 1.52 11.8 3.746 17.614 7.08 2.906 1.666 5.76 3.613 8.44 5.933 2.693 2.307 5.213 5.013 7.293 8.187 2.107 3.16 3.693 6.84 4.44 10.826.147 1 .32 2 .347 3.027l.066 1.533-.04 1.44c-.013 1.72-.213 3.787-.44 5.747-1.013 7.707-3.786 15.347-7.986 22.253-4.227 6.907-9.854 13.054-16.347 18.227-13.093 10.253-29.587 16.6-46.72 18.48-4.293.507-8.587.667-12.987.64l-3.16-.067-3.306-.2c-1.107-.053-2.174-.2-3.267-.293a53.705 53.705 0 0 1-3.24-.4c-8.667-1.133-17.187-3.52-25.293-6.947-8.067-3.506-15.68-8.16-22.307-14.013-6.64-5.827-12.227-12.92-16.053-20.907-3.84-7.973-5.747-16.84-5.48-25.56.226-8.706 2.64-17.226 6.6-24.64 3.96-7.44 9.36-13.813 15.373-19.093 6.067-5.227 12.733-9.413 19.613-12.587 6.854-3.213 13.92-5.386 20.867-6.84C70.6 1.24 77.44.613 84.013.573c13.08-.053 25.08 2 35.24 5.454 5.08 1.733 9.707 3.813 13.787 6.173 4.053 2.387 7.573 5.053 10.413 7.867 5.774 5.626 8.467 11.986 9.147 16.4.36 2.213.387 3.933.333 5.08-.053 1.16-.133 1.746-.133 1.746l-.013.094a2.663 2.663 0 0 1-3 2.28 2.677 2.677 0 0 1-2.307-2.787s.027-.467-.013-1.36a21.07 21.07 0 0 0-.507-3.933 23.654 23.654 0 0 0-2.387-5.947c-1.266-2.227-3.133-4.587-5.6-6.947-2.466-2.346-5.586-4.64-9.266-6.72-3.667-2.106-7.907-4.013-12.6-5.6-9.414-3.186-20.707-5.12-33.067-5.04A99.762 99.762 0 0 0 65.013 9.32c-6.466 1.373-13.026 3.4-19.386 6.36A76.756 76.756 0 0 0 27.6 27.187c-5.48 4.8-10.347 10.533-13.893 17.133-3.52 6.6-5.64 14.04-5.854 21.707-.24 7.626 1.427 15.4 4.827 22.466 3.387 7.08 8.4 13.48 14.453 18.8 6.04 5.32 13.054 9.627 20.534 12.88 7.52 3.174 15.466 5.4 23.56 6.467 1 .16 2.013.28 3.026.36 1.014.093 2.04.24 3.04.28l2.987.187 3.147.066c4 .014 8.106-.133 12.093-.626 16.027-1.774 31.32-7.774 43.28-17.16 5.933-4.707 11.027-10.254 14.813-16.4 3.747-6.16 6.187-12.88 7.094-19.627.186-1.653.373-3.2.386-5.08l.04-1.227-.04-1.146c-.026-.76-.146-1.52-.253-2.267-.52-2.987-1.68-5.853-3.347-8.427-3.306-5.186-8.28-9.186-13.426-12.24-5.2-3.04-10.667-5.24-16.04-6.773-5.36-1.573-10.64-2.467-15.627-2.987-10.013-.973-18.84-.386-25.96.84-7.12 1.227-12.52 3.04-16.107 4.44a59.803 59.803 0 0 0-4.026 1.734c-.92.44-1.4.68-1.4.68-1 .48-2.187.053-2.667-.947-.467-.96-.08-2.12.853-2.627" fill="#231F20"/>
        <path d="M100.48 18.893c0 2.4-2.467 4.36-5.507 4.36-3.04 0-5.493-1.96-5.493-4.36 0-2.413 2.453-4.373 5.493-4.373 3.04 0 5.507 1.96 5.507 4.373m18.333 1.187c0 2.333-2.386 4.227-5.333 4.227s-5.333-1.894-5.333-4.227 2.386-4.227 5.333-4.227 5.333 1.894 5.333 4.227M31.28 113.72l47.507-38.587a3.006 3.006 0 0 1 4.226.44 3.002 3.002 0 0 1-.44 4.214c-.013.013-.04.026-.04.04l-48.2 37.733a2.456 2.456 0 0 1-3.44-.427 2.446 2.446 0 0 1 .387-3.413" fill="#231F20"/>
        <path d="M13.307 97.333s9.146-7.466 22.893-18.68c3.44-2.786 7.173-5.8 11.12-8.986 1.973-1.6 4-3.24 6.08-4.92a858.446 858.446 0 0 1 4.8-3.854l.813-.626.96-.68c5.067-3.454 11.094-5.507 17.374-6.054 6.253-.546 12.826.387 18.72 3.24a27.682 27.682 0 0 1 4.24 2.507l1 .747.92.76a28.284 28.284 0 0 1 1.84 1.746c2.306 2.414 4.16 5.36 5.186 8.587 1.054 3.227 1.254 6.707.68 9.96-.573 3.253-1.893 6.293-3.64 8.88-1.746 2.573-3.973 4.787-6.213 6.533a2750.895 2750.895 0 0 1-6.133 4.827c-4 3.133-7.774 6.107-11.254 8.84-6.96 5.493-12.826 9.987-16.906 13.16l-6.414 4.987c-1.053.8-2.56.613-3.373-.427a2.409 2.409 0 0 1 .373-3.333s2.294-1.867 6.294-5.147c4-3.267 9.68-7.987 16.586-13.547 3.44-2.786 7.174-5.813 11.12-9 1.974-1.6 4-3.24 6.08-4.906 1.96-1.547 3.614-3.254 4.974-5.254 2.706-3.973 3.746-9.106 2.186-13.746-1.493-4.64-5.426-8.507-10.16-10.787-4.746-2.333-10.293-3.187-15.6-2.733-5.32.426-10.466 2.186-14.573 4.96l-.733.52-.827.626c-.52.414-1.04.814-1.56 1.227-1.067.84-2.12 1.68-3.173 2.493-2.094 1.654-4.147 3.267-6.134 4.84-4 3.134-7.773 6.094-11.253 8.84a62007.112 62007.112 0 0 0-23.307 18.16 2.386 2.386 0 0 1-3.36-.426 2.385 2.385 0 0 1 .374-3.334" fill="#231F20"/>
    </g>
</svg>
