<svg width="101" height="167" xmlns="http://www.w3.org/2000/svg">
    <title>
        sa
    </title>
    <g fill="none">
        <path d="M9.81 130.747c0-18.16 18.206-32.88 40.666-32.88 22.46 0 40.667 14.72 40.667 32.88 0 18.146-18.208 32.866-40.667 32.866-22.46 0-40.667-14.72-40.667-32.866" fill="#FFF"/>
        <path d="M12.81 130.747l.169 2.306c.131 1.494.576 3.667 1.522 6.32a29.308 29.308 0 0 0 5.51 8.6c2.705 2.947 6.387 5.76 10.904 7.96.569.267 1.125.574 1.719.814.6.226 1.205.466 1.817.693 1.203.52 2.51.84 3.811 1.227.647.213 1.316.373 2 .493.678.147 1.363.28 2.052.427 1.372.24 2.727.333 4.12.533.775.04 1.557.067 2.344.093l1.185.04.595.027h-.064.07l.14-.013h.278l2.25-.08 1.135-.04 1.13-.134c.758-.093 1.52-.173 2.284-.266.765-.094 1.514-.294 2.278-.427 1.538-.253 3.03-.733 4.548-1.173 2.985-.987 5.976-2.214 8.703-3.934 1.426-.76 2.67-1.8 3.995-2.733 1.202-1.08 2.478-2.093 3.531-3.32 2.187-2.373 4.1-5.067 5.304-8.053 1.247-3.067 1.899-5.84 2.003-9.36-.032-6.44-2.643-12.8-7.123-17.587-1.048-1.253-2.32-2.293-3.52-3.4-1.323-.96-2.568-2.013-3.996-2.813-2.734-1.76-5.738-3.04-8.746-4.08-1.529-.454-3.033-.96-4.586-1.227-.767-.147-1.539-.36-2.29-.467-.752-.093-1.5-.2-2.242-.293l-1.113-.147-1.213-.053-2.405-.12-.485-.013-.564.026-1.122.04c-.746.04-1.486.067-2.222.107-5.868.533-11.273 2.12-15.828 4.373-4.568 2.24-8.259 5.16-10.932 8.187a29.446 29.446 0 0 0-5.404 8.773l-.588 1.92c-.094.307-.185.587-.273.88l-.136.787-.261 1.4c-.038.213-.094.4-.113.627l-.036.666-.141 2.6.005-.186zm-5.995-.187l.183-2.6c-.004-.773.311-2.093.56-3.467.071-.346.144-.706.22-1.093l.347-1.08c.242-.733.5-1.52.773-2.36a35.261 35.261 0 0 1 6.66-10.467c3.223-3.52 7.53-6.8 12.72-9.32 5.187-2.52 11.263-4.253 17.797-4.8.818-.026 1.641-.066 2.47-.093l1.247-.053.626-.014.71.014 2.406.08 1.214.053 1.311.147c.877.093 1.76.2 2.646.306.884.107 1.72.334 2.59.494 1.739.293 3.44.826 5.165 1.32 3.405 1.133 6.819 2.533 9.984 4.52 1.637.906 3.11 2.093 4.643 3.2 1.426 1.253 2.908 2.466 4.176 3.933 2.604 2.827 4.911 6.08 6.411 9.787a31.677 31.677 0 0 1 2.469 11.68c0 3.72-.85 8.133-2.354 11.733-1.468 3.72-3.752 7.013-6.343 9.893-1.262 1.494-2.74 2.72-4.163 4.014-1.532 1.12-3.006 2.346-4.646 3.266-3.17 2.04-6.598 3.494-10.026 4.667-1.736.533-3.45 1.08-5.203 1.4-.872.173-1.732.4-2.603.52-.873.12-1.741.227-2.604.333l-1.293.174-1.291.053-2.563.12-.319.013-.158.014h-.292l-.595-.027-1.185-.053c-.788-.04-1.57-.08-2.348-.107-1.688-.227-3.398-.373-4.996-.68-.79-.16-1.573-.32-2.35-.493a18.836 18.836 0 0 1-2.293-.574c-1.497-.453-2.988-.84-4.383-1.453-.704-.267-1.401-.547-2.092-.813-.685-.294-1.334-.654-1.992-.96-5.242-2.574-9.557-5.96-12.748-9.56a35.518 35.518 0 0 1-6.555-10.654c-1.148-3.32-1.641-6.066-1.783-7.946l-.156-2.88.006-.187z" fill="#231F20"/>
        <path d="M9.81 96.48c0-18.147 18.206-32.867 40.666-32.867 22.46 0 40.667 14.72 40.667 32.867 0 18.16-18.208 32.867-40.667 32.867-22.46 0-40.667-14.707-40.667-32.867" fill="#FFF"/>
        <path d="M12.81 96.48l.169 2.307c.131 1.493.576 3.666 1.522 6.333 1.089 2.6 2.79 5.64 5.51 8.587 2.705 2.946 6.387 5.773 10.904 7.96.569.266 1.125.573 1.719.813.6.227 1.205.467 1.817.707 1.203.52 2.51.826 3.811 1.226.647.214 1.316.36 2 .48.678.147 1.363.28 2.052.427 1.372.253 2.727.347 4.12.547l2.344.08 1.185.053.595.013c.146.014-.116 0-.064 0h.21l.278-.013 2.25-.08 1.135-.04 1.13-.133c.758-.094 1.52-.174 2.284-.267.765-.093 1.514-.293 2.278-.427 1.538-.253 3.03-.733 4.548-1.16 2.985-1 5.976-2.213 8.703-3.933 1.426-.773 2.67-1.8 3.995-2.747 1.202-1.066 2.478-2.093 3.531-3.32 2.187-2.373 4.1-5.053 5.304-8.053 1.247-3.067 1.899-5.84 2.003-9.36-.032-6.44-2.643-12.8-7.123-17.573-1.048-1.267-2.32-2.307-3.52-3.4-1.323-.96-2.568-2.027-3.996-2.814-2.734-1.773-5.738-3.04-8.746-4.08-1.529-.466-3.033-.96-4.586-1.24-.767-.146-1.539-.36-2.29-.466-.752-.094-1.5-.187-2.242-.294l-1.113-.146-1.213-.054c-.806-.04-1.608-.08-2.405-.106l-.485-.027-.564.027-1.122.053c-.746.027-1.486.067-2.222.093-5.868.534-11.273 2.12-15.828 4.374-4.568 2.24-8.259 5.16-10.932 8.2a29.566 29.566 0 0 0-5.404 8.76 979.702 979.702 0 0 1-.861 2.8l-.136.786-.261 1.4c-.038.214-.094.4-.113.627l-.036.667-.141 2.6.005-.187zm-5.995-.187l.183-2.6c-.004-.773.311-2.08.56-3.466l.22-1.08a421.877 421.877 0 0 1 1.12-3.44 35.308 35.308 0 0 1 6.66-10.48c3.223-3.507 7.53-6.8 12.72-9.32 5.187-2.52 11.263-4.254 17.797-4.8.818-.027 1.641-.054 2.47-.094l1.247-.04.626-.026.71.013c.797.027 1.6.067 2.406.093l1.214.04 1.311.147c.877.107 1.76.213 2.646.307.884.12 1.72.333 2.59.493 1.739.293 3.44.827 5.165 1.333 3.405 1.12 6.819 2.534 9.984 4.52 1.637.894 3.11 2.08 4.643 3.187 1.426 1.267 2.908 2.48 4.176 3.933 2.604 2.84 4.911 6.094 6.411 9.787a31.734 31.734 0 0 1 2.469 11.68c0 3.72-.85 8.147-2.354 11.733-1.468 3.72-3.752 7.027-6.343 9.894-1.262 1.493-2.74 2.733-4.163 4.013-1.532 1.133-3.006 2.347-4.646 3.267-3.17 2.04-6.598 3.493-10.026 4.68-1.736.52-3.45 1.08-5.203 1.386-.872.174-1.732.4-2.603.52-.873.12-1.741.227-2.604.347l-1.293.16-1.291.067c-.86.04-1.714.08-2.563.106l-.319.014-.158.013h-.292l-.595-.027-1.185-.053c-.788-.04-1.57-.067-2.348-.107-1.688-.213-3.398-.373-4.996-.666-.79-.174-1.573-.334-2.35-.494-.78-.16-1.547-.333-2.293-.586-1.497-.454-2.988-.84-4.383-1.44-.704-.28-1.401-.56-2.092-.827-.685-.293-1.334-.64-1.992-.96-5.242-2.573-9.557-5.96-12.748-9.56a35.633 35.633 0 0 1-6.555-10.64c-1.148-3.333-1.641-6.08-1.783-7.947-.101-1.893-.156-2.893-.156-2.893l.006-.187z" fill="#231F20"/>
        <path d="M97.57 53.453c0 27.52-21.085 49.827-47.094 49.827S3.383 80.973 3.383 53.453c0-27.533 21.084-49.84 47.093-49.84 26.009 0 47.093 22.307 47.093 49.84" fill="#FFF"/>
        <path d="M94.57 53.453l-.178-3.226c-.036-.52-.041-1.12-.11-1.76l-.317-2.08-.366-2.427c-.212-.853-.438-1.747-.676-2.693-.383-1.934-1.24-3.934-2-6.16-.495-1.067-1.011-2.174-1.545-3.334-.52-1.16-1.274-2.253-1.929-3.44-2.835-4.613-6.858-9.373-12.222-13.306-.653-.52-1.395-.907-2.098-1.387-.722-.44-1.413-.947-2.178-1.347-.77-.386-1.545-.786-2.329-1.173l-1.179-.6-1.245-.48a480.1 480.1 0 0 0-2.516-.96c-.86-.293-1.753-.48-2.637-.733-1.79-.587-3.544-.734-5.337-1.054-.424-.093-.928-.133-1.453-.146l-1.547-.08-1.556-.08-.782-.04h.082-.09l-.182.013-.363.027c-1.938.106-3.915.106-5.868.506-.974.187-1.985.227-2.946.534-.971.253-1.947.52-2.928.786-.988.24-1.91.694-2.878 1.027-.962.36-1.931.707-2.838 1.227-7.495 3.533-14.144 9.533-18.759 17l-1.659 2.853c-.497.987-.93 2.013-1.404 3.013-.22.507-.49.987-.674 1.507l-.55 1.573c-.336 1.067-.807 2.08-1.042 3.174l-.806 3.253c-.272 1.08-.345 2.147-.535 3.227l-.25 1.6c-.076.546-.074 1.173-.115 1.76l-.182 3.426c.11 4.48.553 8.974 1.768 13.294.226 1.093.687 2.12 1.015 3.186l.537 1.574c.18.533.445 1.026.663 1.533.465 1.013.892 2.04 1.382 3.027l1.64 2.893c4.568 7.547 11.21 13.667 18.758 17.307.913.533 1.89.893 2.86 1.266.976.347 1.908.827 2.906 1.08.991.267 1.978.547 2.96.814.492.16.979.253 1.46.32l1.448.24c1.83.426 4.046.453 6.127.586l.392.027.196.013h.098c.065.014-.208 0-.05 0l.737-.053 1.463-.08c.97-.08 1.948-.027 2.891-.227 7.619-1.026 14.503-3.96 19.897-7.973 5.417-4 9.427-8.853 12.214-13.547.644-1.2 1.387-2.306 1.895-3.48.523-1.173 1.026-2.293 1.51-3.373.736-2.253 1.568-4.267 1.928-6.213.227-.947.441-1.854.643-2.707l.325-2.36.29-2.027c.062-.653.064-1.306.095-1.853l.142-3.413-.004.146zm5.995.134L100.383 57c-.039.573-.046 1.173-.12 1.88-.107.733-.223 1.547-.35 2.413l-.423 2.787-.752 3.027c-.442 2.16-1.38 4.426-2.249 6.92-.556 1.2-1.134 2.453-1.734 3.76-.59 1.293-1.425 2.533-2.168 3.866A53.234 53.234 0 0 1 78.761 96.72c-6.08 4.467-13.87 7.747-22.472 8.853-1.067.2-2.167.16-3.26.254l-1.648.08-.828.04h-.245l-.099-.014h-.195l-.393-.026c-2.106-.12-4.152-.107-6.539-.574l-1.74-.266a10.164 10.164 0 0 1-1.708-.36c-1.112-.294-2.229-.6-3.351-.894-1.129-.28-2.189-.786-3.293-1.186-1.1-.414-2.204-.814-3.241-1.387-8.556-4.053-16.074-10.867-21.268-19.28l-1.865-3.227c-.56-1.106-1.054-2.253-1.583-3.373-.249-.573-.544-1.133-.754-1.72l-.622-1.76c-.382-1.187-.894-2.347-1.167-3.56C1.09 63.493.535 58.467.383 53.453l.158-3.72c.037-.6.026-1.16.102-1.8l.26-1.92c.198-1.266.303-2.573.593-3.8l.874-3.666c.263-1.227.766-2.387 1.14-3.587l.61-1.773c.205-.587.497-1.147.742-1.72.52-1.134 1.007-2.294 1.56-3.4l1.846-3.254c5.15-8.506 12.659-15.426 21.268-19.6 1.043-.586 2.156-1 3.262-1.426 1.113-.414 2.183-.934 3.321-1.227 1.133-.32 2.261-.627 3.383-.933 1.114-.36 2.28-.44 3.41-.654 2.265-.48 4.551-.52 6.8-.653l.42-.027h.211l.105-.013s.405.013.279.013l.781.04 1.557.094 1.545.08c.505.013 1.024.053 1.605.16 2.233.373 4.51.64 6.514 1.293 1.024.293 2.057.533 3.05.867.978.386 1.948.76 2.91 1.133l1.434.56 1.36.693c.901.467 1.794.92 2.679 1.374.878.466 1.674 1.053 2.502 1.56.807.546 1.652 1.026 2.401 1.613 6.15 4.533 10.674 10.013 13.817 15.307.733 1.346 1.558 2.6 2.136 3.92.587 1.306 1.154 2.573 1.698 3.786.845 2.52 1.76 4.8 2.178 6.974.253 1.08.492 2.093.717 3.04l.384 2.733c.116.853.224 1.627.323 2.347.067.72.07 1.386.103 1.973l.148 3.613-.004.134z" fill="#231F20"/>
        <path d="M56.655 60.413c.339 4.4-2.799 8.24-7.008 8.56-4.21.32-7.896-2.986-8.236-7.386-.34-4.4 2.798-8.24 7.008-8.56 4.21-.334 7.896 2.986 8.236 7.386" fill="#231F20"/>
        <path d="M69.898 59.213c-.316-.346-.615-.72-.934-1.053a46.333 46.333 0 0 0-2.48-2.427c-1.71-1.56-3.512-3-5.415-4.24-1.898-1.24-3.896-2.28-5.952-2.986-1.028-.36-2.07-.654-3.113-.8-.515-.107-1.058-.147-1.551-.187l-.71-.04c-.25 0-.594.027-.886.027-.983.04-2.073.186-3.092.453-1.032.267-2.058.6-3.056 1.053-2.003.867-3.909 2.08-5.701 3.467-1.786 1.4-3.466 3-5.018 4.72a48.883 48.883 0 0 0-2.238 2.653 40.75 40.75 0 0 0-1.982 2.774l-.028-2.48a39.76 39.76 0 0 0 2.102 2.8 50.33 50.33 0 0 0 2.36 2.68c1.64 1.72 3.402 3.306 5.281 4.666 1.882 1.347 3.885 2.467 5.964 3.174a15.54 15.54 0 0 0 3.145.72c.549.08 1.01.08 1.482.106l.926-.04.234-.013h.088c.094-.013-.111 0-.086 0h.013l.098-.013.397-.04c4.253-.52 8.364-2.934 11.93-5.96 1.794-1.52 3.475-3.214 5.054-5.014a54.12 54.12 0 0 0 2.28-2.76c.307-.4.589-.826.888-1.24zm5.638 1.294a48.012 48.012 0 0 1-2.356 3.2 62.114 62.114 0 0 1-2.524 3c-1.748 1.946-3.616 3.786-5.66 5.48-2.04 1.693-4.25 3.24-6.695 4.48-2.433 1.24-5.126 2.186-7.992 2.493l-.535.053-.134.014-.22.013h-.234l-.95.027c-.776-.014-1.566-.054-2.257-.16a19.562 19.562 0 0 1-4.142-1c-2.654-.934-5.038-2.32-7.2-3.907-2.158-1.6-4.106-3.4-5.896-5.32a50.438 50.438 0 0 1-2.563-2.987 43.827 43.827 0 0 1-2.36-3.226 2.302 2.302 0 0 1-.027-2.48c.737-1.174 1.45-2.16 2.229-3.2.773-1.014 1.582-2 2.427-2.96a45.634 45.634 0 0 1 5.56-5.334c2.031-1.626 4.25-3.08 6.703-4.173 1.218-.573 2.508-1.013 3.832-1.373 1.335-.347 2.67-.56 4.115-.64.317-.014.581-.04.94-.04l1.116.026c.718.054 1.395.107 2.077.227 1.367.187 2.687.547 3.965.973 2.558.854 4.92 2.067 7.112 3.454 2.2 1.4 4.225 2.986 6.138 4.693a53.923 53.923 0 0 1 2.768 2.653c.904.934 1.733 1.814 2.622 2.907.742.907.77 2.16.15 3.093l-.009.014z" fill="#231F20"/>
        <path d="M17.857 17.96s1.174-.213 3.228-.6c1.045-.16 2.221-.48 3.803-.547.77-.053 1.59-.12 2.454-.173.862-.053 1.781-.187 2.71-.107.937.04 1.911.067 2.92.107.505.027 1.018.04 1.54.067.518.053 1.041.146 1.574.226 1.065.174 2.158.334 3.275.507 1.111.213 2.214.587 3.354.88.568.16 1.14.307 1.717.467.572.186 1.12.44 1.686.653 1.12.467 2.28.88 3.4 1.413 1.09.587 2.188 1.187 3.29 1.774.565.28 1.086.64 1.597 1l1.553 1.08 1.55 1.066L58.935 27c.925.84 1.952 1.587 2.774 2.507.85.893 1.694 1.786 2.527 2.666.784.92 1.49 1.894 2.219 2.814.754.906 1.372 1.893 1.968 2.853.587.96 1.238 1.867 1.73 2.827.958 1.933 1.982 3.706 2.609 5.48.348.88.682 1.72 1 2.506.29.814.492 1.6.72 2.334.44 1.466.84 2.733 1.014 3.826.434 2.147.682 3.387.682 3.387a2.663 2.663 0 0 1-2.087 3.133 2.66 2.66 0 0 1-3.144-2.106l-.046-.254s-.205-1.12-.564-3.053c-.133-.987-.48-2.147-.854-3.467-.194-.666-.36-1.386-.609-2.106a339.3 339.3 0 0 0-.866-2.28c-.53-1.627-1.44-3.227-2.266-5-.426-.867-1.006-1.694-1.519-2.574-.52-.88-1.06-1.773-1.729-2.6-.644-.84-1.261-1.733-1.951-2.573-.736-.8-1.48-1.613-2.231-2.44-.721-.853-1.637-1.507-2.452-2.28l-1.259-1.133-1.374-.987-1.374-.987a11.38 11.38 0 0 0-1.414-.92 636.09 636.09 0 0 1-2.92-1.64c-.995-.493-2.03-.88-3.026-1.32-.505-.2-.991-.44-1.502-.613a442.24 442.24 0 0 1-1.537-.44c-1.021-.28-2.006-.64-3.005-.853-1.008-.174-1.994-.334-2.954-.507-.48-.08-.952-.173-1.421-.227a730.284 730.284 0 0 1-4.058-.24c-.86-.093-1.65.04-2.417.054-.764.04-1.49.08-2.17.12-1.336 0-2.633.32-3.652.453-2.06.347-3.238.533-3.238.533a1.997 1.997 0 0 1-.682-3.933" fill="#231F20"/>
    </g>
</svg>
