<svg width="101" height="167" xmlns="http://www.w3.org/2000/svg">
    <title>
        san
    </title>
    <g fill="none">
        <path d="M96.156 148.827c0 8.16-6.859 14.786-15.319 14.786-8.461 0-15.32-6.626-15.32-14.786 0 8.16-6.858 13.733-15.318 13.733-8.462 0-15.32-5.573-15.32-13.733 0 8.16-6.859 14.786-15.319 14.786-8.461 0-15.32-6.626-15.32-14.786l.573-7.907c0-22.467 20.312-29.88 45.484-29.88 25.174 0 45.683 10.053 45.683 30.4l.176 7.387" fill="#FFF"/>
        <path d="M92.683 150.08l-.016-1.173-.116-8.134a23.878 23.878 0 0 0-1.122-6.973 21.515 21.515 0 0 0-3.253-6.24c-1.417-1.92-3.201-3.613-5.159-5.12-3.94-3.013-8.706-5.147-13.696-6.56-4.985-1.48-10.266-2.147-15.508-2.4-5.296-.24-10.657 0-15.869.707-2.61.36-5.183.88-7.69 1.546-2.505.68-4.947 1.507-7.243 2.56-4.606 2.094-8.59 5.134-11.18 9.027-2.556 3.92-3.67 8.667-3.604 13.6l-.004.173-.006.08-.498 7.907.009-.253c.045 2.986 1.285 5.906 3.505 8a12.271 12.271 0 0 0 3.804 2.506c.71.294 1.448.534 2.206.68.376.08.772.147 1.14.187l.52.053.656.027c3.128.107 6.278-.96 8.74-3.013a12.988 12.988 0 0 0 3.06-3.707c.817-1.427 1.289-3.04 1.518-4.733l.062-.454a1.984 1.984 0 0 1 2.232-1.706 1.999 1.999 0 0 1 1.709 2.16h-.001c.222 1.653.688 3.186 1.457 4.533.75 1.347 1.792 2.493 3.007 3.427 1.232.906 2.625 1.64 4.14 2.08.753.226 1.525.413 2.317.52.39.066.804.106 1.183.133l.564.027.654.013c3.228.013 6.41-.933 8.858-2.787 1.214-.933 2.254-2.08 3.004-3.426.769-1.334 1.232-2.88 1.454-4.52l.06-.454a1.982 1.982 0 0 1 2.231-1.693c1.056.133 1.805 1.093 1.71 2.147.206 1.693.678 3.32 1.485 4.746a12.087 12.087 0 0 0 3.06 3.734c1.25 1.013 2.645 1.813 4.146 2.306.748.24 1.512.44 2.288.547.383.053.787.093 1.159.12l.527.013.657-.013a12.74 12.74 0 0 0 8.316-3.453 11.48 11.48 0 0 0 2.601-3.654c.319-.68.568-1.386.743-2.12.075-.32.132-.653.183-.973zm6.702-8.773l.104 7.6.01.746-.044.987a19.059 19.059 0 0 1-.247 1.813 18.016 18.016 0 0 1-1.05 3.52 18.407 18.407 0 0 1-4.166 5.947c-1.75 1.68-3.861 2.96-6.108 3.827-2.256.853-4.668 1.24-7.043 1.2l-.821-.04-.948-.094c-.61-.08-1.181-.173-1.767-.293a18.685 18.685 0 0 1-3.386-1.08c-2.167-.96-4.162-2.293-5.772-4a17.355 17.355 0 0 1-3.711-5.867c-.776-2.173-1.125-4.506-.919-6.746h4.002c.222 2.173-.095 4.466-.935 6.613a14.924 14.924 0 0 1-3.95 5.587c-1.7 1.56-3.738 2.666-5.855 3.426-2.131.747-4.366 1.08-6.575 1.107l-.78-.027-.87-.053a22.319 22.319 0 0 1-1.667-.2c-1.1-.187-2.196-.44-3.259-.827-2.117-.746-4.156-1.866-5.859-3.413a14.993 14.993 0 0 1-3.952-5.6c-.841-2.133-1.161-4.427-.938-6.613h-.002 4.003c.23 2.24-.116 4.573-.88 6.76-.8 2.173-2.072 4.2-3.71 5.893-1.622 1.693-3.622 3.04-5.797 3.987a18.765 18.765 0 0 1-6.934 1.48l-.82-.014-.955-.04a19.612 19.612 0 0 1-1.788-.24c-1.179-.2-2.341-.52-3.467-.946-2.245-.854-4.352-2.134-6.114-3.8a18.27 18.27 0 0 1-4.198-5.934 17.242 17.242 0 0 1-1.465-7.146v-.067c0-.067.004-.133.008-.187l.648-7.893-.01.24c.027-2.96.375-5.973 1.209-8.92a27.655 27.655 0 0 1 3.957-8.307c1.79-2.52 4.015-4.68 6.457-6.426 2.443-1.76 5.091-3.094 7.786-4.16 5.404-2.12 10.996-3.174 16.542-3.76 5.56-.587 11.078-.734 16.623-.587 5.593.187 11.144.88 16.655 2.187 5.478 1.346 10.928 3.386 15.822 6.72 2.435 1.653 4.726 3.64 6.646 6 1.924 2.36 3.504 5.053 4.582 7.946 1.056 2.894 1.575 5.96 1.684 8.987l.024.707z" fill="#231F20"/>
        <path d="M9.476 105.947c0-14.614 18.207-26.454 40.667-26.454s40.666 11.84 40.666 26.454c0 14.613-18.206 26.466-40.666 26.466-22.46 0-40.667-11.853-40.667-26.466" fill="#FFF"/>
        <path d="M12.48 106c.015.16.073.813.175 1.92.069.653.337 1.413.528 2.333.146.454.372.92.568 1.427.1.253.204.507.312.787.148.253.298.52.454.786 1.175 2.174 3.143 4.654 6.062 6.907 2.894 2.267 6.646 4.333 11.048 5.893 1.105.387 2.258.707 3.418 1.08 1.19.28 2.402.574 3.635.867 1.255.2 2.53.4 3.824.613 1.285.107 2.537.267 3.899.36.714.014 1.436.04 2.16.054l1.092.04.548.013h-.043.065l.13-.013h.261c1.388-.067 2.803-.027 4.217-.16 1.412-.16 2.858-.2 4.28-.48.715-.12 1.434-.227 2.156-.347.72-.12 1.426-.32 2.144-.48 2.883-.613 5.696-1.613 8.459-2.76a40.096 40.096 0 0 0 7.724-4.52c2.316-1.853 4.368-4.013 5.843-6.453.761-1.187 1.304-2.547 1.718-3.8.126-.627.327-1.134.452-1.854l.21-2.493c-.02.44-.01.08-.015.16l-.005-.053-.011-.134-.021-.253-.039-.52-.065-1.04c-.102-.68-.304-1.347-.436-2.027-.415-1.333-.928-2.653-1.68-3.88-1.45-2.48-3.487-4.693-5.796-6.586a40.374 40.374 0 0 0-7.727-4.667c-2.77-1.2-5.597-2.24-8.496-2.893-.724-.174-1.433-.387-2.16-.52-.727-.12-1.45-.24-2.17-.374-1.45-.293-2.845-.36-4.245-.533-1.39-.16-2.957-.147-4.4-.227-1.272-.013-2.757.094-4.096.12-5.47.347-10.569 1.44-15.005 3.067-4.445 1.6-8.212 3.76-11.088 6.107-2.907 2.333-4.848 4.88-5.988 7.106-.15.28-.299.547-.441.8-.103.28-.203.547-.299.8-.185.52-.407 1-.539 1.44-.084.414-.17.8-.256 1.147-.07.373-.209.587-.209 1.04-.079 1.133-.13 1.867-.152 2.2zm-5.995-.28l.206-2.387c-.002-.346.177-.96.29-1.52l.46-1.906c.207-.654.49-1.267.764-1.974.142-.346.288-.706.439-1.066.19-.347.388-.694.59-1.054 1.57-2.92 4.111-6.066 7.597-8.76 3.47-2.72 7.804-5.08 12.766-6.853 4.964-1.773 10.568-2.933 16.532-3.253 1.522-.04 2.938-.12 4.6-.107 1.491.067 2.907.027 4.507.173 1.584.174 3.236.24 4.8.534.792.133 1.588.253 2.388.386.799.134 1.588.36 2.388.534 3.204.68 6.377 1.8 9.516 3.12a46.416 46.416 0 0 1 8.984 5.28C88.82 91.28 93.779 97.68 93.8 106.187l-.177 2.493c-.126.92-.398 2.013-.623 3-.583 1.92-1.297 3.667-2.283 5.293-1.917 3.267-4.474 5.987-7.25 8.254a46.77 46.77 0 0 1-8.988 5.426c-3.144 1.374-6.331 2.534-9.552 3.267-.804.187-1.599.413-2.403.56-.805.133-1.607.28-2.404.413-1.59.32-3.192.4-4.765.6-1.575.16-3.142.147-4.687.227l-.29.013-.145.014h-.25l-.548-.027-1.091-.04-2.16-.08c-6.199-.387-11.725-1.587-16.761-3.413-5.006-1.8-9.355-4.267-12.807-7.067-3.475-2.787-5.988-5.987-7.523-8.947-.198-.373-.39-.733-.577-1.08-.147-.36-.288-.72-.425-1.08-.264-.706-.543-1.346-.734-1.973-.284-1.293-.596-2.387-.689-3.293l-.192-2.8a.89.89 0 0 1 .001-.134l.008-.093z" fill="#231F20"/>
        <path d="M9.476 78.373c0-14.613 18.207-26.466 40.667-26.466S90.809 63.76 90.809 78.373c0 14.614-18.206 26.454-40.666 26.454-22.46 0-40.667-11.84-40.667-26.454" fill="#FFF"/>
        <path d="M12.476 78.373s.063.68.179 1.974c.069.64.337 1.413.528 2.333.146.44.372.907.568 1.413.1.254.204.52.312.787.148.253.298.52.454.787 1.175 2.186 3.143 4.666 6.062 6.92 2.894 2.253 6.646 4.32 11.048 5.893 1.105.373 2.258.707 3.418 1.067 1.19.293 2.402.573 3.635.866 1.255.2 2.53.414 3.824.614 1.285.106 2.537.266 3.899.36.714.026 1.436.04 2.16.066l1.092.027.548.013h-.043.195l.261-.013c1.388-.053 2.803-.013 4.217-.16 1.412-.16 2.858-.2 4.28-.48.715-.107 1.434-.227 2.156-.347.72-.12 1.426-.306 2.144-.466 2.883-.614 5.696-1.614 8.459-2.76a40.795 40.795 0 0 0 7.724-4.52c2.316-1.854 4.368-4.014 5.843-6.454.761-1.2 1.304-2.546 1.718-3.8.126-.64.327-1.146.452-1.866l.21-2.494c-.02.454-.01.094-.015.174l-.005-.067-.011-.133-.021-.254-.039-.52-.065-1.026c-.102-.694-.304-1.36-.436-2.04-.415-1.334-.928-2.654-1.68-3.88-1.45-2.48-3.487-4.68-5.796-6.587a41.003 41.003 0 0 0-7.727-4.653c-2.77-1.2-5.597-2.254-8.496-2.907-.724-.173-1.433-.373-2.16-.507-.727-.133-1.45-.253-2.17-.373-1.45-.307-2.845-.36-4.245-.547-1.39-.146-2.957-.133-4.4-.213-1.272-.027-2.757.08-4.096.107-5.47.346-10.569 1.453-15.005 3.066-4.445 1.614-8.212 3.774-11.088 6.12-2.907 2.334-4.848 4.88-5.988 7.107-.15.267-.299.533-.441.8a38.92 38.92 0 0 0-.299.8c-.185.507-.407 1-.539 1.427-.084.426-.17.8-.256 1.146-.07.387-.209.6-.209 1.04l-.165 2.387.009-.227zm-5.99-.24l.205-2.386c-.002-.334.177-.96.29-1.52.142-.574.295-1.214.46-1.907.207-.64.49-1.267.764-1.973.142-.347.288-.694.439-1.067.19-.333.388-.693.59-1.053 1.57-2.92 4.111-6.054 7.597-8.747 3.47-2.72 7.804-5.093 12.766-6.867 4.964-1.773 10.568-2.92 16.532-3.253 1.522-.027 2.938-.12 4.6-.107 1.491.067 2.907.027 4.507.174 1.584.173 3.236.24 4.8.546.792.12 1.588.254 2.388.387.799.133 1.588.347 2.388.52 3.204.693 6.377 1.8 9.516 3.12a46.486 46.486 0 0 1 8.984 5.293c5.508 4.4 10.467 10.8 10.488 19.307l-.177 2.493c-.126.92-.398 2.014-.623 3.014-.583 1.906-1.297 3.653-2.283 5.293-1.917 3.267-4.474 5.973-7.25 8.253-2.835 2.187-5.866 3.974-8.988 5.427-3.144 1.36-6.331 2.52-9.552 3.253-.804.187-1.599.414-2.403.56-.805.147-1.607.28-2.404.427-1.59.32-3.192.4-4.765.587-1.575.173-3.142.16-4.687.24l-.29.013h-.394l-.548-.027-1.091-.04c-.725-.013-1.445-.04-2.16-.066-6.199-.387-11.725-1.587-16.761-3.414-5.006-1.813-9.355-4.266-12.807-7.08-3.475-2.773-5.988-5.973-7.523-8.946-.198-.36-.39-.72-.577-1.067l-.425-1.08c-.264-.707-.543-1.36-.734-1.987-.284-1.293-.596-2.373-.689-3.28l-.192-2.8.01-.24z" fill="#231F20"/>
        <path d="M97.236 43.733c0 22.147-21.084 40.107-47.093 40.107-26.01 0-47.094-17.96-47.094-40.107 0-22.16 21.084-40.12 47.094-40.12 26.009 0 47.093 17.96 47.093 40.12" fill="#FFF"/>
        <path d="M94.236 43.733l-.19-2.813c.003-.92-.289-2.027-.513-3.333-.156-1.32-.742-2.747-1.208-4.4-1.218-3.187-3.13-6.96-6.256-10.64-3.105-3.68-7.386-7.24-12.706-10.027-.668-.333-1.342-.693-2.023-1.04-.7-.307-1.427-.587-2.15-.88-.73-.28-1.442-.627-2.205-.867-.762-.226-1.532-.466-2.308-.706-1.532-.547-3.182-.774-4.814-1.174-1.64-.346-3.26-.44-4.926-.693-.893-.067-1.838-.08-2.765-.133l-1.403-.054-.705-.026h.057-.084l-.165.013-.333.013c-.888.027-1.782.067-2.68.107-.45.013-.902.013-1.352.053l-1.348.174c-.902.106-1.808.226-2.72.333-.904.16-1.799.373-2.707.56-1.833.307-3.59.96-5.4 1.493-7.079 2.48-13.937 6.667-18.99 12.64-2.482 2.987-4.689 6.28-6.054 9.947-.423.893-.603 1.853-.924 2.787-.137.453-.304.933-.421 1.386l-.25 1.374L6.43 39.2c-.041.227-.101.44-.128.693l-.052.8-.205 3.214c.012-.32.007-.04.01-.08l.006.08.01.186.022.374.041.733.078 1.467c-.011.973.274 1.933.408 2.893l.248 1.453c.113.48.274.934.408 1.414.31.92.482 1.893.897 2.786 1.332 3.694 3.512 7.04 5.981 10.067 5.022 6.067 11.892 10.36 19.018 12.947 1.821.546 3.59 1.226 5.44 1.56.913.2 1.825.44 2.726.6l2.675.36 1.328.186c.461.04.953.054 1.427.08.956.04 1.905.094 2.849.134l.59.026.67-.026 1.336-.067c.887-.053 1.77-.067 2.644-.133 6.981-.68 13.393-2.707 18.748-5.56 5.372-2.827 9.659-6.494 12.73-10.254 3.1-3.76 4.966-7.586 6.142-10.813.444-1.653 1.016-3.133 1.137-4.373.198-1.28.474-2.24.467-3.32l.161-3.08-.005.186zm5.995.174l-.203 3.08c0 .933-.316 2.386-.599 3.986-.222 1.68-.872 3.334-1.446 5.294-1.426 3.786-3.69 8.213-7.308 12.493-3.596 4.253-8.496 8.333-14.511 11.48-6.007 3.147-13.133 5.347-20.833 6.053-.963.067-1.935.08-2.911.134l-1.47.053-.74.027-.825-.027c-.944-.027-1.894-.067-2.849-.107-.481-.026-.95-.026-1.445-.066l-1.542-.187a261.04 261.04 0 0 1-3.109-.387c-1.023-.173-2.019-.413-3.036-.626-2.048-.36-4.028-1.08-6.055-1.68C23.392 80.627 15.62 75.92 9.763 69c-2.883-3.453-5.446-7.32-7.071-11.667-.487-1.053-.727-2.2-1.097-3.293-.163-.547-.352-1.107-.492-1.667l-.319-1.706c-.179-1.147-.499-2.28-.516-3.454l-.112-1.746-.055-.867-.026-.44-.012-.213-.007-.107c0-.12-.01.107-.001-.293l.174-3.2.044-.814c.026-.266.09-.586.134-.88l.302-1.786.316-1.8c.139-.574.32-1.12.479-1.68.361-1.094.593-2.254 1.07-3.307 1.594-4.373 4.131-8.28 6.998-11.787 5.827-7 13.612-11.826 21.616-14.733 2.039-.627 4.032-1.36 6.095-1.747 1.022-.213 2.036-.48 3.056-.653 1.026-.147 2.048-.28 3.064-.413l1.52-.214c.508-.04 1.016-.053 1.521-.08C47.456.4 48.463.36 49.463.307l.374-.014.187-.013h.328l.704.04 1.403.067c.937.04 1.848.066 2.79.133 1.976.28 3.998.44 5.855.853 1.848.44 3.703.734 5.443 1.347.878.28 1.749.56 2.613.827.861.28 1.676.666 2.503.986.821.347 1.642.667 2.437 1.027.776.413 1.545.8 2.305 1.2 6.068 3.2 10.972 7.373 14.535 11.72 3.592 4.347 5.81 8.84 7.195 12.667.552 1.96 1.188 3.666 1.374 5.253.255 1.573.556 2.88.554 3.987l.173 3.346-.005.174z" fill="#231F20"/>
        <path d="M56.976 48.133c.344 4.24-2.843 7.934-7.119 8.24-4.274.32-8.02-2.866-8.365-7.106-.344-4.24 2.843-7.934 7.119-8.254 4.274-.306 8.021 2.88 8.365 7.12" fill="#231F20"/>
        <path d="M70.407 47c-.298-.32-.579-.653-.878-.947-.82-.813-1.668-1.6-2.542-2.36-1.752-1.493-3.592-2.893-5.528-4.08-1.931-1.186-3.956-2.173-6.035-2.853-1.039-.333-2.09-.613-3.144-.773-.523-.094-1.065-.12-1.57-.174l-.723-.026c-.232-.027-.588.013-.876.013a15.073 15.073 0 0 0-3.134.427c-1.045.226-2.081.56-3.093.973-2.032.813-3.975 1.973-5.804 3.307a40.064 40.064 0 0 0-5.15 4.546c-.8.84-1.571 1.707-2.309 2.6-.722.88-1.464 1.84-2.046 2.707l-.03-2.587c.62.88 1.403 1.854 2.164 2.734a41.214 41.214 0 0 0 2.427 2.6 37.854 37.854 0 0 0 5.399 4.493c1.917 1.293 3.948 2.36 6.048 3.013a14.77 14.77 0 0 0 3.176.68c.552.08 1.02.08 1.502.107l.922-.04h.234l.116-.013c-.037 0 .106 0-.08.013l.012-.013h.076l.4-.054c4.288-.48 8.451-2.76 12.096-5.666 1.836-1.454 3.558-3.094 5.183-4.84a48.95 48.95 0 0 0 2.348-2.694c.29-.346.555-.733.839-1.093zm5.676 1.333a51.46 51.46 0 0 1-2.438 3.134c-.836 1-1.701 1.973-2.6 2.92-1.802 1.893-3.717 3.68-5.808 5.306-2.082 1.627-4.332 3.094-6.796 4.267-2.452 1.173-5.144 2.04-7.977 2.32l-.53.053-.226.014h-.117l-.234.013-.948.027c-.764-.027-1.542-.054-2.226-.16a20.28 20.28 0 0 1-4.118-.934c-2.652-.866-5.06-2.186-7.264-3.693a43.257 43.257 0 0 1-6.033-5.133 50.887 50.887 0 0 1-2.641-2.907c-.851-1.013-1.631-1.987-2.442-3.16a2.299 2.299 0 0 1-.029-2.573c.768-1.174 1.507-2.134 2.315-3.147.8-1 1.636-1.96 2.509-2.893 1.744-1.854 3.641-3.6 5.716-5.16 4.123-3.094 9.127-5.547 14.725-5.827.32-.013.572-.04.948-.027l1.1.027c.706.04 1.382.08 2.058.2 1.356.187 2.67.52 3.949.907 2.557.813 4.94 1.96 7.164 3.293 2.232 1.333 4.299 2.867 6.256 4.507.977.826 1.923 1.68 2.839 2.573.928.907 1.781 1.773 2.7 2.84a2.6 2.6 0 0 1 .157 3.2l-.01.013z" fill="#231F20"/>
        <path d="M14.212 15.547s1.15-.36 3.159-1.014c.985-.333 2.314-.653 3.769-1.066 1.473-.4 3.132-.747 4.96-1.12.921-.16 1.88-.32 2.872-.494 1.003-.12 2.04-.24 3.107-.373 1.069-.107 2.18-.147 3.309-.213 1.133-.04 2.299-.027 3.48-.027 2.365.12 4.825.293 7.29.827a35.507 35.507 0 0 1 7.322 2.2 34.07 34.07 0 0 1 6.753 3.68 36.58 36.58 0 0 1 5.65 4.893c3.31 3.547 5.672 7.427 7.268 10.92a46.439 46.439 0 0 1 1.9 4.88c.484 1.493.82 2.813 1.078 3.907.231 1.093.41 1.96.494 2.56l.148.92a2.665 2.665 0 1 1-5.266.84l-.004-.027-.017-.12-.116-.8c-.063-.52-.21-1.28-.393-2.253a43.432 43.432 0 0 0-.894-3.454c-.405-1.32-.928-2.8-1.606-4.36-1.358-3.106-3.38-6.56-6.2-9.68a32.334 32.334 0 0 0-4.816-4.32 28.852 28.852 0 0 0-5.802-3.293 30.382 30.382 0 0 0-6.414-2.04c-2.18-.52-4.399-.707-6.546-.867-1.08-.013-2.142-.04-3.185-.026-1.043.053-2.065.066-3.06.146-.996.107-1.964.2-2.9.294-.933.146-1.836.28-2.703.413-1.721.32-3.318.64-4.692.987-1.38.36-2.556.613-3.576.933-2.02.627-3.174.973-3.174.973a2.005 2.005 0 0 1-2.496-1.333 2.014 2.014 0 0 1 1.301-2.493" fill="#231F20"/>
    </g>
</svg>
