<svg width="101" height="167" xmlns="http://www.w3.org/2000/svg">
    <title>
        sen
    </title>
    <g fill="none">
        <path d="M96.493 148.827c0 8.16-6.866 14.786-15.32 14.786-8.466 0-15.32-6.626-15.32-14.786 0 8.16-6.866 13.733-15.32 13.733-8.466 0-15.32-5.573-15.32-13.733 0 8.16-6.853 14.786-15.32 14.786-8.461 0-15.32-6.626-15.32-14.786l.574-7.907c0-22.467 20.306-29.88 45.48-29.88 25.173 0 45.68 10.053 45.68 30.4l.186 7.387" fill="#FFF"/>
        <path d="M93.013 150.08L93 148.907l-.12-8.134a23.921 23.921 0 0 0-1.12-6.973c-.72-2.24-1.827-4.333-3.253-6.24-1.414-1.92-3.2-3.613-5.16-5.12-3.934-3.013-8.707-5.147-13.694-6.56-4.986-1.48-10.266-2.147-15.506-2.4-5.294-.24-10.654 0-15.867.707a63.87 63.87 0 0 0-7.693 1.546c-2.507.68-4.947 1.507-7.24 2.56-4.608 2.094-8.592 5.134-11.183 9.027-2.556 3.92-3.67 8.667-3.604 13.6l-.004.173-.005.08-.498 7.907.008-.253c.046 2.986 1.286 5.906 3.506 8a12.271 12.271 0 0 0 3.804 2.506c.709.294 1.448.534 2.205.68.376.08.772.147 1.14.187l.52.053.657.027c3.12.107 6.28-.96 8.734-3.013 1.226-1.027 2.293-2.28 3.066-3.707.814-1.427 1.294-3.04 1.52-4.733l.054-.454a1.987 1.987 0 0 1 2.24-1.706 2.002 2.002 0 0 1 1.706 2.16c.227 1.653.68 3.186 1.454 4.533.76 1.347 1.8 2.493 3.013 3.427 1.227.906 2.627 1.64 4.133 2.08.76.226 1.534.413 2.32.52.387.066.8.106 1.187.133l.56.027.653.013c3.227.013 6.414-.933 8.854-2.787 1.226-.933 2.266-2.08 3.013-3.426.76-1.334 1.227-2.88 1.453-4.52l.054-.454a1.987 1.987 0 0 1 2.24-1.693c1.053.133 1.8 1.093 1.706 2.147.2 1.693.68 3.32 1.48 4.746a12.088 12.088 0 0 0 3.067 3.734c1.24 1.013 2.64 1.813 4.147 2.306.746.24 1.506.44 2.28.547.386.053.786.093 1.16.12l.533.013.653-.013a12.746 12.746 0 0 0 8.32-3.453 11.518 11.518 0 0 0 2.6-3.654c.32-.68.56-1.386.734-2.12.08-.32.133-.653.186-.973zm6.707-8.773l.107 7.6v.746l-.04.987a20.428 20.428 0 0 1-.24 1.813 18.116 18.116 0 0 1-1.054 3.52 18.4 18.4 0 0 1-4.173 5.947c-1.747 1.68-3.853 2.96-6.107 3.827-2.253.853-4.666 1.24-7.04 1.2l-.813-.04-.96-.094c-.6-.08-1.173-.173-1.76-.293a18.552 18.552 0 0 1-3.387-1.08c-2.173-.96-4.16-2.293-5.773-4-1.613-1.693-2.893-3.693-3.707-5.867-.773-2.173-1.133-4.506-.92-6.746h4c.227 2.173-.093 4.466-.933 6.613-.853 2.133-2.24 4.067-3.947 5.587-1.706 1.56-3.746 2.666-5.866 3.426-2.12.747-4.36 1.08-6.574 1.107l-.773-.027-.867-.053a22.262 22.262 0 0 1-1.68-.2c-1.093-.187-2.186-.44-3.253-.827-2.12-.746-4.16-1.866-5.853-3.413a14.968 14.968 0 0 1-3.96-5.6c-.84-2.133-1.16-4.427-.934-6.613h4c.227 2.24-.12 4.573-.88 6.76-.8 2.173-2.066 4.2-3.706 5.893-1.627 1.693-3.627 3.04-5.8 3.987a18.793 18.793 0 0 1-6.934 1.48l-.821-.014-.955-.04a19.612 19.612 0 0 1-1.788-.24c-1.178-.2-2.341-.52-3.466-.946-2.246-.854-4.352-2.134-6.115-3.8a18.27 18.27 0 0 1-4.197-5.934 17.242 17.242 0 0 1-1.466-7.146v-.067c0-.067.004-.133.008-.187l.648-7.893-.009.24c.027-2.96.375-5.973 1.208-8.92a27.655 27.655 0 0 1 3.957-8.307c1.79-2.52 4.015-4.68 6.458-6.426 2.442-1.76 5.09-3.094 7.778-4.16 5.414-2.12 11-3.174 16.547-3.76 5.56-.587 11.08-.734 16.627-.587 5.586.187 11.146.88 16.653 2.187 5.48 1.346 10.933 3.386 15.827 6.72 2.426 1.653 4.72 3.64 6.64 6s3.506 5.053 4.586 7.946c1.054 2.894 1.574 5.96 1.68 8.987l.027.707z" fill="#231F20"/>
        <path d="M9.81 105.947c0-14.614 18.203-26.454 40.67-26.454 22.453 0 40.667 11.84 40.667 26.454 0 14.613-18.214 26.466-40.667 26.466-22.467 0-40.67-11.853-40.67-26.466" fill="#FFF"/>
        <path d="M12.813 106l.175 1.92c.07.653.337 1.413.528 2.333.147.454.372.92.568 1.427.1.253.205.507.312.787.148.253.299.52.455.786 1.174 2.174 3.142 4.654 6.056 6.907 2.893 2.267 6.653 4.333 11.053 5.893 1.107.387 2.253.707 3.413 1.08 1.2.28 2.414.574 3.64.867 1.254.2 2.534.4 3.827.613 1.28.107 2.533.267 3.893.36.72.014 1.44.04 2.16.054l1.094.04.546.013h-.04.067l.133-.013h.254c1.386-.067 2.8-.027 4.226-.16 1.4-.16 2.854-.2 4.267-.48.72-.12 1.44-.227 2.16-.347.72-.12 1.427-.32 2.147-.48 2.88-.613 5.693-1.613 8.453-2.76a40.048 40.048 0 0 0 7.733-4.52c2.307-1.853 4.36-4.013 5.84-6.453.76-1.187 1.307-2.547 1.72-3.8.12-.627.32-1.134.454-1.854l.2-2.493c-.014.44 0 .08-.014.16v-.053l-.013-.134-.013-.253-.04-.52-.067-1.04c-.107-.68-.307-1.347-.44-2.027-.413-1.333-.933-2.653-1.68-3.88-1.453-2.48-3.493-4.693-5.8-6.586-2.373-1.84-4.987-3.4-7.72-4.667-2.773-1.2-5.6-2.24-8.493-2.893-.734-.174-1.44-.387-2.16-.52-.734-.12-1.454-.24-2.174-.374-1.453-.293-2.853-.36-4.253-.533-1.387-.16-2.947-.147-4.387-.227-1.28-.013-2.76.094-4.106.12-5.467.347-10.56 1.44-15 3.067-4.44 1.6-8.214 3.76-11.094 6.107-2.902 2.333-4.844 4.88-5.984 7.106-.15.28-.298.547-.441.8-.103.28-.203.547-.299.8-.185.52-.406 1-.538 1.44-.084.414-.171.8-.256 1.147-.071.373-.21.587-.21 1.04l-.152 2.2zm-5.994-.28l.205-2.387c-.001-.346.177-.96.29-1.52l.46-1.906c.207-.654.49-1.267.765-1.974.141-.346.288-.706.438-1.066.191-.347.388-.694.591-1.054 1.57-2.92 4.11-6.066 7.596-8.76 3.476-2.72 7.81-5.08 12.77-6.853 4.96-1.773 10.56-2.933 16.533-3.253 1.52-.04 2.933-.12 4.6-.107 1.493.067 2.906.027 4.506.173 1.587.174 3.227.24 4.8.534.787.133 1.587.253 2.387.386.8.134 1.587.36 2.387.534 3.2.68 6.373 1.8 9.52 3.12a46.539 46.539 0 0 1 8.973 5.28c5.507 4.413 10.467 10.813 10.493 19.32l-.173 2.493c-.133.92-.4 2.013-.627 3-.586 1.92-1.293 3.667-2.28 5.293-1.92 3.267-4.48 5.987-7.253 8.254a47.005 47.005 0 0 1-8.987 5.426c-3.146 1.374-6.333 2.534-9.56 3.267-.8.187-1.586.413-2.4.56-.8.133-1.6.28-2.4.413-1.586.32-3.186.4-4.76.6-1.586.16-3.146.147-4.693.227l-.293.013-.134.014h-.253l-.547-.027-1.093-.04-2.16-.08c-6.2-.387-11.733-1.587-16.76-3.413-5.013-1.8-9.36-4.267-12.81-7.067-3.475-2.787-5.989-5.987-7.523-8.947-.198-.373-.391-.733-.578-1.08-.146-.36-.288-.72-.425-1.08-.264-.706-.543-1.346-.733-1.973-.284-1.293-.596-2.387-.69-3.293l-.192-2.8a.89.89 0 0 1 .002-.134l.008-.093z" fill="#231F20"/>
        <path d="M9.81 78.373c0-14.613 18.203-26.466 40.67-26.466 22.453 0 40.667 11.853 40.667 26.466 0 14.614-18.214 26.454-40.667 26.454-22.467 0-40.67-11.84-40.67-26.454" fill="#FFF"/>
        <path d="M12.813 78.413l.175 1.934c.07.64.337 1.413.528 2.333.147.44.372.907.568 1.413.1.254.205.52.312.787.148.253.299.52.455.787 1.174 2.186 3.142 4.666 6.056 6.92 2.893 2.253 6.653 4.32 11.053 5.893 1.107.373 2.253.707 3.413 1.067 1.2.293 2.414.573 3.64.866 1.254.2 2.534.414 3.827.614 1.28.106 2.533.266 3.893.36.72.026 1.44.04 2.16.066l1.094.027.546.013h-.04.2l.254-.013c1.386-.053 2.8-.013 4.226-.16 1.4-.16 2.854-.2 4.267-.48.72-.107 1.44-.227 2.16-.347.72-.12 1.427-.306 2.147-.466 2.88-.614 5.693-1.614 8.453-2.76 2.733-1.227 5.347-2.734 7.733-4.52 2.307-1.854 4.36-4.014 5.84-6.454.76-1.2 1.307-2.546 1.72-3.8.12-.64.32-1.146.454-1.866l.106-1.24.04-.627.027-.307.013-.16.014-.08c0 .08.013-.28 0 .16 0-2.773-.814-5.506-2.267-7.986-1.453-2.48-3.493-4.68-5.8-6.587a40.825 40.825 0 0 0-7.72-4.653c-2.773-1.2-5.6-2.254-8.493-2.907-.734-.173-1.44-.373-2.16-.507-.734-.133-1.454-.253-2.174-.373-1.453-.307-2.853-.36-4.253-.547-1.387-.146-2.947-.133-4.387-.213-1.28-.027-2.76.08-4.106.107-5.467.346-10.56 1.453-15 3.066-4.44 1.614-8.214 3.774-11.094 6.12-2.902 2.334-4.844 4.88-5.984 7.107-.15.267-.298.533-.441.8a38.92 38.92 0 0 0-.299.8c-.185.507-.406 1-.538 1.427-.084.426-.171.8-.256 1.146-.071.387-.21.6-.21 1.04l-.152 2.2zm-5.994-.28s.072-.826.205-2.386c-.001-.334.177-.96.29-1.52.142-.574.295-1.214.46-1.907.207-.64.49-1.267.765-1.973.141-.347.288-.694.438-1.067.191-.333.388-.693.591-1.053 1.57-2.92 4.11-6.054 7.596-8.747 3.476-2.72 7.81-5.093 12.77-6.867 4.96-1.773 10.56-2.92 16.533-3.253 1.52-.027 2.933-.12 4.6-.107 1.493.067 2.906.027 4.506.174 1.587.173 3.227.24 4.8.546.787.12 1.587.254 2.387.387s1.587.347 2.387.52c3.2.693 6.373 1.8 9.52 3.12a46.609 46.609 0 0 1 8.973 5.293c2.787 2.214 5.36 4.88 7.307 8.107 1.946 3.213 3.173 7.053 3.2 10.973l-.187 2.72c-.133.92-.4 2.014-.627 3.014-.586 1.906-1.293 3.653-2.28 5.293-1.92 3.267-4.48 5.973-7.253 8.253-2.84 2.187-5.867 3.974-8.987 5.427-3.146 1.36-6.333 2.52-9.56 3.253-.8.187-1.586.414-2.4.56-.8.147-1.6.28-2.4.427-1.586.32-3.186.4-4.76.587-1.586.173-3.146.16-4.693.24l-.293.013h-.387l-.547-.027-1.093-.04a110.01 110.01 0 0 1-2.16-.066c-6.2-.387-11.733-1.587-16.76-3.414-5.013-1.813-9.36-4.266-12.81-7.08-3.475-2.773-5.989-5.973-7.523-8.946-.198-.36-.391-.72-.578-1.067l-.425-1.08c-.264-.707-.543-1.36-.733-1.987-.284-1.293-.596-2.373-.69-3.28l-.192-2.8a1.077 1.077 0 0 1 .002-.146l.008-.094z" fill="#231F20"/>
        <path d="M97.573 43.733c0 22.147-21.093 40.107-47.093 40.107-26.013 0-47.097-17.96-47.097-40.107 0-22.16 21.084-40.12 47.097-40.12 26 0 47.093 17.96 47.093 40.12" fill="#FFF"/>
        <path d="M94.573 43.733s-.066-.986-.2-2.813c.014-.92-.28-2.027-.506-3.333-.16-1.32-.747-2.747-1.214-4.4-1.213-3.187-3.12-6.96-6.253-10.64-3.107-3.68-7.387-7.24-12.707-10.027-.666-.333-1.333-.693-2.013-1.04-.707-.307-1.44-.587-2.16-.88-.72-.28-1.44-.627-2.2-.867-.76-.226-1.533-.466-2.307-.706-1.533-.547-3.186-.774-4.813-1.174-1.64-.346-3.267-.44-4.933-.693-.894-.067-1.84-.08-2.76-.133l-1.4-.054-.707-.026h.053-.08l-.173.013-.333.013c-.88.027-1.774.067-2.68.107-.44.013-.894.013-1.347.053l-1.347.174c-.906.106-1.813.226-2.72.333-.906.16-1.8.373-2.706.56-1.84.307-3.587.96-5.4 1.493-7.08 2.48-13.939 6.667-18.991 12.64-2.483 2.987-4.69 6.28-6.055 9.947-.422.893-.602 1.853-.924 2.787-.137.453-.304.933-.42 1.386l-.25 1.374-.264 1.373c-.042.227-.102.44-.128.693l-.051.8-.207 3.214c.012-.32.007-.04.011-.08l.005.08.011.186.021.374.042.733.077 1.467c-.01.973.275 1.933.408 2.893l.248 1.453c.113.48.275.934.408 1.414.31.92.483 1.893.897 2.786 1.332 3.694 3.512 7.04 5.982 10.067 5.021 6.067 11.886 10.36 19.02 12.947 1.813.546 3.586 1.226 5.44 1.56.906.2 1.826.44 2.72.6l2.68.36 1.32.186c.466.04.96.054 1.44.08.946.04 1.893.094 2.84.134l.586.026.68-.026 1.334-.067c.88-.053 1.773-.067 2.64-.133 6.986-.68 13.4-2.707 18.746-5.56 5.374-2.827 9.667-6.494 12.734-10.254 3.093-3.76 4.96-7.586 6.146-10.813.44-1.653 1.014-3.133 1.134-4.373.2-1.28.466-2.24.466-3.32.107-2 .16-3.08.16-3.08v.186zm5.987.174s-.067 1.066-.2 3.08c0 .933-.32 2.386-.6 3.986-.213 1.68-.867 3.334-1.44 5.294a42.658 42.658 0 0 1-7.307 12.493c-3.6 4.253-8.506 8.333-14.52 11.48-6 3.147-13.133 5.347-20.826 6.053-.96.067-1.934.08-2.92.134l-1.467.053-.733.027-.827-.027c-.947-.027-1.893-.067-2.853-.107-.48-.026-.947-.026-1.44-.066l-1.547-.187c-1.027-.12-2.067-.253-3.107-.387-1.026-.173-2.013-.413-3.04-.626-2.04-.36-4.026-1.08-6.053-1.68-7.96-2.8-15.728-7.507-21.584-14.427-2.883-3.453-5.445-7.32-7.07-11.667-.487-1.053-.727-2.2-1.098-3.293-.163-.547-.352-1.107-.492-1.667l-.319-1.706C.94 49.52.62 48.387.601 47.213L.49 45.467.435 44.6l-.026-.44-.013-.213-.007-.107c0-.12-.009.107-.001-.293l.175-3.2.044-.814c.025-.266.089-.586.133-.88l.303-1.786.316-1.8c.138-.574.32-1.12.48-1.68.36-1.094.592-2.254 1.069-3.307 1.593-4.373 4.13-8.28 6.997-11.787 5.827-7 13.615-11.826 21.615-14.733 2.04-.627 4.027-1.36 6.093-1.747 1.027-.213 2.04-.48 3.054-.653 1.026-.147 2.053-.28 3.066-.413l1.52-.214c.507-.04 1.014-.053 1.52-.08C47.787.4 48.8.36 49.8.307l.373-.014.187-.013h.32l.707.04 1.4.067c.946.04 1.853.066 2.8.133 1.973.28 3.986.44 5.853.853 1.84.44 3.693.734 5.44 1.347.88.28 1.747.56 2.613.827.867.28 1.68.666 2.507.986.813.347 1.64.667 2.44 1.027.773.413 1.533.8 2.293 1.2 6.067 3.2 10.974 7.373 14.534 11.72 3.6 4.347 5.813 8.84 7.2 12.667.546 1.96 1.186 3.666 1.373 5.253.253 1.573.56 2.88.56 3.987.107 2.173.173 3.346.173 3.346l-.013.174z" fill="#231F20"/>
        <path d="M53.253 20.547s.187 2.76.32 6.906c.04 2.08.147 4.494.16 7.08.027 2.6.054 5.36.08 8.12-.026 2.76-.053 5.534-.08 8.12-.026 2.587-.12 5.014-.173 7.08-.04 2.08-.16 3.8-.2 5.014-.067 1.213-.107 1.893-.107 1.893a2.787 2.787 0 0 1-2.933 2.627 2.793 2.793 0 0 1-2.627-2.627s-.04-.68-.106-1.893c-.04-1.214-.147-2.934-.2-5.014-.04-2.066-.147-4.493-.174-7.08-.013-2.586-.04-5.36-.066-8.12.026-2.76.04-5.52.066-8.12.014-2.586.12-5 .174-7.08.133-4.146.306-6.906.306-6.906a2.797 2.797 0 0 1 2.96-2.6 2.796 2.796 0 0 1 2.6 2.6" fill="#231F20"/>
        <path d="M28.36 39.88s.693-.04 1.907-.107c1.213-.053 2.933-.16 5.013-.213 2.067-.04 4.48-.147 7.08-.16 2.587-.027 5.347-.053 8.12-.08 2.76.027 5.52.053 8.12.08 2.587.013 5 .12 7.08.16 4.147.133 6.907.32 6.907.32 1.533.093 2.693 1.427 2.6 2.96a2.773 2.773 0 0 1-2.6 2.587s-2.76.186-6.907.32c-2.08.04-4.493.146-7.08.173-2.6.013-5.36.04-8.12.067-2.773-.027-5.533-.054-8.12-.067-2.6-.027-5.013-.133-7.08-.173-2.08-.054-3.8-.16-5.013-.2-1.214-.08-1.907-.12-1.907-.12a2.767 2.767 0 0 1-2.613-2.934 2.778 2.778 0 0 1 2.613-2.613" fill="#231F20"/>
    </g>
</svg>
