<svg width="101" height="167" xmlns="http://www.w3.org/2000/svg">
    <title>
        si
    </title>
    <g fill="none">
        <path d="M9.476 130.747c0-18.16 18.207-32.88 40.667-32.88s40.666 14.72 40.666 32.88c0 18.146-18.206 32.866-40.666 32.866-22.46 0-40.667-14.72-40.667-32.866" fill="#FFF"/>
        <path d="M12.476 130.747l.17 2.306c.131 1.494.575 3.667 1.522 6.32a29.277 29.277 0 0 0 5.51 8.6c2.705 2.947 6.386 5.76 10.903 7.96.57.267 1.126.574 1.719.814.6.226 1.205.466 1.817.693 1.203.52 2.51.84 3.811 1.227.647.213 1.316.373 2 .493.679.147 1.363.28 2.052.427 1.372.24 2.728.333 4.12.533.776.04 1.557.067 2.344.093l1.185.04.595.027h-.063.07l.14-.013h.278l2.25-.08 1.134-.04 1.132-.134c.756-.093 1.518-.173 2.283-.266.765-.094 1.513-.294 2.277-.427 1.539-.253 3.031-.733 4.548-1.173 2.986-.987 5.976-2.214 8.704-3.934 1.426-.76 2.67-1.8 3.995-2.733 1.201-1.08 2.477-2.093 3.53-3.32 2.187-2.373 4.102-5.067 5.305-8.053 1.248-3.067 1.898-5.84 2.002-9.36-.032-6.44-2.642-12.8-7.122-17.587-1.048-1.253-2.319-2.293-3.52-3.4-1.323-.96-2.568-2.013-3.996-2.813-2.734-1.76-5.739-3.04-8.746-4.08-1.529-.454-3.034-.96-4.586-1.227-.767-.147-1.539-.36-2.291-.467-.75-.093-1.499-.2-2.243-.293l-1.112-.147-1.212-.053-2.405-.12-.485-.013-.564.026-1.123.04c-.745.04-1.485.067-2.221.107-5.868.533-11.274 2.12-15.828 4.373-4.568 2.24-8.259 5.16-10.932 8.187a29.434 29.434 0 0 0-5.404 8.773l-.588 1.92c-.095.307-.186.587-.274.88l-.136.787c-.093.507-.181.973-.261 1.4-.037.213-.093.4-.112.627l-.036.666c-.093 1.694-.141 2.6-.141 2.6l.005-.186zm-5.995-.187l.184-2.6c-.005-.773.311-2.093.56-3.467.071-.346.144-.706.219-1.093l.347-1.08c.242-.733.501-1.52.774-2.36a35.257 35.257 0 0 1 6.66-10.467c3.222-3.52 7.53-6.8 12.72-9.32 5.187-2.52 11.262-4.253 17.796-4.8.818-.026 1.642-.066 2.471-.093l1.247-.053.626-.014.71.014 2.405.08 1.215.053 1.312.147c.876.093 1.758.2 2.645.306.883.107 1.72.334 2.59.494 1.738.293 3.44.826 5.165 1.32 3.405 1.133 6.818 2.533 9.984 4.52 1.636.906 3.109 2.093 4.644 3.2 1.424 1.253 2.906 2.466 4.174 3.933 2.604 2.827 4.912 6.08 6.411 9.787a31.672 31.672 0 0 1 2.47 11.68c0 3.72-.85 8.133-2.354 11.733-1.468 3.72-3.752 7.013-6.344 9.893-1.261 1.494-2.739 2.72-4.163 4.014-1.532 1.12-3.005 2.346-4.645 3.266-3.17 2.04-6.599 3.494-10.027 4.667-1.734.533-3.45 1.08-5.202 1.4-.872.173-1.732.4-2.604.52-.872.12-1.74.227-2.604.333l-1.292.174-1.292.053-2.563.12-.319.013-.158.014h-.292l-.595-.027-1.184-.053c-.788-.04-1.57-.08-2.348-.107-1.688-.227-3.399-.373-4.996-.68-.79-.16-1.573-.32-2.35-.493a18.76 18.76 0 0 1-2.293-.574c-1.498-.453-2.989-.84-4.382-1.453-.704-.267-1.403-.547-2.094-.813-.685-.294-1.333-.654-1.992-.96-5.241-2.574-9.557-5.96-12.746-9.56a35.503 35.503 0 0 1-6.556-10.654c-1.148-3.32-1.642-6.066-1.784-7.946-.1-1.88-.155-2.88-.155-2.88l.005-.187z" fill="#231F20"/>
        <path d="M9.476 96.48c0-18.147 18.207-32.867 40.667-32.867s40.666 14.72 40.666 32.867c0 18.16-18.206 32.867-40.666 32.867-22.46 0-40.667-14.707-40.667-32.867" fill="#FFF"/>
        <path d="M12.476 96.48l.17 2.307c.131 1.493.575 3.666 1.522 6.333 1.088 2.6 2.79 5.64 5.51 8.587 2.705 2.946 6.386 5.773 10.903 7.96.57.266 1.126.573 1.719.813.6.227 1.205.467 1.817.707 1.203.52 2.51.826 3.811 1.226.647.214 1.316.36 2 .48.679.147 1.363.28 2.052.427 1.372.253 2.728.347 4.12.547l2.344.08 1.185.053.595.013c.147.014-.115 0-.063 0h.21l.278-.013 2.25-.08 1.134-.04 1.132-.133c.756-.094 1.518-.174 2.283-.267.765-.093 1.513-.293 2.277-.427 1.539-.253 3.031-.733 4.548-1.16 2.986-1 5.976-2.213 8.704-3.933 1.426-.773 2.67-1.8 3.995-2.747 1.201-1.066 2.477-2.093 3.53-3.32 2.187-2.373 4.102-5.053 5.305-8.053 1.248-3.067 1.898-5.84 2.002-9.36-.032-6.44-2.642-12.8-7.122-17.573-1.048-1.267-2.319-2.307-3.52-3.4-1.323-.96-2.568-2.027-3.996-2.814-2.734-1.773-5.739-3.04-8.746-4.08-1.529-.466-3.034-.96-4.586-1.24-.767-.146-1.539-.36-2.291-.466-.75-.094-1.499-.187-2.243-.294l-1.112-.146-1.212-.054c-.806-.04-1.609-.08-2.405-.106l-.485-.027-.564.027-1.123.053c-.745.027-1.485.067-2.221.093-5.868.534-11.274 2.12-15.828 4.374-4.568 2.24-8.259 5.16-10.932 8.2a29.554 29.554 0 0 0-5.404 8.76l-.588 1.92-.274.88-.136.786c-.093.507-.181.974-.261 1.4-.037.214-.093.4-.112.627l-.036.667c-.093 1.693-.141 2.6-.141 2.6l.005-.187zm-5.995-.187l.184-2.6c-.005-.773.311-2.08.56-3.466l.219-1.08a424.81 424.81 0 0 1 1.121-3.44 35.303 35.303 0 0 1 6.66-10.48c3.222-3.507 7.53-6.8 12.72-9.32 5.187-2.52 11.262-4.254 17.796-4.8.818-.027 1.642-.054 2.471-.094l1.247-.04.626-.026.71.013c.797.027 1.598.067 2.405.093l1.215.04 1.312.147c.876.107 1.758.213 2.645.307.883.12 1.72.333 2.59.493 1.738.293 3.44.827 5.165 1.333 3.405 1.12 6.818 2.534 9.984 4.52 1.636.894 3.109 2.08 4.644 3.187 1.424 1.267 2.906 2.48 4.174 3.933 2.604 2.84 4.912 6.094 6.411 9.787a31.73 31.73 0 0 1 2.47 11.68c0 3.72-.85 8.147-2.354 11.733-1.468 3.72-3.752 7.027-6.344 9.894-1.261 1.493-2.739 2.733-4.163 4.013-1.532 1.133-3.005 2.347-4.645 3.267-3.17 2.04-6.599 3.493-10.027 4.68-1.734.52-3.45 1.08-5.202 1.386-.872.174-1.732.4-2.604.52-.872.12-1.74.227-2.604.347l-1.292.16-1.292.067c-.859.04-1.714.08-2.563.106l-.319.014-.158.013h-.292l-.595-.027-1.184-.053c-.788-.04-1.57-.067-2.348-.107-1.688-.213-3.399-.373-4.996-.666-.79-.174-1.573-.334-2.35-.494-.782-.16-1.547-.333-2.293-.586-1.498-.454-2.989-.84-4.382-1.44-.704-.28-1.403-.56-2.094-.827-.685-.293-1.333-.64-1.992-.96-5.241-2.573-9.557-5.96-12.746-9.56a35.618 35.618 0 0 1-6.556-10.64c-1.148-3.333-1.642-6.08-1.784-7.947-.1-1.893-.155-2.893-.155-2.893l.005-.187z" fill="#231F20"/>
        <path d="M97.236 53.453c0 27.52-21.084 49.827-47.093 49.827-26.01 0-47.094-22.307-47.094-49.827 0-27.533 21.084-49.84 47.094-49.84 26.009 0 47.093 22.307 47.093 49.84" fill="#FFF"/>
        <path d="M94.236 53.453s-.061-1.133-.177-3.226c-.036-.52-.042-1.12-.11-1.76l-.318-2.08-.366-2.427c-.212-.853-.437-1.747-.676-2.693-.382-1.934-1.24-3.934-2-6.16-.494-1.067-1.01-2.174-1.545-3.334-.519-1.16-1.273-2.253-1.928-3.44-2.836-4.613-6.859-9.373-12.223-13.306-.652-.52-1.394-.907-2.097-1.387-.723-.44-1.413-.947-2.179-1.347-.769-.386-1.545-.786-2.328-1.173l-1.18-.6-1.244-.48c-.832-.32-1.67-.64-2.517-.96-.859-.293-1.753-.48-2.637-.733-1.788-.587-3.543-.734-5.336-1.054-.424-.093-.928-.133-1.454-.146l-1.546-.08-1.556-.08-.783-.04h.083-.091l-.181.013-.364.027c-1.938.106-3.914.106-5.867.506-.973.187-1.985.227-2.947.534-.97.253-1.946.52-2.926.786-.988.24-1.912.694-2.879 1.027-.961.36-1.932.707-2.837 1.227-7.496 3.533-14.146 9.533-18.76 17l-1.659 2.853c-.497.987-.93 2.013-1.404 3.013-.221.507-.49.987-.675 1.507l-.549 1.573c-.337 1.067-.807 2.08-1.043 3.174l-.805 3.253c-.272 1.08-.345 2.147-.535 3.227l-.25 1.6c-.076.546-.075 1.173-.115 1.76l-.183 3.426c.111 4.48.554 8.974 1.768 13.294.227 1.093.688 2.12 1.016 3.186l.536 1.574c.182.533.446 1.026.663 1.533.467 1.013.892 2.04 1.383 3.027l1.64 2.893c4.568 7.547 11.21 13.667 18.758 17.307.912.533 1.89.893 2.86 1.266.975.347 1.907.827 2.906 1.08.99.267 1.977.547 2.96.814a8.4 8.4 0 0 0 1.461.32l1.447.24c1.83.426 4.046.453 6.126.586l.392.027.196.013h.099c.064.014-.208 0-.05 0l.737-.053 1.462-.08c.97-.08 1.948-.027 2.892-.227 7.618-1.026 14.503-3.96 19.898-7.973 5.416-4 9.426-8.853 12.212-13.547.644-1.2 1.388-2.306 1.896-3.48.522-1.173 1.026-2.293 1.509-3.373.736-2.253 1.57-4.267 1.93-6.213.226-.947.44-1.854.642-2.707l.325-2.36.29-2.027c.062-.653.064-1.306.094-1.853l.143-3.413-.004.146zm5.996.134L100.049 57c-.038.573-.045 1.173-.118 1.88-.108.733-.224 1.547-.351 2.413-.132.867-.273 1.787-.424 2.787-.236.947-.487 1.96-.75 3.027-.443 2.16-1.38 4.426-2.25 6.92-.556 1.2-1.135 2.453-1.735 3.76-.589 1.293-1.424 2.533-2.168 3.866-3.192 5.214-7.729 10.587-13.825 15.067-6.081 4.467-13.87 7.747-22.473 8.853-1.067.2-2.166.16-3.259.254l-1.648.08-.83.04h-.243l-.099-.014h-.196l-.392-.026c-2.107-.12-4.152-.107-6.539-.574l-1.74-.266a10.22 10.22 0 0 1-1.709-.36c-1.11-.294-2.228-.6-3.35-.894-1.129-.28-2.189-.786-3.294-1.186-1.099-.414-2.204-.814-3.24-1.387-8.556-4.053-16.073-10.867-21.27-19.28l-1.863-3.227C5.72 77.627 5.228 76.48 4.7 75.36c-.25-.573-.544-1.133-.755-1.72l-.621-1.76c-.383-1.187-.895-2.347-1.167-3.56C.757 63.493.201 58.467.05 53.453l.158-3.72c.037-.6.026-1.16.102-1.8l.259-1.92c.199-1.266.304-2.573.595-3.8l.873-3.666c.264-1.227.767-2.387 1.141-3.587l.61-1.773c.205-.587.497-1.147.741-1.72.521-1.134 1.007-2.294 1.561-3.4l1.846-3.254c5.149-8.506 12.658-15.426 21.268-19.6 1.042-.586 2.156-1 3.262-1.426 1.114-.414 2.182-.934 3.32-1.227 1.134-.32 2.262-.627 3.384-.933 1.114-.36 2.28-.44 3.41-.654 2.265-.48 4.55-.52 6.798-.653L49.8.293h.21l.105-.013s.404.013.278.013l.782.04 1.556.094 1.546.08a10.15 10.15 0 0 1 1.604.16c2.234.373 4.51.64 6.514 1.293 1.025.293 2.058.533 3.052.867.977.386 1.946.76 2.908 1.133l1.434.56 1.362.693c.9.467 1.793.92 2.677 1.374.879.466 1.676 1.053 2.503 1.56.806.546 1.652 1.026 2.401 1.613 6.15 4.533 10.673 10.013 13.817 15.307.734 1.346 1.558 2.6 2.135 3.92.588 1.306 1.155 2.573 1.699 3.786.845 2.52 1.758 4.8 2.177 6.974.253 1.08.493 2.093.719 3.04l.384 2.733.321 2.347c.068.72.07 1.386.104 1.973l.148 3.613-.004.134z" fill="#231F20"/>
        <path d="M53.143 3.613l.333 66.334a3.325 3.325 0 0 1-3.316 3.346 3.323 3.323 0 0 1-3.35-3.306v-.04l.333-66.334A3.01 3.01 0 0 1 50.157.627a3.008 3.008 0 0 1 2.986 2.986M37.08 46.653c0 4.107-3.33 7.44-7.435 7.44a7.44 7.44 0 0 1-7.436-7.44c0-4.106 3.33-7.426 7.436-7.426a7.428 7.428 0 0 1 7.435 7.426m40.996 0a7.44 7.44 0 0 1-7.436 7.44c-4.105 0-7.435-3.333-7.435-7.44a7.428 7.428 0 0 1 7.435-7.426c4.107 0 7.436 3.32 7.436 7.426" fill="#231F20"/>
    </g>
</svg>
