<svg width="101" height="167" xmlns="http://www.w3.org/2000/svg">
    <title>
        sin
    </title>
    <g fill="none">
        <path d="M96.827 148.827c0 8.16-6.867 14.786-15.32 14.786-8.467 0-15.32-6.626-15.32-14.786 0 8.16-6.867 13.733-15.32 13.733-8.467 0-15.32-5.573-15.32-13.733 0 8.16-6.854 14.786-15.32 14.786-8.467 0-15.32-6.626-15.32-14.786l.573-7.907c0-22.467 20.307-29.88 45.48-29.88s45.68 10.053 45.68 30.4l.187 7.387" fill="#FFF"/>
        <path d="M93.347 150.08l-.014-1.173-.12-8.134a23.921 23.921 0 0 0-1.12-6.973c-.72-2.24-1.826-4.333-3.253-6.24-1.413-1.92-3.2-3.613-5.16-5.12-3.933-3.013-8.707-5.147-13.693-6.56-4.987-1.48-10.267-2.147-15.507-2.4a88.73 88.73 0 0 0-15.867.707 63.87 63.87 0 0 0-7.693 1.546c-2.507.68-4.947 1.507-7.24 2.56-4.613 2.094-8.587 5.134-11.187 9.027-2.546 3.92-3.666 8.667-3.6 13.6v.173l-.013.08-.493 7.907.013-.253a11.213 11.213 0 0 0 3.507 8 12.16 12.16 0 0 0 3.8 2.506c.706.294 1.44.534 2.2.68.373.08.773.147 1.146.187l.52.053.654.027c3.12.107 6.28-.96 8.733-3.013 1.227-1.027 2.293-2.28 3.067-3.707.813-1.427 1.293-3.04 1.52-4.733l.053-.454a1.987 1.987 0 0 1 2.24-1.706 2.002 2.002 0 0 1 1.707 2.16c.226 1.653.68 3.186 1.453 4.533.76 1.347 1.8 2.493 3.013 3.427 1.227.906 2.627 1.64 4.134 2.08.76.226 1.533.413 2.32.52.386.066.8.106 1.186.133l.56.027.654.013c3.226.013 6.413-.933 8.853-2.787 1.227-.933 2.267-2.08 3.013-3.426.76-1.334 1.227-2.88 1.454-4.52l.053-.454a1.987 1.987 0 0 1 2.24-1.693c1.053.133 1.8 1.093 1.707 2.147.2 1.693.68 3.32 1.48 4.746a12.088 12.088 0 0 0 3.066 3.734c1.24 1.013 2.64 1.813 4.147 2.306.747.24 1.507.44 2.28.547.387.053.787.093 1.16.12l.533.013.654-.013a12.746 12.746 0 0 0 8.32-3.453 11.518 11.518 0 0 0 2.6-3.654c.32-.68.56-1.386.733-2.12.08-.32.133-.653.187-.973zm6.706-8.773l.107 7.6v.746l-.04.987a20.428 20.428 0 0 1-.24 1.813 18.116 18.116 0 0 1-1.053 3.52 18.4 18.4 0 0 1-4.174 5.947c-1.746 1.68-3.853 2.96-6.106 3.827-2.254.853-4.667 1.24-7.04 1.2l-.814-.04-.96-.094c-.6-.08-1.173-.173-1.76-.293a18.552 18.552 0 0 1-3.386-1.08c-2.174-.96-4.16-2.293-5.774-4-1.613-1.693-2.893-3.693-3.706-5.867-.774-2.173-1.134-4.506-.92-6.746h4c.226 2.173-.094 4.466-.934 6.613-.853 2.133-2.24 4.067-3.946 5.587-1.707 1.56-3.747 2.666-5.867 3.426-2.12.747-4.36 1.08-6.573 1.107l-.774-.027-.866-.053a22.262 22.262 0 0 1-1.68-.2c-1.094-.187-2.187-.44-3.254-.827-2.12-.746-4.16-1.866-5.853-3.413a14.968 14.968 0 0 1-3.96-5.6c-.84-2.133-1.16-4.427-.933-6.613h4c.226 2.24-.12 4.573-.88 6.76-.8 2.173-2.067 4.2-3.707 5.893-1.627 1.693-3.627 3.04-5.8 3.987a18.793 18.793 0 0 1-6.933 1.48l-.827-.014-.947-.04c-.613-.053-1.2-.133-1.786-.24-1.187-.2-2.347-.52-3.467-.946-2.253-.854-4.36-2.134-6.12-3.8a18.338 18.338 0 0 1-4.2-5.934c-1-2.24-1.48-4.706-1.467-7.146v-.067c0-.067.014-.133.014-.187l.653-7.893-.013.24c.026-2.96.373-5.973 1.2-8.92a27.855 27.855 0 0 1 3.96-8.307c1.8-2.52 4.013-4.68 6.466-6.426 2.44-1.76 5.08-3.094 7.774-4.16 5.413-2.12 11-3.174 16.546-3.76 5.56-.587 11.08-.734 16.627-.587 5.587.187 11.147.88 16.653 2.187 5.48 1.346 10.934 3.386 15.827 6.72 2.427 1.653 4.72 3.64 6.64 6s3.507 5.053 4.587 7.946c1.053 2.894 1.573 5.96 1.68 8.987l.026.707z" fill="#231F20"/>
        <path d="M10.147 105.947c0-14.614 18.2-26.454 40.666-26.454 22.454 0 40.667 11.84 40.667 26.454 0 14.613-18.213 26.466-40.667 26.466-22.466 0-40.666-11.853-40.666-26.466" fill="#FFF"/>
        <path d="M13.147 105.947s.053.693.173 1.973c.067.653.333 1.413.533 2.333.147.454.374.92.56 1.427.107.253.214.507.32.787.147.253.294.52.454.786 1.173 2.174 3.146 4.654 6.053 6.907 2.893 2.267 6.653 4.333 11.053 5.893 1.107.387 2.254.707 3.414 1.08 1.2.28 2.413.574 3.64.867 1.253.2 2.533.4 3.826.613 1.28.107 2.534.267 3.894.36.72.014 1.44.04 2.16.054l1.093.04.547.013h-.04.066l.134-.013h.253c1.387-.067 2.8-.027 4.227-.16 1.4-.16 2.853-.2 4.266-.48.72-.12 1.44-.227 2.16-.347.72-.12 1.427-.32 2.147-.48 2.88-.613 5.693-1.613 8.453-2.76a40.048 40.048 0 0 0 7.734-4.52c2.306-1.853 4.36-4.013 5.84-6.453.76-1.187 1.306-2.547 1.72-3.8.12-.627.32-1.134.453-1.854l.2-2.493c-.013.44 0 .08-.013.16v-.053l-.014-.134-.013-.253-.04-.52-.067-1.04c-.106-.68-.306-1.347-.44-2.027-.413-1.333-.933-2.653-1.68-3.88-1.453-2.48-3.493-4.693-5.8-6.586-2.373-1.84-4.986-3.4-7.72-4.667-2.773-1.2-5.6-2.24-8.493-2.893-.733-.174-1.44-.387-2.16-.52-.733-.12-1.453-.24-2.173-.374-1.454-.293-2.854-.36-4.254-.533-1.386-.16-2.946-.147-4.386-.227-1.28-.013-2.76.094-4.107.12-5.467.347-10.56 1.44-15 3.067-4.44 1.6-8.213 3.76-11.093 6.107-2.907 2.333-4.84 4.88-5.987 7.106-.147.28-.293.547-.44.8-.107.28-.2.547-.293.8-.187.52-.414 1-.547 1.44-.08.414-.16.8-.253 1.147-.067.373-.214.587-.214 1.04-.106 1.547-.16 2.387-.16 2.387l.014-.24zm-6-.227s.08-.827.213-2.387c0-.346.173-.96.293-1.52.134-.586.294-1.226.454-1.906.213-.654.493-1.267.76-1.974.146-.346.293-.706.44-1.066.2-.347.386-.694.6-1.054 1.56-2.92 4.106-6.066 7.586-8.76 3.48-2.72 7.814-5.08 12.774-6.853 4.96-1.773 10.56-2.933 16.533-3.253 1.52-.04 2.933-.12 4.6-.107 1.493.067 2.907.027 4.507.173 1.586.174 3.226.24 4.8.534.786.133 1.586.253 2.386.386.8.134 1.587.36 2.387.534 3.2.68 6.373 1.8 9.52 3.12a46.539 46.539 0 0 1 8.973 5.28c5.507 4.413 10.467 10.813 10.494 19.32l-.174 2.493c-.133.92-.4 2.013-.626 3-.587 1.92-1.294 3.667-2.28 5.293-1.92 3.267-4.48 5.987-7.254 8.254a47.005 47.005 0 0 1-8.986 5.426c-3.147 1.374-6.334 2.534-9.56 3.267-.8.187-1.587.413-2.4.56-.8.133-1.6.28-2.4.413-1.587.32-3.187.4-4.76.6-1.587.16-3.147.147-4.694.227l-.293.013-.133.014h-.254l-.546-.027-1.094-.04-2.16-.08c-6.2-.387-11.733-1.587-16.76-3.413-5.013-1.8-9.36-4.267-12.813-7.067-3.467-2.787-5.987-5.987-7.52-8.947-.2-.373-.387-.733-.573-1.08-.147-.36-.294-.72-.427-1.08-.267-.706-.547-1.346-.733-1.973-.28-1.293-.6-2.387-.694-3.293-.12-1.827-.186-2.8-.186-2.8v-.227z" fill="#231F20"/>
        <path d="M10.147 78.373c0-14.613 18.2-26.466 40.666-26.466 22.454 0 40.667 11.853 40.667 26.466 0 14.614-18.213 26.454-40.667 26.454-22.466 0-40.666-11.84-40.666-26.454" fill="#FFF"/>
        <path d="M13.147 78.373s.053.68.173 1.974c.067.64.333 1.413.533 2.333.147.44.374.907.56 1.413.107.254.214.52.32.787.147.253.294.52.454.787 1.173 2.186 3.146 4.666 6.053 6.92 2.893 2.253 6.653 4.32 11.053 5.893 1.107.373 2.254.707 3.414 1.067 1.2.293 2.413.573 3.64.866 1.253.2 2.533.414 3.826.614 1.28.106 2.534.266 3.894.36.72.026 1.44.04 2.16.066l1.093.027.547.013h-.04.2l.253-.013c1.387-.053 2.8-.013 4.227-.16 1.4-.16 2.853-.2 4.266-.48.72-.107 1.44-.227 2.16-.347.72-.12 1.427-.306 2.147-.466 2.88-.614 5.693-1.614 8.453-2.76 2.734-1.227 5.347-2.734 7.734-4.52 2.306-1.854 4.36-4.014 5.84-6.454.76-1.2 1.306-2.546 1.72-3.8.12-.64.32-1.146.453-1.866l.2-2.494c-.013.454 0 .094-.013.174v-.067l-.014-.133-.013-.254-.04-.52-.067-1.026c-.106-.694-.306-1.36-.44-2.04-.413-1.334-.933-2.654-1.68-3.88-1.453-2.48-3.493-4.68-5.8-6.587a40.825 40.825 0 0 0-7.72-4.653c-2.773-1.2-5.6-2.254-8.493-2.907-.733-.173-1.44-.373-2.16-.507-.733-.133-1.453-.253-2.173-.373-1.454-.307-2.854-.36-4.254-.547-1.386-.146-2.946-.133-4.386-.213-1.28-.027-2.76.08-4.107.107-5.467.346-10.56 1.453-15 3.066-4.44 1.614-8.213 3.774-11.093 6.12-2.907 2.334-4.84 4.88-5.987 7.107l-.44.8c-.107.267-.2.533-.293.8-.187.507-.414 1-.547 1.427-.08.426-.16.8-.253 1.146-.067.387-.214.6-.214 1.04-.106 1.56-.16 2.387-.16 2.387l.014-.227zm-6-.24s.08-.826.213-2.386c0-.334.173-.96.293-1.52.134-.574.294-1.214.454-1.907.213-.64.493-1.267.76-1.973.146-.347.293-.694.44-1.067.2-.333.386-.693.6-1.053 1.56-2.92 4.106-6.054 7.586-8.747 3.48-2.72 7.814-5.093 12.774-6.867 4.96-1.773 10.56-2.92 16.533-3.253 1.52-.027 2.933-.12 4.6-.107 1.493.067 2.907.027 4.507.174 1.586.173 3.226.24 4.8.546.786.12 1.586.254 2.386.387s1.587.347 2.387.52c3.2.693 6.373 1.8 9.52 3.12a46.609 46.609 0 0 1 8.973 5.293c5.507 4.4 10.467 10.8 10.494 19.307l-.174 2.493c-.133.92-.4 2.014-.626 3.014-.587 1.906-1.294 3.653-2.28 5.293-1.92 3.267-4.48 5.973-7.254 8.253-2.84 2.187-5.866 3.974-8.986 5.427-3.147 1.36-6.334 2.52-9.56 3.253-.8.187-1.587.414-2.4.56-.8.147-1.6.28-2.4.427-1.587.32-3.187.4-4.76.587-1.587.173-3.147.16-4.694.24l-.293.013h-.387l-.546-.027-1.094-.04a110.01 110.01 0 0 1-2.16-.066c-6.2-.387-11.733-1.587-16.76-3.414-5.013-1.813-9.36-4.266-12.813-7.08-3.467-2.773-5.987-5.973-7.52-8.946-.2-.36-.387-.72-.573-1.067-.147-.373-.294-.733-.427-1.08-.267-.707-.547-1.36-.733-1.987-.28-1.293-.6-2.373-.694-3.28-.12-1.826-.186-2.8-.186-2.8v-.24z" fill="#231F20"/>
        <path d="M97.907 43.733c0 22.147-21.094 40.107-47.094 40.107C24.8 83.84 3.72 65.88 3.72 43.733c0-22.16 21.08-40.12 47.093-40.12 26 0 47.094 17.96 47.094 40.12" fill="#FFF"/>
        <path d="M94.907 43.733s-.067-.986-.2-2.813c.013-.92-.28-2.027-.507-3.333-.16-1.32-.747-2.747-1.213-4.4-1.214-3.187-3.12-6.96-6.254-10.64-3.106-3.68-7.386-7.24-12.706-10.027-.667-.333-1.334-.693-2.014-1.04-.706-.307-1.44-.587-2.16-.88-.72-.28-1.44-.627-2.2-.867-.76-.226-1.533-.466-2.306-.706-1.534-.547-3.187-.774-4.814-1.174-1.64-.346-3.266-.44-4.933-.693-.893-.067-1.84-.08-2.76-.133l-1.4-.054-.707-.026h.054-.08l-.174.013-.333.013c-.88.027-1.773.067-2.68.107-.44.013-.893.013-1.347.053l-1.346.174c-.907.106-1.814.226-2.72.333-.907.16-1.8.373-2.707.56-1.84.307-3.587.96-5.4 1.493-7.08 2.48-13.933 6.667-18.987 12.64-2.493 2.987-4.693 6.28-6.053 9.947-.427.893-.613 1.853-.933 2.787-.134.453-.307.933-.414 1.386l-.253 1.374-.267 1.373c-.04.227-.093.44-.12.693l-.053.8-.213 3.214c.013-.32.013-.04.013-.08l.013.08v.186l.027.374.04.733.08 1.467c-.013.973.267 1.933.4 2.893l.253 1.453c.12.48.28.934.414 1.414.306.92.48 1.893.893 2.786 1.333 3.694 3.507 7.04 5.973 10.067 5.027 6.067 11.894 10.36 19.027 12.947 1.813.546 3.587 1.226 5.44 1.56.907.2 1.827.44 2.72.6l2.68.36 1.32.186c.467.04.96.054 1.44.08.947.04 1.893.094 2.84.134l.587.026.68-.026 1.333-.067c.88-.053 1.773-.067 2.64-.133 6.987-.68 13.4-2.707 18.747-5.56C79.64 72.56 83.933 68.893 87 65.133c3.093-3.76 4.96-7.586 6.147-10.813.44-1.653 1.013-3.133 1.133-4.373.2-1.28.467-2.24.467-3.32.106-2 .16-3.08.16-3.08v.186zm5.986.174s-.066 1.066-.2 3.08c0 .933-.32 2.386-.6 3.986-.213 1.68-.866 3.334-1.44 5.294a42.658 42.658 0 0 1-7.306 12.493c-3.6 4.253-8.507 8.333-14.52 11.48-6 3.147-13.134 5.347-20.827 6.053-.96.067-1.933.08-2.92.134l-1.467.053-.733.027-.827-.027c-.946-.027-1.893-.067-2.853-.107-.48-.026-.947-.026-1.44-.066l-1.547-.187c-1.026-.12-2.066-.253-3.106-.387-1.027-.173-2.014-.413-3.04-.626-2.04-.36-4.027-1.08-6.054-1.68-7.96-2.8-15.733-7.507-21.586-14.427-2.88-3.453-5.44-7.32-7.067-11.667-.493-1.053-.733-2.2-1.093-3.293-.174-.547-.36-1.107-.494-1.667l-.32-1.706c-.186-1.147-.506-2.28-.52-3.454l-.106-1.746-.054-.867-.026-.44-.014-.213-.013-.107c0-.12-.013.107 0-.293l.173-3.2.04-.814c.027-.266.094-.586.147-.88l.293-1.786.32-1.8c.134-.574.32-1.12.48-1.68.36-1.094.587-2.254 1.067-3.307 1.6-4.373 4.133-8.28 7-11.787 5.827-7 13.613-11.826 21.613-14.733 2.04-.627 4.027-1.36 6.094-1.747 1.026-.213 2.04-.48 3.053-.653 1.027-.147 2.053-.28 3.067-.413l1.52-.214c.506-.04 1.013-.053 1.52-.08C48.12.4 49.133.36 50.133.307l.374-.014.186-.013h.32l.707.04 1.4.067c.947.04 1.853.066 2.8.133 1.973.28 3.987.44 5.853.853 1.84.44 3.694.734 5.44 1.347.88.28 1.747.56 2.614.827.866.28 1.68.666 2.506.986.814.347 1.64.667 2.44 1.027.774.413 1.534.8 2.294 1.2 6.066 3.2 10.973 7.373 14.533 11.72 3.6 4.347 5.813 8.84 7.2 12.667.547 1.96 1.187 3.666 1.373 5.253.254 1.573.56 2.88.56 3.987.107 2.173.174 3.346.174 3.346l-.014.174z" fill="#231F20"/>
        <path d="M53.813 3.613l.334 56.174c.013 1.84-1.48 3.333-3.32 3.346a3.323 3.323 0 0 1-3.347-3.306v-.04l.333-56.174c0-1.653 1.36-2.986 3.014-2.986a3.016 3.016 0 0 1 2.986 2.986M37.747 39.707a7.443 7.443 0 0 1-7.44 7.44c-4.107 0-7.427-3.334-7.427-7.44a7.42 7.42 0 0 1 7.427-7.427c4.106 0 7.44 3.32 7.44 7.427m41 0a7.443 7.443 0 0 1-7.44 7.44 7.443 7.443 0 0 1-7.44-7.44c0-4.107 3.333-7.427 7.44-7.427 4.106 0 7.44 3.32 7.44 7.427" fill="#231F20"/>
    </g>
</svg>
