<svg width="101" height="167" xmlns="http://www.w3.org/2000/svg">
    <title>
        so
    </title>
    <g fill="none" fill-rule="evenodd">
        <path d="M9.81 130.747c0-18.16 18.206-32.88 40.666-32.88 22.46 0 40.667 14.72 40.667 32.88 0 18.146-18.207 32.866-40.667 32.866s-40.667-14.72-40.667-32.866" fill="#FFF" fill-rule="nonzero"/>
        <path d="M12.81 130.747l.169 2.306c.132 1.494.576 3.667 1.522 6.32a29.304 29.304 0 0 0 5.511 8.6c2.704 2.947 6.385 5.76 10.903 7.96.569.267 1.125.574 1.718.814.6.226 1.206.466 1.818.693 1.202.52 2.509.84 3.81 1.227.648.213 1.316.373 2 .493.679.147 1.363.28 2.052.427 1.372.24 2.728.333 4.12.533.776.04 1.558.067 2.344.093l1.186.04.594.027h-.062.069l.14-.013h.279l2.249-.08 1.135-.04 1.132-.134c.756-.093 1.517-.173 2.282-.266.766-.094 1.514-.294 2.278-.427 1.538-.253 3.03-.733 4.548-1.173 2.985-.987 5.976-2.214 8.704-3.934 1.425-.76 2.669-1.8 3.994-2.733 1.202-1.08 2.478-2.093 3.531-3.32 2.187-2.373 4.101-5.067 5.304-8.053 1.248-3.067 1.899-5.84 2.003-9.36-.032-6.44-2.643-12.8-7.123-17.587-1.048-1.253-2.319-2.293-3.52-3.4-1.323-.96-2.568-2.013-3.996-2.813-2.733-1.76-5.739-3.04-8.745-4.08-1.53-.454-3.034-.96-4.587-1.227-.767-.147-1.539-.36-2.29-.467-.751-.093-1.5-.2-2.243-.293l-1.112-.147-1.212-.053-2.406-.12-.485-.013-.564.026-1.123.04c-.745.04-1.485.067-2.221.107-5.868.533-11.273 2.12-15.828 4.373-4.568 2.24-8.259 5.16-10.932 8.187a29.434 29.434 0 0 0-5.404 8.773l-.588 1.92c-.095.307-.185.587-.273.88l-.136.787-.262 1.4c-.037.213-.093.4-.112.627l-.036.666-.141 2.6.005-.186zm-5.995-.187l.184-2.6c-.006-.773.31-2.093.56-3.467.07-.346.144-.706.218-1.093l.347-1.08c.243-.733.501-1.52.775-2.36a35.257 35.257 0 0 1 6.66-10.467c3.221-3.52 7.529-6.8 12.72-9.32 5.186-2.52 11.261-4.253 17.796-4.8.817-.026 1.641-.066 2.47-.093l1.247-.053.627-.014.709.014 2.405.08 1.215.053 1.31.147c.878.093 1.76.2 2.647.306.883.107 1.72.334 2.59.494 1.738.293 3.44.826 5.165 1.32 3.405 1.133 6.819 2.533 9.984 4.52 1.636.906 3.11 2.093 4.644 3.2 1.424 1.253 2.907 2.466 4.175 3.933 2.604 2.827 4.912 6.08 6.41 9.787a31.672 31.672 0 0 1 2.47 11.68c0 3.72-.85 8.133-2.354 11.733-1.468 3.72-3.752 7.013-6.344 9.893-1.261 1.494-2.738 2.72-4.162 4.014-1.532 1.12-3.006 2.346-4.646 3.266-3.17 2.04-6.598 3.494-10.026 4.667-1.735.533-3.45 1.08-5.203 1.4-.872.173-1.732.4-2.603.52-.873.12-1.741.227-2.604.333l-1.293.174-1.292.053-2.563.12-.317.013-.16.014h-.291l-.596-.027-1.184-.053c-.788-.04-1.57-.08-2.348-.107-1.688-.227-3.398-.373-4.996-.68-.789-.16-1.573-.32-2.35-.493a18.821 18.821 0 0 1-2.292-.574c-1.498-.453-2.99-.84-4.383-1.453-.704-.267-1.403-.547-2.093-.813-.684-.294-1.334-.654-1.992-.96-5.242-2.574-9.558-5.96-12.747-9.56a35.503 35.503 0 0 1-6.556-10.654c-1.148-3.32-1.641-6.066-1.784-7.946-.1-1.88-.155-2.88-.155-2.88l.006-.187z" fill="#231F20" fill-rule="nonzero"/>
        <path d="M9.81 96.48c0-18.147 18.206-32.867 40.666-32.867 22.46 0 40.667 14.72 40.667 32.867 0 18.16-18.207 32.867-40.667 32.867S9.809 114.64 9.809 96.48" fill="#FFF" fill-rule="nonzero"/>
        <path d="M12.81 96.48l.169 2.307c.132 1.493.576 3.666 1.522 6.333a29.26 29.26 0 0 0 5.511 8.587c2.704 2.946 6.385 5.773 10.903 7.96.569.266 1.125.573 1.718.813.6.227 1.206.467 1.818.707 1.202.52 2.509.826 3.81 1.226.648.214 1.316.36 2 .48.679.147 1.363.28 2.052.427 1.372.253 2.728.347 4.12.547l2.344.08 1.186.053.594.013c.147.014-.114 0-.062 0h.209l.279-.013 2.249-.08 1.135-.04 1.132-.133c.756-.094 1.517-.174 2.282-.267.766-.093 1.514-.293 2.278-.427 1.538-.253 3.03-.733 4.548-1.16 2.985-1 5.976-2.213 8.704-3.933 1.425-.773 2.669-1.8 3.994-2.747 1.202-1.066 2.478-2.093 3.531-3.32 2.187-2.373 4.101-5.053 5.304-8.053 1.248-3.067 1.899-5.84 2.003-9.36-.032-6.44-2.643-12.8-7.123-17.573-1.048-1.267-2.319-2.307-3.52-3.4-1.323-.96-2.568-2.027-3.996-2.814-2.733-1.773-5.739-3.04-8.745-4.08-1.53-.466-3.034-.96-4.587-1.24-.767-.146-1.539-.36-2.29-.466-.751-.094-1.5-.187-2.243-.294l-1.112-.146-1.212-.054c-.807-.04-1.61-.08-2.406-.106l-.485-.027-.564.027-1.123.053c-.745.027-1.485.067-2.221.093-5.868.534-11.273 2.12-15.828 4.374-4.568 2.24-8.259 5.16-10.932 8.2a29.554 29.554 0 0 0-5.404 8.76l-.588 1.92c-.095.306-.185.6-.273.88l-.136.786-.262 1.4c-.037.214-.093.4-.112.627l-.036.667-.141 2.6.005-.187zm-5.995-.187l.184-2.6c-.006-.773.31-2.08.56-3.466.07-.347.144-.707.218-1.08a427.784 427.784 0 0 1 1.122-3.44 35.303 35.303 0 0 1 6.66-10.48c3.221-3.507 7.529-6.8 12.72-9.32 5.186-2.52 11.261-4.254 17.796-4.8.817-.027 1.641-.054 2.47-.094l1.247-.04.627-.026.709.013c.797.027 1.599.067 2.405.093l1.215.04 1.31.147c.878.107 1.76.213 2.647.307.883.12 1.72.333 2.59.493 1.738.293 3.44.827 5.165 1.333 3.405 1.12 6.819 2.534 9.984 4.52 1.636.894 3.11 2.08 4.644 3.187 1.424 1.267 2.907 2.48 4.175 3.933 2.604 2.84 4.912 6.094 6.41 9.787a31.73 31.73 0 0 1 2.47 11.68c0 3.72-.85 8.147-2.354 11.733-1.468 3.72-3.752 7.027-6.344 9.894-1.261 1.493-2.738 2.733-4.162 4.013-1.532 1.133-3.006 2.347-4.646 3.267-3.17 2.04-6.598 3.493-10.026 4.68-1.735.52-3.45 1.08-5.203 1.386-.872.174-1.732.4-2.603.52-.873.12-1.741.227-2.604.347l-1.293.16-1.292.067c-.859.04-1.713.08-2.563.106l-.317.014-.16.013h-.291l-.596-.027-1.184-.053c-.788-.04-1.57-.067-2.348-.107-1.688-.213-3.398-.373-4.996-.666-.789-.174-1.573-.334-2.35-.494-.78-.16-1.547-.333-2.292-.586-1.498-.454-2.99-.84-4.383-1.44-.704-.28-1.403-.56-2.093-.827-.684-.293-1.334-.64-1.992-.96-5.242-2.573-9.558-5.96-12.747-9.56a35.618 35.618 0 0 1-6.556-10.64c-1.148-3.333-1.641-6.08-1.784-7.947-.1-1.893-.155-2.893-.155-2.893l.006-.187z" fill="#231F20" fill-rule="nonzero"/>
        <path d="M97.57 53.453c0 27.52-21.085 49.827-47.094 49.827-26.01 0-47.093-22.307-47.093-49.827 0-27.533 21.084-49.84 47.093-49.84 26.01 0 47.093 22.307 47.093 49.84" fill="#FFF" fill-rule="nonzero"/>
        <path d="M94.57 53.453l-.178-3.226c-.036-.52-.041-1.12-.11-1.76l-.318-2.08c-.113-.76-.235-1.56-.364-2.427-.213-.853-.439-1.747-.677-2.693-.383-1.934-1.24-3.934-2-6.16-.495-1.067-1.011-2.174-1.546-3.334-.518-1.16-1.273-2.253-1.928-3.44-2.836-4.613-6.858-9.373-12.222-13.306-.652-.52-1.395-.907-2.098-1.387-.722-.44-1.413-.947-2.178-1.347-.77-.386-1.546-.786-2.328-1.173l-1.18-.6-1.244-.48c-.832-.32-1.671-.64-2.518-.96-.858-.293-1.753-.48-2.637-.733-1.788-.587-3.543-.734-5.336-1.054-.424-.093-.928-.133-1.453-.146l-1.547-.08-1.556-.08-.783-.04h.083-.09l-.182.013-.364.027c-1.937.106-3.913.106-5.867.506-.973.187-1.985.227-2.946.534-.971.253-1.947.52-2.927.786-.988.24-1.912.694-2.879 1.027-.961.36-1.932.707-2.837 1.227-7.496 3.533-14.145 9.533-18.76 17l-1.659 2.853c-.497.987-.93 2.013-1.404 3.013-.221.507-.49.987-.674 1.507l-.55 1.573c-.337 1.067-.806 2.08-1.042 3.174l-.806 3.253c-.272 1.08-.345 2.147-.534 3.227l-.251 1.6c-.076.546-.075 1.173-.115 1.76l-.186 3.56c.009-.254.005 0 .009-.04l.004.106.01.214.02.426.037.84.072 1.68c.033.56.022 1.12.092 1.68l.236 1.667c.18 1.107.252 2.227.514 3.32l.778 3.267c.226 1.093.688 2.12 1.016 3.186l.536 1.574c.181.533.445 1.026.662 1.533.467 1.013.892 2.04 1.383 3.027l1.64 2.893c4.568 7.547 11.21 13.667 18.759 17.307.912.533 1.889.893 2.86 1.266.976.347 1.906.827 2.905 1.08.99.267 1.977.547 2.96.814.492.16.979.253 1.461.32l1.447.24c1.83.426 4.047.453 6.127.586l.392.027.196.013h.098c.064.014-.208 0-.049 0l.736-.053 1.464-.08c.968-.08 1.947-.027 2.89-.227 7.618-1.026 14.503-3.96 19.898-7.973 5.416-4 9.427-8.853 12.212-13.547.645-1.2 1.388-2.306 1.896-3.48.523-1.173 1.027-2.293 1.51-3.373.735-2.253 1.569-4.267 1.929-6.213.226-.947.441-1.854.642-2.707l.326-2.36.289-2.027c.063-.653.064-1.306.095-1.853l.142-3.413-.004.146zm5.995.134s-.062 1.186-.182 3.413c-.039.573-.046 1.173-.119 1.88-.108.733-.224 1.547-.35 2.413-.133.867-.274 1.787-.425 2.787-.236.947-.486 1.96-.75 3.027-.443 2.16-1.38 4.426-2.25 6.92-.556 1.2-1.134 2.453-1.734 3.76-.59 1.293-1.424 2.533-2.168 3.866A53.234 53.234 0 0 1 78.761 96.72c-6.081 4.467-13.869 7.747-22.473 8.853-1.067.2-2.165.16-3.259.254l-1.648.08-.829.04h-.244l-.099-.014h-.196l-.392-.026c-2.106-.12-4.152-.107-6.538-.574l-1.74-.266a10.21 10.21 0 0 1-1.71-.36c-1.11-.294-2.228-.6-3.35-.894-1.128-.28-2.188-.786-3.294-1.186-1.098-.414-2.204-.814-3.24-1.387-8.556-4.053-16.073-10.867-21.269-19.28l-1.864-3.227c-.561-1.106-1.055-2.253-1.583-3.373-.249-.573-.544-1.133-.754-1.72l-.622-1.76c-.382-1.187-.894-2.347-1.166-3.56l-.903-3.653c-.3-1.227-.405-2.48-.613-3.72L.7 59.093c-.081-.626-.081-1.253-.125-1.88l-.188-3.906.153-3.574c.037-.6.027-1.16.103-1.8l.258-1.92c.199-1.266.304-2.573.595-3.8l.873-3.666c.264-1.227.767-2.387 1.142-3.587l.609-1.773c.205-.587.497-1.147.741-1.72.522-1.134 1.007-2.294 1.562-3.4l1.845-3.254c5.15-8.506 12.659-15.426 21.268-19.6 1.044-.586 2.156-1 3.263-1.426 1.113-.414 2.181-.934 3.32-1.227 1.133-.32 2.261-.627 3.384-.933 1.113-.36 2.28-.44 3.409-.654 2.265-.48 4.55-.52 6.799-.653l.422-.027h.21l.105-.013s.404.013.279.013l.781.04 1.556.094 1.547.08a10.15 10.15 0 0 1 1.604.16c2.233.373 4.509.64 6.514 1.293 1.024.293 2.058.533 3.051.867.977.386 1.947.76 2.908 1.133l1.435.56 1.361.693c.9.467 1.793.92 2.677 1.374.879.466 1.676 1.053 2.503 1.56.807.546 1.652 1.026 2.401 1.613 6.15 4.533 10.674 10.013 13.818 15.307.733 1.346 1.557 2.6 2.134 3.92.588 1.306 1.155 2.573 1.699 3.786.845 2.52 1.759 4.8 2.177 6.974.254 1.08.494 2.093.719 3.04l.384 2.733.321 2.347c.068.72.071 1.386.104 1.973l.148 3.613-.004.134z" fill="#231F20" fill-rule="nonzero"/>
        <path d="M70.976 53.053c0 11.24-9.103 20.334-20.333 20.334-11.23 0-20.334-9.094-20.334-20.334 0-11.226 9.104-20.333 20.334-20.333s20.333 9.107 20.333 20.333" fill="#FFF" fill-rule="nonzero"/>
        <path d="M70.976 53.053c0 11.24-9.103 20.334-20.333 20.334-11.23 0-20.334-9.094-20.334-20.334 0-11.226 9.104-20.333 20.334-20.333s20.333 9.107 20.333 20.333z" stroke="#231F20" stroke-width="5.333"/>
        <path d="M58.723 52.427c0 4.453-3.618 8.08-8.08 8.08-4.463 0-8.08-3.627-8.08-8.08a8.077 8.077 0 0 1 8.08-8.08 8.077 8.077 0 0 1 8.08 8.08" fill="#231F20" fill-rule="nonzero"/>
    </g>
</svg>
