<svg width="101" height="167" xmlns="http://www.w3.org/2000/svg">
    <title>
        son
    </title>
    <g fill="none" fill-rule="evenodd">
        <path d="M96.16 148.827c0 8.16-6.867 14.786-15.32 14.786-8.467 0-15.32-6.626-15.32-14.786 0 8.16-6.867 13.733-15.32 13.733-8.467 0-15.32-5.573-15.32-13.733 0 8.16-6.853 14.786-15.32 14.786s-15.32-6.626-15.32-14.786l.573-7.907c0-22.467 20.307-29.88 45.48-29.88 25.174 0 45.68 10.053 45.68 30.4l.187 7.387" fill="#FFF" fill-rule="nonzero"/>
        <path d="M92.68 150.08l-.013-1.173-.12-8.134a23.921 23.921 0 0 0-1.12-6.973c-.72-2.24-1.827-4.333-3.254-6.24-1.413-1.92-3.2-3.613-5.16-5.12-3.933-3.013-8.706-5.147-13.693-6.56-4.987-1.48-10.267-2.147-15.507-2.4-5.293-.24-10.653 0-15.866.707a63.87 63.87 0 0 0-7.694 1.546c-2.506.68-4.946 1.507-7.24 2.56-4.613 2.094-8.586 5.134-11.186 9.027-2.547 3.92-3.667 8.667-3.6 13.6v.173l-.014.08-.493 7.907.013-.253a11.213 11.213 0 0 0 3.507 8 12.16 12.16 0 0 0 3.8 2.506c.707.294 1.44.534 2.2.68.373.08.773.147 1.147.187l.52.053.653.027c3.12.107 6.28-.96 8.733-3.013 1.227-1.027 2.294-2.28 3.067-3.707.813-1.427 1.293-3.04 1.52-4.733l.053-.454a1.987 1.987 0 0 1 2.24-1.706 2.002 2.002 0 0 1 1.707 2.16c.227 1.653.68 3.186 1.453 4.533.76 1.347 1.8 2.493 3.014 3.427 1.226.906 2.626 1.64 4.133 2.08.76.226 1.533.413 2.32.52.387.066.8.106 1.187.133l.56.027.653.013c3.227.013 6.413-.933 8.853-2.787 1.227-.933 2.267-2.08 3.014-3.426.76-1.334 1.226-2.88 1.453-4.52l.053-.454a1.987 1.987 0 0 1 2.24-1.693c1.054.133 1.8 1.093 1.707 2.147.2 1.693.68 3.32 1.48 4.746a12.088 12.088 0 0 0 3.067 3.734c1.24 1.013 2.64 1.813 4.146 2.306.747.24 1.507.44 2.28.547.387.053.787.093 1.16.12l.534.013.653-.013a12.746 12.746 0 0 0 8.32-3.453 11.518 11.518 0 0 0 2.6-3.654c.32-.68.56-1.386.733-2.12.08-.32.134-.653.187-.973zm6.707-8.773l.106 7.6v.746l-.04.987a20.428 20.428 0 0 1-.24 1.813 18.116 18.116 0 0 1-1.053 3.52 18.4 18.4 0 0 1-4.173 5.947c-1.747 1.68-3.854 2.96-6.107 3.827-2.253.853-4.667 1.24-7.04 1.2l-.813-.04-.96-.094a25.42 25.42 0 0 1-1.76-.293 18.552 18.552 0 0 1-3.387-1.08c-2.173-.96-4.16-2.293-5.773-4-1.614-1.693-2.894-3.693-3.707-5.867-.773-2.173-1.133-4.506-.92-6.746h4c.227 2.173-.093 4.466-.933 6.613-.854 2.133-2.24 4.067-3.947 5.587-1.707 1.56-3.747 2.666-5.867 3.426-2.12.747-4.36 1.08-6.573 1.107l-.773-.027-.867-.053a22.262 22.262 0 0 1-1.68-.2c-1.093-.187-2.187-.44-3.253-.827-2.12-.746-4.16-1.866-5.854-3.413a14.968 14.968 0 0 1-3.96-5.6c-.84-2.133-1.16-4.427-.933-6.613h4c.227 2.24-.12 4.573-.88 6.76-.8 2.173-2.067 4.2-3.707 5.893-1.626 1.693-3.626 3.04-5.8 3.987a18.793 18.793 0 0 1-6.933 1.48l-.827-.014-.946-.04c-.614-.053-1.2-.133-1.787-.24-1.187-.2-2.347-.52-3.467-.946-2.253-.854-4.36-2.134-6.12-3.8a18.338 18.338 0 0 1-4.2-5.934c-1-2.24-1.48-4.706-1.466-7.146v-.067c0-.067.013-.133.013-.187l.653-7.893-.013.24c.027-2.96.373-5.973 1.2-8.92a27.855 27.855 0 0 1 3.96-8.307c1.8-2.52 4.013-4.68 6.467-6.426 2.44-1.76 5.08-3.094 7.773-4.16 5.413-2.12 11-3.174 16.547-3.76 5.56-.587 11.08-.734 16.626-.587 5.587.187 11.147.88 16.654 2.187 5.48 1.346 10.933 3.386 15.826 6.72 2.427 1.653 4.72 3.64 6.64 6s3.507 5.053 4.587 7.946c1.053 2.894 1.573 5.96 1.68 8.987l.027.707z" fill="#231F20" fill-rule="nonzero"/>
        <path d="M9.48 105.947c0-14.614 18.2-26.454 40.667-26.454 22.453 0 40.666 11.84 40.666 26.454 0 14.613-18.213 26.466-40.666 26.466-22.467 0-40.667-11.853-40.667-26.466" fill="#FFF" fill-rule="nonzero"/>
        <path d="M12.48 106c.013.16.08.813.173 1.92.067.653.334 1.413.534 2.333.146.454.373.92.56 1.427.106.253.213.507.32.787.146.253.293.52.453.786 1.173 2.174 3.147 4.654 6.053 6.907 2.894 2.267 6.654 4.333 11.054 5.893 1.106.387 2.253.707 3.413 1.08 1.2.28 2.413.574 3.64.867 1.253.2 2.533.4 3.827.613 1.28.107 2.533.267 3.893.36.72.014 1.44.04 2.16.054l1.093.04.547.013h-.04.067l.133-.013h.253c1.387-.067 2.8-.027 4.227-.16 1.4-.16 2.853-.2 4.267-.48.72-.12 1.44-.227 2.16-.347.72-.12 1.426-.32 2.146-.48 2.88-.613 5.694-1.613 8.454-2.76a40.048 40.048 0 0 0 7.733-4.52c2.307-1.853 4.36-4.013 5.84-6.453.76-1.187 1.307-2.547 1.72-3.8.12-.627.32-1.134.453-1.854l.2-2.493c-.013.44 0 .08-.013.16v-.053l-.013-.134-.014-.253-.04-.52-.066-1.04c-.107-.68-.307-1.347-.44-2.027-.414-1.333-.934-2.653-1.68-3.88-1.454-2.48-3.494-4.693-5.8-6.586-2.374-1.84-4.987-3.4-7.72-4.667-2.774-1.2-5.6-2.24-8.494-2.893-.733-.174-1.44-.387-2.16-.52-.733-.12-1.453-.24-2.173-.374-1.453-.293-2.853-.36-4.253-.533-1.387-.16-2.947-.147-4.387-.227-1.28-.013-2.76.094-4.107.12-5.466.347-10.56 1.44-15 3.067-4.44 1.6-8.213 3.76-11.093 6.107-2.907 2.333-4.84 4.88-5.987 7.106-.146.28-.293.547-.44.8-.106.28-.2.547-.293.8-.187.52-.413 1-.547 1.44-.08.414-.16.8-.253 1.147-.067.373-.213.587-.213 1.04a112.77 112.77 0 0 1-.147 2.2zm-6-.28s.08-.827.213-2.387c0-.346.174-.96.294-1.52.133-.586.293-1.226.453-1.906.213-.654.493-1.267.76-1.974.147-.346.293-.706.44-1.066.2-.347.387-.694.6-1.054 1.56-2.92 4.107-6.066 7.587-8.76 3.48-2.72 7.813-5.08 12.773-6.853 4.96-1.773 10.56-2.933 16.533-3.253 1.52-.04 2.934-.12 4.6-.107 1.494.067 2.907.027 4.507.173 1.587.174 3.227.24 4.8.534.787.133 1.587.253 2.387.386.8.134 1.586.36 2.386.534 3.2.68 6.374 1.8 9.52 3.12a46.539 46.539 0 0 1 8.974 5.28c5.506 4.413 10.466 10.813 10.493 19.32l-.173 2.493c-.134.92-.4 2.013-.627 3-.587 1.92-1.293 3.667-2.28 5.293-1.92 3.267-4.48 5.987-7.253 8.254a47.005 47.005 0 0 1-8.987 5.426c-3.147 1.374-6.333 2.534-9.56 3.267-.8.187-1.587.413-2.4.56-.8.133-1.6.28-2.4.413-1.587.32-3.187.4-4.76.6-1.587.16-3.147.147-4.693.227l-.294.013-.133.014h-.253l-.547-.027-1.093-.04-2.16-.08c-6.2-.387-11.734-1.587-16.76-3.413-5.014-1.8-9.36-4.267-12.814-7.067-3.466-2.787-5.986-5.987-7.52-8.947-.2-.373-.386-.733-.573-1.08a37.19 37.19 0 0 1-.427-1.08c-.266-.706-.546-1.346-.733-1.973-.28-1.293-.6-2.387-.693-3.293-.12-1.827-.187-2.8-.187-2.8a.227.227 0 0 1 0-.134v-.093z" fill="#231F20" fill-rule="nonzero"/>
        <path d="M9.48 78.373c0-14.613 18.2-26.466 40.667-26.466 22.453 0 40.666 11.853 40.666 26.466 0 14.614-18.213 26.454-40.666 26.454-22.467 0-40.667-11.84-40.667-26.454" fill="#FFF" fill-rule="nonzero"/>
        <path d="M12.48 78.413c.013.16.08.827.173 1.934.067.64.334 1.413.534 2.333.146.44.373.907.56 1.413.106.254.213.52.32.787.146.253.293.52.453.787 1.173 2.186 3.147 4.666 6.053 6.92 2.894 2.253 6.654 4.32 11.054 5.893 1.106.373 2.253.707 3.413 1.067 1.2.293 2.413.573 3.64.866 1.253.2 2.533.414 3.827.614 1.28.106 2.533.266 3.893.36.72.026 1.44.04 2.16.066l1.093.027.547.013h-.04.2l.253-.013c1.387-.053 2.8-.013 4.227-.16 1.4-.16 2.853-.2 4.267-.48.72-.107 1.44-.227 2.16-.347.72-.12 1.426-.306 2.146-.466 2.88-.614 5.694-1.614 8.454-2.76 2.733-1.227 5.346-2.734 7.733-4.52 2.307-1.854 4.36-4.014 5.84-6.454.76-1.2 1.307-2.546 1.72-3.8.12-.64.32-1.146.453-1.866l.2-2.494c-.013.454 0 .094-.013.174v-.067l-.013-.133-.014-.254-.04-.52-.066-1.026c-.107-.694-.307-1.36-.44-2.04-.414-1.334-.934-2.654-1.68-3.88-1.454-2.48-3.494-4.68-5.8-6.587a40.825 40.825 0 0 0-7.72-4.653c-2.774-1.2-5.6-2.254-8.494-2.907-.733-.173-1.44-.373-2.16-.507-.733-.133-1.453-.253-2.173-.373-1.453-.307-2.853-.36-4.253-.547-1.387-.146-2.947-.133-4.387-.213-1.28-.027-2.76.08-4.107.107-5.466.346-10.56 1.453-15 3.066-4.44 1.614-8.213 3.774-11.093 6.12-2.907 2.334-4.84 4.88-5.987 7.107l-.44.8c-.106.267-.2.533-.293.8-.187.507-.413 1-.547 1.427-.08.426-.16.8-.253 1.146-.067.387-.213.6-.213 1.04-.067 1.134-.12 1.88-.147 2.2zm-6-.28s.08-.826.213-2.386c0-.334.174-.96.294-1.52.133-.574.293-1.214.453-1.907.213-.64.493-1.267.76-1.973.147-.347.293-.694.44-1.067.2-.333.387-.693.6-1.053 1.56-2.92 4.107-6.054 7.587-8.747 3.48-2.72 7.813-5.093 12.773-6.867 4.96-1.773 10.56-2.92 16.533-3.253 1.52-.027 2.934-.12 4.6-.107 1.494.067 2.907.027 4.507.174 1.587.173 3.227.24 4.8.546.787.12 1.587.254 2.387.387s1.586.347 2.386.52c3.2.693 6.374 1.8 9.52 3.12a46.609 46.609 0 0 1 8.974 5.293c5.506 4.4 10.466 10.8 10.493 19.307l-.173 2.493c-.134.92-.4 2.014-.627 3.014-.587 1.906-1.293 3.653-2.28 5.293-1.92 3.267-4.48 5.973-7.253 8.253-2.84 2.187-5.867 3.974-8.987 5.427-3.147 1.36-6.333 2.52-9.56 3.253-.8.187-1.587.414-2.4.56-.8.147-1.6.28-2.4.427-1.587.32-3.187.4-4.76.587-1.587.173-3.147.16-4.693.24l-.294.013h-.386l-.547-.027-1.093-.04a110.01 110.01 0 0 1-2.16-.066c-6.2-.387-11.734-1.587-16.76-3.414-5.014-1.813-9.36-4.266-12.814-7.08-3.466-2.773-5.986-5.973-7.52-8.946-.2-.36-.386-.72-.573-1.067-.147-.373-.293-.733-.427-1.08-.266-.707-.546-1.36-.733-1.987-.28-1.293-.6-2.373-.693-3.28-.12-1.826-.187-2.8-.187-2.8a.274.274 0 0 1 0-.146v-.094z" fill="#231F20" fill-rule="nonzero"/>
        <path d="M97.24 43.733c0 22.147-21.093 40.107-47.093 40.107-26.014 0-47.094-17.96-47.094-40.107 0-22.16 21.08-40.12 47.094-40.12 26 0 47.093 17.96 47.093 40.12" fill="#FFF" fill-rule="nonzero"/>
        <path d="M94.24 43.733s-.067-.986-.2-2.813c.013-.92-.28-2.027-.507-3.333-.16-1.32-.746-2.747-1.213-4.4-1.213-3.187-3.12-6.96-6.253-10.64-3.107-3.68-7.387-7.24-12.707-10.027-.667-.333-1.333-.693-2.013-1.04-.707-.307-1.44-.587-2.16-.88-.72-.28-1.44-.627-2.2-.867-.76-.226-1.534-.466-2.307-.706-1.533-.547-3.187-.774-4.813-1.174-1.64-.346-3.267-.44-4.934-.693-.893-.067-1.84-.08-2.76-.133l-1.4-.054-.706-.026h.053-.08l-.173.013-.334.013c-.88.027-1.773.067-2.68.107-.44.013-.893.013-1.346.053l-1.347.174c-.907.106-1.813.226-2.72.333-.907.16-1.8.373-2.707.56-1.84.307-3.586.96-5.4 1.493-7.08 2.48-13.933 6.667-18.986 12.64-2.494 2.987-4.694 6.28-6.054 9.947-1.4 3.733-2.133 7.253-2.24 11.453.04 3.92.76 7.814 2.12 11.48 1.334 3.694 3.507 7.04 5.974 10.067 5.026 6.067 11.893 10.36 19.026 12.947 1.814.546 3.587 1.226 5.44 1.56.907.2 1.827.44 2.72.6l2.68.36 1.32.186c.467.04.96.054 1.44.08.947.04 1.894.094 2.84.134l.587.026.68-.026 1.333-.067c.88-.053 1.774-.067 2.64-.133 6.987-.68 13.4-2.707 18.747-5.56 5.373-2.827 9.667-6.494 12.733-10.254 3.094-3.76 4.96-7.586 6.147-10.813.44-1.653 1.013-3.133 1.133-4.373.2-1.28.467-2.24.467-3.32.107-2 .16-3.08.16-3.08v.186zm5.987.174s-.067 1.066-.2 3.08c0 .933-.32 2.386-.6 3.986-.214 1.68-.867 3.334-1.44 5.294A42.658 42.658 0 0 1 90.68 68.76c-3.6 4.253-8.507 8.333-14.52 11.48-6 3.147-13.133 5.347-20.827 6.053-.96.067-1.933.08-2.92.134l-1.466.053-.734.027-.826-.027c-.947-.027-1.894-.067-2.854-.107-.48-.026-.946-.026-1.44-.066l-1.546-.187c-1.027-.12-2.067-.253-3.107-.387-1.027-.173-2.013-.413-3.04-.626-2.04-.36-4.027-1.08-6.053-1.68C23.387 80.627 15.613 75.92 9.76 69c-2.88-3.453-5.44-7.32-7.067-11.667a40.087 40.087 0 0 1-2.64-13.6c.014-4.386.907-9.4 2.52-13.653 1.6-4.373 4.134-8.28 7-11.787 5.827-7 13.614-11.826 21.614-14.733 2.04-.627 4.026-1.36 6.093-1.747 1.027-.213 2.04-.48 3.053-.653C41.36 1.013 42.387.88 43.4.747l1.52-.214c.507-.04 1.013-.053 1.52-.08C47.453.4 48.467.36 49.467.307l.373-.014.187-.013h.32l.706.04 1.4.067c.947.04 1.854.066 2.8.133 1.974.28 3.987.44 5.854.853 1.84.44 3.693.734 5.44 1.347.88.28 1.746.56 2.613.827.867.28 1.68.666 2.507.986.813.347 1.64.667 2.44 1.027.773.413 1.533.8 2.293 1.2 6.067 3.2 10.973 7.373 14.533 11.72 3.6 4.347 5.814 8.84 7.2 12.667.547 1.96 1.187 3.666 1.374 5.253.253 1.573.56 2.88.56 3.987.106 2.173.173 3.346.173 3.346l-.013.174z" fill="#231F20" fill-rule="nonzero"/>
        <path d="M70.64 43.413c0 11.227-9.107 20.334-20.333 20.334-11.227 0-20.334-9.107-20.334-20.334 0-11.226 9.107-20.333 20.334-20.333 11.226 0 20.333 9.107 20.333 20.333" fill="#FFF" fill-rule="nonzero"/>
        <path d="M70.64 43.413c0 11.227-9.107 20.334-20.333 20.334-11.227 0-20.334-9.107-20.334-20.334 0-11.226 9.107-20.333 20.334-20.333 11.226 0 20.333 9.107 20.333 20.333z" stroke="#231F20" stroke-width="5.333"/>
        <path d="M58.387 42.787c0 4.453-3.614 8.08-8.08 8.08-4.454 0-8.08-3.627-8.08-8.08 0-4.467 3.626-8.08 8.08-8.08a8.075 8.075 0 0 1 8.08 8.08" fill="#231F20" fill-rule="nonzero"/>
    </g>
</svg>
