<svg width="101" height="167" xmlns="http://www.w3.org/2000/svg">
    <title>
        su
    </title>
    <g fill="none">
        <path d="M10.143 130.747c0-18.16 18.206-32.88 40.666-32.88 22.46 0 40.667 14.72 40.667 32.88 0 18.146-18.207 32.866-40.667 32.866s-40.666-14.72-40.666-32.866" fill="#FFF"/>
        <path d="M13.143 130.747l.169 2.306c.132 1.494.576 3.667 1.523 6.32a29.304 29.304 0 0 0 5.51 8.6c2.704 2.947 6.386 5.76 10.904 7.96.568.267 1.124.574 1.718.814.6.226 1.205.466 1.817.693 1.204.52 2.51.84 3.81 1.227.649.213 1.317.373 2 .493.68.147 1.363.28 2.053.427 1.372.24 2.728.333 4.12.533.776.04 1.557.067 2.344.093l1.185.04.595.027h-.063.07l.14-.013h.278l2.25-.08 1.134-.04 1.132-.134c.756-.093 1.517-.173 2.283-.266.765-.094 1.513-.294 2.277-.427 1.539-.253 3.03-.733 4.548-1.173 2.985-.987 5.976-2.214 8.704-3.934 1.425-.76 2.67-1.8 3.995-2.733 1.201-1.08 2.477-2.093 3.53-3.32 2.187-2.373 4.102-5.067 5.304-8.053 1.248-3.067 1.899-5.84 2.003-9.36-.032-6.44-2.643-12.8-7.123-17.587-1.048-1.253-2.318-2.293-3.518-3.4-1.324-.96-2.57-2.013-3.998-2.813-2.733-1.76-5.738-3.04-8.745-4.08-1.53-.454-3.033-.96-4.587-1.227-.766-.147-1.538-.36-2.29-.467-.751-.093-1.499-.2-2.242-.293l-1.113-.147-1.212-.053-2.405-.12-.486-.013-.564.026-1.122.04c-.746.04-1.486.067-2.222.107-5.868.533-11.273 2.12-15.828 4.373-4.568 2.24-8.258 5.16-10.932 8.187a29.434 29.434 0 0 0-5.404 8.773l-.588 1.92c-.094.307-.185.587-.273.88l-.136.787c-.093.507-.181.973-.261 1.4-.038.213-.094.4-.112.627-.014.226-.026.453-.036.666l-.142 2.6.006-.186zm-5.995-.187l.184-2.6c-.005-.773.31-2.093.56-3.467.07-.346.144-.706.22-1.093.11-.347.227-.707.345-1.08.244-.733.502-1.52.775-2.36a35.257 35.257 0 0 1 6.66-10.467c3.221-3.52 7.53-6.8 12.72-9.32 5.187-2.52 11.261-4.253 17.796-4.8.817-.026 1.641-.066 2.47-.093l1.247-.053.627-.014.71.014 2.405.08 1.214.053 1.312.147c.876.093 1.759.2 2.646.306.882.107 1.72.334 2.589.494 1.739.293 3.44.826 5.165 1.32 3.406 1.133 6.819 2.533 9.984 4.52 1.638.906 3.11 2.093 4.644 3.2 1.424 1.253 2.907 2.466 4.175 3.933 2.604 2.827 4.912 6.08 6.41 9.787a31.672 31.672 0 0 1 2.47 11.68c0 3.72-.85 8.133-2.353 11.733-1.468 3.72-3.752 7.013-6.344 9.893-1.262 1.494-2.739 2.72-4.163 4.014-1.532 1.12-3.005 2.346-4.645 3.266-3.171 2.04-6.599 3.494-10.027 4.667-1.735.533-3.45 1.08-5.203 1.4-.872.173-1.732.4-2.602.52-.874.12-1.742.227-2.604.333l-1.294.174-1.292.053-2.562.12-.318.013-.16.014h-.29l-.596-.027-1.184-.053c-.788-.04-1.571-.08-2.348-.107-1.688-.227-3.399-.373-4.996-.68-.79-.16-1.574-.32-2.351-.493a18.821 18.821 0 0 1-2.292-.574c-1.497-.453-2.99-.84-4.383-1.453-.704-.267-1.402-.547-2.093-.813-.684-.294-1.333-.654-1.992-.96-5.241-2.574-9.557-5.96-12.747-9.56a35.53 35.53 0 0 1-6.556-10.654c-1.148-3.32-1.641-6.066-1.782-7.946l-.156-2.88.005-.187z" fill="#231F20"/>
        <path d="M10.143 96.48c0-18.147 18.206-32.867 40.666-32.867 22.46 0 40.667 14.72 40.667 32.867 0 18.16-18.207 32.867-40.667 32.867S10.143 114.64 10.143 96.48" fill="#FFF"/>
        <path d="M13.143 96.48l.169 2.307c.132 1.493.576 3.666 1.523 6.333a29.26 29.26 0 0 0 5.51 8.587c2.704 2.946 6.386 5.773 10.904 7.96.568.266 1.124.573 1.718.813.6.227 1.205.467 1.817.707 1.204.52 2.51.826 3.81 1.226.649.214 1.317.36 2 .48.68.147 1.363.28 2.053.427 1.372.253 2.728.347 4.12.547l2.344.08 1.185.053.595.013c.146.014-.115 0-.063 0h.21l.278-.013 2.25-.08 1.134-.04 1.132-.133c.756-.094 1.517-.174 2.283-.267.765-.093 1.513-.293 2.277-.427 1.539-.253 3.03-.733 4.548-1.16 2.985-1 5.976-2.213 8.704-3.933 1.425-.773 2.67-1.8 3.995-2.747 1.201-1.066 2.477-2.093 3.53-3.32 2.187-2.373 4.102-5.053 5.304-8.053 1.248-3.067 1.899-5.84 2.003-9.36-.032-6.44-2.643-12.8-7.123-17.573-1.048-1.267-2.318-2.307-3.518-3.4-1.324-.96-2.57-2.027-3.998-2.814-2.733-1.773-5.738-3.04-8.745-4.08-1.53-.466-3.033-.96-4.587-1.24-.766-.146-1.538-.36-2.29-.466-.751-.094-1.499-.187-2.242-.294l-1.113-.146-1.212-.054c-.807-.04-1.61-.08-2.405-.106l-.486-.027-.564.027-1.122.053c-.746.027-1.486.067-2.222.093-5.868.534-11.273 2.12-15.828 4.374-4.568 2.24-8.258 5.16-10.932 8.2a29.554 29.554 0 0 0-5.404 8.76l-.588 1.92c-.094.306-.185.6-.273.88l-.136.786c-.093.507-.181.974-.261 1.4-.038.214-.094.4-.112.627-.014.24-.026.453-.036.667l-.142 2.6.006-.187zm-5.995-.187l.184-2.6c-.005-.773.31-2.08.56-3.466l.22-1.08c.11-.36.227-.72.345-1.08.244-.747.502-1.534.775-2.36a35.303 35.303 0 0 1 6.66-10.48c3.221-3.507 7.53-6.8 12.72-9.32 5.187-2.52 11.261-4.254 17.796-4.8.817-.027 1.641-.054 2.47-.094l1.247-.04.627-.026.71.013c.797.027 1.598.067 2.405.093l1.214.04 1.312.147c.876.107 1.759.213 2.646.307.882.12 1.72.333 2.589.493 1.739.293 3.44.827 5.165 1.333 3.406 1.12 6.819 2.534 9.984 4.52 1.638.894 3.11 2.08 4.644 3.187 1.424 1.267 2.907 2.48 4.175 3.933 2.604 2.84 4.912 6.094 6.41 9.787a31.73 31.73 0 0 1 2.47 11.68c0 3.72-.85 8.147-2.353 11.733-1.468 3.72-3.752 7.027-6.344 9.894-1.262 1.493-2.739 2.733-4.163 4.013-1.532 1.133-3.005 2.347-4.645 3.267-3.171 2.04-6.599 3.493-10.027 4.68-1.735.52-3.45 1.08-5.203 1.386-.872.174-1.732.4-2.602.52-.874.12-1.742.227-2.604.347l-1.294.16-1.292.067c-.858.04-1.713.08-2.562.106l-.318.014-.16.013h-.29l-.596-.027-1.184-.053c-.788-.04-1.571-.067-2.348-.107-1.688-.213-3.399-.373-4.996-.666-.79-.174-1.574-.334-2.351-.494-.78-.16-1.547-.333-2.292-.586-1.497-.454-2.99-.84-4.383-1.44-.704-.28-1.402-.56-2.093-.827-.684-.293-1.333-.64-1.992-.96-5.241-2.573-9.557-5.96-12.747-9.56a35.646 35.646 0 0 1-6.556-10.64c-1.148-3.333-1.641-6.08-1.782-7.947l-.156-2.893.005-.187z" fill="#231F20"/>
        <path d="M97.903 53.453c0 27.52-21.084 49.827-47.094 49.827-26.009 0-47.093-22.307-47.093-49.827 0-27.533 21.084-49.84 47.093-49.84 26.01 0 47.094 22.307 47.094 49.84" fill="#FFF"/>
        <path d="M94.903 53.453l-.178-3.226c-.036-.52-.041-1.12-.109-1.76-.097-.64-.204-1.334-.319-2.08l-.364-2.427c-.213-.853-.438-1.747-.677-2.693-.383-1.934-1.24-3.934-2-6.16-.495-1.067-1.01-2.174-1.545-3.334-.519-1.16-1.274-2.253-1.928-3.44-2.836-4.613-6.859-9.373-12.223-13.306-.652-.52-1.395-.907-2.097-1.387-.723-.44-1.414-.947-2.179-1.347-.77-.386-1.545-.786-2.328-1.173l-1.18-.6-1.244-.48c-.832-.32-1.67-.64-2.517-.96-.859-.293-1.752-.48-2.636-.733-1.79-.587-3.544-.734-5.338-1.054-.424-.093-.928-.133-1.453-.146l-1.547-.08-1.556-.08-.782-.04h.082-.09l-.182.013-.364.027c-1.937.106-3.913.106-5.866.506-.974.187-1.986.227-2.947.534-.97.253-1.947.52-2.927.786-.988.24-1.912.694-2.878 1.027-.962.36-1.932.707-2.838 1.227-7.496 3.533-14.145 9.533-18.76 17l-1.658 2.853c-.498.987-.931 2.013-1.404 3.013-.222.507-.491.987-.675 1.507l-.55 1.573c-.337 1.067-.806 2.08-1.042 3.174l-.805 3.253c-.272 1.08-.346 2.147-.535 3.227l-.25 1.6c-.077.546-.074 1.173-.115 1.76l-.183 3.426c.11 4.48.553 8.974 1.768 13.294.227 1.093.688 2.12 1.016 3.186l.536 1.574c.181.533.445 1.026.663 1.533.466 1.013.892 2.04 1.382 3.027l1.64 2.893c4.568 7.547 11.211 13.667 18.759 17.307.912.533 1.89.893 2.86 1.266.976.347 1.907.827 2.905 1.08.992.267 1.978.547 2.96.814.492.16.979.253 1.462.32l1.446.24c1.831.426 4.047.453 6.127.586l.392.027.196.013h.099c.064.014-.208 0-.05 0l.736-.053 1.464-.08c.968-.08 1.947-.027 2.891-.227 7.619-1.026 14.503-3.96 19.897-7.973 5.416-4 9.427-8.853 12.212-13.547.646-1.2 1.388-2.306 1.896-3.48.523-1.173 1.027-2.293 1.51-3.373.736-2.253 1.569-4.267 1.929-6.213.227-.947.441-1.854.643-2.707l.325-2.36c.104-.733.201-1.413.29-2.027.062-.653.063-1.306.094-1.853l.143-3.413-.004.146zm5.996.134L100.716 57c-.039.573-.045 1.173-.119 1.88-.108.733-.224 1.547-.35 2.413-.132.867-.274 1.787-.424 2.787-.236.947-.487 1.96-.751 3.027-.443 2.16-1.38 4.426-2.25 6.92-.555 1.2-1.134 2.453-1.734 3.76-.59 1.293-1.424 2.533-2.168 3.866A53.244 53.244 0 0 1 79.095 96.72c-6.082 4.467-13.87 7.747-22.474 8.853-1.066.2-2.165.16-3.258.254l-1.648.08-.83.04h-.244l-.098-.014h-.196l-.392-.026c-2.107-.12-4.152-.107-6.539-.574l-1.74-.266a10.21 10.21 0 0 1-1.71-.36c-1.11-.294-2.227-.6-3.35-.894-1.128-.28-2.188-.786-3.293-1.186-1.099-.414-2.203-.814-3.24-1.387-8.556-4.053-16.074-10.867-21.268-19.28l-1.866-3.227c-.561-1.106-1.053-2.253-1.582-3.373-.25-.573-.544-1.133-.755-1.72l-.621-1.76c-.383-1.187-.895-2.347-1.167-3.56-1.4-4.827-1.956-9.853-2.108-14.867l.157-3.72c.038-.6.027-1.16.103-1.8l.259-1.92c.198-1.266.304-2.573.594-3.8l.874-3.666c.264-1.227.766-2.387 1.141-3.587l.61-1.773c.205-.587.497-1.147.74-1.72.522-1.134 1.009-2.294 1.562-3.4l1.845-3.254c5.15-8.506 12.659-15.426 21.268-19.6 1.044-.586 2.156-1 3.263-1.426 1.113-.414 2.181-.934 3.32-1.227 1.133-.32 2.261-.627 3.384-.933 1.113-.36 2.28-.44 3.41-.654 2.265-.48 4.55-.52 6.798-.653l.423-.027h.209l.105-.013s.404.013.279.013l.781.04 1.556.094 1.547.08a10.15 10.15 0 0 1 1.604.16c2.233.373 4.51.64 6.515 1.293 1.024.293 2.057.533 3.05.867.978.386 1.947.76 2.91 1.133l1.433.56 1.361.693c.9.467 1.794.92 2.678 1.374.878.466 1.676 1.053 2.502 1.56.807.546 1.652 1.026 2.402 1.613 6.149 4.533 10.673 10.013 13.817 15.307.733 1.346 1.557 2.6 2.135 3.92.588 1.306 1.154 2.573 1.698 3.786.846 2.52 1.759 4.8 2.178 6.974.253 1.08.493 2.093.718 3.04l.384 2.733c.116.853.223 1.627.322 2.347.068.72.07 1.386.104 1.973l.148 3.613-.004.134z" fill="#231F20"/>
        <path d="M53.264 3.613l.545 45.214a2.993 2.993 0 0 1-2.964 3.04 2.995 2.995 0 0 1-3.036-2.96v-.08l.546-45.214a2.456 2.456 0 0 1 2.484-2.426 2.463 2.463 0 0 1 2.425 2.426" fill="#231F20"/>
        <path d="M71.703 7.667L72.044 30a56929.298 56929.298 0 0 1 .159 16.72c.005 1.04.021 1.96 0 3.12.001.467-.051 1.16-.098 1.76a25.68 25.68 0 0 1-.238 1.76c-.783 4.707-3.1 9.36-6.795 12.867-3.648 3.52-8.79 5.746-14.04 5.786H50.5L50.081 72c-.248 0-.624-.027-.972-.067a17.814 17.814 0 0 1-1.978-.266 19.304 19.304 0 0 1-3.758-1.067 21.253 21.253 0 0 1-6.504-4.08c-3.773-3.427-6.161-8.04-7.045-12.72a26.397 26.397 0 0 1-.399-3.52c-.036-1.24-.013-2.147-.012-3.187l.056-5.893c.038-3.84.071-7.467.103-10.813l.344-22.334a2.397 2.397 0 0 1 2.437-2.36 2.395 2.395 0 0 1 2.363 2.36l.344 22.334a56929.594 56929.594 0 0 1 .159 16.706c.012.987-.004 2.107.03 2.934.047.893.15 1.773.318 2.666.688 3.52 2.508 6.96 5.281 9.44 2.748 2.507 6.408 3.96 10.119 3.88 3.706-.013 7.344-1.533 10.04-4.093 2.72-2.547 4.493-6.013 5.101-9.547.084-.453.135-.893.188-1.333.03-.44.076-.773.081-1.333l.027-2.987.055-5.907L66.56 30l.342-22.333a2.405 2.405 0 0 1 2.437-2.36 2.413 2.413 0 0 1 2.363 2.36" fill="#231F20"/>
    </g>
</svg>
