<svg width="101" height="167" xmlns="http://www.w3.org/2000/svg">
    <title>
        sun
    </title>
    <g fill="none">
        <path d="M96.493 148.827c0 8.16-6.866 14.786-15.32 14.786-8.466 0-15.32-6.626-15.32-14.786 0 8.16-6.866 13.733-15.32 13.733-8.466 0-15.32-5.573-15.32-13.733 0 8.16-6.853 14.786-15.32 14.786-8.466 0-15.32-6.626-15.32-14.786l.574-7.907c0-22.467 20.306-29.88 45.48-29.88 25.173 0 45.68 10.053 45.68 30.4l.186 7.387" fill="#FFF"/>
        <path d="M93.013 150.08L93 148.907l-.12-8.134a23.921 23.921 0 0 0-1.12-6.973c-.72-2.24-1.827-4.333-3.253-6.24-1.414-1.92-3.2-3.613-5.16-5.12-3.934-3.013-8.707-5.147-13.694-6.56-4.986-1.48-10.266-2.147-15.506-2.4-5.294-.24-10.654 0-15.867.707a63.87 63.87 0 0 0-7.693 1.546c-2.507.68-4.947 1.507-7.24 2.56-4.614 2.094-8.587 5.134-11.187 9.027-2.547 3.92-3.667 8.667-3.6 13.6v.173l-.013.08-.494 7.907.014-.253a11.213 11.213 0 0 0 3.506 8 12.16 12.16 0 0 0 3.8 2.506c.707.294 1.44.534 2.2.68.374.08.774.147 1.147.187l.52.053.653.027c3.12.107 6.28-.96 8.734-3.013 1.226-1.027 2.293-2.28 3.066-3.707.814-1.427 1.294-3.04 1.52-4.733l.054-.454a1.987 1.987 0 0 1 2.24-1.706 2.002 2.002 0 0 1 1.706 2.16c.227 1.653.68 3.186 1.454 4.533.76 1.347 1.8 2.493 3.013 3.427 1.227.906 2.627 1.64 4.133 2.08.76.226 1.534.413 2.32.52.387.066.8.106 1.187.133l.56.027.653.013c3.227.013 6.414-.933 8.854-2.787 1.226-.933 2.266-2.08 3.013-3.426.76-1.334 1.227-2.88 1.453-4.52l.054-.454a1.987 1.987 0 0 1 2.24-1.693c1.053.133 1.8 1.093 1.706 2.147.2 1.693.68 3.32 1.48 4.746a12.088 12.088 0 0 0 3.067 3.734c1.24 1.013 2.64 1.813 4.147 2.306.746.24 1.506.44 2.28.547.386.053.786.093 1.16.12l.533.013.653-.013a12.746 12.746 0 0 0 8.32-3.453 11.518 11.518 0 0 0 2.6-3.654c.32-.68.56-1.386.734-2.12.08-.32.133-.653.186-.973zm6.707-8.773l.107 7.6v.746l-.04.987a20.428 20.428 0 0 1-.24 1.813 18.116 18.116 0 0 1-1.054 3.52 18.4 18.4 0 0 1-4.173 5.947c-1.747 1.68-3.853 2.96-6.107 3.827-2.253.853-4.666 1.24-7.04 1.2l-.813-.04-.96-.094c-.6-.08-1.173-.173-1.76-.293a18.552 18.552 0 0 1-3.387-1.08c-2.173-.96-4.16-2.293-5.773-4-1.613-1.693-2.893-3.693-3.707-5.867-.773-2.173-1.133-4.506-.92-6.746h4c.227 2.173-.093 4.466-.933 6.613-.853 2.133-2.24 4.067-3.947 5.587-1.706 1.56-3.746 2.666-5.866 3.426-2.12.747-4.36 1.08-6.574 1.107l-.773-.027-.867-.053a22.262 22.262 0 0 1-1.68-.2c-1.093-.187-2.186-.44-3.253-.827-2.12-.746-4.16-1.866-5.853-3.413a14.968 14.968 0 0 1-3.96-5.6c-.84-2.133-1.16-4.427-.934-6.613h4c.227 2.24-.12 4.573-.88 6.76-.8 2.173-2.066 4.2-3.706 5.893-1.627 1.693-3.627 3.04-5.8 3.987a18.793 18.793 0 0 1-6.934 1.48l-.826-.014-.947-.04c-.613-.053-1.2-.133-1.787-.24-1.186-.2-2.346-.52-3.466-.946-2.254-.854-4.36-2.134-6.12-3.8a18.338 18.338 0 0 1-4.2-5.934c-1-2.24-1.48-4.706-1.467-7.146v-.067c0-.067.013-.133.013-.187l.654-7.893-.014.24c.027-2.96.374-5.973 1.2-8.92a27.855 27.855 0 0 1 3.96-8.307c1.8-2.52 4.014-4.68 6.467-6.426 2.44-1.76 5.08-3.094 7.773-4.16 5.414-2.12 11-3.174 16.547-3.76 5.56-.587 11.08-.734 16.627-.587 5.586.187 11.146.88 16.653 2.187 5.48 1.346 10.933 3.386 15.827 6.72 2.426 1.653 4.72 3.64 6.64 6s3.506 5.053 4.586 7.946c1.054 2.894 1.574 5.96 1.68 8.987l.027.707z" fill="#231F20"/>
        <path d="M9.813 105.947c0-14.614 18.2-26.454 40.667-26.454 22.453 0 40.667 11.84 40.667 26.454 0 14.613-18.214 26.466-40.667 26.466-22.467 0-40.667-11.853-40.667-26.466" fill="#FFF"/>
        <path d="M12.813 106c.014.16.08.813.174 1.92.066.653.333 1.413.533 2.333.147.454.373.92.56 1.427.107.253.213.507.32.787.147.253.293.52.453.786 1.174 2.174 3.147 4.654 6.054 6.907 2.893 2.267 6.653 4.333 11.053 5.893 1.107.387 2.253.707 3.413 1.08 1.2.28 2.414.574 3.64.867 1.254.2 2.534.4 3.827.613 1.28.107 2.533.267 3.893.36.72.014 1.44.04 2.16.054l1.094.04.546.013h-.04.067l.133-.013h.254c1.386-.067 2.8-.027 4.226-.16 1.4-.16 2.854-.2 4.267-.48.72-.12 1.44-.227 2.16-.347.72-.12 1.427-.32 2.147-.48 2.88-.613 5.693-1.613 8.453-2.76a40.048 40.048 0 0 0 7.733-4.52c2.307-1.853 4.36-4.013 5.84-6.453.76-1.187 1.307-2.547 1.72-3.8.12-.627.32-1.134.454-1.854l.2-2.493c-.014.44 0 .08-.014.16v-.053l-.013-.134-.013-.253-.04-.52-.067-1.04c-.107-.68-.307-1.347-.44-2.027-.413-1.333-.933-2.653-1.68-3.88-1.453-2.48-3.493-4.693-5.8-6.586-2.373-1.84-4.987-3.4-7.72-4.667-2.773-1.2-5.6-2.24-8.493-2.893-.734-.174-1.44-.387-2.16-.52-.734-.12-1.454-.24-2.174-.374-1.453-.293-2.853-.36-4.253-.533-1.387-.16-2.947-.147-4.387-.227-1.28-.013-2.76.094-4.106.12-5.467.347-10.56 1.44-15 3.067-4.44 1.6-8.214 3.76-11.094 6.107-2.906 2.333-4.84 4.88-5.986 7.106-.147.28-.294.547-.44.8-.107.28-.2.547-.294.8-.186.52-.413 1-.546 1.44-.08.414-.16.8-.254 1.147-.066.373-.213.587-.213 1.04a112.77 112.77 0 0 1-.147 2.2zm-6-.28s.08-.827.214-2.387c0-.346.173-.96.293-1.52.133-.586.293-1.226.453-1.906.214-.654.494-1.267.76-1.974.147-.346.294-.706.44-1.066.2-.347.387-.694.6-1.054 1.56-2.92 4.107-6.066 7.587-8.76 3.48-2.72 7.813-5.08 12.773-6.853 4.96-1.773 10.56-2.933 16.534-3.253 1.52-.04 2.933-.12 4.6-.107 1.493.067 2.906.027 4.506.173 1.587.174 3.227.24 4.8.534.787.133 1.587.253 2.387.386.8.134 1.587.36 2.387.534 3.2.68 6.373 1.8 9.52 3.12a46.539 46.539 0 0 1 8.973 5.28c5.507 4.413 10.467 10.813 10.493 19.32l-.173 2.493c-.133.92-.4 2.013-.627 3-.586 1.92-1.293 3.667-2.28 5.293-1.92 3.267-4.48 5.987-7.253 8.254a47.005 47.005 0 0 1-8.987 5.426c-3.146 1.374-6.333 2.534-9.56 3.267-.8.187-1.586.413-2.4.56-.8.133-1.6.28-2.4.413-1.586.32-3.186.4-4.76.6-1.586.16-3.146.147-4.693.227l-.293.013-.134.014h-.253l-.547-.027-1.093-.04-2.16-.08c-6.2-.387-11.733-1.587-16.76-3.413-5.013-1.8-9.36-4.267-12.813-7.067-3.467-2.787-5.987-5.987-7.52-8.947-.2-.373-.387-.733-.574-1.08-.146-.36-.293-.72-.426-1.08-.267-.706-.547-1.346-.734-1.973-.28-1.293-.6-2.387-.693-3.293-.12-1.827-.187-2.8-.187-2.8a.227.227 0 0 1 0-.134v-.093z" fill="#231F20"/>
        <path d="M9.813 78.373c0-14.613 18.2-26.466 40.667-26.466 22.453 0 40.667 11.853 40.667 26.466 0 14.614-18.214 26.454-40.667 26.454-22.467 0-40.667-11.84-40.667-26.454" fill="#FFF"/>
        <path d="M12.813 78.373s.054.68.174 1.974c.066.64.333 1.413.533 2.333.147.44.373.907.56 1.413.107.254.213.52.32.787.147.253.293.52.453.787 1.174 2.186 3.147 4.666 6.054 6.92 2.893 2.253 6.653 4.32 11.053 5.893 1.107.373 2.253.707 3.413 1.067 1.2.293 2.414.573 3.64.866 1.254.2 2.534.414 3.827.614 1.28.106 2.533.266 3.893.36.72.026 1.44.04 2.16.066l1.094.027.546.013h-.04.2l.254-.013c1.386-.053 2.8-.013 4.226-.16 1.4-.16 2.854-.2 4.267-.48.72-.107 1.44-.227 2.16-.347.72-.12 1.427-.306 2.147-.466 2.88-.614 5.693-1.614 8.453-2.76 2.733-1.227 5.347-2.734 7.733-4.52 2.307-1.854 4.36-4.014 5.84-6.454.76-1.2 1.307-2.546 1.72-3.8.12-.64.32-1.146.454-1.866l.2-2.494c-.014.454 0 .094-.014.174v-.067l-.013-.133-.013-.254-.04-.52L88 76.307c-.107-.694-.307-1.36-.44-2.04-.413-1.334-.933-2.654-1.68-3.88-1.453-2.48-3.493-4.68-5.8-6.587a40.825 40.825 0 0 0-7.72-4.653c-2.773-1.2-5.6-2.254-8.493-2.907-.734-.173-1.44-.373-2.16-.507-.734-.133-1.454-.253-2.174-.373-1.453-.307-2.853-.36-4.253-.547-1.387-.146-2.947-.133-4.387-.213-1.28-.027-2.76.08-4.106.107-5.467.346-10.56 1.453-15 3.066-4.44 1.614-8.214 3.774-11.094 6.12-2.906 2.334-4.84 4.88-5.986 7.107l-.44.8c-.107.267-.2.533-.294.8-.186.507-.413 1-.546 1.427-.08.426-.16.8-.254 1.146-.066.387-.213.6-.213 1.04-.107 1.56-.16 2.387-.16 2.387l.013-.227zm-6-.24s.08-.826.214-2.386c0-.334.173-.96.293-1.52.133-.574.293-1.214.453-1.907.214-.64.494-1.267.76-1.973.147-.347.294-.694.44-1.067.2-.333.387-.693.6-1.053 1.56-2.92 4.107-6.054 7.587-8.747 3.48-2.72 7.813-5.093 12.773-6.867 4.96-1.773 10.56-2.92 16.534-3.253 1.52-.027 2.933-.12 4.6-.107 1.493.067 2.906.027 4.506.174 1.587.173 3.227.24 4.8.546.787.12 1.587.254 2.387.387s1.587.347 2.387.52c3.2.693 6.373 1.8 9.52 3.12a46.609 46.609 0 0 1 8.973 5.293c5.507 4.4 10.467 10.8 10.493 19.307l-.173 2.493c-.133.92-.4 2.014-.627 3.014-.586 1.906-1.293 3.653-2.28 5.293-1.92 3.267-4.48 5.973-7.253 8.253-2.84 2.187-5.867 3.974-8.987 5.427-3.146 1.36-6.333 2.52-9.56 3.253-.8.187-1.586.414-2.4.56-.8.147-1.6.28-2.4.427-1.586.32-3.186.4-4.76.587-1.586.173-3.146.16-4.693.24l-.293.013h-.387l-.547-.027-1.093-.04a110.01 110.01 0 0 1-2.16-.066c-6.2-.387-11.733-1.587-16.76-3.414-5.013-1.813-9.36-4.266-12.813-7.08-3.467-2.773-5.987-5.973-7.52-8.946-.2-.36-.387-.72-.574-1.067-.146-.373-.293-.733-.426-1.08-.267-.707-.547-1.36-.734-1.987-.28-1.293-.6-2.373-.693-3.28-.12-1.826-.187-2.8-.187-2.8v-.24z" fill="#231F20"/>
        <path d="M97.573 43.733c0 22.147-21.093 40.107-47.093 40.107-26.013 0-47.093-17.96-47.093-40.107 0-22.16 21.08-40.12 47.093-40.12 26 0 47.093 17.96 47.093 40.12" fill="#FFF"/>
        <path d="M94.573 43.733s-.066-.986-.2-2.813c.014-.92-.28-2.027-.506-3.333-.16-1.32-.747-2.747-1.214-4.4-1.213-3.187-3.12-6.96-6.253-10.64-3.107-3.68-7.387-7.24-12.707-10.027-.666-.333-1.333-.693-2.013-1.04-.707-.307-1.44-.587-2.16-.88-.72-.28-1.44-.627-2.2-.867-.76-.226-1.533-.466-2.307-.706-1.533-.547-3.186-.774-4.813-1.174-1.64-.346-3.267-.44-4.933-.693-.894-.067-1.84-.08-2.76-.133l-1.4-.054-.707-.026h.053-.08l-.173.013-.333.013c-.88.027-1.774.067-2.68.107-.44.013-.894.013-1.347.053l-1.347.174c-.906.106-1.813.226-2.72.333-.906.16-1.8.373-2.706.56-1.84.307-3.587.96-5.4 1.493-7.08 2.48-13.934 6.667-18.987 12.64-2.493 2.987-4.693 6.28-6.053 9.947-.427.893-.614 1.853-.934 2.787-.133.453-.306.933-.413 1.386l-.253 1.374L6.76 39.2c-.04.227-.093.44-.12.693l-.053.8-.214 3.214c.014-.32.014-.04.014-.08l.013.08v.186l.027.374.04.733.08 1.467c-.014.973.266 1.933.4 2.893l.253 1.453c.12.48.28.934.413 1.414.307.92.48 1.893.894 2.786 1.333 3.694 3.506 7.04 5.973 10.067 5.027 6.067 11.893 10.36 19.027 12.947 1.813.546 3.586 1.226 5.44 1.56.906.2 1.826.44 2.72.6l2.68.36 1.32.186c.466.04.96.054 1.44.08.946.04 1.893.094 2.84.134l.586.026.68-.026 1.334-.067c.88-.053 1.773-.067 2.64-.133 6.986-.68 13.4-2.707 18.746-5.56 5.374-2.827 9.667-6.494 12.734-10.254 3.093-3.76 4.96-7.586 6.146-10.813.44-1.653 1.014-3.133 1.134-4.373.2-1.28.466-2.24.466-3.32.107-2 .16-3.08.16-3.08v.186zm5.987.174s-.067 1.066-.2 3.08c0 .933-.32 2.386-.6 3.986-.213 1.68-.867 3.334-1.44 5.294a42.658 42.658 0 0 1-7.307 12.493c-3.6 4.253-8.506 8.333-14.52 11.48-6 3.147-13.133 5.347-20.826 6.053-.96.067-1.934.08-2.92.134l-1.467.053-.733.027-.827-.027c-.947-.027-1.893-.067-2.853-.107-.48-.026-.947-.026-1.44-.066l-1.547-.187c-1.027-.12-2.067-.253-3.107-.387-1.026-.173-2.013-.413-3.04-.626-2.04-.36-4.026-1.08-6.053-1.68-7.96-2.8-15.733-7.507-21.587-14.427-2.88-3.453-5.44-7.32-7.066-11.667-.494-1.053-.734-2.2-1.094-3.293-.173-.547-.36-1.107-.493-1.667l-.32-1.706C.933 49.52.613 48.387.6 47.213l-.107-1.746L.44 44.6l-.027-.44-.013-.213-.013-.107c0-.12-.014.107 0-.293l.173-3.2.04-.814c.027-.266.093-.586.147-.88l.293-1.786.32-1.8c.133-.574.32-1.12.48-1.68.36-1.094.587-2.254 1.067-3.307 1.6-4.373 4.133-8.28 7-11.787 5.826-7 13.613-11.826 21.613-14.733 2.04-.627 4.027-1.36 6.093-1.747 1.027-.213 2.04-.48 3.054-.653 1.026-.147 2.053-.28 3.066-.413l1.52-.214c.507-.04 1.014-.053 1.52-.08C47.787.4 48.8.36 49.8.307l.373-.014.187-.013h.32l.707.04 1.4.067c.946.04 1.853.066 2.8.133 1.973.28 3.986.44 5.853.853 1.84.44 3.693.734 5.44 1.347.88.28 1.747.56 2.613.827.867.28 1.68.666 2.507.986.813.347 1.64.667 2.44 1.027.773.413 1.533.8 2.293 1.2 6.067 3.2 10.974 7.373 14.534 11.72 3.6 4.347 5.813 8.84 7.2 12.667.546 1.96 1.186 3.666 1.373 5.253.253 1.573.56 2.88.56 3.987.107 2.173.173 3.346.173 3.346l-.013.174z" fill="#231F20"/>
        <path d="M52.933 3.613l.547 42.28a3.013 3.013 0 0 1-2.96 3.04c-1.667.014-3.027-1.306-3.04-2.96v-.08l.547-42.28a2.447 2.447 0 0 1 2.48-2.426 2.48 2.48 0 0 1 2.426 2.426" fill="#231F20"/>
        <path d="M71.373 7.413s.04 2.107.107 5.814c.04 3.706.187 9 .24 15.346.027 3.174.067 6.614.093 10.254.027 1.826.04 3.693.067 5.6v1.44l-.013.8-.014.746a23.703 23.703 0 0 1-.453 3.454c-.96 4.506-3.507 8.813-7.227 11.906-3.693 3.12-8.573 4.947-13.493 4.987-4.907.053-9.84-1.68-13.587-4.72-3.773-3.027-6.413-7.28-7.44-11.773a19.69 19.69 0 0 1-.52-3.374c-.053-.56-.053-1.133-.066-1.666 0-.48.013-.96.013-1.44.013-1.92.04-3.787.053-5.6.04-3.64.067-7.08.107-10.254.04-6.346.187-11.64.24-15.346.067-3.707.107-5.827.107-5.827a2.396 2.396 0 0 1 2.44-2.347 2.397 2.397 0 0 1 2.36 2.347s.04 2.12.106 5.827c.04 3.706.2 9 .24 15.346.027 3.174.067 6.614.107 10.254.013 1.813.027 3.68.053 5.6v1.44c.014.413.014.813.054 1.226.066.827.186 1.64.386 2.454.774 3.24 2.707 6.333 5.454 8.506a15.56 15.56 0 0 0 9.84 3.347c3.56 0 7.066-1.293 9.773-3.533s4.573-5.347 5.28-8.614c.173-.8.307-1.68.347-2.386l.026-.707v-.653c.014-.48.014-.96.014-1.44.013-1.907.04-3.774.053-5.6.04-3.64.067-7.08.107-10.254.04-6.346.186-11.64.24-15.346.066-3.707.106-5.814.106-5.814a2.39 2.39 0 0 1 2.44-2.36 2.409 2.409 0 0 1 2.36 2.36" fill="#231F20"/>
    </g>
</svg>
