<svg width="167" height="167" xmlns="http://www.w3.org/2000/svg">
    <title>
        ta
    </title>
    <g fill="none" fill-rule="evenodd">
        <path d="M163.643 83.453c0 44.174-35.817 80-80 80s-80-35.826-80-80c0-44.186 35.817-80 80-80s80 35.814 80 80" fill="#FFF" fill-rule="nonzero"/>
        <path d="M163.643 83.453c0 44.174-35.817 80-80 80s-80-35.826-80-80c0-44.186 35.817-80 80-80s80 35.814 80 80z" stroke="#231F20" stroke-width="6.667"/>
        <path d="M48.168 36.253c10.29-6.56 22.455-10.586 35.489-10.586 13.19 0 25.49 3.88 35.858 10.586" fill="#FFF" fill-rule="nonzero"/>
        <path d="M46.979 34.253s.99-.653 2.722-1.773c.833-.56 1.99-1.2 3.33-1.92.667-.36 1.377-.747 2.125-1.16.763-.333 1.566-.707 2.404-1.08 1.66-.8 3.544-1.453 5.528-2.187.982-.386 2.039-.64 3.103-.96 1.071-.293 2.152-.653 3.289-.866a208.13 208.13 0 0 0 3.452-.68c1.164-.24 2.371-.32 3.573-.48 1.205-.16 2.42-.307 3.651-.32l1.846-.08.924-.04.463-.027.23-.013.334.013c2.372.12 4.645.12 7.171.48 2.492.213 4.807.72 7.076 1.16 1.13.227 2.218.56 3.289.853 1.068.294 2.118.574 3.104.96 1.992.707 3.874 1.374 5.537 2.174.84.373 1.645.733 2.41 1.08.735.4 1.434.773 2.09 1.133 1.316.707 2.453 1.333 3.339 1.933 1.79 1.174 2.813 1.84 2.813 1.84a2.332 2.332 0 0 1 .678 3.227 2.32 2.32 0 0 1-3.055.773l-.157-.08s-1-.546-2.75-1.493c-.852-.507-1.945-1.027-3.202-1.6-.625-.293-1.29-.6-1.99-.933-.72-.28-1.476-.574-2.265-.894-1.556-.68-3.313-1.213-5.163-1.786-.915-.334-1.89-.547-2.88-.774-.993-.213-1.985-.533-3.024-.72-2.08-.373-4.237-.813-6.378-.973-2.076-.293-4.527-.28-6.864-.373-1.088.04-2.176.066-3.26.106-1.121 0-2.23.12-3.329.254-1.096.133-2.198.186-3.263.4-1.067.186-2.122.386-3.16.573-1.042.173-2.027.52-3.021.733-.984.254-1.965.44-2.878.774-1.845.6-3.606 1.133-5.163 1.813-.79.307-1.545.613-2.265.893-.69.32-1.345.627-1.96.92-1.23.56-2.31 1.054-3.221 1.587-1.816.987-2.854 1.547-2.854 1.547a2.337 2.337 0 0 1-3.165-.947 2.34 2.34 0 0 1 .786-3.067m39.274 81.72c-.333 4.854-4.355 8.52-8.984 8.2-4.629-.32-8.112-4.493-7.78-9.346.333-4.84 4.355-8.507 8.984-8.187 4.63.307 8.112 4.493 7.78 9.333" fill="#231F20" fill-rule="nonzero"/>
        <path d="M107.634 116.227c-.387-.547-.753-1.134-1.154-1.667a56.1 56.1 0 0 0-2.732-3.373c-.467-.547-.95-1.08-1.452-1.6-.497-.52-.98-1.067-1.506-1.547-1.015-1.027-2.093-1.96-3.177-2.88-1.121-.867-2.22-1.773-3.415-2.493-1.153-.814-2.396-1.414-3.61-2.067-1.254-.507-2.549-1.12-3.718-1.373-1.056-.427-2.737-.56-4.201-.8.378.04.096.013.176.026h-.979l-.995-.013c-.662-.04-1.33.093-1.996.173-1.34.094-2.66.507-3.99.814-1.302.48-2.626.88-3.89 1.52-1.294.546-2.52 1.28-3.762 1.973-1.214.76-2.424 1.533-3.582 2.387-.596.413-1.156.88-1.726 1.32-.576.44-1.135.906-1.68 1.386a52.462 52.462 0 0 0-3.215 2.947c-1.026 1-2.07 2.107-2.932 3.107l.207-3.014a48.29 48.29 0 0 0 2.479 3.48c.882 1.16 1.81 2.28 2.782 3.36.475.56.966 1.094 1.476 1.6.504.52.995 1.054 1.53 1.547 1.03 1.013 2.123 1.933 3.222 2.853 1.136.854 2.25 1.76 3.457 2.467 1.166.8 2.422 1.387 3.647 2.04 1.265.48 2.568 1.08 3.747 1.333.615.16 1.136.374 1.956.44l2.064.28c1.327-.04 2.648.067 3.98-.2 1.334-.106 2.647-.546 3.967-.866 1.294-.494 2.606-.907 3.86-1.56 1.281-.547 2.495-1.307 3.723-2 1.2-.774 2.396-1.547 3.54-2.427.588-.4 1.141-.867 1.704-1.32a26.35 26.35 0 0 0 1.658-1.4 51.44 51.44 0 0 0 3.167-2.96c.474-.48.912-1 1.37-1.493zm6.135 2.186a55.086 55.086 0 0 1-3.302 3.52 59.304 59.304 0 0 1-3.508 3.214c-.596.533-1.21 1.04-1.842 1.52-.627.493-1.242 1-1.903 1.453-1.28.96-2.634 1.827-4.001 2.667-1.411.8-2.798 1.626-4.31 2.266-1.46.734-3.045 1.24-4.6 1.8-1.625.387-3.222.88-4.924 1.014-1.665.306-3.395.2-5.1.2l-2.444-.347c-.701-.053-1.623-.333-2.475-.56-1.796-.427-3.248-1.12-4.804-1.747-1.454-.786-2.942-1.506-4.275-2.44-1.397-.853-2.643-1.88-3.918-2.866-1.223-1.04-2.431-2.08-3.554-3.214-.585-.546-1.117-1.133-1.663-1.706a38.49 38.49 0 0 1-1.594-1.76 59.056 59.056 0 0 1-2.986-3.68 54.682 54.682 0 0 1-2.745-3.96 2.595 2.595 0 0 1 .208-3.027 50.524 50.524 0 0 1 3.26-3.56 63.96 63.96 0 0 1 3.461-3.24c.589-.52 1.194-1.04 1.82-1.52.62-.493 1.226-1.013 1.88-1.467 1.266-.96 2.606-1.84 3.96-2.706 1.397-.8 2.771-1.64 4.272-2.294 1.447-.733 3.022-1.253 4.567-1.826 1.616-.414 3.206-.907 4.904-1.067.839-.107 1.668-.267 2.529-.227l1.282-.013h1.261c.093.013-.178-.027.212.013 1.532.24 2.904.294 4.738.854 1.806.4 3.267 1.093 4.834 1.706 1.464.76 2.966 1.48 4.31 2.4 1.412.84 2.672 1.854 3.962 2.84 1.238 1.027 2.46 2.067 3.599 3.187.592.547 1.132 1.133 1.686 1.693.561.574 1.1 1.16 1.618 1.76a59.92 59.92 0 0 1 3.036 3.667c.982 1.28 1.875 2.507 2.804 3.973a2.92 2.92 0 0 1-.235 3.454l-.02.026z" fill="#231F20" fill-rule="nonzero"/>
        <path d="M2.101 82.787s.356-.44 1.022-1.28c.345-.414.72-.92 1.254-1.534.551-.6 1.185-1.306 1.895-2.08.719-.773 1.554-1.533 2.444-2.413.908-.867 1.948-1.72 3.038-2.667 2.272-1.76 4.873-3.733 7.964-5.466 3.073-1.747 6.524-3.467 10.345-4.827a69.167 69.167 0 0 1 12.33-3.173c4.343-.72 8.99-1 13.538-.827 4.769.2 9.4.933 14 2.173 4.576 1.24 9.024 2.974 13.139 5.2A63.903 63.903 0 0 1 94.4 73.6c6.782 5.813 11.781 12.707 14.909 19.16a57.606 57.606 0 0 1 3.525 9.147c.767 2.84 1.273 5.346 1.533 7.44.27 2.093.397 3.746.417 4.88l.056 1.733a3 3 0 0 1-2.9 3.093 3.006 3.006 0 0 1-3.096-2.906v-.027l-.004-.16-.035-1.533c-.005-1-.105-2.467-.324-4.32-.21-1.867-.64-4.094-1.29-6.627a51.324 51.324 0 0 0-3.072-8.213c-2.747-5.827-7.203-12.134-13.328-17.494a58.625 58.625 0 0 0-10.275-7.146c-3.742-2.067-7.798-3.707-11.982-4.894-4.159-1.173-8.558-1.906-12.73-2.12a62.734 62.734 0 0 0-12.655.64 64.925 64.925 0 0 0-11.46 2.814c-3.553 1.24-6.76 2.786-9.62 4.386-2.878 1.574-5.292 3.374-7.41 4.974-1.011.866-1.98 1.64-2.826 2.426-.82.8-1.616 1.507-2.262 2.187-.635.68-1.202 1.293-1.695 1.827-.493.546-.907 1.093-1.245 1.493-.675.813-1.035 1.253-1.035 1.253a2.253 2.253 0 0 1-3.167.32 2.25 2.25 0 0 1-.329-3.146" fill="#231F20" fill-rule="nonzero"/>
    </g>
</svg>
