<svg width="168" height="167" xmlns="http://www.w3.org/2000/svg">
    <title>
        tan
    </title>
    <g fill="none" fill-rule="evenodd">
        <path d="M4.017 140.693c0-22.466 35.651-29.88 79.834-29.88 44.182 0 80.18 10.054 80.18 30.4 0 13.747-12.358 22.24-27.822 22.24-17.333 0-28-9.04-28-22.786 0 12.653-8.666 20.8-24 20.8-16.666 0-24-8.147-24-20.8 0 13.746-11.666 22.786-28.333 22.786-15.464 0-27.859-9.013-27.859-22.76" fill="#FFF" fill-rule="nonzero"/>
        <path d="M7.352 140.707c.004 2.88.684 5.666 2.016 8.133 1.327 2.48 3.296 4.613 5.668 6.307 2.363 1.706 5.119 2.973 8.032 3.786 1.459.4 2.957.694 4.476.894 1.53.2 2.992.28 4.607.28 3.125.026 6.229-.307 9.188-1.054 2.958-.746 5.749-1.973 8.184-3.613 2.426-1.667 4.44-3.827 5.81-6.36 1.398-2.507 2.136-5.413 2.21-8.413l.002-.08a2.657 2.657 0 0 1 2.73-2.6 2.658 2.658 0 0 1 2.601 2.68c.15 2.76.599 5.44 1.63 7.76.982 2.333 2.473 4.32 4.453 5.76 1.973 1.453 4.348 2.493 6.942 3.106 1.296.307 2.635.534 4.006.654a42.15 42.15 0 0 0 4.208.186c1.305.014 2.742-.04 4.08-.186a27.642 27.642 0 0 0 3.969-.694c2.577-.653 4.943-1.746 6.959-3.213 2.012-1.48 3.589-3.453 4.646-5.747 1.108-2.28 1.622-4.92 1.774-7.626h5.333c.083 2.48.519 4.906 1.433 7.106s2.23 4.187 3.92 5.84c3.396 3.307 8.123 5.24 13.102 6.027 1.248.2 2.516.333 3.792.413.644.027 1.198.067 1.894.067l1.036.013.916-.026c2.542-.067 5.067-.36 7.488-.974 4.847-1.16 9.31-3.573 12.319-7.093 1.5-1.76 2.593-3.8 3.233-6 .324-1.067.532-2.307.608-3.347.098-1.32.088-2.346-.073-3.453-.576-4.36-3.675-8.227-7.739-11.173-4.066-2.96-8.941-5.134-13.957-6.88-5.039-1.734-10.29-3.014-15.61-4.027-10.654-1.987-21.57-2.92-32.497-3.227-5.445-.16-10.964-.133-16.432.027-5.477.173-10.944.467-16.378.947-5.434.493-10.839 1.16-16.16 2.133-5.316.973-10.562 2.24-15.53 4.04-4.942 1.8-9.686 4.147-13.282 7.427-1.788 1.64-3.242 3.506-4.198 5.56a14.875 14.875 0 0 0-1.073 3.213 18.75 18.75 0 0 0-.259 1.68l-.057.787-.02.96zm-6.667-.094l.031-1.04.1-1.293c.092-.8.219-1.6.39-2.4.351-1.6.89-3.16 1.594-4.627 1.408-2.96 3.47-5.493 5.773-7.56 4.659-4.146 10.098-6.68 15.522-8.613 5.453-1.92 11.01-3.187 16.573-4.187 5.567-.973 11.15-1.64 16.735-2.106 5.584-.467 11.168-.734 16.746-.867 5.587-.107 11.131-.147 16.742-.04 11.177.253 22.377 1.133 33.486 3.147 5.55 1.013 11.083 2.306 16.52 4.12 5.423 1.84 10.815 4.133 15.739 7.64 2.447 1.76 4.777 3.853 6.684 6.453 1.903 2.573 3.337 5.693 3.82 9.013.263 1.627.265 3.387.164 4.814a22.71 22.71 0 0 1-.83 4.813 22.855 22.855 0 0 1-4.522 8.52c-4.185 4.973-10.053 7.867-15.913 9.267a40.714 40.714 0 0 1-8.938 1.093c-.39 0-.708.013-1.157 0l-1.036-.027a71.628 71.628 0 0 1-2.25-.133 42.062 42.062 0 0 1-4.438-.587c-2.95-.533-5.885-1.426-8.681-2.733-2.778-1.347-5.41-3.147-7.603-5.44-2.19-2.293-3.924-5.053-4.973-8.04-1.071-2.96-1.466-6.093-1.42-9.133a2.666 2.666 0 0 1 5.319-.333v.026l.014.307c.15 3.293-.321 6.733-1.601 9.973-1.304 3.24-3.487 6.213-6.236 8.413-2.736 2.227-5.974 3.64-9.206 4.534a34.89 34.89 0 0 1-4.897.933 42.92 42.92 0 0 1-4.925.28 50.918 50.918 0 0 1-4.8-.28 34.849 34.849 0 0 1-4.88-.88c-3.232-.813-6.524-2.173-9.295-4.453-2.795-2.227-4.923-5.32-6.105-8.587-1.168-3.293-1.532-6.68-1.388-9.933h5.333c.095 3.733-.656 7.613-2.367 11.08-1.71 3.48-4.337 6.466-7.4 8.72-3.065 2.253-6.546 3.8-10.096 4.786-3.558 1-7.204 1.454-10.818 1.52a40.283 40.283 0 0 1-5.482-.306 36.377 36.377 0 0 1-5.437-1.054c-3.581-.973-7.075-2.52-10.199-4.746-3.104-2.227-5.814-5.174-7.653-8.667-1.855-3.48-2.767-7.44-2.74-11.307l.001-.04v-.04z" fill="#231F20" fill-rule="nonzero"/>
        <path d="M164.184 66.92c0 35.053-35.817 63.467-80 63.467s-80-28.414-80-63.467 35.817-63.467 80-63.467 80 28.414 80 63.467" fill="#FFF" fill-rule="nonzero"/>
        <path d="M164.184 66.92c0 35.053-35.817 63.467-80 63.467s-80-28.414-80-63.467 35.817-63.467 80-63.467 80 28.414 80 63.467z" stroke="#231F20" stroke-width="6.667"/>
        <path d="M48.71 29.48c10.29-5.213 22.454-8.4 35.489-8.4 13.189 0 25.489 3.08 35.857 8.4" fill="#FFF" fill-rule="nonzero"/>
        <path d="M47.717 27.36l2.82-1.467c.868-.48 2.067-.986 3.42-1.573.678-.293 1.398-.64 2.162-.933l2.42-.88c1.676-.64 3.557-1.134 5.528-1.734.981-.306 2.025-.493 3.073-.76 1.055-.226 2.127-.506 3.24-.653 1.11-.187 2.239-.36 3.38-.547 1.144-.16 2.313-.24 3.487-.36A39.219 39.219 0 0 1 80.8 18.2l1.793-.067.899-.026.45-.014.225-.013h.305c2.327.107 4.563.093 7.003.387 2.409.173 4.692.546 6.908.893 1.112.147 2.184.427 3.238.653 1.052.254 2.092.44 3.075.76 1.976.574 3.856 1.08 5.535 1.72.845.307 1.654.6 2.424.867.758.307 1.464.64 2.133.933 1.336.574 2.504 1.08 3.424 1.587 1.852.96 2.91 1.52 2.91 1.52a2.33 2.33 0 0 1-1.983 4.213l-.147-.066s-1.03-.427-2.832-1.2c-.884-.414-2.007-.8-3.285-1.267-.642-.227-1.315-.493-2.039-.733-.728-.227-1.495-.467-2.293-.707-1.583-.547-3.358-.933-5.212-1.4-.923-.267-1.903-.387-2.888-.587-.994-.16-1.986-.426-3.026-.56-2.07-.293-4.212-.613-6.348-.733-2.086-.24-4.481-.213-6.773-.28-1.085.027-2.17.053-3.25.067-1.11.013-2.211.08-3.3.186-1.091.107-2.18.16-3.243.307-1.063.16-2.112.307-3.146.453-1.04.12-2.032.387-3.022.56-.983.2-1.964.334-2.887.587-1.852.48-3.63.867-5.212 1.413-1.604.494-3.068.947-4.307 1.44-1.258.454-2.356.827-3.294 1.254-1.866.786-2.932 1.24-2.932 1.24a2.33 2.33 0 0 1-3.059-1.24 2.353 2.353 0 0 1 1.073-2.987M86.95 91.453c-.38 4.56-4.443 8.067-9.074 7.827-4.63-.24-8.073-4.133-7.692-8.707.381-4.56 4.445-8.066 9.075-7.826 4.63.24 8.073 4.133 7.692 8.706" fill="#231F20" fill-rule="nonzero"/>
        <path d="M108.256 91.333c-.357-.48-.69-.986-1.059-1.44a50.786 50.786 0 0 0-2.777-3.2c-.47-.533-.976-1.026-1.476-1.52a27.64 27.64 0 0 0-1.532-1.453c-1.024-.973-2.125-1.827-3.219-2.693-1.126-.8-2.253-1.614-3.448-2.28a14.039 14.039 0 0 0-1.796-.974c-.614-.28-1.202-.64-1.837-.853l-1.881-.707c-.616-.2-1.2-.306-1.799-.48-.308-.066-.57-.173-.917-.226l-1.11-.147-1.108-.133-.554-.067-.07-.013h-.034c-.17-.014.209.013.165.013h-.139l-.245.013-1.97.014c-.658 0-1.318.146-1.978.213l-.99.133-.985.227c-.654.173-1.317.293-1.966.507-1.295.44-2.596.866-3.854 1.466a17.56 17.56 0 0 0-1.882.907c-.615.333-1.247.627-1.851.987-1.212.72-2.415 1.453-3.575 2.28-1.162.813-2.313 1.653-3.413 2.56a56.54 56.54 0 0 0-3.237 2.813c-1.036.947-2.094 2-2.97 2.973l.227-3.146a42.36 42.36 0 0 0 2.516 3.333 52.017 52.017 0 0 0 2.828 3.2c.479.52.992 1.013 1.5 1.507.5.506 1.019.986 1.555 1.44 1.04.96 2.157 1.813 3.264 2.666 1.142.8 2.282 1.6 3.489 2.254.585.373 1.195.68 1.815.96.621.266 1.214.626 1.854.826l1.895.694c.621.186 1.21.293 1.812.453.31.08.572.173.921.227l1.111.12 1.11.133.555.053.07.014h.034c.168.013-.209-.014-.165-.014h.139l.246-.013 1.968-.027c.656-.013 1.315-.173 1.972-.253l.987-.133.979-.24c.65-.187 1.31-.307 1.954-.534 1.287-.453 2.578-.893 3.823-1.506.633-.267 1.259-.56 1.865-.92.61-.334 1.235-.64 1.832-1 1.199-.734 2.388-1.48 3.535-2.307a53.304 53.304 0 0 0 3.37-2.6c1.1-.893 2.165-1.84 3.191-2.827.434-.4.834-.853 1.255-1.28zm6.168 2.254a51.943 51.943 0 0 1-3.344 3.373 64.857 64.857 0 0 1-3.53 3.053c-1.2 1-2.46 1.92-3.742 2.814-1.279.906-2.617 1.733-3.975 2.533-.676.413-1.396.747-2.092 1.133a20.57 20.57 0 0 1-2.153 1.027c-1.44.693-2.973 1.2-4.504 1.72-.77.24-1.577.4-2.365.613l-1.192.28-1.227.16c-.821.094-1.628.267-2.461.267l-2.5.027h-.469l-.22-.014h-.035l-.07-.013-.554-.067-1.108-.133-1.11-.147c-.385-.053-.837-.186-1.253-.28-.837-.213-1.716-.4-2.512-.653l-2.298-.853c-.776-.267-1.468-.694-2.206-1.027a19.349 19.349 0 0 1-2.122-1.147c-1.402-.786-2.696-1.706-3.984-2.64-1.243-.973-2.487-1.946-3.63-3.013a30.965 30.965 0 0 1-1.704-1.613c-.553-.56-1.113-1.094-1.632-1.68a54.488 54.488 0 0 1-3.058-3.534 47.67 47.67 0 0 1-2.816-3.826c-.658-1-.535-2.28.22-3.134h.006a52.836 52.836 0 0 1 3.304-3.4 63.798 63.798 0 0 1 3.482-3.08c1.185-1 2.43-1.933 3.7-2.84 1.264-.906 2.59-1.746 3.934-2.56.67-.413 1.383-.76 2.074-1.146a20.26 20.26 0 0 1 2.136-1.04c1.428-.707 2.952-1.227 4.473-1.76.764-.254 1.57-.427 2.353-.64l1.187-.28 1.223-.187c.818-.093 1.624-.267 2.456-.293l2.498-.04h.314l.156-.014.324.04.554.054 1.11.133 1.11.12c.387.053.84.187 1.258.267.84.213 1.725.386 2.525.64l2.312.84c.781.253 1.48.666 2.223 1 .741.333 1.461.706 2.141 1.133 1.415.773 2.723 1.693 4.025 2.6 1.256.973 2.516 1.933 3.674 3 .598.52 1.176 1.053 1.728 1.6.561.547 1.13 1.093 1.657 1.667a59.34 59.34 0 0 1 3.108 3.52 48.156 48.156 0 0 1 2.877 3.84 2.902 2.902 0 0 1-.253 3.573l-.024.027z" fill="#231F20" fill-rule="nonzero"/>
        <path d="M2.61 64.453s.374-.36 1.075-1.053c.367-.347.744-.773 1.328-1.28.576-.507 1.238-1.08 1.979-1.733l2.513-1.947c.95-.653 1.967-1.387 3.088-2.107 2.259-1.413 4.871-2.906 7.847-4.253 2.979-1.32 6.27-2.64 9.86-3.653a85.418 85.418 0 0 1 11.448-2.467 92.958 92.958 0 0 1 12.503-.827c2.016.014 4.278.107 6.426.307 2.156.187 4.318.453 6.459.827 8.581 1.466 16.93 4.453 24.021 8.653 7.12 4.16 12.934 9.547 16.807 15.067a41.092 41.092 0 0 1 4.488 8.08c1.081 2.546 1.693 4.933 2.083 6.893.189.987.34 1.88.406 2.653.09.787.163 1.454.17 1.987l.065 1.653a2.996 2.996 0 0 1-2.877 3.12 3 3 0 0 1-3.115-2.88l-.001-.026-.007-.214-.04-1.36c.004-.44-.055-.986-.121-1.626-.043-.654-.164-1.387-.311-2.2-.305-1.64-.784-3.627-1.677-5.8a35.74 35.74 0 0 0-3.779-6.974c-3.312-4.853-8.447-9.773-14.912-13.64-6.43-3.92-14.132-6.786-22.113-8.24-1.992-.386-4.008-.653-6.02-.853-2.022-.2-3.93-.307-6.052-.347a87.156 87.156 0 0 0-11.74.64 82.548 82.548 0 0 0-10.778 2.214c-3.377.92-6.461 2.12-9.25 3.32-2.787 1.226-5.219 2.586-7.319 3.866-1.043.654-1.983 1.307-2.865 1.907-.843.64-1.618 1.227-2.318 1.76-.65.547-1.232 1.053-1.737 1.48-.505.413-.947.893-1.3 1.227-.708.68-1.085 1.053-1.085 1.053a2.26 2.26 0 0 1-3.182-.053 2.26 2.26 0 0 1 .034-3.174" fill="#231F20" fill-rule="nonzero"/>
    </g>
</svg>
