<svg width="168" height="167" xmlns="http://www.w3.org/2000/svg">
    <title>
        te
    </title>
    <g fill="none" fill-rule="evenodd">
        <path d="M164.143 83.453c0 44.174-35.818 80-80 80-44.183 0-80-35.826-80-80 0-44.186 35.817-80 80-80 44.182 0 80 35.814 80 80" fill="#FFF" fill-rule="nonzero"/>
        <path d="M164.143 83.453c0 44.174-35.818 80-80 80-44.183 0-80-35.826-80-80 0-44.186 35.817-80 80-80 44.182 0 80 35.814 80 80z" stroke="#231F20" stroke-width="6.667"/>
        <path d="M48.668 36.253c10.29-6.56 22.455-10.586 35.49-10.586 13.189 0 25.489 3.88 35.857 10.586" fill="#FFF" fill-rule="nonzero"/>
        <path d="M47.479 34.253s.99-.653 2.722-1.773c.834-.56 1.991-1.2 3.33-1.92.666-.36 1.377-.747 2.125-1.16.764-.333 1.567-.707 2.404-1.08 1.659-.8 3.544-1.453 5.528-2.187.983-.386 2.039-.64 3.103-.96 1.07-.293 2.153-.653 3.289-.866 1.133-.214 2.285-.44 3.452-.68 1.164-.24 2.37-.32 3.573-.48 1.204-.16 2.42-.307 3.651-.32l1.845-.08.926-.04.461-.027.232-.013.332.013c2.372.12 4.647.12 7.172.48 2.492.213 4.808.72 7.076 1.16 1.13.227 2.217.56 3.288.853 1.07.294 2.12.574 3.105.96 1.992.707 3.874 1.374 5.538 2.174.838.373 1.644.733 2.409 1.08.736.4 1.433.773 2.09 1.133 1.315.707 2.453 1.333 3.338 1.933 1.79 1.174 2.813 1.84 2.813 1.84a2.331 2.331 0 0 1 .679 3.227 2.32 2.32 0 0 1-3.056.773l-.156-.08s-1-.546-2.75-1.493c-.851-.507-1.945-1.027-3.202-1.6-.624-.293-1.29-.6-1.99-.933-.72-.28-1.475-.574-2.265-.894-1.556-.68-3.313-1.213-5.164-1.786-.914-.334-1.889-.547-2.878-.774-.994-.213-1.987-.533-3.026-.72-2.078-.373-4.236-.813-6.377-.973-2.076-.293-4.527-.28-6.864-.373-1.088.04-2.176.066-3.26.106-1.121 0-2.23.12-3.328.254-1.097.133-2.199.186-3.264.4-1.067.186-2.121.386-3.159.573-1.044.173-2.028.52-3.022.733-.984.254-1.964.44-2.878.774-1.845.6-3.606 1.133-5.162 1.813-.79.307-1.547.613-2.266.893-.69.32-1.345.627-1.96.92-1.23.56-2.31 1.054-3.221 1.587a1032.7 1032.7 0 0 1-2.855 1.547 2.336 2.336 0 0 1-3.164-.947 2.34 2.34 0 0 1 .786-3.067m39.731 29.64s.045 1.027.12 2.827c.05 1.8.171 4.36.226 7.453.05 3.08.167 6.68.185 10.534l.08 12.08-.081 12.066c-.025 3.854-.136 7.454-.187 10.534-.056 3.093-.174 5.653-.224 7.453-.074 1.8-.118 2.827-.118 2.827a3.06 3.06 0 0 1-3.183 2.933c-1.597-.067-2.857-1.36-2.928-2.933l-.119-2.827c-.049-1.8-.168-4.36-.224-7.453-.049-3.08-.161-6.68-.186-10.534-.026-3.853-.054-7.96-.08-12.066l.078-12.08c.019-3.854.136-7.454.187-10.534.053-3.093.176-5.653.225-7.453l.119-2.827c.07-1.693 1.497-3 3.184-2.933 1.597.067 2.856 1.36 2.927 2.933" fill="#231F20" fill-rule="nonzero"/>
        <path d="M51.265 93.72s1.028-.04 2.827-.12c1.799-.04 4.368-.16 7.452-.213 3.083-.054 6.68-.16 10.535-.187 3.854-.027 7.965-.053 12.077-.08 4.11.027 8.221.053 12.076.08 3.855.013 7.452.133 10.535.187 3.084.053 5.653.173 7.452.213 1.798.08 2.826.12 2.826.12a3.07 3.07 0 0 1 2.927 3.187c-.068 1.6-1.36 2.853-2.927 2.933 0 0-1.028.04-2.826.12-1.799.04-4.368.16-7.452.227-3.083.04-6.68.16-10.535.173-3.855.027-7.965.053-12.076.08-4.112-.027-8.223-.053-12.077-.08-3.855-.027-7.452-.133-10.535-.187-3.084-.053-5.653-.173-7.452-.213-1.799-.08-2.827-.12-2.827-.12a3.065 3.065 0 0 1-2.928-3.187c.067-1.6 1.36-2.853 2.928-2.933" fill="#231F20" fill-rule="nonzero"/>
    </g>
</svg>
