<svg width="167" height="167" xmlns="http://www.w3.org/2000/svg">
    <title>
        ten
    </title>
    <g fill="none" fill-rule="evenodd">
        <path d="M3.517 140.693c0-22.466 35.651-29.88 79.83-29.88 44.186 0 80.186 10.054 80.186 30.4 0 13.747-12.36 22.24-27.826 22.24-17.334 0-28-9.04-28-22.786 0 12.653-8.667 20.8-24 20.8-16.667 0-24-8.147-24-20.8 0 13.746-11.664 22.786-28.331 22.786-15.464 0-27.859-9.013-27.859-22.76" fill="#FFF" fill-rule="nonzero"/>
        <path d="M6.852 140.707c.004 2.88.684 5.666 2.016 8.133 1.327 2.48 3.296 4.613 5.668 6.307 2.363 1.706 5.119 2.973 8.032 3.786 1.459.4 2.957.694 4.476.894 1.53.2 2.992.28 4.607.28 3.125.026 6.229-.307 9.188-1.054 2.958-.746 5.749-1.973 8.184-3.613 2.428-1.667 4.444-3.827 5.817-6.36 1.387-2.507 2.133-5.413 2.2-8.413v-.08a2.666 2.666 0 0 1 2.733-2.6 2.655 2.655 0 0 1 2.6 2.68c.16 2.76.6 5.44 1.627 7.76.987 2.333 2.48 4.32 4.453 5.76 1.974 1.453 4.347 2.493 6.947 3.106a28.12 28.12 0 0 0 4 .654c1.427.133 2.64.186 4.213.186 1.307.014 2.747-.04 4.08-.186 1.36-.134 2.68-.374 3.974-.694 2.573-.653 4.933-1.746 6.96-3.213 2.013-1.48 3.586-3.453 4.64-5.747 1.106-2.28 1.626-4.92 1.773-7.626h5.333c.08 2.48.52 4.906 1.44 7.106a17.396 17.396 0 0 0 3.92 5.84c3.387 3.307 8.12 5.24 13.094 6.027 1.253.2 2.52.333 3.8.413.64.027 1.2.067 1.893.067l1.04.013.907-.026c2.546-.067 5.066-.36 7.493-.974 4.84-1.16 9.307-3.573 12.32-7.093a16.296 16.296 0 0 0 3.227-6c.32-1.067.533-2.307.613-3.347.093-1.32.08-2.346-.08-3.453-.573-4.36-3.667-8.227-7.733-11.173-4.067-2.96-8.947-5.134-13.96-6.88-5.04-1.734-10.294-3.014-15.614-4.027-10.653-1.987-21.56-2.92-32.493-3.227-5.44-.16-10.96-.133-16.427.027-5.48.173-10.946.467-16.386.947-5.43.493-10.835 1.16-16.156 2.133-5.316.973-10.562 2.24-15.53 4.04-4.942 1.8-9.686 4.147-13.282 7.427-1.788 1.64-3.242 3.506-4.198 5.56a14.875 14.875 0 0 0-1.073 3.213 18.75 18.75 0 0 0-.259 1.68l-.057.787-.02.96zm-6.667-.094l.031-1.04.1-1.293c.092-.8.219-1.6.392-2.4.35-1.6.888-3.16 1.592-4.627 1.408-2.96 3.47-5.493 5.773-7.56 4.659-4.146 10.098-6.68 15.522-8.613 5.453-1.92 11.01-3.187 16.573-4.187 5.567-.973 11.15-1.64 16.739-2.106 5.573-.467 11.16-.734 16.746-.867 5.587-.107 11.134-.147 16.734-.04 11.186.253 22.386 1.133 33.493 3.147 5.547 1.013 11.08 2.306 16.52 4.12 5.427 1.84 10.813 4.133 15.733 7.64 2.454 1.76 4.774 3.853 6.68 6.453 1.907 2.573 3.347 5.693 3.827 9.013.267 1.627.267 3.387.16 4.814a21.894 21.894 0 0 1-.827 4.813 22.849 22.849 0 0 1-4.52 8.52c-4.186 4.973-10.053 7.867-15.92 9.267a40.63 40.63 0 0 1-8.933 1.093c-.387 0-.707.013-1.16 0l-1.027-.027c-.693-.026-1.52-.08-2.253-.133a42.18 42.18 0 0 1-4.44-.587 35.459 35.459 0 0 1-8.68-2.733c-2.773-1.347-5.413-3.147-7.6-5.44-2.2-2.293-3.933-5.053-4.973-8.04-1.08-2.96-1.467-6.093-1.427-9.133a2.668 2.668 0 0 1 2.493-2.827 2.668 2.668 0 0 1 2.827 2.493v.027l.013.307c.147 3.293-.32 6.733-1.6 9.973-1.306 3.24-3.48 6.213-6.24 8.413-2.733 2.227-5.973 3.64-9.2 4.534a35.13 35.13 0 0 1-4.893.933 42.93 42.93 0 0 1-4.933.28 50.969 50.969 0 0 1-4.8-.28 35.094 35.094 0 0 1-4.88-.88c-3.227-.813-6.52-2.173-9.294-4.453-2.786-2.227-4.92-5.32-6.106-8.587-1.16-3.293-1.534-6.68-1.387-9.933h5.333c.094 3.733-.653 7.613-2.36 11.08-1.72 3.48-4.346 6.466-7.404 8.72-3.065 2.253-6.546 3.8-10.096 4.786-3.558 1-7.204 1.454-10.818 1.52a40.283 40.283 0 0 1-5.482-.306 36.377 36.377 0 0 1-5.437-1.054c-3.581-.973-7.075-2.52-10.199-4.746-3.104-2.227-5.814-5.174-7.653-8.667-1.855-3.48-2.767-7.44-2.74-11.307l.001-.04v-.04z" fill="#231F20" fill-rule="nonzero"/>
        <path d="M163.68 66.92c0 35.053-35.813 63.467-80 63.467-44.179 0-79.996-28.414-79.996-63.467S39.501 3.453 83.68 3.453c44.187 0 80 28.414 80 63.467" fill="#FFF" fill-rule="nonzero"/>
        <path d="M163.68 66.92c0 35.053-35.813 63.467-80 63.467-44.179 0-79.996-28.414-79.996-63.467S39.501 3.453 83.68 3.453c44.187 0 80 28.414 80 63.467z" stroke="#231F20" stroke-width="6.667"/>
        <path d="M48.21 29.48c10.283-5.213 22.457-8.4 35.483-8.4 13.2 0 25.494 3.08 35.867 8.4" fill="#FFF" fill-rule="nonzero"/>
        <path d="M47.217 27.36l2.82-1.467c.868-.48 2.067-.986 3.416-1.573.68-.293 1.4-.64 2.16-.933.774-.28 1.587-.574 2.427-.88 1.68-.64 3.56-1.134 5.52-1.734.987-.306 2.027-.493 3.08-.76 1.053-.226 2.133-.506 3.24-.653 1.107-.187 2.24-.36 3.387-.547 1.133-.16 2.306-.24 3.48-.36a39.228 39.228 0 0 1 3.56-.253l1.786-.067.894-.026.453-.014.227-.013h.306c2.32.107 4.56.093 7 .387 2.414.173 4.694.546 6.907.893 1.12.147 2.187.427 3.24.653 1.053.254 2.093.44 3.08.76 1.973.574 3.853 1.08 5.533 1.72.84.307 1.654.6 2.427.867.76.307 1.453.64 2.133.933 1.334.574 2.494 1.08 3.414 1.587 1.853.96 2.92 1.52 2.92 1.52 1.133.6 1.573 2 .973 3.147a2.32 2.32 0 0 1-2.96 1.066l-.147-.066s-1.026-.427-2.84-1.2c-.88-.414-2-.8-3.28-1.267-.64-.227-1.306-.493-2.04-.733-.72-.227-1.493-.467-2.293-.707-1.573-.547-3.36-.933-5.213-1.4-.92-.267-1.894-.387-2.88-.587-1-.16-1.987-.426-3.027-.56-2.067-.293-4.213-.613-6.347-.733-2.093-.24-4.48-.213-6.773-.28-1.093.027-2.173.053-3.253.067a38.94 38.94 0 0 0-3.307.186c-1.08.107-2.173.16-3.24.307-1.053.16-2.107.307-3.147.453-1.04.12-2.026.387-3.013.56-.987.2-1.973.334-2.893.587-1.854.48-3.627.867-5.214 1.413-1.6.494-3.066.947-4.306 1.44-1.254.454-2.354.827-3.292 1.254-1.866.786-2.932 1.24-2.932 1.24a2.33 2.33 0 0 1-3.059-1.24 2.353 2.353 0 0 1 1.073-2.987m39.53 20.4s.053.933.12 2.56c.053 1.627.173 3.947.226 6.733.054 2.787.174 6.04.187 9.52.027 3.494.053 7.2.08 10.92-.027 3.72-.053 7.44-.08 10.92-.027 3.48-.133 6.734-.187 9.534-.053 2.786-.173 5.106-.226 6.733a167.45 167.45 0 0 1-.12 2.547 3.047 3.047 0 0 1-3.187 2.92c-1.587-.067-2.84-1.36-2.92-2.92 0 0-.04-.92-.12-2.547-.04-1.627-.16-3.947-.227-6.733-.04-2.8-.16-6.054-.186-9.534-.014-3.48-.054-7.2-.08-10.92.026-3.72.053-7.426.08-10.92.026-3.48.146-6.733.186-9.52.054-2.786.174-5.106.227-6.733.08-1.627.12-2.56.12-2.56a3.048 3.048 0 0 1 3.2-2.907 3.043 3.043 0 0 1 2.907 2.907" fill="#231F20" fill-rule="nonzero"/>
        <path d="M50.807 74.44s1.028-.04 2.833-.12c1.787-.053 4.36-.16 7.44-.227 3.093-.04 6.68-.16 10.547-.186 3.853-.027 7.96-.054 12.066-.08 4.12.026 8.227.053 12.08.08 3.854.026 7.454.133 10.534.186 3.08.054 5.653.174 7.453.227 1.8.08 2.827.12 2.827.12 1.693.067 3 1.493 2.933 3.187a3.07 3.07 0 0 1-2.933 2.92s-1.027.053-2.827.12c-1.8.053-4.373.173-7.453.226-3.08.054-6.68.174-10.534.187-3.853.027-7.96.053-12.08.08-4.106-.027-8.213-.053-12.066-.08-3.867-.027-7.454-.133-10.547-.187-3.08-.053-5.653-.173-7.44-.226-1.805-.067-2.833-.12-2.833-.12a3.051 3.051 0 0 1-2.927-3.174 3.07 3.07 0 0 1 2.927-2.933" fill="#231F20" fill-rule="nonzero"/>
    </g>
</svg>
