<svg width="168" height="167" xmlns="http://www.w3.org/2000/svg">
    <title>
        to
    </title>
    <g fill="none" fill-rule="evenodd">
        <path d="M163.768 83.453c0 44.174-35.817 80-80 80s-80-35.826-80-80c0-44.186 35.817-80 80-80s80 35.814 80 80" fill="#FFF" fill-rule="nonzero"/>
        <path d="M163.768 83.453c0 44.174-35.817 80-80 80s-80-35.826-80-80c0-44.186 35.817-80 80-80s80 35.814 80 80z" stroke="#231F20" stroke-width="6.667"/>
        <path d="M48.293 36.253c10.29-6.56 22.455-10.586 35.488-10.586 13.191 0 25.491 3.88 35.859 10.586" fill="#FFF" fill-rule="nonzero"/>
        <path d="M47.104 34.253s.99-.653 2.721-1.773c.834-.56 1.991-1.2 3.331-1.92.667-.36 1.376-.747 2.125-1.16.763-.333 1.567-.707 2.404-1.08 1.659-.8 3.543-1.453 5.528-2.187.982-.386 2.039-.64 3.103-.96 1.07-.293 2.152-.653 3.29-.866 1.133-.214 2.285-.44 3.451-.68 1.164-.24 2.371-.32 3.574-.48 1.204-.16 2.42-.307 3.65-.32l1.846-.08.924-.04.462-.027.232-.013.332.013c2.372.12 4.646.12 7.172.48 2.492.213 4.807.72 7.075 1.16 1.13.227 2.219.56 3.29.853 1.069.294 2.118.574 3.103.96 1.992.707 3.875 1.374 5.539 2.174.839.373 1.643.733 2.408 1.08.736.4 1.435.773 2.09 1.133 1.317.707 2.454 1.333 3.34 1.933 1.79 1.174 2.813 1.84 2.813 1.84a2.332 2.332 0 0 1 .678 3.227 2.32 2.32 0 0 1-3.056.773l-.156-.08s-1-.546-2.749-1.493c-.853-.507-1.945-1.027-3.203-1.6-.625-.293-1.289-.6-1.99-.933-.72-.28-1.476-.574-2.266-.894-1.556-.68-3.313-1.213-5.162-1.786-.915-.334-1.89-.547-2.879-.774-.995-.213-1.987-.533-3.025-.72-2.079-.373-4.236-.813-6.378-.973-2.076-.293-4.528-.28-6.864-.373-1.088.04-2.177.066-3.261.106-1.12 0-2.23.12-3.328.254-1.096.133-2.199.186-3.263.4-1.068.186-2.122.386-3.16.573-1.042.173-2.028.52-3.021.733-.984.254-1.965.44-2.877.774-1.846.6-3.607 1.133-5.164 1.813-.79.307-1.546.613-2.264.893-.691.32-1.346.627-1.962.92-1.229.56-2.309 1.054-3.22 1.587-1.817.987-2.854 1.547-2.854 1.547a2.336 2.336 0 0 1-3.164-.947 2.34 2.34 0 0 1 .785-3.067" fill="#231F20" fill-rule="nonzero"/>
        <path d="M109.78 89.12c0 14.36-11.64 26-26 26-14.359 0-26-11.64-26-26s11.641-26 26-26c14.36 0 26 11.64 26 26" fill="#FFF" fill-rule="nonzero"/>
        <path d="M109.78 89.12c0 14.36-11.64 26-26 26-14.359 0-26-11.64-26-26s11.641-26 26-26c14.36 0 26 11.64 26 26z" stroke="#231F20" stroke-width="6.667"/>
        <path d="M93.78 87.973c0 5.52-4.477 10-10 10s-10-4.48-10-10 4.477-10 10-10 10 4.48 10 10" fill="#231F20" fill-rule="nonzero"/>
    </g>
</svg>
