<svg width="168" height="167" xmlns="http://www.w3.org/2000/svg">
    <title>
        ton
    </title>
    <g fill="none" fill-rule="evenodd">
        <path d="M4.147 140.693c0-22.466 35.64-29.88 79.826-29.88 44.187 0 80.187 10.054 80.187 30.4 0 13.747-12.36 22.24-27.827 22.24-17.333 0-28-9.04-28-22.786 0 12.653-8.666 20.8-24 20.8-16.666 0-24-8.147-24-20.8 0 13.746-11.666 22.786-28.333 22.786-15.467 0-27.853-9.013-27.853-22.76" fill="#FFF" fill-rule="nonzero"/>
        <path d="M7.48 140.707c0 2.88.68 5.666 2.013 8.133 1.32 2.48 3.294 4.613 5.667 6.307 2.36 1.706 5.12 2.973 8.027 3.786 1.466.4 2.96.694 4.48.894 1.533.2 3 .28 4.613.28 3.12.026 6.227-.307 9.187-1.054 2.96-.746 5.746-1.973 8.186-3.613 2.427-1.667 4.44-3.827 5.8-6.36 1.4-2.507 2.147-5.413 2.214-8.413v-.08a2.666 2.666 0 0 1 2.733-2.6 2.655 2.655 0 0 1 2.6 2.68c.147 2.76.6 5.44 1.627 7.76.986 2.333 2.48 4.32 4.453 5.76 1.973 1.453 4.347 2.493 6.947 3.106a28.12 28.12 0 0 0 4 .654c1.426.133 2.626.186 4.213.186 1.307.014 2.747-.04 4.08-.186 1.36-.134 2.68-.374 3.973-.694 2.574-.653 4.934-1.746 6.96-3.213a14.81 14.81 0 0 0 4.64-5.747c1.107-2.28 1.627-4.92 1.774-7.626H111c.08 2.48.52 4.906 1.44 7.106a17.396 17.396 0 0 0 3.92 5.84c3.387 3.307 8.12 5.24 13.093 6.027 1.254.2 2.52.333 3.8.413.64.027 1.187.067 1.894.067l1.026.013.92-.026c2.547-.067 5.067-.36 7.494-.974 4.84-1.16 9.306-3.573 12.32-7.093a16.296 16.296 0 0 0 3.226-6c.32-1.067.534-2.307.614-3.347.093-1.32.08-2.346-.08-3.453-.574-4.36-3.667-8.227-7.734-11.173-4.066-2.96-8.946-5.134-13.96-6.88-5.04-1.734-10.293-3.014-15.613-4.027-10.653-1.987-21.573-2.92-32.493-3.227-5.44-.16-10.96-.133-16.427.027-5.48.173-10.947.467-16.387.947-5.426.493-10.84 1.16-16.16 2.133-5.32.973-10.56 2.24-15.533 4.04-4.933 1.8-9.68 4.147-13.28 7.427-1.787 1.64-3.24 3.506-4.2 5.56a15.152 15.152 0 0 0-1.067 3.213c-.12.547-.2 1.12-.253 1.68l-.067.787-.013.96zm-6.667-.094l.027-1.04.107-1.293a21.554 21.554 0 0 1 1.973-7.027c1.413-2.96 3.48-5.493 5.773-7.56 4.667-4.146 10.107-6.68 15.52-8.613 5.454-1.92 11.014-3.187 16.574-4.187 5.573-.973 11.16-1.64 16.746-2.106 5.574-.467 11.16-.734 16.747-.867 5.587-.107 11.12-.147 16.733-.04 11.174.253 22.374 1.133 33.494 3.147 5.546 1.013 11.08 2.306 16.52 4.12 5.413 1.84 10.813 4.133 15.733 7.64 2.453 1.76 4.773 3.853 6.68 6.453 1.907 2.573 3.347 5.693 3.827 9.013.266 1.627.266 3.387.16 4.814-.12 1.72-.374 3.226-.827 4.813a22.849 22.849 0 0 1-4.52 8.52c-4.187 4.973-10.053 7.867-15.92 9.267a40.63 40.63 0 0 1-8.933 1.093c-.387 0-.707.013-1.16 0l-1.04-.027a70.47 70.47 0 0 1-2.24-.133 42.18 42.18 0 0 1-4.44-.587c-2.947-.533-5.894-1.426-8.68-2.733-2.787-1.347-5.414-3.147-7.6-5.44-2.2-2.293-3.934-5.053-4.974-8.04-1.08-2.96-1.466-6.093-1.426-9.133a2.668 2.668 0 0 1 2.493-2.827 2.668 2.668 0 0 1 2.827 2.493v.027l.013.307c.147 3.293-.32 6.733-1.6 9.973-1.307 3.24-3.493 6.213-6.24 8.413-2.733 2.227-5.973 3.64-9.2 4.534a35.13 35.13 0 0 1-4.893.933c-1.654.187-3.227.28-4.934.28a50.969 50.969 0 0 1-4.8-.28 35.094 35.094 0 0 1-4.88-.88c-3.226-.813-6.52-2.173-9.293-4.453-2.8-2.227-4.92-5.32-6.107-8.587-1.16-3.293-1.533-6.68-1.386-9.933H63c.093 3.733-.653 7.613-2.36 11.08-1.72 3.48-4.347 6.466-7.4 8.72-3.067 2.253-6.547 3.8-10.107 4.786-3.56 1-7.2 1.454-10.813 1.52-1.76.027-3.667-.08-5.48-.306a36.28 36.28 0 0 1-5.44-1.054c-3.587-.973-7.08-2.52-10.2-4.746-3.107-2.227-5.813-5.174-7.653-8.667-1.854-3.48-2.76-7.44-2.734-11.307v-.08z" fill="#231F20" fill-rule="nonzero"/>
        <path d="M164.307 66.92c0 35.053-35.814 63.467-80 63.467-44.187 0-80-28.414-80-63.467s35.813-63.467 80-63.467c44.186 0 80 28.414 80 63.467" fill="#FFF" fill-rule="nonzero"/>
        <path d="M164.307 66.92c0 35.053-35.814 63.467-80 63.467-44.187 0-80-28.414-80-63.467s35.813-63.467 80-63.467c44.186 0 80 28.414 80 63.467z" stroke="#231F20" stroke-width="6.667"/>
        <path d="M48.84 29.48c10.28-5.213 22.453-8.4 35.48-8.4 13.2 0 25.493 3.08 35.867 8.4" fill="#FFF" fill-rule="nonzero"/>
        <path d="M47.84 27.36l2.827-1.467c.866-.48 2.066-.986 3.413-1.573.68-.293 1.4-.64 2.16-.933.773-.28 1.587-.574 2.427-.88 1.666-.64 3.56-1.134 5.52-1.734.986-.306 2.026-.493 3.08-.76 1.053-.226 2.12-.506 3.24-.653 1.106-.187 2.24-.36 3.373-.547 1.147-.16 2.32-.24 3.493-.36a39.28 39.28 0 0 1 3.547-.253l1.8-.067.893-.026.454-.014.226-.013h.307c2.32.107 4.56.093 7 .387 2.413.173 4.693.546 6.907.893 1.106.147 2.186.427 3.24.653 1.053.254 2.093.44 3.08.76 1.973.574 3.853 1.08 5.533 1.72.84.307 1.653.6 2.413.867.76.307 1.467.64 2.147.933 1.333.574 2.493 1.08 3.413 1.587 1.854.96 2.907 1.52 2.907 1.52 1.147.6 1.587 2 .987 3.147a2.32 2.32 0 0 1-2.96 1.066l-.147-.066s-1.04-.427-2.84-1.2c-.88-.414-2-.8-3.28-1.267-.64-.227-1.32-.493-2.04-.733-.733-.227-1.493-.467-2.293-.707-1.587-.547-3.36-.933-5.214-1.4-.92-.267-1.906-.387-2.88-.587-1-.16-1.986-.426-3.026-.56-2.08-.293-4.214-.613-6.347-.733-2.093-.24-4.493-.213-6.773-.28-1.094.027-2.174.053-3.254.067a38.94 38.94 0 0 0-3.306.186c-1.094.107-2.174.16-3.24.307-1.067.16-2.107.307-3.147.453-1.04.12-2.027.387-3.027.56-.973.2-1.96.334-2.88.587-1.853.48-3.626.867-5.213 1.413-1.6.494-3.067.947-4.307 1.44-1.253.454-2.36.827-3.293 1.254-1.867.786-2.933 1.24-2.933 1.24a2.322 2.322 0 0 1-3.054-1.24 2.342 2.342 0 0 1 1.067-2.987" fill="#231F20" fill-rule="nonzero"/>
        <path d="M110.32 79.453c0 14.36-11.64 26-26 26s-26-11.64-26-26 11.64-26 26-26 26 11.64 26 26" fill="#FFF" fill-rule="nonzero"/>
        <path d="M110.32 79.453c0 14.36-11.64 26-26 26s-26-11.64-26-26 11.64-26 26-26 26 11.64 26 26z" stroke="#231F20" stroke-width="6.667"/>
        <path d="M94.32 78.32c0 5.52-4.48 10-10 10s-10-4.48-10-10c0-5.533 4.48-10 10-10s10 4.467 10 10" fill="#231F20" fill-rule="nonzero"/>
    </g>
</svg>
