<svg width="168" height="167" xmlns="http://www.w3.org/2000/svg">
    <title>
        tu
    </title>
    <g fill="none" fill-rule="evenodd">
        <path d="M164.06 83.453c0 44.174-35.817 80-80 80-44.184 0-80-35.826-80-80 0-44.186 35.816-80 80-80 44.183 0 80 35.814 80 80" fill="#FFF" fill-rule="nonzero"/>
        <path d="M164.06 83.453c0 44.174-35.817 80-80 80-44.184 0-80-35.826-80-80 0-44.186 35.816-80 80-80 44.183 0 80 35.814 80 80z" stroke="#231F20" stroke-width="6.667"/>
        <path d="M48.584 36.253c10.29-6.56 22.455-10.586 35.49-10.586 13.19 0 25.49 3.88 35.858 10.586" fill="#FFF" fill-rule="nonzero"/>
        <path d="M47.395 34.253s.99-.653 2.722-1.773c.834-.56 1.991-1.2 3.331-1.92.667-.36 1.376-.747 2.124-1.16.764-.333 1.567-.707 2.405-1.08 1.659-.8 3.543-1.453 5.527-2.187.983-.386 2.039-.64 3.103-.96 1.072-.293 2.153-.653 3.289-.866 1.133-.214 2.285-.44 3.452-.68 1.165-.24 2.372-.32 3.573-.48 1.206-.16 2.42-.307 3.652-.32l1.846-.08.924-.04.462-.027.231-.013.333.013c2.372.12 4.646.12 7.171.48 2.492.213 4.808.72 7.076 1.16 1.13.227 2.219.56 3.29.853 1.067.294 2.118.574 3.103.96 1.992.707 3.874 1.374 5.538 2.174.84.373 1.644.733 2.409 1.08.736.4 1.435.773 2.09 1.133 1.315.707 2.454 1.333 3.34 1.933a913.255 913.255 0 0 0 2.813 1.84 2.334 2.334 0 0 1 .678 3.227 2.32 2.32 0 0 1-3.056.773l-.157-.08s-.999-.546-2.748-1.493c-.853-.507-1.947-1.027-3.203-1.6-.625-.293-1.29-.6-1.992-.933-.718-.28-1.474-.574-2.264-.894-1.556-.68-3.313-1.213-5.162-1.786-.915-.334-1.891-.547-2.88-.774-.994-.213-1.986-.533-3.024-.72-2.08-.373-4.236-.813-6.378-.973-2.076-.293-4.528-.28-6.865-.373-1.088.04-2.176.066-3.26.106-1.121 0-2.23.12-3.328.254-1.096.133-2.199.186-3.263.4-1.068.186-2.122.386-3.16.573-1.044.173-2.028.52-3.021.733-.985.254-1.965.44-2.879.774-1.845.6-3.606 1.133-5.162 1.813-.79.307-1.546.613-2.266.893-.689.32-1.344.627-1.96.92-1.229.56-2.309 1.054-3.221 1.587-1.816.987-2.853 1.547-2.853 1.547a2.338 2.338 0 0 1-3.166-.947 2.341 2.341 0 0 1 .786-3.067m33.937 129.2l-.605-66.106a3.348 3.348 0 0 1 3.302-3.374 3.34 3.34 0 0 1 3.364 3.307v.067l-.606 66.106a2.72 2.72 0 0 1-2.752 2.694 2.723 2.723 0 0 1-2.703-2.694" fill="#231F20" fill-rule="nonzero"/>
        <path d="M55.467 159.107l-.375-31.427a74741.427 74741.427 0 0 1-.17-23.547c-.009-1.426-.015-2.853-.023-4.306l-.002-.534.028-.706.052-1.094.055-1.106.181-1.294c.212-1.786.643-3.36 1.132-4.973.291-.8.564-1.6.882-2.387.366-.76.734-1.533 1.104-2.306 1.621-3 3.788-5.76 6.396-8.067 5.188-4.653 12.233-7.387 19.333-7.4l2.523.133c.82.067 1.825.24 2.726.374 1.806.346 3.479.786 5.136 1.453a29.22 29.22 0 0 1 8.947 5.44 29.569 29.569 0 0 1 6.396 8.067c1.621 3.013 2.639 6.293 3.105 9.573l.182 1.227.065 1.226c.032.8.1 1.694.08 2.374l-.021 4.306-.062 8.307c-.038 5.413-.076 10.52-.11 15.24l-.375 31.427a2.669 2.669 0 0 1-2.697 2.64 2.665 2.665 0 0 1-2.636-2.64l-.374-31.427-.112-15.24c-.018-2.693-.038-5.467-.06-8.307l-.021-4.306c.016-.76-.055-1.32-.079-1.987l-.049-.96-.152-.947c-.375-2.546-1.168-5.08-2.439-7.413a23.144 23.144 0 0 0-4.998-6.24 22.574 22.574 0 0 0-6.944-4.173c-1.254-.507-2.636-.84-3.907-1.094-.655-.08-1.192-.213-1.939-.28l-2.185-.106c-5.501 0-10.923 2.066-14.976 5.653a23.17 23.17 0 0 0-4.999 6.24l-.864 1.787-.69 1.84c-.379 1.24-.735 2.546-.872 3.693l-.152.88-.059 1.093-.059 1.094-.014.266-.007.147-.004.067c.008-.307.003-.054.004-.094l-.001.534-.022 4.306-.06 8.307c-.04 5.413-.077 10.52-.11 15.24-.226 18.853-.375 31.427-.375 31.427a2.669 2.669 0 0 1-2.699 2.64 2.664 2.664 0 0 1-2.634-2.64" fill="#231F20" fill-rule="nonzero"/>
    </g>
</svg>
