<svg width="167" height="167" xmlns="http://www.w3.org/2000/svg">
    <title>
        tun
    </title>
    <g fill="none" fill-rule="evenodd">
        <path d="M3.44 140.693c0-22.466 35.64-29.88 79.827-29.88 44.186 0 80.186 10.054 80.186 30.4 0 13.747-12.36 22.24-27.826 22.24-17.334 0-28-9.04-28-22.786 0 12.653-8.667 20.8-24 20.8-16.667 0-24-8.147-24-20.8 0 13.746-11.667 22.786-28.334 22.786-15.466 0-27.853-9.013-27.853-22.76" fill="#FFF" fill-rule="nonzero"/>
        <path d="M6.773 140.707c0 2.88.68 5.666 2.014 8.133 1.32 2.48 3.293 4.613 5.666 6.307 2.36 1.706 5.12 2.973 8.027 3.786 1.467.4 2.96.694 4.48.894 1.533.2 2.987.28 4.613.28 3.12.026 6.227-.307 9.187-1.054 2.96-.746 5.747-1.973 8.173-3.613 2.427-1.667 4.44-3.827 5.814-6.36 1.4-2.507 2.133-5.413 2.213-8.413h5.333c.147 2.76.6 5.44 1.627 7.76.987 2.333 2.48 4.32 4.453 5.76 1.974 1.453 4.347 2.493 6.947 3.106 1.293.307 2.627.534 4 .654 1.427.133 2.627.186 4.213.186 1.307.014 2.747-.04 4.08-.186 1.36-.134 2.68-.374 3.974-.694 2.573-.653 4.933-1.746 6.946-3.213a14.725 14.725 0 0 0 4.654-5.747c1.106-2.28 1.626-4.92 1.773-7.626h5.333c.08 2.48.52 4.906 1.427 7.106a17.8 17.8 0 0 0 3.92 5.84c3.4 3.307 8.133 5.24 13.107 6.027 1.253.2 2.52.333 3.786.413.654.027 1.2.067 1.894.067l1.04.013.92-.026c2.546-.067 5.066-.36 7.493-.974 4.84-1.16 9.307-3.573 12.307-7.093 1.506-1.76 2.6-3.8 3.24-6 .32-1.067.533-2.307.613-3.347.093-1.32.08-2.346-.08-3.453-.573-4.36-3.68-8.227-7.733-11.173-4.067-2.96-8.947-5.134-13.96-6.88-5.04-1.734-10.294-3.014-15.614-4.027-10.653-1.987-21.573-2.92-32.493-3.227-5.453-.16-10.96-.133-16.44.027-5.467.173-10.933.467-16.373.947-5.427.493-10.84 1.16-16.16 2.133-5.32.973-10.56 2.24-15.534 4.04-4.933 1.8-9.68 4.147-13.28 7.427-1.786 1.64-3.24 3.506-4.2 5.56a14.434 14.434 0 0 0-1.066 3.213c-.12.547-.2 1.12-.267 1.68l-.053.787-.014.96zm-6.666-.094l.026-1.04.094-1.293c.093-.8.226-1.6.4-2.4.346-1.6.88-3.16 1.586-4.627 1.414-2.96 3.467-5.493 5.774-7.56 4.666-4.146 10.106-6.68 15.52-8.613 5.453-1.92 11.013-3.187 16.573-4.187 5.573-.973 11.16-1.64 16.733-2.106 5.587-.467 11.174-.734 16.747-.867 5.587-.107 11.133-.147 16.747-.04 11.173.253 22.373 1.133 33.493 3.147 5.547 1.013 11.08 2.306 16.52 4.12 5.413 1.84 10.813 4.133 15.733 7.64 2.44 1.76 4.774 3.853 6.68 6.453 1.907 2.573 3.347 5.693 3.827 9.013.253 1.627.267 3.387.16 4.814-.12 1.72-.373 3.226-.827 4.813a23.042 23.042 0 0 1-4.52 8.52c-4.186 4.973-10.053 7.867-15.92 9.267a40.63 40.63 0 0 1-8.933 1.093c-.387 0-.707.013-1.16 0l-1.04-.027a70.47 70.47 0 0 1-2.24-.133 42.18 42.18 0 0 1-4.44-.587c-2.96-.533-5.893-1.426-8.68-2.733-2.787-1.347-5.413-3.147-7.613-5.44-2.187-2.293-3.92-5.053-4.974-8.04-1.066-2.96-1.466-6.093-1.413-9.133a2.668 2.668 0 0 1 2.493-2.827 2.668 2.668 0 0 1 2.827 2.493v.027l.013.307c.147 3.293-.32 6.733-1.6 9.973-1.306 3.24-3.493 6.213-6.24 8.413-2.733 2.227-5.973 3.64-9.2 4.534a34.944 34.944 0 0 1-4.906.933c-1.654.187-3.214.28-4.92.28a50.969 50.969 0 0 1-4.8-.28 34.745 34.745 0 0 1-4.88-.88c-3.227-.813-6.52-2.173-9.294-4.453-2.8-2.227-4.92-5.32-6.106-8.587-1.174-3.293-1.534-6.68-1.387-9.933a2.685 2.685 0 0 1 2.56-2.774 2.685 2.685 0 0 1 2.773 2.56v.214c.094 3.733-.653 7.613-2.373 11.08-1.707 3.48-4.333 6.466-7.4 8.72-3.053 2.253-6.547 3.8-10.093 4.786-3.56 1-7.2 1.454-10.814 1.52-1.76.027-3.666-.08-5.48-.306a36.28 36.28 0 0 1-5.44-1.054c-3.586-.973-7.08-2.52-10.2-4.746C7.387 158.44 4.68 155.493 2.84 152 .987 148.52.08 144.56.107 140.693v-.08z" fill="#231F20" fill-rule="nonzero"/>
        <path d="M163.6 66.92c0 35.053-35.813 63.467-80 63.467s-80-28.414-80-63.467 35.813-63.467 80-63.467 80 28.414 80 63.467" fill="#FFF" fill-rule="nonzero"/>
        <path d="M163.6 66.92c0 35.053-35.813 63.467-80 63.467s-80-28.414-80-63.467 35.813-63.467 80-63.467 80 28.414 80 63.467z" stroke="#231F20" stroke-width="6.667"/>
        <path d="M48.12 29.48c10.293-5.213 22.467-8.4 35.493-8.4 13.187 0 25.494 3.08 35.854 8.4" fill="#FFF" fill-rule="nonzero"/>
        <path d="M47.133 27.36l2.827-1.467c.867-.48 2.053-.986 3.413-1.573.68-.293 1.4-.64 2.16-.933.774-.28 1.574-.574 2.427-.88 1.667-.64 3.547-1.134 5.52-1.734.987-.306 2.027-.493 3.08-.76 1.053-.226 2.12-.506 3.24-.653 1.107-.187 2.24-.36 3.373-.547 1.147-.16 2.32-.24 3.494-.36a39.28 39.28 0 0 1 3.546-.253l1.8-.067.894-.026.453-.014.227-.013h.306c2.32.107 4.56.093 7 .387 2.4.173 4.694.546 6.907.893 1.107.147 2.187.427 3.24.653 1.053.254 2.093.44 3.067.76 1.986.574 3.866 1.08 5.546 1.72.84.307 1.654.6 2.414.867.76.307 1.466.64 2.133.933 1.347.574 2.507 1.08 3.427 1.587 1.853.96 2.906 1.52 2.906 1.52 1.147.6 1.587 2 .987 3.147a2.324 2.324 0 0 1-2.96 1.066l-.147-.066s-1.04-.427-2.84-1.2c-.88-.414-2-.8-3.28-1.267-.64-.227-1.32-.493-2.04-.733-.733-.227-1.493-.467-2.293-.707-1.587-.547-3.36-.933-5.213-1.4-.92-.267-1.907-.387-2.894-.587-.986-.16-1.973-.426-3.013-.56-2.08-.293-4.213-.613-6.36-.733-2.08-.24-4.48-.213-6.773-.28-1.08.027-2.16.053-3.24.067-1.12.013-2.214.08-3.307.186-1.093.107-2.173.16-3.24.307-1.067.16-2.12.307-3.147.453-1.04.12-2.026.387-3.026.56-.974.2-1.96.334-2.88.587-1.854.48-3.627.867-5.214 1.413-1.6.494-3.066.947-4.306 1.44-1.267.454-2.36.827-3.294 1.254a978.05 978.05 0 0 0-2.933 1.24 2.322 2.322 0 0 1-3.053-1.24 2.342 2.342 0 0 1 1.066-2.987M80.88 130.387L80.267 69.8a3.355 3.355 0 0 1 3.306-3.373 3.335 3.335 0 0 1 3.36 3.373l-.6 60.587a2.746 2.746 0 0 1-2.76 2.706 2.732 2.732 0 0 1-2.693-2.706" fill="#231F20" fill-rule="nonzero"/>
        <path d="M55.013 126.413s-.16-11.733-.373-29.346c-.04-4.4-.08-9.174-.12-14.227-.013-2.52-.04-5.107-.053-7.76-.014-.653-.014-1.32-.014-2l-.013-1v-.507l.027-.68.12-2.053c.133-.813.253-1.64.386-2.48 1.294-6.24 5.067-11.973 10.28-15.893 2.6-1.96 5.574-3.454 8.68-4.467.774-.293 1.56-.493 2.36-.68.8-.187 1.6-.387 2.414-.48.813-.093 1.626-.267 2.44-.293l1.226-.067.614-.027.306-.013.16-.013h.307l2.2.106c.333.014.773.067 1.2.12l1.28.187c.88.093 1.667.293 2.467.48s1.586.387 2.36.68c3.12 1.013 6.08 2.507 8.68 4.467 5.213 3.92 8.986 9.666 10.28 15.88.12.773.253 1.546.373 2.32.053.786.093 1.56.133 2.333.054 1.48.014 2.733 0 4.08-.013 2.653-.04 5.24-.053 7.76-.04 5.053-.08 9.827-.107 14.227-.226 17.613-.373 29.346-.373 29.346a2.686 2.686 0 0 1-2.707 2.64 2.67 2.67 0 0 1-2.626-2.64s-.16-11.733-.387-29.346c-.027-4.4-.067-9.174-.107-14.227-.013-2.52-.04-5.107-.053-7.76-.027-1.293 0-2.72-.053-3.947-.027-.573-.067-1.146-.107-1.733a77.21 77.21 0 0 0-.293-1.72c-.974-4.587-3.814-8.92-7.867-11.947-2.013-1.506-4.333-2.653-6.773-3.44-.6-.226-1.227-.386-1.854-.52-.64-.146-1.266-.306-1.853-.36l-.893-.133c-.294-.04-.587-.093-.987-.093l-2.2-.094h.107-.067l-.12.014-.24.013-.493.013-.974.04c-.64.014-1.28.16-1.92.24-.653.054-1.266.214-1.893.36a12.62 12.62 0 0 0-1.867.52c-2.44.787-4.76 1.934-6.773 3.44-4.053 3.014-6.893 7.374-7.867 11.92a29.78 29.78 0 0 1-.28 1.574l-.12 2.026-.013.254-.013.12v-.054 1.507c-.014.68-.014 1.347-.014 2-.026 2.653-.053 5.24-.066 7.76-.04 5.053-.08 9.827-.107 14.227-.227 17.613-.373 29.346-.373 29.346a2.678 2.678 0 0 1-2.707 2.64 2.67 2.67 0 0 1-2.627-2.64" fill="#231F20" fill-rule="nonzero"/>
    </g>
</svg>
