<svg width="168" height="168" xmlns="http://www.w3.org/2000/svg">
    <title>
        u
    </title>
    <g fill="none" fill-rule="evenodd">
        <path d="M163.812 83.947c0 44.18-35.818 79.988-80.002 79.988-44.182 0-80-35.807-80-79.988 0-44.18 35.818-80.004 80-80.004 44.184 0 80.002 35.823 80.002 80.004" fill-rule="nonzero" fill="#FFF"/>
        <path d="M163.812 83.947c0 44.18-35.818 79.988-80.002 79.988-44.182 0-80-35.807-80-79.988 0-44.18 35.818-80.004 80-80.004 44.184 0 80.002 35.823 80.002 80.004z" stroke="#231F20" stroke-width="6.667"/>
        <path d="M86.539 3.945l.605 72.67a3.338 3.338 0 0 1-3.305 3.363 3.334 3.334 0 0 1-3.36-3.314v-.048l.606-72.671a2.718 2.718 0 0 1 2.75-2.703 2.733 2.733 0 0 1 2.704 2.703" fill-rule="nonzero" fill="#231F20"/>
        <path d="M114.973 9.287l.374 34.566.11 16.73.06 9.15.023 4.721.001.594-.03.77-.058 1.205-.06 1.204-.199 1.397c-.23 1.926-.698 3.644-1.231 5.41-.316.867-.613 1.734-.959 2.585l-1.2 2.505a32.29 32.29 0 0 1-6.962 8.798c-2.835 2.505-6.147 4.544-9.736 5.908-1.787.723-3.662 1.204-5.552 1.574-.952.128-1.902.32-2.862.401l-1.442.08-.722.032-.362.016-.18.017h-.09c-.105 0 .108.016-.258 0l-2.59-.129c-.897-.064-1.98-.273-2.959-.417-1.957-.37-3.78-.851-5.582-1.574a31.873 31.873 0 0 1-9.737-5.908 32.321 32.321 0 0 1-6.962-8.798c-1.764-3.275-2.872-6.84-3.38-10.404l-.197-1.332-.072-1.349c-.034-.867-.108-1.83-.087-2.585l.021-4.72c.021-3.13.04-6.181.061-9.151l.11-16.73.375-34.566a2.666 2.666 0 1 1 5.333 0l.375 34.566.11 16.73c.021 2.97.04 6.02.061 9.15.007 1.558.015 3.132.021 4.721-.016.835.061 1.461.087 2.2l.055 1.075.17 1.06c.416 2.826 1.299 5.651 2.711 8.252a25.78 25.78 0 0 0 5.565 6.952 25.285 25.285 0 0 0 7.734 4.656c1.397.562 2.931.931 4.356 1.204.73.097 1.345.257 2.169.321l2.59.129c-.314-.016-.047-.016-.099-.016h.071l.144-.016.286-.016.573-.016 1.144-.065c.76-.048 1.509-.208 2.265-.305 1.493-.289 2.978-.658 4.391-1.22a25.285 25.285 0 0 0 7.734-4.656 25.773 25.773 0 0 0 5.563-6.952l.961-1.99c.273-.675.508-1.365.768-2.056.424-1.364.817-2.825.973-4.11l.167-.995.066-1.204.064-1.204.016-.29.008-.16.003-.064c-.006.305-.001.032-.003.08l.002-.594c.006-1.59.012-3.163.02-4.72l.06-9.151c.04-5.94.077-11.544.11-16.73.227-20.743.376-34.566.376-34.566a2.667 2.667 0 1 1 5.333 0" fill-rule="nonzero" fill="#231F20"/>
    </g>
</svg>
