<svg width="167" height="169" xmlns="http://www.w3.org/2000/svg">
    <title>
        un
    </title>
    <g fill="none" fill-rule="evenodd">
        <path d="M3.487 142.238c0-22.65 35.639-30.107 79.828-30.107 44.19 0 80.183 10.123 80.183 30.63 0 13.853-12.357 22.404-27.827 22.404-17.334 0-27.996-9.106-27.996-22.958 0 12.758-8.659 20.97-24.005 20.97-16.656 0-23.99-8.212-23.99-20.97 0 13.852-11.68 22.958-28.335 22.958-15.47 0-27.858-9.075-27.858-22.927" fill-rule="nonzero" fill="#FFF"/>
        <path d="M6.82 142.255c0 2.885.679 5.693 1.99 8.192 1.327 2.484 3.302 4.659 5.662 6.356 2.36 1.727 5.121 3.008 8.037 3.825a28.93 28.93 0 0 0 4.49.91c1.526.201 2.992.294 4.612.294 3.147.015 6.247-.324 9.21-1.08 2.977-.756 5.753-1.99 8.19-3.656 2.423-1.682 4.428-3.857 5.786-6.418 1.404-2.53 2.144-5.445 2.206-8.469v-.077a2.68 2.68 0 0 1 2.73-2.607c1.45.046 2.623 1.234 2.607 2.684.155 2.777.602 5.477 1.62 7.806.972 2.36 2.453 4.366 4.443 5.831 1.96 1.466 4.335 2.515 6.926 3.132a28.86 28.86 0 0 0 4.027.679c1.419.123 2.638.185 4.227.185 1.296 0 2.746-.047 4.088-.185 1.357-.14 2.7-.386 3.98-.71 2.576-.663 4.936-1.774 6.957-3.255a14.879 14.879 0 0 0 4.628-5.816c1.11-2.298 1.62-4.936 1.774-7.667h5.322c.108 5.014 1.944 9.703 5.322 13.02 3.394 3.348 8.1 5.307 13.082 6.125 1.25.2 2.515.339 3.795.416.648.03 1.203.062 1.898.077h1.48l.479-.015c2.545-.062 5.075-.37 7.497-.972 4.86-1.173 9.318-3.61 12.326-7.143a16.471 16.471 0 0 0 3.24-6.031c.339-1.065.54-2.299.616-3.363.108-1.28.108-2.376-.046-3.471-.54-4.397-3.61-8.3-7.651-11.277-4.027-3.008-8.917-5.199-13.93-6.958-5.03-1.758-10.305-3.07-15.628-4.088-10.66-2.02-21.597-2.961-32.55-3.285a278.878 278.878 0 0 0-16.46.046c-5.492.154-10.968.447-16.414.94-5.445.495-10.86 1.173-16.182 2.16-5.338.972-10.583 2.268-15.55 4.089-4.952 1.805-9.688 4.18-13.267 7.497-1.79 1.65-3.224 3.533-4.165 5.6a14.159 14.159 0 0 0-1.08 3.224c-.108.57-.2 1.126-.247 1.697l-.061.787-.016.971zm-6.664-.092l.015-1.05.093-1.28a32.51 32.51 0 0 1 .386-2.406 23.193 23.193 0 0 1 1.573-4.643c1.404-2.962 3.44-5.508 5.754-7.606 4.644-4.18 10.074-6.741 15.504-8.7 5.476-1.944 11.03-3.224 16.599-4.227 5.584-1.003 11.184-1.666 16.784-2.144 5.6-.463 11.184-.74 16.784-.864a404.879 404.879 0 0 1 16.769-.047c11.2.263 22.43 1.157 33.552 3.194 5.554 1.033 11.107 2.345 16.538 4.196 5.43 1.866 10.829 4.18 15.735 7.744 2.437 1.79 4.766 3.918 6.648 6.525 1.883 2.592 3.27 5.754 3.734 9.056.247 1.666.247 3.347.139 4.828-.14 1.697-.386 3.224-.833 4.798a23.448 23.448 0 0 1-4.52 8.53c-4.196 4.983-10.059 7.914-15.936 9.318a40.24 40.24 0 0 1-8.963 1.096h-1.157l-1.049-.031a60.724 60.724 0 0 1-2.252-.14 43.798 43.798 0 0 1-4.443-.585c-2.946-.556-5.893-1.45-8.7-2.793-2.777-1.357-5.4-3.193-7.575-5.507a22.57 22.57 0 0 1-4.936-8.068c-1.05-2.977-1.435-6.109-1.389-9.148a2.659 2.659 0 1 1 5.307-.324v.031l.015.293c.155 3.301-.308 6.742-1.589 10.012-1.28 3.24-3.44 6.232-6.186 8.454-2.746 2.267-5.985 3.702-9.225 4.597-1.635.447-3.27.756-4.92.94-1.651.201-3.24.294-4.937.294a53.06 53.06 0 0 1-4.813-.278 36.452 36.452 0 0 1-4.906-.894c-3.24-.833-6.556-2.222-9.318-4.52-2.776-2.253-4.89-5.369-6.062-8.655-1.157-3.301-1.512-6.695-1.373-9.95h5.337c.093 3.749-.648 7.62-2.344 11.107-1.697 3.502-4.32 6.51-7.359 8.778-3.07 2.299-6.572 3.857-10.12 4.86-3.563 1.002-7.235 1.48-10.86 1.542a41.78 41.78 0 0 1-5.507-.309c-1.82-.23-3.656-.57-5.446-1.064-3.594-1.003-7.096-2.56-10.228-4.813-3.1-2.252-5.8-5.23-7.62-8.731-1.836-3.502-2.73-7.467-2.7-11.339v-.077z" fill-rule="nonzero" fill="#231F20"/>
        <path d="M163.65 67.891c0 35.326-35.823 63.965-80.004 63.965-44.197 0-80.004-28.64-80.004-63.965 0-35.309 35.807-63.948 80.004-63.948 44.181 0 80.005 28.64 80.005 63.948" fill-rule="nonzero" fill="#FFF"/>
        <path d="M163.65 67.891c0 35.326-35.823 63.965-80.004 63.965-44.197 0-80.004-28.64-80.004-63.965 0-35.309 35.807-63.948 80.004-63.948 44.181 0 80.005 28.64 80.005 63.948z" stroke="#231F20" stroke-width="6.667"/>
        <path d="M163.49 67.891c0 35.326-35.84 63.965-80.004 63.965-44.181 0-80.005-28.64-80.005-63.965 0-35.309 35.824-63.948 80.005-63.948 44.164 0 80.004 28.64 80.004 63.948" fill-rule="nonzero" fill="#FFF"/>
        <path d="M163.49 67.891c0 35.326-35.84 63.965-80.004 63.965-44.181 0-80.005-28.64-80.005-63.965 0-35.309 35.824-63.948 80.005-63.948 44.164 0 80.004 28.64 80.004 63.948z" stroke="#231F20" stroke-width="6.667"/>
        <path d="M86.207 3.945l.611 58.095a3.34 3.34 0 0 1-3.314 3.362c-1.834.016-3.346-1.464-3.346-3.298v-.064l.595-58.095a2.73 2.73 0 0 1 2.751-2.703 2.74 2.74 0 0 1 2.703 2.703" fill-rule="nonzero" fill="#231F20"/>
        <path d="M114.635 8.223s.048 2.907.129 7.998c.048 5.076.144 12.352.24 21.073.049 4.353.081 9.075.13 14.07 0 2.506.031 5.076.047 7.694l.016.98v.754l-.016.322v.128c-.048.659-.08 1.317-.128 1.992-.08.755-.257 1.654-.418 2.473-.144.851-.45 1.542-.674 2.33-2.104 6.038-6.714 11.05-12.255 14.15a35.364 35.364 0 0 1-8.802 3.597 42.457 42.457 0 0 1-9.428 1.189l-2.33-.097c-.674 0-1.557-.128-2.36-.224-1.687-.161-3.196-.53-4.754-.868a35.725 35.725 0 0 1-8.818-3.598c-5.51-3.1-10.135-8.11-12.24-14.15-.545-1.51-.85-3.068-1.075-4.626l-.145-2.345c-.016-.722 0-1.333 0-2.007.032-2.618.032-5.188.064-7.694.049-4.995.08-9.717.113-14.07.096-8.721.176-15.997.257-21.073.08-5.091.112-7.998.112-7.998a2.684 2.684 0 0 1 2.715-2.634 2.686 2.686 0 0 1 2.618 2.634s.048 2.907.128 7.998c.064 5.076.145 12.352.241 21.073.048 4.353.08 9.075.129 14.07l.048 7.694c.016.642 0 1.349.032 1.943.032.546.08 1.092.096 1.654.193 1.077.386 2.185.787 3.245 1.526 4.256 4.947 8.143 9.412 10.585a28.961 28.961 0 0 0 7.148 2.875c1.269.257 2.586.578 3.806.674.627.08 1.189.193 1.96.193l2.056.08c2.634-.032 5.268-.337 7.79-.947a29.075 29.075 0 0 0 7.163-2.875c4.465-2.442 7.902-6.329 9.412-10.585.145-.53.402-1.092.466-1.574.08-.514.209-.932.305-1.494.032-.674.08-1.333.129-2.008v-.112c0 .064.016-.257 0 .145v-.322l.016-.498v-.98c.016-2.617.032-5.187.064-7.693.032-4.995.08-9.717.112-14.07.097-8.721.177-15.997.241-21.073.08-5.091.129-7.998.129-7.998A2.67 2.67 0 0 1 112 5.589a2.689 2.689 0 0 1 2.634 2.634" fill-rule="nonzero" fill="#231F20"/>
    </g>
</svg>
