<svg width="167" height="168" xmlns="http://www.w3.org/2000/svg">
    <title>
        wa
    </title>
    <g fill="none">
        <path d="M3.355 35.16c0-17.333 12.536-31.373 28-31.373 17.334 0 28 16.706 28 34.04 0-15.947 8.667-31.56 24-31.56 16.667 0 24 15.613 24 31.56 0-17.334 11.667-34.04 28.333-34.04 15.464 0 27.692 15.346 27.692 32.68l-.025 47.32c0 44.173-35.817 80-80 80s-80-35.827-80-80V35.16" fill="#FFF"/>
        <path d="M6.689 35.24L6.7 62.893l.006 13.867.003 6.933c.05 2.227.088 4.427.303 6.64.756 8.814 3.005 17.52 6.759 25.533 3.73 8.028 8.816 15.44 15.058 21.72a77.615 77.615 0 0 0 21.522 15.334c7.987 3.813 16.649 6.187 25.44 7.08l3.238.24c1.113.067 2.298.067 3.444.107l.866.026.748-.026 1.66-.04a45.6 45.6 0 0 0 3.315-.174c4.41-.333 8.801-1 13.085-2.107a77.484 77.484 0 0 0 24.103-10.786 77.72 77.72 0 0 0 19.008-18.36c5.256-7.133 9.177-15.214 11.658-23.707 1.227-4.24 2.14-8.587 2.591-13 .207-2.186.401-4.253.425-6.626l.044-1.734.004-1.653.003-3.467.027-27.733.014-13.867c.032-4.306-.634-8.453-2.148-12.4-1.484-3.92-3.713-7.546-6.564-10.52-2.832-2.986-6.398-5.146-10.197-6.266-.483-.187-.93-.267-1.37-.334l-1.331-.266c-.534-.067-1.142-.08-1.708-.12l-.866-.054-.216-.013-.108-.013c-.084 0 .324.013.108.013l-.373.027c-1.992.066-3.99.293-5.88.946-3.797 1.187-7.327 3.44-10.12 6.52-2.85 3.014-5.09 6.694-6.63 10.667-1.566 3.96-2.436 8.24-2.6 12.533v.014a2.66 2.66 0 0 1-2.68 2.653 2.665 2.665 0 0 1-2.643-2.48l-.011-.173-.176-2.614c-.08-.866-.198-1.733-.293-2.586-.256-1.72-.579-3.414-1.028-5.067-.86-3.32-2.137-6.48-3.923-9.213-.888-1.36-1.92-2.587-3.022-3.72-.55-.56-1.188-1.014-1.768-1.534-.63-.453-1.298-.84-1.937-1.28l-2.094-.973c-.74-.213-1.483-.48-2.21-.693-.72-.107-1.4-.254-2.14-.387l-2.762-.147-2.163.12c-.767.094-1.515.28-2.279.414-.736.213-1.457.48-2.191.706-.685.36-1.394.667-2.072 1.04-.636.454-1.325.814-1.935 1.307-.583.533-1.247.973-1.781 1.573a25.839 25.839 0 0 0-3.087 3.734 28.028 28.028 0 0 0-2.42 4.36c-.7 1.533-1.263 3.133-1.737 4.773-.491 1.64-.848 3.32-1.133 5.027-.104.853-.237 1.706-.325 2.56l-.189 2.6a2.658 2.658 0 0 1-2.705 2.626 2.66 2.66 0 0 1-2.621-2.493l-.007-.133-.168-2.787c-.09-.933-.245-1.853-.361-2.773-.322-1.84-.729-3.654-1.3-5.414-.556-1.76-1.204-3.493-2.025-5.133-.36-.84-.843-1.613-1.3-2.4-.427-.813-.967-1.547-1.492-2.28-.492-.76-1.091-1.427-1.68-2.107-.556-.706-1.217-1.293-1.864-1.906-.616-.64-1.338-1.147-2.035-1.68-.672-.574-1.45-.974-2.193-1.427-.724-.493-1.548-.773-2.33-1.147-.77-.4-1.627-.573-2.444-.84-.838-.32-1.606-.346-2.394-.52-.69-.2-1.806-.186-2.776-.253l-.747-.027-.373-.026h-.047c-.053 0 .371.013.182.013h-.1l-.163.013-1.296.08c-.869 0-1.714.2-2.567.334-1.7.32-3.347.88-4.937 1.573-.802.333-1.537.813-2.314 1.213-.746.454-1.448.974-2.179 1.454l-2.015 1.706c-.606.64-1.25 1.254-1.836 1.907-.54.707-1.143 1.36-1.653 2.08-.476.76-1.025 1.467-1.454 2.24-.407.8-.895 1.547-1.245 2.373-.334.827-.753 1.627-1.028 2.48-.26.867-.6 1.694-.804 2.574-.184.866-.441 1.76-.577 2.613-.105.867-.254 1.653-.348 2.573l-.137 2.907zm-6.663-.227l.128-2.986c.094-1.067.272-2.24.418-3.36.177-1.12.462-2.147.694-3.227.25-1.067.647-2.093.97-3.133.338-1.054.832-2.04 1.247-3.054.432-1.013 1.014-1.946 1.521-2.933.53-.96 1.194-1.853 1.792-2.773.633-.907 1.367-1.734 2.056-2.6.737-.827 1.544-1.6 2.318-2.4.838-.72 1.698-1.44 2.563-2.134.929-.626 1.833-1.293 2.792-1.866.997-.507 1.953-1.107 2.991-1.534 2.06-.906 4.213-1.626 6.435-2.026C27.065.8 28.174.573 29.305.56l1.69-.093.211-.014h.408l.373.027.745.053c1.016.094 1.907.08 3.164.36 1.16.24 2.395.4 3.429.8 1.067.374 2.17.654 3.172 1.174 1.015.493 2.067.92 2.994 1.56.95.6 1.927 1.16 2.77 1.893.874.693 1.764 1.373 2.52 2.187.79.773 1.587 1.546 2.254 2.413.704.84 1.41 1.693 1.988 2.613.614.907 1.235 1.8 1.726 2.76.523.947 1.067 1.894 1.473 2.894a38.76 38.76 0 0 1 2.212 6.026c.576 2.067.962 4.16 1.242 6.267.095 1.053.224 2.107.284 3.173l.062 3.174h-5.333l-.002-2.947c.042-.973.138-1.947.208-2.933.215-1.96.52-3.907.986-5.84a39.538 39.538 0 0 1 1.851-5.68A33.744 33.744 0 0 1 62.5 15.04a27.356 27.356 0 0 1 3.835-4.867c.695-.773 1.566-1.4 2.35-2.106.814-.667 1.745-1.214 2.62-1.814.926-.533 1.907-.986 2.865-1.466 1.012-.36 2.026-.734 3.054-1.04 1.05-.214 2.1-.467 3.157-.6l1.591-.12.797-.054.399-.026h.1l.05-.014h.024l.226.014.172.013 2.761.173c1.079.16 2.209.387 3.303.6 1.046.294 2.043.654 3.061.987.98.44 1.942.92 2.902 1.4.892.587 1.81 1.16 2.666 1.8.797.693 1.653 1.347 2.384 2.107a26.712 26.712 0 0 1 3.829 4.933c2.136 3.533 3.512 7.347 4.366 11.213.414 1.934.678 3.88.859 5.827.056.973.137 1.947.168 2.92l-.016 2.907h-5.334l.001-.014c-.232-9.866 3.088-19.906 9.85-27.56 3.377-3.8 7.842-6.8 12.837-8.426C129.858.947 132.498.6 135.113.48l.491-.027c-.143-.013.333 0 .325 0l.108.014.216.013.866.053c.584.04 1.133.054 1.748.12l2.077.36c.7.12 1.387.254 1.993.467 5.064 1.48 9.644 4.333 13.172 8.04 3.556 3.693 6.246 8.107 8.038 12.827 1.817 4.68 2.628 9.826 2.588 14.76l-.002 13.853-.001 27.733v3.467l-.005 1.827-.043 1.72c-.015 2.253-.223 4.8-.456 7.2-.488 4.8-1.473 9.533-2.807 14.16-2.693 9.253-6.961 18.053-12.672 25.827a84.541 84.541 0 0 1-20.672 19.986 84.16 84.16 0 0 1-26.255 11.786c-4.671 1.187-9.456 1.92-14.258 2.28-1.2.094-2.402.174-3.606.187l-1.806.04-.45.014h-.534l-.867-.027c-1.164-.027-2.29-.04-3.484-.094l-3.676-.28c-9.598-.986-19.02-3.573-27.72-7.733a84.904 84.904 0 0 1-23.406-16.706c-6.783-6.854-12.313-14.907-16.363-23.64-4.076-8.747-6.52-18.214-7.332-27.813-.229-2.387-.273-4.8-.32-7.2l.003-6.934.006-13.867.013-27.733c0-.04.001-.107.004-.147z" fill="#231F20"/>
        <path d="M26.293 44.68c15.934-4.48 35.665-7.12 57.03-7.12 21.405 0 41.17 2.627 57.12 7.12" fill="#FFF"/>
        <path d="M25.828 42.733s1.737-.48 4.777-1.333c1.524-.413 3.373-.907 5.494-1.48 2.086-.653 4.596-1.067 7.305-1.56 2.715-.493 5.657-1.027 8.768-1.587a455.94 455.94 0 0 1 9.804-1.093c1.703-.173 3.433-.347 5.185-.533 1.756-.12 3.536-.16 5.33-.227 3.605-.12 7.266-.24 10.927-.36 3.622.093 7.168.053 10.806.293 1.803.08 3.596.16 5.357.294 1.754.146 3.486.306 5.19.453 3.41.267 6.686.787 9.795 1.173 3.095.534 6.035.92 8.718 1.494 2.689.52 5.15 1.013 7.306 1.586 2.158.56 4.051.974 5.58 1.454a1332.3 1332.3 0 0 1 4.814 1.453 1.999 1.999 0 0 1 1.339 2.493 2.003 2.003 0 0 1-2.332 1.374l-.091-.014s-1.74-.386-4.784-1.04c-1.507-.373-3.384-.666-5.511-1.08-2.124-.426-4.556-.746-7.187-1.186-2.628-.454-5.517-.72-8.547-1.12a903.218 903.218 0 0 0-4.69-.44c-1.6-.147-3.23-.32-4.898-.414-1.666-.106-3.36-.226-5.074-.346-1.707-.067-3.436-.134-5.178-.214-3.45-.2-7.119-.146-10.706-.213-3.545.093-7.09.2-10.581.293-1.753.04-3.492.094-5.21.147-1.712.133-3.402.28-5.065.427-3.328.266-6.546.52-9.597.76-3.005.426-5.847.826-8.47 1.2-2.625.4-5.04.626-7.199 1.146-2.153.44-4.03.827-5.576 1.134-3.098.613-4.868.96-4.868.96a1.998 1.998 0 0 1-2.355-1.574c-.206-1.026.431-2.026 1.424-2.32m60.137 73.574c-.332 4.853-4.355 8.52-8.983 8.2-4.63-.32-8.113-4.494-7.78-9.347.332-4.84 4.354-8.507 8.983-8.2 4.629.32 8.112 4.506 7.78 9.347" fill="#231F20"/>
        <path d="M107.346 116.56c-.387-.547-.752-1.134-1.154-1.666a56.106 56.106 0 0 0-2.732-3.374c-.467-.547-.95-1.08-1.452-1.6-.496-.52-.98-1.067-1.506-1.547-1.015-1.026-2.092-1.96-3.177-2.88-1.121-.867-2.22-1.773-3.415-2.493-1.153-.813-2.396-1.414-3.61-2.08-1.254-.494-2.549-1.107-3.718-1.36-1.057-.427-2.736-.56-4.201-.8.378.04.096.013.176.027h-.979l-.994-.014c-.663-.04-1.33.093-1.998.174-1.34.093-2.658.506-3.989.813-1.302.48-2.626.88-3.89 1.52-1.294.533-2.52 1.28-3.762 1.973-1.214.76-2.423 1.52-3.582 2.387-.596.413-1.155.867-1.726 1.32-.575.44-1.134.893-1.68 1.387a52.15 52.15 0 0 0-3.215 2.946c-1.026 1-2.07 2.094-2.932 3.107l.208-3.013c.714 1.12 1.6 2.346 2.478 3.48a53.13 53.13 0 0 0 2.782 3.36c.475.56.966 1.093 1.476 1.6.504.52.995 1.053 1.53 1.533 1.03 1.027 2.123 1.947 3.222 2.867 1.136.853 2.25 1.76 3.457 2.466 1.166.8 2.422 1.387 3.647 2.04 1.265.48 2.569 1.08 3.747 1.333.615.147 1.136.374 1.956.44l2.064.28c1.327-.04 2.648.067 3.98-.2 1.334-.106 2.647-.546 3.968-.866 1.293-.493 2.605-.907 3.859-1.56 1.281-.547 2.495-1.307 3.723-2 1.2-.773 2.396-1.547 3.54-2.427.588-.4 1.141-.867 1.704-1.32a30.98 30.98 0 0 0 1.658-1.4 51.248 51.248 0 0 0 3.166-2.96c.476-.48.913-1 1.37-1.493zm6.135 2.187a55.274 55.274 0 0 1-3.301 3.52 59.461 59.461 0 0 1-3.509 3.213 29.52 29.52 0 0 1-1.842 1.52c-.627.493-1.242 1-1.903 1.453-1.28.947-2.634 1.827-4 2.667-1.412.8-2.799 1.627-4.311 2.267-1.46.733-3.045 1.24-4.6 1.8-1.624.386-3.222.88-4.924 1.013-1.666.307-3.395.2-5.1.2l-2.444-.347c-.701-.053-1.623-.333-2.475-.56-1.796-.427-3.248-1.12-4.804-1.76-1.454-.773-2.942-1.493-4.275-2.426-1.397-.854-2.643-1.88-3.918-2.867-1.223-1.04-2.431-2.08-3.554-3.213-.585-.547-1.117-1.134-1.663-1.707a38.352 38.352 0 0 1-1.594-1.76 58.809 58.809 0 0 1-2.985-3.68 52.134 52.134 0 0 1-2.746-3.973 2.577 2.577 0 0 1 .208-3.014 50.42 50.42 0 0 1 3.26-3.56 63.669 63.669 0 0 1 3.462-3.24c.588-.52 1.193-1.04 1.819-1.52.62-.493 1.227-1.013 1.88-1.466 1.267-.96 2.606-1.84 3.96-2.707 1.398-.8 2.772-1.64 4.272-2.293 1.448-.734 3.022-1.267 4.567-1.827 1.616-.414 3.207-.92 4.904-1.067.839-.106 1.668-.266 2.53-.24h2.542c.093 0-.178-.026.212.014 1.532.24 2.904.293 4.738.853 1.806.4 3.267 1.093 4.834 1.707 1.464.76 2.966 1.48 4.311 2.4 1.411.84 2.67 1.853 3.96 2.84 1.239 1.026 2.462 2.066 3.6 3.186.592.547 1.133 1.12 1.687 1.693.56.574 1.098 1.16 1.617 1.76a59.863 59.863 0 0 1 3.036 3.667c.983 1.28 1.875 2.507 2.804 3.973a2.92 2.92 0 0 1-.234 3.454l-.02.027z" fill="#231F20"/>
        <path d="M1.813 83.12s.356-.44 1.023-1.28c.344-.413.72-.92 1.253-1.533.551-.6 1.185-1.307 1.895-2.08.72-.774 1.555-1.547 2.444-2.427.909-.853 1.949-1.707 3.038-2.653 2.272-1.76 4.874-3.734 7.964-5.467 3.074-1.747 6.524-3.467 10.345-4.827a69.19 69.19 0 0 1 12.33-3.173c4.344-.72 8.99-1 13.538-.827 4.77.2 9.4.934 14 2.174 4.577 1.24 9.025 2.973 13.139 5.2a63.893 63.893 0 0 1 11.332 7.706c6.78 5.814 11.78 12.707 14.908 19.16a57.067 57.067 0 0 1 3.525 9.147c.767 2.826 1.273 5.346 1.533 7.44.27 2.093.397 3.746.417 4.88l.056 1.733a3 3 0 0 1-2.9 3.094 3.006 3.006 0 0 1-3.095-2.907l-.001-.027-.004-.16-.035-1.533c-.005-1-.105-2.467-.324-4.32-.209-1.867-.639-4.093-1.29-6.627a51.306 51.306 0 0 0-3.072-8.213c-2.747-5.827-7.202-12.133-13.327-17.493A58.665 58.665 0 0 0 80.23 70.96c-3.742-2.08-7.8-3.707-11.983-4.893-4.158-1.174-8.557-1.907-12.73-2.12a62.733 62.733 0 0 0-12.654.64 64.906 64.906 0 0 0-11.46 2.813c-3.554 1.24-6.76 2.787-9.62 4.387-2.879 1.573-5.293 3.373-7.411 4.973-1.01.867-1.98 1.64-2.826 2.427-.82.8-1.616 1.506-2.262 2.186-.635.68-1.202 1.294-1.694 1.827-.494.547-.908 1.093-1.246 1.493-.675.814-1.035 1.254-1.035 1.254a2.252 2.252 0 0 1-3.166.32 2.25 2.25 0 0 1-.33-3.147" fill="#231F20"/>
    </g>
</svg>
