<svg width="168" height="168" xmlns="http://www.w3.org/2000/svg">
    <title>
        wan
    </title>
    <g fill="none">
        <path d="M3.855 141.026c0-22.466 35.65-29.88 79.833-29.88 44.184 0 80.18 10.054 80.18 30.4 0 13.747-12.357 22.24-27.821 22.24-17.334 0-28-9.04-28-22.786 0 12.653-8.667 20.8-24 20.8-16.667 0-24-8.147-24-20.8 0 13.747-11.667 22.787-28.334 22.787-15.464 0-27.858-9.014-27.858-22.76" fill="#FFF"/>
        <path d="M7.19 141.04c.003 2.88.683 5.667 2.015 8.133 1.327 2.467 3.296 4.614 5.668 6.307 2.363 1.707 5.119 2.973 8.032 3.786 1.459.4 2.958.694 4.476.894 1.531.2 2.992.28 4.607.28 3.125.026 6.23-.307 9.188-1.067 2.959-.747 5.75-1.96 8.184-3.6 2.427-1.666 4.44-3.826 5.81-6.36 1.398-2.52 2.137-5.413 2.21-8.413l.003-.08a2.657 2.657 0 0 1 2.729-2.6 2.658 2.658 0 0 1 2.601 2.68c.151 2.76.599 5.44 1.63 7.76.982 2.333 2.473 4.32 4.453 5.76 1.973 1.453 4.348 2.493 6.943 3.106a27.95 27.95 0 0 0 4.005.654c1.42.133 2.628.186 4.208.186 1.305.014 2.743-.04 4.08-.186a27.606 27.606 0 0 0 3.97-.694c2.577-.653 4.942-1.746 6.958-3.213 2.012-1.48 3.59-3.453 4.647-5.747 1.108-2.293 1.621-4.92 1.773-7.626h5.333c.083 2.48.519 4.907 1.434 7.107.913 2.2 2.229 4.186 3.92 5.84 3.396 3.293 8.122 5.24 13.101 6.026 1.248.2 2.516.334 3.792.414.644.026 1.199.066 1.895.066l1.036.013.916-.026c2.541-.067 5.066-.374 7.488-.974 4.846-1.16 9.309-3.572 12.318-7.106a16.054 16.054 0 0 0 3.234-5.987 16.09 16.09 0 0 0 .608-3.347c.097-1.32.088-2.346-.074-3.453-.576-4.36-3.674-8.226-7.738-11.173-4.067-2.96-8.942-5.134-13.958-6.88-5.038-1.733-10.29-3.027-15.609-4.027-10.655-1.986-21.57-2.92-32.497-3.227-5.446-.16-10.964-.133-16.432.027-5.478.173-10.944.467-16.379.947-5.433.493-10.839 1.16-16.16 2.133-5.316.96-10.561 2.24-15.53 4.04-4.942 1.8-9.686 4.147-13.282 7.427-1.788 1.64-3.241 3.507-4.197 5.56a14.875 14.875 0 0 0-1.074 3.213c-.113.547-.196 1.12-.258 1.68l-.058.787-.02.96zm-6.667-.093l.03-1.04.1-1.294c.092-.8.219-1.6.392-2.4.35-1.6.888-3.16 1.592-4.627 1.408-2.96 3.47-5.493 5.774-7.573 4.658-4.133 10.097-6.666 15.521-8.6 5.453-1.92 11.01-3.2 16.573-4.186 5.567-.987 11.151-1.64 16.735-2.107 5.584-.467 11.168-.733 16.747-.867 5.586-.106 11.13-.146 16.742-.04 11.176.253 22.376 1.134 33.486 3.147 5.549 1.013 11.082 2.306 16.52 4.12 5.422 1.84 10.814 4.133 15.738 7.64 2.447 1.76 4.778 3.853 6.684 6.453 1.903 2.574 3.338 5.693 3.82 9.013.262 1.627.266 3.387.164 4.814a22.71 22.71 0 0 1-.829 4.813 22.854 22.854 0 0 1-4.523 8.52c-4.185 4.974-10.053 7.867-15.913 9.267a40.682 40.682 0 0 1-8.937 1.093c-.391 0-.708.014-1.158 0l-1.036-.027a70.05 70.05 0 0 1-2.249-.133 42.062 42.062 0 0 1-4.439-.586c-2.95-.547-5.885-1.427-8.681-2.734-2.777-1.347-5.41-3.147-7.603-5.44-2.189-2.293-3.924-5.053-4.973-8.04-1.07-2.973-1.465-6.093-1.42-9.133a2.666 2.666 0 0 1 5.319-.333l.001.026.013.307c.15 3.293-.321 6.72-1.601 9.973a20.946 20.946 0 0 1-6.236 8.414c-2.736 2.226-5.973 3.64-9.205 4.52a34.92 34.92 0 0 1-4.898.946 42.98 42.98 0 0 1-4.925.28 50.913 50.913 0 0 1-4.8-.28 34.83 34.83 0 0 1-4.88-.88c-3.232-.826-6.524-2.173-9.295-4.453-2.794-2.227-4.922-5.32-6.105-8.587-1.168-3.293-1.532-6.693-1.388-9.933h5.333c.095 3.733-.656 7.613-2.366 11.08-1.711 3.48-4.338 6.467-7.4 8.707-3.066 2.266-6.547 3.813-10.096 4.8-3.559.986-7.204 1.453-10.819 1.52a40.305 40.305 0 0 1-5.481-.307 36.41 36.41 0 0 1-5.438-1.053c-3.581-.974-7.074-2.52-10.198-4.747-3.104-2.227-5.815-5.174-7.654-8.667-1.854-3.48-2.766-7.44-2.74-11.307l.002-.04v-.04z" fill="#231F20"/>
        <path d="M4.021 28.68c0-13.747 12.536-24.893 28-24.893 17.334 0 28 13.253 28 27.013 0-12.667 8.667-25.04 24-25.04 16.667 0 24 12.373 24 25.04 0-13.76 11.667-27.013 28.334-27.013 15.464 0 27.692 12.173 27.692 25.933l-.026 37.533c0 35.054-35.816 63.467-80 63.467-44.182 0-80-28.413-80-63.467V28.68" fill="#FFF"/>
        <path d="M7.355 28.733l.013 24.174.007 12.12c-.011 2.08.026 3.92.15 5.8.103.946.16 1.88.292 2.813l.459 2.8c1.444 7.413 4.716 14.454 9.228 20.6 4.52 6.16 10.217 11.493 16.65 15.786 6.413 4.32 13.5 7.667 20.911 10.027 3.696 1.213 7.491 2.134 11.322 2.84a87.49 87.49 0 0 0 11.573 1.414c1.868.146 3.935.16 5.947.2 1.825-.04 3.87-.027 5.789-.187 3.897-.2 7.776-.68 11.608-1.373a86.864 86.864 0 0 0 11.33-2.8c3.7-1.187 7.35-2.56 10.846-4.24 6.993-3.334 13.572-7.587 19.177-12.854 5.615-5.24 10.319-11.44 13.492-18.333a48.767 48.767 0 0 0 3.522-10.747c.362-1.853.646-3.746.786-5.533.12-.853.111-1.933.154-2.92l.025-.76.012-.373c.001-.067-.003.133-.001 0l.001-.094v-.186l.001-1.52.03-24.227-.004-12.013c-.079-3.454-1.123-6.894-2.878-9.934-3.536-6.106-9.986-10.52-17.021-11.706-7.037-1.214-14.659.413-20.284 4.866-5.733 4.294-9.513 11.227-9.804 18.427l-.005.147a2.658 2.658 0 0 1-2.771 2.56 2.663 2.663 0 0 1-2.557-2.707c-.151-2.987-.659-5.92-1.684-8.613-.98-2.72-2.435-5.187-4.336-7.187-1.908-1.987-4.195-3.547-6.799-4.507a20.737 20.737 0 0 0-4.065-1.066c-.688-.12-1.436-.2-2.108-.254-.351-.013-.652-.053-1.043-.066l-1.216-.014a23.525 23.525 0 0 0-4.173.334c-1.383.24-2.731.613-4.018 1.12-2.584 1.013-4.88 2.64-6.836 4.626-1.948 2.014-3.488 4.467-4.549 7.134-1.105 2.666-1.687 5.56-1.84 8.493a2.665 2.665 0 0 1-5.33.067l-.003-.067a24.327 24.327 0 0 0-2.091-9.24 24.16 24.16 0 0 0-5.359-7.693 23.952 23.952 0 0 0-7.842-5 26.2 26.2 0 0 0-4.516-1.294 27.61 27.61 0 0 0-2.346-.32c-.818-.066-1.409-.133-2.368-.133-3.196-.067-6.356.36-9.35 1.347-2.988.973-5.796 2.48-8.199 4.44-2.408 1.96-4.417 4.36-5.795 7.066A19.632 19.632 0 0 0 7.905 24.2c-.18.733-.309 1.48-.408 2.227l-.1 1.026-.042 1.28zm-6.666-.146l.039-1.334c.041-.546.079-1.093.137-1.613a26.036 26.036 0 0 1 2.633-8.707c1.825-3.613 4.44-6.76 7.526-9.28A32.312 32.312 0 0 1 21.416 2.08 34.25 34.25 0 0 1 32.993.48c.811.013 1.987.12 2.927.227.972.106 1.939.28 2.903.466 1.924.4 3.818.987 5.644 1.747 3.652 1.507 7.024 3.747 9.778 6.587a29.8 29.8 0 0 1 6.384 9.826A29.894 29.894 0 0 1 62.688 30.8h-5.333c-.148-3.56.409-7.147 1.558-10.573 1.191-3.4 3.036-6.627 5.503-9.374 2.445-2.773 5.597-4.946 9.028-6.373a26.722 26.722 0 0 1 5.312-1.56 29.979 29.979 0 0 1 5.507-.493l1.214.04c.42.013.927.066 1.386.093.941.08 1.809.187 2.716.36a26.94 26.94 0 0 1 5.31 1.467c3.458 1.346 6.692 3.506 9.14 6.333 2.474 2.8 4.231 6.12 5.314 9.56a31.777 31.777 0 0 1 1.345 10.52h-5.333c-.131-4.493.886-9 2.846-13.027a30.847 30.847 0 0 1 8.327-10.44 31.135 31.135 0 0 1 12.028-5.92 33.07 33.07 0 0 1 6.653-.933l.839-.027h.87c.506.014.98.027 1.607.067 1.208.08 2.28.213 3.403.413 8.905 1.507 17.07 7.014 21.66 14.92 2.281 3.934 3.679 8.467 3.793 13.094l.019 12.213-.003 24.24-.001 1.507-.003.493-.012.373-.022.76c-.046 1.027-.027 1.96-.159 3.12-.17 2.24-.495 4.347-.905 6.467a55.713 55.713 0 0 1-3.988 12.227c-3.58 7.8-8.836 14.706-15.012 20.48-6.172 5.8-13.33 10.426-20.896 14.053-3.783 1.813-7.715 3.293-11.7 4.573a91.4 91.4 0 0 1-12.174 3.027 97.568 97.568 0 0 1-12.437 1.467c-2.11.16-4.108.146-6.319.186-2.025-.053-4-.053-6.16-.213a96.89 96.89 0 0 1-12.461-1.533c-4.108-.76-8.181-1.76-12.16-3.067-7.973-2.547-15.633-6.173-22.617-10.88-6.999-4.68-13.276-10.546-18.311-17.427-5.023-6.853-8.737-14.826-10.375-23.28-.193-1.066-.348-2.133-.52-3.186-.149-1.067-.22-2.147-.33-3.214-.146-2.146-.178-4.346-.166-6.306l.007-12.12.012-24.227.001-.093z" fill="#231F20"/>
        <path d="M26.96 36.227c15.933-3.547 35.665-5.654 57.03-5.654 21.405 0 41.17 2.094 57.12 5.654" fill="#FFF"/>
        <path d="M26.587 34.267s1.75-.4 4.816-1.107c1.534-.333 3.398-.747 5.536-1.227 2.11-.533 4.612-.866 7.314-1.266 2.708-.4 5.643-.827 8.747-1.28 3.101-.32 6.372-.627 9.761-.894 1.695-.146 3.418-.293 5.162-.44 1.745-.08 3.514-.12 5.298-.173 3.591-.107 7.239-.2 10.887-.293 3.59.093 7.18.186 10.713.293 1.768.053 3.516.08 5.255.173 1.752.147 3.484.294 5.187.44a405 405 0 0 1 9.804.894c3.086.453 6.005.88 8.698 1.28 2.692.4 5.162.72 7.318 1.266 2.162.467 4.048.894 5.6 1.227 3.094.72 4.862 1.12 4.862 1.12a2.005 2.005 0 0 1 1.5 2.4 1.999 1.999 0 0 1-2.232 1.52l-.141-.013s-1.76-.267-4.841-.72c-1.535-.24-3.399-.534-5.538-.867-2.124-.387-4.574-.547-7.221-.867-2.65-.28-5.52-.6-8.556-.92-3.037-.186-6.24-.373-9.553-.573-1.655-.107-3.338-.213-5.04-.333-1.731-.027-3.482-.067-5.247-.107-3.535-.067-7.125-.147-10.715-.227-3.532.08-7.064.16-10.541.227-1.75.04-3.487.067-5.204.107-1.71.106-3.401.226-5.064.333-3.33.2-6.547.387-9.597.573-3.019.32-5.872.627-8.506.92-2.636.307-5.056.467-7.225.867-2.164.333-4.05.627-5.603.867l-4.888.733a2.003 2.003 0 0 1-2.277-1.68 2.018 2.018 0 0 1 1.53-2.253m60.202 57.506c-.381 4.574-4.444 8.08-9.075 7.84-4.629-.24-8.073-4.133-7.692-8.706.383-4.56 4.446-8.067 9.075-7.827 4.63.24 8.073 4.133 7.692 8.693" fill="#231F20"/>
        <path d="M108.093 91.666c-.357-.48-.689-.986-1.058-1.44a55.103 55.103 0 0 0-2.778-3.213c-.47-.52-.976-1.013-1.476-1.506a23.43 23.43 0 0 0-1.532-1.454c-1.024-.973-2.125-1.826-3.218-2.693-1.127-.8-2.254-1.613-3.448-2.28a14.039 14.039 0 0 0-1.796-.973c-.615-.28-1.203-.64-1.838-.854l-1.881-.706c-.616-.2-1.2-.307-1.799-.48-.308-.08-.569-.174-.917-.227l-1.11-.147-1.107-.133-.555-.067-.07-.013h-.034c-.17-.013.21.013.165.013h-.384l-1.97.027c-.658 0-1.318.147-1.978.213l-.99.134-.984.226c-.655.174-1.318.294-1.967.507-1.295.44-2.596.867-3.853 1.467-.639.266-1.27.56-1.883.906-.615.334-1.247.627-1.85.987-1.213.72-2.415 1.453-3.575 2.28-1.163.813-2.314 1.653-3.414 2.56a56.54 56.54 0 0 0-3.237 2.813c-1.036.947-2.093 2-2.97 2.973l.227-3.146a44.957 44.957 0 0 0 2.516 3.333 51.939 51.939 0 0 0 2.828 3.2c.479.52.992 1.014 1.5 1.507.5.507 1.019.986 1.555 1.44 1.04.96 2.157 1.813 3.264 2.666 1.143.8 2.283 1.587 3.49 2.254.585.373 1.194.68 1.814.96.621.266 1.215.626 1.855.826l1.894.694c.622.187 1.21.293 1.812.453.311.08.572.174.922.227l1.11.12 1.111.133.555.054.069.013h.035c.168.013-.21-.013-.166-.013h.139l.247-.014 1.968-.027c.656-.013 1.314-.173 1.972-.253l.986-.133.979-.254c.65-.173 1.31-.293 1.955-.52 1.286-.453 2.577-.893 3.822-1.506a17.323 17.323 0 0 0 1.866-.92c.609-.333 1.234-.64 1.832-1 1.198-.733 2.388-1.48 3.534-2.307a52.653 52.653 0 0 0 3.37-2.6c1.1-.893 2.165-1.84 3.192-2.826.433-.4.833-.854 1.254-1.28zm6.168 2.254c-1.104 1.227-2.194 2.293-3.344 3.36a59.776 59.776 0 0 1-3.529 3.067c-1.2.986-2.459 1.92-3.743 2.813-1.278.906-2.617 1.734-3.974 2.533-.676.414-1.396.747-2.092 1.133-.692.374-1.415.72-2.154 1.027-1.44.68-2.973 1.2-4.504 1.72-.769.24-1.577.4-2.365.614l-1.192.28-1.227.16c-.821.093-1.628.267-2.461.267l-2.5.026h-.468l-.22-.013h-.035l-.069-.013-.555-.068-1.108-.133-1.109-.146c-.385-.054-.837-.187-1.253-.28-.838-.214-1.716-.4-2.512-.654l-2.299-.853c-.776-.28-1.468-.694-2.205-1.027a19.374 19.374 0 0 1-2.123-1.147c-1.401-.786-2.696-1.706-3.984-2.64-1.243-.973-2.487-1.946-3.63-3.013a30.907 30.907 0 0 1-1.703-1.613c-.554-.56-1.114-1.093-1.632-1.68a54.523 54.523 0 0 1-3.059-3.533 47.691 47.691 0 0 1-2.816-3.827c-.657-1-.535-2.28.22-3.133l.007-.014a52.547 52.547 0 0 1 3.304-3.386 63.798 63.798 0 0 1 3.481-3.08c1.185-1 2.43-1.934 3.7-2.84 1.264-.907 2.59-1.747 3.935-2.56.669-.414 1.382-.76 2.073-1.147a23.35 23.35 0 0 1 2.136-1.053c1.428-.694 2.952-1.214 4.473-1.747.764-.253 1.57-.427 2.354-.64l1.186-.28 1.223-.187c.819-.093 1.624-.266 2.456-.293l2.499-.04h.313l.156-.013.324.04.555.053 1.109.133 1.11.12c.387.054.84.174 1.258.267.84.213 1.725.387 2.525.64l2.312.84c.782.253 1.48.667 2.223 1 .741.333 1.461.707 2.141 1.133 1.415.774 2.723 1.694 4.026 2.6 1.256.974 2.516 1.934 3.673 3a36.25 36.25 0 0 1 1.728 1.6c.561.547 1.13 1.094 1.657 1.667a59.339 59.339 0 0 1 3.108 3.52 48.135 48.135 0 0 1 2.878 3.84 2.903 2.903 0 0 1-.254 3.574l-.024.026z" fill="#231F20"/>
        <path d="M2.448 64.787s.373-.36 1.075-1.054c.366-.346.744-.773 1.328-1.28.576-.506 1.237-1.08 1.978-1.733.759-.587 1.599-1.24 2.514-1.947.949-.653 1.966-1.386 3.088-2.106 2.258-1.414 4.87-2.907 7.846-4.254 2.979-1.32 6.271-2.64 9.86-3.653a85.418 85.418 0 0 1 11.448-2.467 92.972 92.972 0 0 1 12.503-.826c2.016.013 4.279.106 6.427.306 2.156.187 4.317.44 6.458.827 8.582 1.467 16.931 4.453 24.022 8.653 7.12 4.16 12.933 9.547 16.806 15.067a41.485 41.485 0 0 1 4.488 8.067c1.082 2.56 1.694 4.933 2.083 6.906.19.987.34 1.88.407 2.654.089.786.162 1.44.169 1.986l.065 1.653a2.996 2.996 0 0 1-2.877 3.12 3 3 0 0 1-3.115-2.88l-.001-.026-.007-.214-.04-1.36c.004-.44-.054-.986-.121-1.626-.043-.653-.164-1.387-.31-2.2-.306-1.64-.785-3.627-1.678-5.8-.873-2.187-2.108-4.56-3.779-6.973-3.312-4.854-8.446-9.774-14.912-13.64-6.43-3.92-14.132-6.8-22.114-8.24-1.991-.387-4.007-.654-6.019-.854a74.03 74.03 0 0 0-6.052-.346 87.156 87.156 0 0 0-11.74.64A82.548 82.548 0 0 0 31.471 53.4c-3.378.92-6.462 2.12-9.251 3.32-2.787 1.227-5.219 2.587-7.319 3.867-1.042.653-1.982 1.306-2.865 1.906-.843.64-1.617 1.227-2.317 1.76-.651.547-1.232 1.054-1.738 1.48-.505.414-.946.894-1.3 1.227L5.596 68a2.247 2.247 0 0 1-3.181-.04 2.26 2.26 0 0 1 .033-3.173" fill="#231F20"/>
    </g>
</svg>
