<svg width="168" height="168" xmlns="http://www.w3.org/2000/svg">
    <title>
        we
    </title>
    <g fill="none">
        <path d="M3.88 35.16c0-17.333 12.536-31.373 28-31.373 17.333 0 28 16.706 28 34.04 0-15.947 8.667-31.56 24-31.56 16.667 0 24 15.613 24 31.56 0-17.334 11.667-34.04 28.333-34.04 15.464 0 27.692 15.346 27.692 32.68l-.025 47.32c0 44.173-35.817 80-80 80s-80-35.827-80-80V35.16" fill="#FFF"/>
        <path d="M7.213 35.24l.014 27.653.005 13.867.004 6.933c.05 2.227.087 4.427.301 6.64.756 8.814 3.006 17.52 6.76 25.533 3.728 8.028 8.816 15.44 15.059 21.72a77.605 77.605 0 0 0 21.521 15.334c7.987 3.813 16.648 6.187 25.44 7.08l3.238.24c1.113.067 2.298.067 3.444.107l.866.026.748-.026 1.66-.04a45.559 45.559 0 0 0 3.314-.174c4.412-.333 8.802-1 13.086-2.107a77.499 77.499 0 0 0 24.103-10.786 77.692 77.692 0 0 0 19.007-18.36c5.257-7.133 9.178-15.214 11.66-23.707 1.226-4.24 2.14-8.587 2.59-13 .206-2.186.402-4.253.424-6.626l.046-1.734.002-1.653.004-3.467.027-27.733.013-13.867c.034-4.306-.633-8.453-2.146-12.4-1.486-3.92-3.714-7.546-6.564-10.52-2.832-2.986-6.399-5.146-10.198-6.266-.482-.187-.93-.267-1.372-.334l-1.33-.266c-.534-.067-1.14-.08-1.708-.12l-.864-.054-.218-.013-.108-.013c-.082 0 .324.013.108.013l-.373.027c-1.99.066-3.99.293-5.879.946-3.797 1.187-7.326 3.44-10.121 6.52-2.85 3.014-5.09 6.694-6.628 10.667-1.567 3.96-2.436 8.24-2.6 12.533v.014a2.661 2.661 0 0 1-2.681 2.653 2.666 2.666 0 0 1-2.643-2.48l-.01-.173-.177-2.614c-.08-.866-.198-1.733-.293-2.586-.256-1.72-.579-3.414-1.028-5.067-.86-3.32-2.137-6.48-3.924-9.213-.887-1.36-1.92-2.587-3.021-3.72-.55-.56-1.188-1.014-1.768-1.534-.63-.453-1.299-.84-1.936-1.28l-2.095-.973c-.741-.213-1.483-.48-2.21-.693-.72-.107-1.4-.254-2.14-.387l-2.762-.147-2.163.12c-.768.094-1.516.28-2.278.414-.736.213-1.458.48-2.192.706-.684.36-1.394.667-2.071 1.04-.637.454-1.327.814-1.936 1.307-.583.533-1.247.973-1.781 1.573a25.81 25.81 0 0 0-3.087 3.734 28.03 28.03 0 0 0-2.42 4.36C65.231 24.4 64.668 26 64.195 27.64c-.492 1.64-.85 3.32-1.134 5.027-.105.853-.237 1.706-.325 2.56l-.19 2.6a2.657 2.657 0 0 1-2.703 2.626 2.66 2.66 0 0 1-2.622-2.493l-.008-.133-.166-2.787c-.092-.933-.246-1.853-.362-2.773-.322-1.84-.729-3.654-1.3-5.414-.556-1.76-1.205-3.493-2.025-5.133-.36-.84-.844-1.613-1.3-2.4-.427-.813-.967-1.547-1.492-2.28-.492-.76-1.092-1.427-1.68-2.107-.556-.706-1.217-1.293-1.864-1.906-.616-.64-1.337-1.147-2.035-1.68-.673-.574-1.45-.974-2.193-1.427-.724-.493-1.548-.773-2.33-1.147-.769-.4-1.627-.573-2.443-.84-.839-.32-1.607-.346-2.395-.52-.69-.2-1.805-.186-2.776-.253l-.747-.027-.373-.026h-.047c-.053 0 .371.013.182.013h-.102l-.161.013-1.296.08c-.87 0-1.715.2-2.567.334-1.7.32-3.348.88-4.937 1.573-.801.333-1.537.813-2.315 1.213-.745.454-1.446.974-2.178 1.454l-2.015 1.706c-.607.64-1.25 1.254-1.836 1.907-.54.707-1.144 1.36-1.653 2.08-.476.76-1.024 1.467-1.455 2.24-.405.8-.893 1.547-1.244 2.373-.333.827-.752 1.627-1.028 2.48-.259.867-.6 1.694-.804 2.574-.184.866-.441 1.76-.577 2.613-.104.867-.254 1.653-.348 2.573l-.138 2.907zm-6.662-.227l.128-2.986c.094-1.067.272-2.24.418-3.36.176-1.12.463-2.147.695-3.227.25-1.067.647-2.093.97-3.133.337-1.054.831-2.04 1.246-3.054.432-1.013 1.015-1.946 1.521-2.933.531-.96 1.195-1.853 1.791-2.773.633-.907 1.368-1.734 2.057-2.6.738-.827 1.543-1.6 2.318-2.4.838-.72 1.698-1.44 2.562-2.134.93-.626 1.834-1.293 2.794-1.866.996-.507 1.952-1.107 2.99-1.534 2.06-.906 4.214-1.626 6.435-2.026C27.591.8 28.699.573 29.831.56L31.52.467l.212-.014h.407l.373.027.745.053c1.016.094 1.907.08 3.164.36 1.16.24 2.395.4 3.428.8 1.068.374 2.171.654 3.172 1.174 1.016.493 2.068.92 2.995 1.56.95.6 1.927 1.16 2.77 1.893.874.693 1.763 1.373 2.52 2.187.791.773 1.586 1.546 2.254 2.413.704.84 1.41 1.693 1.988 2.613.615.907 1.235 1.8 1.727 2.76.522.947 1.066 1.894 1.472 2.894a38.663 38.663 0 0 1 2.212 6.026c.576 2.067.961 4.16 1.242 6.267.095 1.053.224 2.107.284 3.173l.062 3.174h-5.334l-.001-2.947c.043-.973.139-1.947.208-2.933.216-1.96.521-3.907.985-5.84a39.606 39.606 0 0 1 1.852-5.68 33.708 33.708 0 0 1 2.767-5.387 27.378 27.378 0 0 1 3.835-4.867c.696-.773 1.566-1.4 2.349-2.106.815-.667 1.747-1.214 2.621-1.814.927-.533 1.907-.986 2.864-1.466 1.014-.36 2.027-.734 3.055-1.04 1.05-.214 2.1-.467 3.156-.6l1.592-.12.797-.054.399-.026h.099l.05-.014h.026l.225.014.172.013 2.761.173c1.079.16 2.208.387 3.303.6 1.047.294 2.044.654 3.061.987.98.44 1.942.92 2.902 1.4.892.587 1.81 1.16 2.666 1.8.796.693 1.654 1.347 2.384 2.107a26.714 26.714 0 0 1 3.828 4.933c2.136 3.533 3.512 7.347 4.367 11.213.415 1.934.677 3.88.859 5.827.056.973.137 1.947.168 2.92l-.015 2.907h-5.335l.002-.014c-.234-9.866 3.086-19.906 9.849-27.56 3.377-3.8 7.841-6.8 12.837-8.426C130.383.947 133.023.6 135.64.48l.49-.027c-.144-.013.334 0 .324 0l.108.014.218.013.864.053c.585.04 1.134.054 1.749.12l2.077.36c.7.12 1.386.254 1.992.467 5.064 1.48 9.646 4.333 13.174 8.04 3.556 3.693 6.245 8.107 8.036 12.827 1.817 4.68 2.629 9.826 2.589 14.76l-.001 13.853-.003 27.733v3.467l-.004 1.827-.043 1.72c-.016 2.253-.224 4.8-.456 7.2-.488 4.8-1.474 9.533-2.808 14.16-2.692 9.253-6.96 18.053-12.672 25.827a84.521 84.521 0 0 1-20.672 19.986 84.148 84.148 0 0 1-26.254 11.786c-4.671 1.187-9.456 1.92-14.258 2.28-1.2.094-2.402.174-3.606.187l-1.806.04-.452.014h-.533l-.865-.027c-1.164-.027-2.292-.04-3.486-.094l-3.676-.28c-9.597-.986-19.018-3.573-27.718-7.733a84.889 84.889 0 0 1-23.407-16.706c-6.783-6.854-12.313-14.907-16.363-23.64-4.076-8.747-6.52-18.214-7.332-27.813-.229-2.387-.273-4.8-.32-7.2l.003-6.934.007-13.867.012-27.733c0-.04.001-.107.004-.147z" fill="#231F20"/>
        <path d="M26.819 44.68c15.933-4.48 35.665-7.12 57.029-7.12 21.405 0 41.17 2.627 57.119 7.12" fill="#FFF"/>
        <path d="M26.353 42.733s1.738-.48 4.778-1.333c1.522-.413 3.372-.907 5.493-1.48 2.087-.653 4.596-1.067 7.305-1.56 2.715-.493 5.656-1.027 8.768-1.587a449.6 449.6 0 0 1 9.804-1.093c1.703-.173 3.434-.347 5.186-.533 1.754-.12 3.536-.16 5.33-.227 3.604-.12 7.264-.24 10.926-.36 3.622.093 7.169.053 10.806.293 1.803.08 3.595.16 5.356.294 1.755.146 3.487.306 5.191.453 3.41.267 6.685.787 9.795 1.173 3.096.534 6.034.92 8.717 1.494 2.69.52 5.152 1.013 7.307 1.586 2.158.56 4.05.974 5.581 1.454 3.063.92 4.813 1.453 4.813 1.453a2 2 0 0 1 1.339 2.493 2.003 2.003 0 0 1-2.332 1.374l-.09-.014s-1.74-.386-4.785-1.04c-1.508-.373-3.384-.666-5.512-1.08-2.122-.426-4.556-.746-7.186-1.186-2.628-.454-5.518-.72-8.547-1.12-1.524-.147-3.09-.294-4.69-.44-1.6-.147-3.23-.32-4.898-.414-1.667-.106-3.36-.226-5.073-.346-1.708-.067-3.436-.134-5.179-.214-3.45-.2-7.119-.146-10.705-.213-3.546.093-7.092.2-10.582.293-1.753.04-3.493.094-5.21.147-1.712.133-3.402.28-5.064.427-3.33.266-6.547.52-9.598.76-3.005.426-5.848.826-8.47 1.2-2.624.4-5.04.626-7.199 1.146-2.153.44-4.03.827-5.576 1.134-3.097.613-4.868.96-4.868.96a1.998 1.998 0 0 1-2.355-1.574c-.206-1.026.431-2.026 1.424-2.32m60.595 21.494l.12 2.826c.05 1.8.17 4.36.225 7.454.05 3.08.167 6.68.186 10.533l.08 12.067-.082 12.08c-.025 3.853-.136 7.453-.186 10.533-.056 3.093-.175 5.653-.224 7.453L86.948 130a3.062 3.062 0 0 1-3.183 2.933A3.07 3.07 0 0 1 80.837 130l-.118-2.827c-.05-1.8-.168-4.36-.224-7.453-.051-3.08-.162-6.68-.187-10.533l-.08-12.08.079-12.067c.018-3.853.136-7.453.185-10.533.055-3.094.176-5.654.225-7.454l.12-2.826a3.064 3.064 0 0 1 3.184-2.934c1.598.067 2.856 1.36 2.927 2.934" fill="#231F20"/>
        <path d="M51.003 94.053s1.028-.04 2.826-.12c1.799-.04 4.368-.16 7.452-.213 3.083-.054 6.68-.173 10.535-.187l12.077-.08c4.111.027 8.222.054 12.076.067 3.855.027 7.452.146 10.535.187 3.084.053 5.653.187 7.452.226 1.799.08 2.827.12 2.827.12a3.071 3.071 0 0 1 2.926 3.187c-.068 1.6-1.36 2.853-2.926 2.933 0 0-1.028.04-2.827.12-1.799.04-4.368.16-7.452.214-3.083.053-6.68.173-10.535.186-3.854.027-7.965.054-12.076.08-4.112-.026-8.222-.053-12.077-.08-3.855-.027-7.452-.133-10.535-.186-3.084-.054-5.653-.174-7.452-.227-1.798-.067-2.826-.107-2.826-.107a3.072 3.072 0 0 1-2.928-3.186c.066-1.6 1.36-2.854 2.928-2.934" fill="#231F20"/>
    </g>
</svg>
