<svg width="167" height="168" xmlns="http://www.w3.org/2000/svg">
    <title>
        wen
    </title>
    <g fill="none">
        <path d="M3.38 141.026c0-22.466 35.65-29.88 79.833-29.88 44.187 0 80.174 10.054 80.174 30.4 0 13.747-12.347 22.24-27.814 22.24-17.333 0-28-9.04-28-22.786 0 12.653-8.666 20.8-24 20.8-16.666 0-24-8.147-24-20.8 0 13.747-11.668 22.787-28.334 22.787-15.464 0-27.859-9.014-27.859-22.76" fill="#FFF"/>
        <path d="M6.715 141.04c.004 2.88.682 5.667 2.016 8.133 1.325 2.467 3.296 4.614 5.668 6.307 2.362 1.707 5.118 2.973 8.032 3.786 1.457.4 2.957.694 4.476.894 1.53.2 2.992.28 4.606.28 3.126.026 6.228-.307 9.188-1.067 2.959-.747 5.75-1.96 8.184-3.6 2.427-1.666 4.439-3.826 5.808-6.36 1.4-2.52 2.134-5.413 2.214-8.413v-.08a2.658 2.658 0 0 1 2.733-2.6 2.655 2.655 0 0 1 2.6 2.68c.147 2.76.6 5.44 1.627 7.76.986 2.333 2.48 4.32 4.453 5.76 1.973 1.453 4.347 2.493 6.947 3.106a27.85 27.85 0 0 0 4 .654c1.426.133 2.626.186 4.213.186 1.307.014 2.747-.04 4.08-.186 1.36-.133 2.68-.373 3.973-.694 2.574-.653 4.934-1.746 6.947-3.213a14.723 14.723 0 0 0 4.653-5.747c1.107-2.293 1.614-4.92 1.774-7.626h5.333c.08 2.48.52 4.907 1.427 7.107.92 2.2 2.24 4.186 3.92 5.84 3.4 3.293 8.133 5.24 13.106 6.026 1.254.2 2.52.334 3.787.414.653.026 1.2.066 1.893.066l1.04.013.92-.026c2.547-.067 5.067-.374 7.48-.974 4.854-1.16 9.32-3.572 12.32-7.106a15.975 15.975 0 0 0 3.24-5.987c.32-1.066.534-2.307.6-3.347.107-1.32.094-2.346-.066-3.453-.574-4.36-3.68-8.226-7.734-11.173-4.066-2.96-8.946-5.134-13.96-6.88-5.04-1.733-10.293-3.027-15.613-4.027-10.653-1.986-21.573-2.92-32.493-3.227-5.454-.16-10.96-.133-16.44.027-5.467.173-10.934.467-16.374.947-5.433.493-10.84 1.16-16.16 2.133-5.317.96-10.561 2.24-15.529 4.04-4.943 1.8-9.688 4.147-13.284 7.427-1.787 1.64-3.24 3.507-4.197 5.56a14.944 14.944 0 0 0-1.072 3.213c-.115.547-.196 1.12-.259 1.68l-.059.787-.018.96zm-6.667-.093l.03-1.04.1-1.294c.093-.8.22-1.6.391-2.4.351-1.6.89-3.16 1.594-4.627 1.408-2.96 3.469-5.493 5.773-7.573 4.657-4.133 10.097-6.666 15.52-8.6 5.455-1.92 11.012-3.2 16.575-4.186 5.565-.987 11.15-1.64 16.729-2.107 5.587-.467 11.173-.733 16.747-.867 5.586-.106 11.133-.146 16.746-.04 11.174.253 22.374 1.134 33.48 3.147 5.56 1.013 11.094 2.306 16.534 4.12 5.413 1.84 10.813 4.133 15.733 7.64 2.44 1.76 4.773 3.853 6.68 6.453 1.907 2.574 3.333 5.693 3.827 9.013.253 1.627.266 3.387.16 4.814a23.587 23.587 0 0 1-.827 4.813 23.041 23.041 0 0 1-4.52 8.52c-4.187 4.974-10.053 7.867-15.92 9.267a40.597 40.597 0 0 1-8.933 1.093c-.387 0-.707.014-1.16 0l-1.04-.027a70.47 70.47 0 0 1-2.24-.133 41.72 41.72 0 0 1-4.44-.586c-2.96-.547-5.894-1.427-8.68-2.734-2.787-1.347-5.414-3.147-7.614-5.44-2.186-2.293-3.92-5.053-4.973-8.04-1.067-2.973-1.467-6.093-1.413-9.133a2.668 2.668 0 0 1 2.493-2.827 2.668 2.668 0 0 1 2.827 2.493v.027l.013.307c.147 3.293-.32 6.72-1.6 9.973a21.017 21.017 0 0 1-6.24 8.414c-2.733 2.226-5.973 3.64-9.2 4.52-1.627.44-3.267.746-4.907.946-1.653.187-3.213.28-4.92.28a50.965 50.965 0 0 1-4.8-.28 34.727 34.727 0 0 1-4.88-.88c-3.226-.826-6.52-2.173-9.293-4.453-2.8-2.227-4.92-5.32-6.107-8.587-1.173-3.293-1.533-6.693-1.386-9.933h5.333c.093 3.733-.653 7.613-2.373 11.08-1.707 3.48-4.334 6.467-7.395 8.707-3.065 2.266-6.548 3.813-10.096 4.8-3.559.986-7.204 1.453-10.819 1.52a40.336 40.336 0 0 1-5.482-.307 36.475 36.475 0 0 1-5.438-1.053c-3.581-.974-7.074-2.52-10.197-4.747-3.105-2.227-5.815-5.174-7.653-8.667-1.855-3.48-2.767-7.44-2.74-11.307v-.04l.001-.04z" fill="#231F20"/>
        <path d="M3.547 28.68c0-13.747 12.536-24.893 28-24.893 17.333 0 28 13.253 28 27.013 0-12.667 8.666-25.04 24-25.04 16.666 0 24 12.373 24 25.04 0-13.76 11.666-27.013 28.333-27.013 15.467 0 27.693 12.173 27.693 25.933l-.026 37.533c0 35.054-35.814 63.467-80 63.467-44.183 0-80-28.413-80-63.467V28.68" fill="#FFF"/>
        <path d="M6.88 28.733l.013 24.174.006 12.12c-.01 2.08.026 3.92.152 5.8.102.946.16 1.88.292 2.813l.458 2.8c1.443 7.413 4.716 14.454 9.227 20.6 4.521 6.16 10.219 11.493 16.65 15.786 6.414 4.32 13.5 7.667 20.909 10.027 3.693 1.213 7.493 2.134 11.32 2.84 3.813.733 7.746 1.2 11.573 1.414 1.88.146 3.933.16 5.947.2 1.826-.04 3.88-.027 5.8-.187 3.893-.2 7.773-.68 11.6-1.373a86.902 86.902 0 0 0 11.333-2.8c3.707-1.187 7.347-2.56 10.84-4.24 7-3.334 13.573-7.587 19.187-12.854 5.613-5.24 10.32-11.44 13.493-18.333a49.473 49.473 0 0 0 3.52-10.747c.36-1.853.64-3.746.787-5.533.12-.853.106-1.933.146-2.92l.027-.76.013-.373c0-.067 0 .133 0 0v-1.8l.027-24.227V29.147c-.08-3.454-1.12-6.894-2.88-9.934-3.533-6.106-9.987-10.52-17.013-11.706-7.04-1.214-14.667.413-20.294 4.866-5.733 4.294-9.506 11.227-9.8 18.427v.147c-.066 1.48-1.306 2.626-2.773 2.56a2.661 2.661 0 0 1-2.56-2.707c-.147-2.987-.653-5.92-1.68-8.613-.987-2.72-2.44-5.187-4.347-7.187-1.906-1.987-4.186-3.547-6.786-4.507A20.974 20.974 0 0 0 88 9.427c-.693-.12-1.44-.2-2.107-.254-.36-.013-.653-.053-1.053-.066l-1.213-.014a23.575 23.575 0 0 0-4.174.334c-1.386.24-2.733.613-4.013 1.12-2.587 1.013-4.88 2.64-6.84 4.626-1.947 2.014-3.48 4.467-4.547 7.134-1.106 2.666-1.693 5.56-1.84 8.493a2.666 2.666 0 0 1-2.666 2.667 2.679 2.679 0 0 1-2.667-2.6V30.8c-.08-3.187-.8-6.347-2.093-9.24a24.089 24.089 0 0 0-5.356-7.693 23.98 23.98 0 0 0-7.843-5 26.2 26.2 0 0 0-4.516-1.294 27.61 27.61 0 0 0-2.345-.32c-.819-.066-1.41-.133-2.368-.133-3.198-.067-6.356.36-9.351 1.347-2.99.973-5.796 2.48-8.199 4.44-2.408 1.96-4.417 4.36-5.796 7.066A19.628 19.628 0 0 0 7.431 24.2c-.18.733-.31 1.48-.408 2.227l-.1 1.026-.043 1.28zm-6.665-.146l.037-1.334c.043-.546.08-1.093.137-1.613.127-1.013.299-2.013.538-3a26.036 26.036 0 0 1 2.097-5.707c1.823-3.613 4.44-6.76 7.524-9.28 3.095-2.493 6.65-4.373 10.393-5.573A34.26 34.26 0 0 1 32.52.48c.81.013 1.986.12 2.926.227.972.106 1.939.28 2.903.466 1.923.4 3.819.987 5.644 1.747 3.652 1.507 7.024 3.747 9.781 6.587a30.041 30.041 0 0 1 6.387 9.826A29.94 29.94 0 0 1 62.213 30.8H56.88c-.147-3.56.413-7.147 1.56-10.573 1.187-3.4 3.04-6.627 5.507-9.374 2.44-2.773 5.586-4.946 9.026-6.373a26.595 26.595 0 0 1 5.307-1.56 30 30 0 0 1 5.507-.493l1.213.04c.427.013.933.066 1.387.093.946.08 1.813.187 2.72.36 1.786.307 3.573.787 5.306 1.467 3.454 1.346 6.694 3.506 9.147 6.333 2.467 2.8 4.227 6.12 5.307 9.56a31.848 31.848 0 0 1 1.346 10.52h-5.333c-.133-4.493.88-9 2.84-13.027a31.077 31.077 0 0 1 8.333-10.44 31.084 31.084 0 0 1 12.027-5.92 33.056 33.056 0 0 1 6.653-.933l.84-.027h.867c.507.014.987.027 1.613.067 1.2.08 2.28.213 3.4.413 8.907 1.507 17.067 7.014 21.654 14.92 2.293 3.934 3.68 8.467 3.8 13.094l.013 12.213V67.4l-.013.373-.027.76c-.04 1.027-.027 1.96-.16 3.12-.16 2.24-.493 4.347-.907 6.467a55.358 55.358 0 0 1-3.986 12.227c-3.574 7.8-8.827 14.706-15.014 20.48-6.16 5.8-13.32 10.426-20.893 14.053-3.773 1.813-7.707 3.293-11.693 4.573a91.758 91.758 0 0 1-12.174 3.027 97.741 97.741 0 0 1-12.44 1.467c-2.106.16-4.106.146-6.32.186-2.026-.053-4-.053-6.16-.213a97.087 97.087 0 0 1-12.466-1.533c-4.107-.76-8.174-1.76-12.155-3.067-7.972-2.547-15.632-6.173-22.616-10.88-7-4.68-13.276-10.546-18.312-17.427-5.021-6.853-8.736-14.826-10.373-23.28-.194-1.066-.348-2.133-.522-3.186C.54 73.48.471 72.4.36 71.333c-.144-2.146-.176-4.346-.164-6.306L.2 52.907.213 28.68l.002-.093z" fill="#231F20"/>
        <path d="M26.485 36.227c15.934-3.547 35.662-5.654 57.035-5.654 21.4 0 41.16 2.094 57.12 5.654" fill="#FFF"/>
        <path d="M26.112 34.267s1.75-.4 4.816-1.107c1.535-.333 3.397-.747 5.536-1.227 2.11-.533 4.612-.866 7.315-1.266 2.708-.4 5.642-.827 8.746-1.28 3.102-.32 6.368-.627 9.755-.894 1.707-.146 3.427-.293 5.173-.44 1.747-.08 3.507-.12 5.294-.173 3.586-.107 7.24-.2 10.88-.293 3.6.093 7.186.186 10.72.293 1.773.053 3.52.08 5.253.173 1.76.147 3.48.294 5.187.44 3.4.267 6.693.574 9.8.894 3.093.453 6.013.88 8.706 1.28 2.694.4 5.16.72 7.32 1.266 2.16.467 4.04.894 5.6 1.227 3.094.72 4.854 1.12 4.854 1.12a2.01 2.01 0 0 1 1.506 2.4 2.006 2.006 0 0 1-2.24 1.52l-.133-.013s-1.76-.267-4.84-.72c-1.533-.24-3.4-.534-5.547-.867-2.12-.387-4.573-.547-7.213-.867-2.653-.28-5.52-.6-8.56-.92-3.04-.186-6.24-.373-9.547-.573-1.666-.107-3.346-.213-5.04-.333A719.574 719.574 0 0 1 94.2 33.8c-3.533-.067-7.12-.147-10.72-.227-3.52.08-7.053.16-10.533.227-1.747.04-3.494.067-5.2.107-1.72.106-3.414.226-5.067.333-3.333.2-6.547.387-9.6.573-3.019.32-5.872.627-8.507.92-2.634.307-5.054.467-7.225.867-2.163.333-4.048.627-5.601.867l-4.888.733a2.006 2.006 0 0 1-2.279-1.68 2.02 2.02 0 0 1 1.532-2.253m60.501 13.826s.04.934.12 2.56c.054 1.627.174 3.947.227 6.734.053 2.786.16 6.04.187 9.52l.08 10.92-.08 10.92c-.027 3.48-.134 6.733-.187 9.52-.053 2.8-.173 5.12-.227 6.746-.08 1.627-.12 2.547-.12 2.547a3.059 3.059 0 0 1-3.2 2.92 3.075 3.075 0 0 1-2.906-2.92s-.04-.92-.12-2.547c-.054-1.626-.174-3.947-.227-6.747-.053-2.786-.16-6.04-.187-9.52l-.08-10.92.08-10.92c.014-3.48.134-6.733.187-9.52.053-2.786.173-5.106.227-6.733.08-1.626.12-2.56.12-2.56a3.068 3.068 0 0 1 3.2-2.92 3.075 3.075 0 0 1 2.906 2.92" fill="#231F20"/>
        <path d="M50.67 74.773s1.027-.04 2.823-.12c1.8-.053 4.374-.16 7.454-.226 3.08-.04 6.68-.16 10.533-.187 3.853-.027 7.973-.053 12.08-.08 4.107.027 8.227.053 12.08.08 3.853.027 7.453.133 10.533.187 3.08.053 5.654.173 7.454.226 1.8.08 2.826.12 2.826.12 1.68.067 3 1.494 2.92 3.187a3.057 3.057 0 0 1-2.92 2.92s-1.026.053-2.826.12c-1.8.053-4.374.173-7.454.227-3.08.053-6.68.173-10.533.186-3.853.027-7.973.054-12.08.08-4.107-.026-8.227-.053-12.08-.08-3.853-.026-7.453-.133-10.533-.186-3.08-.054-5.654-.174-7.454-.227-1.796-.067-2.824-.12-2.824-.12a3.052 3.052 0 0 1-2.928-3.173 3.07 3.07 0 0 1 2.928-2.934" fill="#231F20"/>
    </g>
</svg>
