<svg width="167" height="168" xmlns="http://www.w3.org/2000/svg">
    <title>
        wi
    </title>
    <g fill="none">
        <path d="M3.405 35.16c0-17.333 12.536-31.373 28-31.373 17.334 0 28 16.706 28 34.04 0-15.947 8.667-31.56 24-31.56 16.667 0 24 15.613 24 31.56 0-17.334 11.667-34.04 28.334-34.04 15.464 0 27.692 15.346 27.692 32.68l-.026 47.32c0 44.173-35.817 80-80 80-44.182 0-80-35.827-80-80V35.16" fill="#FFF"/>
        <path d="M6.739 35.24l.012 27.653.006 13.867.003 6.933c.05 2.227.088 4.427.303 6.64.756 8.814 3.005 17.52 6.76 25.533 3.728 8.028 8.816 15.44 15.057 21.72a77.605 77.605 0 0 0 21.521 15.334c7.988 3.813 16.65 6.187 25.442 7.08l3.237.24c1.113.067 2.299.067 3.444.107l.867.026.748-.026 1.658-.04a45.596 45.596 0 0 0 3.315-.174c4.41-.333 8.801-1 13.087-2.107A77.499 77.499 0 0 0 126.3 147.24a77.74 77.74 0 0 0 19.007-18.36c5.257-7.133 9.179-15.214 11.659-23.707 1.228-4.24 2.141-8.587 2.59-13 .207-2.186.403-4.253.426-6.626l.045-1.734.003-1.653.004-3.467.026-27.733.014-13.867c.033-4.306-.634-8.453-2.147-12.4-1.485-3.92-3.715-7.546-6.564-10.52-2.832-2.986-6.399-5.146-10.197-6.266-.483-.187-.932-.267-1.372-.334l-1.331-.266c-.533-.067-1.141-.08-1.708-.12l-.865-.054-.216-.013-.108-.013c-.083 0 .324.013.108.013l-.374.027c-1.99.066-3.989.293-5.878.946-3.799 1.187-7.328 3.44-10.122 6.52-2.849 3.014-5.089 6.694-6.629 10.667-1.565 3.96-2.436 8.24-2.6 12.533v.014a2.66 2.66 0 0 1-2.68 2.653 2.665 2.665 0 0 1-2.643-2.48l-.012-.173-.176-2.614c-.078-.866-.197-1.733-.292-2.586-.256-1.72-.578-3.414-1.029-5.067-.859-3.32-2.136-6.48-3.923-9.213-.888-1.36-1.92-2.587-3.021-3.72-.55-.56-1.188-1.014-1.768-1.534-.63-.453-1.299-.84-1.937-1.28l-2.094-.973c-.741-.213-1.482-.48-2.21-.693-.72-.107-1.4-.254-2.139-.387l-2.763-.147-2.162.12c-.768.094-1.516.28-2.279.414-.737.213-1.457.48-2.192.706-.685.36-1.395.667-2.072 1.04-.636.454-1.325.814-1.935 1.307-.584.533-1.246.973-1.781 1.573a25.818 25.818 0 0 0-3.088 3.734 28.023 28.023 0 0 0-2.419 4.36c-.7 1.533-1.263 3.133-1.736 4.773-.491 1.64-.848 3.32-1.132 5.027-.106.853-.238 1.706-.326 2.56l-.189 2.6a2.658 2.658 0 0 1-2.705 2.626 2.659 2.659 0 0 1-2.62-2.493l-.008-.133-.168-2.787c-.091-.933-.246-1.853-.36-2.773-.323-1.84-.73-3.654-1.3-5.414-.556-1.76-1.206-3.493-2.026-5.133-.36-.84-.844-1.613-1.3-2.4-.428-.813-.966-1.547-1.492-2.28-.493-.76-1.092-1.427-1.68-2.107-.557-.706-1.217-1.293-1.864-1.906-.616-.64-1.337-1.147-2.036-1.68-.672-.574-1.449-.974-2.192-1.427-.724-.493-1.548-.773-2.33-1.147-.77-.4-1.627-.573-2.443-.84-.839-.32-1.607-.346-2.396-.52-.688-.2-1.805-.186-2.776-.253l-.747-.027-.373-.026h-.047c-.052 0 .372.013.183.013h-.101l-.162.013-1.296.08c-.869 0-1.714.2-2.566.334-1.702.32-3.348.88-4.938 1.573-.802.333-1.537.813-2.314 1.213-.746.454-1.448.974-2.179 1.454l-2.015 1.706c-.606.64-1.249 1.254-1.836 1.907-.54.707-1.144 1.36-1.653 2.08-.476.76-1.025 1.467-1.455 2.24-.405.8-.893 1.547-1.244 2.373-.333.827-.753 1.627-1.028 2.48-.258.867-.6 1.694-.805 2.574-.184.866-.44 1.76-.576 2.613-.105.867-.253 1.653-.348 2.573L6.74 35.24zm-6.664-.227l.129-2.986c.095-1.067.272-2.24.419-3.36.176-1.12.461-2.147.693-3.227.25-1.067.647-2.093.97-3.133.338-1.054.831-2.04 1.247-3.054.432-1.013 1.015-1.946 1.522-2.933.53-.96 1.193-1.853 1.79-2.773.634-.907 1.368-1.734 2.058-2.6.736-.827 1.542-1.6 2.317-2.4.839-.72 1.699-1.44 2.563-2.134.929-.626 1.833-1.293 2.793-1.866.996-.507 1.952-1.107 2.99-1.534 2.06-.906 4.213-1.626 6.435-2.026C27.115.8 28.224.573 29.356.56l1.69-.093.21-.014h.408l.373.027.746.053c1.014.094 1.905.08 3.164.36 1.16.24 2.394.4 3.428.8 1.068.374 2.17.654 3.172 1.174 1.016.493 2.068.92 2.993 1.56.95.6 1.928 1.16 2.77 1.893.875.693 1.765 1.373 2.52 2.187.791.773 1.587 1.546 2.255 2.413.704.84 1.41 1.693 1.988 2.613.615.907 1.235 1.8 1.727 2.76.523.947 1.067 1.894 1.472 2.894a38.8 38.8 0 0 1 2.212 6.026c.576 2.067.961 4.16 1.243 6.267.094 1.053.222 2.107.284 3.173l.061 3.174h-5.333l-.002-2.947c.042-.973.139-1.947.208-2.933.216-1.96.52-3.907.986-5.84a39.44 39.44 0 0 1 1.852-5.68 33.708 33.708 0 0 1 2.766-5.387 27.378 27.378 0 0 1 3.835-4.867c.695-.773 1.567-1.4 2.35-2.106.814-.667 1.745-1.214 2.62-1.814.926-.533 1.907-.986 2.865-1.466 1.013-.36 2.025-.734 3.054-1.04 1.05-.214 2.1-.467 3.156-.6l1.592-.12.798-.054.398-.026h.099l.05-.014h.025l.225.014.173.013 2.762.173c1.077.16 2.208.387 3.302.6 1.046.294 2.043.654 3.062.987.978.44 1.941.92 2.901 1.4.892.587 1.81 1.16 2.665 1.8.798.693 1.654 1.347 2.386 2.107a26.714 26.714 0 0 1 3.828 4.933c2.136 3.533 3.512 7.347 4.366 11.213.415 1.934.678 3.88.859 5.827.056.973.137 1.947.168 2.92l-.016 2.907h-5.335l.002-.014c-.232-9.866 3.088-19.906 9.85-27.56 3.378-3.8 7.842-6.8 12.836-8.426C129.908.947 132.548.6 135.163.48l.492-.027c-.144-.013.333 0 .324 0l.108.014.216.013.865.053c.585.04 1.135.054 1.75.12l2.075.36c.702.12 1.387.254 1.994.467 5.064 1.48 9.645 4.333 13.172 8.04 3.556 3.693 6.246 8.107 8.037 12.827 1.817 4.68 2.63 9.826 2.59 14.76l-.002 13.853-.003 27.733v3.467l-.004 1.827-.042 1.72c-.016 2.253-.224 4.8-.456 7.2-.488 4.8-1.475 9.533-2.808 14.16-2.692 9.253-6.96 18.053-12.672 25.827a84.521 84.521 0 0 1-20.672 19.986 84.148 84.148 0 0 1-26.255 11.786c-4.672 1.187-9.456 1.92-14.257 2.28-1.202.094-2.403.174-3.607.187l-1.805.04-.452.014h-.534l-.866-.027c-1.163-.027-2.291-.04-3.484-.094l-3.676-.28c-9.598-.986-19.019-3.573-27.719-7.733a84.915 84.915 0 0 1-23.408-16.706c-6.781-6.854-12.312-14.907-16.361-23.64-4.076-8.747-6.52-18.214-7.334-27.813-.228-2.387-.272-4.8-.318-7.2l.002-6.934.007-13.867.012-27.733c0-.04.001-.107.003-.147z" fill="#231F20"/>
        <path d="M26.343 44.68c15.934-4.48 35.665-7.12 57.03-7.12 21.406 0 41.17 2.627 57.119 7.12" fill="#FFF"/>
        <path d="M25.877 42.733s1.738-.48 4.779-1.333c1.523-.413 3.372-.907 5.493-1.48 2.086-.653 4.596-1.067 7.304-1.56 2.716-.493 5.658-1.027 8.77-1.587a448.68 448.68 0 0 1 9.804-1.093c1.701-.173 3.432-.347 5.184-.533 1.756-.12 3.537-.16 5.33-.227 3.604-.12 7.266-.24 10.927-.36 3.623.093 7.17.053 10.805.293 1.804.08 3.596.16 5.358.294 1.754.146 3.486.306 5.19.453 3.411.267 6.686.787 9.795 1.173 3.095.534 6.035.92 8.717 1.494 2.69.52 5.152 1.013 7.307 1.586 2.157.56 4.05.974 5.581 1.454 3.063.92 4.814 1.453 4.814 1.453a2 2 0 0 1 1.338 2.493 2.003 2.003 0 0 1-2.332 1.374l-.092-.014s-1.738-.386-4.782-1.04c-1.508-.373-3.384-.666-5.512-1.08-2.124-.426-4.556-.746-7.187-1.186-2.628-.454-5.517-.72-8.547-1.12a913.089 913.089 0 0 0-4.689-.44c-1.6-.147-3.23-.32-4.9-.414-1.665-.106-3.359-.226-5.072-.346-1.708-.067-3.437-.134-5.179-.214-3.45-.2-7.12-.146-10.705-.213-3.547.093-7.092.2-10.583.293-1.752.04-3.492.094-5.209.147-1.712.133-3.403.28-5.065.427-3.328.266-6.546.52-9.596.76-3.007.426-5.848.826-8.471 1.2-2.625.4-5.04.626-7.199 1.146-2.153.44-4.03.827-5.576 1.134-3.098.613-4.868.96-4.868.96a2 2 0 0 1-2.356-1.574c-.205-1.026.432-2.026 1.424-2.32m54.228 121.054L79.74 73.12a3.68 3.68 0 0 1 3.652-3.693 3.672 3.672 0 0 1 3.681 3.653v.04l-.367 90.667a3.297 3.297 0 0 1-3.313 3.28 3.306 3.306 0 0 1-3.287-3.28m24.477-57.64c0-5.014 4.064-9.067 9.077-9.067s9.077 4.053 9.077 9.067c0 5.013-4.064 9.08-9.077 9.08s-9.077-4.067-9.077-9.08m-60.51 0c0-5.014 4.064-9.067 9.078-9.067 5.013 0 9.077 4.053 9.077 9.067 0 5.013-4.064 9.08-9.077 9.08-5.014 0-9.078-4.067-9.078-9.08" fill="#231F20"/>
    </g>
</svg>
