<svg width="168" height="168" xmlns="http://www.w3.org/2000/svg">
    <title>
        win
    </title>
    <g fill="none">
        <path d="M3.907 141.026c0-22.466 35.653-29.88 79.826-29.88 44.187 0 80.187 10.054 80.187 30.4 0 13.747-12.36 22.24-27.827 22.24-17.333 0-28-9.04-28-22.786 0 12.653-8.666 20.8-24 20.8-16.666 0-24-8.147-24-20.8 0 13.747-11.666 22.787-28.333 22.787-15.467 0-27.853-9.014-27.853-22.76" fill="#FFF"/>
        <path d="M7.24 141.04c0 2.88.68 5.667 2.013 8.133 1.334 2.467 3.294 4.614 5.667 6.307 2.36 1.707 5.12 2.973 8.04 3.786 1.453.4 2.947.694 4.467.894 1.533.2 3 .28 4.613.28 3.12.026 6.227-.307 9.187-1.067 2.96-.747 5.746-1.96 8.186-3.6 2.427-1.666 4.44-3.826 5.814-6.36 1.386-2.52 2.133-5.413 2.2-8.413v-.08a2.666 2.666 0 0 1 2.733-2.6 2.655 2.655 0 0 1 2.6 2.68c.16 2.76.6 5.44 1.627 7.76.986 2.333 2.48 4.32 4.453 5.76 1.973 1.453 4.36 2.493 6.947 3.106 1.293.307 2.64.534 4.013.654 1.413.133 2.627.186 4.2.186 1.307.014 2.747-.04 4.08-.186 1.36-.133 2.68-.373 3.973-.694 2.574-.653 4.947-1.746 6.96-3.213 2.014-1.48 3.587-3.453 4.64-5.747 1.107-2.293 1.627-4.92 1.774-7.626h5.333c.08 2.48.52 4.907 1.44 7.107a17.4 17.4 0 0 0 3.92 5.84c3.387 3.293 8.12 5.24 13.093 6.026 1.254.2 2.52.334 3.8.414.64.026 1.2.066 1.894.066l1.04.013.906-.026c2.547-.067 5.067-.374 7.494-.974 4.84-1.16 9.306-3.572 12.32-7.106a16.134 16.134 0 0 0 3.226-5.987c.334-1.066.534-2.307.614-3.347.093-1.32.08-2.346-.08-3.453-.574-4.36-3.667-8.226-7.734-11.173-4.066-2.96-8.946-5.134-13.96-6.88-5.04-1.733-10.293-3.027-15.613-4.027-10.653-1.986-21.56-2.92-32.493-3.227-5.44-.16-10.96-.133-16.427.027-5.48.173-10.947.467-16.387.947-5.426.493-10.84 1.16-16.16 2.133-5.306.96-10.56 2.24-15.52 4.04-4.946 1.8-9.693 4.147-13.293 7.427-1.787 1.64-3.24 3.507-4.187 5.56a15.19 15.19 0 0 0-1.08 3.213c-.106.547-.2 1.12-.253 1.68l-.067.787-.013.96zm-6.667-.093l.027-1.04.107-1.294c.093-.8.213-1.6.386-2.4.347-1.6.894-3.16 1.6-4.627 1.4-2.96 3.467-5.493 5.774-7.573 4.653-4.133 10.093-6.666 15.52-8.6 5.453-1.92 11-3.2 16.573-4.186 5.56-.987 11.147-1.64 16.733-2.107 5.587-.467 11.16-.733 16.747-.867 5.587-.106 11.133-.146 16.733-.04 11.187.253 22.387 1.134 33.494 3.147 5.546 1.013 11.08 2.306 16.52 4.12 5.426 1.84 10.813 4.133 15.733 7.64 2.453 1.76 4.787 3.853 6.693 6.453 1.894 2.574 3.334 5.693 3.814 9.013.266 1.627.266 3.387.16 4.814a21.895 21.895 0 0 1-.827 4.813 22.848 22.848 0 0 1-4.52 8.52c-4.187 4.974-10.053 7.867-15.92 9.267a40.597 40.597 0 0 1-8.933 1.093c-.387 0-.707.014-1.16 0l-1.027-.027c-.693-.026-1.52-.08-2.253-.133-1.48-.12-2.96-.307-4.44-.586-2.947-.547-5.88-1.427-8.68-2.734-2.774-1.347-5.414-3.147-7.6-5.44-2.187-2.293-3.934-5.053-4.974-8.04-1.08-2.973-1.466-6.093-1.426-9.133a2.668 2.668 0 0 1 2.493-2.827 2.668 2.668 0 0 1 2.827 2.493v.027l.013.307c.147 3.293-.32 6.72-1.6 9.973a20.895 20.895 0 0 1-6.24 8.414c-2.733 2.226-5.973 3.64-9.2 4.52-1.627.44-3.267.746-4.893.946-1.654.187-3.227.28-4.934.28a50.965 50.965 0 0 1-4.8-.28 35.076 35.076 0 0 1-4.88-.88c-3.226-.826-6.52-2.173-9.293-4.453-2.787-2.227-4.92-5.32-6.107-8.587-1.16-3.293-1.533-6.693-1.386-9.933h5.333c.093 3.733-.653 7.613-2.36 11.08-1.72 3.48-4.347 6.467-7.4 8.707-3.067 2.266-6.547 3.813-10.093 4.8-3.56.986-7.214 1.453-10.827 1.52-1.76.026-3.667-.08-5.48-.307a36.641 36.641 0 0 1-5.44-1.053c-3.573-.974-7.067-2.52-10.2-4.747-3.093-2.227-5.813-5.174-7.653-8.667-1.854-3.48-2.76-7.44-2.734-11.307v-.08z" fill="#231F20"/>
        <path d="M4.067 28.68c0-13.747 12.546-24.893 28-24.893 17.333 0 28 13.253 28 27.013 0-12.667 8.666-25.04 24-25.04 16.666 0 24 12.373 24 25.04 0-13.76 11.666-27.013 28.333-27.013 15.467 0 27.693 12.173 27.693 25.933l-.026 37.533c0 35.054-35.814 63.467-80 63.467-44.174 0-80-28.413-80-63.467V28.68" fill="#FFF"/>
        <path d="M7.4 28.733l.013 24.174.014 12.12c-.014 2.08.026 3.92.146 5.8.107.946.16 1.88.294 2.813l.453 2.8c1.453 7.413 4.72 14.454 9.24 20.6 4.52 6.16 10.213 11.493 16.64 15.786 6.413 4.32 13.507 7.667 20.92 10.027 3.693 1.213 7.48 2.134 11.32 2.84 3.813.733 7.747 1.2 11.573 1.414 1.867.146 3.934.16 5.947.2 1.827-.04 3.867-.027 5.787-.187 3.893-.2 7.773-.68 11.613-1.373a86.71 86.71 0 0 0 11.32-2.8c3.707-1.187 7.36-2.56 10.853-4.24 6.987-3.334 13.574-7.587 19.174-12.854 5.613-5.24 10.32-11.44 13.493-18.333a48.763 48.763 0 0 0 3.52-10.747c.36-1.853.653-3.746.787-5.533.12-.853.106-1.933.16-2.92l.013-.76.013-.373c0-.067 0 .133 0 0v-1.8l.04-24.227-.013-12.013c-.08-3.454-1.12-6.894-2.867-9.934-3.546-6.106-9.986-10.52-17.026-11.706-7.04-1.214-14.654.413-20.28 4.866-5.734 4.294-9.52 11.227-9.814 18.427v.147c-.066 1.48-1.306 2.626-2.773 2.56a2.661 2.661 0 0 1-2.56-2.707c-.147-2.987-.653-5.92-1.68-8.613-.973-2.72-2.44-5.187-4.333-7.187-1.907-1.987-4.2-3.547-6.8-4.507a20.725 20.725 0 0 0-4.067-1.066c-.693-.12-1.44-.2-2.107-.254-.346-.013-.653-.053-1.04-.066l-1.213-.014a23.378 23.378 0 0 0-4.173.334c-1.387.24-2.734.613-4.027 1.12-2.587 1.013-4.88 2.64-6.827 4.626-1.96 2.014-3.493 4.467-4.56 7.134-1.106 2.666-1.68 5.56-1.84 8.493a2.655 2.655 0 0 1-2.653 2.667 2.661 2.661 0 0 1-2.667-2.6L57.4 30.8a24.44 24.44 0 0 0-2.08-9.24 24.442 24.442 0 0 0-5.36-7.693 23.97 23.97 0 0 0-7.853-5c-1.454-.56-2.96-1-4.507-1.294a28.318 28.318 0 0 0-2.347-.32c-.826-.066-1.413-.133-2.373-.133-3.187-.067-6.347.36-9.347 1.347-2.986.973-5.8 2.48-8.2 4.44-2.413 1.96-4.413 4.36-5.8 7.066A20.175 20.175 0 0 0 7.96 24.2c-.187.733-.32 1.48-.413 2.227l-.094 1.026-.053 1.28zm-6.667-.146l.04-1.334c.04-.546.08-1.093.147-1.613.12-1.013.293-2.013.533-3a26.581 26.581 0 0 1 2.094-5.707c1.826-3.613 4.44-6.76 7.533-9.28A32.245 32.245 0 0 1 21.467 2.08 34.277 34.277 0 0 1 33.04.48c.813.013 1.987.12 2.933.227.974.106 1.934.28 2.894.466 1.933.4 3.826.987 5.653 1.747 3.653 1.507 7.027 3.747 9.773 6.587a29.829 29.829 0 0 1 6.387 9.826A29.94 29.94 0 0 1 62.733 30.8H57.4c-.147-3.56.413-7.147 1.56-10.573 1.2-3.4 3.04-6.627 5.507-9.374 2.44-2.773 5.6-4.946 9.026-6.373A26.856 26.856 0 0 1 78.8 2.92a30.105 30.105 0 0 1 5.507-.493l1.226.04c.414.013.92.066 1.374.093.946.08 1.813.187 2.72.36 1.8.307 3.586.787 5.306 1.467 3.467 1.346 6.694 3.506 9.147 6.333 2.467 2.8 4.227 6.12 5.307 9.56a31.502 31.502 0 0 1 1.346 10.52H105.4c-.12-4.493.893-9 2.853-13.027a30.876 30.876 0 0 1 8.32-10.44 31.268 31.268 0 0 1 12.027-5.92 33.19 33.19 0 0 1 6.653-.933l.84-.027h.88c.507.014.974.027 1.6.067 1.214.08 2.28.213 3.4.413 8.907 1.507 17.08 7.014 21.667 14.92 2.28 3.934 3.68 8.467 3.787 13.094l.026 12.213V65.4l-.013 1.507v.493l-.013.373-.014.76c-.053 1.027-.026 1.96-.16 3.12-.173 2.24-.493 4.347-.906 6.467a56.065 56.065 0 0 1-3.987 12.227c-3.587 7.8-8.84 14.706-15.013 20.48-6.174 5.8-13.334 10.426-20.894 14.053-3.786 1.813-7.72 3.293-11.706 4.573a91.247 91.247 0 0 1-12.174 3.027 97.411 97.411 0 0 1-12.44 1.467c-2.106.16-4.106.146-6.32.186-2.013-.053-4-.053-6.16-.213a96.882 96.882 0 0 1-12.453-1.533c-4.107-.76-8.187-1.76-12.16-3.067-7.973-2.547-15.64-6.173-22.613-10.88-7-4.68-13.28-10.546-18.32-17.427-5.014-6.853-8.734-14.826-10.374-23.28-.186-1.066-.346-2.133-.52-3.186C1.067 73.48 1 72.4.88 71.333c-.147-2.146-.173-4.346-.16-6.306v-12.12L.733 28.68v-.093z" fill="#231F20"/>
        <path d="M27.013 36.227c15.934-3.547 35.667-5.654 57.027-5.654 21.4 0 41.173 2.094 57.12 5.654" fill="#FFF"/>
        <path d="M26.64 34.267s1.747-.4 4.813-1.107c1.534-.333 3.4-.747 5.534-1.227 2.106-.533 4.613-.866 7.32-1.266 2.706-.4 5.64-.827 8.746-1.28a403.01 403.01 0 0 1 9.76-.894c1.694-.146 3.414-.293 5.16-.44 1.747-.08 3.52-.12 5.294-.173 3.6-.107 7.24-.2 10.893-.293 3.587.093 7.173.186 10.707.293 1.773.053 3.52.08 5.253.173 1.76.147 3.493.294 5.187.44 3.413.267 6.693.574 9.813.894 3.08.453 6 .88 8.693 1.28 2.694.4 5.16.72 7.32 1.266 2.16.467 4.054.894 5.6 1.227 3.094.72 4.867 1.12 4.867 1.12a2.002 2.002 0 0 1 1.493 2.4c-.226 1.013-1.213 1.667-2.226 1.52l-.147-.013s-1.76-.267-4.84-.72c-1.533-.24-3.4-.534-5.533-.867-2.134-.387-4.574-.547-7.227-.867-2.653-.28-5.52-.6-8.56-.92-3.027-.186-6.24-.373-9.547-.573-1.653-.107-3.333-.213-5.04-.333-1.733-.027-3.48-.067-5.253-.107-3.533-.067-7.12-.147-10.707-.227-3.533.08-7.066.16-10.546.227-1.747.04-3.48.067-5.2.107-1.707.106-3.4.226-5.067.333-3.32.2-6.547.387-9.6.573-3.013.32-5.867.627-8.507.92-2.626.307-5.053.467-7.213.867-2.173.333-4.053.627-5.613.867l-4.88.733a2.004 2.004 0 0 1-2.28-1.68 2.01 2.01 0 0 1 1.533-2.253m54.133 96.453L80.4 58.787c0-2.027 1.627-3.68 3.653-3.68a3.645 3.645 0 0 1 3.68 3.64v.04l-.36 71.933a3.294 3.294 0 0 1-3.32 3.28c-1.813 0-3.266-1.467-3.28-3.28m24.48-47.6c0-5.013 4.067-9.067 9.067-9.067 5.013 0 9.08 4.054 9.08 9.067s-4.067 9.08-9.08 9.08c-5 0-9.067-4.067-9.067-9.08m-60.506 0a9.06 9.06 0 0 1 9.066-9.067c5.014 0 9.08 4.054 9.08 9.067s-4.066 9.08-9.08 9.08c-5.013 0-9.066-4.067-9.066-9.08" fill="#231F20"/>
    </g>
</svg>
