<svg width="167" height="168" xmlns="http://www.w3.org/2000/svg">
    <title>
        glyph_a
    </title>
    <g fill="none" fill-rule="evenodd">
        <path d="M163.63 83.833v40.002c0 22.092-17.907 39.985-39.999 39.985h-80c-22.091 0-40-17.893-40-39.985V83.833c0-44.183 35.817-80.004 80-80.004s80 35.821 80 80.004" fill-rule="nonzero" fill="#FFF"/>
        <path d="M163.63 83.833v40.002c0 22.092-17.907 39.985-39.999 39.985h-80c-22.091 0-40-17.893-40-39.985V83.833c0-44.183 35.817-80.004 80-80.004s80 35.821 80 80.004z" stroke="#231F20" stroke-width="6.667"/>
        <path d="M1.904 84.47s.255-.224.732-.62c.532-.397 1.017-.984 2.347-1.744.604-.345 1.29-.828 2.022-1.156.73-.31 1.52-.638 2.363-1 .857-.294 1.79-.501 2.762-.777.975-.26 2.017-.346 3.095-.518 1.08-.173 2.203-.138 3.366-.225 1.162-.034 2.344.104 3.568.156 1.216.086 2.442.328 3.706.5 1.246.242 2.502.552 3.785.846 1.248.414 2.53.794 3.8 1.225 1.242.518 2.525.984 3.766 1.57 1.217.622 2.488 1.174 3.68 1.865 1.179.724 2.419 1.363 3.55 2.157a58.521 58.521 0 0 1 6.536 5.04c.999.966 1.963 1.794 2.959 2.847.864.95 1.718 1.881 2.558 2.796.819 1.035 1.623 2.054 2.41 3.037.77 1.001 1.409 2.02 2.09 2.986.697.966 1.241 1.985 1.813 2.934.574.949 1.11 1.881 1.547 2.83.451.932.919 1.795 1.298 2.658.357.88.696 1.709 1.015 2.485.643 1.57 1.005 3.003 1.402 4.16.318 1.173.505 2.122.66 2.743l.225.984-3.928.76s-.076-.311-.22-.88c-.151-.57-.33-1.416-.633-2.486-.386-1.035-.726-2.347-1.344-3.762a293.43 293.43 0 0 0-.969-2.278c-.362-.794-.811-1.588-1.24-2.45-.415-.864-.928-1.727-1.477-2.59-.546-.88-1.06-1.829-1.725-2.71-.646-.88-1.265-1.846-1.975-2.726-.715-.88-1.446-1.778-2.19-2.675-.853-.915-1.72-1.83-2.6-2.761-.771-.794-1.79-1.657-2.683-2.486a52.364 52.364 0 0 0-6.07-4.538c-1.045-.725-2.191-1.278-3.275-1.916-1.098-.639-2.265-1.105-3.38-1.657-1.134-.518-2.303-.915-3.432-1.363-1.152-.38-2.308-.69-3.433-1.053-1.147-.224-2.272-.5-3.377-.708-1.113-.12-2.2-.31-3.257-.38-1.055-.017-2.09-.137-3.072-.068-.977.086-1.944.051-2.828.207-.88.172-1.755.241-2.528.466-.767.241-1.518.414-2.185.655-.644.294-1.247.553-1.805.794-.537.26-.897.553-1.3.777-.735.328-1.5 1.122-1.952 1.484-.471.414-.722.622-.722.622L1.904 84.47m42.62 38.111a5.912 5.912 0 1 1-11.797-.8 5.912 5.912 0 1 1 11.797.8" fill-rule="nonzero" fill="#231F20"/>
        <path d="M163.638 79.44c-19.76 2.414-48.286 3.933-80.007 3.933v80.445" stroke="#231F20" stroke-width="5.333" stroke-linecap="round" stroke-linejoin="round"/>
        <path d="M163.637 106.562c-19.759 2.426-48.285 3.947-80.006 3.947m80.006 22.721c-19.759 2.419-48.285 3.942-80.006 3.942" stroke="#231F20" stroke-width="4" stroke-linecap="round" stroke-linejoin="round"/>
        <path d="M64.384 122.452c-.323-.445-.632-.906-.97-1.316a37.85 37.85 0 0 0-2.126-2.479 37.988 37.988 0 0 0-2.293-2.307c-.783-.735-1.62-1.419-2.451-2.086-.866-.632-1.713-1.282-2.628-1.811-.884-.582-1.837-1.009-2.765-1.487-.96-.36-1.94-.787-2.843-.975-.824-.307-2.08-.393-3.175-.564.256.017.064 0 .119.017h-1.499c-.502-.034-1.008.052-1.513.12-1.015.068-2.013.359-3.018.581-.985.359-1.987.632-2.943 1.094-.978.393-1.907.94-2.849 1.436-.917.564-1.837 1.11-2.714 1.743a35.27 35.27 0 0 0-2.587 1.966 39.838 39.838 0 0 0-2.444 2.154 37.353 37.353 0 0 0-2.228 2.29l.163-2.376c.546.82 1.222 1.743 1.895 2.581a42.598 42.598 0 0 0 2.126 2.461 37.988 37.988 0 0 0 2.293 2.308c.784.752 1.62 1.419 2.452 2.102.865.616 1.712 1.265 2.627 1.795.884.598 1.837 1.008 2.766 1.487.96.359 1.939.803 2.842.991.464.12.88.274 1.488.325l1.557.222c1.007-.034 2.011.069 3.024-.12 1.014-.085 2.012-.375 3.017-.598.985-.341 1.987-.632 2.943-1.094.978-.393 1.907-.923 2.849-1.435.917-.547 1.837-1.094 2.714-1.744a31.134 31.134 0 0 0 2.587-1.965 39.981 39.981 0 0 0 2.444-2.154c.394-.376.76-.786 1.14-1.162zm4.12 1.487c-.82.923-1.639 1.76-2.503 2.58a45.41 45.41 0 0 1-2.66 2.342c-.91.752-1.855 1.47-2.833 2.154-.965.7-1.99 1.316-3.015 1.932-1.063.564-2.108 1.162-3.238 1.623-1.093.53-2.277.89-3.436 1.282-1.207.274-2.397.616-3.655.718-1.234.222-2.51.137-3.772.137l-1.818-.24c-.53-.05-1.198-.239-1.832-.393-1.325-.29-2.428-.786-3.59-1.23-1.094-.547-2.218-1.06-3.229-1.727-1.057-.615-2.01-1.35-2.986-2.05-.93-.753-1.862-1.522-2.723-2.325a46.306 46.306 0 0 1-2.513-2.53 48 48 0 0 1-2.313-2.683 38.09 38.09 0 0 1-2.14-2.923 1.964 1.964 0 0 1 .164-2.376 38.475 38.475 0 0 1 2.516-2.581 45.698 45.698 0 0 1 2.66-2.359c.91-.752 1.855-1.47 2.833-2.154.965-.7 1.991-1.316 3.015-1.931 1.063-.564 2.108-1.162 3.239-1.624 1.092-.53 2.276-.872 3.435-1.265 1.207-.29 2.397-.632 3.656-.735.622-.068 1.24-.17 1.875-.136h1.881l.145.017c1.147.188 2.176.222 3.52.615 1.325.29 2.428.786 3.59 1.23 1.094.565 2.219 1.078 3.23 1.744 1.056.598 2.01 1.333 2.985 2.051.93.752 1.862 1.504 2.723 2.325.877.803 1.715 1.64 2.513 2.512a42.63 42.63 0 0 1 2.313 2.701 37.722 37.722 0 0 1 2.14 2.906 1.963 1.963 0 0 1-.162 2.376l-.014.017z" fill-rule="nonzero" fill="#231F20"/>
    </g>
</svg>
