<svg width="168" height="168" xmlns="http://www.w3.org/2000/svg">
    <title>
        akesi
    </title>
    <g fill="none" fill-rule="evenodd">
        <path d="M26.978 71.556c-1.468-2.551-2.342-5.758-2.342-9.23 0-8.38 3.627-15.324 9.886-15.324 6.259 0 12.782 6.945 12.782 15.324-.893-8.557 2.898-18.76 10.027-19.186 5.968-.372 11.859 6.413 12.64 14.864 0 0 .554-20.675 15.808-20.675 8.666 0 15.69 9.407 15.69 20.993 0 26.149-16.263 40.18-45.166 40.18-28.901 0-52.332-21.206-52.332-47.337C3.97 25.017 27.4 3.83 56.303 3.83H83.97c44.183 0 80 35.821 80 80.004 0 44.183-35.817 79.987-80 79.987-41.606 0-75.333-27.53-75.333-61.492 0-8.06 1.901-15.767 5.358-22.818" fill-rule="nonzero" fill="#FFF"/>
        <path d="M26.39 71.881a16.53 16.53 0 0 1-1.734-2.926 18.557 18.557 0 0 1-1.119-3.264c-.287-1.135-.422-2.27-.521-3.458a21.201 21.201 0 0 1-.041-1.703c.009-.585.03-1.153.074-1.72.169-2.306.635-4.648 1.623-6.9a15.185 15.185 0 0 1 1.91-3.246c.82-1.01 1.824-1.933 3.025-2.643a10.103 10.103 0 0 1 3.966-1.294 9.91 9.91 0 0 1 1.1-.054c.272 0 .5 0 .92.054.759.053 1.362.195 2.02.372 2.575.71 4.723 2.2 6.438 3.973 3.399 3.565 5.158 8.549 4.585 13.25h.002a1.316 1.316 0 0 1-1.174 1.454c-.683.088-1.3-.39-1.433-1.047l-.054-.266c-.39-1.95-.459-3.973-.36-5.977.139-2.004.485-4.026 1.14-5.977.646-1.97 1.583-3.885 2.988-5.623 1.376-1.72 3.398-3.246 5.826-3.83.62-.125 1.176-.231 1.864-.25l.353-.017.493.018c.359.018.646.053.947.088 1.207.16 2.342.55 3.38 1.065 2.07 1.046 3.724 2.554 5.036 4.256 1.31 1.685 2.28 3.583 2.946 5.552.632 1.969 1.027 4.008 1.038 6.066h.002l-3.326.124c.098-3.902.72-7.591 2.05-11.28 1.333-3.619 3.583-7.326 7.294-9.65a15.82 15.82 0 0 1 6.037-2.18c.529-.09 1.049-.107 1.575-.143l.396-.035h.447c.241 0 .417-.018.711 0a15.08 15.08 0 0 1 3.354.55c4.31 1.224 7.717 4.239 10.055 7.626 2.336 3.441 3.755 7.379 4.281 11.387.146 1.011.224 2.022.272 3.033l.021.745.005.444-.01.337-.034 1.348c-.003.869-.106 1.933-.16 2.89-.081.976-.195 1.916-.306 2.874-.532 3.813-1.451 7.627-2.959 11.263-1.523 3.636-3.63 7.059-6.277 10.02-5.29 5.978-12.525 9.791-19.865 11.69-7.367 2.039-14.913 2.482-22.339 2.199-7.646-.39-15.058-2.253-21.986-5.428-6.916-3.14-13.214-7.75-18.288-13.533A47.32 47.32 0 0 1 1.923 61.754C.998 57.976.597 54.109.664 50.172l.037-1.366c.018-.461.073-.993.11-1.472a33.28 33.28 0 0 1 .334-2.962c.266-1.916.699-3.831 1.199-5.711 2.091-7.503 6.075-14.402 11.307-20.078 5.246-5.658 11.688-10.145 18.723-13.196C39.414 2.337 47.034.704 54.67.509c1.958-.07 3.677-.035 5.507-.053h23.716l.763.018 2.708.07c1.81.054 3.819.231 5.683.409 1.867.23 3.74.443 5.59.816 7.428 1.259 14.644 3.671 21.453 6.881 13.584 6.545 25.313 16.815 33.594 29.408 8.349 12.557 13.056 27.474 13.626 42.532.64 15.023-2.966 30.276-10.238 43.472-7.249 13.232-18.196 24.37-31.225 31.944-6.504 3.83-13.56 6.669-20.846 8.602-7.316 1.844-14.84 2.838-22.406 2.66-14.926-.195-29.993-3.902-43.125-11.351-6.557-3.725-12.646-8.372-17.84-13.923-5.171-5.57-9.522-12.026-12.353-19.173-2.86-7.113-4.287-14.917-3.937-22.561.297-7.751 2.286-15.325 5.661-22.224a3.331 3.331 0 0 1 4.46-1.526 3.341 3.341 0 0 1 1.526 4.47c-2.97 6.084-4.69 12.806-4.936 19.492-.294 6.811.972 13.533 3.5 19.83 2.502 6.296 6.385 12.025 11.05 17.027 4.685 5.002 10.233 9.223 16.246 12.61 12.059 6.812 25.943 10.217 39.89 10.394 6.89.16 13.83-.745 20.524-2.43 6.676-1.773 13.146-4.363 19.111-7.875 11.956-6.935 22.02-17.15 28.68-29.283 6.678-12.131 9.995-26.037 9.42-39.89-.518-13.834-4.815-27.508-12.476-39.055-7.596-11.564-18.375-21.035-30.845-27.048-6.253-2.944-12.872-5.162-19.697-6.332-1.695-.355-3.42-.532-5.135-.745-.862-.124-1.693-.142-2.541-.23-.855-.054-1.653-.16-2.584-.16l-2.709-.071-.592-.018H60.177c-1.78 0-3.676-.035-5.33.036-6.809.16-13.573 1.614-19.804 4.31-6.224 2.695-11.89 6.65-16.474 11.581-4.567 4.949-7.997 10.908-9.796 17.33-.425 1.613-.801 3.245-1.027 4.894-.127.834-.232 1.65-.282 2.43-.03.408-.08.78-.097 1.224l-.04 1.348c-.072 3.299.214 6.669.978 9.915 1.515 6.51 4.604 12.664 8.953 17.843 4.337 5.214 9.851 9.471 16.017 12.468 6.138 3.016 13.008 4.7 19.79 5.126 6.988.355 14.053-.283 20.617-2.146 6.554-1.915 12.524-5.392 16.72-10.393 4.229-5.002 6.513-11.423 7.359-18.092.085-.851.18-1.702.238-2.518.032-.852.117-1.597.113-2.537l.022-1.348v-.585l-.006-.603a23.938 23.938 0 0 0-.177-2.377c-.397-3.139-1.348-6.225-2.948-8.85-1.568-2.625-3.83-4.789-6.484-5.711a10.066 10.066 0 0 0-1.957-.48c-.154-.035-.433-.035-.642-.052l-.168-.018h-.342c-.375.018-.763-.018-1.127.035a10.639 10.639 0 0 0-4.186 1.171c-2.588 1.348-4.604 3.99-5.96 7.024-1.35 3.015-2.191 6.509-2.5 9.826l-.013.124a1.66 1.66 0 0 1-1.81 1.507 1.65 1.65 0 0 1-1.503-1.525v-.018c-.346-1.702-.814-3.352-1.54-4.895-.691-1.525-1.576-2.962-2.63-4.203-1.053-1.224-2.277-2.27-3.593-2.892a6.491 6.491 0 0 0-1.981-.62 2.385 2.385 0 0 0-.456-.054c-.073 0-.106-.017-.211-.017l-.353.017c-.252 0-.63.036-.931.107-1.27.248-2.448 1.064-3.49 2.2-1.037 1.134-1.87 2.589-2.542 4.15-1.304 3.157-1.97 6.704-1.953 10.269l-2.66.124c-.3-1.969-.875-3.849-1.742-5.551-.868-1.703-2.001-3.246-3.36-4.505-1.335-1.26-2.92-2.2-4.51-2.66-.381-.107-.839-.214-1.155-.231-.115-.036-.427-.036-.693-.036-.071 0-.355-.018-.518 0a5.452 5.452 0 0 0-2.168.603c-1.356.727-2.534 2.11-3.403 3.76-.86 1.65-1.439 3.565-1.799 5.534-.088.497-.16.993-.218 1.508a34.67 34.67 0 0 0-.143 1.525c-.066.958-.098 1.986-.018 2.997.037 1.011.214 2.005.415 2.998.227 1.01.498 1.933.908 2.98a.663.663 0 0 1-.381.869.655.655 0 0 1-.779-.213l-.018-.018" fill-rule="nonzero" fill="#231F20"/>
        <path d="M12.638 106.019c15.147 1.863 47.015 3.025 71.334 3.025m-71.334 11.971c15.147 1.853 47.016 3.025 71.333 3.025" stroke="#231F20" stroke-width="4" stroke-linecap="round" stroke-linejoin="round"/>
        <path d="M83.97 93.827v46.221c-19.62 0-44.157-.755-60.86-2.025m118.636-33.748c0 11.283-9.153 20.446-20.444 20.446-11.29 0-20.444-9.163-20.444-20.446 0-11.3 9.153-20.446 20.444-20.446 11.291 0 20.444 9.147 20.444 20.446z" stroke="#231F20" stroke-width="5.333" stroke-linecap="round" stroke-linejoin="round"/>
        <path d="M122.304 83.821s.2.62.459 1.74a62.37 62.37 0 0 1 .878 4.584c.591 3.79.988 8.84.993 13.888.014 5.065-.37 10.114-.97 13.904a59.15 59.15 0 0 1-.893 4.584c-.262 1.102-.467 1.74-.467 1.74-.18.551-.773.861-1.325.672a1.04 1.04 0 0 1-.675-.672s-.205-.638-.467-1.74a59.105 59.105 0 0 1-.893-4.584c-.601-3.79-.985-8.839-.971-13.904.005-5.049.401-10.097.992-13.888.298-1.895.615-3.48.88-4.583.259-1.12.459-1.74.459-1.74a1.055 1.055 0 0 1 1.316-.69c.336.104.583.38.684.69" fill-rule="nonzero" fill="#231F20"/>
    </g>
</svg>
