<svg width="168" height="168" xmlns="http://www.w3.org/2000/svg">
    <title>
        ala
    </title>
    <g fill="none" fill-rule="evenodd">
        <path d="M164.303 123.835c0 22.092-17.908 39.985-40 39.985H44.304c-22.091 0-40-17.893-40-39.985V43.831c0-22.092 17.909-40.002 40-40.002h80c22.09 0 40 17.91 40 40.002v80.004" fill-rule="nonzero" fill="#FFF"/>
        <path d="M164.303 123.835c0 22.092-17.908 39.985-40 39.985H44.304c-22.091 0-40-17.893-40-39.985V43.831c0-22.092 17.909-40.002 40-40.002h80c22.09 0 40 17.91 40 40.002v80.004z" stroke="#231F20" stroke-width="6.667"/>
        <path d="M131.446 102.68L112.59 83.817l18.856-18.862c7.812-7.798 7.812-20.478 0-28.275-7.81-7.815-20.474-7.815-28.285 0L84.306 55.525 65.45 36.681c-7.812-7.815-20.474-7.815-28.284 0-7.812 7.797-7.812 20.477 0 28.275L56.02 83.818l-18.854 18.861c-7.812 7.798-7.812 20.46 0 28.275 7.81 7.815 20.472 7.815 28.284 0l18.856-18.861 18.855 18.861c7.811 7.815 20.475 7.815 28.285 0 7.812-7.815 7.812-20.477 0-28.275" fill-rule="nonzero" fill="#FFF"/>
        <path d="M133.432 100.7c1.463 1.528 2.836 3.18 3.856 5.06 1.02 1.862 1.868 3.847 2.32 5.938.49 2.073.72 4.217.581 6.36-.005 1.072-.214 2.126-.358 3.18-.253 1.037-.452 2.091-.84 3.093-.673 2.055-1.648 3.918-2.922 5.763l-1.03 1.37-.94 1.037-.235.246-.118.14-.06.053-.133.14-.037.036-.596.544c-.4.352-.788.72-1.201 1.054-1.694 1.318-3.534 2.443-5.514 3.268-1.99.791-4.06 1.406-6.193 1.617-2.12.21-4.28.228-6.383-.176-2.1-.351-4.173-.966-6.084-1.915-.986-.422-1.872-1.02-2.79-1.564l-1.366-1.001-.662-.527-.515-.457-1.131-1.054-.983-1.002-1.964-1.985L82.418 114h3.77L76.04 124.383l-5.11 5.148c-1.763 1.722-3.223 3.409-5.47 5.271-4.317 3.497-9.982 5.236-15.513 4.92a23.258 23.258 0 0 1-8.054-1.95 21.773 21.773 0 0 1-3.665-2.056c-.576-.422-1.247-.896-1.73-1.3l-1.34-1.23-.133-.123-.02-.018-.046-.052-.088-.106-.174-.193-.35-.387-.694-.773c-.45-.527-.834-1.107-1.25-1.669-.776-1.142-1.482-2.354-2.03-3.637a22.868 22.868 0 0 1-1.945-8.047 23.1 23.1 0 0 1 1.023-8.205c.233-.65.442-1.318.711-1.95l.887-1.88 1.062-1.792c.4-.598.862-1.195 1.302-1.775.45-.597.825-.93 1.243-1.405l.304-.334.259-.281.161-.158.643-.633 2.576-2.565 5.157-5.113 10.378-10.155v3.777L43.752 75.557l-5.155-5.113c-1.72-1.757-3.4-3.215-5.265-5.464-3.497-4.322-5.229-9.98-4.91-15.514.155-2.758.814-5.5 1.946-8.047.555-1.283 1.235-2.46 2.048-3.654.427-.58.895-1.248 1.31-1.74l1.315-1.458c3.95-3.918 9.365-6.325 14.908-6.624a23.162 23.162 0 0 1 8.207 1.02c.652.245 1.314.456 1.952.72l1.883.878 1.787 1.072c.596.404 1.188.86 1.773 1.3.596.457.937.826 1.416 1.247l.336.299.269.264.16.158.639.65 2.555 2.565 5.112 5.165 10.15 10.384h-3.77L92.57 43.281l5.11-5.165c1.761-1.722 3.221-3.391 5.47-5.253 4.317-3.497 9.982-5.236 15.51-4.92a23.21 23.21 0 0 1 8.05 1.95c1.29.563 2.46 1.23 3.665 2.038.576.44 1.249.896 1.73 1.318l1.46 1.318c3.92 3.953 6.332 9.365 6.619 14.899a23 23 0 0 1-1.023 8.205c-.235.668-.444 1.318-.713 1.968l-.886 1.88-1.063 1.792c-.4.58-.862 1.177-1.301 1.757-.449.597-.826.949-1.244 1.423l-.306.334-.257.263-.161.176-.645.633-2.574 2.547-5.155 5.113-10.382 10.155v-3.777l18.958 18.764zm-3.976 3.97l-18.754-18.958a2.684 2.684 0 0 1-.013-3.76l.013-.017 10.152-10.366 5.11-5.166 2.559-2.565.638-.65.16-.158.08-.088c.027-.035-.177.193-.082.088l.019-.018.039-.052.302-.334c.372-.44.878-.931 1.14-1.318l.828-1.16.783-1.335.647-1.405c.195-.492.339-.984.518-1.476.603-1.968.845-4.059.712-6.115-.252-4.128-2.061-8.1-4.983-11.016l-1.232-1.107c-.435-.369-.782-.58-1.166-.878-.796-.545-1.719-1.107-2.65-1.511a17.047 17.047 0 0 0-5.963-1.476c-4.118-.264-8.346.966-11.584 3.567-1.502 1.194-3.303 3.11-5.004 4.779L96.57 47.27 86.19 57.425a2.693 2.693 0 0 1-3.772 0L72.036 47.27l-5.153-5.095-2.578-2.566-.643-.632-.161-.158-.081-.088c-.03-.035.186.176.084.088l-.02-.018-.041-.053-.34-.298c-.435-.37-.932-.879-1.319-1.142l-1.165-.826-1.337-.773-1.407-.65c-.476-.193-.975-.352-1.46-.527a17.168 17.168 0 0 0-6.12-.703c-4.13.246-8.096 2.056-11.01 4.972l-1.118 1.248c-.374.421-.57.773-.875 1.16-.541.79-1.102 1.721-1.502 2.652a17.025 17.025 0 0 0-1.488 5.956c-.268 4.112.973 8.346 3.564 11.579 1.199 1.51 3.12 3.303 4.776 5.007l5.113 5.166 10.15 10.366a2.708 2.708 0 0 1 0 3.777L47.749 96.096l-5.109 5.148-2.556 2.583-.64.632-.16.176-.079.07c-.028.035.178-.175.081-.088l-.02.036-.038.035-.302.334c-.373.439-.88.93-1.14 1.317l-.828 1.177-.782 1.336-.648 1.405c-.197.475-.34.967-.518 1.459a17.16 17.16 0 0 0 .775 12.088c.407.948.943 1.827 1.52 2.67.317.404.595.844.934 1.23l.524.58.26.281.128.14.065.07.031.036.016.017c-.042-.035.121.123-.093-.087l1.351 1.212c.432.386.779.58 1.163.878.796.545 1.719 1.107 2.652 1.511 1.87.844 3.9 1.353 5.96 1.476 4.116.281 8.341-.966 11.581-3.549 1.499-1.212 3.303-3.127 5.004-4.779l5.153-5.113 10.384-10.155h.009a2.682 2.682 0 0 1 3.763 0l15.92 15.725 1.99 1.95.995.984.937.844.52.474c.161.123.306.21.458.316l.893.633c.701.386 1.358.843 2.103 1.142 1.434.703 2.989 1.124 4.556 1.37 1.57.281 3.182.246 4.758.088 1.586-.158 3.115-.65 4.587-1.23 1.464-.615 2.811-1.458 4.062-2.442.304-.246.589-.527.886-.79l.443-.405.362-.404.932-1.037.63-.878c.859-1.212 1.669-2.67 2.152-4.164.307-.738.439-1.529.652-2.284.1-.79.284-1.581.286-2.372.121-1.581-.035-3.198-.369-4.744-.299-1.564-.924-3.057-1.655-4.463-.73-1.423-1.755-2.67-2.832-3.865z" fill-rule="nonzero" fill="#231F20"/>
        <path d="M52.72 49.419s1.064.994 2.926 2.738c1.844 1.762 4.514 4.256 7.65 7.308 3.134 3.052 6.828 6.575 10.715 10.412 3.886 3.854 8.031 7.953 12.179 12.069 4.104 4.133 8.207 8.284 12.055 12.173 3.85 3.872 7.372 7.587 10.426 10.709 3.052 3.139 5.535 5.807 7.302 7.656l2.743 2.93a1.997 1.997 0 0 1-.09 2.825 2.016 2.016 0 0 1-2.738 0l-2.927-2.738c-1.842-1.779-4.514-4.255-7.65-7.307-3.132-3.053-6.83-6.576-10.713-10.43-3.888-3.854-8.033-7.953-12.179-12.051-4.104-4.151-8.207-8.302-12.055-12.191-3.847-3.872-7.37-7.57-10.424-10.709-3.05-3.139-5.537-5.807-7.304-7.639l-2.743-2.93a1.995 1.995 0 0 1 .09-2.825 1.996 1.996 0 0 1 2.737 0" fill-rule="nonzero" fill="#231F20"/>
        <path d="M118.715 52.24s-.997 1.081-2.745 2.93c-1.765 1.849-4.25 4.517-7.302 7.657-3.056 3.139-6.577 6.836-10.426 10.708L86.189 85.726c-4.146 4.099-8.293 8.197-12.18 12.052-3.883 3.837-7.58 7.36-10.713 10.412-3.136 3.052-5.806 5.546-7.65 7.307-1.862 1.744-2.928 2.756-2.928 2.756a1.993 1.993 0 0 1-2.827-.105c-.725-.767-.712-1.97 0-2.738 0 0 .998-1.064 2.743-2.912 1.767-1.85 4.252-4.518 7.303-7.657 3.055-3.14 6.577-6.837 10.426-10.708L82.418 81.94c4.146-4.098 8.291-8.197 12.179-12.051 3.884-3.854 7.581-7.36 10.714-10.43 3.135-3.052 5.806-5.528 7.649-7.29a600.52 600.52 0 0 0 2.927-2.755 1.995 1.995 0 0 1 2.828.104 1.988 1.988 0 0 1 0 2.721" fill-rule="nonzero" fill="#231F20"/>
    </g>
</svg>
