<svg width="167" height="168" xmlns="http://www.w3.org/2000/svg">
    <title>
        alasa
    </title>
    <g fill="none" fill-rule="evenodd">
        <path d="M3.638 83.822V58.938c0-22.1 17.908-40.004 40-40.004h80c22.091 0 40 17.905 40 40.004v24.884c0 44.18-35.817 80.008-80 80.008s-80-35.827-80-80.008" fill-rule="nonzero" fill="#FFF"/>
        <path d="M3.638 83.822V58.938c0-22.1 17.908-40.004 40-40.004h80c22.091 0 40 17.905 40 40.004v24.884c0 44.18-35.817 80.008-80 80.008s-80-35.827-80-80.008z" stroke="#231F20" stroke-width="6.667"/>
        <path d="M117.31 25.832c0 12.153-15.076 22.003-33.674 22.003-18.597 0-33.673-9.85-33.673-22.003S65.04 3.829 83.636 3.829c18.598 0 33.674 9.85 33.674 22.003" fill-rule="nonzero" fill="#FFF"/>
        <path d="M114.308 25.83l-.145-1.56c-.055-.514-.274-1.135-.424-1.862-.114-.355-.298-.727-.454-1.135-.08-.195-.164-.408-.249-.621-.108-.213-.24-.408-.365-.639-.935-1.738-2.519-3.742-4.885-5.569-2.344-1.827-5.402-3.512-9-4.789-.905-.301-1.849-.567-2.796-.869-.974-.23-1.965-.46-2.972-.709-1.026-.16-2.068-.337-3.127-.514-1.047-.09-2.058-.213-3.173-.302a6772.8 6772.8 0 0 0-1.792-.053l-.904-.036h-.773c-1.137.054-2.297.018-3.457.142-2.318.195-4.69.48-7.022 1.082-2.355.497-4.65 1.313-6.901 2.27a33.664 33.664 0 0 0-6.277 3.672c-1.88 1.507-3.531 3.246-4.718 5.197-.612.94-1.048 2.04-1.376 3.015-.096.496-.26.869-.365 1.454l-.18 2.057c.018-.443.008-.088.013-.177l.005.053.007.107.016.195.03.425.046.816c.075.55.238 1.082.34 1.614.324 1.082.723 2.129 1.322 3.122 1.151 2.004 2.783 3.813 4.656 5.374 3.844 3.05 8.528 5.072 13.258 6.208 2.352.62 4.774.94 7.025 1.17 1.133.124 2.446.124 3.638.177 1.021.018 2.26-.053 3.354-.088 4.494-.266 8.689-1.153 12.312-2.519 3.633-1.348 6.7-3.121 9.028-5.055 2.353-1.897 3.909-3.972 4.81-5.764.119-.213.248-.425.351-.638.082-.23.16-.444.236-.639.145-.408.325-.798.424-1.153.062-.319.128-.62.197-.886.055-.302.165-.444.165-.816.087-1.295.13-1.987.13-1.987l-.008.23zm5.991.231l-.174 1.987c.002.266-.147.816-.244 1.295-.123.496-.254 1.046-.398 1.65-.173.549-.415 1.081-.647 1.684-.122.284-.245.585-.374.905-.15.301-.326.585-.499.904-1.328 2.483-3.481 5.126-6.415 7.414-2.92 2.288-6.56 4.274-10.725 5.746-4.164 1.472-8.843 2.466-13.832 2.75-1.277.035-2.444.106-3.858.088-1.24-.053-2.4-.018-3.746-.142-2.708-.23-5.354-.567-8.022-1.224-2.68-.585-5.336-1.525-7.963-2.642a39.763 39.763 0 0 1-7.54-4.452c-4.638-3.707-8.852-9.099-8.891-16.424l.138-2.057c.1-.78.33-1.738.524-2.607.49-1.632 1.09-3.122 1.92-4.523 1.614-2.785 3.768-5.09 6.105-7.024C60.417 5.63 65.86 3.324 71.24 2.03c2.687-.692 5.387-1.064 8.028-1.313C80.588.575 81.9.592 83.195.521l.243-.017h.35l.454.017.904.036 1.792.053c1.25.089 2.564.248 3.816.373 1.215.195 2.413.39 3.59.603a90.6 90.6 0 0 1 3.429.833c1.101.373 2.192.692 3.24 1.064 4.196 1.561 7.847 3.636 10.752 6.03 2.92 2.36 5.047 5.073 6.34 7.61.167.3.34.602.486.904.123.32.243.62.36.922.222.603.46 1.153.618 1.685.24 1.118.503 2.04.58 2.82l.16 2.377-.01.23z" fill-rule="nonzero" fill="#231F20"/>
        <path d="M100.587 95.565l16.952-27.297H49.738l16.95 27.297 8.246 13.285H49.738l16.95 27.28 16.95 27.296 16.95-27.297 16.95-27.28H92.34l8.248-13.284" fill-rule="nonzero" fill="#FFF"/>
        <path d="M100.587 95.565l16.952-27.297H49.738l16.95 27.297 8.246 13.285H49.738l16.95 27.28 16.95 27.296 16.95-27.297 16.95-27.28H92.34z" stroke-linecap="round" stroke-width="5.333" stroke="#231F20" stroke-linejoin="round"/>
    </g>
</svg>
