<svg width="174" height="174" xmlns="http://www.w3.org/2000/svg">
    <title>
        ale
    </title>
    <g fill="none" fill-rule="evenodd">
        <path d="M163.97 129.835c0 22.092-17.91 39.985-40.001 39.985h-80c-22.09 0-40-17.893-40-39.985V49.831c0-22.092 17.91-40.002 40-40.002h80c22.091 0 40 17.91 40 40.002v80.004" fill-rule="nonzero" fill="#FFF"/>
        <path d="M163.97 129.835c0 22.092-17.91 39.985-40.001 39.985h-80c-22.09 0-40-17.893-40-39.985V49.831c0-22.092 17.91-40.002 40-40.002h80c22.091 0 40 17.91 40 40.002v80.004z" stroke="#231F20" stroke-width="6.667"/>
        <path d="M151.185 42.016c-26.581 37.556-69.946 88.24-69.946 88.24-10.415 10.416-27.3 10.416-37.713 0-10.414-10.4-10.414-27.282 0-37.699 0 0 47.855-40.94 85.009-67.636 20.868-15.005 36.397-2.321 22.65 17.095" fill-rule="nonzero" fill="#FFF"/>
        <path d="M149.012 40.463c1.774-2.528 3.254-5.233 4.065-8.01.82-2.74.886-5.623-.2-7.691-1.04-2.07-3.223-3.36-5.905-3.625-2.674-.3-5.629.3-8.426 1.361-2.815 1.079-5.508 2.617-8.07 4.439l-7.906 5.87c-2.63 1.98-5.296 3.908-7.9 5.924l-7.81 6.082c-2.598 2.034-5.222 4.032-7.786 6.1l-7.725 6.19c-5.172 4.102-10.242 8.328-15.363 12.483l-7.624 6.33-7.604 6.33-15.114 12.785.185-.177a23.415 23.415 0 0 0-5.057 7.603 23.422 23.422 0 0 0-1.758 8.948 23.58 23.58 0 0 0 1.797 8.947 23.117 23.117 0 0 0 2.164 4.014c.428.636.893 1.255 1.362 1.839l.7.813.9.955.773.725.866.76a26.06 26.06 0 0 0 1.836 1.362 22.037 22.037 0 0 0 4.028 2.175 23.48 23.48 0 0 0 8.943 1.786 23.23 23.23 0 0 0 8.958-1.75 23.662 23.662 0 0 0 7.604-5.058l-.17.177c6.067-7.108 12.162-14.234 18.156-21.449 2.99-3.607 6.023-7.179 8.98-10.804l8.904-10.874 8.78-10.98c1.458-1.822 2.945-3.643 4.352-5.518l4.269-5.552 4.27-5.552a218.82 218.82 0 0 0 4.212-5.623l8.314-11.335zm4.341 3.113L145.07 54.98a205.776 205.776 0 0 1-4.198 5.676l-4.277 5.623-4.28 5.623c-1.415 1.892-2.894 3.713-4.326 5.587l-8.666 11.122-8.788 11.034c-2.918 3.696-5.908 7.32-8.859 10.98l-8.933 10.91a1078.43 1078.43 0 0 1-9.04 10.84l-.073.088-.098.089a29.819 29.819 0 0 1-9.695 6.507 29.975 29.975 0 0 1-11.453 2.298c-3.92 0-7.84-.76-11.472-2.263a29.143 29.143 0 0 1-5.19-2.758 33.068 33.068 0 0 1-2.366-1.75l-1.114-.956-1.126-1.078-.903-.937-1.012-1.167a34.184 34.184 0 0 1-1.76-2.37 30.153 30.153 0 0 1-2.767-5.199 30.036 30.036 0 0 1-2.258-11.475c.01-3.908.79-7.834 2.3-11.458a29.839 29.839 0 0 1 6.508-9.69l.097-.106.089-.071A1306.07 1306.07 0 0 1 56.664 77.33l7.69-6.295 7.713-6.26c5.181-4.12 10.305-8.31 15.541-12.377l7.82-6.136c2.593-2.05 5.254-4.031 7.885-6.047l7.91-6.03c2.64-1.998 5.349-3.925 8.019-5.888l8.063-5.888c2.84-1.998 5.927-3.766 9.297-5.04 3.365-1.255 7.064-2.086 10.993-1.662 1.95.23 3.961.814 5.777 1.928a11.606 11.606 0 0 1 4.332 4.685c.974 1.91 1.367 3.997 1.383 5.977.009 1.98-.322 3.89-.854 5.676-1.07 3.572-2.849 6.72-4.87 9.584l-.009.018z" fill-rule="nonzero" fill="#231F20"/>
        <path d="M60.598 108.956l76.426-75.363a2.251 2.251 0 0 1 3.183.017 2.255 2.255 0 0 1 0 3.164L64.84 113.19a3.005 3.005 0 0 1-4.242.036 3.015 3.015 0 0 1-.029-4.254c.007 0 .023-.017.029-.017" fill-rule="nonzero" fill="#231F20"/>
        <path d="M170.637 29.827c0 14.72-11.938 26.67-26.667 26.67-14.725 0-26.665-11.95-26.665-26.67 0-14.738 11.94-26.67 26.665-26.67 14.73 0 26.667 11.932 26.667 26.67" fill-rule="nonzero" fill="#FFF"/>
        <path d="M167.464 29.833l-.103-1.67c-.004-.534-.11-1.191-.246-1.974-.07-.373-.113-.8-.215-1.226-.115-.445-.24-.889-.37-1.387-.57-1.92-1.436-4.23-3.028-6.541-1.572-2.293-3.72-4.675-6.567-6.613-1.443-.924-2.995-1.849-4.74-2.489-.436-.16-.874-.337-1.314-.497-.455-.125-.916-.25-1.38-.374-.947-.302-1.808-.337-2.725-.533-.45-.089-1.095-.089-1.639-.142l-.857-.053-.43-.018h.109-.144l-.19.018c-1.016.053-2.057.017-3.083.213-2.08.231-4.131.871-6.14 1.689-2.01.835-3.884 2.044-5.654 3.43-1.737 1.423-3.266 3.129-4.592 5.013-1.287 1.902-2.277 4.018-3.016 6.222-.3 1.138-.639 2.275-.767 3.342-.241.995-.24 2.453-.328 3.715.007-.249.001-.036.005-.071l.002.053.007.107.01.213.022.445.04.888c-.001.587.1 1.156.19 1.742.12 1.174.445 2.293.726 3.431.711 2.24 1.673 4.373 2.942 6.31 1.307 1.92 2.832 3.662 4.577 5.138 1.778 1.404 3.664 2.649 5.696 3.52.483.266 1.026.39 1.53.604.516.178 1.015.391 1.549.498.524.142 1.045.266 1.566.408.515.125 1.004.143 1.5.232.903.195 2.181.195 3.312.248l.215.018h.072l.386-.018.768-.053c.51-.053 1.022-.035 1.52-.124 4.002-.516 7.603-1.991 10.493-3.964 2.89-1.974 5.052-4.427 6.58-6.809 1.56-2.364 2.383-4.728 2.913-6.666.12-.497.233-.96.341-1.386.089-.427.116-.818.176-1.173.057-.374.107-.711.155-1.014.046-.302.035-.693.055-.995.05-1.227.074-1.866.074-1.866l-.003.16zm6.342.16l-.115 1.867c-.027.32-.02.622-.082 1.067-.068.426-.14.906-.219 1.422-.089.515-.16 1.084-.29 1.653-.145.55-.302 1.137-.465 1.76-.718 2.435-1.838 5.386-3.85 8.319-1.979 2.933-4.745 5.937-8.39 8.319a30.416 30.416 0 0 1-13.094 4.675c-.616.089-1.241.071-1.869.107l-.944.035-.474.018h-.36l-.214-.018c-1.172-.089-2.242-.07-3.662-.338-2.738-.355-5.187-1.155-7.7-2.222-2.482-1.084-4.795-2.613-6.951-4.355-2.12-1.795-3.986-3.928-5.601-6.239-1.575-2.364-2.786-4.995-3.671-7.715-.37-1.386-.763-2.79-.932-4.213-.113-.71-.236-1.422-.249-2.15l-.058-1.085-.029-.533-.012-.267-.007-.142-.004-.071c0-.071-.005.106 0-.196.093-1.35.032-2.506.304-4.106.164-1.529.544-2.897.896-4.302.853-2.755 2.037-5.404 3.594-7.803 1.597-2.365 3.46-4.516 5.587-6.346 2.164-1.778 4.489-3.342 6.994-4.444 2.499-1.103 5.085-1.956 7.704-2.294 1.297-.266 2.604-.284 3.889-.373h.242l.12-.018h.276l.43.018.857.036c.592.035 1.084.017 1.748.106 1.294.196 2.664.303 3.812.64.596.143 1.186.302 1.771.445.57.195 1.138.39 1.698.586 2.25.782 4.273 1.902 6.147 3.058a29.15 29.15 0 0 1 8.402 8.514c1.98 3.005 3.056 5.991 3.735 8.444.155.622.3 1.227.437 1.778.118.55.173 1.084.25 1.582.156.977.266 1.83.268 2.506l.085 2.115-.004.16z" fill-rule="nonzero" fill="#231F20"/>
    </g>
</svg>
