<svg width="164" height="168" xmlns="http://www.w3.org/2000/svg">
    <title>
        anpa
    </title>
    <g fill="none" fill-rule="evenodd">
        <path d="M120.754 80.476c0 26.146-21.192 47.33-47.334 47.33-26.141 0-47.333-21.184-47.333-47.33 0-26.146 21.192-47.329 47.333-47.329 26.142 0 47.334 21.183 47.334 47.33" fill-rule="nonzero" fill="#FFF"/>
        <path d="M109.628 91.38V78.5c0-26.68-14-37.964-31.109-37.964-13.115 0-27.112 9.07-31.557 24.979-3.915 14.03-11.046 21.702-23.023 21.702-2.404 0-4.665-.39-6.74-1.116C8.934 83.23 3.583 75.099 3.583 65.515c0-4.04 1.126-8.734 3.052-12.95C18.808 23.918 47.207 3.829 80.296 3.829c44.183 0 79.999 35.821 79.999 80.004v40.002c0 22.092-17.907 39.985-40 39.985H49.628c-22.09 0-39.998-17.893-39.998-39.985v-6.342 1.258c0-9.85 1.996-21.33 6.71-30.046" fill-rule="nonzero" fill="#FFF"/>
        <path d="M106.962 91.388V78.6l-.04-2.5c-.07-1.597-.17-3.229-.36-4.843-.74-6.438-2.596-12.77-6.282-17.79-3.636-5.02-9.127-8.425-15.276-9.613-3.046-.621-6.302-.798-9.353-.48-3.088.32-6.137 1.19-8.989 2.484a31.225 31.225 0 0 0-13.81 12.433 32.555 32.555 0 0 0-2.112 4.222 30.41 30.41 0 0 0-.823 2.235l-.704 2.359C48.21 70.53 46.94 73.9 45.135 77.11c-1.803 3.21-4.203 6.261-7.357 8.55-3.144 2.287-6.963 3.653-10.725 4.043a37.93 37.93 0 0 1-2.818.195c-1.17-.018-1.684 0-2.789-.106-2.096-.16-3.834-.603-5.782-1.277-.415-.16-.77-.266-1.236-.461l-1.419-.657c-.88-.479-1.736-.94-2.535-1.525-1.619-1.117-3.109-2.43-4.372-3.938-1.26-1.507-2.39-3.121-3.237-4.895a27.535 27.535 0 0 1-1.938-5.498 27.388 27.388 0 0 1-.672-5.765L.249 65.6l.002-.284.01-.32.022-.638c.002-.39.051-.904.101-1.419.078-1.046.243-1.933.394-2.873.35-1.862.846-3.654 1.438-5.427.325-.87.632-1.756 1.015-2.608l1.048-2.376c.33-.763.711-1.579 1.123-2.395.397-.816.793-1.632 1.222-2.412a93.872 93.872 0 0 1 2.635-4.63C16.7 28.122 27.255 17.959 39.67 11.042 52.092 4.053 66.207.417 80.563.452l2.555.071c.841 0 1.707.036 2.629.124l2.71.195c.898.09 1.767.213 2.652.32 3.53.425 7.015 1.153 10.46 2.022 6.856 1.862 13.53 4.47 19.697 8.017 12.421 6.935 22.893 17.204 30.328 29.318 7.379 12.15 11.629 26.215 12.063 40.422l.068 2.66.007 2.572.001 5.109.004 10.234.009 20.45.002 1.277-.004.727-.016.639-.032 1.277-.1 1.437c-.136 1.915-.421 3.689-.788 5.533-.788 3.6-1.98 7.148-3.665 10.447-3.299 6.652-8.377 12.363-14.489 16.53-6.135 4.151-13.35 6.723-20.74 7.308-3.823.284-7.062.125-10.508.178h-10.227l-40.905-.053-10.227-.018h-2.642l-1.28-.036-.638-.017-.718-.054c-1.955-.106-3.721-.372-5.557-.727-7.267-1.437-14.14-4.771-19.743-9.595-5.636-4.79-9.966-11.068-12.534-18.003a43.952 43.952 0 0 1-2.444-10.784c-.06-.922-.167-1.827-.169-2.75L6.29 123.9v-1.294l.006-5.109h6.665v1.242H6.296c.01-5.41.551-10.784 1.656-16.105a65.294 65.294 0 0 1 2.155-7.893c.45-1.294.946-2.59 1.485-3.849a54.21 54.21 0 0 1 1.816-3.777 3.32 3.32 0 0 1 4.505-1.384 3.334 3.334 0 0 1 1.387 4.505l-.028.053a48.318 48.318 0 0 0-1.556 3.228 56.834 56.834 0 0 0-1.303 3.388A60.134 60.134 0 0 0 14.476 104a73.445 73.445 0 0 0-1.515 14.739 3.333 3.333 0 1 1-6.665 0v-1.242h6.665l.007 5.109.004 1.277.033 1.17c-.001.78.098 1.561.146 2.341a37.328 37.328 0 0 0 2.087 9.1c2.186 5.853 5.852 11.156 10.628 15.182a36.438 36.438 0 0 0 16.66 8.052c1.513.284 3.127.515 4.576.586l.56.053.638.018 1.277.017h12.697l40.905-.053h10.227c3.37-.035 6.96.089 9.936-.124 6.213-.497 12.254-2.66 17.419-6.137 5.142-3.494 9.427-8.3 12.2-13.888 1.422-2.767 2.418-5.746 3.085-8.78.305-1.507.559-3.103.662-4.575l.087-1.135.032-1.278.017-.638v-1.827l.01-20.45.003-10.234.003-5.109-.003-2.554-.062-2.447c-.389-13.054-4.275-25.931-11.034-37.105-6.822-11.121-16.435-20.575-27.838-26.96-5.658-3.246-11.788-5.658-18.08-7.36-3.163-.799-6.361-1.49-9.603-1.863-.809-.107-1.625-.23-2.425-.302l-2.387-.177c-.777-.089-1.614-.106-2.48-.124l-2.556-.071c-12.914-.036-26.08 3.299-37.44 9.684C31.535 23.262 21.81 32.61 14.96 43.73c-.844 1.4-1.673 2.802-2.428 4.256-.403.71-.747 1.437-1.098 2.147a44.09 44.09 0 0 0-1.054 2.234c-.723 1.614-1.344 2.998-1.853 4.452a34.838 34.838 0 0 0-1.188 4.452c-1.157 5.889.085 12.114 3.591 16.726.859 1.17 1.896 2.181 3.03 3.086.55.461 1.184.834 1.773 1.224l.87.479c.3.16.757.337 1.13.496 1.243.497 2.834.94 4.135 1.082 1.577.178 3.074.23 4.598.036 3.015-.302 5.828-1.313 8.215-3.033 2.388-1.72 4.339-4.115 5.887-6.829 1.545-2.731 2.72-5.782 3.643-8.886l.767-2.536a38.579 38.579 0 0 1 3.39-7.485c3.713-6.332 9.401-11.493 16.086-14.58a34.393 34.393 0 0 1 10.623-2.98c3.726-.39 7.36-.177 10.993.55 3.62.728 7.165 2.076 10.346 4.08 3.201 1.969 5.952 4.63 8.166 7.609 4.432 6.066 6.461 13.302 7.28 20.344.204 1.756.318 3.53.392 5.356l.041 2.59v12.788a2.662 2.662 0 0 1-2.667 2.66 2.663 2.663 0 0 1-2.666-2.66" fill-rule="nonzero" fill="#231F20"/>
        <path d="M26.085 58.634C32.3 36.15 56.847 21.411 80.299 21.411c36.341 0 60.001 26.852 60.001 69.956v64.903" stroke="#231F20" stroke-width="5.333" stroke-linecap="round" stroke-linejoin="round"/>
    </g>
</svg>
