<svg width="167" height="169" xmlns="http://www.w3.org/2000/svg">
    <title>
        ante
    </title>
    <g fill="none" fill-rule="evenodd">
        <path d="M163.624 124.835c0 22.092-17.907 39.985-40 39.985H43.628c-22.09 0-40-17.893-40-39.985V84.833C3.628 40.65 39.446 4.83 83.624 4.83c37.334 0 34.228 12.897 80 0v120.006" fill-rule="nonzero" fill="#FFF"/>
        <path d="M163.624 124.835c0 22.092-17.907 39.985-40 39.985H43.628c-22.09 0-40-17.893-40-39.985V84.833C3.628 40.65 39.446 4.83 83.624 4.83c37.334 0 34.228 12.897 80 0v120.006z" stroke="#231F20" stroke-width="6.667"/>
        <path d="M3.627 120.328c0-24.572 19.924-44.496 44.5-44.496 19.95 0 19.495 5.892 44.496 0v66.753c0 12.286-9.96 22.24-22.241 22.24" stroke="#231F20" stroke-width="5.333"/>
        <path d="M28.667 162.318v-38.463c0-7.75 6.284-14.032 14.035-14.032 7.752 0 14.031 6.282 14.031 14.032v39.3" stroke="#231F20" stroke-width="5.333"/>
        <path d="M141.856 94.261c0 7.617-6.174 13.784-13.773 13.784-7.614 0-13.787-6.167-13.787-13.784 0-7.599 3.92-11.39 13.787-17.784 9.853-6.376 13.773-10.167 13.773-17.767 0-7.616-6.174-13.783-13.773-13.783-7.614 0-13.787 6.167-13.787 13.783" stroke="#231F20" stroke-width="5.333" stroke-linecap="round" stroke-linejoin="round"/>
    </g>
</svg>
