<svg width="88" height="168" xmlns="http://www.w3.org/2000/svg">
    <title>
        anu
    </title>
    <g fill="none" fill-rule="evenodd">
        <path d="M83.957 123.835c0 22.092-17.906 39.985-40 39.985-22.092 0-40-17.893-40-39.985V43.831c0-22.092 17.908-40.002 40-40.002 22.094 0 40 17.91 40 40.002v80.004" fill-rule="nonzero" fill="#FFF"/>
        <path d="M83.957 123.835c0 22.092-17.906 39.985-40 39.985-22.092 0-40-17.893-40-39.985V43.831c0-22.092 17.908-40.002 40-40.002 22.094 0 40 17.91 40 40.002v80.004z" stroke="#231F20" stroke-width="6.667"/>
        <path d="M57.75 63.82c0 6.818-6.174 12.368-13.787 12.368-7.601 0-13.773-5.55-13.773-12.369 0-6.836 3.918-10.236 13.773-15.963C53.829 42.13 57.75 38.73 57.75 31.911c0-6.836-6.174-12.369-13.787-12.369-7.601 0-13.773 5.533-13.773 12.369m27.554 104.281c0 6.819-6.175 12.366-13.787 12.366-7.6 0-13.773-5.547-13.773-12.366 0-6.836 3.92-10.236 13.773-15.956 9.866-5.72 13.787-9.137 13.787-15.956 0-6.836-6.175-12.366-13.787-12.366-7.6 0-13.773 5.53-13.773 12.366" stroke="#231F20" stroke-width="5.333" stroke-linecap="round" stroke-linejoin="round"/>
    </g>
</svg>
