<svg width="168" height="167" xmlns="http://www.w3.org/2000/svg">
    <title>
        awen
    </title>
    <g fill="none" fill-rule="evenodd">
        <path d="M140.255 79.18c0 32.401-26.253 58.654-58.637 58.654-32.388 0-58.655-26.253-58.655-58.655 0-32.384 26.267-58.637 58.655-58.637 32.384 0 58.637 26.253 58.637 58.637" fill-rule="nonzero" fill="#FFF"/>
        <path d="M78.289 42.164c0 19.51-15.81 35.337-35.327 35.337-19.506 0-35.333-15.827-35.333-35.337 0-19.509 15.827-35.336 35.333-35.336 19.518 0 35.327 15.827 35.327 35.336" fill-rule="nonzero" fill="#FFF"/>
        <path d="M78.289 42.164c0 19.51-15.81 35.337-35.327 35.337-19.506 0-35.333-15.827-35.333-35.337 0-19.509 15.827-35.336 35.333-35.336 19.518 0 35.327 15.827 35.327 35.336z" stroke="#231F20" stroke-width="6.667"/>
        <path d="M123.293 32.163c0 15.65-10.014 28.34-25.664 28.34-15.65 0-28.34-12.69-28.34-28.34 0-15.633 12.69-28.66 28.34-28.66h11.166c30.662 0 55.494 24.849 55.494 55.494v104.5H59.798c-30.654 0-55.506-24.85-55.506-55.494V96.837c0-15.65 12.692-28.34 28.331-28.34 15.654 0 28.334 12.69 28.334 28.34s-12.68 25.664-28.334 25.664" fill-rule="nonzero" fill="#FFF"/>
        <path d="M125.962 32.217c.089 7.346-1.987 15.189-6.885 21.275-2.448 3.052-5.572 5.59-9.103 7.311-3.53 1.739-7.452 2.644-11.32 2.786-7.737.39-15.598-2.36-21.507-7.4-5.944-5.004-9.955-12.297-10.913-20.05a22.688 22.688 0 0 1-.23-2.893l-.036-.746-.018-.443.018-.32c.018-.46.018-.834.035-1.348.125-2.094.408-3.922.87-5.838.94-3.78 2.573-7.4 4.755-10.594C76.03 7.534 82.843 2.761 90.473.987A31.961 31.961 0 0 1 96.276.17L97.73.134h11.196l.657.018c.887.036 1.703.018 2.662.089 7.523.408 14.728 2.271 21.47 5.412 6.708 3.123 12.794 7.541 17.887 12.918a58.863 58.863 0 0 1 11.907 18.596 58.935 58.935 0 0 1 4.205 21.684l.018 20.939-.107 83.718a3.332 3.332 0 0 1-3.336 3.336l-83.647.107-21.006-.018-2.614-.07-2.84-.214a56.859 56.859 0 0 1-5.505-.78c-3.627-.71-7.201-1.74-10.64-3.124a58.866 58.866 0 0 1-18.6-11.853A59.091 59.091 0 0 1 6.49 133.023a57.81 57.81 0 0 1-5.439-21.364c-.2-3.798-.094-7.151-.12-10.665v-3.921l.026-1.402c.041-.87.12-2.04.254-2.946.119-.976.293-1.934.506-2.874 1.694-7.648 6.361-14.533 12.76-18.97 6.374-4.488 14.48-6.494 22.188-5.429 7.745.976 15.026 4.986 20.012 10.948 5.027 5.892 7.76 13.788 7.374 21.471-.147 3.904-1.054 7.79-2.801 11.321a26.73 26.73 0 0 1-7.306 9.103c-6.107 4.88-13.867 6.956-21.32 6.867a2.656 2.656 0 0 1-2.626-2.697 2.66 2.66 0 0 1 2.626-2.626c6.454-.089 12.867-2.094 17.6-6.104 2.36-1.97 4.28-4.418 5.573-7.169 1.293-2.733 1.946-5.802 2.026-8.854.188-6.264-2.039-12.422-6.08-17.124-4.013-4.72-9.8-7.843-15.92-8.553-6.12-.78-12.48.763-17.506 4.33-5.054 3.513-8.734 8.96-10.04 14.959-.172.745-.32 1.508-.4 2.27-.12.817-.16 1.385-.2 2.254l-.012 1.225v3.921c.026 3.46-.068 7.063.119 10.239.374 6.548 2.04 12.989 4.826 18.916a52.55 52.55 0 0 0 11.493 15.792 52.306 52.306 0 0 0 16.455 10.47 52.546 52.546 0 0 0 9.413 2.732c1.599.32 3.24.533 4.84.692l2.386.178 2.614.07 20.832-.017 83.647.106-3.336 3.336-.106-83.718.018-20.921c-.018-6.566-1.26-13.096-3.691-19.164a52.544 52.544 0 0 0-10.505-16.467 52.892 52.892 0 0 0-15.828-11.463c-5.891-2.768-12.457-4.436-18.863-4.791-.78-.071-1.72-.053-2.573-.089l-.656-.018h-7.098l-2.608-.017H97.73l-1.172.035a25.914 25.914 0 0 0-4.542.621c-5.98 1.384-11.374 5.146-14.87 10.239a25.615 25.615 0 0 0-3.78 8.393 25.285 25.285 0 0 0-.692 4.49c-.017.354-.017.851-.035 1.26l-.018.336v-.017l.018.07v.142l.018.586c0 .763.053 1.544.16 2.307.691 6.122 3.814 11.924 8.534 15.934 4.685 4.064 10.878 6.282 17.106 6.105 3.105-.071 6.14-.728 8.89-2.023 2.75-1.278 5.2-3.212 7.187-5.572 1.987-2.342 3.495-5.146 4.525-8.145a29.62 29.62 0 0 0 1.135-4.649c.142-.78.23-1.597.302-2.378l.089-1.17.035-1.314a2.664 2.664 0 0 1 2.768-2.573 2.669 2.669 0 0 1 2.573 2.626v.054" fill-rule="nonzero" fill="#231F20"/>
        <path d="M73.625 121.18l48.173-48.174m-43.184 69.162l64.181-64.163" stroke="#231F20" stroke-width="5.333" stroke-linecap="round" stroke-linejoin="round"/>
    </g>
</svg>
