<svg width="167" height="167" xmlns="http://www.w3.org/2000/svg">
    <title>
        glyph_e
    </title>
    <g fill="none" fill-rule="evenodd">
        <path d="M135.735 124.167c13.808 0 25 8.797 25 19.667 0 10.87-11.192 19.667-25 19.667h-33.44" fill-rule="nonzero" fill="#FFF"/>
        <path d="M135.853 121.493s.408 0 1.173.017c.374.017.833.017 1.394.034.612.051 1.326.12 2.125.204 1.598.187 3.4.544 5.508 1.156 2.057.663 4.386 1.513 6.715 2.958 2.312 1.394 4.675 3.298 6.698 5.814 1.989 2.516 3.62 5.73 4.199 9.35.17.901.187 1.82.255 2.754l-.068 1.36-.034.595c0 .17-.017.391-.068.663-.323 2.091-.8 3.893-1.632 5.593-1.598 3.468-4.131 6.41-7.106 8.62-2.941 2.226-6.273 3.807-9.673 4.81-3.383 1.02-6.953 1.411-10.183 1.394-6.086-.05-11.764-.034-16.626-.153-4.88-.102-8.925-.187-11.764-.323l-4.471-.187v-5.32l4.47-.188c2.84-.136 6.886-.22 11.765-.323 4.862-.119 10.54-.102 16.626-.153 2.856-.017 5.576-.289 8.33-1.088 2.72-.782 5.338-2.023 7.582-3.689 2.278-1.649 4.063-3.79 5.185-6.137.119-.289.289-.578.39-.884l.307-.9c.255-.63.255-1.106.425-1.65l.05-.204.018-.289.05-.595.035-.578.017-.289.017-.136v-.085c0 .085.017-.22 0 .17v-.017c-.068-.612-.017-1.24-.136-1.836-.34-2.414-1.377-4.64-2.788-6.51-1.428-1.888-3.213-3.367-4.998-4.54-1.802-1.207-3.672-1.955-5.338-2.567a28.228 28.228 0 0 0-4.471-1.105 71.91 71.91 0 0 0-1.632-.255c-.561-.034-1.02-.068-1.394-.085a79.32 79.32 0 0 1-1.173-.085l.22-5.32" fill-rule="nonzero" fill="#231F20"/>
        <path d="M137.065 98.5c13.815 0 25.009 8.81 25.009 19.66 0 10.868-11.194 19.678-25.01 19.678h-33.441" fill-rule="nonzero" fill="#FFF"/>
        <path d="M137.164 95.839s.412 0 1.184-.017c.378 0 .841-.017 1.39-.017.635.051 1.356.103 2.145.171 1.613.172 3.431.463 5.559 1.064 2.076.67 4.427 1.527 6.777 2.968 2.35 1.39 4.753 3.294 6.76 5.868 2.042 2.522 3.638 5.8 4.204 9.471.154.91.154 1.836.223 2.762v.309l-.017.069-.017.137-.018.292-.034.583-.051.584c0 .188-.035.394-.086.669-.206.978-.343 2.093-.686 2.95l-.464 1.356c-.154.446-.377.858-.583 1.287-1.647 3.449-4.22 6.348-7.172 8.51-2.968 2.18-6.297 3.706-9.677 4.65-3.38.978-6.932 1.27-10.123 1.201-6.074-.12-11.753-.24-16.626-.36a6019.59 6019.59 0 0 1-11.77-.343c-2.83-.103-4.46-.172-4.46-.172v-3.998s1.63-.051 4.46-.171c2.848-.086 6.898-.206 11.77-.343 4.873-.103 10.552-.224 16.626-.36 2.883-.07 5.645-.447 8.407-1.288 2.746-.823 5.37-2.127 7.584-3.843 2.248-1.699 4.032-3.878 5.096-6.245.583-1.15.84-2.454 1.03-3.432l.05-.206v-.291l.035-.584.052-.926c-.07-.618-.035-1.218-.155-1.819-.36-2.368-1.441-4.53-2.83-6.365-1.408-1.836-3.158-3.329-4.925-4.513-1.75-1.2-3.603-1.939-5.25-2.556-1.665-.584-3.209-.995-4.427-1.201-.618-.103-1.15-.206-1.63-.292-.549-.034-1.012-.086-1.39-.12-.755-.069-1.166-.103-1.166-.103l.205-5.336" fill-rule="nonzero" fill="#231F20"/>
        <path d="M137.065 72.832c13.822 0 24.996 8.805 24.996 19.669 0 10.863-11.174 19.668-24.996 19.668h-33.438" fill-rule="nonzero" fill="#FFF"/>
        <path d="M137.164 70.172s.415 0 1.177-.017c.381 0 .849-.017 1.403-.017.623.051 1.35.103 2.147.173 1.593.173 3.428.467 5.54 1.056 2.079.675 4.433 1.524 6.788 2.96 2.355 1.403 4.745 3.308 6.77 5.87 2.044 2.546 3.637 5.818 4.19 9.472.157.918.157 1.853.226 2.788v.293l-.018.07-.017.138-.017.294-.035.589-.052.571c0 .19-.034.398-.086.676-.19.986-.347 2.095-.676 2.943l-.467 1.35c-.156.45-.381.866-.589 1.3-1.645 3.445-4.207 6.337-7.168 8.501-2.961 2.182-6.303 3.705-9.68 4.658-3.376.987-6.925 1.264-10.129 1.212-6.077-.139-11.757-.26-16.622-.364-4.866-.138-8.917-.26-11.757-.346-2.84-.121-4.467-.173-4.467-.173v-4s1.627-.07 4.467-.173c2.84-.087 6.891-.208 11.757-.347 4.865-.103 10.545-.225 16.622-.363 2.892-.052 5.662-.45 8.415-1.281 2.736-.832 5.368-2.13 7.584-3.844 2.251-1.697 4.035-3.879 5.091-6.234.589-1.16.848-2.476 1.039-3.446l.035-.207.017-.277.017-.589.07-.935c-.07-.606-.052-1.212-.174-1.8-.346-2.373-1.42-4.555-2.822-6.39-1.42-1.835-3.151-3.325-4.918-4.502-1.748-1.195-3.618-1.94-5.246-2.563-1.68-.571-3.22-.987-4.433-1.194-.623-.104-1.142-.208-1.627-.295-.554-.034-1.022-.086-1.385-.12-.762-.07-1.178-.105-1.178-.105l.208-5.333" fill-rule="nonzero" fill="#231F20"/>
        <path d="M137.07 47.165c13.807 0 24.997 8.798 24.997 19.673 0 10.858-11.19 19.656-24.997 19.656h-33.446" fill-rule="nonzero" fill="#FFF"/>
        <path d="M137.169 44.505s.42 0 1.17-.017c.385 0 .857-.018 1.398-.018.63.053 1.346.105 2.15.175 1.607.175 3.424.472 5.556 1.066 2.079.664 4.42 1.52 6.762 2.953 2.358 1.398 4.77 3.302 6.779 5.87 2.044 2.534 3.634 5.819 4.193 9.47.158.91.158 1.853.227 2.779v.297l-.017.07-.017.14-.018.297-.035.576-.052.594c0 .175-.035.385-.088.664-.192.979-.332 2.097-.664 2.953l-.471 1.345c-.158.455-.385.874-.594 1.293-1.643 3.443-4.211 6.343-7.164 8.51-2.97 2.166-6.29 3.704-9.68 4.665-3.372.96-6.92 1.258-10.134 1.188-6.08-.122-11.759-.245-16.616-.35a1734.1 1734.1 0 0 0-11.76-.35 504.344 504.344 0 0 0-4.472-.174V84.5s1.625-.052 4.473-.175c2.83-.07 6.884-.192 11.759-.35 4.857-.104 10.536-.226 16.616-.349 2.883-.07 5.661-.454 8.422-1.275 2.725-.839 5.364-2.132 7.583-3.862 2.236-1.694 4.036-3.878 5.084-6.237.594-1.153.856-2.464 1.031-3.442l.053-.193.017-.297.018-.576.052-.944c-.07-.611-.035-1.205-.157-1.8-.367-2.376-1.433-4.542-2.83-6.377-1.416-1.834-3.163-3.32-4.91-4.508-1.748-1.188-3.617-1.94-5.26-2.568-1.66-.577-3.215-.979-4.42-1.206a74.34 74.34 0 0 0-1.643-.262c-.541-.052-1.013-.105-1.38-.14-.751-.07-1.17-.104-1.17-.104l.209-5.33" fill-rule="nonzero" fill="#231F20"/>
        <path d="M92.523 163.496h24.44c11.043 0 19.993-8.95 19.993-19.992V103.5v13.329-39.986c0-8.667 11.308-16.926 13.222-18.822 1.915-1.914 13.453-7.852 13.453-21.41V23.495c0-11.042-8.969-19.993-20.01-19.993H43.622C21.54 3.503 3.62 21.404 3.62 43.506v79.988c0 22.101 17.919 40.002 40.002 40.002h53.775" fill-rule="nonzero" fill="#FFF"/>
        <path d="M92.523 163.496h24.44c11.043 0 19.993-8.95 19.993-19.992V103.5v13.329-39.986c0-8.667 11.308-16.926 13.222-18.822 1.915-1.914 13.453-7.852 13.453-21.41V23.495c0-11.042-8.969-19.993-20.01-19.993H43.622C21.54 3.503 3.62 21.404 3.62 43.506v79.988c0 22.101 17.919 40.002 40.002 40.002h53.775" stroke="#231F20" stroke-width="6.667"/>
    </g>
</svg>
