<svg width="88" height="167" xmlns="http://www.w3.org/2000/svg">
    <title>
        en
    </title>
    <g fill="none" fill-rule="evenodd">
        <path d="M84.023 123.494c0 22.101-17.9 40.002-40.002 40.002-22.084 0-40.003-17.9-40.003-40.002V43.506c0-22.102 17.919-40.003 40.003-40.003 22.101 0 40.002 17.901 40.002 40.003v79.988" fill="#FFF" fill-rule="nonzero"/>
        <path d="M84.023 123.494c0 22.101-17.9 40.002-40.002 40.002-22.084 0-40.003-17.9-40.003-40.002V43.506c0-22.102 17.919-40.003 40.003-40.003 22.101 0 40.002 17.901 40.002 40.003v79.988z" stroke="#231F20" stroke-width="6.667"/>
        <path d="M29.348 53.49h29.348m-14.72 16.738V36.712m-14.623 74.132h29.335m-14.677 16.773v-33.53" stroke="#231F20" stroke-width="5.333" stroke-linecap="round" stroke-linejoin="round"/>
    </g>
</svg>
