<svg width="168" height="167" xmlns="http://www.w3.org/2000/svg">
    <title>
        esun
    </title>
    <g fill="none" fill-rule="evenodd">
        <path d="M163.74 83.509v39.985c0 22.101-17.9 40.002-40.002 40.002H43.75c-22.102 0-40.003-17.9-40.003-40.002V83.509c0-44.186 35.82-80.006 79.988-80.006 44.203 0 80.005 35.82 80.005 80.006" fill="#FFF" fill-rule="nonzero"/>
        <path d="M163.74 83.509v39.985c0 22.101-17.9 40.002-40.002 40.002H43.75c-22.102 0-40.003-17.9-40.003-40.002V83.509c0-44.186 35.82-80.006 79.988-80.006 44.203 0 80.005 35.82 80.005 80.006z" stroke="#231F20" stroke-width="6.667"/>
        <path d="M53.076 160.5v-44.327c0-16.945 13.725-30.67 30.67-30.67 16.946 0 30.671 13.725 30.671 30.67V160.5" stroke="#231F20" stroke-width="5.333"/>
        <path d="M83 160.155v-46.333m40.044-52.068c0 7.784-7.295 14.084-16.318 14.084-9.006 0-16.318-6.3-16.318-14.084 0-7.767 7.312-14.067 16.318-14.067 9.023 0 16.318 6.3 16.318 14.067zm-22.98-31.174c0 7.763-7.304 14.062-16.32 14.062-9.017 0-16.321-6.299-16.321-14.062 0-7.781 7.304-14.08 16.32-14.08 9.017 0 16.321 6.299 16.321 14.08zm-22.99 31.174c0 7.784-7.296 14.084-16.319 14.084-9.005 0-16.3-6.3-16.3-14.084 0-7.767 7.295-14.067 16.3-14.067 9.023 0 16.319 6.3 16.319 14.067z" stroke="#231F20" stroke-width="5.333" stroke-linecap="round" stroke-linejoin="round"/>
    </g>
</svg>
