<svg width="167" height="167" xmlns="http://www.w3.org/2000/svg">
    <title>
        ijo
    </title>
    <g fill="none" fill-rule="evenodd">
        <path d="M43.631 163.47c-22.091 0-40-17.897-40-39.99 0-11.048 4.477-21.05 11.716-28.285l77.968-77.81c7.336-8.523 18.196-13.91 30.316-13.91 22.092 0 40 17.913 40 40.007v79.997c0 22.094-17.908 39.99-40 39.99h-80" fill-rule="nonzero" fill="#FFF"/>
        <path d="M43.631 163.47c-22.091 0-40-17.897-40-39.99 0-11.048 4.477-21.05 11.716-28.285l77.968-77.81c7.336-8.523 18.196-13.91 30.316-13.91 22.092 0 40 17.913 40 40.007v79.997c0 22.094-17.908 39.99-40 39.99h-80z" stroke="#231F20" stroke-width="6.667"/>
        <path d="M110.414 41.899c10.075 27.678-4.197 58.287-31.875 68.366-27.68 10.064-58.284-4.202-68.358-31.88C.107 50.706 14.378 20.097 42.057 10.034c27.678-10.08 58.283 4.186 68.357 31.865" fill-rule="nonzero" fill="#FFF"/>
        <path d="M110.414 41.899c10.075 27.678-4.197 58.287-31.875 68.366-27.68 10.064-58.284-4.202-68.358-31.88C.107 50.706 14.378 20.097 42.057 10.034c27.678-10.08 58.283 4.186 68.357 31.865z" stroke="#231F20" stroke-width="6.667"/>
        <path d="M57.32 9.082l18.474 50.752c2.863 7.862-.987 16.495-8.599 19.255-7.611 2.776-16.103-1.364-18.966-9.226L29.757 19.11" stroke="#231F20" stroke-width="5.333"/>
        <path d="M40.821 69.003c2.078 5.71-.866 12.019-6.574 14.095-5.709 2.077-12.022-.865-14.1-6.575-2.077-5.71.866-12.019 6.575-14.095 5.71-2.077 12.021.865 14.1 6.575zm60.767-22.129c2.078 5.712-.866 12.027-6.574 14.105-5.71 2.079-12.021-.872-14.1-6.568-2.077-5.712.866-12.027 6.575-14.106 5.709-2.078 12.02.873 14.099 6.569z" stroke="#231F20" stroke-width="4"/>
        <path d="M4.542 131.13c5.209-7.935 14.18-13.164 24.373-13.164 16.095 0 29.143 13.056 29.143 29.14a29 29 0 0 1-4.918 16.208" stroke="#231F20" stroke-width="5.333"/>
        <path d="M9.906 143.768c2.426-6.882 8.984-11.805 16.695-11.805 9.773 0 17.696 7.92 17.696 17.692 0 3.64-1.1 7.034-2.986 9.848a17.968 17.968 0 0 1-3.662 3.976" stroke="#231F20" stroke-width="4"/>
        <path d="M101.268 95.246l23.06 22.276c.795.76.817 2.033.05 2.825a2.01 2.01 0 0 1-2.768.109L97.643 99.157a2.675 2.675 0 0 1-.222-3.772 2.667 2.667 0 0 1 3.765-.217.356.356 0 0 1 .082.078m7.704-13.331l30.368 18.427c.944.562 1.245 1.795.672 2.746a2.006 2.006 0 0 1-2.683.702l-31.037-17.257a2.675 2.675 0 0 1-1.034-3.635 2.671 2.671 0 0 1 3.628-1.03c.026.015.06.031.086.047" fill-rule="nonzero" fill="#231F20"/>
    </g>
</svg>
