<svg width="168" height="167" xmlns="http://www.w3.org/2000/svg">
    <title>
        ike
    </title>
    <g fill="none" fill-rule="evenodd">
        <path d="M143.964 128.963c11.046 0 20 7.732 20 17.27 0 9.523-8.954 17.254-20 17.254s-20-7.731-20-17.254c0 9.523-8.953 17.254-20 17.254-11.045 0-20-7.731-20-17.254 0 9.523-8.953 17.254-20 17.254-11.045 0-20-7.731-20-17.254 0 9.523-8.953 17.254-20 17.254-11.046 0-20-7.731-20-17.254 0-9.538 8.954-17.27 20-17.27" fill-rule="nonzero" fill="#FFF"/>
        <path d="M144.052 126.957h2.064l.778.077c.517.046 1.044.077 1.555.153l1.484.276c1.962.43 3.914 1.042 5.732 1.992 1.822.92 3.585 2.038 5.087 3.494 1.504 1.44 2.89 3.08 3.884 4.98a18.996 18.996 0 0 1 2.053 6.128c.063.537.098 1.073.141 1.624l.03.414.007.092.001.03-.004.185-.002.046-.006.168-.023.69c.02.796-.197 2.175-.413 3.263-.494 2.145-1.422 4.153-2.588 5.976-1.159 1.839-2.662 3.402-4.295 4.765-1.63 1.364-3.472 2.452-5.392 3.31-1.916.889-3.96 1.425-6.017 1.808-1.035.169-2.073.322-3.118.337l-.785.046-.196.015h-.048l-.19-.015h-.087l-.342-.015-1.373-.046c-.997-.107-2.234-.23-3.23-.445l-1.54-.352c-.507-.138-1.008-.306-1.509-.46-1.992-.705-3.928-1.593-5.681-2.819-1.747-1.21-3.388-2.635-4.712-4.352-1.32-1.7-2.458-3.585-3.12-5.684-.675-2.069-1.003-4.26-.899-6.42h5.332c-.004.72-.001 1.44-.032 2.176-.103.704-.18 1.425-.325 2.145a19.69 19.69 0 0 1-1.402 4.106 20 20 0 0 1-2.318 3.631 20.783 20.783 0 0 1-2.992 3.05 19.727 19.727 0 0 1-3.502 2.405 23.772 23.772 0 0 1-3.852 1.716c-1.325.475-2.698.782-4.074 1.012-.692.092-1.384.214-2.08.26l-2.09.107-1.973-.092c-.648-.046-1.45-.168-2.166-.26-1.431-.245-2.764-.552-4.1-1.027a23.788 23.788 0 0 1-3.854-1.716 19.727 19.727 0 0 1-3.501-2.405 20.773 20.773 0 0 1-2.991-3.05 20.008 20.008 0 0 1-2.32-3.63 19.874 19.874 0 0 1-1.404-4.107c-.142-.72-.22-1.44-.321-2.145-.03-.736-.03-1.456-.036-2.176h5.334c-.006.72-.003 1.44-.034 2.176-.1.704-.18 1.425-.323 2.145a19.784 19.784 0 0 1-1.403 4.106 20 20 0 0 1-2.319 3.631 20.707 20.707 0 0 1-2.992 3.05 19.772 19.772 0 0 1-3.5 2.405 23.788 23.788 0 0 1-3.853 1.716c-1.326.475-2.697.782-4.073 1.012-.694.092-1.384.214-2.08.26l-2.09.107-1.974-.092c-.647-.046-1.45-.168-2.165-.26-1.433-.245-2.765-.552-4.102-1.027a23.788 23.788 0 0 1-3.854-1.716 19.716 19.716 0 0 1-3.5-2.405 20.707 20.707 0 0 1-2.992-3.05 20.092 20.092 0 0 1-2.32-3.63 19.87 19.87 0 0 1-1.402-4.107c-.142-.72-.222-1.44-.323-2.145-.03-.736-.03-1.456-.035-2.176h5.334c.105 2.16-.223 4.351-.898 6.42-.664 2.099-1.802 3.984-3.122 5.684-1.323 1.717-2.963 3.142-4.71 4.352-1.753 1.226-3.69 2.114-5.681 2.82-1.99.72-4.085 1.041-6.164 1.24l-1.57.062-.392.015-.096.015-.236-.015h-.172l-.686-.046c-.478-.03-.864-.03-1.42-.092l-1.655-.23c-2.113-.398-4.118-.934-6.044-1.823-1.92-.858-3.761-1.946-5.393-3.31-1.632-1.363-3.135-2.926-4.296-4.765-1.163-1.823-2.093-3.83-2.587-5.976-.198-1.072-.412-2.16-.412-3.248l-.03-.827-.004-.2-.003-.06.008-.215.006-.077.03-.337.122-1.394c.34-2.421 1.06-4.367 2.067-6.283.996-1.9 2.38-3.54 3.884-4.98 1.501-1.455 3.267-2.574 5.085-3.493 1.82-.95 3.771-1.563 5.736-1.992 1.967-.46 3.985-.52 5.966-.506v4c-1.67.138-3.331.352-4.912.827-1.578.475-3.117 1.073-4.496 1.93a17.117 17.117 0 0 0-3.754 2.943c-1.072 1.149-2.04 2.39-2.666 3.784-.645 1.333-1.068 2.927-1.203 4.137l-.053 1.364-.011.337-.003.092-.002.015.006-.153.003.03.016.139.05.567c.023.735.227 1.455.38 2.16.383 1.425 1.045 2.758 1.88 4 .825 1.256 1.933 2.328 3.13 3.278 1.191.965 2.567 1.716 4 2.314 1.411.613 2.992.98 4.479 1.226l1.068.122c.349.046.885.046 1.319.061l.686.016.172.015h-.083.02l.072-.015.296-.016 1.175-.045c1.554-.169 3.11-.414 4.572-.935 1.471-.475 2.902-1.103 4.174-1.961 1.293-.813 2.496-1.778 3.474-2.912.988-1.134 1.85-2.375 2.445-3.723.592-1.364.933-2.82 1.099-4.336a2.672 2.672 0 0 1 2.962-2.36 2.684 2.684 0 0 1 2.367 2.314l.005.046.194 1.501c.127.49.212.966.35 1.44.307.95.69 1.87 1.198 2.728a14.248 14.248 0 0 0 1.745 2.436 14.07 14.07 0 0 0 2.232 2.053c.411.307.81.613 1.266.859.437.275.861.566 1.335.766.907.49 1.872.873 2.859 1.195.973.322 2.03.551 3.001.705.497.06.9.153 1.47.184l1.684.076 1.57-.061c.521-.046 1.035-.138 1.556-.184a20.336 20.336 0 0 0 3.027-.72c.989-.322 1.954-.705 2.86-1.195.474-.2.899-.49 1.336-.766.455-.246.854-.552 1.265-.859a14.07 14.07 0 0 0 2.233-2.053 14.248 14.248 0 0 0 1.745-2.436c.507-.858.889-1.777 1.198-2.727.138-.475.22-.95.35-1.44l.192-1.502a2.682 2.682 0 0 1 3.016-2.314 2.693 2.693 0 0 1 2.318 2.314l.195 1.501c.127.49.21.966.35 1.44.307.95.689 1.87 1.196 2.728.498.858 1.066 1.685 1.745 2.436a14.143 14.143 0 0 0 2.234 2.053c.41.307.81.613 1.266.859.436.275.86.566 1.334.766.906.49 1.873.873 2.858 1.195.974.322 2.032.551 3.003.705.497.06.9.153 1.468.184l1.684.076 1.57-.061c.523-.046 1.036-.138 1.556-.184a20.31 20.31 0 0 0 3.029-.72c.988-.322 1.953-.705 2.86-1.195.474-.2.897-.49 1.335-.766.454-.246.855-.552 1.264-.859a14.081 14.081 0 0 0 2.234-2.053 14.234 14.234 0 0 0 1.745-2.436c.508-.858.89-1.777 1.197-2.727.138-.475.222-.95.351-1.44l.193-1.502.008-.046a2.674 2.674 0 0 1 3.004-2.314 2.688 2.688 0 0 1 2.32 2.36c.167 1.517.51 2.972 1.102 4.336.594 1.348 1.456 2.59 2.444 3.723.979 1.134 2.182 2.1 3.475 2.912 1.272.858 2.703 1.486 4.174 1.96l1.11.338 1.142.26c.79.184 1.385.23 2.205.322l1.371.061.344.031h.105c.04 0-.262-.015-.124 0h.036l.148-.015.587-.016c.79 0 1.568-.091 2.346-.183 1.541-.246 3.081-.598 4.505-1.226 1.432-.598 2.81-1.349 4.002-2.314 1.195-.95 2.303-2.022 3.126-3.279.838-1.241 1.498-2.574 1.881-3.999.137-.705.336-1.119.38-2.16l.058-.69.013-.169.004-.045a2.583 2.583 0 0 1-.004.153v-.016l-.003-.076-.011-.276-.035-1.103c-.15-1.486-.573-2.927-1.217-4.306-.627-1.394-1.593-2.635-2.668-3.784a17.072 17.072 0 0 0-3.752-2.942c-1.38-.858-2.919-1.456-4.497-1.931l-1.198-.306-1.165-.23-.585-.107-.682-.062-1.37-.122.175-4" fill-rule="nonzero" fill="#231F20"/>
        <path d="M123.964 22.057c22.092 0 40 17.914 40 39.995v41c0 22.097-17.908 40.01-40 40.01h-80c-22.09 0-40-17.913-40-40.01v-41c0-22.081 17.91-39.995 40-39.995 0 0 7.667 74.002 39.667 74.002s40.333-74.002 40.333-74.002" fill-rule="nonzero" fill="#FFF"/>
        <path d="M123.964 22.057c22.092 0 40 17.914 40 39.995v41c0 22.097-17.908 40.01-40 40.01h-80c-22.09 0-40-17.913-40-40.01v-41c0-22.081 17.91-39.995 40-39.995 0 0 7.667 74.002 39.667 74.002s40.333-74.002 40.333-74.002z" stroke="#231F20" stroke-width="6.667"/>
        <path d="M77.298 25.306c0 6.02-4.886 10.905-10.916 10.905s-10.918-4.884-10.918-10.905c0-6.037 4.889-10.92 10.918-10.92 6.03 0 10.916 4.883 10.916 10.92" fill-rule="nonzero" fill="#FFF"/>
        <path d="M74.964 25.311l-.029-.609a7.677 7.677 0 0 0-.275-1.683c-.196-.705-.499-1.554-1.073-2.42a9.133 9.133 0 0 0-2.4-2.484c-.534-.352-1.106-.689-1.754-.93-.626-.288-1.37-.416-1.963-.528-.155-.032-.44-.048-.657-.064l-.35-.016-.175-.016h.088-.053l-.072.016c-.379.016-.766 0-1.15.064-.773.08-1.54.32-2.29.625-.751.304-1.453.753-2.118 1.266-.65.529-1.215 1.17-1.71 1.875-.478.705-.843 1.506-1.117 2.324-.11.416-.236.85-.277 1.218-.087.272-.093 1.057-.125 1.362.032.881.147 1.747.402 2.58.274.834.64 1.619 1.117 2.324a9.767 9.767 0 0 0 1.71 1.891c.665.513 1.367.962 2.118 1.266.725.289 1.576.545 2.231.61.271.063.834.063 1.287.08.223-.017.712-.033 1.042-.08a8.802 8.802 0 0 0 3.816-1.475 9.089 9.089 0 0 0 2.4-2.468c.574-.866.877-1.731 1.073-2.436.097-.353.17-.673.19-.898.02-.128.04-.24.056-.336.02-.113.018-.289.026-.401.024-.497.035-.77.035-.77l-.003.113zm4.664.128l-.044.77c-.01.128-.006.24-.032.432l-.094.657c-.061.497-.18.994-.332 1.539-.312 1.09-.808 2.404-1.696 3.718-.875 1.314-2.096 2.66-3.729 3.718a13.444 13.444 0 0 1-5.84 2.051c-.274.048-.553.032-.831.048-.313 0-.481.048-.92.016-.488-.048-.885-.032-1.566-.16-1.27-.176-2.316-.529-3.438-1.01a13.486 13.486 0 0 1-5.514-4.743 13.442 13.442 0 0 1-1.59-3.414c-.36-1.218-.52-2.484-.539-3.75.044-.753.012-1.042.137-1.827.077-.705.243-1.314.402-1.923a13.973 13.973 0 0 1 1.59-3.414c1.388-2.083 3.332-3.734 5.514-4.727 1.095-.481 2.23-.866 3.377-1.01.569-.128 1.141-.128 1.705-.176h.495l.351.016c.249.016.43 0 .73.048 1.226.144 2.254.352 3.234.72.99.337 1.88.834 2.703 1.347 1.633 1.058 2.854 2.404 3.73 3.702.887 1.314 1.383 2.628 1.695 3.718.154.545.27 1.042.324 1.49.073.433.125.802.133 1.106l.046.93-.001.128z" fill-rule="nonzero" fill="#231F20"/>
        <path d="M77.299 52.47c0 6.022-4.887 10.918-10.917 10.918S55.466 58.492 55.466 52.47a10.912 10.912 0 0 1 10.916-10.918c6.03 0 10.917 4.88 10.917 10.918" fill-rule="nonzero" fill="#FFF"/>
        <path d="M74.964 52.484l-.028-.602a7.768 7.768 0 0 0-.276-1.697c-.197-.698-.498-1.554-1.072-2.427a9.147 9.147 0 0 0-2.4-2.474c-.536-.349-1.107-.698-1.754-.936-.627-.285-1.37-.412-1.963-.523-.156-.047-.441-.047-.657-.063l-.35-.016-.177-.016h.09-.126c-.378.032-.766.016-1.148.08-.776.079-1.54.316-2.292.618-.752.301-1.453.761-2.119 1.269-.65.523-1.213 1.173-1.71 1.87a9.683 9.683 0 0 0-1.116 2.332c-.11.428-.236.857-.278 1.221-.085.27-.093 1.063-.125 1.364.032.873.15 1.745.403 2.585.274.81.64 1.602 1.117 2.316.496.698 1.059 1.348 1.71 1.887.665.508 1.366.952 2.118 1.269.725.285 1.576.54 2.231.603.272.063.833.063 1.288.079.222 0 .71-.032 1.042-.064a9.081 9.081 0 0 0 3.816-1.474 9.191 9.191 0 0 0 2.4-2.49c.574-.857.875-1.713 1.072-2.427.098-.365.17-.666.19-.904.02-.11.04-.238.057-.333.019-.11.017-.285.025-.396.024-.508.035-.778.035-.778l-.003.127zm4.664.111l-.042.777c-.012.127-.008.238-.034.445-.028.19-.06.412-.093.65-.06.491-.181.999-.333 1.538-.313 1.094-.808 2.41-1.696 3.711a13.051 13.051 0 0 1-3.728 3.727 13.342 13.342 0 0 1-5.84 2.046c-.274.048-.553.032-.832.048-.313.016-.48.047-.92.016-.487-.032-.885-.032-1.566-.159-1.268-.174-2.315-.54-3.438-1.015-2.182-1-4.127-2.649-5.514-4.726a14.079 14.079 0 0 1-1.59-3.426c-.358-1.221-.518-2.474-.539-3.743.043-.76.013-1.046.137-1.84.076-.697.244-1.3.403-1.918a13.704 13.704 0 0 1 1.589-3.41c1.387-2.078 3.332-3.727 5.514-4.726 1.094-.492 2.23-.857 3.378-1.015.568-.111 1.14-.127 1.705-.159l.105-.016h.39l.35.016c.248.016.43 0 .73.048 1.226.142 2.255.349 3.234.73.99.332 1.88.824 2.704 1.331 1.632 1.063 2.854 2.411 3.728 3.712.888 1.316 1.383 2.632 1.696 3.727.155.539.27 1.03.325 1.474.073.429.125.81.131 1.11.032.603.048.936.048.936l-.002.111z" fill-rule="nonzero" fill="#231F20"/>
        <path d="M112.299 25.306c0 6.02-4.887 10.905-10.918 10.905-6.029 0-10.916-4.884-10.916-10.905 0-6.037 4.887-10.92 10.916-10.92 6.03 0 10.918 4.883 10.918 10.92" fill-rule="nonzero" fill="#FFF"/>
        <path d="M110.297 25.311s-.015-.208-.039-.625a8.056 8.056 0 0 0-.309-1.747c-.215-.721-.538-1.603-1.143-2.484-.59-.881-1.413-1.795-2.516-2.5-.557-.32-1.152-.657-1.817-.881-.643-.257-1.4-.37-2-.45-.157-.031-.442-.031-.659-.047h-.35l-.177-.016h.088-.018l-.035.016h-.07c-.378.032-.765.032-1.143.112-.768.112-1.516.368-2.245.689a9.006 9.006 0 0 0-3.665 3.173 9.526 9.526 0 0 0-1.05 2.276c-.098.4-.216.817-.247 1.17-.078.224-.08 1.058-.106 1.314.02.85.119 1.699.353 2.5a9.54 9.54 0 0 0 1.05 2.276 9.086 9.086 0 0 0 3.665 3.157c.7.32 1.54.593 2.183.689.266.08.83.096 1.283.128.221 0 .712-.016 1.045-.032a9.091 9.091 0 0 0 3.915-1.362c1.103-.705 1.925-1.619 2.516-2.484.605-.882.928-1.763 1.143-2.5.106-.369.184-.69.212-.946.048-.24.091-.464.096-.753l.041-.77-.001.097zm3.997.112s-.013.257-.034.77c.002.208-.042.592-.114 1.073-.054.48-.166.962-.309 1.49-.296 1.074-.768 2.356-1.627 3.655a13.429 13.429 0 0 1-3.612 3.702 13.371 13.371 0 0 1-5.74 2.18c-.273.047-.552.047-.829.063-.313.016-.48.064-.92.032-.489-.016-.885 0-1.572-.112-1.277-.144-2.34-.48-3.484-.945-1.119-.465-2.167-1.138-3.146-1.908a13.799 13.799 0 0 1-2.534-2.804 13.832 13.832 0 0 1-1.655-3.462c-.379-1.25-.556-2.548-.588-3.846.05-.801.022-1.042.155-1.875.088-.721.264-1.33.433-1.955a14.21 14.21 0 0 1 1.655-3.478c.728-1.042 1.57-2.003 2.534-2.789.98-.785 2.027-1.442 3.146-1.907 1.117-.464 2.268-.817 3.423-.945.574-.096 1.15-.096 1.713-.128h.316l.176.016.351.016c.249.032.43.016.728.064 1.22.16 2.237.4 3.199.801.97.353 1.84.866 2.64 1.378a13.473 13.473 0 0 1 3.611 3.718c.86 1.282 1.33 2.58 1.627 3.638.144.545.255 1.026.301 1.459.07.416.117.785.12 1.09l.039.897-.003.112z" fill-rule="nonzero" fill="#231F20"/>
        <path d="M112.298 52.47c0 6.022-4.885 10.918-10.916 10.918-6.028 0-10.917-4.896-10.917-10.918 0-6.037 4.889-10.918 10.917-10.918 6.03 0 10.916 4.88 10.916 10.918" fill-rule="nonzero" fill="#FFF"/>
        <path d="M110.297 52.484l-.038-.634a7.895 7.895 0 0 0-.31-1.745c-.213-.73-.538-1.601-1.142-2.49a8.932 8.932 0 0 0-2.516-2.49c-.558-.332-1.153-.666-1.817-.872-.644-.27-1.4-.38-2.002-.46-.155-.031-.44-.031-.658-.047l-.35-.016h-.141l-.072.016c-.377.032-.764.032-1.142.11-.767.112-1.516.366-2.244.699-1.448.666-2.739 1.776-3.665 3.172a9.174 9.174 0 0 0-1.05 2.267c-.098.397-.217.825-.249 1.158-.078.222-.08 1.063-.105 1.332.021.84.12 1.681.354 2.49.254.81.596 1.57 1.05 2.268.926 1.396 2.217 2.506 3.665 3.172.7.317 1.539.603 2.182.682.265.08.83.095 1.283.127.223 0 .713-.016 1.046-.032a9.159 9.159 0 0 0 3.915-1.348 8.77 8.77 0 0 0 2.516-2.506c.604-.872.929-1.76 1.142-2.474.106-.38.185-.713.212-.951.048-.254.092-.476.095-.762l.043-.76-.002.094zm3.997.096s-.013.27-.033.777c.001.222-.043.602-.114 1.078a10 10 0 0 1-.31 1.49c-.296 1.063-.767 2.364-1.625 3.649a13.488 13.488 0 0 1-3.615 3.71 13.248 13.248 0 0 1-5.74 2.173c-.272.048-.55.048-.827.064-.314.016-.48.063-.92.032-.49-.016-.885 0-1.572-.111-1.28-.143-2.34-.476-3.486-.936-1.118-.476-2.166-1.142-3.144-1.92-.963-.792-1.807-1.744-2.535-2.79-.709-1.063-1.257-2.252-1.656-3.474-.377-1.253-.555-2.537-.586-3.838.049-.808.022-1.046.155-1.871.087-.73.263-1.348.431-1.967.399-1.237.947-2.41 1.656-3.473.728-1.047 1.572-1.998 2.535-2.791.978-.777 2.026-1.443 3.144-1.92 1.119-.459 2.268-.808 3.425-.935.572-.095 1.148-.095 1.712-.127h.318l.176.016.35.016c.247.032.428.016.728.063 1.218.175 2.236.397 3.197.81.972.348 1.842.856 2.64 1.38a13.488 13.488 0 0 1 3.614 3.71c.858 1.285 1.329 2.57 1.625 3.648a9.61 9.61 0 0 1 .302 1.443c.068.428.117.793.119 1.094l.04.904-.004.096z" fill-rule="nonzero" fill="#231F20"/>
        <path d="M83.964 108.055c-24.629 0-44.667-20.036-44.667-44.67v-48c0-6.626 5.374-11.997 12.001-11.997 6.628 0 12 5.371 12 11.996v48c0 11.401 9.271 20.68 20.666 20.68 11.396 0 20.668-9.279 20.668-20.68v-48c0-6.625 5.372-11.996 12-11.996 6.627 0 12 5.371 12 11.996v48c0 24.635-20.038 44.671-44.668 44.671" fill-rule="nonzero" fill="#FFF"/>
        <path d="M83.965 105.382s.433-.016 1.272-.065c.838-.08 2.095-.032 3.704-.257 3.216-.403 7.962-1.37 13.423-4.026 2.757-1.273 5.55-3.189 8.41-5.444a46.76 46.76 0 0 0 7.858-8.792c2.295-3.543 4.246-7.617 5.5-12.175.252-1.127.647-2.303.8-3.462l.51-3.51.174-4.01.013-.258.005-.13c-.005.275-.003 0-.005.033l-.002-.515-.008-1.015a893.27 893.27 0 0 1-.013-2.077l-.248-35.75c-.012-1.595-.022-3.19-.033-4.8l-.018-2.415-.008-1.224-.047-.902c-.201-2.351-1.45-4.59-3.374-6.039a8.616 8.616 0 0 0-3.233-1.53c-.314-.096-.522-.096-.767-.145l-.18-.032-.308-.032-.633-.016-.157-.016c.024 0-.284-.016.017 0l-.228.016-.458.016c-.306 0-.602.08-.906.113-2.406.402-4.603 1.98-5.867 4.138-.324.532-.562 1.111-.771 1.691l-.24.902c-.028.29-.089.45-.128.805l-.056 1.144-.013 1.32-.027 2.625-.105 10.612c-.07 7.134-.143 14.333-.216 21.612l-.11 10.934-.006.693-.045.773-.095 1.562c-.177 1.03-.264 2.077-.563 3.076-.45 2.045-1.314 3.961-2.273 5.797-2.054 3.623-5.005 6.748-8.62 8.857-.873.564-1.849.966-2.781 1.417-.984.355-1.94.79-2.965 1.015l-1.52.37-1.638.242c-1.224.21-1.774.129-3.02.21-4.15-.033-8.364-1.064-11.932-3.254-3.619-2.093-6.575-5.217-8.638-8.84-.962-1.837-1.833-3.77-2.287-5.814-.298-.967-.41-2.158-.58-3.205l-.087-1.385-.045-.676-.011-.838-.135-10.934c-.081-7.28-.205-14.478-.215-21.612-.017-3.559-.033-7.101-.051-10.612l-.013-2.625-.006-1.32c-.004-.435-.034-.66-.04-1.015a8.325 8.325 0 0 0-1.123-3.543c-1.242-2.174-3.479-3.784-5.856-4.203a8.724 8.724 0 0 0-6.956 1.627 8.901 8.901 0 0 0-2.36 2.705c-.587 1.015-.937 2.319-1.038 3.27l-.055 1.046-.003 1.224c-.004.805-.004 1.61-.007 2.415-.01 1.61-.017 3.205-.027 4.8l-.229 35.75c0 1.369-.037 2.786-.005 4.09l.163 3.752c.176 1.224.348 2.432.52 3.64.161 1.192.553 2.335.807 3.478 1.258 4.558 3.211 8.632 5.507 12.175a46.264 46.264 0 0 0 7.893 8.76c2.86 2.271 5.654 4.187 8.411 5.46 5.443 2.657 10.263 3.623 13.307 4.01.74.16 1.573.144 2.212.193.659.032 1.213.064 1.66.08.893.049 1.353.08 1.353.08l-.135-.015zm-.135 5.33s-.46-.016-1.355-.064c-.446-.017-1-.049-1.66-.08-.673-.05-1.383-.017-2.345-.178-3.797-.451-9.095-1.498-15.297-4.477-3.117-1.433-6.293-3.559-9.531-6.12a52.857 52.857 0 0 1-8.985-9.855C42 85.96 39.72 81.355 38.224 76.185c-.314-1.304-.759-2.592-.968-3.961-.214-1.353-.453-2.738-.643-4.123l-.241-4.283c-.05-1.402-.03-2.738-.047-4.14l-.229-35.75a1207.803 1207.803 0 0 1-.034-7.215l-.003-1.223.058-1.369c.037-.483.137-1.111.223-1.659.107-.547.246-1.03.376-1.53.16-.499.347-.982.529-1.481.222-.467.44-.95.684-1.401a15.357 15.357 0 0 1 4.08-4.767C45.343.674 49.913-.437 54.116.368c4.342.757 8.19 3.527 10.424 7.344 1.116 1.9 1.833 4.058 2.021 6.28.029.532.074 1.176.07 1.61l-.006 1.321-.012 2.625-.052 10.612c-.01 7.134-.134 14.333-.214 21.612l-.134 10.934-.005.339-.003.177c-.001 0 .003.257-.005.032l.028.676.051 1.37c.142.756.142 1.416.367 2.205.292 1.562.936 3.028 1.622 4.445 1.541 2.786 3.788 5.218 6.553 6.844 2.72 1.723 5.937 2.512 9.145 2.593.591-.065 1.902-.032 2.495-.193l1.1-.178 1.16-.306c.788-.16 1.513-.53 2.271-.789.709-.37 1.464-.66 2.126-1.11 2.768-1.627 5.021-4.059 6.569-6.845.69-1.433 1.34-2.899 1.64-4.46.221-.758.247-1.563.382-2.336l.044-1.191.026-.58-.007-.693c-.037-3.655-.072-7.31-.11-10.934l-.215-21.612-.105-10.612-.027-2.625-.013-1.32-.002-.161.01-.339.014-.322.033-.66c.037-.5.146-1.192.24-1.771.128-.548.259-1.095.418-1.627.351-1.047.785-2.077 1.348-3.044 2.21-3.832 6.097-6.618 10.41-7.407.54-.065 1.075-.194 1.617-.21l.811-.048.406-.016.494.016.632.032.325.032.448.049c.584.08 1.22.16 1.715.322 2.1.499 4.074 1.45 5.76 2.754 3.39 2.592 5.58 6.618 5.918 10.773.028.5.06 1.063.066 1.514l-.008 1.224-.017 2.415c-.01 1.61-.023 3.205-.033 4.8-.088 12.673-.17 24.67-.248 35.75-.005.692-.01 1.385-.013 2.077l-.01 1.015v.515l-.015.403-.015.257c-.077 1.353-.154 2.69-.232 4.01-.185 1.417-.428 2.867-.649 4.252-.219 1.417-.66 2.673-.976 3.993-1.497 5.17-3.784 9.792-6.443 13.753a52.924 52.924 0 0 1-9.02 9.84c-3.236 2.56-6.41 4.686-9.53 6.103-6.184 2.995-11.554 4.042-15.18 4.477-1.817.241-3.233.21-4.177.29-.945.032-1.433.064-1.433.064l-.135-.016z" fill-rule="nonzero" fill="#231F20"/>
        <path d="M58.298 120.934c0 4.793-3.88 8.677-8.667 8.677-4.785 0-8.666-3.884-8.666-8.677 0-4.778 3.88-8.662 8.666-8.662 4.787 0 8.667 3.884 8.667 8.662" fill-rule="nonzero" fill="#FFF"/>
        <path d="M58.298 120.934c0 4.793-3.88 8.677-8.667 8.677-4.785 0-8.666-3.884-8.666-8.677 0-4.778 3.88-8.662 8.666-8.662 4.787 0 8.667 3.884 8.667 8.662z" stroke="#231F20" stroke-width="4"/>
        <path d="M126.964 120.934c0 4.793-3.879 8.677-8.666 8.677-4.786 0-8.666-3.884-8.666-8.677 0-4.778 3.88-8.662 8.666-8.662 4.787 0 8.666 3.884 8.666 8.662" fill-rule="nonzero" fill="#FFF"/>
        <path d="M126.964 120.934c0 4.793-3.879 8.677-8.666 8.677-4.786 0-8.666-3.884-8.666-8.677 0-4.778 3.88-8.662 8.666-8.662 4.787 0 8.666 3.884 8.666 8.662z" stroke="#231F20" stroke-width="4"/>
        <path d="M92.629 124.956a8.664 8.664 0 0 1-8.667 8.663 8.664 8.664 0 0 1 0-17.326 8.664 8.664 0 0 1 8.667 8.663" fill-rule="nonzero" fill="#FFF"/>
        <path d="M92.629 124.956a8.664 8.664 0 0 1-8.667 8.663 8.664 8.664 0 0 1 0-17.326 8.664 8.664 0 0 1 8.667 8.663z" stroke="#231F20" stroke-width="4"/>
    </g>
</svg>
