<svg width="167" height="167" xmlns="http://www.w3.org/2000/svg">
    <title>
        ilo
    </title>
    <g fill="none" fill-rule="evenodd">
        <path d="M83.63 122.156c0 22.841-15.84 41.335-38.667 41.335S3.63 144.997 3.63 122.156c0-65.326 80-63.656 80-63.656v63.656" fill-rule="nonzero" fill="#FFF"/>
        <path d="M83.63 122.156c0 22.841-15.84 41.335-38.667 41.335S3.63 144.997 3.63 122.156c0-65.326 80-63.656 80-63.656v63.656z" stroke="#231F20" stroke-width="6.667"/>
        <path d="M22.63 105.833l20.416-15.75" fill-rule="nonzero" fill="#FFF"/>
        <path d="M21.209 103.977l20.21-16.019a2.667 2.667 0 0 1 3.748.436 2.652 2.652 0 0 1-.435 3.736c-.015.016-.038.031-.052.047l-20.622 15.49a2.331 2.331 0 0 1-3.266-.468 2.323 2.323 0 0 1 .417-3.222" fill-rule="nonzero" fill="#231F20"/>
        <path d="M31.631 123.832l22.666-19.34" fill-rule="nonzero" fill="#FFF"/>
        <path d="M30.118 122.048l22.451-19.58a2.654 2.654 0 0 1 3.762.247 2.664 2.664 0 0 1-.257 3.762c-.011.015-.033.03-.045.046l-22.884 19.07a2.322 2.322 0 0 1-3.286-.295 2.333 2.333 0 0 1 .259-3.25" fill-rule="nonzero" fill="#231F20"/>
        <path d="M83.63 122.156c0 22.841 15.839 41.335 38.666 41.335 22.828 0 41.333-18.494 41.333-41.335 0-65.326-80-63.656-80-63.656v63.656" fill-rule="nonzero" fill="#FFF"/>
        <path d="M83.63 122.156c0 22.841 15.839 41.335 38.666 41.335 22.828 0 41.333-18.494 41.333-41.335 0-65.326-80-63.656-80-63.656v63.656z" stroke="#231F20" stroke-width="6.667"/>
        <path d="M144.63 105.833l-20.417-15.75" fill-rule="nonzero" fill="#FFF"/>
        <path d="M143.206 107.682l-20.622-15.49a2.672 2.672 0 0 1-.53-3.736 2.662 2.662 0 0 1 3.735-.529c.014.016.038.031.055.047l20.21 16.003a2.34 2.34 0 0 1 .38 3.285 2.34 2.34 0 0 1-3.228.42" fill-rule="nonzero" fill="#231F20"/>
        <path d="M135.631 123.832l-22.667-19.34" fill-rule="nonzero" fill="#FFF"/>
        <path d="M134.12 125.586l-22.882-19.07a2.668 2.668 0 1 1 3.415-4.102c.01.016.033.032.044.032l22.45 19.596a2.339 2.339 0 0 1 .225 3.297 2.35 2.35 0 0 1-3.252.247" fill-rule="nonzero" fill="#231F20"/>
        <path d="M112.464 90.604v44.056c0 15.918-12.909 28.836-28.834 28.836-15.924 0-28.833-12.918-28.833-28.836V90.604" fill-rule="nonzero" fill="#FFF"/>
        <path d="M115.464 90.604s.15 11.162.232 27.92l.085 13.524.011 1.819v.995l-.02.917c.002.575-.085 1.399-.132 2.098-.089.7-.152 1.384-.278 2.083a31.976 31.976 0 0 1-2.522 8.208c-2.44 5.301-6.473 10.105-11.626 13.447-5.129 3.373-11.36 5.223-17.584 5.208-6.222.015-12.456-1.835-17.583-5.208-5.153-3.342-9.186-8.146-11.626-13.447a31.972 31.972 0 0 1-2.52-8.208 31.005 31.005 0 0 1-.409-4.15c-.053-1.43-.01-2.518-.01-3.762l.085-13.525c.08-16.757.23-27.919.23-27.919h6s.151 11.162.232 27.92l.085 13.524c.024 2.518-.032 4.617.373 6.824a25.17 25.17 0 0 0 2.009 6.483c1.94 4.197 5.15 7.99 9.218 10.648 4.06 2.674 8.964 4.15 13.916 4.15 4.955 0 9.858-1.476 13.918-4.15 4.068-2.658 7.277-6.451 9.217-10.648a25.11 25.11 0 0 0 2.009-6.483c.102-.56.152-1.103.225-1.648.03-.544.103-.948.106-1.616l.024-.917.007-.824.012-1.82c.03-4.803.058-9.326.086-13.524.08-16.757.23-27.919.23-27.919h6" fill-rule="nonzero" fill="#231F20"/>
        <path d="M154.466 50.812c0 21.917-17.758 39.665-39.667 39.665H52.465c-21.905 0-39.667-17.748-39.667-39.665 0-21.9 17.762-39.665 39.667-39.665H114.8c21.909 0 39.667 17.764 39.667 39.665" fill-rule="nonzero" fill="#FFF"/>
        <path d="M151.128 50.839s-.072-1.348-.21-3.853c-.367-2.472-.887-6.148-2.744-10.467-1.832-4.286-5.034-9.15-9.985-13.42-2.537-2.023-5.409-4.03-8.777-5.458a38.702 38.702 0 0 0-10.911-2.906c-1.093-.064-2.2-.112-3.315-.177l-.42-.016-.103-.016c-.073 0 .252.016.064 0h-9.719c-4.723 0-9.605-.016-14.624-.016-10.04 0-20.627.016-31.579.016h-6.2l-1.915.097-1.912.096-1.896.305c-.63.096-1.27.16-1.899.305l-1.867.482c-4.97 1.332-9.733 3.724-13.8 7.063a37.054 37.054 0 0 0-9.657 12.474c-1.19 2.375-1.992 4.944-2.617 7.529-.334 1.3-.417 2.536-.661 3.788-.135 1.38-.167 2.906-.257 4.335.011-.29.008 0 .011-.049l.007.129.011.257.02.497.044 1.012c.044.658.021 1.332.111 2.006.225 1.317.313 2.665.634 3.95.602 2.616 1.382 5.185 2.551 7.593a37.153 37.153 0 0 0 9.598 12.634 36.846 36.846 0 0 0 13.883 7.288l1.89.514c.623.128 1.236.208 1.852.305l1.848.32 2.085.13 1.936.111 2.076.017c1.379.016 2.755.016 4.124.032 10.952.016 21.539.112 31.579.064l14.624-.048 6.964-.048c1.12-.017 2.307.016 3.344-.049l3.08-.192c4.046-.466 7.81-1.574 11.188-3.05 3.394-1.493 6.275-3.532 8.812-5.62 4.95-4.35 8.12-9.278 9.916-13.596.425-1.092.77-2.151 1.133-3.13.334-.996.503-1.96.744-2.842.26-.883.36-1.686.456-2.408.109-.739.208-1.397.298-1.99l.191-4.175-.006.177zm6.664.16s-.092 1.461-.26 4.207c-.439 3.098-1.118 7.448-3.336 12.521-2.201 5.057-6.003 10.772-11.867 15.748-2.99 2.376-6.39 4.688-10.358 6.358a45.532 45.532 0 0 1-13.025 3.307l-3.551.144c-1.195.048-2.269 0-3.423 0l-6.964-.048-14.624-.048c-10.04-.048-20.627.048-31.579.064-1.37.016-2.745.016-4.124.032l-2.076.016-2.22-.08-2.088-.08-2.298-.322c-.764-.112-1.547-.192-2.298-.353l-2.198-.53a42.914 42.914 0 0 1-16.281-8.203 43.413 43.413 0 0 1-11.475-14.608c-1.415-2.81-2.399-5.828-3.15-8.894-.398-1.525-.55-3.114-.825-4.671-.114-.77-.114-1.574-.177-2.36L9.53 52.01l-.033-.578-.016-.305-.01-.145c0-.128-.01.065-.002-.32.087-1.477.11-2.874.25-4.415.258-1.606.412-3.291.8-4.832.727-3.066 1.687-6.117 3.083-8.942 2.692-5.715 6.633-10.772 11.413-14.785A42.888 42.888 0 0 1 41.38 9.277l2.22-.562c.747-.16 1.505-.24 2.254-.37l2.25-.336 2.261-.113 2.241-.096h6.199c10.952.016 21.539.016 31.579.032 5.02-.016 9.901-.016 14.624-.016 2.362 0 4.683-.016 6.964-.016h2.545l.59.016.42.016c1.115.048 2.221.113 3.316.16 4.956.514 9.303 1.75 13.3 3.452 3.993 1.718 7.404 4.078 10.395 6.518 5.86 5.04 9.63 10.82 11.794 15.925 2.19 5.12 2.816 9.487 3.225 12.409.185 2.954.238 4.543.238 4.543l-.003.16z" fill-rule="nonzero" fill="#231F20"/>
        <path d="M111.049 30.74c0 15.149-12.275 27.418-27.418 27.418-15.142 0-27.416-12.27-27.416-27.417 0-15.148 12.274-27.418 27.416-27.418 15.143 0 27.418 12.27 27.418 27.418" fill-rule="nonzero" fill="#FFF"/>
        <path d="M108.047 30.751l-.111-1.723c-.005-.563-.116-1.256-.26-2.045-.073-.402-.118-.837-.225-1.288-.122-.45-.25-.934-.388-1.433-.596-1.996-1.502-4.395-3.16-6.794-1.625-2.383-3.89-4.83-6.866-6.795-1.514-.918-3.14-1.82-4.943-2.464-.448-.16-.9-.322-1.357-.483-.472-.128-.946-.241-1.424-.37-.975-.306-1.861-.322-2.803-.515-.46-.08-1.125-.08-1.684-.113l-.882-.048-.442-.016h.116-.148l-.193.016c-1.042.064-2.106.032-3.156.241-2.127.242-4.222.918-6.27 1.755-2.048.87-3.954 2.126-5.753 3.543-1.76 1.465-3.312 3.22-4.67 5.12-1.316 1.948-2.327 4.106-3.084 6.36-.306 1.143-.654 2.302-.784 3.381-.25.998-.248 2.528-.351 3.816.008-.29.005-.048.006-.097l.004.065.004.112.01.226.02.45.033.886c-.005.612.094 1.208.18 1.804.115 1.191.44 2.35.719 3.51.711 2.286 1.68 4.476 2.969 6.488 1.325 1.965 2.874 3.768 4.653 5.282 1.811 1.465 3.742 2.77 5.827 3.687.496.274 1.051.402 1.571.628.53.177 1.042.418 1.591.531l1.61.435c.533.129 1.036.177 1.55.274.935.209 2.244.225 3.406.305h.222l.11.017h-.027l.4-.033.796-.032c.526-.048 1.058-.032 1.571-.113 4.148-.499 7.91-1.996 10.912-4.04a24.95 24.95 0 0 0 6.845-7.07c1.621-2.463 2.478-4.91 3.027-6.939.125-.5.243-.982.356-1.45.091-.434.12-.836.183-1.223.058-.37.11-.724.16-1.046.046-.322.037-.725.056-1.03l.077-1.933-.003.161zm5.996.145l-.12 1.932c-.026.322-.02.644-.083 1.079l-.225 1.465c-.09.515-.161 1.095-.293 1.675l-.477 1.787c-.732 2.48-1.874 5.49-3.927 8.485-2.017 2.979-4.835 6.038-8.545 8.486a31.36 31.36 0 0 1-13.34 4.83c-.626.096-1.267.08-1.908.129l-.964.048-.486.016-.583-.016c-1.205-.08-2.31-.048-3.761-.306-2.805-.322-5.325-1.143-7.913-2.206-2.558-1.095-4.944-2.64-7.174-4.428-2.195-1.835-4.132-4.009-5.813-6.392-1.636-2.431-2.901-5.12-3.829-7.938-.391-1.433-.806-2.866-.988-4.347-.123-.74-.252-1.465-.27-2.222l-.067-1.111-.032-.564-.016-.273-.007-.145-.004-.065c0-.096-.007.113 0-.225.083-1.385.02-2.576.302-4.218.166-1.594.559-3.027.923-4.46.88-2.85 2.106-5.588 3.714-8.083 1.646-2.448 3.58-4.686 5.794-6.553 2.246-1.836 4.656-3.43 7.248-4.573 2.588-1.111 5.262-1.98 7.966-2.319 1.34-.274 2.687-.274 4.014-.37h.25l.123-.016h.288l.443.032.88.048c.609.032 1.115.016 1.797.113 1.333.21 2.74.338 3.92.708.61.161 1.215.322 1.816.467l1.735.628c2.306.821 4.357 2.013 6.254 3.237 3.743 2.544 6.545 5.7 8.524 8.759 2.014 3.075 3.106 6.118 3.792 8.63.156.644.304 1.24.444 1.803.12.58.174 1.111.253 1.61.154 1.015.264 1.868.266 2.577l.083 2.141-.003.145z" fill-rule="nonzero" fill="#231F20"/>
    </g>
</svg>
