<svg width="167" height="167" xmlns="http://www.w3.org/2000/svg">
    <title>
        insa
    </title>
    <g fill="none" fill-rule="evenodd">
        <path d="M158.744 56.829c14.714 41.663-7.133 87.361-48.794 102.083-41.661 14.705-87.361-7.135-102.073-48.798C-6.837 68.451 15.01 22.753 56.67 8.031c41.661-14.705 87.361 7.135 102.073 48.798" fill-rule="nonzero" fill="#FFF"/>
        <path d="M158.744 56.829c14.714 41.663-7.133 87.361-48.794 102.083-41.661 14.705-87.361-7.135-102.073-48.798C-6.837 68.451 15.01 22.753 56.67 8.031c41.661-14.705 87.361 7.135 102.073 48.798z" stroke="#231F20" stroke-width="6.667"/>
        <path d="M152.432 41.9c-9.339 28.36-31.245 52.222-61.572 62.933-30.51 10.774-62.754 5.83-87.894-10.6m60.43 16.561c4.33 16.27 3.212 33.388-2.828 48.763m57.912-68.192c14.348 13.132 18.862 31.858 17.277 51.657M121.814 13.385c-9.151 19.624-25.874 35.691-47.898 43.46-22.126 7.818-45.344 5.751-64.842-3.876" stroke="#231F20" stroke-width="5.333"/>
    </g>
</svg>
