<svg width="174" height="169" xmlns="http://www.w3.org/2000/svg">
    <title>
        jaki
    </title>
    <g fill="none" fill-rule="evenodd">
        <path d="M79.497 110.012c4.824 0 8.734 3.457 8.734 7.732 0 2.13-.977 4.059-2.558 5.463l-17.027 15.031c-1.602 1.636-3.974 2.685-6.62 2.685-4.825 0-8.735-3.457-8.735-7.731v-15.448c0-4.275 3.91-7.732 8.734-7.732h17.472" fill-rule="nonzero" fill="#FFF"/>
        <path d="M79.499 112.7c-5.511-.047-11.022.046-16.533.077l-1.006.015c-.247.016-.499 0-.741.046-.488.078-.97.17-1.423.34-.92.31-1.724.85-2.35 1.499a4.564 4.564 0 0 0-1.186 2.178c-.143.541-.068 2.21-.078 3.538l.037 8.266.019 4.125c-.005.401.022.571.03.772.015.186.061.386.098.572.107.386.253.757.468 1.112.42.71 1.085 1.344 1.867 1.808.407.216.821.432 1.277.556.451.154.941.2 1.266.278l.492.03h.26l.128.016h.033c.035 0-.245-.015-.12 0l.01-.015h.045l.713-.077c.493.015.937-.155 1.386-.294.484-.062.836-.386 1.264-.571.413-.201.69-.572 1.07-.804l.164-.154 15.764-13.781c.625-.541 1.435-1.236 1.735-1.545a4.48 4.48 0 0 0 .899-1.36c.117-.216.185-.51.245-.71a.936.936 0 0 1 .064-.248l.043-.649.006-.077.002-.046.001-.016c-.01.31-.003.078-.004.14l-.008-.093-.01-.201a1.645 1.645 0 0 0-.043-.386c-.024-.263-.11-.51-.187-.757-.35-1.005-1.129-1.931-2.147-2.565a7.053 7.053 0 0 0-1.68-.757c-.689-.17-.943-.232-1.99-.278l.12.015zm.12-5.377c.698-.015 2.182.139 3.183.417 1.08.294 2.129.742 3.107 1.329 1.94 1.174 3.616 2.997 4.48 5.284.202.571.388 1.158.479 1.76.057.294.105.603.117.912l.027.448.012.232-.01.324-.035.665a21.1 21.1 0 0 1-.156 1.05c-.147.634-.301 1.205-.548 1.762a10.542 10.542 0 0 1-1.916 3.028c-.91.942-1.457 1.36-2.128 1.977L70.61 140.447l.16-.155c-.708.587-1.384 1.282-2.178 1.73-.81.418-1.588.943-2.47 1.16-.865.277-1.732.555-2.634.586l-1.341.14h-.29l-.13-.016h-.258l-.538-.031c-1.04-.093-1.918-.263-2.773-.556-.87-.263-1.696-.665-2.493-1.113-1.572-.957-2.976-2.27-3.948-3.955a10.393 10.393 0 0 1-1.092-2.703 10.469 10.469 0 0 1-.236-1.453 15.846 15.846 0 0 1-.044-1.297l.02-4.125.038-8.266.009-2.07.003-.525.017-.417.015-.263c-.001-.247.1-.912.201-1.437a10.325 10.325 0 0 1 2.74-4.975 11.422 11.422 0 0 1 4.599-2.827 11.688 11.688 0 0 1 2.6-.571c.439-.062.88-.047 1.32-.078h1.06c5.51.031 11.02.14 16.532.093h.12z" fill-rule="nonzero" fill="#231F20"/>
        <path d="M105.174 121.666c5.374-.461 10.066 3.011 10.48 7.758.207 2.382-.695 4.625-2.319 6.346L95.83 154.16c-1.624 1.982-4.165 3.38-7.114 3.641-5.372.461-10.064-3.011-10.478-7.758l-1.5-17.223c-.414-4.748 3.605-8.988 8.98-9.449l19.456-1.705" fill-rule="nonzero" fill="#FFF"/>
        <path d="M105.406 124.351c-3.072.23-6.137.554-9.205.83l-9.202.877-1.122.108c-.283.046-.577.061-.854.138a8.185 8.185 0 0 0-1.618.523c-1.038.446-1.923 1.169-2.594 1.984a5.457 5.457 0 0 0-1.182 2.722c-.116.707.135 2.522.25 3.998l.838 9.211.422 4.598c.03.446.08.646.109.877.04.23.112.46.18.692.164.445.383.876.673 1.276.575.8 1.421 1.476 2.39 1.937.497.216 1.003.431 1.549.523.544.139 1.113.17 1.525.2l.558-.015.29-.016h.16c-.053 0 .147-.015-.116 0h.079c.275-.046.561-.061.835-.123.546-.123 1.086-.276 1.588-.507a6.937 6.937 0 0 0 2.578-1.891l.098-.108.05-.062 16.212-16.869c.646-.677 1.466-1.507 1.802-1.922.417-.523.72-1.107.923-1.707.112-.292.165-.63.215-.892a1.72 1.72 0 0 1 .05-.323l-.016-.723-.003-.092v-.046l-.001-.03c.018.322.004.091.009.153h-.002l-.018-.123-.033-.23a2.331 2.331 0 0 0-.09-.462c-.06-.308-.188-.6-.308-.892-.524-1.138-1.54-2.153-2.792-2.799a8.314 8.314 0 0 0-2.032-.692c-.803-.123-1.169-.184-2.316-.123h.12zM105.06 119c.8-.077 2.391-.062 3.513.153 1.202.231 2.383.6 3.501 1.154 2.217 1.092 4.201 2.906 5.348 5.29.274.6.528 1.215.683 1.86.09.323.17.646.21.97l.075.491.032.246.02.354.026.738c-.015.37-.038.754-.074 1.123-.097.707-.212 1.322-.424 1.968a11.594 11.594 0 0 1-1.79 3.445c-.887 1.092-1.47 1.63-2.153 2.383L97.97 156.198l.149-.153a13.042 13.042 0 0 1-4.754 3.583c-.9.415-1.845.692-2.803.907-.477.108-.964.154-1.447.23h-.09l-.047.016h-.17l-.145.015-.288.016-.595.015c-1.125-.015-2.1-.092-3.055-.338-.97-.2-1.906-.554-2.813-.969-1.794-.876-3.441-2.184-4.652-3.89a10.992 10.992 0 0 1-1.436-2.815 11.624 11.624 0 0 1-.394-1.537 16.863 16.863 0 0 1-.172-1.415l-.383-4.613-.766-9.212-.19-2.306-.048-.57-.023-.445-.006-.293c-.028-.292.017-1.014.078-1.583a11.121 11.121 0 0 1 2.49-5.629c1.296-1.553 2.926-2.768 4.724-3.521.893-.4 1.83-.677 2.776-.861.472-.123.953-.154 1.43-.216l1.178-.092 9.213-.738c3.07-.261 6.143-.477 9.21-.784h.12z" fill-rule="nonzero" fill="#231F20"/>
        <path d="M144.304 117.971c7.176-.2 11.734 2.277 11.916 8.63.221 7.832-26.865 33.817-26.865 33.817-2.314 2.507-5.797 4.169-9.736 4.277-7.177.2-13.14-4.785-13.32-11.124l-.654-23c-.18-6.338 5.493-11.662 12.668-11.862l25.991-.738" fill-rule="nonzero" fill="#FFF"/>
        <path d="M144.375 120.686l-6.825.17c-4.34.154-10.542.4-17.982.693-.445.015-.98.015-1.364.061-.38.046-.772.031-1.152.123-.764.124-1.542.293-2.276.601a10.037 10.037 0 0 0-3.969 2.649c-.533.6-1.012 1.263-1.341 1.971-.2.354-.297.74-.448 1.109-.076.354-.225.8-.23 1.078-.012.185-.068.23-.068.539l-.015.847.056 1.525c.044 1.14.089 2.294.132 3.45l.542 14.352.126 3.666c.043.831.231 1.663.55 2.448.655 1.556 1.899 2.972 3.504 3.912 3.174 1.94 7.626 1.971 10.85.2a11.19 11.19 0 0 0 1.131-.724c.143-.108.291-.215.444-.323.154-.108.417-.4.62-.585.863-.847 1.72-1.679 2.575-2.51 1.674-1.68 3.327-3.327 4.953-4.96 3.232-3.28 6.285-6.53 9.058-9.67 2.77-3.127 5.29-6.176 7.282-9.072.982-1.432 1.845-2.864 2.371-4.096.251-.585.414-1.217.413-1.355l.005-.154.003-.077c0 .277-.002.061-.002.123l-.001-.03-.016-.232-.026-.447c-.015-.292-.085-.554-.116-.831-.417-2.08-1.615-3.003-3.13-3.635-1.502-.585-3.082-.723-4.017-.77-.442-.046-.97-.03-1.247-.03-.3-.016-.456-.016-.456-.016h.066zm-.09-5.405h.457c.323 0 .688-.031 1.409 0 1.372.061 3.263.123 5.86 1.016 1.272.493 2.735 1.248 4.036 2.557 1.303 1.278 2.316 3.126 2.72 5.05.083.478.2.971.243 1.448l.062.724.029.37.003.046.005.185-.002.077-.001.154c-.057 1.463-.418 2.433-.783 3.419-.767 1.91-1.752 3.557-2.826 5.22-2.162 3.296-4.72 6.53-7.526 9.857-2.809 3.31-5.869 6.683-9.1 10.087-1.612 1.71-3.296 3.403-5.007 5.128-.856.847-1.72 1.694-2.587 2.541-.238.231-.377.4-.702.678l-.983.8c-.663.478-1.27.878-1.946 1.248-5.34 2.941-12.128 2.895-17.466-.354-2.653-1.602-4.905-4.066-6.137-7.069a14.179 14.179 0 0 1-1.013-4.743c-.03-1.232-.057-2.464-.086-3.68l-.273-14.354-.064-3.465-.017-.847-.007-.431-.003-.216.005-.385.032-.847c.003-.246.085-.77.133-1.124.1-.847.32-1.463.51-2.172.257-.662.49-1.34.833-1.955.623-1.248 1.45-2.341 2.357-3.311a16.098 16.098 0 0 1 6.34-4.081c1.136-.416 2.305-.663 3.45-.817.572-.107 1.146-.107 1.711-.154.563-.03.97-.03 1.456-.03 7.444-.14 13.649-.247 17.993-.34 4.342-.138 6.821-.23 6.821-.23h.065z" fill-rule="nonzero" fill="#231F20"/>
        <path d="M54.956 111.016c16.181 14.04 38.787 30.667 61.89 30.667h13.11c22.091 0 40-24.25 40-46.33V44.23c0-22.08-17.909-39.994-40-39.994l-39.779.45c-44.06 0-79.776 35.717-79.776 79.78v9.777c0 14.104 11.442 25.553 25.557 25.553 14.113 0 25.553-6.223 25.553-41.779" fill-rule="nonzero" fill="#FFF"/>
        <path d="M56.687 108.982s.403.338 1.184.998c.778.644 1.936 1.61 3.44 2.818 3.006 2.416 7.488 5.942 13.45 9.936 2.962 2.045 6.352 4.09 10.093 6.2 3.776 2.045 7.955 4.042 12.542 5.732 4.58 1.707 9.612 3.028 14.96 3.511 1.334.129 2.688.129 4.055.21 1.406.032 2.936 0 4.424 0 2.93-.017 5.929-.017 8.99-.033.783-.064 1.57-.113 2.36-.16.767-.081 1.66-.065 2.25-.259 1.316-.338 2.615-.45 4.026-1.014a97.038 97.038 0 0 1 2.095-.709c.673-.322 1.351-.644 2.03-.982 1.395-.564 2.65-1.481 3.977-2.27 5.186-3.414 9.633-8.422 13.13-14.155.477-.693.844-1.45 1.237-2.206.39-.757.78-1.514 1.172-2.27.33-.774.662-1.579.995-2.368l.504-1.176.406-1.223.81-2.464c.232-.838.404-1.691.612-2.528.478-1.691.596-3.43.884-5.153.089-.854.092-1.723.145-2.61l.068-1.303c.016-.451.003-.95.006-1.418l-.008-5.748-.014-11.675c-.012-7.842-.021-15.814-.033-23.897a7733.2 7733.2 0 0 0-.008-6.071l-.001-1.53v-.757c0 .016-.003-.306.001-.016l-.01-.193-.019-.387-.157-3.043c-.068-.999-.273-1.788-.387-2.69-.077-.45-.12-.885-.214-1.32l-.354-1.369c-.388-1.836-1.105-3.575-1.741-5.33-3.007-6.876-8.074-12.98-14.619-16.876-3.227-1.997-6.773-3.527-10.49-4.348-.465-.097-.919-.258-1.389-.322l-1.412-.21c-.944-.128-1.876-.354-2.836-.354l-2.858-.145-3.095.049c-8.37.08-16.74.177-25.076.274l-12.427.144-3.108.065-2.897.21c-.955.048-1.944.209-2.921.321-.977.13-1.958.226-2.924.419-15.56 2.544-29.9 10.08-40.627 20.58-10.804 10.467-17.952 23.752-21.058 37.15-.831 3.333-1.31 6.715-1.677 10.032-.11 1.675-.307 3.318-.309 4.976l-.066 2.464-.003 2.544-.008 5.024v1.256l-.002.612v.306c-.006-.29.002.016.002-.016l.01.161c.045.805.067 1.675.133 2.432l.303 1.916c.175.693.346 1.353.518 2.03.237.66.47 1.304.703 1.948.267.644.59 1.24.874 1.868 2.541 4.83 6.776 8.422 11.367 10.273 2.293.967 4.709 1.418 7.058 1.546l.88.049.219.016c-.01 0 .177 0 .004.016l.128-.016h.5l1.987-.049c1.118-.128 2.221-.177 3.316-.434 1.116-.145 2.097-.516 3.095-.822.93-.418 1.871-.773 2.672-1.32.877-.435 1.552-1.143 2.307-1.707.355-.322.648-.709.976-1.03.303-.371.676-.66.918-1.08 2.235-3.043 3.733-6.537 4.6-9.887.128-.419.252-.821.374-1.224.094-.418.185-.821.274-1.224.184-.805.36-1.594.531-2.35.337-1.53.484-3.012.74-4.38.264-1.353.34-2.642.486-3.817.122-1.176.26-2.239.336-3.189.113-1.932.223-3.413.3-4.412l.114-1.514.007-.08a2 2 0 0 1 2.143-1.852 2.02 2.02 0 0 1 1.85 1.932s.018.532.049 1.562c.038 1.031.085 2.56.114 4.558-.126 3.993-.002 9.887-1.742 17.44-.242.95-.472 1.916-.746 2.898-.348.998-.702 1.997-1.068 3.027-.355 1.047-.934 2.062-1.418 3.124a9.633 9.633 0 0 1-.899 1.546c-.335.516-.675 1.047-1.016 1.562-2.813 4.171-8.026 7.73-13.718 8.696-1.398.338-2.886.45-4.384.596-.657.032-1.32.048-1.988.08l-.501.016h-.126c-.254.017-.151 0-.244 0l-.286-.016-1.141-.048c-3.045-.16-6.197-.757-9.192-1.997-6-2.415-11.506-7.053-14.837-13.35-.382-.804-.796-1.593-1.145-2.43-.311-.838-.635-1.676-.923-2.545-.227-.87-.456-1.755-.684-2.641-.145-.966-.292-1.916-.437-2.899-.076-.87-.095-1.642-.143-2.48l-.021-.483v-.918l-.002-1.256a5062.796 5062.796 0 0 1-.011-7.568c.02-.902.043-1.788.063-2.69.003-1.787.203-3.59.323-5.41.389-3.607.905-7.279 1.798-10.934 3.35-14.606 11.11-29.13 22.86-40.58C43.71 13.409 59.357 5.116 76.369 2.298c1.056-.21 2.127-.322 3.196-.467 1.07-.129 2.127-.29 3.239-.354l3.293-.242 3.108-.08c4.164-.065 8.341-.113 12.526-.177C110.068.88 118.438.8 126.807.704l3.182-.032 3.41.177c1.143 0 2.26.258 3.387.419l1.69.257c.56.097 1.106.274 1.66.403 4.443.998 8.686 2.834 12.536 5.217 3.84 2.384 7.401 5.282 10.285 8.76a46.259 46.259 0 0 1 7.092 11.418c.776 2.11 1.6 4.186 2.071 6.376l.409 1.627c.118.547.187 1.143.279 1.707.154 1.127.386 2.335.45 3.381l.15 3.044.02.386.01.194.004.37-.002.757-.001 1.53-.008 6.07-.032 23.898c-.004 3.929-.01 7.826-.015 11.675l-.008 5.748c-.003.484.008.95-.008 1.45l-.076 1.53c-.062 1.03-.08 2.06-.186 3.06-.32 1.996-.492 4.025-1.031 5.957-.24.967-.446 1.949-.717 2.899-.309.934-.62 1.868-.927 2.802l-.47 1.4-.572 1.353c-.383.902-.765 1.788-1.143 2.674-.446.87-.893 1.723-1.335 2.576-.45.854-.873 1.707-1.411 2.512-3.992 6.506-9.065 12.206-15.211 16.248-1.575.95-3.068 1.997-4.755 2.706-.823.386-1.641.773-2.458 1.16-.858.289-1.713.579-2.563.869-1.636.66-3.577.934-5.384 1.288-.966.225-1.682.21-2.492.274-.791.048-1.579.112-2.361.16-3.218-.015-6.364-.015-9.441-.015-1.516-.016-2.957 0-4.484-.049-1.56-.08-3.11-.096-4.62-.257-6.056-.596-11.607-2.126-16.562-4.01-4.966-1.9-9.372-4.122-13.332-6.345-3.908-2.286-7.42-4.509-10.457-6.666-6.11-4.316-10.556-8.068-13.598-10.645-1.533-1.288-2.642-2.286-3.407-2.963a94.72 94.72 0 0 1-1.153-1.014 2.654 2.654 0 0 1-.242-3.752 2.678 2.678 0 0 1 3.707-.306" fill-rule="nonzero" fill="#231F20"/>
        <path d="M122.437 32.12L86.833 84.83m53.911-45.82l-40.575 60.076m39.974-25.39l-7.939 11.757M90.992 44.92l-4.125 6.112" stroke="#231F20" stroke-width="5.333" stroke-linecap="round" stroke-linejoin="round"/>
        <path d="M1.172 70.831s.118-.157.342-.425c.236-.3.51-.678 1.03-1.261.488-.584 1.094-1.23 1.789-1.955a44.868 44.868 0 0 1 2.477-2.27 39.749 39.749 0 0 1 3.167-2.397c1.174-.772 2.432-1.56 3.8-2.254 1.355-.726 2.81-1.34 4.313-1.924 1.513-.536 3.074-1.04 4.668-1.387a48.58 48.58 0 0 1 4.722-.804 43.4 43.4 0 0 1 4.653-.331c3.035-.079 5.903.236 8.298.772a36.771 36.771 0 0 1 5.618 1.75 37.76 37.76 0 0 1 1.505.647c.343.142.526.22.526.22a2.014 2.014 0 0 1 1.017 2.649 1.99 1.99 0 0 1-2.64 1.009h-.026s-.667-.315-1.852-.757a32.982 32.982 0 0 0-5-1.45c-2.103-.394-4.6-.63-7.31-.505a42.7 42.7 0 0 0-4.165.394c-.662.08-1.512.253-2.174.363-.695.158-1.403.268-2.09.489-1.386.347-2.74.82-4.048 1.34-1.297.536-2.552 1.12-3.716 1.797-1.176.63-2.248 1.356-3.249 2.065-.99.726-1.887 1.45-2.683 2.16A39.248 39.248 0 0 0 8.069 70.8c-.585.646-1.077 1.198-1.431 1.655-.364.426-.696.899-.905 1.183-.215.283-.328.441-.328.441a2.662 2.662 0 0 1-3.73.552 2.672 2.672 0 0 1-.554-3.736c.013-.016.035-.048.05-.064M5.77 42.467s.155-.08.446-.223c.306-.158.675-.365 1.335-.666.635-.318 1.385-.62 2.236-.953.865-.333 1.85-.666 2.937-.984 1.09-.301 2.28-.571 3.555-.793 1.276-.207 2.627-.397 4.035-.46a32.959 32.959 0 0 1 4.335.015c1.473.111 2.965.286 4.433.603a40.69 40.69 0 0 1 4.249 1.111c1.42.429 2.731.921 4.022 1.46 2.565 1.08 4.847 2.43 6.655 3.778a32.608 32.608 0 0 1 4.043 3.588 35.038 35.038 0 0 1 1.366 1.492l.046.063a1.99 1.99 0 0 1-.26 2.81 2 2 0 0 1-2.782-.223s-.44-.508-1.259-1.317a29.05 29.05 0 0 0-3.603-3.048 28.675 28.675 0 0 0-5.862-3.127 40.903 40.903 0 0 0-3.598-1.222c-1.295-.365-2.58-.682-3.847-.873-1.278-.238-2.575-.333-3.848-.396-1.276-.032-2.532 0-3.74.11-1.21.096-2.368.302-3.458.524-1.086.223-2.1.492-3.019.794-.92.302-1.744.603-2.466.905a31.8 31.8 0 0 0-1.794.841c-.452.222-.913.492-1.187.635a8.307 8.307 0 0 1-.438.254 2.673 2.673 0 0 1-3.634-1.016 2.67 2.67 0 0 1 1.02-3.635c.023-.016.058-.032.082-.047m34.989 28.724c2.363 1.913 2.59 5.552.508 8.108-2.083 2.556-5.685 3.074-8.048 1.16-2.362-1.929-2.59-5.551-.507-8.123 2.081-2.556 5.685-3.074 8.047-1.145" fill-rule="nonzero" fill="#231F20"/>
        <path d="M45.621 63.05c-.313 0-.631-.015-.935 0-.85.048-1.7.127-2.543.237-.845.094-1.686.236-2.511.41-.833.14-1.64.377-2.45.597-.787.268-1.592.504-2.338.835-.777.3-1.473.709-2.198 1.086-.66.441-1.383.866-1.9 1.339-.552.362-1.2 1.133-1.808 1.763.155-.173.039-.047.072-.079h-.005l-.01.016-.021.032-.043.063-.085.126-.168.236-.345.472c-.249.3-.419.662-.611 1.008-.417.677-.682 1.433-.997 2.173-.23.787-.505 1.559-.647 2.377-.197.803-.28 1.638-.393 2.472-.065.85-.134 1.685-.133 2.535-.014.85.01 1.7.071 2.567.054.85.14 1.7.262 2.55.111.835.267 1.733.442 2.488l-1.538-1.26c.774.016 1.675 0 2.517-.062a34.644 34.644 0 0 0 5.08-.725c.834-.173 1.645-.409 2.454-.645.79-.284 1.594-.535 2.339-.898.776-.299 1.47-.724 2.191-1.118.659-.456 1.375-.881 1.885-1.37.28-.251.56-.44.87-.802l.832-.914c.427-.66.932-1.243 1.258-1.984.402-.677.654-1.448.956-2.188.214-.787.475-1.543.603-2.362.183-.803.25-1.637.35-2.472.05-.834.105-1.669.088-2.52A28.702 28.702 0 0 0 46.1 66.5a32.18 32.18 0 0 0-.3-2.535c-.045-.315-.124-.614-.179-.913zm3.584-2.503c.225.976.381 1.89.512 2.834.134.945.23 1.874.29 2.819.067.944.095 1.905.081 2.85.002.944-.074 1.905-.146 2.865-.128.96-.225 1.905-.454 2.866-.168.96-.49 1.89-.773 2.834-.38.929-.713 1.858-1.237 2.724-.436.913-1.091 1.7-1.676 2.535l-1.004 1.07c-.268.316-.707.678-1.112 1.008-.815.74-1.648 1.228-2.48 1.78-.866.456-1.724.944-2.624 1.29-.887.394-1.805.678-2.715.977-.918.252-1.836.52-2.765.693-.926.189-1.856.346-2.79.456-.934.11-1.869.205-2.807.252-.95.047-1.849.063-2.87.032a1.646 1.646 0 0 1-1.537-1.26 30.854 30.854 0 0 1-.553-2.803 36.122 36.122 0 0 1-.328-2.802 31.93 31.93 0 0 1-.122-2.834c-.016-.945.044-1.89.104-2.835.111-.96.196-1.92.409-2.865.153-.945.46-1.89.729-2.834.364-.914.686-1.858 1.197-2.724.236-.457.451-.898.762-1.307l.436-.63.219-.315.11-.157.055-.08.028-.03.013-.016.008-.016.085-.095c.636-.677 1.115-1.306 2.01-2.03.81-.74 1.638-1.245 2.466-1.811.86-.473 1.716-.977 2.617-1.339.887-.41 1.803-.708 2.713-1.023.92-.268 1.84-.536 2.773-.724a34.125 34.125 0 0 1 2.8-.504 33.967 33.967 0 0 1 2.82-.3 29.189 29.189 0 0 1 2.904-.062c.904.015 1.65.645 1.847 1.495l.005.016z" fill-rule="nonzero" fill="#231F20"/>
    </g>
</svg>
