<svg width="168" height="168" xmlns="http://www.w3.org/2000/svg">
    <title>
        jan
    </title>
    <g fill="none" fill-rule="evenodd">
        <path d="M154.955 55.052c0 22.092-17.908 39.987-40 39.987H53.623c-22.092 0-40-17.895-40-39.987V43.717c0-22.091 17.908-40.003 40-40.003h61.332c22.092 0 40 17.912 40 40.003v11.335" fill-rule="nonzero" fill="#FFF"/>
        <path d="M151.987 55.034s-.008-1.545-.02-4.46a5728.77 5728.77 0 0 0-.027-5.344c-.003-.532-.008-1.063-.013-1.626l-.093-1.626-.093-1.723c-.023-.596-.173-1.191-.253-1.803l-.3-1.916c-.107-.644-.326-1.288-.487-1.964-.185-.66-.334-1.352-.554-2.044-.253-.677-.51-1.369-.774-2.061-.13-.354-.263-.725-.395-1.079-.167-.338-.336-.692-.509-1.046-.343-.709-.692-1.417-1.048-2.157-.425-.693-.856-1.401-1.296-2.11-.223-.354-.43-.74-.674-1.078-.26-.338-.52-.692-.783-1.03-2.025-2.834-4.672-5.49-7.817-7.792-3.14-2.286-6.783-4.267-10.864-5.538a164.148 164.148 0 0 0-3.13-.805c-1.054-.274-2.076-.339-3.128-.532l-.789-.128c-.285-.033-.6-.033-.901-.049l-1.837-.096-.926-.033-.462-.032c.292.016.013 0 .05 0h-.349c-.622.016-1.246.016-1.873.016-5.011 0-10.19.016-15.516.033-10.65.048-21.882 0-33.502-.049-2.904-.016-5.833-.016-8.784-.032-1.532-.032-2.78.097-4.179.145-.686 0-1.36.113-2.038.225l-2.037.29c-5.415.982-10.61 3.365-15.112 6.713-2.294 1.626-4.279 3.671-6.163 5.78-.862 1.11-1.753 2.222-2.537 3.413-.705 1.223-1.566 2.383-2.125 3.687l-.937 1.932c-.291.643-.502 1.32-.761 1.996-.227.66-.54 1.32-.705 2.012l-.538 2.077-.274 1.03-.158 1.015-.328 2.028c-.07.322-.101.692-.113 1.095l-.062 1.159-.126 2.318-.027 9.144c.003.773-.02 1.578.006 2.303l.103 2.14c-.005 1.45.306 2.85.491 4.267.93 5.635 3.352 10.964 6.715 15.503 3.371 4.54 7.72 8.34 12.68 10.851 1.257.58 2.464 1.272 3.785 1.69l1.936.725c.65.21 1.327.354 1.987.531.662.161 1.326.37 1.983.516l1.945.29c1.224.273 2.735.305 4.183.386l1.086.064h.137c-.018 0 .229.016-.006 0l.273.016h2.707c1.439 0 2.872.016 4.3.016 2.852.016 5.68.016 8.474.032l16.387.049c10.626-.049 20.78 0 29.96-.097 4.343-.032 8.45-.982 12.135-2.35 3.682-1.385 6.993-3.22 9.724-5.426.35-.273.697-.531 1.041-.789.317-.305.631-.595.945-.885.615-.58 1.26-1.11 1.827-1.706 1.073-1.24 2.217-2.335 3.06-3.607a229.9 229.9 0 0 0 1.323-1.803c.373-.612.739-1.223 1.096-1.819.771-1.16 1.264-2.399 1.82-3.526 2.066-4.604 2.692-8.58 3.03-11.076.134-1.352.137-2.527.187-3.268.033-.74.052-1.127.052-1.127l-.005.145zm5.945.145s-.022.386-.062 1.143c-.058.757-.065 1.82-.221 3.349-.428 3.252-1.225 7.775-3.654 13.088-.65 1.288-1.25 2.705-2.143 4.057-.42.676-.85 1.368-1.291 2.093-.487.676-1.013 1.352-1.538 2.06-.998 1.45-2.31 2.721-3.569 4.122-.66.676-1.4 1.288-2.12 1.948-.362.338-.73.66-1.1.998-.397.29-.797.596-1.202.902-3.169 2.495-6.992 4.588-11.234 6.15-4.238 1.561-8.966 2.608-13.932 2.624-9.407.08-19.397-.016-30.074-.016l-16.387.048c-2.795.016-5.622.016-8.474.032-1.428 0-2.861.016-4.3.016h-2.166l-.54.016h-.274l-.412-.016-1.086-.064c-1.453-.065-2.862-.08-4.523-.37l-2.406-.37c-.784-.146-1.53-.371-2.302-.548-.763-.21-1.54-.37-2.292-.612l-2.24-.821c-1.521-.483-2.925-1.256-4.377-1.916-5.736-2.865-10.786-7.196-14.718-12.412-3.925-5.216-6.763-11.382-7.9-17.918-.238-1.643-.586-3.285-.606-4.943l-.13-2.48c-.031-.82-.015-1.56-.023-2.35l-.028-9.45.11-2.318.054-1.16c.008-.37.04-.772.115-1.207l.373-2.575.198-1.272.305-1.208.615-2.43c.194-.806.539-1.578.804-2.367.293-.773.545-1.562.878-2.335l1.075-2.253c.656-1.53 1.628-2.882 2.457-4.331.905-1.385 1.93-2.689 2.936-3.993 2.174-2.495 4.492-4.878 7.155-6.81 5.239-3.96 11.33-6.777 17.685-7.985l2.389-.37c.793-.129 1.587-.258 2.39-.274 1.57-.064 3.275-.225 4.693-.193 2.951 0 5.88-.016 8.784-.016C75.244.394 86.475.345 97.126.394c5.326.016 10.505.016 15.516.032h1.873l.63.016.463.016.924.048 1.835.097.92.064 1.009.145c1.328.21 2.703.355 3.952.66 1.242.322 2.475.628 3.684.966a42.839 42.839 0 0 1 12.742 6.601c3.666 2.72 6.726 5.876 9.072 9.193.301.418.602.82.9 1.223.28.419.522.853.78 1.272a313.19 313.19 0 0 1 1.488 2.495c.41.854.813 1.69 1.208 2.528.193.418.386.82.576 1.223.153.435.306.854.456 1.256.3.837.59 1.642.877 2.431.251.821.425 1.626.631 2.399.184.789.42 1.545.543 2.302l.331 2.222c.09.724.247 1.416.27 2.109.033.692.064 1.368.096 2.012l.084 1.884-.004 1.642-.025 5.345-.021 4.459-.004.145z" fill-rule="nonzero" fill="#231F20"/>
        <path d="M92.521 29.826c2.328 3.954 3.711 8.87 3.711 14.217 0 24.561-26.775 23.552-26.775 23.552-5.432 0-9.834-4.403-9.834-9.83v-18.38c0-13.626 11.043-24.674 24.667-24.674 13.624 0 24.668 11.048 24.668 24.673v13.657c0 4.996 3.333 10.776 15.636 14.442 22.363 6.453 39.696 26.626 39.696 51.315v4.916c0 22.095-20.577 39.995-42.669 39.995H46.959c-22.092 0-42.668-17.9-42.668-39.995v-4.916c0-29.268 24.334-49.746 56-56.086" fill-rule="nonzero" fill="#FFF"/>
        <path d="M93.698 29.17s.28.497.82 1.426c.527 1.042 1.314 2.597 1.96 4.697a30.953 30.953 0 0 1 1.418 7.982l.03.609c.015.32-.001.433-.001.657l-.018 1.202c.013.785-.128 1.78-.197 2.693-.267 1.859-.634 3.814-1.407 5.818a22.058 22.058 0 0 1-3.352 5.882 22.264 22.264 0 0 1-5.56 4.889c-4.367 2.757-9.702 4.327-15.454 4.792-.728.064-1.452.096-2.228.096-.465.016-.793-.016-1.14-.032a3.42 3.42 0 0 1-.625-.064l-.708-.096a11.707 11.707 0 0 1-4.873-2.051 12.268 12.268 0 0 1-3.617-4.04 12.251 12.251 0 0 1-1.473-5.369l.034-19.41c.046-7.309 3.378-15.002 9.466-20.147 3.003-2.597 6.669-4.52 10.64-5.594a27.417 27.417 0 0 1 12.402-.369c8.336 1.619 15.99 7.565 19.54 15.804a27.495 27.495 0 0 1 1.905 6.46c.401 2.211.37 4.583.388 6.539.02 2.067.037 4.135.056 6.219l.03 3.125.014 1.57.003.385c-.002.017.003.257-.002.08l.011.193.044.77a8.71 8.71 0 0 0 .572 2.115c.285.721.742 1.378 1.225 2.036 1.046 1.282 2.463 2.42 4.077 3.366a29.016 29.016 0 0 0 5.304 2.388c.965.352 1.857.593 2.94.945l1.544.465 1.643.561a59.396 59.396 0 0 1 23.009 14.858c6.457 6.716 11.292 15.147 13.699 24.33 1.21 4.585 1.802 9.361 1.811 14.074l.005 3.35v.849l-.011.93-.047 1.683a40.14 40.14 0 0 1-1.114 7.324c-1.157 4.76-3.273 9.233-5.957 13.24a46.923 46.923 0 0 1-9.842 10.482c-7.528 5.914-16.807 9.52-26.323 10.13-2.455.128-4.606.08-6.796.096h-6.56c-4.364.016-8.705.016-13.021.016H72.418c-8.388 0-16.634-.016-24.706-.016-1.19 0-2.037-.032-3.127-.08-1.127-.08-2.258-.16-3.308-.305a43.312 43.312 0 0 1-6.29-1.266c-4.106-1.106-7.983-2.773-11.554-4.84-7.147-4.152-13.02-10.018-16.961-16.814a40.566 40.566 0 0 1-4.358-10.707 37.454 37.454 0 0 1-.959-5.593c-.203-1.828-.195-3.8-.195-5.402-.018-3.302.012-6.78.49-10.258a52.299 52.299 0 0 1 2.263-9.761c2.102-6.203 5.3-11.588 8.886-16.108a63 63 0 0 1 5.67-6.123c1.974-1.811 3.947-3.462 5.936-4.92 3.966-2.95 7.896-5.194 11.528-7.005 7.299-3.574 13.428-5.321 17.592-6.411 2.093-.53 3.703-.898 4.796-1.09 1.088-.225 1.65-.337 1.65-.337 1.445-.304 2.852.641 3.144 2.084a2.669 2.669 0 0 1-2.013 3.125l-.084.016s-.53.129-1.558.353c-1.03.224-2.547.61-4.512 1.154-3.907 1.122-9.63 2.95-16.337 6.411-6.65 3.446-14.441 8.607-20.814 16.702-3.151 4.055-5.908 8.799-7.695 14.217a45.608 45.608 0 0 0-1.903 8.543c-.385 2.9-.39 6.01-.368 9.408.006 1.747.001 3.19.173 4.744a30.73 30.73 0 0 0 .804 4.633 33.906 33.906 0 0 0 3.667 8.96c3.333 5.721 8.382 10.77 14.552 14.328 6.176 3.575 13.355 5.642 20.885 5.53 8.072-.016 16.318-.016 24.706-.032h25.544c4.316.016 8.657.016 13.021.016 2.182 0 4.368 0 6.56.016 2.195-.016 4.44.032 6.383-.08 8.067-.48 16.095-3.558 22.582-8.655 6.5-5.05 11.495-12.118 13.459-20.02.492-1.955.803-4.038.93-5.914l.052-1.667.01-.32v-1.267l.005-3.35c.016-4.215-.476-8.366-1.513-12.421-2.054-8.078-6.296-15.547-11.965-21.606-5.655-6.059-12.772-10.723-20.398-13.544l-1.405-.497-1.54-.497c-.967-.304-2.136-.673-3.184-1.073a34.647 34.647 0 0 1-6.299-2.998c-2.023-1.25-3.975-2.805-5.567-4.84-.76-1.042-1.468-2.164-1.95-3.398-.484-1.282-.81-2.485-.93-3.991l-.03-.802-.008-.513.003-.384.014-1.57.03-3.126c.017-2.084.036-4.152.054-6.22.025-2.147.059-3.894-.247-5.705a22.37 22.37 0 0 0-1.49-5.21c-2.806-6.667-8.983-11.572-15.742-12.95-3.337-.705-6.908-.625-10.133.208-3.246.85-6.265 2.404-8.751 4.52-5.044 4.2-7.843 10.45-7.937 16.557l.05 19.09c.076 2.34 1.323 4.471 3.1 5.754a7.228 7.228 0 0 0 2.93 1.298l.334.048c.1.032.218.048.417.064l.944.048c.609.016 1.258 0 1.891-.032 5.107-.272 9.867-1.57 13.56-3.766 3.722-2.18 6.23-5.322 7.608-8.607.71-1.635 1.087-3.318 1.385-4.905.079-.802.24-1.49.26-2.34.02-.4.043-.802.064-1.202.005-.16.03-.45.02-.513l-.007-.545a27.942 27.942 0 0 0-.917-7.229c-.236-.962-.547-1.779-.792-2.5-.277-.69-.514-1.25-.72-1.715l-.748-1.459a1.332 1.332 0 0 1 .58-1.795 1.324 1.324 0 0 1 1.763.513" fill-rule="nonzero" fill="#231F20"/>
        <path d="M81.016 42.32a4.498 4.498 0 0 1-4.5 4.492 4.5 4.5 0 1 1 4.5-4.491" fill-rule="nonzero" fill="#231F20"/>
        <path d="M55.849 128.835l42.193-37.579m-27.495 50.669l42.193-37.586m-14.695 37.586L55.85 104.34m56.888 24.495L70.545 91.256" stroke="#231F20" stroke-width="4" stroke-linecap="round" stroke-linejoin="round"/>
    </g>
</svg>
