<svg width="168" height="168" xmlns="http://www.w3.org/2000/svg">
    <title>
        jelo
    </title>
    <g fill="none" fill-rule="evenodd">
        <path d="M157.352 75.773c0 40.224-32.614 72.84-72.841 72.84-40.23 0-72.84-32.616-72.84-72.84 0-40.225 32.61-72.841 72.84-72.841 40.227 0 72.84 32.616 72.84 72.84" fill="#FFF" fill-rule="nonzero"/>
        <path d="M107.174 96.65c0-15.602 12.653-28.257 28.253-28.257 15.613 0 28.254 12.655 28.254 28.258l-.053 27.05c0 22.096-17.907 40.004-40.001 40.004H43.626c-22.093 0-40-17.908-40-40.003V96.65c0-15.603 12.65-28.258 28.254-28.258 15.605 0 28.254 12.655 28.254 28.258 0-13 10.533-23.523 23.52-23.523 12.986 0 23.52 10.523 23.52 23.523" fill="#FFF" fill-rule="nonzero"/>
        <path d="M107.174 96.65c0-15.602 12.653-28.257 28.253-28.257 15.613 0 28.254 12.655 28.254 28.258l-.053 27.05c0 22.096-17.907 40.004-40.001 40.004H43.626c-22.093 0-40-17.908-40-40.003V96.65c0-15.603 12.65-28.258 28.254-28.258 15.605 0 28.254 12.655 28.254 28.258 0-13 10.533-23.523 23.52-23.523 12.986 0 23.52 10.523 23.52 23.523z" stroke="#231F20" stroke-width="6.667" stroke-linecap="round" stroke-linejoin="round"/>
        <path d="M10.325 76.694c0-40.491 32.833-73.328 73.332-73.328 40.507 0 73.334 32.837 73.334 73.328" stroke="#231F20" stroke-width="6.667" stroke-linecap="round" stroke-linejoin="round"/>
        <path d="M14.158 62.333h139.007m-131.346-19H145.49m-106.139-20h88.61" stroke="#231F20" stroke-width="5.333" stroke-linecap="round" stroke-linejoin="round"/>
    </g>
</svg>
