<svg width="168" height="168" xmlns="http://www.w3.org/2000/svg">
    <title>
        jo
    </title>
    <g fill="none" fill-rule="evenodd">
        <path d="M164.016 97.707c0 39.026-35.807 65.988-79.997 65.988-44.175 0-80-26.962-80-65.988 0-39.041-.335-70.673 80-70.673 79.997 0 79.997 31.632 79.997 70.673" fill-rule="nonzero" fill="#FFF"/>
        <path d="M164.016 97.707c0 39.026-35.807 65.988-79.997 65.988-44.175 0-80-26.962-80-65.988 0-39.041-.335-70.673 80-70.673 79.997 0 79.997 31.632 79.997 70.673z" stroke="#231F20" stroke-width="6.667"/>
        <path d="M45.344 136.38h64.67c7.001 0 12.667-5.243 12.667-11.726 0-6.467-5.666-11.725-12.666-11.725H61.677c-6.986 0-12.666-5.242-12.666-11.725 0-6.466 5.68-11.709 12.666-11.709h48.338c7 0 12.666-5.258 12.666-11.725 0-6.482-5.666-11.725-12.666-11.725H45.344" stroke="#231F20" stroke-width="5.333" stroke-linecap="round" stroke-linejoin="round"/>
        <path d="M53.858 45.369V15.7c0-6.818 5.52-12.334 12.334-12.334 6.813 0 12.333 5.516 12.333 12.334v29.67" fill-rule="nonzero" fill="#FFF"/>
        <path d="M51.187 45.381s-.053-1.545-.132-4.218c-.055-2.689-.188-6.52-.242-11.11-.038-2.302-.078-4.798-.119-7.422-.013-1.32-.04-2.673-.053-4.058-.014-.692-.014-1.384-.027-2.093v-.966l.013-.257c.027-.37.027-.677.067-1.111l.213-1.498c.093-.467.214-.901.333-1.352.267-.886.588-1.755 1.014-2.592a15.931 15.931 0 0 1 3.386-4.509 16.035 16.035 0 0 1 4.853-3.059c.908-.354 1.84-.612 2.8-.805.482-.08.961-.161 1.441-.21l.72-.048.36-.016.187-.016h.347l1.146.065c.454.032 1.053.128 1.56.209 1 .21 1.907.467 2.813.821a15.928 15.928 0 0 1 4.867 3.06c2.813 2.592 4.56 6.182 4.934 9.789.146 1.98.066 3.155.066 4.588-.026 1.385-.04 2.738-.066 4.058-.04 2.624-.08 5.12-.108 7.422-.066 4.59-.2 8.421-.253 11.11-.08 2.673-.12 4.218-.12 4.218a2.67 2.67 0 1 1-5.334 0s-.053-1.545-.131-4.218c-.055-2.689-.189-6.52-.24-11.11-.04-2.302-.08-4.798-.121-7.422-.013-1.32-.04-2.673-.053-4.058-.04-1.32 0-2.978-.094-3.88-.24-2.093-1.28-4.154-2.933-5.651a9.033 9.033 0 0 0-2.813-1.74 10.074 10.074 0 0 0-1.588-.434c-.24-.032-.399-.08-.72-.113l-1.146-.048h.147-.081l-.106.016h-.214l-.412.016c-.28.032-.56.08-.84.113a11.04 11.04 0 0 0-1.601.45c-1.04.403-2 .999-2.826 1.74a9.228 9.228 0 0 0-1.987 2.608c-.267.467-.454.982-.613 1.481l-.2.773a8.553 8.553 0 0 1-.108.644c-.038.274-.053.693-.079 1.03l-.013.274c0 .145.013-.177.013-.128v.096l-.013.129v.531c0 .709-.014 1.401-.014 2.093-.026 1.385-.04 2.738-.066 4.058-.04 2.624-.08 5.12-.108 7.422-.066 4.59-.2 8.421-.253 11.11-.08 2.673-.119 4.218-.119 4.218a2.67 2.67 0 1 1-5.334 0" fill-rule="nonzero" fill="#231F20"/>
        <path d="M89.524 45.369V15.7c0-6.818 5.52-12.334 12.334-12.334s12.334 5.516 12.334 12.334v29.67" fill-rule="nonzero" fill="#FFF"/>
        <path d="M86.854 45.381s-.053-1.545-.132-4.218c-.055-2.689-.189-6.52-.242-11.11-.038-2.302-.079-4.798-.119-7.422-.013-1.32-.04-2.673-.053-4.058-.015-.692-.015-1.384-.027-2.093v-.966l.012-.257c.028-.37.028-.677.068-1.111l.213-1.498c.093-.467.214-.901.333-1.352.267-.886.588-1.755 1.014-2.592a15.931 15.931 0 0 1 3.386-4.509 16.035 16.035 0 0 1 4.853-3.059c.907-.354 1.84-.612 2.8-.805.481-.08.96-.161 1.441-.21l.72-.048.373-.016.173-.016h.36l1.147.065c.44.032 1.04.128 1.547.209 1.013.21 1.906.467 2.827.821a16.054 16.054 0 0 1 4.853 3.06c2.82 2.592 4.558 6.182 4.929 9.789.144 1.98.064 3.155.064 4.588a320.555 320.555 0 0 1-.064 4.058c-.033 2.624-.065 5.12-.097 7.422-.064 4.59-.193 8.421-.242 11.11-.096 2.673-.144 4.218-.144 4.218a2.66 2.66 0 0 1-2.738 2.577c-1.415-.049-2.548-1.192-2.589-2.577 0 0-.053-1.545-.132-4.218-.054-2.689-.188-6.52-.241-11.11-.039-2.302-.08-4.798-.12-7.422-.012-1.32-.04-2.673-.052-4.058-.04-1.32.012-2.978-.094-3.88-.24-2.093-1.28-4.154-2.933-5.651a9.033 9.033 0 0 0-2.813-1.74 10.074 10.074 0 0 0-1.588-.434c-.24-.032-.4-.08-.72-.113l-1.146-.048h.147-.081l-.106.016h-.214l-.412.016c-.28.032-.56.08-.841.113-.547.113-1.08.258-1.6.45-1.04.403-2 .999-2.826 1.74a9.198 9.198 0 0 0-1.987 2.608c-.254.467-.44.982-.613 1.481l-.2.773c-.027.226-.068.435-.108.644-.039.274-.053.693-.066 1.03l-.026.274c0 .145.013-.177.013-.128v.225l-.013.531c0 .709-.014 1.401-.014 2.093-.026 1.385-.04 2.738-.066 4.058-.04 2.624-.068 5.12-.108 7.422-.066 4.59-.185 8.421-.238 11.11-.095 2.673-.134 4.218-.134 4.218a2.672 2.672 0 0 1-2.747 2.577c-1.414-.049-2.547-1.192-2.587-2.577" fill-rule="nonzero" fill="#231F20"/>
    </g>
</svg>
