<svg width="167" height="167" xmlns="http://www.w3.org/2000/svg">
    <title>
        kala
    </title>
    <g fill="none" fill-rule="evenodd">
        <path d="M163.35 83.367v39.992c0 22.095-17.898 40.009-39.992 40.009H43.357c-22.095 0-40.008-17.914-40.008-40.009V83.367c0-44.19 35.827-80 80-80 44.19 0 80 35.81 80 80" fill-rule="nonzero" fill="#FFF"/>
        <path d="M163.35 83.367v39.992c0 22.095-17.898 40.009-39.992 40.009H43.357c-22.095 0-40.008-17.914-40.008-40.009V83.367c0-44.19 35.827-80 80-80 44.19 0 80 35.81 80 80z" stroke="#231F20" stroke-width="6.667"/>
        <path d="M6.777 144.654s.156-.529.451-1.508c.311-.948.762-2.332 1.384-4.072a113.096 113.096 0 0 1 6.201-14.005c2.985-5.58 6.995-11.922 12.466-17.844 2.751-2.953 5.86-5.782 9.357-8.237 3.528-2.472 7.352-4.539 11.642-5.969l1.476-.482c.482-.155.98-.31 1.57-.435 1.104-.28 2.223-.56 3.327-.7a22.656 22.656 0 0 1 6.885-.14c2.332.265 4.694 1.089 6.668 2.41 2.02 1.29 3.653 3 4.912 4.803 2.502 3.668 3.668 7.585 4.507 11.206.778 3.637 1.12 7.072 1.337 10.243.404 6.31.264 11.502.187 15.124-.078 3.606-.14 5.658-.14 5.658v.015a1.997 1.997 0 0 1-2.036 1.959 2.026 2.026 0 0 1-1.959-1.974s-.046-2.052-.093-5.674c-.093-3.59-.156-8.72-.7-14.735-.28-3-.73-6.232-1.492-9.512-.777-3.249-1.912-6.606-3.854-9.31-1.943-2.705-4.663-4.555-8.067-4.928a17.56 17.56 0 0 0-5.316.156c-.933.109-1.819.357-2.69.56-.434.093-.916.248-1.414.403l-1.46.482c-3.544 1.197-7.057 3.062-10.166 5.27-3.14 2.222-5.953 4.787-8.47 7.522-5.006 5.456-8.767 11.425-11.596 16.74-2.876 5.3-4.787 9.964-6.03 13.259a86.352 86.352 0 0 0-1.338 3.823c-.264.87-.404 1.337-.404 1.337l-.046.109c-.42 1.399-1.912 2.191-3.327 1.756a2.682 2.682 0 0 1-1.772-3.31" fill-rule="nonzero" fill="#231F20"/>
        <path d="M60.82 136.279c-.888 3.14-4.15 4.977-7.29 4.104-3.14-.873-4.978-4.135-4.12-7.29a5.943 5.943 0 0 1 7.305-4.104c3.14.873 4.963 4.135 4.105 7.29" fill-rule="nonzero" fill="#231F20"/>
        <path d="M74.35 140.15c-.23-.491-.445-.998-.691-1.475a51.851 51.851 0 0 0-1.583-2.86 39.096 39.096 0 0 0-1.783-2.704c-.615-.892-1.292-1.722-1.983-2.552-.707-.784-1.415-1.599-2.214-2.29-.738-.77-1.583-1.369-2.398-2.03-.86-.538-1.737-1.168-2.582-1.537-.754-.46-1.952-.799-2.998-1.183.246.077.062.015.123.03h-.045l-.047-.015-.092-.015-.185-.031-.369-.077-.737-.154c-.492-.138-1-.153-1.507-.2-1.014-.122-2.044-.046-3.074-.015-1.045.138-2.075.215-3.105.477-1.046.184-2.06.522-3.09.814-1 .37-2.014.723-2.997 1.153-1 .43-1.968.892-2.936 1.414a39.14 39.14 0 0 0-2.813 1.614c-.923.57-1.876 1.2-2.66 1.799l.646-2.29c.369.906.845 1.936 1.322 2.89.492.983 1.03 1.936 1.599 2.859a31.844 31.844 0 0 0 1.783 2.72c.615.892 1.29 1.707 1.967 2.537.723.784 1.414 1.598 2.214 2.305.753.754 1.583 1.353 2.398 2.014.876.538 1.752 1.168 2.597 1.537.416.215.8.446 1.384.615l1.491.538c.984.17 1.952.477 2.967.492 1.014.138 2.06.046 3.09.03 1.03-.138 2.075-.215 3.104-.476 1.03-.2 2.045-.522 3.075-.83.999-.353 2.013-.707 3.013-1.153.983-.43 1.967-.891 2.92-1.399a39.647 39.647 0 0 0 2.829-1.629c.46-.277.907-.615 1.368-.922zm3.72 2.306a40.334 40.334 0 0 1-2.966 2.014c-1 .63-2.03 1.215-3.074 1.768a44.12 44.12 0 0 1-3.213 1.537c-1.092.477-2.214.876-3.336 1.276-1.168.338-2.305.722-3.504.938-1.184.292-2.414.4-3.628.553-1.23.03-2.475.123-3.72-.03-1.26-.032-2.49-.385-3.72-.631l-1.737-.6c-.507-.138-1.122-.46-1.722-.753-1.23-.553-2.213-1.26-3.274-1.937-.953-.753-1.937-1.49-2.797-2.336-.923-.815-1.707-1.722-2.521-2.613-.754-.923-1.522-1.86-2.199-2.829a41.152 41.152 0 0 1-1.936-2.982A40.805 40.805 0 0 1 33 132.726a35.73 35.73 0 0 1-1.506-3.274 1.968 1.968 0 0 1 .63-2.306 41.227 41.227 0 0 1 2.997-2.029c1-.63 2.014-1.214 3.075-1.752a36.17 36.17 0 0 1 3.212-1.537c1.076-.492 2.214-.892 3.336-1.291 1.153-.339 2.306-.708 3.505-.938 1.168-.292 2.398-.4 3.627-.553 1.23-.031 2.46-.123 3.72.03.63.062 1.245.077 1.86.23l.938.2.461.093.23.061.108.016.062.015h.03l.016.016.138.03c1.092.415 2.09.661 3.336 1.322 1.23.554 2.213 1.26 3.259 1.937.968.753 1.952 1.491 2.813 2.352.907.8 1.69 1.722 2.505 2.598.769.937 1.522 1.86 2.198 2.843a37.95 37.95 0 0 1 1.953 2.967 46.923 46.923 0 0 1 1.721 3.105c.538 1.06 1.03 2.09 1.507 3.29.338.83.046 1.767-.646 2.29l-.015.015zM123.567 122l1.581.814c.492.261 1.106.584 1.797.937.338.184.722.384 1.106.583.383.215.798.492 1.243.753.845.553 1.782 1.136 2.749 1.766 1.029.598 1.92 1.397 2.933 2.15.983.767 2.042 1.504 2.994 2.426.968.89 1.966 1.796 2.949 2.687.906.983 1.812 1.965 2.702 2.933.937.937 1.69 1.996 2.473 2.979.737 1.013 1.566 1.92 2.165 2.902.63.967 1.213 1.889 1.766 2.733.276.43.537.814.783 1.213.215.415.414.799.614 1.152.368.722.706 1.351.983 1.874.553 1.044.875 1.643.875 1.643.691 1.29.184 2.902-1.106 3.593-1.305.69-2.933.2-3.608-1.106a.116.116 0 0 1-.03-.061l-.108-.215s-.277-.553-.753-1.52c-.23-.476-.522-1.06-.86-1.736a32.04 32.04 0 0 0-.507-1.074c-.2-.369-.445-.738-.69-1.137-.477-.798-.983-1.658-1.536-2.564-.507-.922-1.244-1.781-1.904-2.734-.691-.936-1.352-1.934-2.18-2.825l-2.412-2.78c-.89-.875-1.796-1.735-2.656-2.58-.845-.89-1.812-1.596-2.703-2.349-.906-.706-1.735-1.504-2.626-2.057-.86-.6-1.689-1.152-2.426-1.674-.399-.246-.721-.507-1.105-.737-.384-.215-.737-.415-1.09-.614-.676-.369-1.275-.707-1.767-.983-.998-.553-1.55-.875-1.55-.875a1.992 1.992 0 0 1-.768-2.718 2.022 2.022 0 0 1 2.672-.799" fill-rule="nonzero" fill="#231F20"/>
        <path d="M2.817 66.47s.665-.553 1.932-1.599c.633-.522 1.41-1.171 2.328-1.931.934-.76 2.185-1.552 3.483-2.487.666-.459 1.362-.95 2.09-1.456.76-.46 1.553-.903 2.376-1.394 1.663-.934 3.389-2.058 5.4-2.945 1.995-.919 4.038-2.059 6.35-2.898 2.296-.887 4.655-1.932 7.252-2.676 1.282-.412 2.597-.823 3.927-1.251 1.33-.396 2.724-.68 4.133-1.045 1.41-.333 2.834-.728 4.307-1.014 1.457-.253 2.977-.522 4.481-.775 6.05-1.077 12.557-1.6 19.271-1.552 6.73.047 13.682.744 20.617 2.264 6.92 1.552 13.856 3.911 20.253 7.49 6.366 3.563 12.272 8.424 16.263 14.758 1.995 3.151 3.5 6.65 4.26 10.277.158.934.364 1.758.459 2.771.079.84.174 1.631.19 2.645.079 1.916-.095 3.658-.317 5.447-1.077 7.11-4.402 13.285-8.298 18.242-3.927 4.972-8.455 8.883-12.842 12.034-8.883 6.303-17.307 9.675-23.214 11.686a110.715 110.715 0 0 1-6.951 2.106c-1.631.412-2.502.634-2.502.634l-1.109-4.529s.824-.222 2.376-.65a97.027 97.027 0 0 0 6.603-2.09 93.671 93.671 0 0 0 9.928-4.164c3.721-1.805 7.807-4.117 11.908-7.078 4.101-2.977 8.234-6.62 11.734-11.116 3.483-4.482 6.286-9.897 7.141-15.835.175-1.457.301-3.025.222-4.434.016-.665-.08-1.52-.174-2.36-.063-.649-.253-1.456-.364-2.185-.634-2.992-1.869-5.874-3.547-8.55-3.373-5.353-8.567-9.723-14.378-12.953-5.828-3.262-12.273-5.48-18.78-6.936-6.525-1.425-13.128-2.09-19.525-2.138-6.382-.047-12.573.443-18.369 1.473-1.44.253-2.866.506-4.275.744-1.394.27-2.755.65-4.086.966-1.346.348-2.676.617-3.958.998-1.267.411-2.502.807-3.721 1.187-2.455.697-4.703 1.694-6.873 2.534-2.2.791-4.117 1.868-6.001 2.74-1.885.838-3.5 1.9-5.067 2.77-.776.46-1.52.871-2.217 1.299-.65.459-1.283.887-1.869 1.298-1.187.84-2.264 1.52-3.183 2.233-.902.76-1.694 1.41-2.312 1.932-1.25 1.06-1.931 1.615-1.931 1.615l-3.42-4.101" fill-rule="nonzero" fill="#231F20"/>
        <path d="M2.817 81.2l1.947-1.304c.628-.424 1.367-.927 2.23-1.508.801-.613 1.964-1.178 3.126-1.838 1.194-.644 2.434-1.398 3.817-2.073a480.774 480.774 0 0 1 4.319-1.963c1.476-.738 3.11-1.225 4.712-1.838 1.617-.597 3.25-1.225 4.947-1.665 1.68-.471 3.345-.942 5.01-1.413 1.68-.362 3.33-.707 4.932-1.053.801-.157 1.57-.33 2.34-.487.786-.11 1.54-.204 2.278-.314 1.492-.204 2.89-.408 4.177-.58 1.288-.22 2.482-.22 3.534-.33 1.053-.063 1.98-.142 2.733-.19l2.388-.172a2.002 2.002 0 0 1 2.136 1.853 1.98 1.98 0 0 1-1.807 2.12l-.125.017s-.848.094-2.293.235c-.739.063-1.618.141-2.639.251-1.005.126-2.167.142-3.408.393-1.225.204-2.576.424-3.99.66-.706.11-1.429.235-2.183.345-.722.173-1.476.361-2.23.534-1.524.362-3.094.738-4.696 1.115-1.57.487-3.157.974-4.743 1.477-1.618.44-3.142 1.083-4.68 1.68-1.493.629-3.032 1.115-4.414 1.854-1.398.675-2.733 1.319-4.021 1.947-1.257.644-2.34 1.35-3.393 1.948-1.052.644-2.01 1.115-2.858 1.759-.848.612-1.57 1.13-2.183 1.57l-1.916 1.351c-1.194.864-2.859.581-3.723-.612a2.663 2.663 0 0 1 .613-3.723c.016-.015.047-.031.063-.047m-.034 16.033s.436-.296 1.169-.81c.374-.25.826-.562 1.356-.92.499-.359 1.154-.749 1.855-1.185.702-.421 1.466-.889 2.26-1.372.811-.437 1.669-.889 2.557-1.372.873-.483 1.809-.92 2.76-1.372.966-.42 1.902-.92 2.9-1.31.982-.405 1.98-.81 2.93-1.2.982-.374 1.965-.701 2.9-1.044 1.855-.702 3.648-1.17 5.176-1.653.748-.25 1.465-.39 2.089-.56a97.523 97.523 0 0 0 1.605-.422c.905-.218 1.403-.343 1.403-.343a2.001 2.001 0 0 1 2.448 1.434c.265 1.045-.359 2.105-1.372 2.417l-.093.015s-.484.156-1.341.406c-.405.124-.935.28-1.528.452-.592.187-1.278.358-1.98.623-1.418.53-3.133 1.03-4.88 1.778-.872.358-1.776.701-2.712 1.106l-2.728 1.248c-.92.39-1.793.904-2.681 1.356-.873.452-1.746.889-2.542 1.387-.81.468-1.59.936-2.338 1.372l-1.964 1.31c-.624.405-1.185.748-1.684 1.153-.514.39-.95.718-1.31.983l-1.153.857a2.66 2.66 0 0 1-3.726-.53 2.694 2.694 0 0 1 .53-3.742.485.485 0 0 0 .094-.062" fill-rule="nonzero" fill="#231F20"/>
    </g>
</svg>
