<svg width="168" height="87" xmlns="http://www.w3.org/2000/svg">
    <title>
        kalama
    </title>
    <g fill="none" fill-rule="evenodd">
        <path d="M49.923 63.978c0 9.327-7.585 16.896-16.912 16.896-14.553 0-29.327-22.691-29.327-37.497 0-22.09 17.894-40 40-40h79.998c22.09 0 40 17.91 40 40 0 15.28-15.012 37.497-29.343 37.497-9.327 0-16.896-7.569-16.896-16.896 0 9.327-7.506 19.398-16.848 19.398-9.327 0-16.896-7.569-16.896-16.896 0 9.327-7.554 16.896-16.88 16.896-9.343 0-16.896-10.07-16.896-19.398" fill-rule="nonzero" fill="#FFF"/>
        <path d="M52.592 63.96l.158 1.46.286 1.426.412 1.427c.143.46.349.92.523 1.38.38.903.793 1.791 1.3 2.632a17.306 17.306 0 0 0 1.697 2.41c.285.38.618.729.967 1.078.317.349.666.666 1.03.983.35.333.714.618 1.095.888l.555.412.586.349.587.364.618.27.619.285.618.19.634.207.508.095.523.127.872.047.856.048c.19.016-.27 0-.222 0h.032l.048-.016h.253l.35-.016c.459 0 .919-.047 1.379-.127l.681-.095.666-.158a7.839 7.839 0 0 0 1.316-.397c.444-.142.856-.333 1.269-.523.428-.174.808-.428 1.205-.666.808-.46 1.522-1.046 2.235-1.649.698-.602 1.316-1.3 1.887-2.045.301-.365.508-.777.793-1.158.238-.396.428-.824.65-1.236l.57-1.3.429-1.348.301-1.396.175-1.442.031-.35a2.669 2.669 0 0 1 2.965-2.314 2.657 2.657 0 0 1 2.331 2.664l.175 1.442.285 1.396.428 1.347.57 1.3c.239.413.429.84.667 1.237.27.38.491.793.777 1.158.57.745 1.205 1.443 1.902 2.045a15.202 15.202 0 0 0 2.22 1.65c.397.237.793.475 1.221.65a8.96 8.96 0 0 0 1.268.538 8.47 8.47 0 0 0 1.317.397l.665.158.587.08.603.11.856.032.856.032c-.333-.016-.095 0-.159 0h.016l.016-.016h.112l.158-.016.333-.016.634-.031.618-.127.635-.111.634-.206.618-.19.618-.286.603-.27.587-.348c.396-.222.777-.476 1.157-.761.365-.27.745-.555 1.078-.904a9.988 9.988 0 0 0 1.03-.983c.334-.35.667-.682.968-1.078a16.668 16.668 0 0 0 1.68-2.395c.508-.84.92-1.744 1.3-2.647.175-.46.381-.92.524-1.38l.397-1.427.285-1.427.174-1.459.032-.317c.174-1.458 1.506-2.505 2.95-2.33a2.657 2.657 0 0 1 2.346 2.647v.016c.238 3.171 1.363 6.216 3.393 8.562 2.014 2.315 4.71 4.075 7.69 4.662 1.237.285 3.14.428 4.455.238 1.46-.175 2.934-.635 4.376-1.316 2.886-1.348 5.613-3.504 7.992-5.994 4.772-5.01 8.562-11.289 10.734-17.885a35.297 35.297 0 0 0 1.253-4.979l.174-1.252.11-1.142c.033-.412.033-.935.049-1.38v-.19.016-.079l-.016-.317-.032-.65-.127-2.585-.396-2.552c-.064-.428-.095-.857-.19-1.285l-.334-1.252c-.237-.825-.396-1.68-.665-2.49-1.079-3.282-2.648-6.374-4.52-9.275-1.997-2.822-4.296-5.407-6.928-7.642-2.712-2.157-5.613-4.044-8.784-5.423-.777-.38-1.617-.603-2.41-.92l-1.221-.444c-.397-.142-.825-.222-1.237-.333l-2.505-.634-2.442-.38c-.76-.175-1.728-.19-2.68-.238l-1.395-.08-.713-.031-.175-.016c-.19 0 .143.016.08.016H44.173c-.936-.016-1.745.08-2.617.11-.856.032-1.728.048-2.584.223l-2.553.38c-.84.19-1.665.428-2.505.634-.412.127-.84.207-1.237.333l-1.22.46c-.793.302-1.634.54-2.41.92-3.172 1.38-6.09 3.266-8.785 5.407-2.632 2.235-4.947 4.82-6.929 7.642-1.87 2.902-3.456 5.993-4.534 9.276-.286.808-.428 1.664-.666 2.489L7.8 35.833c-.08.412-.127.824-.19 1.22l-.397 2.458-.127 2.806c-.222 3.203.476 6.596 1.554 9.894 2.188 6.596 5.978 12.875 10.719 17.917 2.41 2.49 5.105 4.662 7.99 6.01.73.332 1.46.618 2.189.84.713.222 1.49.364 2.061.444l.254.047.333.016.713.032.175.016h.095-.08l.27-.016.587-.016a6.64 6.64 0 0 0 1.11-.111c.38-.048.76-.08 1.125-.19 2.981-.603 5.677-2.347 7.69-4.678 1.015-1.157 1.792-2.52 2.363-3.964.174-.364.27-.729.38-1.11a8.7 8.7 0 0 0 .302-1.078l.11-.523c.032-.158.08-.349.08-.602l.158-1.412 5.328.127zm-.016.143v1.411c.016.222-.016.492-.048.793l-.095.872c-.047.603-.174 1.142-.301 1.68-.11.54-.238 1.079-.412 1.602a18.489 18.489 0 0 1-3.044 5.867c-2.664 3.551-6.596 6.2-10.973 7.246a11.9 11.9 0 0 1-1.664.333 9.753 9.753 0 0 1-1.665.206l-.84.047-.429.032c-.095 0 .095.016-.253 0h-.08l-.19-.016-.698-.031-.364-.016-.444-.048a19.3 19.3 0 0 1-3.457-.698 22.388 22.388 0 0 1-3.076-1.173c-3.964-1.823-7.198-4.487-10.036-7.389-2.854-2.917-5.233-6.167-7.278-9.592-2.03-3.44-3.726-7.088-4.979-10.94C1.03 50.45.157 46.328.427 41.983l.143-2.822.444-3.123c.095-.524.158-1.063.253-1.57l.397-1.475c.27-.983.46-1.997.792-2.949C3.725 26.161 5.58 22.498 7.8 19.073c2.346-3.345 5.09-6.39 8.197-9.022C19.184 7.5 22.625 5.28 26.383 3.646c.92-.428 1.886-.73 2.854-1.094l1.427-.524c.491-.158.983-.253 1.474-.396.983-.254 1.982-.523 2.981-.745l3.013-.46c1.014-.19 2.013-.222 3.028-.27.999-.047 2.093-.126 3.013-.126h79.389l.523.015.713.032 1.411.08c.936.047 1.856.063 2.934.253l3.14.476c.998.238 1.997.507 2.98.745.491.143.983.254 1.475.412l1.427.523c.967.365 1.934.65 2.854 1.094 3.741 1.634 7.198 3.853 10.385 6.406 3.108 2.632 5.835 5.692 8.181 9.022 2.22 3.425 4.075 7.087 5.344 10.972.333.967.523 1.966.793 2.95l.396 1.474c.095.507.159 1.015.238 1.506l.444 3.028.174 3.06.016.762.032.38v.46c-.032.492-.016.904-.048 1.443l-.158 1.665-.19 1.538a43.28 43.28 0 0 1-1.46 5.977c-2.52 7.69-6.643 14.683-12.272 20.533-2.838 2.902-6.104 5.55-10.052 7.373-1.95.904-4.123 1.586-6.39 1.855-.587.095-1.173.08-1.744.111l-.222.016h-.365l-.348-.032-.714-.047c-.238-.016-.444-.016-.713-.048l-.92-.142c-.587-.096-1.221-.19-1.744-.35-4.376-1.046-8.309-3.694-10.972-7.23-2.727-3.52-4.06-8.022-3.917-12.367v-.016h5.328v1.982l-.19 1.95a45.512 45.512 0 0 1-.38 1.92c-.144.633-.35 1.252-.524 1.87a26.335 26.335 0 0 1-1.506 3.583c-.603 1.142-1.285 2.268-2.093 3.314-.35.54-.793 1.03-1.221 1.538-.428.508-.904.967-1.396 1.427-.475.46-.998.888-1.538 1.3a12.61 12.61 0 0 1-1.68 1.158l-.872.539-.936.444-.935.444-1 .349-.998.333-1.062.222-1.031.206-1.078.095-.54.032-.269.015-.127.016h-.317l-.856-.047-.84-.064-1.094-.142-1.094-.19L95.56 86a11.68 11.68 0 0 1-1.95-.635c-.65-.206-1.27-.507-1.872-.808-.634-.286-1.205-.65-1.775-1.015a18.129 18.129 0 0 1-3.187-2.521 21.33 21.33 0 0 1-2.57-3.14c-.38-.554-.697-1.157-1.03-1.728-.317-.602-.57-1.22-.856-1.839a38.062 38.062 0 0 1-.618-1.903l-.428-1.966-.222-1.982v-1.997h5.327v1.997l-.222 1.982-.428 1.966c-.206.635-.396 1.285-.634 1.903-.27.618-.523 1.237-.856 1.84-.333.57-.65 1.188-1.015 1.743a21.13 21.13 0 0 1-2.585 3.124 16.488 16.488 0 0 1-3.187 2.537c-.57.365-1.157.713-1.76.999a14.17 14.17 0 0 1-1.886.824c-.635.254-1.285.46-1.95.619l-.984.253-1.014.175c-.666.127-1.348.19-2.03.222l-.523.016-.254.015-.11.016h-.366l-.856-.063-.84-.064-1.158-.222-1.157-.237-.999-.333-.999-.35-.935-.443-.952-.46-.856-.523-.888-.555-.792-.603a13.847 13.847 0 0 1-1.538-1.3c-.492-.46-.984-.92-1.396-1.427-.428-.507-.872-.999-1.237-1.538a23.302 23.302 0 0 1-2.092-3.314 26.218 26.218 0 0 1-1.523-3.567c-.174-.634-.38-1.253-.523-1.887a37.303 37.303 0 0 1-.38-1.918l-.19-1.95V63.96l5.311.143z" fill-rule="nonzero" fill="#231F20"/>
        <path d="M136.447 6.464c2.546 3.495 3.97 7.307 3.97 11.293 0 16.972-25.402 30.733-56.736 30.733-31.318 0-56.72-13.76-56.72-30.733 0-4.049 1.454-7.924 4.096-11.467M24.22 52.712c14.786 8.667 35.957 12.783 59.457 12.783 23.516 0 44.687-4.116 59.474-12.783M105.82 15.809l-4.082 14.435M61.554 15.787l3.672 14.483" stroke="#231F20" stroke-width="5.333" stroke-linecap="round" stroke-linejoin="round"/>
    </g>
</svg>
