<svg width="168" height="92" xmlns="http://www.w3.org/2000/svg">
    <title>
        kama
    </title>
    <g fill="none">
        <path d="M48.47 12.379c40.876 0 51.107-3.575 75.542-8.007 24.465-4.449 40.464 14.218 40.003 42.656v1.334c0 22.1-17.762 40.004-40.003 40.004-31.536 0-78.657-4.449-78.657-4.449" fill="#FFF"/>
        <path d="M48.429 9.715s4.495-.111 12.341-.302c1.97-.031 4.114-.19 6.45-.301 2.334-.143 4.876-.207 7.56-.398 2.716-.222 5.575-.46 8.593-.698 3.018-.366 6.179-.715 9.467-1.176 6.56-.969 13.644-2.35 21.22-3.891 1.891-.366 3.829-.747 5.783-1.128.968-.19 1.953-.381 2.938-.572l.381-.08.19-.031.35-.064.747-.095 1.509-.19c1.874-.366 4.336-.334 6.671-.366 1.16.064 2.271.238 3.415.35 1.16.079 2.287.365 3.415.65 4.543 1.097 9.038 3.146 12.739 6.259 3.733 3.066 6.767 6.941 9.086 11.15 2.335 4.21 3.748 8.816 4.812 13.438l.62 3.51c.222 1.16.27 2.336.397 3.527.318 2.35.27 4.701.334 7.052l.015 1.668v.588l-.031.429-.032.841-.095 1.668c-.032.572-.032 1.096-.143 1.763l-.572 3.749-.906 3.526a44.67 44.67 0 0 1-6.321 12.961c-5.496 7.91-13.74 13.454-22.397 16.234a47.743 47.743 0 0 1-13.31 1.906c-4.05-.143-8.022-.27-11.866-.413-3.86-.127-7.624-.254-11.245-.366-3.622-.11-7.164-.444-10.531-.635-6.767-.445-12.946-.873-18.441-1.239-5.465-.476-10.23-.905-14.153-1.255a448.26 448.26 0 0 1-9.101-.873 2403.42 2403.42 0 0 1-3.209-.318c-1.477-.159-2.541-1.461-2.383-2.923.143-1.445 1.398-2.51 2.828-2.398h.047s1.112.095 3.209.238a533.9 533.9 0 0 0 9.07.651c3.923.255 8.672.572 14.12.938 5.417.301 11.564.635 18.25 1 3.352.143 6.815.43 10.437.477a11322.721 11322.721 0 0 0 23.127.477c3.605-.08 7.48-.557 11.15-1.684 7.307-2.383 14.248-7.053 18.854-13.756a37.21 37.21 0 0 0 5.274-10.928l.762-2.97.445-2.907c.08-.445.095-1.032.127-1.588l.08-1.684.031-.842.032-.429c0-.19-.016.143-.016.08v-.318l-.016-1.7c-.063-2.144 0-4.288-.27-6.385-.127-1.048-.143-2.128-.35-3.16l-.54-3.114c-.92-4.066-2.144-8.069-4.098-11.611-1.937-3.542-4.4-6.671-7.354-9.133-2.922-2.51-6.449-4.082-10.054-4.988-.906-.238-1.811-.492-2.732-.54-.937-.08-1.875-.238-2.78-.286-1.795.048-3.447-.095-5.575.27l-1.51.175-.746.08-.095.015c.318-.047.048 0 .08-.016l-.175.048-.366.064c-.984.174-1.953.349-2.938.524-1.922.365-3.844.715-5.75 1.048-7.56 1.43-14.82 2.748-21.586 3.67-3.4.412-6.656.73-9.753 1.063-3.097.207-6.036.413-8.8.604-5.527.238-10.372.381-14.311.413-7.847-.016-12.342-.016-12.342-.016a2.685 2.685 0 0 1-2.668-2.668 2.672 2.672 0 0 1 2.605-2.669" fill="#231F20"/>
        <path d="M115.157 20.243c-12.553 2.044-32.27 3.693-60.386 3.756C51.348 13.586 41.585 6.074 30.047 6.074c-14.391 0-26.04 11.649-26.04 26.024v30.256c0 14.375 11.649 26.025 26.04 26.025 14.375 0 26.024-11.65 26.024-26.025V59.66H83.57c40.891 0 53.777-11.728 53.777-23.394 0-11.68-9.446-18.115-22.19-16.023" fill="#FFF"/>
        <path d="M114.725 17.597c2.761-.429 5.602-.556 8.458-.19 2.841.364 5.714 1.237 8.284 2.792a17.25 17.25 0 0 1 6.253 6.475c.73 1.333 1.254 2.762 1.635 4.19.365 1.396.619 3.19.619 4.332.158 2.968-.413 6.063-1.714 8.792-1.333 2.714-3.301 4.936-5.444 6.856-2.221 1.761-4.586 3.317-7.078 4.46-1.222.57-2.46 1.174-3.745 1.602-1.27.444-2.539.984-3.824 1.301-1.286.35-2.555.762-3.857 1.064l-3.888.84c-1.301.27-2.602.43-3.904.651-1.317.19-2.602.413-3.92.524-2.602.27-5.205.571-7.84.683l-3.935.206-3.856.08-3.904.063H56.086l2.666-2.666c.016.983.064 1.936.064 2.967-.048 1.08-.016 2.158-.159 3.238-.143 1.079-.206 2.174-.508 3.221-.238 1.063-.476 2.127-.873 3.158-1.444 4.11-3.777 7.951-6.903 11.03a29.806 29.806 0 0 1-11.156 6.887c-1.032.381-2.127.603-3.19.905-1.111.19-2.349.412-3.412.508l-1.46.079-.73.048h-.19c-.35.015-.128.015-.223.015l-.047-.015h-.111l-.413-.016c-1.095-.08-2.206-.048-3.301-.254-4.38-.572-8.633-2.174-12.33-4.602-3.714-2.429-6.809-5.745-9.062-9.538-2.27-3.84-3.666-8.094-3.984-12.664l-.063-1.476-.048-.905v-3.681l.016-5.872v-11.76l-.016-5.887v-2.936c.064-1.095.08-2.206.19-3.317.493-4.396 2-8.68 4.38-12.426 2.35-3.761 5.603-6.935 9.364-9.236l1.428-.857 1.492-.73c1-.508 2.047-.873 3.079-1.238 1.031-.413 2.126-.603 3.19-.905 1.11-.238 2.316-.365 3.459-.54l1.46-.063.73-.031.365-.032h.38l.191.016c1.111.047 2.222.08 3.317.27 2.174.27 4.333.825 6.396 1.602 4.142 1.54 7.855 4.095 10.839 7.285 1.507 1.602 2.777 3.396 3.856 5.268 1.08 1.905 1.889 3.92 2.54 5.983l-2.524-1.84 15.06-.255 3.777-.047c1.254-.032 2.508-.111 3.761-.175l7.523-.365c2.491-.143 5.014-.174 7.49-.428l7.443-.65 3.714-.318c1.237-.127 2.491-.318 3.745-.476l7.506-1.016-.08.016zm.81 5.269l-7.507 1.015c-1.254.159-2.508.35-3.761.476l-3.84.334-7.634.666c-2.54.254-5.063.286-7.602.444l-7.617.365c-1.254.048-2.523.143-3.793.175l-3.809.048-15.187.254a2.605 2.605 0 0 1-2.46-1.635l-.08-.19a24.644 24.644 0 0 0-2.38-4.698c-.984-1.428-2.047-2.809-3.285-4.03-2.475-2.413-5.475-4.286-8.712-5.412a20.861 20.861 0 0 0-5.015-1.127c-.825-.127-1.698-.127-2.555-.143l-.159-.016h-.08c.318-.016.064 0 .128 0h-.048l-.365.016-.746.048-1.46.079c-.793.143-1.555.222-2.364.397-.81.254-1.667.365-2.444.714-.81.301-1.619.555-2.38.968l-1.143.555-1.095.667c-2.889 1.793-5.396 4.253-7.19 7.157a22.89 22.89 0 0 0-3.395 9.554c-.096.84-.112 1.698-.16 2.555l-.015 2.936-.016 5.887v11.76l.016 5.872.016 2.951v.73l.016.572.08 1.46c.253 3.253 1.332 6.65 3.094 9.553 1.73 2.936 4.094 5.507 6.935 7.396a23.1 23.1 0 0 0 9.506 3.57c.825.19 1.698.143 2.555.207l.317.015.08.016h.031-.11.174l.73-.031 1.476-.08c.888-.08 1.587-.222 2.412-.333.825-.222 1.666-.365 2.475-.635a23.155 23.155 0 0 0 8.792-5.205c2.571-2.317 4.491-5.3 5.761-8.538.65-1.603 1.08-3.301 1.349-5.03.175-.858.159-1.746.254-2.62.047-.92.063-1.935.095-2.903v-.096a2.674 2.674 0 0 1 2.666-2.57h26.979l3.793-.064 3.856-.064 3.761-.222c2.508-.095 5.015-.38 7.506-.65 1.27-.096 2.492-.318 3.73-.508 1.222-.206 2.476-.333 3.698-.603l3.65-.794c1.206-.27 2.38-.65 3.554-.984 1.206-.285 2.333-.777 3.476-1.174 1.174-.38 2.237-.92 3.332-1.428 2.19-1 4.127-2.301 5.952-3.714 1.666-1.523 3.142-3.205 4.094-5.126.905-1.92 1.285-4.015 1.19-6.173-.031-.635-.047-1.333-.158-1.762-.112-.507-.127-.984-.302-1.507-.27-1.048-.65-2.063-1.158-2.968a11.96 11.96 0 0 0-4.333-4.475c-1.825-1.111-3.967-1.793-6.205-2.079-2.253-.286-4.586-.19-6.903.175h-.064z" fill="#231F20"/>
        <path d="M40.537 66.452l-1.541-.944c-.503-.283-1.117-.708-1.84-1.227-.346-.251-.724-.534-1.133-.818a40.311 40.311 0 0 0-1.148-.959c-.818-.66-1.651-1.447-2.5-2.296-.865-.834-1.683-1.809-2.533-2.815-.817-1.038-1.65-2.108-2.374-3.287-.802-1.133-1.432-2.39-2.092-3.633-.598-1.274-1.195-2.548-1.651-3.87-.535-1.273-.85-2.626-1.211-3.884-.268-1.305-.598-2.548-.708-3.759-.079-.597-.157-1.195-.236-1.761a508.11 508.11 0 0 0-.094-1.652c-.095-1.053-.063-2.028-.032-2.893 0-.865.032-1.62.126-2.234l.173-1.95a2.688 2.688 0 0 1 2.925-2.39 2.67 2.67 0 0 1 2.39 2.925v.063l-.03.204s-.08.614-.205 1.667a12.74 12.74 0 0 0-.173 1.92c-.047.754-.11 1.588-.063 2.515.016.457.031.928.047 1.432.047.487.094.99.142 1.525.063 1.054.33 2.14.519 3.271.298 1.117.519 2.297.943 3.429.362 1.164.85 2.28 1.337 3.413.566 1.1 1.07 2.233 1.73 3.255.613 1.054 1.321 2.03 1.997 2.973.74.896 1.432 1.793 2.187 2.548.723.77 1.415 1.494 2.139 2.091.346.315.676.614 1.006.897.315.252.63.487.912.708.582.456 1.101.849 1.604 1.148.976.645 1.526 1.006 1.526 1.006.928.598 1.18 1.84.582 2.768a2.029 2.029 0 0 1-2.72.614m29.957 11.224s-.14-.233-.404-.637c-.264-.435-.652-.917-1.056-1.74-.217-.404-.45-.838-.699-1.289-.248-.466-.419-.947-.652-1.46-.217-.497-.45-1.025-.606-1.568l-.559-1.678c-.14-.574-.28-1.149-.404-1.708-.17-.575-.217-1.134-.31-1.693-.047-.544-.187-1.072-.187-1.584-.03-.513-.046-.994-.077-1.444-.062-.886.03-1.631.03-2.144.032-.528.047-.823.047-.823a1.997 1.997 0 1 1 3.992.171v.062l-.016.186s-.015.249-.062.684c0 .45-.124 1.071-.093 1.832 0 .373 0 .793.016 1.227-.016.435.077.886.108 1.352.062.481.078.978.202 1.46.093.497.202.993.295 1.49.14.482.28.979.42 1.46.124.482.326.948.497 1.398.17.435.31.901.512 1.274.187.388.357.745.513 1.087.295.668.73 1.289.947 1.693.264.42.388.652.388.652a1.661 1.661 0 0 1-.605 2.283c-.761.45-1.755.202-2.237-.543m12.44 0s-.14-.233-.403-.637c-.264-.435-.653-.917-1.056-1.74-.218-.404-.45-.838-.684-1.289-.264-.466-.42-.947-.652-1.46-.218-.497-.466-1.025-.621-1.568l-.56-1.678a84.642 84.642 0 0 1-.403-1.708c-.171-.575-.218-1.134-.295-1.693-.062-.544-.187-1.072-.202-1.584-.031-.513-.047-.994-.062-1.444-.078-.886.015-1.631.015-2.144l.047-.823a1.997 1.997 0 0 1 2.08-1.91 2.02 2.02 0 0 1 1.927 2.081c0 .015-.016.047-.016.062l-.015.186s-.016.249-.062.684c0 .45-.11 1.071-.094 1.832 0 .373.016.793.016 1.227-.016.435.078.886.124 1.352.047.481.078.978.186 1.46.11.497.202.993.296 1.49.14.482.295.979.419 1.46.124.482.326.948.497 1.398.186.435.326.901.528 1.274.17.388.357.745.512 1.087.296.668.715 1.289.948 1.693.248.42.373.652.373.652a1.67 1.67 0 0 1-.59 2.283 1.685 1.685 0 0 1-2.253-.543m21.892-7.844a3.508 3.508 0 0 1-3.514 3.499 3.498 3.498 0 0 1-3.514-3.499 3.501 3.501 0 0 1 3.514-3.513 3.511 3.511 0 0 1 3.514 3.513m17.403-1.144a3.5 3.5 0 0 1-3.5 3.516 3.513 3.513 0 0 1-3.515-3.516 3.51 3.51 0 0 1 3.516-3.5c1.936 0 3.5 1.565 3.5 3.5" fill="#231F20"/>
    </g>
</svg>
