<svg width="167" height="167" xmlns="http://www.w3.org/2000/svg">
    <title>
        kasi
    </title>
    <g fill="none" fill-rule="evenodd">
        <path d="M163.371 83.367l-4.004 64c0 7.365-5.966 16-13.33 16H43.361c-22.094 0-39.992-17.913-39.992-40.008V3.366c45.765 12.88 42.662 0 80 0 44.19 0 80.001 35.812 80.001 80.001" fill-rule="nonzero" fill="#FFF"/>
        <path d="M163.371 83.367l-4.004 64c0 7.365-5.966 16-13.33 16H43.361c-22.094 0-39.992-17.913-39.992-40.008V3.366c45.765 12.88 42.662 0 80 0 44.19 0 80.001 35.812 80.001 80.001z" stroke="#231F20" stroke-width="6.667" stroke-linecap="round" stroke-linejoin="round"/>
        <path d="M68.04 100.8a66.727 66.727 0 0 1-26.2-9.261" fill-rule="nonzero" fill="#FFF"/>
        <path d="M68.04 100.8a66.727 66.727 0 0 1-26.2-9.261" stroke="#231F20" stroke-width="5.333" stroke-linecap="round" stroke-linejoin="round"/>
        <path d="M60.943 116.344a66.776 66.776 0 0 1-26.194-9.266" fill-rule="nonzero" fill="#FFF"/>
        <path d="M60.943 116.344a66.776 66.776 0 0 1-26.194-9.266" stroke="#231F20" stroke-width="5.333" stroke-linecap="round" stroke-linejoin="round"/>
        <path d="M120.81 79.429a62.061 62.061 0 0 1 .836-25.772" fill-rule="nonzero" fill="#FFF"/>
        <path d="M120.81 79.429a62.061 62.061 0 0 1 .836-25.772" stroke="#231F20" stroke-width="5.333" stroke-linecap="round" stroke-linejoin="round"/>
        <path d="M104.1 80.01a62.047 62.047 0 0 1 .835-25.766" fill-rule="nonzero" fill="#FFF"/>
        <path d="M104.1 80.01a62.047 62.047 0 0 1 .835-25.766" stroke="#231F20" stroke-width="5.333" stroke-linecap="round" stroke-linejoin="round"/>
        <path d="M164.14 80.259c-2.294 5.853-5.806 11.332-10.52 16.061-18.309 18.31-47.997 18.31-66.306 0l.078-.093c18.325 18.309 18.325 47.997 0 66.306" fill-rule="nonzero" fill="#FFF"/>
        <path d="M164.14 80.259c-2.294 5.853-5.806 11.332-10.52 16.061-18.309 18.31-47.997 18.31-66.306 0l.078-.093c18.325 18.309 18.325 47.997 0 66.306" stroke="#231F20" stroke-width="5.333" stroke-linecap="round" stroke-linejoin="round"/>
    </g>
</svg>
