<svg width="168" height="168" xmlns="http://www.w3.org/2000/svg">
    <title>
        ken
    </title>
    <g fill="none" fill-rule="evenodd">
        <path d="M46.97 44.384c12.794 0 23.166 8.175 23.166 18.257 0 13.721-14.103 24.829-31.5 24.829-19.054 0-34.5-16.77-34.5-35.835v-.16c0-26.143 23.43-47.332 52.333-47.332h27.667c44.183 0 80 35.82 80 80.005 0 44.183-35.817 79.99-80 79.99-41.605 0-75.333-27.328-75.333-61.488 0-10.5 2.823-16.625 10.333-21.507" fill-rule="nonzero" fill="#FFF"/>
        <path d="M47.049 42.398h1.787c1.171 0 3.236.159 5.598.636 2.398.55 5.351 1.476 8.504 3.356 3.088 1.895 6.506 4.832 8.555 9.46a17.709 17.709 0 0 1 1.466 7.812l-.089 1.793c-.121.724-.244 1.447-.368 2.2-.107.766-.346 1.402-.552 2.097-.219.694-.399 1.403-.724 2.054-1.05 2.748-2.802 5.265-4.857 7.58-2.06 2.314-4.574 4.324-7.377 5.974-5.587 3.37-12.41 5.236-19.594 5.424l-.676.029c.106.014-.334 0-.345 0l-.156-.015-.313-.014-1.257-.072c-.859-.058-1.625-.044-2.654-.232-.973-.159-1.951-.318-2.936-.477-.93-.232-1.844-.492-2.773-.752-3.663-1.143-7.275-2.807-10.538-5.121-6.499-4.614-11.927-11.37-14.728-19.514-1.418-4.05-2.239-8.404-2.271-12.86l-.006-.202.012-.376.021-.376.042-.767.084-1.533c.07-1.027.056-1.996.29-3.182.189-1.143.378-2.271.567-3.428.174-1.158.568-2.17.847-3.284 2.372-8.723 7.65-16.693 14.493-23.072C24.108 9.345 32.719 4.6 42.167 2.431 46.848 1.172 51.757.839 56.63.68c4.63 0 9.294-.015 13.986-.015h14.245l3.567.087 3.794.289c2.49.26 4.953.578 7.412 1.056 9.824 1.837 19.397 5.468 28.038 10.747 8.644 5.251 16.326 12.151 22.552 20.18 6.226 8.013 10.992 17.184 13.926 26.876 2.967 9.663 3.988 19.947 3.35 29.784-1.259 20.135-10.098 38.983-23.424 52.58-13.255 13.7-30.733 22.118-48 24.476-4.33.65-8.588.839-12.884.839-1.015-.03-2.027-.044-3.034-.073-1.061-.057-2.118-.13-3.17-.202-1.063-.044-2.07-.188-3.098-.275a52.964 52.964 0 0 1-3.049-.376 88.532 88.532 0 0 1-11.779-2.445c-3.801-1.041-7.473-2.3-10.961-3.804-14.009-5.902-25.23-15.174-32.319-25.502-3.602-5.135-6.09-10.545-7.773-15.724-1.618-5.222-2.355-10.241-2.477-14.754l-.036-1.678.068-1.664.067-1.49c.015-.477.042-.969.127-1.519l.413-3.095c.24-.97.464-1.91.709-2.806.206-.912.663-1.75.97-2.56.174-.406.344-.81.51-1.187.219-.376.433-.738.642-1.085.436-.694.794-1.388 1.251-1.967l1.343-1.606c1.796-1.91 3.367-3.095 4.447-3.79 1.081-.694 1.639-1.056 1.639-1.056a2.646 2.646 0 0 1 3.676.767 2.67 2.67 0 0 1-.527 3.5l-.24.203s-.425.347-1.248 1.027c-.86.651-1.998 1.707-3.206 3.226-.288.376-.593.796-.915 1.215-.314.434-.52.97-.813 1.461-.139.26-.281.52-.427.796-.103.289-.208.593-.315.896-.184.622-.507 1.201-.62 1.924-.143.71-.321 1.432-.497 2.185l-.273 2.372c-.065.39-.085.853-.09 1.36l-.04 1.49-.033 1.388.062 1.476c.148 3.978.779 8.36 2.216 12.946 1.499 4.557 3.69 9.345 6.92 13.916 6.337 9.2 16.527 17.647 29.442 23.057 3.212 1.389 6.604 2.546 10.12 3.5a80.3 80.3 0 0 0 10.912 2.228 45.6 45.6 0 0 0 2.83.347c.945.087 1.913.217 2.848.26.942.059 1.889.117 2.838.174 1.007.015 2.017.044 3.032.058 3.818-.014 7.821-.188 11.761-.795 15.825-2.185 31.816-9.938 43.942-22.523 6.088-6.234 11.158-13.67 14.824-21.857 3.67-8.143 5.97-17.155 6.512-26.182.576-9.243-.38-18.472-3.112-27.353a77.109 77.109 0 0 0-12.691-24.591c-5.68-7.348-12.7-13.67-20.6-18.501a76.37 76.37 0 0 0-25.634-9.88c-2.241-.448-4.522-.738-6.768-.983l-3.329-.26-3.555-.102c-4.715-.015-9.405-.015-14.068-.029-4.692 0-9.356-.014-13.986-.014-4.363.144-8.697.419-12.842 1.533-8.367 1.88-15.94 6.075-22.077 11.456C15.74 26.168 11.175 33.04 9.15 40.488c-.231.926-.603 1.866-.724 2.763l-.466 2.69c-.21.84-.21 1.94-.28 2.937l-.087 1.534-.043.766-.022.376c-.008.232-.001-.1-.001 0l.004.188c.023 3.675.696 7.276 1.866 10.632 2.299 6.784 6.85 12.44 12.205 16.26 2.69 1.923 5.65 3.268 8.628 4.223.753.203 1.502.405 2.246.622l2.14.347c.643.174 1.581.174 2.4.232l1.257.072.313.014h.156c.093.015-.243 0-.033 0l.573-.014c6.096-.087 11.843-1.65 16.453-4.325 2.327-1.302 4.387-2.879 6.036-4.672 1.647-1.78 3.042-3.689 3.904-5.714.278-.477.412-.998.598-1.505.17-.506.394-1.027.455-1.475.11-.463.218-.926.325-1.389l.154-1.764a12.116 12.116 0 0 0-.797-5.31c-.608-1.648-1.618-3.066-2.687-4.28-1.055-1.26-2.3-2.243-3.484-3.11-2.448-1.65-4.878-2.59-6.883-3.183-2.087-.52-3.506-.767-4.685-.883l-1.782-.13a2.007 2.007 0 0 1-1.838-2.155 2.006 2.006 0 0 1 1.998-1.837" fill-rule="nonzero" fill="#231F20"/>
        <path d="M10.154 103.486c16.835 1.48 52.153 1.577 79.068.664m-76.165 17.592c15.698 1.386 48.632 1.468 73.73.618" stroke="#231F20" stroke-width="4" stroke-linecap="round" stroke-linejoin="round"/>
        <path d="M64.456 75.924s.517.168 1.486.477c.492.168 1.066.308 1.801.602l2.526 1.008c.9.434 1.895.91 2.98 1.443 1.03.616 2.214 1.19 3.35 2.003 2.357 1.512 4.796 3.557 7.186 6.078 2.38 2.52 4.62 5.616 6.323 9.272a33.588 33.588 0 0 1 3.117 12.24l.087 1.667.002.042c0 .084.008-.112-.002.21l-.005.098-.011.196-.022.378-.044.77c-.08 1.051-.048 2.017-.3 3.236-.222 1.148-.34 2.38-.68 3.473-.336 1.093-.618 2.227-1.016 3.306-1.566 4.383-4.135 8.403-7.264 11.848-3.139 3.446-6.867 6.303-10.844 8.502-1.015.504-1.985 1.106-3.027 1.526-1.038.434-2.07.868-3.097 1.303-2.114.686-4.194 1.4-6.317 1.806-.527.112-1.051.238-1.573.35-.524.098-1.054.155-1.578.225-1.05.14-2.087.308-3.119.392-1.035.056-2.059.098-3.07.14l-.756.042H50.4l-.094.014-.223-.014-.354-.014c-.472-.028-.94-.042-1.406-.07l-2.758-.126c-.978-.14-1.94-.28-2.888-.406-1.929-.21-3.631-.729-5.314-1.135-.845-.182-1.644-.462-2.42-.756-.778-.28-1.54-.56-2.28-.827-1.475-.546-2.795-1.274-4.075-1.848-2.47-1.359-4.578-2.633-6.16-3.908-1.663-1.162-2.795-2.297-3.595-3.039a375.286 375.286 0 0 0-1.221-1.134 2.652 2.652 0 0 1-.134-3.754 2.66 2.66 0 0 1 3.734-.168l.213.196s.374.336 1.075.98c.702.63 1.682 1.611 3.152 2.606 1.382 1.106 3.25 2.198 5.422 3.36 1.135.491 2.292 1.135 3.599 1.611.656.225 1.33.463 2.018.7.685.253 1.39.49 2.14.645 1.484.336 3.036.812 4.606.98.788.112 1.59.238 2.404.365.903.042 1.82.098 2.75.14.466.028.934.056 1.406.07l.354.014.045.014h-.09l.083-.014h.168l.672-.028c.9-.042 1.81-.084 2.731-.112.917-.084 1.836-.239 2.768-.35.464-.07.937-.099 1.401-.197l1.392-.308c1.885-.35 3.719-.98 5.59-1.568.905-.379 1.816-.757 2.73-1.149.923-.364 1.768-.896 2.663-1.33 3.495-1.92 6.749-4.398 9.464-7.367 2.707-2.955 4.906-6.387 6.23-10.056.339-.925.568-1.863.863-2.787.3-.925.35-1.821.551-2.717.22-.827.211-1.961.29-2.97l.078-1.372-.054-1.4a28.413 28.413 0 0 0-2.463-10.393c-1.404-3.137-3.286-5.854-5.284-8.123-2.023-2.269-4.117-4.16-6.181-5.56-.991-.756-2.022-1.316-2.918-1.933-.953-.518-1.828-.994-2.617-1.414-.8-.378-1.514-.7-2.136-.98-.619-.295-1.258-.49-1.719-.673a82.075 82.075 0 0 0-1.46-.546 2.006 2.006 0 0 1-1.175-2.577 2 2 0 0 1 2.483-1.205m42.507-32.199c.57 2.319-1.578 4.85-4.796 5.632-3.219.797-6.29-.455-6.859-2.773-.57-2.333 1.578-4.85 4.796-5.647 3.22-.782 6.29.47 6.86 2.788" fill-rule="nonzero" fill="#231F20"/>
        <path d="M122.845 39.25s.02.797.014 2.207c-.095.783-.145 1.794-.357 2.862-.113.527-.233 1.097-.36 1.68-.155.585-.383 1.183-.59 1.824-.467 1.239-1.059 2.577-1.855 3.888a21.54 21.54 0 0 1-2.883 3.86c-.548.64-1.216 1.181-1.838 1.78a33.802 33.802 0 0 1-2.08 1.594c-1.487.954-3.065 1.837-4.756 2.464l-1.27.456c-.428.128-.868.228-1.3.342-.864.256-1.745.384-2.623.512-.872.157-1.752.157-2.615.185l-.646.029-.714-.043-1.13-.085c-.686-.015-1.66-.214-2.465-.356-.862-.129-1.585-.4-2.326-.613-.743-.2-1.43-.498-2.09-.783-.668-.27-1.302-.555-1.875-.897-.575-.342-1.157-.613-1.647-.969s-.954-.697-1.39-1.01c-.85-.67-1.514-1.34-2.092-1.838-1.037-1.14-1.598-1.809-1.598-1.809a1.99 1.99 0 0 1 .238-2.805 2 2 0 0 1 2.576 0l.176.157s.558.47 1.485 1.31c.52.37 1.103.854 1.838 1.324.751.442 1.583.954 2.558 1.396.468.256.988.441 1.53.626.535.2 1.088.4 1.686.513.585.143 1.202.328 1.777.37.62.057 1.084.228 1.901.214l1.132.043.285.014.143.014h.126-.125l.505-.042c.673-.057 1.361-.043 2.036-.186.681-.1 1.367-.213 2.032-.413.335-.1.676-.17 1.008-.27l.98-.37c1.318-.456 2.544-1.14 3.713-1.866.554-.413 1.118-.798 1.648-1.21.492-.47 1.038-.855 1.477-1.354.911-.94 1.749-1.922 2.41-2.933.691-.997 1.218-2.022 1.648-2.99l.567-1.425c.146-.456.284-.897.413-1.31.248-.826.334-1.51.487-2.108l.242-2.179a1.997 1.997 0 0 1 2.21-1.766c1.009.1 1.759.94 1.784 1.937v.029m4.119 42.463c.57 2.322-1.578 4.854-4.797 5.637-3.218.784-6.29-.461-6.858-2.784-.57-2.322 1.578-4.84 4.796-5.637 3.219-.784 6.29.461 6.859 2.784" fill-rule="nonzero" fill="#231F20"/>
        <path d="M142.846 77.247s.02.785.015 2.2c-.097.784-.147 1.806-.359 2.857-.112.532-.232 1.093-.358 1.695-.157.574-.384 1.177-.591 1.807-.467 1.247-1.06 2.578-1.855 3.894a22.128 22.128 0 0 1-2.883 3.867c-.55.63-1.216 1.176-1.838 1.779a40.573 40.573 0 0 1-2.08 1.597c-1.487.952-3.065 1.835-4.756 2.451l-1.27.462c-.429.14-.868.239-1.301.35-.863.239-1.745.379-2.623.491-.872.168-1.751.168-2.615.196l-.646.028-.714-.042-1.129-.084c-.686-.014-1.66-.21-2.466-.35-.862-.14-1.584-.406-2.326-.617-.742-.21-1.43-.49-2.09-.784-.667-.28-1.302-.56-1.875-.91-.574-.337-1.157-.603-1.647-.953-.49-.364-.954-.7-1.39-1.023-.85-.658-1.514-1.33-2.091-1.82-1.037-1.15-1.599-1.808-1.599-1.808a2 2 0 0 1 .239-2.816 1.99 1.99 0 0 1 2.575 0l.176.155s.558.476 1.486 1.316c.518.365 1.102.855 1.838 1.317.75.448 1.582.967 2.558 1.401.467.252.988.434 1.53.616.535.21 1.087.407 1.685.533.585.126 1.203.322 1.777.364.621.042 1.085.224 1.902.21l1.131.042.286.014.143.014h.125-.125l.505-.042c.673-.056 1.362-.042 2.036-.196.682-.098 1.367-.196 2.032-.406.335-.098.676-.168 1.008-.267l.98-.364c1.318-.462 2.544-1.148 3.713-1.877.555-.406 1.119-.784 1.65-1.205.49-.462 1.037-.854 1.475-1.358.912-.939 1.75-1.905 2.411-2.928a17.549 17.549 0 0 0 1.646-2.998c.2-.49.389-.966.57-1.415.144-.462.282-.91.412-1.316.248-.827.334-1.513.485-2.102.156-1.387.243-2.185.243-2.185a2.001 2.001 0 0 1 2.211-1.765 2.002 2.002 0 0 1 1.782 1.933l.002.042" fill-rule="nonzero" fill="#231F20"/>
    </g>
</svg>
