<svg width="96" height="168" xmlns="http://www.w3.org/2000/svg">
    <title>
        kepeken
    </title>
    <g fill="none">
        <path d="M4.348 25.361c0-15.773 5.125-21.218 11.444-21.218 8.89 0 10.11 13.245 10.11 20.67 0-7.425-.11-20.67 9.89-20.67s10.11 13.245 10.11 20.67c0-7.425 3.891-20.67 13.89-20.67 10.001 0 7.688 24.136 7.688 24.136 6.38-6.24 17.442-11.974 22.642-6.269 6.05 6.644-3.052 22.793-5.745 26.49l-.028 102.306c0 7.366-5.97 13.332-13.334 13.332H17.681c-7.363 0-13.333-5.966-13.333-13.332V25.361" fill="#FFF"/>
        <path d="M7.681 25.378l.182 80.74.092 40.37.005 2.516.003 1.273.006.608.028.448c.066 1.23.365 2.43.88 3.544 1.02 2.227 2.937 4.02 5.199 4.932.558.217 1.171.39 1.73.506.257.03.463.087.758.13l1.26.073 4.861-.015 10.093.015h30.278l5.045.014h2.524c.473 0 .699-.029 1.024-.043.311 0 .612-.058.915-.101 2.414-.376 4.66-1.722 6.15-3.674a9.666 9.666 0 0 0 1.637-3.255c.058-.289.19-.622.201-.853l.062-.362c.02-.13.057-.217.06-.463l.053-1.084.002-1.259.018-20.177.296-80.754a3.313 3.313 0 0 1 .619-1.924l.018-.03.005-.014a32.041 32.041 0 0 0 1.607-2.603c.52-.926 1.02-1.866 1.49-2.82.954-1.924 1.808-3.877 2.496-5.844.663-1.967 1.215-3.949 1.407-5.8.099-.926.109-1.808.01-2.604-.088-.767-.336-1.504-.582-1.938a.303.303 0 0 1-.052-.101c-.012-.03-.002-.03-.03-.073l-.132-.173-.265-.333-.067-.072-.031-.044-.01-.014c.261.304.069.087.127.144h-.01l-.081-.086a3.885 3.885 0 0 0-.67-.579c-.479-.333-1.086-.535-1.813-.636-1.472-.203-3.358.159-5.202.81-1.86.636-3.72 1.576-5.487 2.676a35.802 35.802 0 0 0-5.046 3.746l-.178.159a2.61 2.61 0 0 1-3.699-.203 2.627 2.627 0 0 1-.643-2.111l.001-.015-.036-3.269a69.574 69.574 0 0 0-.153-3.312c-.132-2.184-.355-4.34-.71-6.408-.375-2.04-.891-4.05-1.678-5.525-.394-.723-.823-1.287-1.204-1.577-.413-.303-.616-.405-1.26-.434l-.506.015c-.202-.015-.39.029-.589.043a7.4 7.4 0 0 0-1.132.232c-.74.231-1.45.578-2.13 1.056-1.386.94-2.604 2.43-3.633 4.122-1.02 1.707-1.854 3.645-2.5 5.655-.69 1.996-1.117 4.108-1.393 6.191l-.061.477c-.145 1.085-1.143 1.837-2.23 1.707a1.997 1.997 0 0 1-1.71-2.184h.001c-.283-2.14-.483-4.223-.81-6.234-.3-2.025-.723-3.978-1.307-5.713-.606-1.736-1.41-3.255-2.388-4.137-.49-.434-.985-.738-1.57-.94a5.086 5.086 0 0 0-.918-.232L36.49 7.5l-.805-.029h-.037c.282.015.072.015.134.015h-.104l-.137.014-.275.015c-.185 0-.346.043-.52.043-.336.058-.649.13-.935.232-.576.202-1.072.477-1.53.925-.965.854-1.738 2.373-2.32 4.108-.569 1.75-.96 3.718-1.25 5.728-.321 2.025-.505 4.122-.809 6.263l-.075.535a1.97 1.97 0 0 1-2.238 1.678 1.973 1.973 0 0 1-1.688-2.213 70.077 70.077 0 0 0-.663-6.263c-.327-2.04-.796-4.035-1.482-5.843-.66-1.809-1.57-3.443-2.678-4.412-.554-.477-1.114-.796-1.726-.984-.315-.1-.648-.13-.848-.159-.157-.014-.513-.014-.76-.029h-.09c-.035 0 .263.015.132 0l-.073.015h-.147c-.097.014-.197.014-.293.029a5.703 5.703 0 0 0-2.08.593 5.538 5.538 0 0 0-1.703 1.273c-1.03 1.099-1.839 2.675-2.393 4.455-.56 1.793-.927 3.731-1.141 5.742-.101.998-.184 2.01-.221 3.052-.03.506-.03.998-.047 1.504l-.007 1.62v-.029zm-6.666-.043l.033-1.65c.024-.578.037-1.17.078-1.75.062-1.142.17-2.3.305-3.456.295-2.329.735-4.687 1.552-7.044.823-2.33 2.025-4.745 4.055-6.784a12.087 12.087 0 0 1 3.598-2.488 12.242 12.242 0 0 1 4.228-.969c.178-.015.352-.015.527-.015h.392l.246.015c.296.014.487.014.87.058.881.116 1.622.29 2.336.55a10.086 10.086 0 0 1 3.778 2.444c1.026 1.027 1.766 2.198 2.357 3.341a20.885 20.885 0 0 1 1.358 3.5c.654 2.344.97 4.658 1.138 6.943.177 2.286.166 4.542.036 6.784h-4a53.512 53.512 0 0 1-.52-6.61c-.007-2.256.129-4.585.676-6.972.263-1.215.653-2.43 1.226-3.645.572-1.215 1.334-2.43 2.385-3.515a10.619 10.619 0 0 1 3.857-2.502c.72-.275 1.455-.448 2.178-.579.359-.043.726-.115 1.079-.13l.528-.014.265-.015h.396l.804.044c.336.029.79.087 1.177.144.766.13 1.464.319 2.189.593 1.432.536 2.783 1.418 3.808 2.503 2.083 2.184 3.078 4.73 3.644 7.102.578 2.372.736 4.7.756 6.971a52.071 52.071 0 0 1-.45 6.625h-4c-.25-2.502-.03-4.961.354-7.42.448-2.445 1.159-4.875 2.296-7.232 1.123-2.343 2.713-4.629 5.009-6.466a13.654 13.654 0 0 1 3.935-2.14 14.65 14.65 0 0 1 2.21-.565c.375-.043.753-.115 1.124-.13l.562-.029.28-.014h.372l.215.014c.063 0 .138 0 .297.015.26.029.56.058.787.101a7.67 7.67 0 0 1 1.367.347 8.6 8.6 0 0 1 2.456 1.33C66.6 3.74 67.537 5.1 68.205 6.402c1.31 2.618 1.856 5.164 2.195 7.637.338 2.474.412 4.904.363 7.305a71.694 71.694 0 0 1-.204 3.587c-.09 1.2-.224 2.357-.425 3.601l-.002.015-4.519-2.17a39.11 39.11 0 0 1 5.523-4.802c2.005-1.403 4.147-2.661 6.526-3.63a20.787 20.787 0 0 1 3.79-1.158c1.344-.26 2.773-.419 4.304-.274 1.52.144 3.15.578 4.596 1.46.719.449 1.398.955 1.973 1.548l.22.217.283.333.269.333.135.159.198.289.399.607c.908 1.52 1.323 3.009 1.545 4.484.21 1.461.195 2.85.078 4.18-.239 2.662-.896 5.092-1.7 7.406a54.583 54.583 0 0 1-2.877 6.668 68.782 68.782 0 0 1-1.751 3.139 42.475 42.475 0 0 1-2.047 3.139h-.007l.64-1.953.25 80.74.007 20.177v1.259l-.015.506-.016.318-.032.622c.002.174-.044.506-.085.796l-.127.882c-.081.607-.245 1.056-.37 1.605a16.992 16.992 0 0 1-2.859 5.7c-2.586 3.398-6.513 5.756-10.751 6.421-.53.087-1.057.174-1.592.174-.514.029-1.127.072-1.495.058H52.963l-20.185.014H17.455l-1.26-.072c-.538-.043-1.163-.145-1.739-.231a19.813 19.813 0 0 1-3.1-.912c-3.992-1.59-7.29-4.758-9.07-8.664a16.86 16.86 0 0 1-1.516-6.19l-.036-.796-.003-.65.003-1.274.007-2.516.09-40.37.184-80.74v-.043z" fill="#231F20"/>
        <path d="M85.574 54.005s-.24.24-.692.722c-.467.467-1.072 1.16-2.035 2.038-.921.892-2.082 1.897-3.422 3.015-.695.552-1.435 1.118-2.214 1.726-.81.552-1.66 1.161-2.567 1.755-1.836 1.147-3.856 2.364-6.113 3.426a49.744 49.744 0 0 1-7.285 2.887c-2.591.849-5.355 1.415-8.173 1.882-2.852.453-5.674.637-8.685.68-2.704-.043-5.783-.255-8.564-.68-2.815-.467-5.57-1.033-8.165-1.84a52.429 52.429 0 0 1-7.312-2.774c-2.271-1.005-4.316-2.18-6.177-3.283-.922-.566-1.785-1.147-2.608-1.699-.794-.58-1.548-1.132-2.256-1.656-1.371-1.104-2.554-2.08-3.474-2.944-.953-.82-1.62-1.556-2.102-2.023-.474-.482-.726-.736-.726-.736l2.475-2.477s.25.226.724.637c.475.424 1.15 1.061 2.074 1.797.895.764 2.044 1.614 3.369 2.59l2.17 1.444c.792.467 1.6.99 2.475 1.5 1.76.977 3.686 1.996 5.82 2.873 2.112.934 4.416 1.713 6.82 2.42 2.406.736 4.958 1.232 7.56 1.628 2.652.368 5.143.538 8.015.552 2.56-.014 5.316-.156 7.893-.538 2.593-.41 5.14-.906 7.528-1.67 2.392-.736 4.672-1.557 6.764-2.52 2.112-.905 4.011-1.98 5.746-3 .85-.538 1.663-1.061 2.436-1.557.755-.523 1.466-1.033 2.14-1.5 1.304-1.005 2.435-1.882 3.298-2.647.884-.736 1.598-1.429 2.076-1.854.481-.438.738-.679.738-.679l2.45 2.505M34.277 86.648s-.535-.126-1.472-.323c-.467-.098-1.036-.21-1.688-.351-.653-.14-1.386-.281-2.217-.562a135.41 135.41 0 0 1-2.659-.802c-.961-.253-1.882-.674-2.874-1.054-.977-.407-2.024-.745-3.005-1.265-.996-.491-2.008-.997-3.022-1.49-.982-.562-1.942-1.152-2.9-1.714-.97-.548-1.85-1.195-2.712-1.799-.85-.632-1.724-1.167-2.46-1.799-.746-.618-1.451-1.195-2.102-1.729a23.239 23.239 0 0 1-1.719-1.532c-.497-.477-.929-.885-1.283-1.222-.711-.69-1.117-1.069-1.117-1.069l2.385-2.333s.385.366 1.06 1.012l1.215 1.167c.461.45 1 .942 1.628 1.447.614.506 1.282 1.055 1.984 1.63.697.605 1.521 1.111 2.322 1.701.813.577 1.642 1.181 2.557 1.687.9.534 1.803 1.096 2.726 1.616.952.478 1.905.942 2.84 1.406.92.492 1.906.8 2.823 1.18.927.352 1.811.773 2.676.998.859.253 1.668.506 2.419.731.728.253 1.473.394 2.129.534.652.14 1.221.253 1.69.351.937.211 1.472.324 1.472.324l-.696 3.26m51.188-15.81s-.39.351-1.07.97c-.342.308-.755.674-1.23 1.11-.239.21-.492.435-.76.674a95.37 95.37 0 0 0-.939.716c-.656.506-1.364 1.04-2.116 1.616-.754.576-1.59 1.054-2.435 1.616-.844.562-1.72 1.138-2.662 1.615-.93.52-1.867 1.054-2.821 1.546-.975.45-1.952.913-2.913 1.349-.948.477-1.939.815-2.874 1.18-.947.351-1.838.759-2.729 1.011-.882.267-1.717.534-2.487.773-1.531.506-2.867.717-3.776.97-.916.21-1.439.337-1.439.337l-.662-3.26s.496-.126 1.365-.323c.86-.239 2.124-.435 3.578-.927.73-.225 1.522-.478 2.359-.73.847-.24 1.69-.633 2.59-.956.886-.351 1.83-.66 2.728-1.124.91-.422 1.836-.843 2.76-1.279.896-.491 1.79-.97 2.67-1.46.895-.45 1.72-.998 2.515-1.518.79-.534 1.598-.998 2.285-1.518.68-.52 1.323-1.011 1.917-1.46.3-.226.585-.45.857-.647l.755-.675c.476-.435.89-.8 1.23-1.11.68-.618 1.07-.969 1.07-.969l2.234 2.473" fill="#231F20"/>
        <path d="M60.398 68.125s.007.225.024.66c.014.422.034 1.124.018 1.967-.038 1.7-.094 4.132-.618 7.054-.266 1.476-.62 3.064-1.187 4.722-.565 1.658-1.313 3.428-2.472 5.114-1.143 1.673-2.708 3.317-4.726 4.455-1.998 1.166-4.367 1.7-6.59 1.728-.717-.028-.9-.014-1.634-.098-.632-.056-1.175-.169-1.738-.281a13.237 13.237 0 0 1-3.228-1.237c-2.043-1.096-3.634-2.74-4.808-4.398-1.178-1.686-1.95-3.443-2.518-5.1-.578-1.673-.94-3.26-1.206-4.722-.531-2.937-.587-5.368-.625-7.068-.017-1.686.042-2.656.042-2.656h4.267s.037.9.159 2.46c.117 1.545.377 3.765.93 6.308.551 2.516 1.515 5.424 3.19 7.771.842 1.166 1.86 2.15 3.066 2.768.6.31 1.24.562 1.924.703.341.07.71.14 1.003.154.187.056.934.056 1.148.056 1.481 0 2.86-.295 4.038-.97 1.192-.645 2.207-1.643 3.034-2.823 1.657-2.39 2.61-5.298 3.158-7.827.548-2.544.808-4.75.923-6.31.053-.772.095-1.39.125-1.798.024-.436.035-.674.035-.674l4.266.042" fill="#231F20"/>
    </g>
</svg>
