<svg xmlns="http://www.w3.org/2000/svg" viewBox="0 0 80 80" width="168" height="168">
  <title>
    kijetesantakalu
  </title>
  <g stroke-width="2" fill="none">
    <path fill="#231f20" stroke="#231f20" d="M70.74 26.01q5.32 11.81 6.73 19.48 1.01 5.5-.21 13.3-.88 5.59-4.75 9.33-6 5.8-15.5 3.3-2.83-.74-5.79-2.47a1.17 1.15-50 0 0-1.36.13c-3.73 3.27-7.15 4.53-12.11 2.34q-.58-.26-1.11.08c-6.52 4.09-19.52 4.25-25.03-1.97-7.69-8.68-9.35-22.58-7.24-33.68.48-2.47 1.62-4.68 2.68-6.96a3.24 3.24 0 0 0-.24-3.15q-2.51-3.76-2.89-9.51C3.47 9.57 10.4 3.19 17.17 4.81c2.87.68 4.47 3.04 6.02 5.3a.53.52 59.1 0 0 .66.17C33.43 5.42 43.78 2.9 53.1 7.64a.88.88 0 0 0 1.02-.16q5.1-5.06 13.18-4.27c1.76.17 3.74.96 5.04 2.21 5.8 5.56 4.32 14.59-1.38 19.6q-.47.42-.22.99Zm1.82-6.97c1.8-3.86 1.28-10.11-2.89-12.46-4.24-2.38-9.77-1.14-13.24 1.9a.79.78-48.4 0 0 .07 1.24q7.84 5.36 12.77 13.76a.39.38-41.9 0 0 .64.03q1.56-2.16 2.65-4.47ZM7.89 22.06q.31.74.57 1.5a.5.49 51.1 0 0 .89.1q4.13-6.78 9.8-10.79 2.78-1.97.03-3.97-.77-.55-1.3-.94-2.99-2.17-6.25-.43c-5.87 3.13-6 9.09-3.74 14.53Zm43.65 39.27q-.26 1.68-.43 3.37-.22 2.28.97.32.89-1.46 1.47-3.3 2.96-9.41 3.3-17.56.16-3.74 3.51-5.51c2.07-1.1 4.61.05 6.61.84q2.77 1.07 3.28 3.5c1.74 8.25.76 16.79-2.43 24.83q-.43 1.08.52.41 5.58-3.95 6.48-9.73 1.06-6.78.23-12.37c-.8-5.3-3.41-11.55-5.69-16.58q-5.03-11.03-14.63-17.63C43.69 4.33 32.71 8.28 22.1 13.81c-6.82 3.56-11.48 11.35-14.01 18.88-3.89 11.6-2.42 27.47 6.9 36.53q.85.83.46-.3-2.03-5.96-3.77-11.63c-1.2-3.95-2.14-12.83 2.09-15.71 2.01-1.37 6.39-2.07 7.88.59 1.22 2.2 2.12 4.42 2.39 6.97.6 5.58 1.05 12.76 3.94 17.59 1.31 2.17 3.68 4.58 6.45 3.09q.53-.28.12-.72c-4.5-4.85-6.19-16.01 1.96-18.68 4.77-1.56 13.26-1.35 14.25 5.13.3 1.98 1.09 3.75.78 5.78Zm12.51-12.61c2.65 3.14-3.62 15.84-5.71 19.37q-.68 1.15.65 1.25l3.44.29q1.32.1 2.01-1.04c4.07-6.8 4.8-14.69 3.97-22.58q-.3-2.8-2.02-3.95-2.28-1.52-5.01-1.27-.5.05-.82.44-.99 1.19-1.18 2.72c-.41 3.28-.36 6.47-1.2 9.76q-1.74 6.8-3.76 13.04-.16.49.18.9a.49.48 43.2 0 0 .78-.02q5.85-8.3 6.98-18.39a.96.96 0 0 1 1.69-.52Zm-46.58 6.75q.84-.03 1.07.79 2.23 7.93 7.12 14.7.43.6 1.11.88.69.29 1.19-.13a.31.3 48 0 0 .02-.45q-2.96-2.98-3.9-6.17c-1.04-3.51-1.78-7.21-2.03-10.91-.2-3.16-.74-7.49-2.47-10.13-1.61-2.47-4.8-1.26-5.5 1.38-1.11 4.19-.76 8.25.73 12.26 1.7 4.59 2.75 9.57 5.6 13.59q.31.45.86.45l.52.01q.64.01.32-.55-3.73-6.58-6.06-13.8-.39-1.2.75-1.76.31-.15.67-.16Zm30.59.25c-1.45-4.72-7.67-4.54-11.31-3.05-5.42 2.21-2.55 11.2-.05 14.31 2.13 2.64 7.61 4.52 10.04.98 2.73-3.97 2.72-7.68 1.32-12.24Z"/>
    <path fill="#fff" d="M72.56 19.04q-1.09 2.31-2.65 4.47a.39.38-41.9 0 1-.64-.03q-4.93-8.4-12.77-13.76a.79.78-48.4 0 1-.07-1.24c3.47-3.04 9-4.28 13.24-1.9 4.17 2.35 4.69 8.6 2.89 12.46ZM7.89 22.06c-2.26-5.44-2.13-11.4 3.74-14.53q3.26-1.74 6.25.43.53.39 1.3.94 2.75 2-.03 3.97-5.67 4.01-9.8 10.79a.5.49 51.1 0 1-.89-.1q-.26-.76-.57-1.5ZM51.54 61.33c.31-2.03-.48-3.8-.78-5.78-.99-6.48-9.48-6.69-14.25-5.13-8.15 2.67-6.46 13.83-1.96 18.68q.41.44-.12.72c-2.77 1.49-5.14-.92-6.45-3.09-2.89-4.83-3.34-12.01-3.94-17.59-.27-2.55-1.17-4.77-2.39-6.97-1.49-2.66-5.87-1.96-7.88-.59-4.23 2.88-3.29 11.76-2.09 15.71q1.74 5.67 3.77 11.63.39 1.13-.46.3C5.67 60.16 4.2 44.29 8.09 32.69c2.53-7.53 7.19-15.32 14.01-18.88 10.61-5.53 21.59-9.48 32.63-1.89q9.6 6.6 14.63 17.63c2.28 5.03 4.89 11.28 5.69 16.58q.83 5.59-.23 12.37-.9 5.78-6.48 9.73-.95.67-.52-.41c3.19-8.04 4.17-16.58 2.43-24.83q-.51-2.43-3.28-3.5c-2-.79-4.54-1.94-6.61-.84q-3.35 1.77-3.51 5.51-.34 8.15-3.3 17.56-.58 1.84-1.47 3.3-1.19 1.96-.97-.32.17-1.69.43-3.37Z"/>
    <path fill="#fff" d="M64.05 48.72a.96.96 0 0 0-1.69.52q-1.13 10.09-6.98 18.39a.49.48 43.2 0 1-.78.02q-.34-.41-.18-.9 2.02-6.24 3.76-13.04c.84-3.29.79-6.48 1.2-9.76q.19-1.53 1.18-2.72.32-.39.82-.44 2.73-.25 5.01 1.27 1.72 1.15 2.02 3.95c.83 7.89.1 15.78-3.97 22.58q-.69 1.14-2.01 1.04l-3.44-.29q-1.33-.1-.65-1.25c2.09-3.53 8.36-16.23 5.71-19.37ZM17.47 55.47q-.36.01-.67.16-1.14.56-.75 1.76 2.33 7.22 6.06 13.8.32.56-.32.55l-.52-.01q-.55 0-.86-.45c-2.85-4.02-3.9-9-5.6-13.59-1.49-4.01-1.84-8.07-.73-12.26.7-2.64 3.89-3.85 5.5-1.38 1.73 2.64 2.27 6.97 2.47 10.13.25 3.7.99 7.4 2.03 10.91q.94 3.19 3.9 6.17a.31.3 48 0 1-.02.45q-.5.42-1.19.13-.68-.28-1.11-.88-4.89-6.77-7.12-14.7-.23-.82-1.07-.79ZM36.75 52.67c3.64-1.49 9.86-1.67 11.31 3.05 1.4 4.56 1.41 8.27-1.32 12.24-2.43 3.54-7.91 1.66-10.04-.98-2.5-3.11-5.37-12.1.05-14.31Z"/>
  </g>
</svg>
