<svg width="167" height="173" xmlns="http://www.w3.org/2000/svg">
    <title>
        kili
    </title>
    <g fill="none" fill-rule="evenodd">
        <path d="M150.148 32.735c24.444 30.43 14.528 78.987-22.149 108.447-36.677 29.459-86.224 28.69-110.667-1.74C-7.112 109.013 2.804 60.47 39.48 30.997c36.677-29.46 86.225-28.677 110.669 1.739" fill-rule="nonzero" fill="#FFF"/>
        <path d="M150.148 32.735c24.444 30.43 14.528 78.987-22.149 108.447-36.677 29.459-86.224 28.69-110.667-1.74C-7.112 109.013 2.804 60.47 39.48 30.997c36.677-29.46 86.225-28.677 110.669 1.739z" stroke="#231F20" stroke-width="6.667"/>
        <path d="M76.496 12.2c14.591 18.788 7.27 40.794-11.518 55.393-18.79 14.584-41.936 16.222-56.524-2.566-4.862-6.263-7.085-19.615-.822-24.471 6.264-4.857 17.8-.493 22.665 5.784-4.866-6.277-6.247-18.527.017-23.398 6.263-4.857 17.8-.478 22.662 5.784-4.862-6.262-6.246-18.527.019-23.398 6.262-4.857 18.639.594 23.5 6.872" fill-rule="nonzero" fill="#FFF"/>
        <path d="M73.866 14.232l-.855-.986-.978-.928-1.072-.885-1.146-.826a26.795 26.795 0 0 0-2.46-1.45c-.847-.42-1.713-.827-2.594-1.131a9.234 9.234 0 0 0-1.323-.45 9.06 9.06 0 0 0-1.325-.362c-.44-.101-.883-.203-1.314-.246-.433-.058-.87-.131-1.281-.116-.417-.015-.843-.044-1.221.014-.396.029-.788.058-1.127.174l-.534.116c-.108.044-.205.087-.316.13l-.165.044c-.062.015-.091-.014-.23.087l-.686.435-.345.217-.086.058h-.01c-.226.16.296-.202.24-.173l-.011.014-.025.029-.094.087-.387.333c-.287.189-.458.537-.712.783-.228.29-.391.638-.609.943l-.493 1.087-.365 1.218c-.079.42-.182.841-.251 1.29-.04.436-.103.885-.133 1.335l-.04 1.377.064 1.407.168 1.406.267 1.392.36 1.377c.268.914.587 1.798.967 2.654.191.42.419.826.622 1.232l.716 1.16h.003a2.649 2.649 0 0 1-3.935 3.538l-.279-.275-.94-.928-1.026-.885-1.106-.812-1.174-.725-1.214-.681-1.256-.595a24.143 24.143 0 0 0-2.592-.913c-1.746-.479-3.515-.74-5.132-.624a9.097 9.097 0 0 0-2.25.435c-.346.102-.478.218-.754.29-.352.174-.861.551-1.282.812-.052.044.41-.29.212-.145h-.006l-.011.015-.023.029-.045.043-.09.087-.186.16c-.12.13-.264.217-.374.348-.199.29-.452.522-.64.84a9.172 9.172 0 0 0-.97 2.074c-.523 1.523-.7 3.306-.678 5.119.017.913.112 1.826.246 2.74l.263 1.363.354 1.348.42 1.305.51 1.276.6 1.218.67 1.146h.008a2.673 2.673 0 0 1-.516 3.74 2.663 2.663 0 0 1-3.605-.362l-.093-.101c-2.041-2.32-4.986-4.118-8.016-5.235-3.03-1.044-6.36-1.464-8.762-.522-.266.102-.412.218-.641.276-.067-.015-.33.203-.505.304l-.58.406-.143.087-.073.058c-.064.044.399-.29.196-.145l-.017.03-.144.144-.297.276c-.23.16-.342.464-.537.667-.664.971-1.112 2.305-1.326 3.784-.231 1.479-.183 3.088.007 4.698a22.622 22.622 0 0 0 1.042 4.77c.237.783.553 1.537.875 2.277.172.348.34.74.511 1.058l.502.899.782 1.131.1.145c.091.13-.096-.116-.068-.087l.027.029.05.058.211.246.42.493 1.665 1.958c.571.638 1.227 1.189 1.833 1.783.613.595 1.22 1.19 1.922 1.668l2.022 1.522 2.178 1.276c2.956 1.566 6.124 2.828 9.487 3.248 3.334.479 6.78.58 10.183-.043 3.395-.551 6.777-1.48 9.987-2.915 1.643-.623 3.18-1.508 4.753-2.29.786-.407 1.482-.9 2.23-1.335.74-.478 1.463-.84 2.231-1.435l2.275-1.624.568-.406.437-.377 1.02-.856c.673-.58 1.382-1.116 2.025-1.725l1.908-1.856c.657-.594 1.234-1.261 1.817-1.928.578-.667 1.193-1.305 1.743-1.987 1.04-1.406 2.183-2.755 3.06-4.263 1.938-2.9 3.392-6.075 4.42-9.337 1.096-3.248 1.479-6.656 1.41-10.005-.011-3.364-.824-6.684-2.025-9.816l-.979-2.334-1.186-2.132c-.204-.362-.364-.71-.603-1.087l-.808-1.131-1.616-2.291.104.145zm5.37-3.959l1.587 2.306.793 1.16c.261.42.513.913.767 1.363l1.507 2.784 1.157 2.842c1.413 3.813 2.336 7.902 2.312 12.005.044 4.089-.52 8.207-1.832 12.035-1.246 3.842-2.986 7.51-5.211 10.802-1.027 1.71-2.31 3.219-3.505 4.8-.626.753-1.31 1.464-1.963 2.203-.658.725-1.314 1.464-2.042 2.131l-2.131 2.016c-.718.667-1.495 1.261-2.242 1.9l-1.13.927-.283.232-.143.116-.223.174-.565.42-2.262 1.64c-.71.565-1.636 1.087-2.465 1.623-.853.522-1.692 1.102-2.562 1.552-1.749.913-3.455 1.899-5.303 2.624-3.6 1.624-7.465 2.755-11.42 3.422-3.952.754-8.071.696-12.11.174-4.07-.479-7.997-1.943-11.628-3.814l-2.67-1.537-2.473-1.797c-.851-.58-1.59-1.276-2.331-1.972-.736-.696-1.52-1.349-2.206-2.088l-1.99-2.277-.495-.58-.248-.275-.06-.073-.033-.043-.119-.16-.101-.145-.816-1.16-.9-1.522c-.273-.493-.482-.957-.723-1.45-.44-.971-.851-1.943-1.17-2.943a29.064 29.064 0 0 1-1.398-6.12C.361 51.467.32 49.32.673 47.103c.348-2.204 1.05-4.524 2.513-6.626.407-.508.723-1.059 1.235-1.494l.725-.667.367-.333.046-.044c-.181.13.3-.217.264-.188l.074-.044.148-.101.593-.377c.225-.13.323-.218.699-.392.63-.304 1.314-.623 1.928-.826 2.35-.797 4.714-.87 6.905-.624 2.204.247 4.276.856 6.229 1.668 3.877 1.653 7.363 4.103 10.006 7.627l-4.214 3.277-.007-.015a50.849 50.849 0 0 1-1.144-1.464c-.326-.522-.662-1.03-.97-1.566l-.834-1.61-.709-1.653-.562-1.71-.444-1.74a28.027 28.027 0 0 1-.533-3.567c-.2-2.422-.01-4.945.739-7.468.373-1.261.945-2.494 1.686-3.683.36-.594.847-1.145 1.282-1.696.232-.275.515-.507.776-.754l.401-.377.202-.174.101-.101.051-.044.025-.014.014-.015.232-.16c.473-.304.827-.565 1.401-.884.705-.348 1.505-.754 2.176-.942 1.331-.42 2.68-.667 3.99-.725a20.418 20.418 0 0 1 7.408 1.145c1.152.392 2.255.87 3.33 1.392l1.577.87 1.514.971 1.43 1.102 1.354 1.204c.432.42.85.884 1.267 1.32.391.478.767.985 1.141 1.478l-4.214 3.263h-.002c-.379-.508-.775-1-1.133-1.523-.323-.522-.671-1.058-.97-1.595a27.385 27.385 0 0 1-1.53-3.35l-.56-1.739-.441-1.769-.32-1.812-.188-1.827c-.032-.624-.036-1.247-.048-1.87.016-.639.077-1.262.12-1.9.073-.638.195-1.276.3-1.914.143-.638.334-1.276.51-1.914.242-.638.49-1.276.774-1.914.35-.609.655-1.232 1.076-1.827.457-.565.835-1.174 1.395-1.667l.81-.769.205-.188.052-.044.026-.029.27-.188.085-.058.342-.218c.532-.45 2.832-1.566 3.998-1.71.706-.204 1.392-.276 2.078-.334.697-.102 1.357-.073 2.022-.058.676-.015 1.311.072 1.952.145.65.072 1.267.203 1.882.333.625.116 1.227.29 1.815.464.6.174 1.19.363 1.756.595 1.156.42 2.256.942 3.334 1.508 1.077.55 2.11 1.203 3.126 1.87l1.48 1.088 1.421 1.203c.46.42.903.884 1.353 1.32.433.478.852.985 1.271 1.493l.103.13z" fill-rule="nonzero" fill="#231F20"/>
        <path d="M113.77 153.04a34.383 34.383 0 0 1 .282 16.11m33.341-42.256a34.276 34.276 0 0 0 16.106.275m-33.35 12.352l11.403 11.407" stroke="#231F20" stroke-width="6.667" stroke-linecap="round" stroke-linejoin="round"/>
    </g>
</svg>
