<svg width="87" height="168" xmlns="http://www.w3.org/2000/svg">
    <title>
        kin
    </title>
    <g fill="none" fill-rule="evenodd">
        <path d="M83.342 124.143c0 22.084-17.909 39.995-39.999 39.995-22.092 0-40-17.91-40-39.995V44.138c0-22.085 17.908-39.995 40-39.995 22.09 0 40 17.91 40 39.995v80.005" fill-rule="nonzero" fill="#FFF"/>
        <path d="M83.342 124.143c0 22.084-17.909 39.995-39.999 39.995-22.092 0-40-17.91-40-39.995V44.138c0-22.085 17.908-39.995 40-39.995 22.09 0 40 17.91 40 39.995v80.005z" stroke="#231F20" stroke-width="6.667"/>
        <path d="M31.746 34.092l26.262 16.655L31.34 67.432l26.668 16.67-26.668 16.741 26.668 16.67-26.668 16.699" stroke-linecap="round" stroke-width="5.333" stroke="#231F20" stroke-linejoin="round"/>
    </g>
</svg>
