<svg width="168" height="168" xmlns="http://www.w3.org/2000/svg">
    <title>
        kiwen
    </title>
    <g fill="none" fill-rule="evenodd">
        <path d="M124.065 35.15c25.668 0 40 17.899 40 40v24.674c0 44.176-35.816 64.328-79.999 64.328-44.183 0-80-20.152-80-64.328V75.151c0-43.67 34.435-71.334 70.333-71.334 12.535 0 15.92 12.41 20.63 31.333h29.036" fill="#FFF" fill-rule="nonzero"/>
        <path d="M124.065 35.15c25.668 0 40 17.899 40 40v24.674c0 44.176-35.816 64.328-79.999 64.328-44.183 0-80-20.152-80-64.328V75.151c0-43.67 34.435-71.334 70.333-71.334 12.535 0 15.92 12.41 20.63 31.333h29.036z" stroke="#231F20" stroke-width="6.667" stroke-linecap="round" stroke-linejoin="round"/>
        <path d="M4.07 77.333h159.003m-153.676 51H159.73M33.343 84.556l32.558 26.52m0-26.52l-32.558 26.52m67.887-26.52l32.556 26.52m0-26.52l-32.557 26.52" stroke="#231F20" stroke-width="5.333" stroke-linecap="round" stroke-linejoin="round"/>
    </g>
</svg>
