<svg width="167" height="169" xmlns="http://www.w3.org/2000/svg">
    <title>
        ko
    </title>
    <g fill="none" fill-rule="evenodd">
        <path d="M153.451 104.925c5.638 49.463-8.35 60.213-37.034 60.213-21.652 0-39.212-26.954-39.212-60.213 0-33.273 15.373-60.227 37.04-60.227 21.652 0 35.216 25.122 39.206 60.227" fill="#FFF" fill-rule="nonzero"/>
        <path d="M150.139 105.295c0-.043-.17-1.251-.455-3.484a313.063 313.063 0 0 0-1.564-9.81c-.796-4.181-1.82-9.286-3.64-14.903-.91-2.815-2.02-5.758-3.427-8.716-1.394-2.972-3.118-5.972-5.211-8.816-2.12-2.815-4.615-5.56-7.628-7.678a24.023 24.023 0 0 0-10.333-4.294c-3.866-.555-7.867-.285-11.694 1.18-3.813 1.393-7.372 3.867-10.4 7.01-6.105 6.342-10.226 15.015-12.76 24.158a89.819 89.819 0 0 0-2.639 14.177c-.28 2.403-.414 4.849-.508 7.237-.08 2.489-.08 4.892.027 7.323.441 9.684 2.321 19.367 6.054 28.083.947 2.176 1.973 4.294 3.133 6.3 1.16 2.033 2.413 3.98 3.814 5.787 2.786 3.611 6.066 6.725 9.693 9.015a28.737 28.737 0 0 0 5.652 2.701c.974.356 1.961.597 2.935.825l1.48.256c.492.085.919.085 1.387.142.412.071 1.026.071 1.572.085l.84.029.693-.014a116.38 116.38 0 0 0 3.201-.114 84.727 84.727 0 0 0 6.2-.569c2-.256 3.92-.682 5.76-1.166a31.247 31.247 0 0 0 5.147-1.962 23.17 23.17 0 0 0 4.267-2.844c1.28-1.08 2.347-2.332 3.313-3.626 3.74-5.36 5.077-11.887 5.745-17.603.626-5.788.569-10.978.398-15.243-.185-4.294-.47-7.608-.697-9.925-.213-2.162-.34-3.384-.355-3.54zm6.626-.71l.37 3.568c.241 2.346.554 5.887.753 10.323.2 4.465.285 9.925-.37 16.267-.355 3.157-.895 6.555-1.919 10.096-1.038 3.526-2.602 7.237-5.048 10.707-1.28 1.706-2.73 3.37-4.436 4.806a29.076 29.076 0 0 1-5.63 3.725 36.939 36.939 0 0 1-6.364 2.418c-2.187.568-4.414 1.038-6.667 1.322-2.253.299-4.533.47-6.813.526a69.385 69.385 0 0 1-3.44.043h-.986l-.84-.043c-.56-.028-1.081-.028-1.788-.128-5.226-.569-9.96-2.602-14.2-5.46-4.173-2.93-7.8-6.57-10.759-10.679-3.027-4.08-5.507-8.574-7.48-13.266-3.973-9.413-6.054-19.651-6.468-29.917a97.378 97.378 0 0 1-.012-7.65c.106-2.602.253-5.148.547-7.679a93.053 93.053 0 0 1 2.825-15.001c2.735-9.726 7.107-19.125 14.068-26.348 3.44-3.598 7.614-6.555 12.266-8.29 4.615-1.806 9.694-2.161 14.308-1.493 4.665.725 9.026 2.588 12.572 5.162 3.613 2.53 6.453 5.659 8.846 8.801 4.692 6.385 7.565 12.954 9.826 18.798a114.122 114.122 0 0 1 4.578 15.513c1.01 4.366 1.479 7.835 1.82 10.21.27 2.374.441 3.64.441 3.64v.028z" fill="#231F20" fill-rule="nonzero"/>
        <path d="M119.565 91.579c6.12 60.432-9.067 73.562-40.228 73.562-23.532 0-42.6-32.924-42.6-73.562 0-40.624 16.708-73.548 40.227-73.548 23.534 0 38.267 30.683 42.6 73.548" fill="#FFF" fill-rule="nonzero"/>
        <path d="M116.9 91.868s-.16-1.439-.493-4.143c-.373-2.69-.853-6.662-1.84-11.625-1.013-4.963-2.373-10.963-4.534-17.61-2.106-6.646-4.893-14.056-9.253-21.177-1.066-1.799-2.32-3.496-3.626-5.194-1.36-1.64-2.827-3.223-4.44-4.647-3.267-2.805-7.12-5.064-11.48-5.87-4.374-.863-9.067-.503-13.373 1.425-4.333 1.899-8.267 5.15-11.574 9.135-6.65 8.014-10.966 18.53-13.704 29.45a119.962 119.962 0 0 0-2.919 16.862c-.32 2.863-.495 5.755-.629 8.603-.073 1.439-.077 2.935-.119 4.388.004 1.396-.003 2.878.027 4.302.305 11.538 2.09 23.105 5.909 33.795 1.925 5.323 4.348 10.416 7.329 15.034 1.506 2.302 3.146 4.475 4.96 6.446a40.55 40.55 0 0 0 5.867 5.25c2.066 1.526 4.253 2.792 6.52 3.698 2.24.907 4.639 1.496 6.813 1.727l.8.1c.253.03.64.015.946.03l.987.028h.253l.121.014c-.24-.014 0-.014-.027-.014l.48-.014c1.267-.03 2.533-.058 3.773-.144 2.48-.115 4.907-.331 7.24-.72 4.68-.719 8.974-2.172 12.493-4.43a26.004 26.004 0 0 0 4.694-3.929c1.346-1.496 2.547-3.107 3.52-4.848 2-3.453 3.24-7.265 4.16-10.963.893-3.712 1.439-7.366 1.76-10.833.706-6.935.612-13.107.44-18.17-.2-5.08-.48-9.021-.707-11.77a979.4 979.4 0 0 0-.374-4.2v.014zm5.32-.518s.134 1.468.4 4.216c.267 2.733.6 6.862.854 12.041.053 1.295.093 2.676.147 4.115.012 1.439.04 2.95.053 4.518-.013 3.165-.04 6.574-.333 10.243-.24 3.669-.72 7.596-1.614 11.711-.906 4.1-2.2 8.46-4.52 12.704-1.132 2.129-2.587 4.186-4.253 6.129a29.598 29.598 0 0 1-5.96 5.107c-4.48 2.892-9.72 4.59-15 5.424-2.64.446-5.32.705-8.012.82-1.348.057-2.695.057-4.042.057h-.772l-.134-.014-.24-.014-.986-.058c-.348-.029-.627-.029-1.027-.086l-1.161-.159c-6.066-.935-11.452-3.898-15.853-7.769-4.44-3.884-7.973-8.603-11.026-13.566a85.051 85.051 0 0 1-4.138-7.755c-1.231-2.662-2.313-5.395-3.325-8.172-1.992-5.553-3.487-11.308-4.615-17.163A127.766 127.766 0 0 1 34.66 95.91c-.06-1.496-.085-2.964-.118-4.503.013-1.482-.011-2.92.033-4.417.08-3.021.202-5.985.472-8.949a124.591 124.591 0 0 1 2.69-17.58c2.657-11.481 6.892-22.703 14.165-31.882 3.64-4.546 8.146-8.517 13.506-11.006 5.346-2.518 11.452-3.15 17-2.144 5.626.993 10.573 3.827 14.506 7.165 1.972 1.698 3.693 3.54 5.28 5.41 1.52 1.913 2.946 3.84 4.16 5.812a70.818 70.818 0 0 1 6 11.725c1.573 3.856 2.853 7.553 3.827 11.092 1.987 7.064 3.133 13.323 3.96 18.473.8 5.15 1.32 9.208 1.64 11.985.28 2.762.427 4.244.427 4.244l.013.014z" fill="#231F20" fill-rule="nonzero"/>
        <path d="M134.085 83.275c24.427-3.915 29.322-14.738 29.322-39.1 0-24.361-24.575-39.923-46.668-39.923H83.404c-44.183 0-80 35.82-80 80.006v39.996c0 22.093 17.91 39.995 40 39.995h-.055c22.096 0 40.003-17.902 40.003-39.995V86.917s26.292.274 50.733-3.642" fill="#FFF" fill-rule="nonzero"/>
        <path d="M134.085 83.275c24.427-3.915 29.322-14.738 29.322-39.1 0-24.361-24.575-39.923-46.668-39.923H83.404c-44.183 0-80 35.82-80 80.006v39.996c0 22.093 17.91 39.995 40 39.995h-.055c22.096 0 40.003-17.902 40.003-39.995V86.917s26.292.274 50.733-3.642z" stroke="#231F20" stroke-width="6.667" stroke-linecap="round" stroke-linejoin="round"/>
        <path d="M109.618 43.367s-.013-.444-.053-1.276c0-.417-.093-.919-.186-1.507-.054-.603-.254-1.277-.454-2.023-.466-1.463-1.173-3.242-2.426-5.05-1.241-1.794-3.027-3.616-5.36-5.065-.6-.33-1.174-.746-1.841-1.019-.32-.157-.653-.315-.973-.473-.333-.13-.693-.244-1.04-.373-1.4-.53-2.947-.804-4.399-1.019-.387-.043-.868-.057-1.307-.086l-.667-.029-.347-.028c-.106 0 .107 0 .067.014h-.106l-.16.014c-.814.058-1.64.044-2.467.201-1.667.173-3.294.703-4.907 1.306-1.574.689-3.106 1.564-4.493 2.654-1.36 1.105-2.613 2.368-3.64 3.817a20.283 20.283 0 0 0-2.374 4.72c-.52 1.793-.773 3.099-.813 5.366v-.1.028l.013.086v.172l.013.33.04.66c-.013.445.093.876.148 1.32.093.876.373 1.722.6 2.569a20.006 20.006 0 0 0 2.373 4.72c1.027 1.449 2.28 2.712 3.64 3.83 1.387 1.077 2.92 1.952 4.493 2.64.814.288 1.6.632 2.44.804l1.227.316 1.173.186c.72.158 1.733.144 2.614.215h.173l.08.015h-.028l.307-.029.613-.029c.4-.028.8-.028 1.2-.071 3.16-.373 6.04-1.42 8.347-2.899 2.333-1.449 4.119-3.27 5.36-5.064 1.253-1.808 1.96-3.573 2.426-5.05.2-.747.4-1.42.454-1.952.08-.545.186-.975.186-1.52.04-.962.068-1.464.068-1.464l-.015.143zm5.335.144s-.028.502-.094 1.463c0 .445-.107 1.177-.254 2.009-.106.86-.373 1.736-.652 2.712a21.802 21.802 0 0 1-3.32 6.513 23.319 23.319 0 0 1-7 6.184 26.083 26.083 0 0 1-10.375 3.358c-.492.057-.973.043-1.467.071l-.733.029-.373.014-.453-.014c-.934-.057-1.746-.014-2.867-.2-.533-.073-1.067-.13-1.587-.216-.506-.115-1.013-.244-1.519-.359-1.027-.215-2-.617-3.014-.947-1.973-.789-3.907-1.808-5.693-3.113-1.76-1.334-3.414-2.884-4.787-4.692-1.36-1.836-2.493-3.874-3.267-6.069-.32-1.119-.68-2.238-.826-3.4-.093-.574-.227-1.148-.227-1.736l-.053-.875-.027-.445-.013-.215-.013-.115v-.244c.026-1.85.44-4.649 1.16-6.743.773-2.21 1.906-4.247 3.266-6.07 1.373-1.821 3.028-3.371 4.787-4.705 1.786-1.292 3.72-2.31 5.693-3.1 2-.731 4.014-1.334 6.053-1.534 1.014-.173 2.014-.144 3.014-.201l.187-.015h.293l.334.015.665.028c.467.029.881.015 1.36.072 2.054.23 3.907.574 5.628 1.19 1.76.546 3.373 1.32 4.853 2.167 2.96 1.722 5.306 3.932 7 6.184a21.97 21.97 0 0 1 3.32 6.514c.293.99.547 1.865.64 2.654.134.79.267 1.45.267 1.994.066 1.105.094 1.693.094 1.693v.144z" fill="#231F20" fill-rule="nonzero"/>
        <path d="M98.505 43.381c0 4.049-3.52 7.341-7.867 7.341-4.348 0-7.867-3.292-7.867-7.34 0-4.063 3.52-7.356 7.867-7.356 4.346 0 7.867 3.293 7.867 7.355" fill="#231F20" fill-rule="nonzero"/>
    </g>
</svg>
