<svg width="168" height="92" xmlns="http://www.w3.org/2000/svg">
    <title>
        kon
    </title>
    <g fill="none">
        <path d="M33.062 58.197s6.009-10.166 18.823-10.166c15.506 0 21.344 11.29 44.012 11.29 16.83 0 40.167-6.62 40.167-23.407 0-11.662-8.443-18.098-21.201-16.019-12.544 2.05-22.312 16.303-44.966 8.97C53.537 23.57 41.307 7.863 29.76 7.863c-14.368 0-26.03 9.527-26.03 23.893v30.243c0 14.38 11.662 26.042 26.029 26.042 9.312 0 24.134-3.844 24.134-15.833C71.065 83.029 86.557 88.04 112.727 88.04c32.165 0 51.003-17.912 51.003-40.01v-1.325c.442-28.448-15.563-47.115-39.996-42.673C99.272 8.476 94.06 18.7 51.558 18.7" fill="#FFF"/>
        <path d="M31.352 57.17c1.239-2.037 2.634-3.588 4.243-5.112a25.286 25.286 0 0 1 5.41-3.787c3.9-2.035 8.584-2.904 12.827-2.633 4.441.185 8.656 1.452 12.514 3.06 3.843 1.61 7.374 3.389 10.99 4.713a51.836 51.836 0 0 0 11.09 2.762c3.773.47 7.702.57 11.518.313 3.872-.256 7.73-.812 11.46-1.723 3.744-.882 7.417-2.092 10.749-3.8 3.317-1.68 6.35-3.873 8.428-6.65a14.318 14.318 0 0 0 2.292-4.498c.228-.812.37-1.637.455-2.477.072-.854.114-1.666.043-2.648-.17-3.445-1.395-6.834-3.772-9.04-2.335-2.264-5.738-3.374-9.311-3.488a24.451 24.451 0 0 0-5.382.427l-.726.142-.612.157c-.384.085-.84.256-1.267.37-.854.299-1.708.626-2.577.996-3.473 1.51-6.961 3.574-10.748 5.353-3.773 1.78-7.916 3.246-12.258 3.816-4.342.598-8.755.313-12.955-.57-2.079-.455-4.171-1.01-6.136-1.708a51.274 51.274 0 0 1-5.908-2.548c-3.773-1.894-7.275-4.129-10.65-6.421-3.387-2.278-6.633-4.641-9.908-6.706-3.26-2.035-6.62-3.815-9.78-4.285-1.438-.213-3.403-.085-5.125.128a25.73 25.73 0 0 0-5.211 1.239c-3.346 1.167-6.364 3.09-8.727 5.58a18.983 18.983 0 0 0-4.74 8.97c-.4 1.708-.528 3.345-.513 5.267v6.022l.014 24.046c.057 7.09 3.716 13.88 9.453 17.952a22.862 22.862 0 0 0 9.595 4c3.403.556 7.19.342 10.82-.327 3.602-.697 7.118-1.922 9.823-3.886 2.72-1.965 4.357-4.67 4.456-7.973v-.043c.057-1.494 1.296-2.662 2.777-2.605a2.81 2.81 0 0 1 1.324.384c4.854 2.962 9.851 5.624 15.033 7.774 5.168 2.178 10.535 3.772 16.03 4.897 5.496 1.11 11.12 1.708 16.786 1.979 2.818.128 5.666.2 8.513.185 1.295.028 2.89-.043 4.257-.085 1.366-.086 2.705-.157 4.1-.314 5.495-.555 10.933-1.708 16.002-3.673 5.054-1.95 9.78-4.726 13.667-8.357 3.872-3.601 6.89-8.072 8.67-12.998a32.488 32.488 0 0 0 1.794-7.645 52.21 52.21 0 0 0 .199-3.986c-.014-1.41.014-2.932-.029-4.285-.142-5.424-1.01-10.948-2.776-16.016-1.765-5.068-4.484-9.752-8.2-13.354a25.844 25.844 0 0 0-13.496-6.905c-2.549-.441-5.168-.555-7.816-.37-.655.071-1.324.1-1.979.2l-1.936.298-4.257.84c-5.324 1.168-10.734 3.004-16.172 4.955-5.439 1.95-11.12 3.886-16.942 5.168-5.808 1.352-11.717 2.15-17.596 2.576-5.88.499-11.76.541-17.625.541a2.667 2.667 0 0 1-2.662-2.662 2.687 2.687 0 0 1 2.605-2.676h.057c5.737-.128 11.46-.285 17.126-.883 5.652-.54 11.261-1.352 16.714-2.705 5.481-1.295 10.777-3.175 16.201-5.21 5.453-2.036 11.005-4.044 16.984-5.439l4.257-.911a47.202 47.202 0 0 1 4.698-.67c3.132-.27 6.35-.184 9.51.371 6.335 1.082 12.4 4.157 17.013 8.642 4.613 4.513 7.816 10.15 9.823 16.002 2.022 5.893 3.004 11.944 3.175 18.094.057 1.552.028 2.919.043 4.4l-.057 2.334c-.043.797-.114 1.58-.171 2.363a39.598 39.598 0 0 1-2.136 9.24c-2.15 5.98-5.822 11.375-10.45 15.632-4.598 4.285-10.079 7.46-15.83 9.666-5.752 2.193-11.76 3.502-17.782 4-1.495.143-3.032.214-4.584.285-1.509.029-2.819.071-4.428.029a204.624 204.624 0 0 1-8.84-.328c-5.909-.37-11.831-1.096-17.682-2.377-5.837-1.281-11.603-3.075-17.07-5.524-5.467-2.434-10.649-5.381-15.603-8.585l4.1-2.249c.043 2.378-.413 4.883-1.523 7.133-1.096 2.249-2.762 4.114-4.584 5.595-3.716 2.932-7.973 4.498-12.201 5.438-2.136.47-4.285.769-6.463.911-2.136.157-4.5.085-6.706-.285-4.499-.712-8.827-2.463-12.5-5.125C5.185 80.574.502 71.662.416 62.608L.402 38.39v-6.02c-.014-2.107.142-4.513.655-6.72.968-4.498 3.217-8.77 6.406-12.1 3.16-3.36 7.204-5.766 11.46-7.19a32.33 32.33 0 0 1 6.535-1.452c2.25-.228 4.342-.384 6.89-.014 4.841.854 8.642 3.132 12.145 5.367 3.502 2.278 6.72 4.698 9.994 6.962 3.231 2.263 6.506 4.399 9.894 6.164a48.098 48.098 0 0 0 5.14 2.292c1.822.67 3.615 1.167 5.452 1.609 3.659.811 7.374 1.082 11.033.626 3.645-.427 7.204-1.609 10.72-3.217 3.517-1.566 6.962-3.602 10.891-5.31a38.266 38.266 0 0 1 3.033-1.168c.555-.156 1.025-.342 1.637-.47l.854-.213.755-.157a30.197 30.197 0 0 1 6.605-.498c2.236.1 4.513.484 6.706 1.267 2.178.811 4.285 2.022 6.022 3.687a16.67 16.67 0 0 1 3.972 5.88c.897 2.207 1.338 4.427 1.466 6.762.071 1.025.043 2.221-.057 3.374a18.947 18.947 0 0 1-.655 3.431 19.046 19.046 0 0 1-3.103 6.222c-2.762 3.701-6.45 6.306-10.25 8.271-7.688 3.872-16.002 5.552-24.317 6.093-4.2.257-8.342.143-12.556-.398-4.186-.541-8.343-1.637-12.244-3.16-3.929-1.496-7.56-3.39-11.118-4.927-3.545-1.551-7.133-2.605-10.749-2.833-3.773-.313-7.317.242-10.606 1.794a21.414 21.414 0 0 0-4.584 2.933c-1.367 1.153-2.72 2.59-3.659 3.943l-.057.114a1.99 1.99 0 0 1-2.776.527 1.982 1.982 0 0 1-.584-2.69" fill="#231F20"/>
        <path d="M97.44 72.208a3.121 3.121 0 0 1-3.136 3.121 3.13 3.13 0 0 1-3.135-3.121 3.133 3.133 0 0 1 3.135-3.136 3.124 3.124 0 0 1 3.136 3.136m17.499-.5a3.12 3.12 0 0 1-3.123 3.123 3.13 3.13 0 0 1-3.136-3.123 3.143 3.143 0 0 1 3.136-3.136 3.13 3.13 0 0 1 3.123 3.136m16.175-4.506a3.122 3.122 0 0 1-3.115 3.129 3.137 3.137 0 0 1-3.142-3.129 3.137 3.137 0 0 1 3.142-3.129 3.122 3.122 0 0 1 3.115 3.129m13.011-10.54a3.125 3.125 0 0 1-3.13 3.13 3.125 3.125 0 0 1-3.128-3.13 3.134 3.134 0 0 1 3.129-3.13 3.134 3.134 0 0 1 3.129 3.13" fill="#231F20"/>
    </g>
</svg>
