<svg width="168" height="168" xmlns="http://www.w3.org/2000/svg">
    <title>
        kule
    </title>
    <g fill="none" fill-rule="evenodd">
        <path d="M157.404 76.12c0 39.808-32.269 72.077-72.063 72.077-39.809 0-72.077-32.269-72.077-72.078 0-39.794 32.268-72.063 72.077-72.063 39.794 0 72.063 32.269 72.063 72.063" fill="#FFF" fill-rule="nonzero"/>
        <path d="M107.577 96.813c0-15.609 12.658-28.252 28.266-28.252 15.608 0 28.266 12.643 28.266 28.252l-.07 27.057c0 22.099-17.913 40.01-39.997 40.01H44.035c-22.085 0-39.997-17.911-39.997-40.01V96.813c0-15.609 12.658-28.252 28.252-28.252 15.608 0 28.252 12.643 28.252 28.252 0-12.981 10.536-23.518 23.517-23.518 13.01 0 23.518 10.537 23.518 23.518" fill="#FFF" fill-rule="nonzero"/>
        <path d="M107.577 96.813c0-15.609 12.658-28.252 28.266-28.252 15.608 0 28.266 12.643 28.266 28.252l-.07 27.057c0 22.099-17.913 40.01-39.997 40.01H44.035c-22.085 0-39.997-17.911-39.997-40.01V96.813c0-15.609 12.658-28.252 28.252-28.252 15.608 0 28.252 12.643 28.252 28.252 0-12.981 10.536-23.518 23.517-23.518 13.01 0 23.518 10.537 23.518 23.518z" stroke="#231F20" stroke-width="6.667" stroke-linecap="round" stroke-linejoin="round"/>
        <path d="M10.741 76.87c0-40.51 32.84-73.335 73.322-73.335 40.51 0 73.336 32.825 73.336 73.336" stroke="#231F20" stroke-width="6.667" stroke-linecap="round" stroke-linejoin="round"/>
        <path d="M97.188 74.545l32.314-55.971M83 73.203V4.534M70.028 74.531L38.302 19.574" stroke="#231F20" stroke-width="5.333" stroke-linecap="round" stroke-linejoin="round"/>
    </g>
</svg>
