<svg width="167" height="166" xmlns="http://www.w3.org/2000/svg">
    <title>
        kulupu
    </title>
    <g fill="none" fill-rule="evenodd">
        <path d="M31.29 152.496c13.993 10.665 16.065 9.629 28.373 7.156 3.95 3.509 14.118 3.15 18.29-.36 2.002 3.869 13.634 5.61 18.04.015 2.956 3.854 18.953 8.523 33.623-18.47 14.67-27.006 0-35.004 0-35.004H41.097l-9.808 46.663" fill-rule="nonzero" fill="#FFF"/>
        <path d="M93.948 159.876c3.77 2.672 8.234 2.672 8.234 2.672 11.354 0 20.57-8.956 20.57-19.992v-29.007H50.771v29.339c0 11.036-8.97 19.992-20.007 19.992h-7.339c-11.05 0-19.992-8.956-19.992-19.992v-30.003c0-11.051 8.942-20.007 19.992-20.007H30.1V56.215c0-29.454 23.864-53.333 53.333-53.333 29.454 0 53.333 23.879 53.333 53.333v36.663h6.659c11.05 0 20.007 8.956 20.007 20.007v30.003c0 11.036-8.956 19.992-20.007 19.992H136.1c-6.876 0-12.943-3.467-16.554-8.754" fill-rule="nonzero" fill="#FFF"/>
        <path d="M93.948 159.876c3.77 2.672 8.234 2.672 8.234 2.672 11.354 0 20.57-8.956 20.57-19.992v-29.007H50.771v29.339c0 11.036-8.97 19.992-20.007 19.992h-7.339c-11.05 0-19.992-8.956-19.992-19.992v-30.003c0-11.051 8.942-20.007 19.992-20.007H30.1V56.215c0-29.454 23.864-53.333 53.333-53.333 29.454 0 53.333 23.879 53.333 53.333v36.663h6.659c11.05 0 20.007 8.956 20.007 20.007v30.003c0 11.036-8.956 19.992-20.007 19.992H136.1c-6.876 0-12.943-3.467-16.554-8.754" stroke="#231F20" stroke-width="5.333"/>
        <path d="M69.568 113.548v29.007c0 11.04-9.224 19.989-20.595 19.989 0 0-4.102.165-7.874-2.492" stroke="#231F20" stroke-width="5.333"/>
        <path d="M87.3 113.548v29.007c0 11.04-9.21 19.989-20.582 19.989 0 0-4.46 0-8.232-2.657" stroke="#231F20" stroke-width="5.333"/>
        <path d="M105.03 113.548v29.007c0 11.04-9.21 19.989-20.58 19.989 0 0-4.46 0-8.233-2.657M52.78 92.87V57.975c0-16.94 13.724-30.664 30.665-30.664 16.94 0 30.65 13.723 30.65 30.664V92.87H52.78zm6.883-54.215l54.429 54.23m-6.9-54.23l-54.428 54.23" stroke="#231F20" stroke-width="5.333"/>
    </g>
</svg>
