<svg width="167" height="168" xmlns="http://www.w3.org/2000/svg">
    <title>
        kute
    </title>
    <g fill="none" fill-rule="evenodd">
        <path d="M163.762 118.55c0 25.338-17.913 45.33-40 45.33-39.552 0-40-36.59-40-48.002 0 11.412-.447 48.002-39.999 48.002-22.087 0-40-19.111-40-45.33V83.881c0-44.188 35.81-79.999 80-79.999 44.174 0 79.999 35.81 79.999 80v34.668" fill-rule="nonzero" fill="#FFF"/>
        <path d="M160.837 118.539l-.058-28.73c-.014-2.373.029-4.833-.043-7.133-.03-2.3-.203-4.6-.42-6.886a74.186 74.186 0 0 0-2.705-13.526 76.597 76.597 0 0 0-12.34-24.52 77.016 77.016 0 0 0-20.195-18.59c-7.74-4.919-16.362-8.478-25.36-10.33-2.242-.448-4.514-.839-6.8-1.084-1.142-.174-2.256-.232-3.385-.319l-1.678-.13-1.78-.043c-4.614-.116-9.2.13-13.742.824a76.884 76.884 0 0 0-25.88 8.868c-8.015 4.456-15.176 10.402-21.108 17.404a76.892 76.892 0 0 0-13.656 23.681 72.82 72.82 0 0 0-3.429 13.28c-.347 2.257-.665 4.557-.81 6.77l-.13 1.679-.043 1.794-.058 1.794-.015.81v.897l-.029 28.716c0 2.372-.028 4.846.044 7.03a54.22 54.22 0 0 0 .723 6.684c.796 4.398 2.141 8.694 4.167 12.644 3.963 7.913 10.59 14.48 18.661 17.808a33.332 33.332 0 0 0 6.235 1.91c1.057.231 2.141.376 3.212.506l1.548.13 1.78.058c4.397.043 9.012-.42 13.193-1.635 4.224-1.186 8.13-3.182 11.4-5.974 3.269-2.792 5.902-6.337 7.811-10.33 1.939-3.992 3.169-8.39 3.993-12.89.796-4.513 1.1-9.127 1.172-13.844v-.072a2.664 2.664 0 0 1 2.69-2.633 2.667 2.667 0 0 1 2.634 2.705c.072 5.7.506 11.255 1.736 16.622 1.2 5.353 3.153 10.489 6.162 14.814 2.995 4.311 7.06 7.754 11.82 9.895 2.386 1.1 4.918 1.881 7.522 2.416 2.604.55 5.367.81 8 .897.651.03 1.49.015 2.098.03l1.967-.059a35.924 35.924 0 0 0 3.906-.463 33.377 33.377 0 0 0 7.508-2.3 37.062 37.062 0 0 0 12.745-9.345c3.545-3.993 6.322-8.738 8.174-13.83a48.824 48.824 0 0 0 2.069-7.87c.217-1.331.39-2.705.506-4.036l.145-1.997.043-2.17v.073zm5.859.058l-.043 2.17-.13 2.329a58.98 58.98 0 0 1-.55 4.542 52.414 52.414 0 0 1-2.257 8.897c-1.997 5.787-5.035 11.27-9.07 15.986-4.022 4.716-9.071 8.65-14.814 11.211a39.138 39.138 0 0 1-8.999 2.807 39.721 39.721 0 0 1-4.701.578l-2.358.087c-.84-.014-1.447-.014-2.257-.058-3.11-.13-6.134-.448-9.186-1.114-3.038-.65-6.033-1.605-8.897-2.95a34.752 34.752 0 0 1-8-5.136c-2.43-2.07-4.528-4.5-6.279-7.118-3.486-5.266-5.584-11.197-6.756-17.128-1.157-5.946-1.417-11.979-1.287-17.838h5.324c.188 9.693-.651 19.935-4.933 29.339-2.142 4.672-5.194 9.085-9.201 12.557-3.964 3.486-8.767 5.96-13.729 7.42a46.99 46.99 0 0 1-7.551 1.563 57.709 57.709 0 0 1-7.653.449l-1.794-.044-2.025-.159c-1.317-.159-2.604-.333-3.877-.593a40.478 40.478 0 0 1-7.465-2.286c-9.693-3.964-17.52-11.761-22.12-20.918-2.358-4.586-3.905-9.52-4.831-14.525a61.014 61.014 0 0 1-.825-7.58c-.087-2.604-.058-4.919-.072-7.32L.33 85.049v-.897l.015-.984.058-1.794.044-1.808.144-1.895c.087-1.273.174-2.546.347-3.776.174-1.244.275-2.488.521-3.703A80.449 80.449 0 0 1 5.235 55.71a84.025 84.025 0 0 1 14.93-25.765c6.451-7.61 14.278-14.062 23.016-18.894 8.694-4.86 18.3-8.115 28.166-9.605 4.919-.738 9.939-.999 14.9-.84l1.794.044 1.895.16c1.26.086 2.547.173 3.762.36 2.474.276 4.933.724 7.378 1.23 9.75 2.055 19.096 5.975 27.457 11.357a83.847 83.847 0 0 1 21.729 20.224 83.73 83.73 0 0 1 13.222 26.56 83.88 83.88 0 0 1 2.85 14.612c.217 2.473.405 4.947.42 7.435.043 2.489 0 4.818.014 7.22l-.072 28.73v.058z" fill-rule="nonzero" fill="#231F20"/>
        <path d="M34.726 121.97s.127-.308.337-.87c.21-.546.533-1.332.94-2.314a112.644 112.644 0 0 1 3.815-7.995 113.228 113.228 0 0 1 6.41-10.73c1.304-1.893 2.693-3.815 4.208-5.708 1.515-1.88 3.1-3.76 4.825-5.526 1.697-1.796 3.52-3.465 5.358-5.064 1.907-1.543 3.815-3.001 5.806-4.25.982-.631 1.95-1.262 2.974-1.767.982-.547 1.95-1.066 2.946-1.5.981-.45 1.935-.885 2.903-1.221.954-.337 1.865-.716 2.791-.94.898-.252 1.767-.547 2.609-.715.842-.169 1.641-.337 2.398-.491 1.501-.253 2.862-.365 3.942-.491 2.202-.07 3.464-.112 3.464-.112a2.242 2.242 0 0 1 2.315 2.174c.042 1.22-.912 2.244-2.132 2.314l-.183.014-3.086.154c-.967.14-2.16.267-3.492.52-.673.14-1.375.294-2.118.462-.743.169-1.515.449-2.314.687-.814.21-1.613.562-2.455.898-.855.295-1.697.701-2.567 1.136-.883.393-1.753.884-2.623 1.389-.897.477-1.767 1.066-2.636 1.64-1.782 1.165-3.507 2.54-5.204 3.984-1.683 1.501-3.338 3.072-4.867 4.77-1.571 1.682-3.03 3.464-4.404 5.259a88.137 88.137 0 0 0-3.858 5.442 105.777 105.777 0 0 0-5.877 10.31 105.754 105.754 0 0 0-3.464 7.63c-.365.94-.645 1.669-.842 2.174-.168.477-.266.743-.266.743l-.028.07a2.988 2.988 0 0 1-3.83 1.81 2.993 2.993 0 0 1-1.809-3.83c0-.014.014-.042.014-.056" fill-rule="nonzero" fill="#231F20"/>
        <path d="M47.332 42.086s28.77-6.256 43.104 32.004c17.342 46.225 49.346 47.55 49.346 47.55" stroke="#231F20" stroke-width="6" stroke-linecap="round" stroke-linejoin="round"/>
    </g>
</svg>
