<svg width="167" height="86" xmlns="http://www.w3.org/2000/svg">
    <title>
        la
    </title>
    <g fill="none" fill-rule="evenodd">
        <path d="M129.356 76.22c-12.971 3.838-27.876 5.388-44.117 5.388-16.654 0-32.388-2.118-45.543-6.14L15.074 52.581l6.662-26.325 126.01-.338 5.326 23.01-23.716 27.292" fill-rule="nonzero" fill="#FFF"/>
        <path d="M127.9 73.83l23.083-26.708-.615 2.428-5.378-22.99 2.75 2.182-126 .66 3.042-2.366-6.608 26.34-.922-3.135 24.25 23.267-1.03-.584 5.426 1.214c1.798.384 3.565.876 5.394 1.184l5.501.845c1.83.261 3.643.63 5.471.814 3.673.277 7.315.661 10.988.984l11.342.307.707.016h.584l1.398-.016 2.782-.015c1.875-.015 3.719-.108 5.594-.17 1.86-.03 3.703-.199 5.563-.307 1.844-.092 3.688-.322 5.548-.445 1.844-.123 3.673-.415 5.517-.615 1.829-.184 3.642-.553 5.47-.814 1.83-.262 3.581-.661 5.38-.984 1.567-.338 3.165-.738 4.763-1.091zm2.137 4.965c-1.814.553-3.596 1.137-5.456 1.629-1.906.46-3.811.983-5.701 1.367-1.906.354-3.796.784-5.702 1.045-1.906.277-3.811.646-5.717.83-1.92.216-3.826.492-5.747.584-1.921.123-3.827.323-5.748.385-1.92.076-3.842.2-5.748.23l-2.889.046-1.429.03h-.83l-.707-.014-11.326-.43-5.793-.585-5.794-.645c-1.921-.261-3.796-.692-5.686-1.014l-5.702-1.092c-1.875-.415-3.719-1.03-5.578-1.521l-5.563-1.614h-.016a2.504 2.504 0 0 1-.891-.476l-.138-.123-24.989-22.483-.015-.016c-.876-.814-1.183-2.028-.922-3.12l6.731-26.324.015-.016a3.116 3.116 0 0 1 3.028-2.351l126.001-.015h.015c1.322 0 2.444.937 2.736 2.182l5.271 23.02.015.016c.2.876-.061 1.768-.614 2.413L131.343 77.98a2.672 2.672 0 0 1-1.214.8l-.092.015z" fill-rule="nonzero" fill="#231F20"/>
        <path d="M43.668 50.003v14.709c0 9.343-7.57 16.898-16.898 16.898-14.555 0-22.664-22.68-22.664-37.497C4.106 22.02 22.02 4.12 44.115 4.12h80.003c22.079 0 39.994 17.9 39.994 39.993 0 15.295-8.34 37.497-22.664 37.497-9.343 0-16.898-7.555-16.898-16.898V50.558" fill-rule="nonzero" fill="#FFF"/>
        <path d="M46.331 50.003s.077 1.497.185 4.306c.078 1.405.124 3.133.186 5.17.015 1.02.061 2.1.092 3.273.016 1.204.124 2.253-.03 4.043-.279 3.087-1.297 6.53-3.473 9.631a20.369 20.369 0 0 1-9.57 7.378c-2.068.74-4.321 1.188-6.636 1.204l-.216.015-.37-.015-.356-.016-.74-.03c-.556-.047-1.312-.17-1.96-.278-1.22-.263-2.424-.618-3.566-1.143-2.315-1.018-4.383-2.484-6.158-4.198-1.775-1.728-3.288-3.673-4.615-5.741-2.64-4.152-4.584-8.767-5.973-13.675C1.741 55.004.816 49.802.77 44.247c0-5.526 1.05-11.33 3.302-16.716 2.223-5.417 5.65-10.464 10.033-14.662 4.383-4.214 9.723-7.579 15.65-9.631a43.026 43.026 0 0 1 9.168-2.13c1.574-.2 3.164-.293 4.738-.309 1.482 0 2.963-.015 4.445-.015h71.445c2.978.046 5.726-.124 9.137.231 3.148.324 6.25.988 9.23 1.991a42.8 42.8 0 0 1 15.804 9.384c4.399 4.198 7.933 9.199 10.063 14.632 2.145 5.463 2.932 11.159 2.979 16.638 0 5.463-.525 10.68-1.683 15.65-1.157 4.97-3.04 9.662-5.757 13.72-2.747 4.014-6.281 7.533-10.665 9.585-2.176 1.02-4.553 1.606-6.868 1.698-.756.031-.972.031-1.636.016a48.575 48.575 0 0 1-1.698-.124 21.076 21.076 0 0 1-3.179-.633c-4.136-1.173-7.655-3.627-9.924-6.62-2.315-2.995-3.535-6.406-3.89-9.493a16.65 16.65 0 0 1-.154-2.269c-.015-.771.016-1.265.046-1.883.016-1.173.062-2.253.093-3.272.046-2.037.108-3.766.2-5.17.109-2.81.232-4.306.232-4.306a2.657 2.657 0 0 1 2.871-2.454c1.327.092 2.361 1.157 2.47 2.454 0 0 .107 1.497.23 4.306.078 1.404.14 3.133.186 5.17.046 1.019.077 2.1.108 3.272.016.556.031 1.142.062 1.729.015.51.062 1.019.139 1.543a14.22 14.22 0 0 0 2.685 6.344c1.497 2.037 3.643 3.966 6.467 5.062.695.278 1.436.494 2.192.664.401.077.787.139 1.142.17.278.046 1.034.077 1.235.077 1.559 0 3.148-.37 4.66-1.111 3.041-1.528 5.542-4.63 7.548-8.165 2.007-3.565 3.704-7.625 5.14-11.977 1.404-4.352 2.485-9.106 2.407-13.937-.03-4.815-1.358-9.677-3.519-14.138-2.145-4.476-5.031-8.72-8.828-12.193a36.86 36.86 0 0 0-13.32-7.98 36.722 36.722 0 0 0-7.763-1.728c-2.408-.308-5.556-.2-8.442-.216H48.106c-1.466 0-2.917.016-4.368.016a35.07 35.07 0 0 0-4.028.262 37.076 37.076 0 0 0-7.763 1.79c-5.001 1.729-9.523 4.6-13.228 8.15a36.481 36.481 0 0 0-8.488 12.424c-1.914 4.584-2.794 9.384-2.794 14.138.031 4.738.849 9.476 2.1 13.86 1.234 4.383 2.993 8.473 5.2 11.884 2.192 3.426 4.94 6.127 7.841 7.347.725.34 1.45.524 2.192.694.324.03.555.108.972.139l.725.046.37.016h.093-.092l.139-.016c1.559-.015 3.04-.324 4.414-.802a13.664 13.664 0 0 0 6.42-4.847c1.498-2.052 2.316-4.306 2.563-6.42.138-.818.108-2.254.17-3.38.015-1.173.061-2.254.092-3.272.046-2.038.108-3.766.17-5.17.123-2.81.2-4.307.2-4.307a2.66 2.66 0 0 1 2.778-2.547 2.678 2.678 0 0 1 2.547 2.547" fill-rule="nonzero" fill="#231F20"/>
        <path d="M73.513 54.882v1.204c.015.238.015.55-.045.951-.044.401-.089.832-.134 1.308-.089.446-.193.922-.297 1.427a16.627 16.627 0 0 1-1.13 3.329c-.52 1.174-1.233 2.378-2.11 3.582-.877 1.189-1.991 2.333-3.27 3.359-1.307.995-2.793 1.887-4.488 2.482-1.694.58-3.522.891-5.469.653-.223-.044-.342-.03-.61-.104l-.832-.223-.832-.282c-.238-.104-.446-.223-.669-.342-.906-.43-1.62-1.04-2.318-1.635-1.323-1.233-2.244-2.645-3.062-3.997a23.955 23.955 0 0 1-1.754-4.102 33.873 33.873 0 0 1-.98-3.775 24 24 0 0 1-.446-3.24c-.104-.966-.12-1.814-.134-2.512-.03-.699.03-1.248.03-1.62.03-.372.03-.565.03-.565a1.343 1.343 0 0 1 1.396-1.278c.67.03 1.204.565 1.279 1.219v.06s.059.727.237 1.976c.09.624.179 1.397.387 2.259.148.862.43 1.813.713 2.853.312 1.04.669 2.14 1.16 3.255.445 1.13 1.084 2.23 1.709 3.33.698 1.04 1.47 2.08 2.377 2.838.461.342.922.699 1.398.892.118.044.252.119.341.163.104.015.194.045.268.06.089.03.178.06.253.104.104.03.356.03.52.06a8.021 8.021 0 0 0 3.433-.506 13.172 13.172 0 0 0 3.15-1.769c.922-.758 1.77-1.59 2.468-2.467a14.42 14.42 0 0 0 1.709-2.675c.446-.892.758-1.739 1.01-2.512.12-.386.223-.743.313-1.085.06-.312.119-.609.163-.877.06-.237.09-.535.119-.802.03-.253.045-.476.06-.654a14.7 14.7 0 0 0 .059-.535 2.024 2.024 0 0 1 2.2-1.798c1.025.104 1.783.98 1.798 1.991" fill-rule="nonzero" fill="#231F20"/>
        <path d="M98.7 54.862v.51c0 .361.06.781.015 1.487-.045.721-.09 1.607-.255 2.538-.06.48-.15.976-.286 1.502a15.49 15.49 0 0 1-.48 1.652 16.4 16.4 0 0 1-.69 1.757c-.241.6-.572 1.186-.917 1.802-.72 1.216-1.562 2.462-2.733 3.544-1.126 1.096-2.478 2.132-4.085 2.823-.39.21-.796.33-1.231.48-.405.136-.826.27-1.276.346-.436.075-.871.21-1.322.225l-.66.06-.346.015-.165.015h-.33l-1.067-.075c-.15 0-.39-.045-.646-.09l-.735-.135c-.511-.09-.916-.225-1.337-.36-.42-.15-.84-.27-1.216-.481-1.607-.69-2.959-1.727-4.085-2.823-1.156-1.082-2.027-2.328-2.733-3.544-.345-.616-.676-1.202-.916-1.802a13.753 13.753 0 0 1-.69-1.757 12.546 12.546 0 0 1-.481-1.652 11.92 11.92 0 0 1-.286-1.502c-.18-.946-.21-1.787-.255-2.463-.045-.69 0-1.231 0-1.591.015-.36.015-.556.015-.556a1.998 1.998 0 0 1 2.057-1.937 1.99 1.99 0 0 1 1.923 1.787l.015.15s.075.646.225 1.742c.105.555.195 1.216.42 1.952.075.375.196.766.36 1.171.136.406.271.826.451 1.247.18.435.376.87.616 1.306.21.45.495.856.766 1.292.6.856 1.276 1.697 2.072 2.402a8.854 8.854 0 0 0 2.658 1.742c.24.136.496.196.736.27.24.09.496.18.69.196l.316.06c.09.03.195.06.406.06l1.066.06h-.165.075l.105-.015.195-.015.39-.015c.256 0 .496-.09.751-.12.27-.03.51-.12.766-.21.24-.075.496-.135.736-.27a8.854 8.854 0 0 0 2.658-1.743c.81-.705 1.487-1.546 2.057-2.402.286-.436.556-.841.781-1.292.24-.435.436-.87.6-1.306.196-.42.331-.841.466-1.247.15-.405.27-.796.36-1.17.226-.752.301-1.367.406-1.878.09-.526.135-1.081.18-1.382l.045-.51a2.02 2.02 0 0 1 2.223-1.772 2 2 0 0 1 1.787 1.922" fill-rule="nonzero" fill="#231F20"/>
        <path d="M123.206 51.17s.015.182.03.547c0 .364.061.849.03 1.562-.014.697-.03 1.577-.136 2.533-.06.955-.212 2.047-.44 3.215a29.759 29.759 0 0 1-1 3.762 22.94 22.94 0 0 1-1.79 4.065c-.835 1.365-1.82 2.73-3.155 3.943-1.365 1.183-3.2 2.184-5.248 2.412l-.759.076-.09.015h-.198l-.03-.015h-.152l-.273-.016c-.425-.045-.682 0-1.228-.106-.486-.09-1.001-.167-1.457-.273l-1.274-.394c-1.668-.607-3.154-1.502-4.444-2.503a18.137 18.137 0 0 1-3.23-3.352c-.865-1.198-1.578-2.411-2.093-3.58a16.833 16.833 0 0 1-1.108-3.29c-.106-.516-.212-.986-.288-1.426-.045-.44-.09-.85-.136-1.229-.107-.728-.046-1.32-.046-1.714v-.606c0-1.108.88-1.987 1.987-1.987 1.031 0 1.866.773 1.972 1.774l.03.213s.015.166.06.485c.046.303.046.758.168 1.335.06.288.106.591.182.94.076.334.197.698.303 1.077.243.773.561 1.623 1.001 2.503.425.88 1.001 1.79 1.684 2.669a16.359 16.359 0 0 0 2.457 2.457 13.573 13.573 0 0 0 3.124 1.79l.85.273c.273.076.5.09.743.167.197.076.698.076 1.031.106l.273.03h.182c-.06 0 .152.015-.121 0h.06l.35-.03c.97-.06 1.956-.47 2.851-1.183.91-.743 1.714-1.714 2.412-2.745.637-1.093 1.289-2.154 1.729-3.277a28.046 28.046 0 0 0 1.168-3.215c.303-1.032.56-1.987.728-2.836.197-.865.288-1.608.379-2.215.106-.591.136-1.153.197-1.486.015-.364.046-.546.046-.546a1.312 1.312 0 0 1 1.47-1.183 1.32 1.32 0 0 1 1.199 1.258" fill-rule="nonzero" fill="#231F20"/>
        <path d="M25.384 42.383C40.16 51.056 61.33 55.156 84.84 55.156c23.51 0 44.68-4.1 59.472-12.773" fill-rule="nonzero" fill="#FFF"/>
        <path d="M25.384 42.383C40.16 51.056 61.33 55.156 84.84 55.156c23.51 0 44.68-4.1 59.472-12.773" stroke="#231F20" stroke-width="5.333" stroke-linecap="round" stroke-linejoin="round"/>
    </g>
</svg>
