<svg width="168" height="167" xmlns="http://www.w3.org/2000/svg">
    <title>
        lape
    </title>
    <g fill="none" fill-rule="evenodd">
        <path d="M73.469 26.547h50.667c22.092 0 40 17.906 40 40V83.44c0 44.173-35.817 80-80 80s-80-35.827-80-80V66.547c0-17.454 10.917-32.36 27-37.774" fill="#FFF" fill-rule="nonzero"/>
        <path d="M73.469 26.547h50.667c22.092 0 40 17.906 40 40V83.44c0 44.173-35.817 80-80 80s-80-35.827-80-80V66.547c0-17.454 10.917-32.36 27-37.774" stroke="#231F20" stroke-width="6.667"/>
        <path d="M89.914 122.547c-32.4 0-58.667-26.267-58.667-58.667V24.547c0-11.667 9.452-21.107 21.111-21.107 11.66 0 21.111 9.44 21.111 21.107v22c0 18.653 15.123 33.773 33.778 33.773h-.222c11.66 0 21.111 9.453 21.111 21.12 0 11.653-9.452 21.107-21.11 21.107H89.913" fill="#FFF" fill-rule="nonzero"/>
        <path d="M89.914 122.547c-32.4 0-58.667-26.267-58.667-58.667V24.547c0-11.667 9.452-21.107 21.111-21.107 11.66 0 21.111 9.44 21.111 21.107v22c0 18.653 15.123 33.773 33.778 33.773h-.222c11.66 0 21.111 9.453 21.111 21.12 0 11.653-9.452 21.107-21.11 21.107H89.913z" stroke="#231F20" stroke-width="6.667"/>
        <path d="M102.358 101.267c-31.111 0-49.943-20.987-49.943-47.627V25.653" stroke="#231F20" stroke-width="6" stroke-linecap="round" stroke-linejoin="round"/>
        <path d="M74.163 120.493l-5.678 21.867a2.68 2.68 0 0 1-3.252 1.92 2.67 2.67 0 0 1-1.911-3.253c.006-.027.015-.054.02-.08l6.322-21.694a2.343 2.343 0 0 1 2.894-1.586 2.34 2.34 0 0 1 1.605 2.826m-20.993-10.8l-13.312 14.68a2.668 2.668 0 0 1-3.767.187 2.674 2.674 0 0 1-.183-3.773c.017-.014.043-.054.061-.067l13.799-14.213a2.33 2.33 0 0 1 3.3-.054c.905.88.942 2.32.103 3.24M37.104 91.12L22.13 98.307a2.662 2.662 0 0 1-3.56-1.254 2.672 2.672 0 0 1 1.25-3.56c.03-.013.069-.026.098-.04l15.25-6.586a2.344 2.344 0 0 1 3.067 1.213 2.351 2.351 0 0 1-1.132 3.04M31.31 70.64l-14.404 2.107a2.67 2.67 0 0 1-3.025-2.254 2.67 2.67 0 0 1 2.252-3.026c.038 0 .085-.014.122-.014l14.485-1.44a2.324 2.324 0 0 1 2.554 2.08 2.342 2.342 0 0 1-1.984 2.547" fill="#231F20" fill-rule="nonzero"/>
    </g>
</svg>
