<svg width="167" height="168" xmlns="http://www.w3.org/2000/svg">
    <title>
        laso
    </title>
    <g fill="none" fill-rule="evenodd">
        <path d="M156.832 78.16c0 42.4-32.88 76.76-73.439 76.76-40.56 0-73.44-34.36-73.44-76.76 0-42.387 32.88-76.76 73.44-76.76 40.559 0 73.439 34.373 73.439 76.76" fill="#FFF" fill-rule="nonzero"/>
        <path d="M107.019 97.373c0-15.6 12.65-28.253 28.254-28.253 15.606 0 28.256 12.653 28.256 28.253l-.06 27.067c0 22.08-17.908 40-40 40h-80c-22.092 0-40-17.92-40-40V97.373c0-15.6 12.651-28.253 28.255-28.253 15.605 0 28.255 12.653 28.255 28.253 0-12.986 10.53-23.52 23.52-23.52s23.52 10.534 23.52 23.52" fill="#FFF" fill-rule="nonzero"/>
        <path d="M107.019 97.373c0-15.6 12.65-28.253 28.254-28.253 15.606 0 28.256 12.653 28.256 28.253l-.06 27.067c0 22.08-17.908 40-40 40h-80c-22.092 0-40-17.92-40-40V97.373c0-15.6 12.651-28.253 28.255-28.253 15.605 0 28.255 12.653 28.255 28.253 0-12.986 10.53-23.52 23.52-23.52s23.52 10.534 23.52 23.52z" stroke="#231F20" stroke-width="6.667" stroke-linecap="round" stroke-linejoin="round"/>
        <path d="M10.165 77.44C10.165 36.933 43 4.107 83.5 4.107c40.501 0 73.333 32.826 73.333 73.333" stroke="#231F20" stroke-width="6.667" stroke-linecap="round" stroke-linejoin="round"/>
        <path d="M30.293 68.8c4.243-25.547 26.45-45.027 53.206-45.027 26.818 0 49.065 19.574 53.234 45.214" stroke="#231F20" stroke-width="5.333" stroke-linecap="round" stroke-linejoin="round"/>
        <path d="M40.124 71.16c3.459-20.84 21.563-36.72 43.377-36.72 21.864 0 40.003 15.96 43.402 36.867" stroke="#231F20" stroke-width="4" stroke-linecap="round" stroke-linejoin="round"/>
        <path d="M80.624 57.773c0 6.014-4.875 10.88-10.89 10.88-6.013 0-10.887-4.866-10.887-10.88 0-6.013 4.874-10.893 10.888-10.893s10.889 4.88 10.889 10.893zm27.556 0c0 6.014-4.876 10.88-10.89 10.88-6.013 0-10.889-4.866-10.889-10.88 0-6.013 4.876-10.893 10.89-10.893 6.013 0 10.889 4.88 10.889 10.893zM95.359 24.987l7.888-18.334m-31.724 18.44l-8.054-18.32" stroke="#231F20" stroke-width="4" stroke-linecap="round" stroke-linejoin="round"/>
    </g>
</svg>
