<svg width="168" height="178" xmlns="http://www.w3.org/2000/svg">
    <title>
        lawa
    </title>
    <g fill="none" fill-rule="evenodd">
        <path d="M18.128 93.107c-3.679-6.934-5-13.427-5-21.454 0-57 55.667-52.893 70.667-67.893 15.014 15.013 70.666 10.893 70.666 67.893 0 7.907-1.977 14.6-5.553 21.454" fill="#FFF" fill-rule="nonzero"/>
        <path d="M15.736 94.28c-.593-1.24-1.215-2.307-1.776-3.733-.61-1.36-1.064-2.707-1.519-4.067-.825-2.747-1.432-5.56-1.733-8.387-.272-2.813-.44-5.6-.31-8.413.057-1.36.018-2.64.154-4.067l.388-4.24.675-4.146c.237-1.387.633-2.747.946-4.12a54.078 54.078 0 0 1 2.818-8.027c.526-1.32 1.273-2.547 1.905-3.827.673-1.266 1.493-2.44 2.239-3.653a92.257 92.257 0 0 1 2.572-3.44c.957-1.053 1.837-2.2 2.868-3.173 1.016-1 2.009-2.027 3.112-2.934l1.618-1.373 1.694-1.28c2.253-1.72 4.649-3.187 7.066-4.6 2.447-1.347 4.924-2.613 7.45-3.733 2.514-1.147 5.064-2.147 7.609-3.134 5.088-1.946 10.215-3.64 15.116-5.52 2.46-.92 4.828-1.933 7.05-3.066 2.206-1.134 4.266-2.414 5.76-3.934a3.278 3.278 0 0 1 4.478-.2l.236.2h.001c1.496 1.52 3.559 2.8 5.767 3.934 2.224 1.133 4.595 2.146 7.056 3.08 4.905 1.88 10.037 3.573 15.13 5.52 2.547.986 5.1 1.986 7.617 3.146 2.526 1.107 5.005 2.387 7.454 3.734 2.418 1.413 4.818 2.88 7.071 4.6l1.695 1.28 1.618 1.386c1.104.894 2.094 1.934 3.112 2.934 1.027.986 1.911 2.12 2.868 3.186a90.32 90.32 0 0 1 2.567 3.44c.743 1.227 1.57 2.4 2.235 3.667.629 1.28 1.385 2.507 1.901 3.84a53.58 53.58 0 0 1 2.807 8.027c.31 1.373.716 2.733.94 4.12l.668 4.16.385 4.173c.124 1.387.099 2.773.153 4.16l.027 1.04.013.52.007.267-.01.346-.073 2.014c-.005.64-.1 1.4-.169 2.133-.085.72-.12 1.48-.259 2.173-.397 2.84-1.152 5.614-2.056 8.307-.936 2.693-2.128 5.253-3.405 7.733a2.676 2.676 0 0 1-3.59 1.16 2.665 2.665 0 0 1-1.169-3.56l.032-.066c1.148-2.307 2.204-4.627 3.01-7.027.773-2.4 1.414-4.84 1.734-7.333.122-.627.13-1.214.199-1.827.052-.613.135-1.173.133-1.88l.054-2.013.004-.12.001-.067.001-.027c-.004.16-.001.027-.002.054l-.01-.24-.018-.494-.035-.96c-.067-1.293-.052-2.6-.183-3.893l-.393-3.84-.65-3.8c-.217-1.253-.602-2.467-.89-3.72a48.648 48.648 0 0 0-2.575-7.133c-.462-1.174-1.15-2.227-1.708-3.36-.592-1.107-1.336-2.12-1.99-3.187a83.917 83.917 0 0 0-2.279-2.987c-.859-.92-1.63-1.92-2.55-2.773-.913-.88-1.783-1.787-2.78-2.56l-1.45-1.227-1.533-1.133c-2.032-1.52-4.236-2.84-6.464-4.12-2.276-1.2-4.584-2.373-6.986-3.4-2.377-1.067-4.838-2-7.306-2.933-4.96-1.84-10.054-3.454-15.202-5.36-2.572-.947-5.165-2.014-7.741-3.294-2.564-1.293-5.172-2.8-7.497-5.093h4.713c-2.323 2.28-4.93 3.8-7.49 5.093-2.575 1.28-5.165 2.347-7.735 3.28-5.144 1.907-10.232 3.52-15.188 5.36-2.466.934-4.924 1.867-7.3 2.934-2.4 1.026-4.707 2.186-6.982 3.4-2.228 1.266-4.428 2.586-6.461 4.106l-1.532 1.134-1.45 1.213c-.995.787-1.871 1.68-2.78 2.56-.925.853-1.693 1.84-2.551 2.76a84.05 84.05 0 0 0-2.284 2.987c-.656 1.066-1.392 2.08-1.994 3.186-.56 1.12-1.24 2.187-1.712 3.36a47.874 47.874 0 0 0-2.582 7.12c-.291 1.24-.668 2.454-.895 3.707l-.656 3.787-.39 3.773c-.143 1.253-.123 2.653-.193 3.973-.15 2.56-.013 5.147.2 7.667.243 2.52.752 4.973 1.442 7.373.388 1.187.773 2.374 1.257 3.48.39 1.094 1.09 2.36 1.645 3.547l.035.08a2.67 2.67 0 0 1-1.288 3.547 2.67 2.67 0 0 1-3.532-1.267" fill="#231F20" fill-rule="nonzero"/>
        <path d="M83.572 174.44h-37.11c-22.09 0-42.667-17.92-42.667-40v-4.92c0-24.68 17.333-44.867 39.694-51.32 12.306-3.653 15.639-9.427 15.639-14.427V50.107c0-13.627 11.044-24.667 24.667-24.667 13.624 0 24.666 11.04 24.666 24.667v13.666c0 5 3.334 10.774 15.639 14.427 22.361 6.453 39.695 26.64 39.695 51.32v4.92c0 22.08-20.576 40-42.668 40H83.572" fill="#FFF" fill-rule="nonzero"/>
        <path d="M83.572 171.107l31.496-.027 3.937-.013h1.97l1.818-.04a39.485 39.485 0 0 0 7.167-1 41.926 41.926 0 0 0 13.29-5.76c8.113-5.32 14.345-13.6 16.383-22.92a33.38 33.38 0 0 0 .576-3.494c.043-.573.114-1.08.142-1.72l.053-1.866.003-3.934c-.008-1.333-.01-2.48-.096-3.733-.267-4.907-1.331-9.747-3.082-14.32-3.476-9.2-9.87-17.227-17.877-23-3.993-2.88-8.453-5.2-13.048-6.853-1.064-.4-2.405-.787-3.624-1.187l-1.996-.653-1.985-.76c-2.632-1.094-5.256-2.467-7.647-4.454-2.384-1.933-4.524-4.76-5.379-8.12-.09-.44-.202-.813-.262-1.293l-.088-.707c-.03-.24-.051-.48-.051-.613l-.019-.493-.012-.387.002-.24.004-.987.02-3.933.054-7.88c.066-2.453-.212-4.64-.85-6.88-1.263-4.427-4.042-8.387-7.706-11.227a21.912 21.912 0 0 0-12.97-4.506A21.945 21.945 0 0 0 70.844 32.6c-3.663 2.827-6.437 6.787-7.713 11.2a21.466 21.466 0 0 0-.694 3.36c-.08.573-.113 1.107-.146 1.64-.019.267-.015.64-.023.947v.906l.055 7.867.02 3.92c.018 1.147.04 3.053-.398 4.693-.817 3.36-2.934 6.2-5.306 8.147-2.382 2-4.995 3.4-7.622 4.493l-2.046.787c-.67.24-1.259.413-1.891.627l-1.896.6c-.59.173-1.17.386-1.75.586-4.64 1.654-9.066 3.947-13.067 6.827-8.018 5.72-14.416 13.72-17.932 22.88a47.369 47.369 0 0 0-3.139 14.253c-.1 1.08-.097 2.614-.113 3.747l.004 3.92c-.002 2.453.218 4.773.72 7.107 1.96 9.306 8.117 17.626 16.176 22.986a41.38 41.38 0 0 0 13.222 5.854 38.9 38.9 0 0 0 7.067 1.066l1.95.054h1.88l3.93.013 31.44.027zm0 6.666l-31.44.014-3.93.013-2.05-.013-1.98-.054a43.782 43.782 0 0 1-8.461-1.24 48.153 48.153 0 0 1-15.391-6.773c-4.68-3.133-8.833-7.067-12.139-11.68-3.304-4.613-5.742-9.907-6.922-15.52-.6-2.787-.866-5.733-.856-8.52l.002-3.92c.026-1.493.012-2.587.13-4.107a53.994 53.994 0 0 1 3.612-16.333C8.176 99.2 15.44 90.173 24.477 83.747c4.514-3.24 9.496-5.8 14.727-7.654a34.18 34.18 0 0 1 1.975-.666l1.854-.574c.611-.2 1.28-.4 1.843-.6l1.627-.613c2.216-.88 4.274-2 5.922-3.36 1.676-1.36 2.787-2.973 3.243-4.707.237-.92.248-1.653.245-3.133l.02-3.92.055-7.867.021-1.066c.015-.334.015-.627.042-1 .056-.787.126-1.56.237-2.267.217-1.467.532-2.907.979-4.32 1.764-5.627 5.366-10.64 10.125-14.053 4.744-3.427 10.6-5.28 16.403-5.174 5.813-.106 11.678 1.747 16.429 5.187 4.76 3.44 8.368 8.467 10.117 14.107.878 2.786 1.291 5.866 1.262 8.653l.054 7.88.02 3.933.004.987.002.24c-.006-.253 0-.027 0-.067l.002.054.007.12.023.493c.004.2.022.293.04.373l.041.267c.015.173.101.427.14.64.477 1.733 1.607 3.347 3.299 4.693 1.657 1.36 3.733 2.467 5.957 3.36l1.699.627 1.746.56c1.279.4 2.468.733 3.863 1.253a59.197 59.197 0 0 1 14.757 7.707c9.028 6.48 16.284 15.547 20.272 26.013 2.004 5.227 3.226 10.76 3.542 16.347.098 1.373.104 2.84.113 4.133l.003 3.934-.052 2.066c-.027.68-.112 1.48-.171 2.214a41.225 41.225 0 0 1-.693 4.266c-1.227 5.614-3.711 10.907-7.055 15.494-3.345 4.586-7.535 8.52-12.245 11.613a48.441 48.441 0 0 1-15.472 6.667 45.73 45.73 0 0 1-8.408 1.16l-2.116.053h-1.97l-3.937-.013-31.496-.014z" fill="#231F20" fill-rule="nonzero"/>
        <path d="M111.128 121.773c0 15.094-12.237 27.334-27.333 27.334-15.095 0-27.334-12.24-27.334-27.334 0-15.106 12.239-27.333 27.334-27.333 15.096 0 27.333 12.227 27.333 27.333z" stroke="#231F20" stroke-width="5.333" stroke-linecap="round" stroke-linejoin="round"/>
    </g>
</svg>
