<svg width="167" height="167" xmlns="http://www.w3.org/2000/svg">
    <title>
        lete
    </title>
    <g fill="none" fill-rule="evenodd">
        <path d="M163.628 27.88V83.6c0 44.093-35.743 79.84-79.833 79.84-44.091 0-79.834-35.747-79.834-79.84l-.333-55.72c0-13.493 8.955-24.44 20-24.44 11.047 0 20 10.947 20 24.44 0-13.493 8.955-24.44 20-24.44 11.047 0 20 10.947 20 24.44 0-13.493 8.955-24.44 20-24.44 11.047 0 20 10.947 20 24.44 0-13.493 8.955-24.44 20-24.44 11.047 0 20 10.947 20 24.44" fill="#FFF" fill-rule="nonzero"/>
        <path d="M160.295 27.88l-.087-1.933c-.035-.654-.156-1.294-.224-1.934-.203-1.266-.464-2.533-.867-3.76-.162-.613-.398-1.213-.642-1.8l-.355-.893-.428-.84-.424-.853-.497-.814-.492-.8-.562-.746-.553-.76-.62-.694-.619-.68-.677-.626c-.433-.44-.919-.8-1.408-1.147-.468-.4-.996-.68-1.508-.987-1.03-.6-2.132-1.026-3.252-1.36-.55-.16-1.012-.2-1.519-.333-.64-.08-1.43-.107-2.138-.16.406.013.105 0 .192.013h-.095l-.11.014h-.218l-.436.026c-.29.027-.585.014-.873.054-.571.12-1.158.16-1.724.32-1.131.306-2.251.72-3.302 1.306-.522.307-1.061.574-1.541.96-.501.347-.999.707-1.447 1.147l-.697.613-.64.68-.647.68-.581.76-.584.747-.517.8-.52.813-.447.854-.453.853-.378.907c-.26.586-.509 1.186-.692 1.826-.444 1.227-.746 2.507-.989 3.8-.09.654-.23 1.307-.284 1.96l-.144 1.987-.012.16a2.667 2.667 0 0 1-2.85 2.467 2.68 2.68 0 0 1-2.473-2.627l-.182-1.987c-.062-.653-.204-1.306-.299-1.96-.252-1.293-.563-2.56-1.015-3.786a14.742 14.742 0 0 0-.692-1.814l-.377-.893-.452-.853-.447-.854-.52-.8-.514-.813-.584-.747-.579-.746-.645-.68-.634-.68-.689-.614c-.443-.44-.935-.8-1.432-1.146-.475-.387-1.01-.667-1.528-.974-1.043-.586-2.156-1-3.283-1.32-.553-.16-1.02-.186-1.528-.32-.28-.04-.704-.04-1.049-.066l-.547-.04-.272-.014h-.137l-.068-.013h-.051c.087 0-.217 0 .19.013-.582.04-1.166.054-1.744.107-.571.12-1.156.173-1.719.333-1.127.32-2.24.734-3.283 1.334-.518.293-1.053.573-1.528.96-.497.346-.989.706-1.43 1.146l-.691.614-.633.693-.644.68-.58.747-.583.746-.515.8-.52.8-.446.854-.452.853-.376.893a14.53 14.53 0 0 0-.692 1.814c-.452 1.226-.763 2.506-1.015 3.8-.25 1.293-.365 2.613-.48 3.933l-.021.24a2.659 2.659 0 0 1-2.882 2.427 2.67 2.67 0 0 1-2.432-2.667v-.013l-.182-1.974c-.063-.666-.206-1.306-.299-1.96-.252-1.293-.564-2.573-1.015-3.786-.185-.627-.433-1.227-.693-1.827-.232-.6-.516-1.173-.83-1.733l-.446-.854-.52-.813-.515-.8-.584-.747-.58-.746-.645-.68-.633-.68-.69-.614c-.442-.44-.936-.8-1.432-1.146-.474-.387-1.01-.667-1.528-.974-1.042-.586-2.156-1-3.282-1.32-.552-.16-1.02-.186-1.528-.32-.282-.04-.704-.04-1.051-.066l-.545-.04-.274-.014h-.136l-.068-.013h-.05c-.191 0 .238.013.189.013-.58.04-1.164.054-1.744.107-.57.12-1.155.173-1.717.333-1.128.32-2.242.734-3.283 1.334-.519.293-1.053.573-1.528.96-.497.346-.99.706-1.43 1.146l-.691.614-.632.693-.646.68-.578.747-.583.746-.516.8-.519.8-.446.854-.452.853-.376.893c-.262.6-.508 1.187-.692 1.814-.452 1.226-.763 2.506-1.014 3.8-.25 1.293-.366 2.613-.481 3.933l-.021.24a2.659 2.659 0 0 1-2.882 2.427 2.67 2.67 0 0 1-2.432-2.667v-.013c-.173-4.107-1.186-8.147-3.105-11.627-1.887-3.507-4.719-6.4-8.027-8.053l-1.266-.547c-.427-.16-.874-.267-1.304-.4-.455-.173-.816-.173-1.211-.267l-.579-.106-.844-.054c-1.865-.106-3.63.094-5.346.734-1.707.6-3.316 1.546-4.767 2.733-1.441 1.213-2.668 2.707-3.743 4.32-1.098 1.6-1.868 3.44-2.52 5.293-.657 1.88-.96 3.88-1.182 5.707l-.075 1.68-.03.693.006.84.02 3.374.04 6.76.161 27.013.082 13.507c.004 4.573.05 8.813.566 13.106.947 8.587 3.504 16.96 7.266 24.707 3.788 7.76 8.958 14.813 15.092 20.88 6.137 6.08 13.354 11.027 21.145 14.72 7.797 3.707 16.256 5.947 24.824 6.84l3.157.24c1.064.08 2.234.067 3.346.107l.844.026h.74l1.617-.04c1.08-.026 2.159-.053 3.233-.16a71.293 71.293 0 0 0 12.775-1.96c8.373-2.053 16.427-5.466 23.636-10.226 7.213-4.72 13.683-10.627 18.917-17.48 5.242-6.854 9.407-14.547 12.051-22.76a79.125 79.125 0 0 0 2.98-12.574l.408-3.213.255-3.16c.108-1.027.089-2.213.13-3.32l.042-1.6V27.88zm6.666 0V83.6l-.042 1.773c-.044 1.134-.02 2.2-.136 3.427-.094 1.187-.167 2.4-.284 3.573l-.444 3.494a85.214 85.214 0 0 1-3.24 13.666c-2.88 8.947-7.404 17.32-13.104 24.76-5.691 7.454-12.715 13.867-20.558 19-7.837 5.16-16.597 8.894-25.708 11.12a80.143 80.143 0 0 1-13.888 2.134 44.75 44.75 0 0 1-3.51.16l-1.758.053h-.948l-.844-.027c-1.138-.04-2.221-.026-3.404-.106l-3.577-.267c-9.33-.973-18.524-3.427-27.008-7.44-8.476-4.013-16.315-9.4-22.985-16-6.667-6.587-12.282-14.267-16.403-22.693-4.096-8.44-6.87-17.547-7.904-26.867-.564-4.653-.61-9.44-.612-13.853L.523 66 .36 38.987l-.04-6.76-.02-3.374-.005-.84.03-1 .066-1.693c.255-2.64.664-5.12 1.468-7.507.812-2.386 1.805-4.746 3.23-6.88 1.4-2.146 3.089-4.133 5.1-5.826 2.031-1.654 4.36-3.014 6.903-3.894A18.804 18.804 0 0 1 25.035.2l.842.067 1.08.186c.706.147 1.475.254 2.08.48.635.214 1.286.4 1.902.654l1.814.84c2.346 1.24 4.412 2.88 6.175 4.76 1.783 1.866 3.136 4.04 4.275 6.28 2.27 4.506 3.162 9.506 3.092 14.4l.001.013h-5.335l-.002-2.387c.016-.786.128-1.586.192-2.386.194-1.574.47-3.174.92-4.72.189-.787.469-1.547.76-2.307l.432-1.133.521-1.107.527-1.107.617-1.066.627-1.054.714-1.013.726-1.013.814-.947.836-.933.924-.854c.598-.6 1.268-1.12 1.956-1.613.66-.533 1.407-.96 2.144-1.4 1.48-.867 3.1-1.52 4.774-2 .833-.253 1.708-.373 2.562-.547C61.872.2 62.75.16 63.621.107l1.298.08c.381.026.69.026 1.128.093.917.16 1.908.307 2.754.547 1.674.493 3.294 1.133 4.775 2 .737.44 1.485.866 2.144 1.4.688.506 1.36 1.026 1.959 1.613l.924.853.836.934.816.946.725 1.014.716 1.013.625 1.053.62 1.067.527 1.107c.365.733.69 1.48.953 2.24.29.76.572 1.52.762 2.306.449 1.547.726 3.147.921 4.72.065.8.176 1.6.193 2.387l-.002 2.387.001.013h-5.335l-.002-2.387c.016-.786.128-1.586.192-2.386.194-1.574.47-3.174.92-4.72.189-.787.469-1.547.761-2.307l.43-1.133.522-1.107.527-1.107.618-1.066.626-1.054.716-1.013.725-1.013.815-.947.836-.933.924-.867c.598-.587 1.269-1.107 1.957-1.6.659-.533 1.407-.96 2.144-1.4 1.48-.867 3.1-1.52 4.773-2 .835-.253 1.708-.373 2.564-.547.866-.093 1.743-.133 2.616-.186l1.298.08c.38.026.688.026 1.128.093.917.16 1.908.307 2.754.547 1.674.493 3.294 1.146 4.775 2.013.737.427 1.485.853 2.144 1.387.688.506 1.36 1.026 1.957 1.613l.924.867.836.92.816.96.726 1 .716 1.013.625 1.067.619 1.053.528 1.107.52 1.106.432 1.147c.29.76.572 1.52.761 2.293.45 1.56.727 3.147.921 4.734.064.8.175 1.586.192 2.386l-.002 2.387h.001-5.335l.036-2.373c.023-.8.139-1.587.207-2.387.203-1.587.487-3.16.944-4.707.192-.786.47-1.546.761-2.306l.431-1.134.521-1.093.526-1.107.617-1.066.625-1.054.714-1.013.724-1 .813-.947.83-.933.915-.853c.594-.6 1.26-1.12 1.943-1.614.655-.546 1.399-.973 2.132-1.413 1.472-.867 3.087-1.533 4.756-2.027.832-.24 1.704-.36 2.557-.546.431-.067.871-.08 1.306-.12l.654-.04.328-.027.164-.013h.37c.745.053 1.416.066 2.222.146.919.16 1.914.294 2.763.534 1.68.48 3.312 1.12 4.805 1.973.744.44 1.499.853 2.166 1.387.696.493 1.374 1.013 1.98 1.6l.937.853.85.933.842.934.75 1 .738 1.013.648 1.067.641 1.053.55 1.107.544 1.106.454 1.147c.308.76.6 1.533.811 2.32.499 1.56.824 3.16 1.068 4.76.088.8.223 1.613.265 2.413l.092 2.427z" fill="#231F20" fill-rule="nonzero"/>
        <path d="M49.173 55.36l-.008 2.92-.005 1.533-.193 1.934c-.072.693-.148 1.426-.23 2.2-.066.773-.289 1.533-.438 2.36-.172.813-.351 1.666-.535 2.546-.27.867-.547 1.747-.83 2.667-.145.453-.29.92-.438 1.387-.164.466-.377.92-.567 1.386-.394.92-.797 1.867-1.206 2.827-1.022 1.827-1.944 3.787-3.252 5.56-1.162 1.88-2.655 3.547-4.072 5.28-1.587 1.573-3.11 3.227-4.868 4.56-1.648 1.48-3.526 2.587-5.254 3.787-.924.493-1.832.986-2.722 1.48-.448.226-.88.48-1.328.693-.456.2-.907.387-1.351.573-.89.374-1.757.734-2.595 1.094-.868.266-1.705.52-2.51.773-.811.227-1.57.533-2.326.667-.753.16-1.468.306-2.14.44-.673.133-1.302.253-1.884.373-.59.067-1.132.12-1.621.16-1.961.2-3.081.307-3.081.307l-.204-5.334s.993-.08 2.732-.213c.434-.04.917-.067 1.441-.12.517-.093 1.076-.187 1.673-.307.599-.106 1.235-.213 1.907-.333.675-.107 1.348-.373 2.072-.56.719-.2 1.47-.413 2.244-.64.75-.307 1.525-.613 2.323-.933.398-.16.804-.32 1.213-.48.403-.174.79-.4 1.193-.6.803-.414 1.622-.84 2.455-1.267 1.555-1.053 3.264-1.987 4.757-3.293 1.606-1.16 2.988-2.627 4.45-4 1.293-1.534 2.68-3 3.75-4.667 1.218-1.573 2.068-3.333 3.035-4.96.385-.867.764-1.707 1.135-2.533.18-.427.384-.827.54-1.24.141-.427.28-.84.416-1.254.276-.813.544-1.613.804-2.386.181-.8.356-1.56.525-2.307.147-.733.375-1.44.44-2.107l.236-1.906c.077-.587.15-1.147.216-1.667l.037-1.533.064-2.92 4 .053m73.237-.053s.025 1.066.065 2.92c.01.466.024.973.037 1.533l.216 1.667.236 1.906c.064.667.292 1.374.44 2.107.17.747.344 1.507.525 2.307.26.773.528 1.573.804 2.386.136.414.275.827.415 1.254.157.413.36.813.541 1.24.371.826.75 1.666 1.135 2.533.967 1.627 1.816 3.387 3.035 4.96 1.07 1.667 2.457 3.133 3.749 4.667 1.463 1.373 2.845 2.84 4.45 4 1.494 1.306 3.203 2.24 4.757 3.293.833.427 1.653.853 2.456 1.267.402.2.79.426 1.193.6.41.16.813.32 1.213.48.798.32 1.572.626 2.322.933.776.227 1.525.44 2.245.64.724.187 1.397.453 2.072.56.672.12 1.308.227 1.907.333.597.12 1.156.214 1.673.307.524.053 1.005.08 1.441.12 1.739.133 2.732.213 2.732.213l-.204 5.334s-1.121-.107-3.081-.307c-.49-.04-1.032-.093-1.621-.16-.583-.12-1.212-.24-1.884-.373a173.66 173.66 0 0 1-2.14-.44c-.758-.134-1.515-.44-2.326-.667-.805-.253-1.644-.507-2.51-.773-.839-.36-1.704-.72-2.595-1.094-.444-.186-.895-.373-1.35-.573-.449-.213-.88-.467-1.33-.693-.89-.494-1.797-.987-2.721-1.48-1.73-1.2-3.606-2.307-5.254-3.787-1.76-1.333-3.282-2.987-4.868-4.56-1.417-1.733-2.912-3.4-4.072-5.28-1.308-1.773-2.23-3.733-3.252-5.56-.409-.96-.812-1.907-1.206-2.827-.191-.466-.403-.92-.567-1.386-.148-.467-.293-.934-.437-1.387-.286-.92-.563-1.8-.831-2.667-.184-.88-.363-1.733-.535-2.546-.15-.827-.372-1.587-.438-2.36-.082-.774-.158-1.507-.23-2.2l-.193-1.934-.007-1.533-.006-2.92 4-.053m-80.103 93.76l4.193-.32c1.295-.2 2.519-.454 3.788-.667 1.263-.293 2.531-.693 3.8-1.04 1.244-.427 2.455-.947 3.687-1.413 1.192-.56 2.348-1.2 3.528-1.787l3.333-2.133 3.099-2.467c.94-.933 1.919-1.827 2.836-2.773.844-1.027 1.748-2 2.552-3.054.741-1.093 1.563-2.146 2.247-3.293.632-1.16 1.361-2.28 1.924-3.493.521-1.227 1.145-2.414 1.59-3.667.407-1.267.915-2.507 1.248-3.8.294-1.307.671-2.6.904-3.92.182-1.333.415-2.653.56-3.987l.223-4.026h4l.225 4.04c.144 1.346.383 2.666.564 4 .23 1.32.616 2.613.911 3.92.33 1.306.85 2.546 1.26 3.826.444 1.254 1.081 2.44 1.607 3.667.562 1.213 1.305 2.333 1.942 3.507.687 1.133 1.522 2.186 2.27 3.28.808 1.053 1.725 2.026 2.576 3.04.924.96 1.914 1.853 2.862 2.773l3.122 2.467 3.358 2.12c1.187.586 2.354 1.213 3.55 1.773 1.24.467 2.458.987 3.708 1.413 1.28.334 2.544.734 3.829 1.04 1.307.214 2.605.467 3.912.667l3.964.307.252.013a2.66 2.66 0 0 1 2.455 2.867 2.668 2.668 0 0 1-2.86 2.453c-.012 0-.039-.013-.052-.013l-4.444-.427c-1.468-.24-2.927-.56-4.388-.84-1.443-.36-2.862-.827-4.29-1.253-1.4-.507-2.765-1.107-4.145-1.667-1.339-.653-2.64-1.387-3.957-2.08-1.256-.8-2.487-1.64-3.726-2.453-1.152-.947-2.317-1.88-3.446-2.84-1.048-1.054-2.132-2.067-3.14-3.16-.935-1.147-1.931-2.254-2.806-3.454-.816-1.226-1.712-2.413-2.449-3.693-.69-1.307-1.477-2.573-2.076-3.92-.561-1.36-1.228-2.693-1.69-4.093-.431-1.4-.966-2.787-1.302-4.214-.301-1.44-.69-2.866-.912-4.306-.175-1.467-.401-2.92-.528-4.374l-.156-4.386a1.997 1.997 0 0 1 1.93-2.067 1.992 1.992 0 0 1 2.07 2.067l-.153 4.373c-.128 1.453-.35 2.893-.524 4.347-.226 1.453-.604 2.866-.903 4.306-.34 1.427-.861 2.8-1.288 4.2-.464 1.4-1.117 2.72-1.672 4.08-.599 1.347-1.37 2.6-2.053 3.907-.735 1.28-1.616 2.467-2.423 3.707-.87 1.186-1.85 2.306-2.777 3.453-1.003 1.093-2.074 2.107-3.112 3.173-1.124.96-2.276 1.894-3.422 2.84-1.23.827-2.45 1.667-3.701 2.467-1.31.707-2.604 1.44-3.937 2.093-1.374.56-2.732 1.174-4.128 1.68-1.427.427-2.828.894-4.284 1.267-1.49.293-3.014.613-4.484.853l-4.186.414a2.677 2.677 0 0 1-2.913-2.4 2.653 2.653 0 0 1 2.393-2.907c.014-.013.042-.013.055-.013" fill="#231F20" fill-rule="nonzero"/>
        <path d="M163.628 27.387c0 17.266-35.743 31.266-79.833 31.266-44.091 0-80.167-14-80.167-31.266" stroke="#231F20" stroke-width="5.333"/>
    </g>
</svg>
