<svg width="168" height="167" xmlns="http://www.w3.org/2000/svg">
    <title>
        li
    </title>
    <g fill="none" fill-rule="evenodd">
        <path d="M163.965 123.44c0 22.08-17.909 40-40 40h-80c-22.092 0-40-17.92-40-40v-80c0-22.093 17.908-40 40-40h80c22.091 0 40 17.907 40 40v80" fill="#FFF" fill-rule="nonzero"/>
        <path d="M163.965 123.44c0 22.08-17.909 40-40 40h-80c-22.092 0-40-17.92-40-40v-80c0-22.093 17.908-40 40-40h80c22.091 0 40 17.907 40 40v80z" stroke="#231F20" stroke-width="6.667"/>
    </g>
</svg>
