<svg width="168" height="61" xmlns="http://www.w3.org/2000/svg">
    <title>
        lili
    </title>
    <g fill="none">
        <path d="M102.133 11.133c12.827-2.746 23.254-7.36 35.654-7.36 17.626 0 26.52 11.934 26.52 26.667 0 14.72-9.48 26.667-26.52 26.667-11.934 0-19.44-6.56-32.64-10.48" fill="#FFF"/>
        <path d="M101.533 8.533s.587-.16 1.694-.44c1.093-.306 2.746-.706 4.72-1.306 2.026-.6 4.48-1.334 7.293-2.174 2.867-.84 6.12-1.826 9.84-2.613.933-.187 1.88-.387 2.84-.573.973-.187 2-.294 3.027-.454 2.04-.346 4.213-.373 6.44-.52l.2-.013h.16c.08 0-.107-.013.2 0l.386.013.8.027c.52.027 1.054.053 1.6.067 1.107.066 2.427.28 3.654.44a59.43 59.43 0 0 1 3.626.853c1.187.44 2.427.747 3.587 1.36.587.28 1.173.56 1.773.84l1.694 1.027c.573.333 1.12.72 1.64 1.146.533.414 1.08.8 1.573 1.254 2.027 1.813 3.733 3.973 5.16 6.306 1.333 2.387 2.4 4.907 3.067 7.534.626 2.626 1.066 5.293 1.093 7.96l.027 1 .013.12-.013.253v.227l-.027.453-.067 1.827c-.146 1.333-.253 2.826-.56 4.12-.453 2.653-1.4 5.226-2.533 7.68-1.187 2.44-2.773 4.666-4.56 6.68-1.88 1.92-3.96 3.626-6.24 4.88-4.533 2.626-9.52 3.64-14.08 3.853-.573.027-1.133.053-1.707.067l-.053.013-.267-.013-.106-.014-.187-.013-.387-.027-.76-.066c-1.026-.094-1.986-.134-3.013-.267-2.2-.44-4.453-.813-6.227-1.493-3.773-1.16-6.84-2.694-9.56-3.92-2.68-1.254-4.986-2.307-6.88-3.107-1.893-.88-3.426-1.333-4.453-1.747a223.631 223.631 0 0 0-1.573-.586l1.506-5.107s.614.173 1.747.52c1.107.36 2.827.787 4.853 1.587 2.08.72 4.52 1.733 7.267 2.88 1.347.533 2.8 1.2 4.293 1.733.747.28 1.507.573 2.294.867.773.306 1.573.493 2.373.746 1.667.587 3.213.72 4.853 1.094.92.093 1.96.12 2.974.186.426.027.853.054 1.293.067.467-.013.933-.04 1.413-.067 3.747-.2 7.654-1.04 11.04-3.026 1.72-.96 3.227-2.254 4.64-3.667 1.334-1.507 2.547-3.16 3.467-5.027.867-1.893 1.64-3.88 2-6.013.133-.52.213-1.04.267-1.547.053-.506.146-.986.2-1.533l.066-1.827.027-.453.013-.227v-.066.093l-.013-.107-.027-.826c-.026-2.214-.413-4.374-.92-6.454-.533-2.08-1.386-4.013-2.386-5.813a21.475 21.475 0 0 0-3.84-4.667c-.36-.346-.774-.626-1.16-.933-.387-.32-.774-.613-1.214-.853l-1.253-.787-1.333-.627c-.867-.48-1.84-.706-2.747-1.053-.947-.28-1.92-.493-2.853-.693-.947-.107-1.76-.294-2.8-.36l-1.587-.08-.8-.027-.387-.027c.267.014.054.014.094.014h-.134l-.186.013c-1.96.08-3.854.04-5.707.32-.933.12-1.84.187-2.733.333-.894.16-1.774.32-2.64.48-3.44.654-6.64 1.467-9.494 2.187-2.866.733-5.373 1.387-7.52 1.88-2.133.52-3.76.813-4.88 1.053-1.12.227-1.706.36-1.706.36l-1.214-5.2" fill="#231F20"/>
        <path d="M62.653 46.853C49.84 50.8 42.327 57.107 30.821 57.107c-16.74 0-26.518-11.947-26.518-26.667 0-14.733 12.592-26.667 26.518-26.667 9.854 0 21.406 4.667 35.206 7.4" fill="#FFF"/>
        <path d="M63.52 49.373l-1.613.614c-1.027.413-2.667.946-4.454 1.786a278.598 278.598 0 0 0-6.746 3.067c-1.374.6-2.734 1.307-4.334 1.947-.798.32-1.612.653-2.445.986-.847.32-1.768.587-2.681.894-.46.146-.926.306-1.395.453-.473.147-.984.227-1.483.333-1.005.214-2.026.44-3.076.627-1.07.093-2.158.173-3.262.267l-.834.066-.209.014h-.105l-.052.013-.202-.013-.38-.014c-.508-.026-1.018-.04-1.533-.066-.961 0-2.232-.187-3.443-.347-1.249-.133-2.358-.493-3.553-.76-1.173-.293-2.33-.76-3.501-1.173-.568-.267-1.139-.547-1.712-.814l-.859-.413-.821-.493c-.547-.334-1.096-.667-1.648-1l-1.552-1.187-.774-.6-.716-.68c-.473-.453-.965-.907-1.417-1.387-1.765-1.96-3.31-4.173-4.5-6.56-1.127-2.413-2.085-4.946-2.55-7.56-.333-1.306-.39-2.626-.582-3.946l-.081-1.987-.036-.987.048-1.08.09-1.786.311-2.12.172-1.067.253-.987.526-1.946c.901-2.547 1.977-5.027 3.474-7.227 2.878-4.453 6.923-7.987 11.368-10.373 1.142-.547 2.247-1.134 3.434-1.534.586-.2 1.16-.44 1.752-.613l1.784-.48C25.357.893 26.58.813 27.759.6c.597-.053 1.196-.067 1.788-.107l.885-.04.221-.013h.386l.386.027c1.028.066 2.043.133 3.043.2 1.037.106 2.156.306 3.2.466l1.563.24 1.436.32c.948.214 1.877.414 2.788.614 3.572.893 6.772 1.826 9.572 2.626 2.786.787 5.226 1.467 7.226 2.027 2 .587 3.574.907 4.64 1.2 1.08.267 1.654.4 1.654.4l-1.04 5.24s-.6-.12-1.734-.333c-1.106-.227-2.786-.494-4.853-.96-2.093-.44-4.6-1.027-7.44-1.734a574.294 574.294 0 0 0-9.457-2.253c-.851-.173-1.719-.333-2.604-.507-.443-.093-.89-.173-1.339-.266-.427-.054-.857-.107-1.292-.174-.877-.093-1.704-.253-2.66-.333l-3.047-.12-.386-.027c.061.014-.204 0 .124.014h-.126l-.168.013-.673.04c-.45.027-.905.04-1.36.08-.899.187-1.832.227-2.735.507-.454.133-.91.253-1.37.373-.456.133-.896.333-1.35.493-.92.294-1.773.787-2.662 1.2-1.711.974-3.411 2.067-4.884 3.48-.786.654-1.44 1.44-2.151 2.187-.35.373-.633.8-.957 1.213-.316.4-.646.8-.9 1.254-1.187 1.706-2.007 3.64-2.731 5.586l-.407 1.507-.205.747-.112.72-.247 1.426-.1 1.8-.025.454-.013.213-.006.12-.004.053c-.005.174.003-.173.004-.12l.039.8.07 1.614c.175 1.053.205 2.133.486 3.16.37 2.093 1.153 4.04 2.019 5.893.924 1.84 2.106 3.48 3.429 4.96.344.36.715.693 1.064 1.04l.528.507.581.453 1.154.893 1.241.76.613.387.655.307 1.296.626c.907.32 1.785.694 2.704.934.92.186 1.857.52 2.721.586.886.12 1.678.294 2.784.307.515.027 1.027.053 1.534.067l.38.026h-.106l.042-.013h.085l.168-.013.672-.04c.893-.04 1.773-.08 2.639-.134.861-.146 1.706-.306 2.537-.453.415-.08.83-.133 1.236-.24.408-.12.81-.24 1.21-.36.798-.253 1.58-.44 2.349-.72.77-.28 1.524-.573 2.257-.84 1.465-.52 2.91-1.173 4.23-1.693 2.693-1.12 5.093-2.12 7.186-2.867 2.08-.813 3.613-1.2 4.707-1.56 1.066-.333 1.64-.507 1.64-.507l1.733 5.04" fill="#231F20"/>
        <path d="M84.307 3.773c14.72 0 26.666 11.934 26.666 26.667 0 14.72-11.946 26.667-26.666 26.667-14.734 0-26.667-11.947-26.667-26.667 0-14.733 11.933-26.667 26.667-26.667" fill="#FFF"/>
        <path d="M84.307 6.707s-.587.026-1.68.08c-.547-.014-1.214.08-2 .213-.387.067-.814.093-1.254.2-.44.107-.906.227-1.4.347-1.96.56-4.32 1.4-6.72 2.96a23.97 23.97 0 0 0-6.866 6.626c-.934 1.48-1.894 3.067-2.52 4.867-.16.453-.334.907-.494 1.36-.12.467-.24.933-.36 1.413-.306.974-.346 1.867-.533 2.827-.08.467-.067 1.093-.107 1.64l-.053.853-.013.44c-.014.134 0-.133 0-.08v.04l.013.094.013.2c.08 1.04.08 2.093.307 3.133.267 2.107.987 4.173 1.853 6.173.92 2 2.214 3.84 3.654 5.547a25.838 25.838 0 0 0 5.16 4.387c1.933 1.2 4.04 2.106 6.213 2.8 1.107.266 2.24.586 3.267.68.933.213 2.426.186 3.68.266-.32-.013-.054 0-.107-.013h.16l.213-.013.427-.014.867-.04c.573 0 1.133-.093 1.706-.173 1.147-.107 2.24-.427 3.36-.693 2.174-.694 4.28-1.6 6.214-2.8 1.893-1.24 3.653-2.707 5.146-4.387 1.44-1.707 2.734-3.547 3.654-5.547.28-.48.413-1.013.626-1.506.187-.52.414-1.014.534-1.534.133-.52.28-1.04.413-1.56.147-.52.187-1 .28-1.493.227-.907.24-2.187.32-3.307l.013-.213.014-.107v-.053c0-.053-.014.213 0 .08l-.027-.387-.04-.773c-.04-.507-.027-1.027-.107-1.52-.48-4.027-1.92-7.68-3.92-10.587a23.97 23.97 0 0 0-6.866-6.626c-2.387-1.56-4.76-2.4-6.707-2.96-.493-.12-.96-.24-1.4-.347-.44-.093-.827-.133-1.2-.187-.36-.066-.707-.12-1.013-.173-.307-.04-.707-.04-.987-.053-1.227-.054-1.88-.094-1.88-.094l.147.014zM84.453.84s.654.04 1.88.107c.32.026.614.013 1.054.066.426.067.906.134 1.413.214.507.093 1.08.16 1.64.28.547.146 1.133.293 1.747.453 2.426.693 5.36 1.8 8.28 3.813a30.158 30.158 0 0 1 8.266 8.334 30.763 30.763 0 0 1 4.707 13.013c.093.613.08 1.227.133 1.853l.04.947.027.467-.027.573c-.053 1.173-.026 2.24-.266 3.667-.307 2.746-1.08 5.213-2.12 7.746-1.027 2.52-2.494 4.88-4.214 7.094-1.76 2.186-3.88 4.12-6.226 5.8a29.64 29.64 0 0 1-7.8 3.813c-1.414.387-2.84.787-4.294.973-.733.12-1.453.24-2.186.254l-1.107.066-.547.027-.28.027h-.2c-.093 0 .12.013-.24 0-1.346-.107-2.48-.067-4.12-.36-1.586-.2-2.973-.6-4.386-.987-2.787-.893-5.44-2.173-7.814-3.813-2.333-1.68-4.453-3.614-6.226-5.8-1.707-2.214-3.187-4.574-4.214-7.094-1.026-2.506-1.826-5.08-2.106-7.666-.24-1.28-.227-2.574-.28-3.84l-.014-.24v-.374l.027-.426.04-.854c.04-.586.027-1.093.12-1.733.2-1.267.307-2.6.653-3.72.16-.587.307-1.16.454-1.733.2-.56.4-1.12.586-1.667.8-2.187 1.88-4.173 3.027-6.013a29.8 29.8 0 0 1 8.267-8.334c2.906-2.013 5.84-3.12 8.28-3.813.613-.16 1.2-.307 1.746-.453.547-.12 1.08-.187 1.56-.267.974-.16 1.8-.28 2.494-.293 1.346-.08 2.08-.107 2.08-.107h.146z" fill="#231F20"/>
        <path d="M25.304 26.88s14.667 8 32.443 8" fill="#FFF"/>
        <path d="M26.54 24.52s.116.053.333.173c.223.134.527.28.907.467.744.4 1.888.92 3.288 1.547.688.333 1.465.613 2.281.933.818.32 1.671.68 2.574 1 .909.293 1.85.6 2.805.92.479.147.96.307 1.444.467.49.146.987.253 1.48.386.99.254 1.981.507 2.956.747.97.293 1.952.413 2.885.587.947.16 1.867.306 2.72.453.44.08.854.147 1.267.213.413.04.8.067 1.187.094 3.053.226 5.08.373 5.08.373l.213.013a1.988 1.988 0 0 1 1.84 2.134 1.998 1.998 0 0 1-2.053 1.853s-2.174-.08-5.427-.187l-1.28-.04c-.44-.053-.88-.12-1.347-.173-.92-.12-1.906-.24-2.906-.373-1.015-.147-2.068-.24-3.104-.494-1.044-.226-2.106-.453-3.167-.68-.53-.106-1.065-.213-1.59-.346a593.46 593.46 0 0 1-1.549-.44c-1.028-.294-2.038-.574-3.017-.854-.972-.306-1.893-.653-2.779-.946-.881-.307-1.72-.587-2.473-.907-1.515-.6-2.783-1.12-3.688-1.56-.453-.2-.803-.36-1.013-.467-.222-.12-.34-.173-.34-.173a2.667 2.667 0 1 1 2.356-4.787l.084.04.033.027" fill="#231F20"/>
        <path d="M143.307 26.88s-14.667 8-32.454 8" fill="#FFF"/>
        <path d="M144.533 29.24s-.106.053-.333.173c-.213.107-.56.267-1.013.467-.907.44-2.174.96-3.694 1.56-.746.32-1.586.6-2.466.907-.894.293-1.814.64-2.787.946-.973.28-1.987.56-3.013.854-.507.146-1.027.293-1.547.44-.52.133-1.053.24-1.587.346-1.066.227-2.12.454-3.173.68-1.027.254-2.08.347-3.093.494-1.014.133-1.987.253-2.907.373-.467.053-.92.12-1.36.173l-1.267.04c-3.266.107-5.44.187-5.44.187-1.093.04-2.013-.827-2.053-1.933a1.987 1.987 0 0 1 1.84-2.054l.213-.013s2.04-.147 5.08-.373c.387-.027.787-.054 1.187-.094.413-.066.84-.133 1.267-.213.866-.147 1.773-.293 2.72-.453.946-.174 1.92-.294 2.893-.587.973-.24 1.96-.493 2.96-.747.493-.133.987-.24 1.48-.386.48-.16.96-.32 1.44-.467.96-.32 1.893-.627 2.8-.92.907-.32 1.76-.68 2.573-1 .814-.32 1.6-.6 2.28-.933 1.4-.627 2.547-1.147 3.294-1.547.386-.187.68-.333.906-.467.214-.12.334-.173.334-.173l.026-.013a2.66 2.66 0 0 1 3.614 1.066 2.65 2.65 0 0 1-1.08 3.614.215.215 0 0 1-.094.053" fill="#231F20"/>
    </g>
</svg>
