<svg width="167" height="167" xmlns="http://www.w3.org/2000/svg">
    <title>
        linja
    </title>
    <g fill="none" fill-rule="evenodd">
        <path d="M142.76 83.44c0 32.653-26.467 59.12-59.12 59.12s-59.133-26.467-59.133-59.12c0-32.667 26.48-59.133 59.133-59.133 32.653 0 59.12 26.466 59.12 59.133" fill="#FFF" fill-rule="nonzero"/>
        <path d="M63.653 18.933C30.107 21.32 3.64 49.28 3.64 83.44c0 44.173 35.813 80 80 80 44.173 0 80-35.827 80-80 0-44.187-31.707-80-75.893-80-12.4 0-24.107 4.667-24.107 19.107 0 12.4 14.08 20.693 21.773 24.893 8.56 4.667 24 14.44 24 34.227 0 19.773-12.613 28.213-29.56 28.213-16.933 0-30.666-11.547-30.666-28.213 0-9.827 6.626-19.12 16.453-19.12 9.813 0 17.773 5.893 17.773 19.12" fill="#FFF" fill-rule="nonzero"/>
        <path d="M63.653 18.933C30.107 21.32 3.64 49.28 3.64 83.44c0 44.173 35.813 80 80 80 44.173 0 80-35.827 80-80 0-44.187-31.707-80-75.893-80-12.4 0-24.107 4.667-24.107 19.107 0 12.4 14.08 20.693 21.773 24.893 8.56 4.667 24 14.44 24 34.227 0 19.773-12.613 28.213-29.56 28.213-16.933 0-30.666-11.547-30.666-28.213 0-9.827 6.626-19.12 16.453-19.12 9.813 0 17.773 5.893 17.773 19.12" stroke="#231F20" stroke-width="6.667" stroke-linecap="round" stroke-linejoin="round"/>
    </g>
</svg>
