<svg width="168" height="168" xmlns="http://www.w3.org/2000/svg">
    <title>
        lipu
    </title>
    <g fill="none">
        <path d="M67.8 80.733c0 17.627-12.16 33.254-31.92 33.254-19.573 0-31.907-12.92-31.907-30.547 0-44.187 35.814-80 80-80 29.24 0 52.947 21.667 52.947 48.333 0 26.667-18.533 54.227-18.533 54.227 5.586-2.12 13.186-3.987 19.72-3.987 14.28 0 25.866 7.76 25.866 25.427 0 22.093-15 36-44 36h-86.76c-14.026 0-25.413-10.053-25.413-24.093 0-6.587 1.107-12.894 5.307-18.454 4.2-5.573 8.533-9.573 8.533-9.573" fill="#FFF"/>
        <path d="M69.8 80.827l-.067 2.84c-.026.96-.2 2.026-.293 3.04-.08 1.04-.347 1.986-.52 2.986-.173 1-.467 1.96-.76 2.92-1.173 3.854-2.987 7.547-5.413 10.84-2.414 3.294-5.467 6.16-9 8.307-3.507 2.173-7.454 3.6-11.48 4.333-1.014.147-2.027.387-3.04.44l-3.054.187h-.2c-.08 0 .054.013-.213.013l-.08-.013h-.36l-.707-.027-1.426-.04c-.907 0-1.987-.146-3.027-.266-4.147-.52-8.093-1.587-11.853-3.44a30.718 30.718 0 0 1-9.867-7.68c-2.747-3.214-4.747-7.027-5.973-11.014-1.24-3.973-1.68-8.186-1.6-12.226l.053-2.854.213-3c.054-1.013.174-1.986.307-2.973.12-.973.213-1.96.387-2.933.6-3.894 1.506-7.747 2.626-11.534C5.64 54.96 7.04 51.253 8.72 47.68c3.373-7.16 7.8-13.8 13.053-19.707A84.255 84.255 0 0 1 39.84 12.72c6.707-4.187 14.013-7.453 21.64-9.56 1.893-.587 3.827-.96 5.76-1.427 1.947-.333 3.88-.746 5.853-.946C75.053.493 77.027.347 79 .213c.987-.093 1.973-.08 2.96-.12l1.48-.04h.373l.094-.013.24.013h.186l.707.04 2.84.12 1.427.067c.48.027 1.013.12 1.52.187l3.066.413c.507.08 1.027.133 1.534.24l1.466.333c1.96.467 3.934.867 5.827 1.574l2.853.96c.947.36 1.854.8 2.787 1.186 7.347 3.267 14.147 7.987 19.467 14.134 5.333 6.106 9.293 13.493 11.213 21.44.28.986.373 2.013.573 3.013.16 1.013.374 2.013.467 3.027l.173 3.066.08 1.534.027.386-.013.494-.04.706c-.107 1.92-.067 3.72-.374 5.814l-.346 3.04c-.134 1.013-.347 1.96-.52 2.946-1.454 7.774-3.854 15.267-6.907 22.44-3.08 7.187-6.56 14.014-10.88 20.72l-4.12-5.2c5.867-2.173 11.893-3.613 18.293-4.053l2.4-.147.147-.013h.267l.28.013.546.014 1.12.04c.68 0 1.614.12 2.44.2.854.08 1.667.213 2.467.373 3.24.587 6.453 1.653 9.427 3.347 2.973 1.68 5.666 4.026 7.68 6.84 2.026 2.813 3.386 6.013 4.2 9.24.173.813.413 1.613.533 2.426l.32 2.44c.12.814.093 1.627.147 2.44l.053 1.2.013.307-.013.44-.027.547-.093 2.226c-.013.374-.027.72-.053 1.12l-.16 1.24-.334 2.48c-.093.827-.346 1.587-.52 2.387-.2.787-.36 1.587-.6 2.36l-.813 2.32-.427 1.147c-.16.386-.346.746-.52 1.12l-1.093 2.226c-.387.72-.88 1.4-1.307 2.107-.466.68-.853 1.413-1.413 2.027-1.067 1.28-2.067 2.613-3.307 3.693-4.76 4.6-10.693 7.68-16.76 9.493-6.08 1.827-12.32 2.52-18.466 2.614-6.054.106-11.867.04-17.814.066l-71.146-.133-2.227-.107-2.613-.346c-1.667-.32-3.267-.694-4.854-1.267a28.924 28.924 0 0 1-8.746-4.907c-5.24-4.253-8.84-10.666-9.547-17.386-.16-.84-.12-1.68-.187-2.52-.013-.44-.053-.787-.04-1.307l.027-1.107.027-1.106.093-1.227c.053-.827.12-1.653.24-2.44.427-3.213 1.267-6.467 2.72-9.52l1.2-2.227c.44-.706.92-1.4 1.4-2.093l.173-.267.094-.12.146-.213.347-.427.707-.866 1.4-1.72c.44-.574.96-1.147 1.493-1.734l1.587-1.76a77.766 77.766 0 0 1 3.306-3.333 3.345 3.345 0 0 1 4.72.12c1.254 1.333 1.2 3.453-.133 4.707l-.067.066a77.988 77.988 0 0 0-2.92 2.987l-1.386 1.533c-.454.507-.92 1.027-1.387 1.627l-1.387 1.72-.693.867-.36.44-.2.306c-.347.534-.72 1.054-1.067 1.6l-.893 1.68c-1.08 2.32-1.747 4.84-2.08 7.507-.107.653-.147 1.307-.2 1.96l-.067.987-.026 1.106-.027 1.107c-.013.227.027.613.04.92.067.627.013 1.28.147 1.907.56 5.066 3.226 9.72 7.16 12.92 1.96 1.6 4.24 2.84 6.666 3.68 1.2.44 2.494.72 3.72.973l1.8.24 2.2.107 70.84-.094 8.867.014h4.44c1.48 0 2.987.013 4.373-.04 5.667-.08 11.294-.734 16.56-2.307 5.267-1.56 10.107-4.133 13.867-7.773 1.013-.84 1.773-1.907 2.613-2.894.454-.48.747-1.08 1.12-1.613.334-.547.734-1.067 1.027-1.653l.867-1.76c.146-.294.306-.587.426-.88l.334-.934.666-1.866c.2-.627.32-1.294.494-1.934.133-.653.36-1.306.426-1.946l.267-1.92.147-.947c.026-.347.026-.733.053-1.107l.093-2.213.027-.547v-.146l.013-.067c0-.16-.013.147-.013.093l-.013-.253-.04-1c-.04-.667-.014-1.36-.107-2l-.267-1.96c-.08-.653-.28-1.267-.413-1.907-1.213-5-4.12-9.266-8.533-11.706-2.174-1.24-4.64-2.067-7.214-2.547a17.003 17.003 0 0 0-1.906-.293c-.654-.054-1.187-.16-1.987-.174l-1.107-.04-.56-.013-.266-.013h.053l-.067.013h-.12l-2.04.147c-5.4.346-11.013 1.653-16.226 3.586a3.502 3.502 0 0 1-4.494-2.066 3.495 3.495 0 0 1 .347-3.094l.027-.04c1.92-2.973 3.813-6.266 5.52-9.52 1.693-3.293 3.32-6.626 4.746-10.026 2.92-6.8 5.16-13.84 6.507-20.987.16-.893.36-1.8.467-2.667l.32-2.613c.28-1.667.253-3.68.36-5.547l.026-.706.014-.187v-.08c0 .027.013-.2 0 .053l-.014-.333-.08-1.307-.133-2.626c-.08-.867-.28-1.734-.4-2.6-.173-.854-.24-1.734-.48-2.574-1.653-6.813-5.04-13.186-9.68-18.52-4.613-5.346-10.6-9.506-17.08-12.4-.813-.36-1.627-.746-2.453-1.066l-2.534-.854c-1.666-.64-3.426-.973-5.16-1.4l-1.293-.306c-.44-.08-.867-.12-1.293-.187l-2.574-.373c-.426-.054-.826-.147-1.293-.16L87.573 7l-2.84-.133-.72-.04h-.173c-.067-.014.24 0 .067 0h-.08l-.347.013-1.36.027c-.907.04-1.827.013-2.72.106-1.813.134-3.64.254-5.427.52-1.813.174-3.6.56-5.386.867-1.774.427-3.56.76-5.294 1.293-7.013 1.934-13.72 4.92-19.893 8.76a77.127 77.127 0 0 0-16.627 14.014c-2.453 2.693-4.626 5.613-6.68 8.626-2.026 3.014-3.786 6.2-5.413 9.467-1.573 3.28-2.893 6.68-4.027 10.133C9.6 64.133 8.72 67.68 8.133 71.28c-.173.893-.253 1.8-.386 2.707-.12.893-.24 1.8-.294 2.693l-.226 2.667-.08 2.84c-.094 3.533.24 6.973 1.226 10.253 1.92 6.56 6.44 12.187 12.574 15.32 3.013 1.573 6.466 2.573 9.84 3.067.84.106 1.64.266 2.64.293l1.413.067.707.04.36.013.093.013c-.213-.013-.013-.013-.04-.013h.173l2.627-.107c.88-.026 1.72-.226 2.6-.32 6.853-1.093 13.307-4.653 17.6-10.253 2.173-2.76 3.84-5.92 4.973-9.293.294-.84.587-1.68.76-2.56.187-.867.48-1.747.56-2.6.12-.867.307-1.68.374-2.614l.173-2.84c.08-1.106 1.027-1.946 2.12-1.88a2.02 2.02 0 0 1 1.88 2.054" fill="#231F20"/>
        <path d="M67.973 162.867s.067-.72.174-2.054c.026-.333.053-.72.093-1.12.053-.44.16-.96.253-1.506.107-.547.227-1.134.334-1.76.12-.627.253-1.294.44-1.907.346-1.267.693-2.68 1.16-4.187.493-1.48.986-3.093 1.586-4.786 1.227-3.36 2.667-7.12 4.387-11.12 1.693-4.027 3.693-8.294 5.827-12.787 2.16-4.48 4.52-9.16 7.04-13.96 2.666-4.893 5.013-9.467 6.866-14.64.88-2.56 1.734-5.16 2.24-7.8.334-1.32.454-2.64.667-3.973.08-1.307.267-2.654.2-3.947.053-1.32-.12-2.6-.24-3.893-.253-1.254-.453-2.52-.893-3.694-.8-2.373-1.947-4.6-3.587-6.453-.36-.493-.853-.893-1.28-1.347l-.32-.333-.16-.16-.08-.08c-.133-.12.133.093.08.067l-.053-.04-.827-.654c-.547-.413-1.107-.906-1.627-1.266l-1.52-.907c-.466-.32-1.026-.587-1.613-.84l-1.68-.787c-1.187-.373-2.333-.84-3.533-1.12a28.368 28.368 0 0 0-14 .2c-.547.16-1.08.32-1.627.494-.533.16-1.08.28-1.573.546-1.014.454-2 .907-2.987 1.347-.947.52-1.84 1.12-2.733 1.653-.44.28-.907.52-1.32.827l-1.2.96c-.8.64-1.574 1.253-2.334 1.867-.693.693-1.373 1.36-2.04 2.026-.653.667-1.32 1.294-1.906 1.96-.56.694-1.107 1.374-1.627 2.027-.533.653-1.04 1.293-1.533 1.907-.507.6-.867 1.28-1.294 1.88-.813 1.226-1.56 2.346-2.226 3.36-1.254 2.093-2.12 3.84-2.76 4.973l-.96 1.773-.08.147c-.534.973-1.747 1.333-2.707.8a1.99 1.99 0 0 1-.84-2.64s.32-.653.933-1.893c.64-1.227 1.467-3.067 2.707-5.334.68-1.093 1.427-2.32 2.24-3.653.427-.653.8-1.387 1.333-2.053.507-.667 1.04-1.374 1.6-2.094.547-.72 1.12-1.466 1.707-2.226.627-.747 1.347-1.44 2.053-2.2.707-.734 1.427-1.507 2.187-2.28.84-.694 1.693-1.414 2.56-2.134.44-.373.88-.733 1.333-1.106.467-.347.974-.654 1.467-.974 1.013-.64 2.013-1.333 3.093-1.96a678.73 678.73 0 0 0 3.427-1.64c.573-.306 1.2-.48 1.827-.68.613-.213 1.253-.413 1.88-.613 5.106-1.52 10.946-1.867 16.68-.52 1.426.32 2.826.84 4.24 1.293.693.307 1.373.614 2.053.92.693.294 1.387.614 2.067 1.054L93.6 55.08c.627.427 1.133.853 1.707 1.28l.826.64.054.04c-.014-.013.28.227.186.16l.107.093.2.214.427.413c.546.56 1.16 1.067 1.653 1.693 4.253 4.814 6.333 11.454 6.28 17.64.08 1.574-.107 3.107-.187 4.654-.226 1.506-.36 3.04-.706 4.506-.547 2.987-1.44 5.827-2.36 8.627-1.88 5.52-4.587 10.893-7.027 15.493a464.7 464.7 0 0 0-6.787 13.84c-2.04 4.44-3.96 8.654-5.586 12.587a199.874 199.874 0 0 0-4.174 10.773c-.56 1.6-1.013 3.12-1.48 4.52-.413 1.4-.72 2.68-1.04 3.84-.173.6-.253 1.094-.346 1.56-.094.48-.174.92-.254 1.334-.08.426-.173.786-.226 1.173-.027.413-.054.787-.08 1.12-.107 1.333-.16 2.053-.16 2.053v.054a3.348 3.348 0 0 1-3.574 3.08 3.353 3.353 0 0 1-3.08-3.587v-.013M33.107 61.773c0 2.28-1.854 4.12-4.134 4.12a4.126 4.126 0 1 1 0-8.253c2.28 0 4.134 1.84 4.134 4.133M48.44 42.267a4.137 4.137 0 0 1-4.133 4.133 4.137 4.137 0 0 1-4.134-4.133 4.137 4.137 0 0 1 4.134-4.134 4.137 4.137 0 0 1 4.133 4.134m23.333-10.174a4.128 4.128 0 0 1-4.133 4.134 4.126 4.126 0 1 1 0-8.253c2.28 0 4.133 1.84 4.133 4.12" fill="#231F20"/>
    </g>
</svg>
