<svg width="168" height="168" xmlns="http://www.w3.org/2000/svg">
    <title>
        loje
    </title>
    <g fill="none" fill-rule="evenodd">
        <path d="M156.6 77.027c0 39.8-32.253 72.053-72.04 72.053-39.8 0-72.053-32.253-72.053-72.053 0-39.787 32.253-72.04 72.053-72.04 39.787 0 72.04 32.253 72.04 72.04" fill="#FFF" fill-rule="nonzero"/>
        <path d="M107.853 97.373c0-15.6 12.654-28.253 28.254-28.253 15.6 0 28.253 12.653 28.253 28.253l-.053 27.067c0 22.08-17.907 40-40 40h-80c-22.094 0-40-17.92-40-40V97.373c0-15.6 12.64-28.253 28.253-28.253 15.6 0 28.253 12.653 28.253 28.253 0-12.986 10.534-23.52 23.52-23.52 12.987 0 23.52 10.534 23.52 23.52" fill="#FFF" fill-rule="nonzero"/>
        <path d="M107.853 97.373c0-15.6 12.654-28.253 28.254-28.253 15.6 0 28.253 12.653 28.253 28.253l-.053 27.067c0 22.08-17.907 40-40 40h-80c-22.094 0-40-17.92-40-40V97.373c0-15.6 12.64-28.253 28.253-28.253 15.6 0 28.253 12.653 28.253 28.253 0-12.986 10.534-23.52 23.52-23.52 12.987 0 23.52 10.534 23.52 23.52z" stroke="#231F20" stroke-width="6.667" stroke-linecap="round" stroke-linejoin="round"/>
        <path d="M11 77.44C11 36.933 43.827 4.107 84.333 4.107c40.507 0 73.334 32.826 73.334 73.333" stroke="#231F20" stroke-width="6.667" stroke-linecap="round" stroke-linejoin="round"/>
        <path d="M94 76.52V5.107" stroke="#231F20" stroke-width="4.667" stroke-linecap="round" stroke-linejoin="round"/>
        <path d="M84 73.853V5.107" stroke="#231F20" stroke-width="4" stroke-linecap="round" stroke-linejoin="round"/>
        <path d="M73 76.52V5.107M39.827 33.773l21.84 25.64m0-25.64l-21.84 25.64M107 33.773l21.84 25.64m0-25.64L107 59.413" stroke="#231F20" stroke-width="4.667" stroke-linecap="round" stroke-linejoin="round"/>
    </g>
</svg>
