<svg width="178" height="178" xmlns="http://www.w3.org/2000/svg">
    <title>
        lon
    </title>
    <g fill="none" fill-rule="evenodd">
        <path d="M163.69 64.77v69.664c0 22.1-17.9 40-40 40h-80c-22.1 0-40-17.9-40-40v-80c0-22.085 17.9-40 40-40h61.336" fill="#FFF" fill-rule="nonzero"/>
        <path d="M163.69 64.77v69.664c0 22.1-17.9 40-40 40h-80c-22.1 0-40-17.9-40-40v-80c0-22.085 17.9-40 40-40h61.336" stroke="#231F20" stroke-width="6.667"/>
        <path d="M162.654 41.475c13.306 19.696 16.01 37.969 4.355 49.624-14.246 14.231-29.388-14.302-65.833-14.302 0-36.46-28.534-51.616-14.317-65.847 11.542-11.528 30.227-8.567 49.752 4.354" fill="#FFF" fill-rule="nonzero"/>
        <path d="M164.87 40.015c.74 1.053 1.493 2.105 2.247 3.258a138.708 138.708 0 0 1 2.134 3.428c1.351 2.304 2.632 4.694 3.741 7.17 2.22 4.95 3.955 10.256 4.481 15.918.256 2.83.185 5.732-.313 8.606a28.214 28.214 0 0 1-2.816 8.322c-1.409 2.617-3.158 4.979-5.306 7.041a18.779 18.779 0 0 1-1.779 1.508 17.63 17.63 0 0 1-2.02 1.323c-1.465.782-3.115 1.38-4.78 1.622-3.385.498-6.529-.256-9.217-1.195-2.732-.953-5.15-2.177-7.511-3.386-4.709-2.432-9.133-4.964-13.713-7.084-4.553-2.148-9.261-3.87-14.07-5.093a64.756 64.756 0 0 0-14.78-1.991h-.085c-1.437-.029-2.589-1.224-2.575-2.675-.113-4.993-.768-9.943-2.005-14.765-1.224-4.823-2.93-9.517-5.079-14.084-2.12-4.566-4.652-8.99-7.098-13.699-1.21-2.36-2.419-4.78-3.386-7.51-.939-2.69-1.693-5.833-1.18-9.219.227-1.664.81-3.314 1.593-4.765.796-1.451 1.792-2.717 2.845-3.812l.199-.214.085-.1.17-.156.357-.341.725-.669c.583-.484 1.195-1.038 1.792-1.45 1.167-.897 2.461-1.651 3.756-2.348 2.632-1.337 5.49-2.276 8.35-2.717 2.888-.484 5.761-.526 8.578-.27 5.633.554 10.94 2.247 15.904 4.41 2.49 1.08 4.88 2.347 7.212 3.684a84.885 84.885 0 0 1 6.743 4.324 2.655 2.655 0 0 1 .64 3.713 2.654 2.654 0 0 1-3.556.74h-.029a104.113 104.113 0 0 0-6.572-3.756c-2.205-1.166-4.495-2.19-6.785-3.143-4.595-1.85-9.375-3.201-14.112-3.528-2.347-.2-4.694-.128-6.942.27-2.262.356-4.395 1.11-6.387 2.12-.967.554-1.949 1.11-2.816 1.806-.47.342-.811.683-1.238 1.01l-.683.655-.37.341-.213.228c-1.508 1.55-2.447 3.186-2.717 4.964-.299 1.778.1 3.884.84 6.074.753 2.191 1.834 4.439 2.986 6.686 2.333 4.524 4.88 9.19 7.014 14.098 2.162 4.879 3.983 10.014 5.135 15.306a70.717 70.717 0 0 1 1.565 16.117l-2.66-2.66c5.39-.085 10.825.427 16.117 1.58 5.306 1.137 10.427 2.958 15.32 5.12 4.894 2.148 9.56 4.68 14.084 7.014 2.261 1.152 4.523 2.233 6.7 2.987 2.19.754 4.282 1.138 6.074.84 1.778-.271 3.414-1.21 4.965-2.732 1.607-1.522 3.015-3.386 4.082-5.32 1.039-1.992 1.821-4.112 2.205-6.36.427-2.247.512-4.58.313-6.927-.313-4.723-1.693-9.488-3.585-14.054a75.13 75.13 0 0 0-3.2-6.772 92.359 92.359 0 0 0-1.835-3.286 156.855 156.855 0 0 0-1.992-3.272 2.667 2.667 0 0 1 .84-3.67 2.686 2.686 0 0 1 3.598.711l.015.029" fill="#231F20" fill-rule="nonzero"/>
        <path d="M158.821 44.59c-11.46 11.461-26.443 15.054-33.473 8.024-7.03-7.03-3.45-22.026 8.024-33.473 11.446-11.46 26.43-15.04 33.459-8.01 7.03 7.03 3.437 22.013-8.01 33.46" fill="#FFF" fill-rule="nonzero"/>
        <path d="M156.711 42.461s.384-.411 1.066-1.178c.724-.739 1.69-1.917 2.84-3.451 1.136-1.548 2.428-3.494 3.607-5.851 1.136-2.372 2.201-5.155 2.684-8.194.114-.753.142-1.52.213-2.287-.043-.766.028-1.562-.114-2.3-.056-.781-.27-1.491-.44-2.216-.27-.653-.54-1.462-.838-1.86-.07-.128-.128-.256-.199-.383-.07-.142-.312-.384-.454-.568l-.497-.583-.256-.298c-.17-.185.2.213.17.17l-.028-.014-.056-.056-.114-.086-.838-.71c-.327-.199-.653-.383-.966-.596-1.377-.71-3.039-1.108-4.856-1.193-3.65-.156-7.726 1.05-11.532 2.869-1.889.98-3.792 2.03-5.552 3.337-.91.625-1.69 1.306-2.528 1.974-.838.667-1.733 1.548-2.585 2.329l-1.08 1.122c-.383.412-.794.78-1.135 1.221-.71.838-1.449 1.647-2.088 2.556-1.363 1.719-2.47 3.607-3.508 5.482-1.945 3.806-3.195 7.924-3.095 11.702.056 1.874.454 3.664 1.15 5.112.199.284.355.582.511.895.284.383.653.795.98 1.193l.114.156.07.07.043.03c.029.056-.27-.285-.128-.129l.228.185.454.384c.27.284.61.468.966.667 1.32.81 2.868 1.292 4.459 1.434.781.142 1.605.057 2.386.085.81-.085 1.59-.142 2.357-.284 3.11-.553 5.908-1.704 8.265-2.925 2.358-1.25 4.26-2.599 5.794-3.777 1.491-1.193 2.542-2.088 3.38-2.926.625-.596 1.008-.98 1.15-1.108zm4.176 4.303s-.44.398-1.25 1.15c-.753.71-2.159 1.904-3.92 3.238-1.789 1.293-4.004 2.784-6.76 4.161-2.769 1.35-6.063 2.628-9.954 3.253-.966.156-1.974.227-3.011.298-1.05-.043-2.102.028-3.21-.142-2.187-.213-4.516-.895-6.646-2.201-.54-.313-1.079-.64-1.548-1.08l-.71-.61-.369-.327c.128.142-.213-.213-.199-.199l-.028-.028-.057-.071-.128-.156c-.34-.398-.681-.767-1.022-1.208a48.457 48.457 0 0 1-1.136-1.817c-1.222-2.358-1.761-4.9-1.875-7.442-.17-5.098 1.378-9.955 3.508-14.442 1.136-2.202 2.371-4.389 3.863-6.39.71-1.038 1.52-1.99 2.3-2.955.398-.511.838-.951 1.25-1.406l1.349-1.448c.866-.824 1.619-1.633 2.599-2.457.98-.838 1.96-1.718 2.968-2.428 1.974-1.548 4.147-2.84 6.348-4.034 4.473-2.272 9.387-3.862 14.613-3.749 2.584.086 5.254.625 7.683 1.846.582.356 1.164.696 1.746 1.051.54.398 1.051.852 1.577 1.278l.184.17.086.086.056.043c-.028-.029.37.397.213.241l.256.284.497.597c.17.213.312.34.511.639l.597.909c.852 1.278 1.207 2.4 1.647 3.564.312 1.179.61 2.343.696 3.465.185 1.15.1 2.244.114 3.323-.086 1.051-.17 2.088-.355 3.068-.696 3.948-2.088 7.256-3.494 10.012-1.449 2.755-2.996 4.956-4.331 6.702-1.378 1.719-2.514 3.025-3.338 3.849l-1.278 1.335-.042.028z" fill="#231F20" fill-rule="nonzero"/>
    </g>
</svg>
