<svg width="168" height="167" xmlns="http://www.w3.org/2000/svg">
    <title>
        luka
    </title>
    <g fill="none" fill-rule="evenodd">
        <path d="M97.616 23.548c0-11.046 14.893-19.99 33.277-19.99 27.669 0 33.261 8.944 33.261 19.99 0 11.046-14.892 20.006-33.26 20.006 18.368 0 33.26 4.666 33.26 19.99 0 15.558-14.892 20.007-33.26 20.007 18.368 0 33.26 4.666 33.26 20.006 0 16.438-14.892 19.991-33.26 19.991 18.368 0 33.26 8.96 33.26 20.006s-6.704 19.99-33.26 19.99c-18.385 0-33.278-8.944-33.278-19.99" fill-rule="nonzero" fill="#FFF"/>
        <path d="M95.635 23.465v-1.006l.124-1.253c.108-.773.294-1.531.51-2.29.449-1.5 1.145-2.892 1.98-4.176 1.67-2.552 3.852-4.64 6.219-6.327 2.367-1.717 4.919-3.078 7.595-4.145 2.645-1.068 5.399-1.857 8.168-2.444 2.769-.588 5.584-.929 8.415-1.099a76.943 76.943 0 0 1 4.177-.093c1.345.016 2.8.016 4.16.093 2.785.124 5.57.356 8.37.805 2.8.464 5.63 1.082 8.43 2.134 2.77 1.052 5.569 2.537 7.936 4.796 2.382 2.243 4.13 5.29 4.919 8.369.418 1.546.65 3.093.773 4.61l.047 1.129.015.556.016.279v.402c-.031.356-.031.634-.062 1.052-.047.464-.108.944-.17 1.392-.588 3.388-2.274 6.389-4.347 8.74-2.088 2.367-4.533 4.208-7.1 5.693-2.6 1.47-5.29 2.568-8.044 3.434-2.754.835-5.554 1.47-8.4 1.779-2.83.325-5.662.449-8.477.325v-5.337a79.169 79.169 0 0 1 11.308.371c3.79.449 7.642 1.207 11.4 2.676 1.872.743 3.729 1.686 5.461 2.909 1.733 1.222 3.341 2.722 4.656 4.516a19.543 19.543 0 0 1 2.908 5.925c.14.526.263 1.052.403 1.578l.263 1.578.139 1.593.062 1.655-.062 1.377-.155 1.67-.263 1.579c-.124.526-.247 1.067-.387 1.577a19.487 19.487 0 0 1-2.877 5.925c-1.315 1.795-2.923 3.31-4.671 4.533-1.733 1.237-3.605 2.165-5.476 2.892-3.775 1.47-7.627 2.197-11.401 2.645-3.806.387-7.58.48-11.308.34v-5.336c3.743-.14 7.533-.046 11.339.371 3.805.449 7.657 1.222 11.431 2.707 1.888.743 3.744 1.702 5.476 2.94a20.025 20.025 0 0 1 4.657 4.563 18.836 18.836 0 0 1 2.861 5.94c.588 2.15.836 4.192.836 6.42l-.062 1.376-.155 1.656-.247 1.577-.372 1.563a18.814 18.814 0 0 1-2.769 5.986 18.685 18.685 0 0 1-4.671 4.626c-1.748 1.252-3.635 2.18-5.538 2.892-3.836 1.423-7.704 2.089-11.478 2.46-3.821.34-7.58.402-11.308.263v-5.337c2.815-.14 5.646 0 8.462.325 2.83.31 5.63.928 8.384 1.763 5.476 1.717 10.905 4.378 15.144 9.096 2.057 2.336 3.759 5.321 4.347 8.694a17.5 17.5 0 0 1 .263 2.552v.355l-.016.264-.015.495c0 .325-.047.789-.062 1.176a22.227 22.227 0 0 1-.85 4.64c-.867 3.079-2.646 6.033-5.013 8.23-2.351 2.212-5.105 3.743-7.874 4.81-2.769 1.083-5.584 1.749-8.384 2.228-2.8.464-5.584.727-8.369.866a92.647 92.647 0 0 1-4.145.078l-2.104-.016c-.696-.015-1.3-.015-2.057-.077-2.878-.17-5.647-.51-8.431-1.098-2.77-.588-5.507-1.377-8.152-2.46a34.952 34.952 0 0 1-7.565-4.13c-2.382-1.686-4.548-3.79-6.218-6.327s-2.707-5.662-2.615-8.802h3.991c.093 2.259.96 4.409 2.32 6.296 1.362 1.887 3.187 3.527 5.26 4.842 2.058 1.346 4.332 2.413 6.698 3.28 2.352.866 4.827 1.5 7.317 1.933 2.49.449 5.074.68 7.565.742.587.016 1.315 0 1.964 0l1.918-.046c1.315-.046 2.615-.093 3.914-.201 5.151-.371 10.302-1.13 14.758-2.94 2.227-.896 4.207-2.103 5.754-3.603 1.547-1.501 2.599-3.326 3.171-5.415.294-1.036.464-2.165.526-3.295 0-.278.031-.48.047-.835v-.819.016-.093a11.74 11.74 0 0 0-.155-1.454c-.34-1.934-1.361-3.821-2.831-5.492-1.454-1.686-3.326-3.17-5.399-4.393-2.042-1.268-4.316-2.274-6.651-3.11-2.367-.804-4.827-1.422-7.302-1.886-2.49-.464-5.043-.712-7.595-.851a2.674 2.674 0 0 1-2.723-2.614c-.03-1.44 1.099-2.646 2.553-2.723h.17c3.589-.155 7.162-.34 10.612-.866 3.45-.464 6.837-1.191 9.838-2.429 2.986-1.253 5.584-2.97 7.178-5.352a13.114 13.114 0 0 0 1.763-3.93l.248-1.113.154-1.13.093-1.082.047-1.362c.015-1.423-.155-3.062-.526-4.44a12.176 12.176 0 0 0-1.826-3.897c-1.64-2.383-4.285-4.13-7.255-5.445-2.985-1.315-6.342-2.12-9.776-2.661-3.45-.573-6.977-.805-10.55-.96l-.201-.015c-1.47-.062-2.599-1.315-2.537-2.784a2.653 2.653 0 0 1 2.738-2.537c3.558-.155 7.085-.371 10.534-.944 3.419-.51 6.776-1.3 9.761-2.583 2.986-1.3 5.6-3.032 7.24-5.383a12.131 12.131 0 0 0 1.84-3.883l.264-1.083.17-1.114.093-1.051.03-1.362-.03-1.067-.093-1.145-.17-1.114-.263-1.067a12.288 12.288 0 0 0-1.841-3.883c-1.64-2.351-4.285-4.084-7.255-5.398-2.986-1.3-6.358-2.089-9.761-2.63-3.434-.573-6.961-.805-10.52-.96h-.17a2.676 2.676 0 0 1-2.552-2.784 2.672 2.672 0 0 1 2.723-2.552c2.568-.14 5.105-.387 7.61-.85 2.491-.48 4.95-1.084 7.302-1.904 2.351-.82 4.61-1.856 6.667-3.109 2.073-1.237 3.945-2.722 5.384-4.409 1.47-1.686 2.506-3.573 2.83-5.507l.078-.603c.03-.263.046-.65.062-.974v-.774l-.047-.882a18.078 18.078 0 0 0-.48-3.372c-.525-2.12-1.53-3.929-3.031-5.43-1.516-1.5-3.527-2.66-5.755-3.542-2.227-.897-4.671-1.485-7.177-1.933-2.506-.45-5.074-.712-7.673-.882-1.315-.109-2.553-.155-3.898-.201-1.377-.047-2.615-.078-3.883-.047-2.568.062-5.12.279-7.626.727-2.49.449-4.966 1.068-7.333 1.934-2.35.866-4.64 1.934-6.698 3.264-2.088 1.33-3.913 2.97-5.29 4.857a13.313 13.313 0 0 0-1.64 3.017 14.755 14.755 0 0 0-.48 1.608l-.108.758-.093 1.006-3.975-.17" fill-rule="nonzero" fill="#231F20"/>
        <path d="M130.902 123.542c0 22.09-17.912 40.002-40.002 40.002H46.568c-22.074 0-40.002-17.912-40.002-40.002L3.898 43.537c0-22.09 17.913-40.002 40.002-40.002h47c22.09 0 40.002 17.913 40.002 40.002v80.005" fill-rule="nonzero" fill="#FFF"/>
        <path d="M130.902 123.542c0 22.09-17.912 40.002-40.002 40.002H46.568c-22.074 0-40.002-17.912-40.002-40.002L3.898 43.537c0-22.09 17.913-40.002 40.002-40.002h47c22.09 0 40.002 17.913 40.002 40.002v80.005z" stroke="#231F20" stroke-width="6.667"/>
        <path d="M3.9 53.547c24.658 3.661 45.161 0 56.653 0 11.507 0 21.34 6.89 21.34 18.665 0 11.776-8.846 20.653-21.34 21.34-27.482 1.495-39.945 1.226-55.099-1.12" stroke="#231F20" stroke-width="5.333"/>
        <path d="M5.011 73.542s23.25 2.219 51.78-1.109" stroke="#231F20" stroke-width="5.333" stroke-linecap="round" stroke-linejoin="round"/>
        <path d="M47.9 94.208l1.785 70.223M45.68 3.547l1.223 50.655" stroke="#231F20" stroke-width="4.667" stroke-linejoin="round"/>
    </g>
</svg>
