<svg width="168" height="167" xmlns="http://www.w3.org/2000/svg">
    <title>
        lukin
    </title>
    <g fill="none" fill-rule="evenodd">
        <path d="M118.799 3.493c25.337 0 45.337 17.907 45.337 40 0 39.547-36.587 40-48.005 40 11.418 0 48.005.44 48.005 40 0 22.094-19.11 40-45.337 40H84.136c-44.183 0-80-35.826-80-80 0-44.186 35.817-80 80-80h34.663" fill="#FFF" fill-rule="nonzero"/>
        <path d="M118.765 6.413l-28.684.067c-2.372.013-4.832-.027-7.133.04-2.306.027-4.603.213-6.897.413-4.582.48-9.11 1.414-13.524 2.707a76.819 76.819 0 0 0-24.522 12.347 77.248 77.248 0 0 0-18.589 20.186c-4.92 7.76-8.476 16.387-10.325 25.374-.443 2.253-.842 4.506-1.087 6.8-.167 1.133-.232 2.253-.313 3.373l-.126 1.68-.044 1.787c-.117 4.613.118 9.2.813 13.746a76.837 76.837 0 0 0 8.875 25.867 76.112 76.112 0 0 0 17.406 21.107 77.033 77.033 0 0 0 23.676 13.666A73.644 73.644 0 0 0 71.575 159c2.251.36 4.56.68 6.773.813l1.675.134 1.788.053 1.794.04.81.013h.898l28.718.027c2.378 0 4.849.027 7.035-.04a53.419 53.419 0 0 0 6.686-.72c4.399-.787 8.693-2.147 12.64-4.173 7.915-3.96 14.476-10.574 17.805-18.654a34.047 34.047 0 0 0 1.912-6.226c.227-1.067.375-2.16.502-3.227l.132-1.547.052-1.786c.048-4.387-.407-9-1.622-13.187-1.192-4.227-3.19-8.133-5.988-11.387-2.786-3.266-6.329-5.906-10.326-7.826-3.991-1.934-8.382-3.16-12.88-3.974-4.516-.813-9.127-1.12-13.848-1.173h-.073a2.674 2.674 0 0 1-2.634-2.707 2.659 2.659 0 0 1 2.699-2.626h.012c5.688-.067 11.252-.52 16.624-1.747 5.349-1.2 10.486-3.147 14.806-6.16 4.316-3 7.748-7.04 9.899-11.813 1.09-2.374 1.879-4.907 2.41-7.534.547-2.586.806-5.346.898-8 .027-.64.02-1.466.03-2.08l-.055-1.973a35.738 35.738 0 0 0-.464-3.893 33.276 33.276 0 0 0-2.306-7.52 36.759 36.759 0 0 0-9.34-12.734c-4-3.56-8.737-6.333-13.83-8.186a46.892 46.892 0 0 0-7.87-2.054c-1.336-.24-2.704-.4-4.04-.533l-1.997-.133-2.135-.054zm.099-5.853l2.166.04 2.327.133a57.32 57.32 0 0 1 4.555.56 52.626 52.626 0 0 1 8.888 2.254c5.795 1.986 11.277 5.026 15.99 9.066 4.709 4.027 8.647 9.067 11.214 14.814a40.032 40.032 0 0 1 2.807 9.013 42.08 42.08 0 0 1 .58 4.68l.078 2.373c-.018.827-.017 1.44-.052 2.24-.136 3.12-.452 6.134-1.116 9.187-.645 3.04-1.604 6.053-2.952 8.907a34.495 34.495 0 0 1-5.142 8c-2.068 2.426-4.499 4.533-7.119 6.266-5.257 3.507-11.185 5.587-17.116 6.76-5.947 1.16-11.982 1.427-17.837 1.307h-.004v-5.333c9.69-.2 19.929.64 29.333 4.933 4.672 2.133 9.084 5.187 12.556 9.187 3.487 3.973 5.972 8.773 7.423 13.746a47.29 47.29 0 0 1 1.568 7.547c.314 2.56.461 4.987.449 7.653l-.05 1.8-.158 2.027c-.15 1.307-.325 2.587-.595 3.867a40.8 40.8 0 0 1-2.277 7.48c-3.976 9.693-11.768 17.506-20.93 22.106-4.574 2.347-9.505 3.907-14.517 4.827-2.512.44-5.043.707-7.58.827-2.598.093-4.914.053-7.322.066l-28.718.027h-.897l-.985-.013-1.794-.04-1.8-.054-1.904-.133c-1.272-.093-2.547-.187-3.773-.36-1.235-.173-2.482-.267-3.706-.52-4.926-.813-9.785-2.053-14.478-3.76a84.184 84.184 0 0 1-25.762-14.947c-7.61-6.453-14.057-14.28-18.894-23A83.599 83.599 0 0 1 1.718 95.92C.977 90.987.715 85.973.87 81.027l.053-1.8.147-1.907c.097-1.267.184-2.533.368-3.76.282-2.48.727-4.933 1.224-7.373C4.728 56.427 8.64 47.093 14.02 38.72 19.407 30.347 26.285 22.947 34.256 17A83.202 83.202 0 0 1 60.815 3.787 82.607 82.607 0 0 1 75.424.92c2.473-.213 4.95-.387 7.433-.4C85.34.453 87.668.507 90.08.507L118.8.56h.065z" fill="#231F20" fill-rule="nonzero"/>
        <path d="M34.525 47.053s1.058 1 2.911 2.76c.927.88 2.053 1.947 3.344 3.174a1138 1138 0 0 1 4.42 3.88c1.584 1.453 3.48 2.84 5.386 4.413.95.8 1.968 1.547 3.025 2.293 1.048.76 2.12 1.534 3.208 2.32 1.101.774 2.267 1.467 3.422 2.227 1.154.747 2.328 1.493 3.568 2.147 1.23.666 2.445 1.386 3.705 2.026 1.277.6 2.558 1.2 3.84 1.814 2.61 1.08 5.228 2.146 7.903 2.893.663.213 1.323.413 1.98.613l2 .48c1.328.307 2.623.667 3.942.854 1.31.213 2.586.48 3.857.64 1.274.16 2.52.306 3.734.44 2.444.213 4.752.4 6.909.493 4.3.213 7.92.227 10.458.253 2.542.027 3.994.054 3.994.054h.026a2.664 2.664 0 0 1 2.635 2.693 2.674 2.674 0 0 1-2.661 2.64h-4.037c-2.57-.027-6.252-.067-10.7-.307-1.11-.04-2.27-.133-3.472-.253-1.2-.12-2.441-.187-3.718-.36-1.276-.173-2.587-.347-3.926-.533-1.338-.2-2.698-.494-4.084-.747-1.391-.227-2.777-.627-4.188-.987-.705-.173-1.414-.36-2.126-.546-.7-.227-1.403-.454-2.11-.694-2.845-.853-5.628-2.04-8.386-3.24-1.35-.666-2.7-1.333-4.043-2-1.323-.693-2.59-1.466-3.873-2.2-1.297-.706-2.513-1.52-3.705-2.32-1.193-.813-2.4-1.56-3.532-2.386-1.115-.827-2.212-1.654-3.285-2.454-1.083-.8-2.121-1.6-3.085-2.426-1.938-1.654-3.852-3.107-5.468-4.654-1.646-1.493-3.153-2.866-4.49-4.08-1.272-1.253-2.38-2.333-3.293-3.226-1.821-1.8-2.863-2.814-2.863-2.814a1.998 1.998 0 0 1-.028-2.826 1.999 1.999 0 0 1 2.806-.054" fill="#231F20" fill-rule="nonzero"/>
        <path d="M26.879 90.96s.437-.52 1.202-1.44c.394-.453.815-1.013 1.427-1.64.595-.627 1.243-1.373 1.995-2.107.775-.72 1.559-1.56 2.492-2.333.923-.787 1.893-1.627 2.982-2.4 1.044-.827 2.23-1.533 3.405-2.293 1.225-.68 2.46-1.4 3.767-1.974.64-.32 1.295-.6 1.96-.853.662-.24 1.309-.547 1.98-.733.665-.227 1.325-.44 1.977-.654a223.35 223.35 0 0 0 1.955-.52 68.067 68.067 0 0 1 3.733-.786c1.191-.187 2.318-.374 3.36-.48 2.082-.267 3.817-.4 5.027-.467 1.21-.08 1.903-.12 1.903-.12a1.999 1.999 0 0 1 2.115 1.88 2.001 2.001 0 0 1-1.876 2.12h-.078s-.668.027-1.837.08a69.056 69.056 0 0 0-4.808.373c-3.947.4-9.158 1.347-13.893 3.494-1.198.506-2.33 1.146-3.458 1.746-1.08.68-2.176 1.307-3.149 2.054-1.01.693-1.919 1.453-2.786 2.173-.877.707-1.623 1.48-2.357 2.133-.71.68-1.306 1.347-1.864 1.907-.555.56-1.021 1.147-1.412 1.587-.78.893-1.224 1.413-1.224 1.413a1.672 1.672 0 0 1-2.351.173 1.67 1.67 0 0 1-.187-2.333m24.078 17.613l1.301-1.906c.428-.614.88-1.347 1.549-2.187.649-.84 1.349-1.813 2.175-2.813.86-.974 1.715-2.08 2.76-3.134 1.029-1.08 2.11-2.213 3.343-3.28 1.173-1.133 2.532-2.133 3.87-3.2 1.408-.986 2.826-2 4.346-2.853.74-.467 1.503-.88 2.282-1.267.776-.386 1.527-.826 2.32-1.146.783-.347 1.561-.68 2.33-1.014.783-.293 1.558-.586 2.32-.866a66.984 66.984 0 0 1 4.453-1.414 76.337 76.337 0 0 1 4.04-1 70.331 70.331 0 0 1 3.434-.706c1.023-.2 1.916-.36 2.652-.467 1.472-.227 2.313-.36 2.313-.36a2.003 2.003 0 0 1 2.29 1.653 2.003 2.003 0 0 1-1.662 2.294h-.013l-.058.013s-.818.12-2.25.333a61.84 61.84 0 0 0-2.571.414c-.991.16-2.106.373-3.306.64-1.212.226-2.5.56-3.86.906-1.358.347-2.772.787-4.214 1.267-.716.253-1.444.52-2.182.787-.718.306-1.447.613-2.18.92-.745.293-1.441.693-2.167 1.04-.728.346-1.44.72-2.13 1.146-1.42.774-2.74 1.694-4.06 2.587-1.253.973-2.53 1.893-3.639 2.933-1.163.987-2.19 2.04-3.172 3.04-.995.974-1.819 2.027-2.644 2.934-.79.92-1.446 1.826-2.065 2.586-.62.76-1.114 1.534-1.54 2.12-.844 1.2-1.326 1.894-1.326 1.894a1.682 1.682 0 0 1-2.32.413 1.672 1.672 0 0 1-.42-2.307" fill="#231F20" fill-rule="nonzero"/>
        <path d="M128.803 41.493c0 15.467-14.85 28-33.167 28s-33.167-12.533-33.167-28c0-15.466 14.85-28 33.167-28 18.318 0 33.167 12.534 33.167 28z" stroke="#231F20" stroke-width="5.333" stroke-linecap="round" stroke-linejoin="round"/>
        <path d="M104.803 41.493c0 5.054-4.105 9.16-9.167 9.16-5.063 0-9.167-4.106-9.167-9.16 0-5.066 4.104-9.173 9.167-9.173 5.062 0 9.167 4.107 9.167 9.173z" stroke="#231F20" stroke-width="4" stroke-linecap="round" stroke-linejoin="round"/>
    </g>
</svg>
