<svg width="167" height="167" xmlns="http://www.w3.org/2000/svg">
    <title>
        lupa
    </title>
    <g fill="none" fill-rule="evenodd">
        <path d="M163.47 83.493c0 44.174-35.818 80-80 80-44.183 0-80-35.826-80-80 0-44.186 35.817-80 80-80 44.182 0 80 35.814 80 80" fill="#FFF" fill-rule="nonzero"/>
        <path d="M163.47 83.493c0 44.174-35.818 80-80 80-44.183 0-80-35.826-80-80 0-44.186 35.817-80 80-80 44.182 0 80 35.814 80 80z" stroke="#231F20" stroke-width="6.667"/>
        <path d="M129.47 83.493c0 25.4-20.595 46-46 46-25.406 0-46-20.6-46-46 0-25.413 20.594-46 46-46 25.405 0 46 20.587 46 46" fill="#FFF" fill-rule="nonzero"/>
        <path d="M129.47 83.493c0 25.4-20.595 46-46 46-25.406 0-46-20.6-46-46 0-25.413 20.594-46 46-46 25.405 0 46 20.587 46 46z" stroke="#231F20" stroke-width="5.333"/>
        <path d="M64.75 127.787s-.626-1.587-1.72-4.347c-.425-1.507-1.005-3.373-1.497-5.507-.341-2.133-.909-4.533-.961-7.213l-.125-2.04-.031-.533.021-.614.039-1.026.08-2.094c.03-.706.03-1.413.165-2.213.228-1.547.398-3.173.711-4.773.395-1.56.739-3.187 1.21-4.787.582-1.573 1.114-3.2 1.774-4.8.763-1.547 1.44-3.16 2.31-4.693 1.751-3.054 3.762-6.04 6.134-8.734 1.205-1.32 2.356-2.706 3.73-3.853l1.986-1.787c.672-.573 1.412-1.066 2.112-1.6.708-.52 1.415-1.04 2.119-1.56.748-.453 1.492-.906 2.232-1.346.745-.44 1.466-.907 2.22-1.307.769-.373 1.533-.733 2.29-1.093.763-.347 1.499-.747 2.266-1.04.776-.28 1.544-.56 2.302-.84.762-.267 1.508-.547 2.262-.787.766-.187 1.524-.373 2.27-.547.747-.186 1.483-.36 2.208-.533.727-.16 1.463-.227 2.176-.333.715-.107 1.418-.2 2.107-.294.688-.106 1.365-.186 2.036-.186 1.336-.054 2.615-.094 3.832-.147l.452-.013.505.026c.283.014.562.027.836.054.55.026 1.083.053 1.6.08 2.148.213 4.116.453 5.607.773 1.533.253 2.701.613 3.505.827.802.213 1.228.333 1.228.333l-1.045 3.867s-.4-.08-1.15-.24c-.749-.147-1.84-.4-3.253-.56-1.432-.24-3.061-.36-5.042-.467-.518 0-1.052 0-1.603-.013h-.837l-.35-.014-.412.027c-1.102.08-2.264.16-3.474.24-.607.013-1.219.107-1.839.227-.621.093-1.255.2-1.897.32-.642.12-1.304.186-1.956.346-.648.187-1.308.36-1.976.547-.667.187-1.344.36-2.028.547a275.57 275.57 0 0 1-4.083 1.52c-.688.28-1.343.64-2.025.96-.679.333-1.362.666-2.051 1-.673.36-1.313.8-1.98 1.186-.661.414-1.327.814-1.995 1.227-.625.48-1.254.947-1.885 1.427-.623.493-1.285.933-1.883 1.453l-1.764 1.627c-1.23 1.026-2.274 2.253-3.365 3.44-2.15 2.386-3.972 5.053-5.572 7.786-.795 1.374-1.405 2.827-2.112 4.2-.603 1.427-1.087 2.894-1.63 4.294-.427 1.453-.789 2.893-1.18 4.293-.309 1.4-.477 2.76-.726 4.093-.144.64-.165 1.374-.212 2.08-.044.707-.088 1.414-.132 2.094l-.064 1.026-.016.254-.008.12-.004.066-.001.027c0-.04-.006.147.001-.093l.019.48.07 1.853c-.005 2.44.398 4.627.632 6.6.366 1.907.791 3.52 1.102 4.893.949 2.827 1.492 4.427 1.492 4.427l-3.758 1.387" fill="#231F20" fill-rule="nonzero"/>
    </g>
</svg>
