<svg width="168" height="167" xmlns="http://www.w3.org/2000/svg">
    <title>
        ma
    </title>
    <g fill="none" fill-rule="evenodd">
        <path d="M48.468 61.493c-29.179 4.694-44.665 22.174-44.665 52 0 29.827 24.176 50 54 50h26c44.182 0 80-35.826 80-80v-36c0-26.226-12.243-43.333-34.664-40-24.67 3.667-20.671 44.334-80.671 54" fill="#FFF" fill-rule="nonzero"/>
        <path d="M48.468 61.493c-29.179 4.694-44.665 22.174-44.665 52 0 29.827 24.176 50 54 50h26c44.182 0 80-35.826 80-80v-36c0-26.226-12.243-43.333-34.664-40-24.67 3.667-20.671 44.334-80.671 54z" stroke="#231F20" stroke-width="6.667"/>
        <path d="M19.8 73.04c0-12.88 13.83-23.333 30.89-23.333 17.058 0 30.887 10.453 30.887 23.333 0 12.893-13.829 23.333-30.888 23.333-17.06 0-30.889-10.44-30.889-23.333" fill="#FFF" fill-rule="nonzero"/>
        <path d="M22.467 73.04l.12 1.64c.11 1.053.43 2.6 1.186 4.453.798 1.854 2.158 3.974 4.203 6.04 2.05 2.067 4.825 4.027 8.204 5.534 1.68.773 3.525 1.373 5.468 1.88.968.266 1.988.413 3.003.626 1.012.147 2.006.254 3.05.374a73.86 73.86 0 0 0 1.734.066l.876.04.44.014h-.048.154l.207-.014c1.099-.08 2.221-.04 3.335-.213 1.117-.147 2.25-.253 3.365-.52.559-.133 1.13-.213 1.685-.36l1.668-.48c1.126-.293 2.184-.8 3.286-1.2 1.04-.52 2.146-.947 3.133-1.587a25.09 25.09 0 0 0 5.576-4.24 19.054 19.054 0 0 0 3.959-5.573c.118-.253.261-.507.364-.76l.266-.8c.182-.533.395-1.067.454-1.547l.158-.733c.058-.24.128-.467.135-.84l.13-1.8c-.005-4.44-1.94-8.88-5.245-12.267-1.625-1.706-3.494-3.24-5.568-4.426-.993-.667-2.106-1.12-3.157-1.68-1.11-.427-2.181-.96-3.321-1.267-.566-.173-1.13-.347-1.691-.507-.565-.16-1.144-.266-1.71-.386-1.146-.294-2.26-.414-3.366-.547a11.728 11.728 0 0 0-1.73-.147l-1.777-.08c-1.006-.026-2.197.067-3.264.094-4.361.32-8.392 1.466-11.786 3.066-3.407 1.587-6.182 3.654-8.206 5.8-2.021 2.147-3.346 4.32-4.112 6.2-.204.467-.309.934-.46 1.36-.138.427-.288.827-.321 1.174l-.184.96c-.032.146-.061.293-.09.426l-.03.494-.099 1.92.006-.187zm-5.328-.173l.157-1.92c.013-.16.028-.32.044-.494.041-.213.084-.44.13-.666l.313-1.507c.097-.56.294-1.067.492-1.627.209-.56.384-1.16.664-1.76 1.056-2.426 2.849-5.12 5.433-7.586 2.575-2.467 5.92-4.68 9.847-6.347 3.93-1.64 8.422-2.76 13.23-3.133 1.23-.027 2.367-.12 3.718-.107.588.027 1.181.04 1.777.053.588.014 1.196.04 1.856.12 1.292.134 2.61.254 3.87.507.637.12 1.285.2 1.923.36l1.918.48c1.296.293 2.548.8 3.838 1.213 1.24.547 2.54 1 3.747 1.694 2.481 1.24 4.83 2.88 6.963 4.84 4.34 3.826 7.42 9.76 7.518 16.053l-.137 2.2c-.001.307-.084.733-.161 1.147l-.238 1.226c-.137.854-.405 1.574-.653 2.307l-.377 1.093c-.14.36-.323.694-.483 1.04-.616 1.414-1.45 2.694-2.292 3.934-.936 1.173-1.873 2.333-2.956 3.333-2.117 2.027-4.457 3.747-6.955 5.04-1.213.72-2.52 1.2-3.77 1.773-1.3.44-2.564.974-3.874 1.294-.65.173-1.297.346-1.941.506-.648.16-1.303.267-1.95.387-1.29.28-2.587.4-3.867.533-1.279.16-2.555.12-3.808.174l-.235.013h-.333l-.44-.013-.876-.04c-.582-.014-1.16-.04-1.734-.054-1.238-.133-2.501-.253-3.696-.44-1.168-.24-2.333-.4-3.45-.706-2.242-.574-4.379-1.28-6.35-2.174-3.954-1.746-7.298-4.066-9.849-6.613-2.56-2.547-4.316-5.293-5.341-7.747-.998-2.48-1.403-4.573-1.542-6l-.136-2.213.006-.173z" fill="#231F20" fill-rule="nonzero"/>
        <path d="M83.8 22.827c0-11.414-5.079-19.334-11.337-19.334-6.26 0-11.334 7.92-11.334 19.334 0-11.414-5.074-18-11.333-18h.004c-6.259 0-11.333 6.586-11.333 18 0-11.414-5.075-19.334-11.334-19.334-6.258 0-11.333 7.92-11.333 19.334 0 11.413 5.075 19.333 11.333 19.333h4.223c3.436 0 6.221 3.227 6.221 6.667v22.44C37.577 77.52 43.05 82.6 49.8 82.6c6.75 0 12.223-5.08 12.223-11.333v-22.44c0-3.44 2.785-6.667 6.221-6.667h4.223c6.258 0 11.333-7.92 11.333-19.333" fill="#FFF" fill-rule="nonzero"/>
        <path d="M86.53 18.893l-.063 3.934c-.075 4.64-.775 9.386-2.958 13.826-1.101 2.214-2.617 4.36-4.836 6.014-1.157.813-2.31 1.466-3.949 1.826-.93.24-1.375.227-1.924.28h-.101l-.31.014H69.33c-.514.013-1.205-.014-1.365.053-.57 0-1.104.333-1.637.667-.214.253-.52.4-.69.706l-.312.4c-.069.16-.142.307-.221.467l-.124.227c-.021.053-.024.106-.041.16a1.211 1.211 0 0 1-.134.306c-.044.187-.057.52-.088.774l-.04.4-.009.106c-.013.254.012-.28.01-.213v.253c.005 4.36 0 8.707.158 13.067.052 2.173.15 4.347.156 6.52l.019 1.627.008.826c.005.267-.026.667-.044 1a12.816 12.816 0 0 1-.928 4.054c-1.012 2.6-2.879 4.76-5.066 6.28-1.088.786-2.306 1.346-3.536 1.826-1.269.44-2.469.747-3.938.894-1.132.093-2.542.106-3.81-.08-1.301-.147-2.57-.534-3.793-1-2.435-1-4.624-2.64-6.233-4.787-.78-1.093-1.472-2.253-1.911-3.547a13.647 13.647 0 0 1-.545-1.986l-.167-1.107c-.036-.333-.037-.56-.057-.84l-.024-.413-.006-.547-.002-.813-.006-1.64-.01-3.267-.058-13.053-.028-3.254c-.084-.64-.15-1.293-.52-1.866-.282-.614-.778-1.08-1.264-1.454-.257-.133-.562-.36-.642-.333-.031-.027-.06-.04-.088-.067-.03-.026-.026-.066-.204-.066l-.812-.094-.203-.013-.05-.013c.126.013-.357-.027.27.013h-.101l-.408.013h-.816l-1.632.014-.816.013h-.408l-.552-.027a15.758 15.758 0 0 1-1.128-.106l-1.099-.24c-2.94-.8-5.13-2.787-6.712-4.827-1.579-2.08-2.601-4.387-3.35-6.693-.749-2.334-1.142-4.627-1.36-7.08-.207-2.32-.211-4.627.057-7 .253-2.36.714-4.707 1.498-7.014.779-2.32 1.92-4.573 3.599-6.6C19.826 3.4 21.98 1.613 25.241 1c1.243-.24 2.847-.24 4.248.173 1.435.347 2.712 1.054 3.804 1.867 2.175 1.693 3.632 3.853 4.678 6.053 2.07 4.44 2.598 9.16 2.496 13.734l-.004.16a1.99 1.99 0 0 1-2.044 1.946 1.987 1.987 0 0 1-1.952-2.106v-.014c-.032-1.04-.108-2.08-.035-3.12.032-.533.019-1.053.088-1.573l.164-1.587.297-1.586c.09-.52.263-1.054.394-1.574.125-.533.322-1.053.505-1.573.168-.52.393-1.04.63-1.547.217-.52.486-1.013.778-1.52.267-.506.61-.973.959-1.453.322-.48.745-.92 1.142-1.36.391-.453.891-.84 1.34-1.253.5-.36 1.006-.734 1.559-1.04.567-.294 1.121-.6 1.74-.787.597-.24 1.224-.387 1.859-.493.63-.147 1.274-.134 1.913-.187v5.333h-.214A2.68 2.68 0 0 1 46.9 4.84a2.68 2.68 0 0 1 2.659-2.693c.077 0 .16 0 .237.013.639.053 1.284.04 1.913.187.635.106 1.263.253 1.86.493.619.187 1.175.507 1.74.787.554.306 1.06.68 1.56 1.04.45.413.95.8 1.339 1.253.399.44.82.88 1.144 1.36.348.48.69.96.959 1.467.292.493.561 1 .777 1.506.237.52.461 1.027.63 1.56.183.52.38 1.04.505 1.56.13.534.305 1.054.393 1.587l.296 1.573.165 1.587c.068.533.056 1.053.087 1.573.075 1.054-.003 2.094-.035 3.134l-.006.24A1.992 1.992 0 0 1 61.06 25a1.99 1.99 0 0 1-1.932-2.173v-.014c.003-1.08-.038-2.16.047-3.24.033-1.093.18-2.173.313-3.266.187-1.094.396-2.174.699-3.254.301-1.066.645-2.146 1.107-3.2.205-.533.465-1.04.738-1.56.251-.52.562-1.026.887-1.52.628-1 1.416-1.946 2.312-2.826.455-.427.97-.827 1.484-1.214.572-.333 1.095-.733 1.74-.973l.943-.4c.374-.107.756-.2 1.14-.293.977-.214.91-.134 1.928-.24 1.384.04 2.817.24 4.058.826.66.227 1.2.614 1.792.934.532.373 1.071.76 1.547 1.186.94.867 1.776 1.8 2.45 2.8.35.494.685 1 .958 1.52.299.507.581 1.027.81 1.56.51 1.054.9 2.147 1.249 3.227.35 1.093.594 2.2.826 3.293.148.907.274 1.8.372 2.72zm-5.635 7.76l-.094-3.746c-.025-1-.01-2.12-.102-2.947-.042-.88-.191-1.813-.316-2.733-.172-.907-.356-1.814-.608-2.68-.25-.867-.53-1.734-.891-2.534-.159-.426-.359-.8-.563-1.186a9.424 9.424 0 0 0-.645-1.094 10.428 10.428 0 0 0-1.525-1.88c-.279-.266-.576-.48-.864-.706-.311-.16-.595-.427-.915-.52-.61-.334-1.259-.387-1.908-.467.003.027-1.11.013-1.119.107a2.952 2.952 0 0 1-.356.066l-.481.187c-.336.08-.636.32-.968.467-.307.213-.627.426-.927.68-.592.533-1.172 1.133-1.664 1.853a9.716 9.716 0 0 0-.717 1.093c-.23.387-.453.774-.636 1.187-.408.813-.735 1.68-1.03 2.56-.3.893-.52 1.813-.735 2.733-.175.934-.372 1.867-.464 2.827-.143.96-.166 1.933-.238 2.893v.014h-4c-.112-.934-.152-1.867-.302-2.76-.075-.454-.107-.92-.214-1.36l-.276-1.334-.334-1.293c-.098-.44-.271-.84-.4-1.253-.124-.427-.307-.814-.474-1.214-.154-.4-.35-.773-.552-1.146a8.646 8.646 0 0 0-.633-1.067 7.657 7.657 0 0 0-.697-.973c-.227-.334-.512-.587-.771-.867-.255-.293-.568-.48-.839-.733-.304-.187-.589-.414-.898-.574-.315-.146-.615-.333-.946-.413a4.215 4.215 0 0 0-.981-.253c-.328-.094-.68-.054-1.016-.094V2.16h.004c1.465 0 2.648 1.2 2.64 2.667a2.658 2.658 0 0 1-2.277 2.613l-.363.053c-.337.04-.688 0-1.016.094-.332.053-.665.12-.981.253-.331.08-.63.267-.944.413-.31.16-.595.374-.899.574-.272.253-.584.44-.839.733-.258.28-.545.533-.772.867-.244.306-.488.613-.696.973-.229.333-.449.68-.633 1.067-.2.373-.397.733-.552 1.146-.167.4-.35.787-.475 1.2-.128.427-.3.827-.4 1.267l-.334 1.293-.275 1.334c-.108.44-.14.893-.215 1.346-.15.907-.19 1.84-.302 2.76v.014h-4c-.198-4.107-.963-8.214-2.758-11.614-.893-1.68-2.074-3.133-3.405-4.053-.667-.44-1.355-.773-2.052-.893-.701-.16-1.333-.134-2.213.066-.116.04-.232.08-.355.107l-.49.213c-.334.12-.638.387-.96.574-.606.493-1.22 1.026-1.725 1.746-1.054 1.36-1.848 3.08-2.444 4.894-1.174 3.666-1.442 7.706-1.154 11.76.272 3.84 1.337 7.866 3.405 10.693 1.04 1.387 2.303 2.44 3.603 2.787.164.04.325.08.486.133l.498.04.261.027.408.013h.816l1.632.013.816.014h.509c.662.04.212.013.374.026h.05l.203.027.81.107c.095 0 .353.066.58.133l.68.213c.987.294 1.569.72 2.246 1.147 1.237.933 2.277 2.093 2.93 3.453.738 1.32 1.02 2.88 1.08 4.4l-.029 3.254-.057 13.053-.01 3.267-.005 1.64-.002.813v.2l-.002.107v.053c.004.133-.005-.147-.002-.093l.021.4c.017.266.02.573.05.786.038.16.07.334.097.507.07.333.188.773.328 1.147.261.773.706 1.493 1.189 2.173 1.013 1.333 2.428 2.387 4.024 3.027.805.293 1.635.56 2.5.64.885.133 1.67.12 2.697 0a10.97 10.97 0 0 0 2.388-.64c.774-.36 1.535-.747 2.18-1.28 1.322-1.027 2.323-2.4 2.856-3.867a6.938 6.938 0 0 0 .475-2.293l.03-.614.009-.826.017-1.627c.005-2.173.104-4.347.156-6.52.157-4.36.155-8.707.159-13.067v-.2l.016-.36.009-.106.041-.4c.036-.294.036-.507.1-.854.098-.413.208-.84.334-1.253.064-.2.125-.427.2-.613l.246-.494.518-1 .669-.906c.419-.614 1.047-1.08 1.599-1.6 1.245-.867 2.706-1.627 4.338-1.707.918-.12 1.319-.067 1.891-.08h3.056l.813-.053.204-.027c.048 0 .066-.013.1-.027l.183-.066c.21-.014.588-.2.923-.32.325-.2.67-.347.984-.6 1.286-.947 2.408-2.414 3.246-4.094 1.147-2.32 1.76-4.96 2.058-7.68z" fill="#231F20" fill-rule="nonzero"/>
        <path d="M51.359 127.04s60-8.44 76.888-65.333" fill="#FFF" fill-rule="nonzero"/>
        <path d="M50.968 124.413s.38-.066 1.095-.186c.728-.12 1.81-.334 3.186-.64 2.752-.6 6.686-1.614 11.288-3.214a106.68 106.68 0 0 0 7.34-2.813c2.572-1.08 5.231-2.347 7.931-3.747 2.688-1.426 5.424-2.986 8.092-4.733 2.701-1.707 5.3-3.653 7.845-5.653 1.268-1 2.476-2.08 3.708-3.12 1.164-1.12 2.374-2.174 3.488-3.32 2.24-2.254 4.354-4.587 6.239-6.96 1.91-2.36 3.6-4.76 5.112-7.094.725-1.186 1.465-2.32 2.121-3.453.627-1.147 1.232-2.253 1.812-3.32.594-1.067 1.035-2.147 1.524-3.147.464-1 .952-1.933 1.295-2.866.715-1.84 1.43-3.414 1.863-4.774.905-2.693 1.422-4.226 1.422-4.226l.038-.12a2.005 2.005 0 0 1 2.53-1.254 1.998 1.998 0 0 1 1.267 2.507l-1.428 4.44c-.436 1.427-1.16 3.08-1.887 5.013-.348.974-.845 1.96-1.317 3.027-.499 1.053-.952 2.187-1.559 3.307-.596 1.133-1.216 2.306-1.858 3.52-.675 1.2-1.436 2.4-2.184 3.666-1.559 2.467-3.307 5.014-5.286 7.52-1.954 2.534-4.146 5-6.474 7.414-1.16 1.213-2.414 2.346-3.627 3.533-1.279 1.107-2.537 2.253-3.856 3.333-2.645 2.134-5.352 4.2-8.159 6.027-2.776 1.867-5.62 3.533-8.413 5.067-2.807 1.493-5.57 2.853-8.244 4.026a114.094 114.094 0 0 1-7.636 3.04c-4.792 1.72-8.9 2.84-11.812 3.52a67.862 67.862 0 0 1-3.416.734c-.821.146-1.26.213-1.26.213a2.667 2.667 0 0 1-3.084-2.16 2.675 2.675 0 0 1 2.17-3.093h.017l.117-.014M82.24 137.48c0 1.92-1.556 3.48-3.475 3.48a3.478 3.478 0 0 1-3.473-3.48 3.475 3.475 0 0 1 6.948 0m24.93-9.333a3.467 3.467 0 0 1-3.473 3.466 3.467 3.467 0 0 1-3.474-3.466c0-1.92 1.556-3.48 3.474-3.48a3.479 3.479 0 0 1 3.474 3.48m21.777-16.134c0 1.92-1.555 3.48-3.473 3.48a3.479 3.479 0 0 1-3.475-3.48 3.475 3.475 0 0 1 6.948 0m11.369-19.853c0 1.92-1.554 3.48-3.473 3.48a3.478 3.478 0 0 1-3.473-3.48 3.466 3.466 0 0 1 3.473-3.467 3.466 3.466 0 0 1 3.473 3.467" fill="#231F20" fill-rule="nonzero"/>
    </g>
</svg>
