<svg width="168" height="167" xmlns="http://www.w3.org/2000/svg">
    <title>
        mama
    </title>
    <g fill="none" fill-rule="evenodd">
        <path d="M81.692 54.48c13.623 0 24.667 10.347 24.667 23.107 0 12.773-11.044 23.12-24.667 23.12-13.624 0-24.667-10.347-24.667-23.12 0 12.773-11.044 23.12-24.666 23.12-13.624 0-24.667-10.347-24.667-23.12 0-12.76 9.777-23.107 29.997-23.107-20.886 0-33.553-8.32-33.553-24.16 0-14.08 8-26.827 28.163-26.827h51.837c44.183 0 80 35.814 80 80v40c0 22.094-17.91 40-40 40h-90.75c-14.038 0-25.418-10.053-25.418-24.08 0-6.6 1.98-12.333 5.303-18.466 4.642-8.574 10.865-19.24 10.865-19.24" fill="#FFF" fill-rule="nonzero"/>
        <path d="M81.817 51.813l1.758.094c.3.026.569.013.894.053l1.004.147c.66.106 1.355.173 1.986.32l1.882.453c2.471.747 4.904 1.693 7.108 3.067 2.196 1.373 4.263 2.986 6.004 4.933 1.731 1.947 3.216 4.133 4.327 6.507 1.07 2.4 1.775 4.96 2.1 7.573l.112 1.973.024.494.007.12.001.04-.004.16-.003.066-.009.214-.037.88c.01 1.08-.246 2.56-.459 3.92a27.009 27.009 0 0 1-2.827 7.36c-1.322 2.28-3.016 4.32-4.918 6.12-1.91 1.813-4.126 3.253-6.45 4.453-2.341 1.2-4.874 1.933-7.432 2.453-1.29.2-2.582.414-3.89.427l-.978.04-.244.013h-.26l-.11-.013-.439-.013-1.757-.094c-.622-.053-1.344-.173-2.011-.266l-1.019-.147-.954-.227c-.634-.16-1.276-.293-1.9-.493l-1.856-.64c-2.426-.96-4.791-2.147-6.864-3.773-2.07-1.614-3.967-3.467-5.511-5.6a26.242 26.242 0 0 1-3.579-7.04 26.967 26.967 0 0 1-1.156-7.8v-.16a2.665 2.665 0 0 1 2.664-2.667 2.66 2.66 0 0 1 2.676 2.653c0 .067-.002.12-.005.174l-.001.013a26.105 26.105 0 0 1-1.211 8.147c-.817 2.666-2.21 5.106-3.853 7.32a25.395 25.395 0 0 1-5.934 5.746c-2.264 1.574-4.733 2.88-7.369 3.707-2.621.84-5.355 1.413-8.113 1.467l-.516.026-.259.014-.064.013-.217-.013h-.115l-.919-.04-.917-.04c-.299-.014-.607-.027-.99-.08l-2.173-.294c-.712-.12-1.358-.306-2.041-.453-2.675-.693-5.303-1.693-7.677-3.16-2.379-1.44-4.596-3.187-6.452-5.293a27.645 27.645 0 0 1-4.488-7.107c-1.147-2.587-1.736-5.413-1.943-8.213l-.052-1.067-.023-.52-.005-.133.004-.227.003-.053.014-.24.114-1.827c.178-1.373.38-2.973.793-4.28.74-2.707 1.928-5.36 3.633-7.627 1.686-2.266 3.708-4.293 6.016-5.826 2.299-1.52 4.751-2.787 7.3-3.6 2.527-.907 5.13-1.4 7.715-1.76 1.295-.147 2.59-.227 3.88-.334l3.857-.04v5.334h-.009c-5.83.106-11.808-.32-17.663-2.094-2.902-.96-5.802-2.146-8.465-3.933C8.907 49.333 6.525 47 4.72 44.24c-1.848-2.733-2.924-5.933-3.465-9.08-.336-1.587-.35-3.16-.447-4.747l.068-2.253c-.003-.653.13-1.547.205-2.333.39-3.174 1.112-6.2 2.4-9.16C4.777 13.747 6.595 11 8.875 8.68c.594-.56 1.133-1.173 1.782-1.667l1.928-1.48C13.957 4.68 15.32 3.8 16.797 3.2c1.435-.747 2.959-1.147 4.452-1.667l2.282-.52L24.672.76 25.816.6l2.29-.293c.763-.08 1.52-.08 2.282-.12C31.136.16 31.933.12 32.641.12L34.76.107h8.475L77.133.08l4.238.013h2.118l1.146.014 1.058.026c1.412.04 2.8.054 4.332.187 1.503.107 3 .227 4.447.44a83.425 83.425 0 0 1 17.17 4.027c11.131 3.853 21.38 10.173 29.89 18.306 8.513 8.12 15.364 18 19.784 28.92a83.17 83.17 0 0 1 4.89 16.947c.286 1.44.475 2.907.651 4.36.216 1.453.31 2.933.422 4.4.221 2.92.222 5.92.225 8.693l.021 33.894.002 2.12-.004 1.24-.054 1.053-.105 2.12c-.024.36-.02.68-.068 1.067l-.17 1.186c-.242 1.574-.42 3.187-.855 4.64l-.575 2.227c-.18.747-.499 1.44-.744 2.173-2.064 5.774-5.373 11.08-9.619 15.507a42.726 42.726 0 0 1-15.15 10.173c-2.856 1.107-5.819 1.987-8.848 2.454-1.516.24-3.03.493-4.564.506l-2.295.12c-.759.027-1.427 0-2.145.014l-33.899-.027-33.899-.013-16.949-.014-4.388-.013-2.116-.093c-.33 0-.744-.054-1.164-.107l-1.237-.173c-3.227-.494-6.227-1.414-9.11-2.854-5.72-2.853-10.466-7.826-12.912-13.826-1.25-2.987-1.904-6.214-1.977-9.4l-.028-.6-.013-.294a2.985 2.985 0 0 1 .001-.266l.007-.134.046-1.066.048-1.054c.024-.373.084-.8.127-1.2.16-1.666.468-3.16.823-4.666.73-3.027 1.864-5.88 3.169-8.56a48.156 48.156 0 0 1 2.099-3.934l2.148-3.653a847.435 847.435 0 0 1 8.705-14.56h.005a2.666 2.666 0 0 1 4.643 2.613 801.854 801.854 0 0 1-7.968 14.974l-2.02 3.72a72.975 72.975 0 0 0-1.796 3.6c-1.13 2.4-2.05 4.84-2.61 7.333-.271 1.24-.509 2.52-.602 3.68-.03.293-.076.56-.095.907l-.032 1.053-.032 1.053-.004.134c-.002.08.003-.147.004 0l.014.226.025.467a19.3 19.3 0 0 0 1.493 7.093c1.834 4.467 5.35 8.187 9.748 10.387 2.178 1.08 4.638 1.827 6.991 2.187l.861.12c.279.04.566.093.944.093l2.116.093h4.087l16.95-.013 33.898-.027 33.899-.013c.694-.013 1.44.013 2.092-.013l1.937-.107c1.299-.013 2.572-.24 3.848-.44 2.552-.387 5.039-1.133 7.444-2.067a35.655 35.655 0 0 0 12.779-8.56 36.865 36.865 0 0 0 8.122-13.053c.206-.613.487-1.2.634-1.84l.481-1.867c.39-1.266.488-2.466.701-3.693l.151-.907c.044-.32.043-.693.067-1.04l.108-2.12.054-1.053c-.008.293-.002 0-.004.04v-.933l.002-2.12.021-33.894c0-2.88 0-5.533-.2-8.24-.103-1.346-.183-2.706-.383-4.04-.16-1.346-.33-2.68-.594-4.013a76.351 76.351 0 0 0-4.474-15.573c-4.05-10.04-10.33-19.16-18.192-26.614-7.845-7.453-17.28-13.253-27.51-16.786a76.238 76.238 0 0 0-15.776-3.654c-1.35-.2-2.67-.293-3.986-.386-1.281-.134-2.72-.147-4.132-.187l-1.058-.027h-7.33L43.235 6.88l-8.475-.013h-2.119c-.704 0-1.317.04-1.981.066-.65.04-1.308.027-1.95.094l-1.913.24-.954.12-.926.213-1.85.413c-1.167.427-2.4.72-3.482 1.294-1.152.466-2.153 1.146-3.196 1.76l-1.426 1.093c-.491.36-.87.827-1.315 1.227-1.679 1.706-3.035 3.733-4.039 5.973-.988 2.213-1.586 4.747-1.889 7.16-.056.627-.175 1.133-.177 1.893l-.07 1.987c.075 1.227.047 2.493.298 3.68.38 2.4 1.112 4.707 2.412 6.68 1.262 1.987 2.966 3.693 4.952 5.133 1.997 1.427 4.342 2.48 6.765 3.374 4.941 1.613 10.328 2.4 15.781 2.546h.008a2.66 2.66 0 0 1 2.658 2.667 2.657 2.657 0 0 1-2.507 2.653l-.15.014-3.491.2c-1.144.146-2.296.266-3.43.453-2.242.44-4.47.92-6.538 1.733-2.111.72-4.019 1.8-5.771 3.027-1.756 1.227-3.187 2.773-4.38 4.453-1.207 1.68-1.999 3.627-2.49 5.64-.3 1.04-.35 1.894-.493 2.947l-.065 1.84-.008.227-.003.053v.04c.008-.32.003-.08.006-.147l.006.094.026.4.048.773c.181 2.053.61 4.12 1.484 6a20.623 20.623 0 0 0 3.381 5.24 22.882 22.882 0 0 0 4.857 4c1.787 1.147 3.798 1.92 5.844 2.48.514.107 1.046.28 1.542.36l1.466.227c.222.053.526.066.839.08l.919.053.917.04.115.013h-.103l.05-.013h.202l.401-.013c2.152.026 4.276-.4 6.328-.987 2.066-.587 3.996-1.56 5.782-2.733.912-.56 1.72-1.267 2.554-1.934.755-.76 1.544-1.48 2.191-2.333 1.332-1.653 2.467-3.493 3.208-5.493.745-2 1.17-4.12 1.273-6.267v-.013h5.335a21.61 21.61 0 0 0 1.097 6.04 22.416 22.416 0 0 0 2.919 5.386c1.233 1.654 2.756 3.067 4.401 4.307 1.655 1.24 3.523 2.187 5.446 2.933l1.472.507c.496.147 1.009.24 1.51.373l.756.174.723.106c.496.054.93.147 1.475.2l1.757.08.439.014h.137c.041.013-.25 0-.116 0h.048l.196-.014.779-.04c1.044-.013 2.069-.173 3.098-.32 2.03-.4 4.048-.96 5.903-1.893 1.852-.907 3.641-1.987 5.175-3.387 1.528-1.386 2.894-2.946 3.966-4.706a21.472 21.472 0 0 0 2.33-5.68c.138-.96.389-1.774.417-3.054l.056-.88.015-.213.004-.053c.004-.134-.004.16-.004.12l-.002-.027-.005-.093-.023-.387-.077-1.547c-.257-2.04-.8-4.04-1.628-5.933-.872-1.88-2.045-3.613-3.419-5.173-1.384-1.56-3.053-2.854-4.821-3.974-1.775-1.133-3.756-1.906-5.772-2.48l-1.537-.373c-.511-.12-.991-.133-1.487-.227l-.737-.106c-.256-.027-.576-.027-.86-.054l-1.758-.066a2.671 2.671 0 0 1-2.55-2.787 2.666 2.666 0 0 1 2.778-2.547h.024" fill="#231F20" fill-rule="nonzero"/>
        <path d="M26.792 25.587l45.72-6.88M33.537 35.653l45.72-6.88" stroke="#231F20" stroke-width="4.667" stroke-linecap="round" stroke-linejoin="round"/>
        <path d="M61.835 131.413c.828 1.734-.407 4.054-2.758 5.174-2.35 1.106-4.926.613-5.753-1.134-.828-1.733.407-4.053 2.757-5.173 2.351-1.12 4.927-.613 5.754 1.133" fill="#231F20" fill-rule="nonzero"/>
    </g>
</svg>
