<svg width="167" height="167" xmlns="http://www.w3.org/2000/svg">
    <title>
        mani
    </title>
    <g fill="none" fill-rule="evenodd">
        <path d="M123.47 3.493c22.09 0 40 17.907 40 40v80c0 22.094-17.91 40-40 40h-80c-22.093 0-40-17.906-40-40V75.467c0-3.707.222-9.974 5.333-15.094 6.789-6.786 38.753-33.173 57.761-49.226 8.016-6.774 9.405-7.44 17.072-7.44l39.833-.214" fill="#FFF" fill-rule="nonzero"/>
        <path d="M123.47 3.493c22.09 0 40 17.907 40 40v80c0 22.094-17.91 40-40 40h-80c-22.093 0-40-17.906-40-40V75.467c0-3.707.222-9.974 5.333-15.094 6.789-6.786 38.753-33.173 57.761-49.226 8.016-6.774 9.405-7.44 17.072-7.44l39.833-.214z" stroke="#231F20" stroke-width="6.667" stroke-linecap="round" stroke-linejoin="round"/>
        <path d="M130.803 26.16l.333 54.667a2.963 2.963 0 0 1-.959 2.2l-.021.013-52.699 48a3.018 3.018 0 0 1-2.021.787H23.451a2.981 2.981 0 0 1-2.982-2.987v-.013l.334-54.667v-.013a2.68 2.68 0 0 1 .87-1.96l52.7-48a2.65 2.65 0 0 1 1.795-.694h51.968a2.67 2.67 0 0 1 2.667 2.654v.013zm-5.35 2.667H76.168l1.796-.694-52.699 48 .871-1.973.333 54.667-3-3h51.967l-2.02.773 52.7-48-.98 2.227.317-52z" fill="#231F20" fill-rule="nonzero"/>
        <path d="M37.247 80.333h79.112M75 110.6V44.373m-33.475 67.4l68.555-68.56" stroke="#231F20" stroke-width="5.333" stroke-linecap="round" stroke-linejoin="round"/>
    </g>
</svg>
