<svg width="168" height="167" xmlns="http://www.w3.org/2000/svg">
    <title>
        meli
    </title>
    <g fill="none" fill-rule="evenodd">
        <path d="M144.836 108.973c11.83 5.774 18.967 13.24 18.967 21.4 0 18.294-35.818 33.12-80 33.12-44.183 0-80-14.826-80-33.12 0-7.986 6.849-15.32 18.25-21.053" fill="#FFF" fill-rule="nonzero"/>
        <path d="M146.048 106.6s.217.093.64.28c.427.213 1.037.453 1.876.88 1.719.88 4.168 2.107 7.088 4.2a35.69 35.69 0 0 1 4.627 3.853c1.588 1.56 3.182 3.467 4.501 5.88 1.31 2.387 2.287 5.36 2.352 8.614-.001.12.01-.147-.003.28l-.004.053-.006.133-.015.24-.03.494c-.033.36-.007.586-.09 1.066-.155.867-.272 1.88-.541 2.627-.232.8-.488 1.6-.846 2.36-.309.8-.713 1.52-1.13 2.253-1.683 2.934-3.978 5.44-6.547 7.614-2.575 2.186-5.432 4.08-8.46 5.76-6.07 3.346-12.816 5.88-19.9 7.893-14.207 3.933-29.803 5.72-45.352 5.733-2.01-.013-3.816 0-5.807-.066a166.71 166.71 0 0 1-5.842-.227c-3.871-.227-7.724-.533-11.534-1-7.621-.907-15.08-2.293-22.189-4.227-7.097-1.96-13.857-4.426-19.95-7.706-6.046-3.294-11.62-7.334-15.273-12.96-1.809-2.8-2.936-6.094-3.096-9.334l-.033-.6-.015-.306.02-.427.063-.947c.003-.28.09-.773.15-1.173.07-.413.131-.84.222-1.227.372-1.466.847-2.853 1.475-4.08 2.5-4.96 6.024-7.92 8.866-10.066 2.892-2.147 5.346-3.427 7.007-4.294 1.676-.826 2.585-1.226 2.585-1.226l2.394 4.76s-.791.466-2.271 1.346a53.573 53.573 0 0 0-5.984 4.2c-1.184.987-2.463 2.12-3.623 3.48-1.176 1.347-2.305 2.867-3.097 4.6-1.65 3.427-1.623 7.627.99 11.694 2.62 4.066 7.34 7.693 12.811 10.6 5.496 2.946 11.843 5.253 18.559 7.093 6.727 1.853 13.868 3.213 21.196 4.107a178.642 178.642 0 0 0 16.703 1.24c1.826.066 3.845.066 5.66.08 7.518-.027 15.03-.494 22.354-1.414 7.323-.933 14.454-2.333 21.17-4.213 6.698-1.893 13.016-4.253 18.478-7.24 5.408-2.987 10.099-6.667 12.478-10.813.294-.52.585-1.027.781-1.547.253-.507.41-1.027.56-1.547.208-.546.185-.906.319-1.36.03-.08.044-.24.052-.413l.03-.493.05-.774c-.004-1.986-.542-3.88-1.42-5.586-.871-1.72-2.078-3.214-3.298-4.534a31.432 31.432 0 0 0-3.725-3.413 57.358 57.358 0 0 0-6.028-4.093c-1.547-.894-2.37-1.36-2.37-1.36l2.422-4.747" fill="#231F20" fill-rule="nonzero"/>
        <path d="M163.803 67.933c0 35.587-35.818 64.44-80 64.44-44.183 0-80-28.853-80-64.44 0-35.586 35.817-64.44 80-64.44 44.182 0 80 28.854 80 64.44" fill="#FFF" fill-rule="nonzero"/>
        <path d="M163.803 67.933c0 35.587-35.818 64.44-80 64.44-44.183 0-80-28.853-80-64.44 0-35.586 35.817-64.44 80-64.44 44.182 0 80 28.854 80 64.44z" stroke="#231F20" stroke-width="6.667"/>
        <path d="M42.684 91.293l86.87-.133-2.466 4.707-45.913-66.854h4.384l-11.406 16.76-11.461 16.72a1631.102 1631.102 0 0 1-11.519 16.694c-2.816 4.04-5.649 8.08-8.489 12.106zm-7.856 1.24c3.763-5.626 7.615-11.173 11.45-16.733 3.82-5.587 7.69-11.12 11.575-16.653l11.632-16.614 11.69-16.56.006-.013a2.678 2.678 0 0 1 4.378.013l46.461 66.48a2.983 2.983 0 0 1-.739 4.16 2.948 2.948 0 0 1-1.72.547h-.006l-92.376-.147a2.856 2.856 0 0 1-2.858-2.866c0-.587.179-1.134.486-1.587l.021-.027z" fill="#231F20" fill-rule="nonzero"/>
    </g>
</svg>
