<svg width="168" height="167" xmlns="http://www.w3.org/2000/svg">
    <title>
        mi
    </title>
    <g fill="none" fill-rule="evenodd">
        <path d="M164.133 123.493c0 22.094-17.906 40-40 40H44.136c-22.092 0-40-17.906-40-40v-80c0-22.093 17.908-40 40-40h79.997c22.094 0 40 17.907 40 40v80" fill="#FFF" fill-rule="nonzero"/>
        <path d="M164.133 123.493c0 22.094-17.906 40-40 40H44.136c-22.092 0-40-17.906-40-40v-80c0-22.093 17.908-40 40-40h79.997c22.094 0 40 17.907 40 40v80z" stroke="#231F20" stroke-width="6.667"/>
        <path d="M84.133 44.827c-21.346 0-38.664 17.306-38.664 38.666 0 21.347 17.318 38.667 38.664 38.667 21.36 0 38.667-17.32 38.667-38.667 0-21.36-17.307-38.666-38.667-38.666" fill="#FFF" fill-rule="nonzero"/>
        <path d="M84.133 42.16s1.014.04 2.92.12c.467.04 1 .027 1.587.107.573.08 1.2.173 1.893.266.68.12 1.414.187 2.187.36.773.187 1.587.387 2.453.614 3.4.946 7.534 2.426 11.707 5.133 4.187 2.667 8.493 6.44 12 11.507 1.667 2.573 3.333 5.36 4.453 8.493.294.787.6 1.573.867 2.373.227.814.44 1.64.653 2.467.507 1.613.68 3.493.987 5.293.133.907.12 1.654.187 2.507l.066 1.24.04.627c-.013-.134 0 .253 0 .24v.093l-.013.173-.013.334c-.12 1.813-.134 3.653-.494 5.48-.48 3.693-1.666 7.346-3.186 10.88-1.587 3.52-3.8 6.786-6.32 9.813-2.6 2.987-5.667 5.587-9 7.813-3.387 2.16-7.107 3.8-10.974 5.027-1.96.493-3.893 1.04-6.013 1.253-1.04.16-2.093.32-3 .32l-2.987.134c-4.053-.067-8.106-.574-12-1.707-3.853-1.227-7.573-2.867-10.973-5.027-3.333-2.226-6.4-4.826-8.987-7.813-2.522-3.027-4.738-6.293-6.324-9.813-1.525-3.574-2.702-7.094-3.2-10.974-.374-2-.357-3.573-.477-5.266l-.017-.307-.01-.16-.004-.08s-.006-.373-.002-.253l.036-.68.074-1.347c.07-.893.06-1.787.2-2.653.876-7.04 3.442-13.414 6.943-18.48 3.515-5.067 7.808-8.84 11.995-11.507 4.186-2.707 8.306-4.187 11.72-5.133.853-.227 1.68-.427 2.44-.614.786-.173 1.56-.253 2.266-.36.707-.106 1.36-.2 1.947-.28.6-.08 1.067-.066 1.52-.093 1.773-.08 2.72-.12 2.72-.12h.133zm.134 5.333s-.947.054-2.72.147c-.427.04-.974.027-1.454.107s-1.013.173-1.586.266c-.56.107-1.174.16-1.84.32-.654.174-1.36.36-2.107.56-2.947.854-6.507 2.187-10.027 4.667-3.52 2.413-7.106 5.787-9.946 10.187-2.787 4.426-4.896 9.8-5.568 15.733-.115.733-.083 1.493-.135 2.253l-.052 1.134-.027.573c.003.173-.009-.16-.006-.093l.004.08.006.146.014.32c.09 1.64.081 3.467.376 4.84.129.734.176 1.467.36 2.24l.58 2.307c.153.787.488 1.533.741 2.293.293.747.48 1.547.88 2.267 1.24 3.027 3.027 5.853 5.093 8.52 2.134 2.613 4.68 4.933 7.494 6.947 2.853 1.96 6.04 3.48 9.373 4.56 3.36 1.026 6.88 1.506 10.413 1.626l2.707-.16c1-.013 1.813-.186 2.64-.32.84-.173 1.667-.2 2.52-.466l2.547-.68c3.346-1.08 6.52-2.6 9.373-4.56 2.813-2.014 5.36-4.334 7.493-6.947 2.067-2.667 3.867-5.493 5.107-8.52 1.227-3 2.213-6.08 2.56-9.2.307-1.547.267-3.107.36-4.627l.013-.293.014-.133v-.08c0-.054.013.266 0 .093l-.027-.627-.053-1.24c-.054-.8-.027-1.706-.147-2.4-.267-1.413-.32-2.773-.747-4.186-.173-.707-.346-1.414-.52-2.094-.24-.68-.48-1.346-.706-2.013-.934-2.653-2.227-5.053-3.574-7.293a36.345 36.345 0 0 0-9.96-10.187c-3.506-2.48-7.066-3.813-10.013-4.667-.747-.2-1.453-.386-2.12-.56-.667-.16-1.32-.226-1.907-.333-.586-.093-1.133-.173-1.64-.267-.506-.066-.973-.066-1.386-.093-1.654-.093-2.534-.147-2.534-.147h.134z" fill="#231F20" fill-rule="nonzero"/>
        <path d="M140.8 116.827a6.67 6.67 0 0 1-6.667 6.666H34.136a6.667 6.667 0 0 1-6.667-6.666V50.16a6.667 6.667 0 0 1 6.667-6.667h99.997a6.67 6.67 0 0 1 6.667 6.667v66.667z" stroke="#231F20" stroke-width="5.333"/>
    </g>
</svg>
