<svg width="167" height="167" xmlns="http://www.w3.org/2000/svg">
    <title>
        mije
    </title>
    <g fill="none">
        <path d="M145.84 110.307c11.827 5.773 17.627 11.906 17.627 20.066 0 18.294-35.814 33.12-80 33.12-44.187 0-80-14.826-80-33.12 0-7.986 5.52-13.986 16.92-19.72" fill="#FFF"/>
        <path d="M147.04 107.933l.64.28c.413.187 1.027.44 1.84.84 1.693.854 4.12 2.027 7.04 4.08 1.44 1.027 3.04 2.24 4.6 3.894 1.56 1.626 3.093 3.693 4.2 6.266 1.08 2.574 1.6 5.6 1.36 8.667-.28 3.28-1.533 6.373-3.347 9.107-3.68 5.453-9.186 9.386-15.146 12.613-6.014 3.187-12.667 5.667-19.667 7.587-14 3.813-29.36 5.546-44.68 5.56-15.32.04-30.693-1.627-44.72-5.347-7-1.88-13.667-4.293-19.707-7.413-6-3.147-11.52-6.974-15.373-12.254-1.893-2.613-3.293-5.666-3.747-8.826a17.588 17.588 0 0 1-.186-2.36l-.014-.134.014-.293.013-.227.027-.466c.013-.334.013-.56.066-.974.2-1.64.48-3.013.987-4.333.947-2.64 2.413-4.813 3.92-6.507 1.533-1.693 3.093-2.973 4.533-4.053 2.894-2.107 5.32-3.333 6.96-4.173 1.64-.8 2.534-1.187 2.534-1.187l2.4 4.76s-.787.467-2.254 1.333a51.63 51.63 0 0 0-5.906 4.094c-2.28 1.92-4.907 4.466-6.014 7.88-.32.826-.453 1.813-.546 2.586-.04.2-.027.587-.04.867l-.014.467-.013.226v-.093.04l.013.093c.014.48.04.96.12 1.454.294 1.946 1.174 3.973 2.587 5.92 2.84 3.92 7.587 7.36 13.04 10.16 5.467 2.813 11.733 5.04 18.36 6.84 13.293 3.573 28.133 5.253 42.947 5.253 14.8-.067 29.626-1.813 42.893-5.467 6.627-1.813 12.853-4.106 18.293-6.986 5.4-2.854 10.094-6.374 12.747-10.36 1.333-1.96 2.107-4.067 2.28-5.92.16-2.067-.093-4-.76-5.667-.667-1.68-1.693-3.147-2.827-4.427-1.106-1.306-2.373-2.386-3.56-3.32-2.4-1.853-4.546-3.16-5.96-4a467.219 467.219 0 0 1-2.346-1.333l2.413-4.747" fill="#231F20"/>
        <path d="M130.467 30.467c20 6.453 33 22.693 33 44.133 0 35.6-35.814 57.773-80 57.773-44.187 0-80-22.173-80-57.773 0-21.347 12.906-37.72 32.773-44.2a17.354 17.354 0 0 1-2.773-9.453c0-9.64 7.813-17.454 17.466-17.454 9.64 0 17.454 7.814 17.454 17.454 0-8.32 6.76-15.28 15.08-15.28 8.333 0 15.04 6.653 15.04 15.28 0-9.627 7.853-17.454 17.506-17.454 9.64 0 17.454 7.814 17.454 17.454 0 3.52-1.227 6.786-3 9.52" fill="#FFF"/>
        <path d="M127.667 28.653a16.737 16.737 0 0 0 1.506-3.013c.4-1 .654-2.16.76-3.08.027-.24.08-.387.08-.773l.027-.867a16.386 16.386 0 0 0-.107-1.627 13.736 13.736 0 0 0-.746-3.173c-1.494-4.067-4.96-7.427-9.16-8.68-1.014-.32-2.2-.52-3.147-.587-1.24-.066-2.24-.026-3.36.147-2.173.333-4.253 1.2-6.067 2.493a14.705 14.705 0 0 0-4.44 4.96 14.791 14.791 0 0 0-1.84 6.494 2.655 2.655 0 0 1-2.653 2.666 2.638 2.638 0 0 1-2.653-2.426l-.027-.24-.093-1.24-.214-1.214a13.51 13.51 0 0 0-1.907-4.44 13.64 13.64 0 0 0-1.533-1.853c-.28-.28-.6-.52-.88-.8l-.96-.707-1.026-.613-1.08-.507-1.12-.4-1.16-.28-1.04-.16-1.494-.066h.134-.134l-.146.013h-.294l-.6.04a11.893 11.893 0 0 0-3.44.867c-1.466.6-2.813 1.533-3.96 2.653a12.978 12.978 0 0 0-3.84 8.707 2.658 2.658 0 0 1-2.626 2.706 2.654 2.654 0 0 1-2.694-2.533l-.013-.173a14.9 14.9 0 0 0-1.827-6.48c-1.053-1.987-2.6-3.68-4.4-4.96-1.8-1.294-3.88-2.174-6.04-2.507a14.304 14.304 0 0 0-2.533-.173l-.747.026a14.504 14.504 0 0 0-3.213.574c-4.187 1.24-7.667 4.56-9.173 8.613a13.518 13.518 0 0 0-.774 3.16c-.04.28-.053.507-.08.747-.026.186-.026.626-.04.933.027.427 0 1.053.08 1.573.174 2.174.934 4.28 2.054 6.134l.013.013.067.12a3.32 3.32 0 0 1-1.2 4.56c-.2.12-.427.213-.64.293-6.294 2.054-12.174 5.294-17 9.694C15.427 47.64 11.68 53.16 9.44 59.28c-2.253 6.107-3.013 12.8-2.453 19.36.493 6.56 2.56 12.907 5.813 18.6 3.307 5.68 7.853 10.627 13.12 14.733a70.486 70.486 0 0 0 8.373 5.534c2.947 1.64 6.014 3.066 9.147 4.36 3.147 1.24 6.387 2.306 9.653 3.24 3.294.866 6.614 1.666 9.987 2.226a113.67 113.67 0 0 0 10.187 1.28c1.706.16 3.4.24 5.093.32 1.64.094 3.547.08 5.173.107 6.867-.04 13.72-.533 20.454-1.733 3.373-.56 6.693-1.36 9.986-2.24a101.35 101.35 0 0 0 9.654-3.254 89.63 89.63 0 0 0 9.133-4.36 72.368 72.368 0 0 0 8.373-5.56c5.254-4.106 9.774-9.093 13.067-14.76a44.731 44.731 0 0 0 3.907-8.986c.52-1.56.866-3.16 1.2-4.76l.4-2.427c.106-.8.16-1.587.24-2.373.56-6.72-.227-13.294-2.507-19.427-2.253-6.107-6.04-11.587-10.92-15.92-4.893-4.373-10.72-7.533-17.133-9.613a3.295 3.295 0 0 1-2.12-4.147c.08-.267.2-.507.333-.72l.067-.107zm7.52.027c5.666 2.267 11.146 5.427 15.773 9.587 5.653 5.013 10.107 11.453 12.733 18.573 2.667 7.08 3.52 14.827 2.92 22.133-.573 7.64-2.906 14.92-6.626 21.48-3.787 6.52-8.92 12.134-14.747 16.694a79.426 79.426 0 0 1-9.213 6.12 95.142 95.142 0 0 1-9.92 4.733 109.707 109.707 0 0 1-10.347 3.493c-3.507.934-7.053 1.787-10.627 2.374-7.133 1.28-14.373 1.8-21.586 1.84-1.894-.04-3.52-.014-5.387-.107-1.827-.08-3.653-.173-5.44-.347-3.613-.266-7.2-.746-10.773-1.36-3.574-.586-7.12-1.426-10.627-2.36a106.175 106.175 0 0 1-10.36-3.48 95.04 95.04 0 0 1-9.92-4.72 77.796 77.796 0 0 1-9.227-6.106c-5.826-4.534-10.986-10.134-14.773-16.64C3.293 94.067.907 86.693.347 79.2c-.627-7.467.213-15.093 2.84-22.227 2.586-7.106 6.986-13.586 12.6-18.653 5.6-5.08 12.333-8.773 19.413-11.093L33.427 32.2v-.013c-1.747-2.694-2.907-5.8-3.24-9.014-.107-.826-.134-1.546-.147-2.466.027-.374.013-.614.053-1.094.027-.44.054-.88.107-1.266.2-1.6.587-3.187 1.147-4.707a20.675 20.675 0 0 1 5.36-7.973 20.729 20.729 0 0 1 8.36-4.694 19.848 19.848 0 0 1 4.76-.786c.426-.014.733-.027 1.266-.027.36.013.627.013 1.067.053.893.067 1.653.16 2.453.32 3.16.6 6.147 1.974 8.68 3.907 2.507 1.973 4.547 4.507 5.894 7.373 1.36 2.854 1.96 6.04 1.866 9.134H65.72a18.242 18.242 0 0 1 1.2-6.894c.867-2.186 2.16-4.2 3.8-5.906 1.627-1.72 3.613-3.08 5.8-4.027a17.21 17.21 0 0 1 3.413-1.08 19.63 19.63 0 0 1 1.774-.28l.893-.067.44-.013h.227l.12-.013h.053l.2.013 1.48.08c.627.067 1.28.173 1.907.28.586.133 1.16.28 1.733.44.56.187 1.12.4 1.68.613l1.613.774 1.52.933c.48.36.96.707 1.414 1.093.44.4.88.8 1.293 1.227.813.867 1.547 1.8 2.173 2.8a19.06 19.06 0 0 1 1.587 3.173c.4 1.107.693 2.24.893 3.387.067.587.147 1.16.2 1.733l.04 1.734H95.84c-.08-3.107.52-6.307 1.893-9.16a20.655 20.655 0 0 1 5.934-7.36c2.546-1.947 5.546-3.307 8.706-3.894 1.547-.306 3.28-.44 4.734-.346 1.76.08 3.253.346 4.84.8 3.106.906 6 2.546 8.36 4.76 2.386 2.186 4.2 4.973 5.32 8.013.56 1.533.933 3.12 1.12 4.72.106.813.133 1.613.146 2.427l-.053 1.173c0 .28-.067.8-.12 1.227a19.585 19.585 0 0 1-1.253 4.773c-.094.213-.2.4-.28.6z" fill="#231F20"/>
    </g>
</svg>
