<svg width="168" height="167" xmlns="http://www.w3.org/2000/svg">
    <title>
        moku
    </title>
    <g fill="none">
        <path d="M3.8 34.88c0-17.333 12.533-31.387 28-31.387 17.333 0 28 16.72 28 34.054 0-15.96 8.667-31.56 24-31.56 16.667 0 24 15.6 24 31.56 0-17.334 11.667-34.054 28.333-34.054 15.467 0 27.694 15.36 27.694 32.694l-.027 47.306c0 44.174-35.813 80-80 80s-80-35.826-80-80V34.88" fill="#FFF"/>
        <path d="M7.133 34.947L7.147 62.6l.013 13.867V83.4c.053 2.227.08 4.44.293 6.64.76 8.827 3.014 17.52 6.76 25.547 3.734 8.013 8.827 15.426 15.067 21.706A77.892 77.892 0 0 0 50.8 152.64c7.987 3.813 16.653 6.173 25.44 7.067l3.24.253c1.107.053 2.293.053 3.44.093l.867.027.746-.027 1.667-.04c1.107 0 2.213-.08 3.307-.173 4.413-.333 8.8-1 13.093-2.107 8.56-2.186 16.76-5.84 24.093-10.786a77.503 77.503 0 0 0 19.014-18.36c5.253-7.12 9.173-15.214 11.653-23.694 1.227-4.253 2.147-8.6 2.6-13 .2-2.2.4-4.253.427-6.64l.04-1.733V78.4l.026-27.733.014-13.854c.04-4.32-.627-8.466-2.147-12.4-1.48-3.92-3.707-7.56-6.56-10.52-2.827-3-6.4-5.16-10.2-6.28-.48-.173-.933-.253-1.373-.333l-1.32-.267c-.534-.053-1.147-.08-1.72-.12l-.854-.053-.226-.013-.107-.014c-.08 0 .333.014.107.014l-.374.026c-1.986.08-3.986.294-5.88.947-3.786 1.187-7.32 3.44-10.12 6.52-2.84 3.013-5.08 6.693-6.626 10.667-1.56 3.973-2.427 8.24-2.6 12.546v.014c0 1.466-1.2 2.653-2.68 2.64a2.65 2.65 0 0 1-2.64-2.467l-.014-.173-.173-2.627c-.08-.867-.2-1.72-.293-2.587-.254-1.72-.574-3.413-1.027-5.066-.867-3.307-2.133-6.48-3.92-9.214-.893-1.36-1.92-2.586-3.027-3.72-.546-.56-1.186-1.013-1.773-1.533-.627-.453-1.293-.84-1.933-1.267l-2.094-.986c-.733-.214-1.48-.48-2.213-.68-.72-.12-1.4-.267-2.133-.4l-2.76-.147-2.174.12c-.76.107-1.506.293-2.266.413-.747.214-1.467.48-2.2.72-.68.347-1.387.654-2.067 1.027-.64.453-1.333.813-1.933 1.307-.587.546-1.254.973-1.787 1.573-1.12 1.133-2.173 2.373-3.08 3.747a26.518 26.518 0 0 0-2.427 4.346c-.706 1.534-1.266 3.147-1.733 4.787-.493 1.627-.853 3.307-1.133 5.013-.107.854-.24 1.707-.334 2.574l-.186 2.586v.014c-.014 1.466-1.227 2.64-2.707 2.626a2.662 2.662 0 0 1-2.613-2.506l-.014-.12-.16-2.8c-.093-.934-.253-1.854-.36-2.774-.333-1.826-.733-3.653-1.306-5.413-.56-1.76-1.2-3.493-2.027-5.133-.36-.84-.84-1.614-1.293-2.4-.427-.814-.974-1.534-1.494-2.267-.493-.773-1.093-1.44-1.68-2.107-.56-.706-1.226-1.306-1.866-1.906-.614-.654-1.334-1.16-2.04-1.694-.667-.573-1.44-.973-2.187-1.426-.72-.494-1.547-.774-2.333-1.134-.774-.413-1.627-.573-2.44-.853-.84-.32-1.614-.347-2.4-.52-.68-.187-1.8-.187-2.774-.24l-.746-.04-.374-.027h-.04c-.053 0 .36.014.174.014h-.094l-.173.013-1.293.08c-.867 0-1.707.2-2.56.347-1.707.306-3.347.866-4.947 1.573-.8.32-1.533.813-2.307 1.2-.746.453-1.453.987-2.186 1.467L16.213 13.2c-.6.64-1.24 1.253-1.826 1.907-.547.706-1.147 1.36-1.654 2.093-.48.747-1.026 1.453-1.453 2.24-.413.787-.893 1.547-1.253 2.36-.334.84-.747 1.627-1.027 2.48-.253.867-.6 1.693-.8 2.573-.187.867-.44 1.76-.573 2.614-.107.866-.254 1.653-.36 2.573l-.134 2.907zM.467 34.72L.6 31.733c.093-1.066.28-2.24.413-3.36.187-1.106.467-2.146.707-3.226.24-1.067.64-2.094.96-3.134.347-1.04.84-2.04 1.253-3.053.427-1 1.014-1.947 1.52-2.92.534-.973 1.187-1.853 1.787-2.787.64-.906 1.373-1.733 2.053-2.6.747-.826 1.547-1.6 2.32-2.386.84-.734 1.707-1.44 2.574-2.147.92-.627 1.826-1.28 2.786-1.853 1-.52 1.947-1.12 2.987-1.547 2.067-.907 4.213-1.627 6.44-2.027C27.507.507 28.627.28 29.747.267L31.44.173l.213-.013h.36l.054.013.373.027.733.053C34.2.333 35.08.32 36.347.6c1.16.24 2.386.4 3.426.8 1.067.373 2.174.653 3.174 1.187 1.013.493 2.066.92 2.986 1.56.96.586 1.934 1.16 2.774 1.893.88.693 1.76 1.36 2.52 2.173.786.774 1.586 1.547 2.253 2.414.707.853 1.413 1.693 1.987 2.613.613.907 1.24 1.8 1.733 2.76.52.96 1.067 1.893 1.467 2.893.92 1.947 1.64 3.974 2.213 6.027.573 2.067.96 4.16 1.24 6.267.093 1.066.227 2.12.293 3.173l.054 3.187h-5.334V34.6c.04-.987.134-1.96.214-2.947.213-1.946.52-3.906.986-5.826a39.182 39.182 0 0 1 1.84-5.68 34.434 34.434 0 0 1 2.774-5.4 27.772 27.772 0 0 1 3.84-4.867c.693-.773 1.56-1.4 2.346-2.107.814-.666 1.747-1.213 2.614-1.813.933-.533 1.906-.987 2.866-1.467 1.014-.346 2.027-.733 3.054-1.04 1.053-.2 2.106-.453 3.16-.6l1.586-.12.8-.053.4-.027h.4l.174.014 2.76.173c1.08.173 2.213.387 3.306.6 1.04.293 2.04.653 3.054 1 .986.427 1.946.92 2.906 1.387.894.6 1.814 1.16 2.667 1.8.8.693 1.653 1.346 2.387 2.106a27.142 27.142 0 0 1 3.826 4.947c2.134 3.52 3.507 7.347 4.36 11.2.414 1.933.68 3.88.867 5.827.053.973.133 1.946.16 2.92l-.013 2.92h-5.334v-.027c-.226-9.867 3.094-19.893 9.854-27.547 3.373-3.813 7.84-6.813 12.84-8.44 2.48-.866 5.12-1.226 7.733-1.346l.493-.027h.32l.107.013.227.014.853.053c.587.04 1.133.053 1.76.12l2.067.36c.706.12 1.386.267 2 .48 5.066 1.467 9.64 4.32 13.173 8.027 3.547 3.706 6.24 8.106 8.04 12.826 1.813 4.694 2.627 9.827 2.587 14.76V50.68l-.014 27.733v5.28l-.04 1.734c-.013 2.24-.226 4.786-.453 7.186-.493 4.8-1.48 9.534-2.813 14.16-2.694 9.254-6.96 18.067-12.667 25.827a84.934 84.934 0 0 1-20.68 20 84.089 84.089 0 0 1-26.253 11.773c-4.667 1.2-9.454 1.92-14.254 2.28-1.2.107-2.4.174-3.613.187l-1.8.04-.453.013h-.534l-.866-.013c-1.16-.04-2.294-.053-3.48-.107l-3.68-.28c-9.6-.973-19.014-3.573-27.72-7.733a84.397 84.397 0 0 1-23.4-16.707c-6.787-6.84-12.32-14.906-16.374-23.64-4.066-8.733-6.52-18.213-7.32-27.8-.24-2.4-.28-4.813-.32-7.213V62.6l.014-27.72v-.16z" fill="#231F20"/>
    </g>
</svg>
