<svg width="168" height="168" xmlns="http://www.w3.org/2000/svg">
    <title>
        moli
    </title>
    <g fill="none" fill-rule="evenodd">
        <path fill="#FFF" fill-rule="nonzero" d="M164.493 94.653h-102V38.027h102v56.626"/>
        <path d="M155.547 94.707c-4.734 39.466-36.68 69.786-75.387 69.786-41.973 0-76-35.893-76-80.173 0-44.267 34.027-80.16 76-80.16 25.947 0 48.853 13.707 62.56 34.627" fill="#FFF" fill-rule="nonzero"/>
        <path d="M155.547 94.707c-4.734 39.466-36.68 69.786-75.387 69.786-41.973 0-76-35.893-76-80.173 0-44.267 34.027-80.16 76-80.16 25.947 0 48.853 13.707 62.56 34.627" stroke="#231F20" stroke-width="6.667"/>
        <path d="M101.667 79.667h62.826" stroke="#231F20" stroke-width="4.667"/>
        <path d="M95.827 92.32l68.666-.333-2.666 2.666V38.827l2.666 2.666h-97.4c.267-.013.04 0 .08 0h-.133l-.547.027-2.173.12-.547.027-.466.093-.947.147c-.627.133-1.253.16-1.893.346-5.174 1.267-10.094 3.774-13.96 7.52l-1.454 1.387-1.32 1.533-.653.76-.587.827-1.173 1.64c-1.373 2.307-2.68 4.693-3.493 7.267-.947 2.533-1.4 5.213-1.747 7.893l-.107 2.013-.053 1.014-.013.253v.133c0-.04 0 .174-.014-.066l.014.066.026.547c.08 1.427.067 3 .32 4.2l.28 1.933.467 1.96c.267 1.334.787 2.587 1.213 3.867.187.64.534 1.227.8 1.853.294.6.52 1.24.867 1.814.693 1.16 1.28 2.373 2.12 3.44 1.467 2.266 3.387 4.173 5.333 6.013l1.587 1.24.787.627.84.546 1.693 1.08 1.787.907c1.16.68 2.466 1.027 3.693 1.547.627.213 1.28.36 1.92.533.64.187 1.28.373 1.947.453l1.973.32c.667.107 1.333.08 2 .134l1 .066.493.027h-.066.066l.134-.013.28-.014 2.173-.093c.76-.013 1.36-.133 2-.24.64-.107 1.267-.173 1.907-.293l1.946-.507.974-.24.946-.347 1.894-.693 1.826-.867c1.24-.52 2.347-1.32 3.52-1.986 4.467-3 8.294-7.054 10.84-11.814.6-1.2 1.24-2.386 1.667-3.666.547-1.24.867-2.547 1.213-3.854.214-.64.267-1.32.387-1.973.107-.667.253-1.333.307-2 .053-1.373.213-2.613.186-4.12l.08-17.44v-.013a2.308 2.308 0 0 1 2.334-2.32h62.826a2.327 2.327 0 0 1 2.334 2.333c0 1.28-1.04 2.333-2.334 2.333h-62.826L104 57.44l.08 17.44c.04 1.4-.107 3.067-.16 4.6-.067.773-.227 1.547-.333 2.32-.134.773-.2 1.547-.44 2.293-.387 1.52-.76 3.04-1.36 4.48-.494 1.494-1.214 2.88-1.894 4.267-2.906 5.533-7.253 10.24-12.386 13.76-1.347.787-2.627 1.707-4.054 2.333l-2.106 1.027-2.2.827-1.107.4-1.133.306-2.267.6c-.787.16-1.6.28-2.4.4-.8.134-1.627.28-2.32.28-6.093.48-12.667-.6-18.24-3.466l-2.093-1.067-1.987-1.267-.987-.64-.933-.733-1.84-1.453c-2.293-2.134-4.507-4.374-6.227-6.987-.946-1.253-1.653-2.653-2.453-3.987-.387-.68-.667-1.413-1-2.12-.307-.72-.693-1.4-.933-2.146-.494-1.48-1.08-2.934-1.387-4.454l-.547-2.28-.346-2.386c-.294-1.667-.254-3.014-.347-4.494l-.027-.546v-.067c-.013-.28 0-.12 0-.2v-.147l.014-.28.053-1.173.12-2.333c.4-3.08.947-6.174 2.027-9.094.96-2.986 2.44-5.76 4.053-8.426l1.36-1.907.68-.96.76-.88 1.533-1.773 1.694-1.64c4.52-4.347 10.293-7.334 16.413-8.814.747-.213 1.587-.28 2.387-.426l1.213-.187.6-.093.547-.027 2.186-.12.534-.027.426-.013h97.32a2.657 2.657 0 0 1 2.667 2.667v55.84a2.652 2.652 0 0 1-2.653 2.653h-.014l-68.666-.333a2.319 2.319 0 0 1-2.32-2.347c0-1.28 1.04-2.307 2.32-2.32" fill="#231F20" fill-rule="nonzero"/>
        <path d="M51.16 59.987l28 28" fill="#FFF" fill-rule="nonzero"/>
        <path d="M51.16 59.987l28 28" stroke="#231F20" stroke-width="5.333" stroke-linecap="round" stroke-linejoin="round"/>
        <path d="M79.16 59.987l-28 28" fill="#FFF" fill-rule="nonzero"/>
        <path d="M79.16 59.987l-28 28" stroke="#231F20" stroke-width="5.333" stroke-linecap="round" stroke-linejoin="round"/>
    </g>
</svg>
