<svg width="168" height="167" xmlns="http://www.w3.org/2000/svg">
    <title>
        monsi
    </title>
    <g fill="none" fill-rule="evenodd">
        <path d="M3.822 83.492V48.838C3.822 23.501 21.735 3.5 43.825 3.5c39.552 0 39.99 36.588 39.99 48.007 0-11.42.451-48.007 40.003-48.007 22.09 0 40.003 19.113 40.003 45.34v74.656c0 22.09-17.913 40.003-40.003 40.003H43.825c-22.09 0-40.003-17.912-40.003-40.003V83.492" fill="#FFF" fill-rule="nonzero"/>
        <path d="M3.822 83.492V48.838C3.822 23.501 21.735 3.5 43.825 3.5c39.552 0 39.99 36.588 39.99 48.007 0-11.42.451-48.007 40.003-48.007 22.09 0 40.003 19.113 40.003 45.34v74.656c0 22.09-17.913 40.003-40.003 40.003H43.825c-22.09 0-40.003-17.912-40.003-40.003V83.492z" stroke="#231F20" stroke-width="6.667" stroke-linecap="round" stroke-linejoin="round"/>
        <path d="M30.236 63.322c12.029-13.913 31.552-22.97 53.601-22.97 22.189 0 41.823 9.182 53.839 23.25" fill="#FFF" fill-rule="nonzero"/>
        <path d="M28.509 61.753s.307-.364.88-1.034 1.341-1.677 2.626-2.92c1.202-1.3 2.739-2.696 4.555-4.261 1.83-1.537 3.968-3.2 6.468-4.778 1.244-.797 2.53-1.607 3.94-2.361 1.383-.81 2.864-1.51 4.373-2.25 3.06-1.425 6.37-2.78 9.905-3.8a73.88 73.88 0 0 1 11.08-2.459l2.891-.377a189.99 189.99 0 0 1 2.92-.237 33.768 33.768 0 0 1 2.934-.168c1.006-.014 1.872-.056 3.004-.07 3.66.07 7.824.321 11.61.908 3.814.587 7.544 1.411 11.05 2.515 1.775.503 3.466 1.16 5.128 1.774 1.649.685 3.255 1.328 4.764 2.082 1.523.74 3.004 1.467 4.36 2.277 1.396.74 2.696 1.579 3.925 2.375 2.5 1.593 4.624 3.27 6.44 4.82 1.803 1.565 3.34 2.99 4.513 4.247 1.23 1.216 2.054 2.278 2.655 2.99.586.699.908 1.076.908 1.076.824.978.684 2.459-.294 3.283a2.323 2.323 0 0 1-3.143-.14l-.126-.111s-.307-.322-.908-.936c-.6-.601-1.453-1.495-2.64-2.543-2.292-2.166-5.84-5.002-10.479-7.782-1.16-.698-2.36-1.41-3.674-2.054-1.285-.698-2.654-1.313-4.066-1.942a75.473 75.473 0 0 0-9.192-3.255c-3.228-.978-6.678-1.62-10.185-2.151-.88-.112-1.76-.224-2.655-.336-.88-.111-1.746-.14-2.626-.223-1.69-.168-3.66-.14-5.533-.21l-2.626.056c-.908.014-1.802.042-2.697.126-.894.07-1.802.14-2.682.21-.894.111-1.774.223-2.655.335-3.52.503-6.957 1.145-10.198 2.095-3.27.895-6.343 2.012-9.193 3.214-1.411.628-2.808 1.215-4.08 1.914-1.327.642-2.542 1.341-3.702 2.026a72.122 72.122 0 0 0-6.147 4.093c-1.747 1.327-3.241 2.557-4.36 3.605a47.48 47.48 0 0 0-2.682 2.57c-.614.629-.95.964-.95.964a2.353 2.353 0 0 1-3.31 0c-.867-.852-.909-2.235-.126-3.157" fill="#231F20" fill-rule="nonzero"/>
        <path d="M50.053 100.333h67.541m-73.765 20h80.003" stroke="#231F20" stroke-width="5.333" stroke-linecap="round" stroke-linejoin="round"/>
    </g>
</svg>
