<svg width="168" height="167" xmlns="http://www.w3.org/2000/svg">
    <title>
        mu
    </title>
    <g fill="none">
        <path d="M74.737 26.158c6.936 1.061 11.809 6.607 10.762 12.542-1.21 6.786-7.37 10.075-14.32 9.013" fill="#FFF"/>
        <path d="M75.11 24.199s.15.014.42.044c.299.045.613.03 1.226.18.613.12 1.346.3 2.11.568.792.255 1.66.599 2.542 1.122a15.606 15.606 0 0 1 2.708 1.96c.898.823 1.765 1.81 2.453 2.977.689 1.182 1.242 2.513 1.511 3.979.27 1.48.255 2.917-.045 4.518l-.209.837c-.06.3-.224.733-.344 1.077-.24.763-.569 1.362-.898 2.005-.688 1.257-1.615 2.364-2.618 3.291a13.676 13.676 0 0 1-3.26 2.094c-1.123.479-2.215.823-3.217 1.003a13.472 13.472 0 0 1-2.752.269c-.823.015-1.526-.06-2.095-.12-.583-.045-1.017-.164-1.316-.21l-.449-.09c-1.107-.223-1.81-1.27-1.6-2.348.209-.987 1.092-1.66 2.049-1.615h.15s.508.03 1.406.015c.434-.015.987-.03 1.585-.12.599-.075 1.272-.21 1.96-.404.703-.18 1.406-.479 2.094-.838a10.426 10.426 0 0 0 1.93-1.436 8.249 8.249 0 0 0 1.496-2.004c.18-.39.419-.823.494-1.167.074-.21.134-.314.21-.583l.179-.853a7.6 7.6 0 0 0 .06-2.409 9.282 9.282 0 0 0-.808-2.318 11.841 11.841 0 0 0-1.421-1.975c-.569-.568-1.137-1.077-1.736-1.48a15.313 15.313 0 0 0-1.72-1.003 11.934 11.934 0 0 0-1.391-.583c-.36-.15-.838-.255-1.077-.345a5.232 5.232 0 0 0-.404-.104 2.021 2.021 0 0 1-1.376-2.483 2.024 2.024 0 0 1 2.154-1.451" fill="#231F20"/>
        <path d="M71.178 47.708c6.954 1.06 11.282 7.193 10.222 13.118-1.209 6.79-8.386 9.506-15.326 8.431" fill="#FFF"/>
        <path d="M71.568 45.747s.15.03.433.06c.135.014.299.03.508.044.194.03.418.06.762.15.313.074.657.164 1.045.253.358.105.732.254 1.12.389a12.42 12.42 0 0 1 2.584 1.314 14.097 14.097 0 0 1 2.613 2.225c.881.881 1.613 1.986 2.24 3.196a13.963 13.963 0 0 1 1.225 4.062c.21 1.434.105 3.017-.194 4.39a12.176 12.176 0 0 1-1.777 4.168 12.116 12.116 0 0 1-3.047 3.061c-1.12.807-2.315 1.344-3.45 1.747-1.15.389-2.24.628-3.255.762-2.032.284-3.69.135-4.824 0-1.15-.15-1.792-.328-1.792-.328h-.045a2.027 2.027 0 0 1-1.419-2.465 1.996 1.996 0 0 1 2.076-1.478s.538.03 1.463.03c.926 0 2.24-.105 3.734-.418 1.494-.314 3.136-.971 4.465-2.017a7.113 7.113 0 0 0 1.703-1.836 6.848 6.848 0 0 0 .956-2.315c.179-.941.284-1.763.15-2.659-.12-.85-.314-1.702-.673-2.494-.373-.761-.762-1.508-1.284-2.135-.493-.642-1.06-1.165-1.613-1.613a14.009 14.009 0 0 0-1.658-1.075 31.769 31.769 0 0 1-.747-.389c-.209-.09-.433-.164-.597-.239a4.43 4.43 0 0 0-.582-.194c-.195-.06-.374-.104-.493-.15-.27-.074-.418-.119-.418-.119a1.992 1.992 0 0 1-1.345-2.494 1.993 1.993 0 0 1 2.136-1.433" fill="#231F20"/>
        <path d="M66.282 69.27c6.956 1.072 11.722 6.524 10.665 12.452-1.207 6.793-7.046 10.398-14.002 9.325" fill="#FFF"/>
        <path d="M66.667 67.309l.433.044c.298.045.61.015 1.222.164.596.12 1.342.299 2.102.552.76.253 1.64.611 2.52 1.118.893.492 1.818 1.163 2.712 1.953.895.82 1.744 1.804 2.445 2.981.656 1.178 1.222 2.52 1.476 3.965.253 1.476.223 2.922-.075 4.473l-.209.85c-.06.282-.208.7-.313 1.043-.223.76-.551 1.341-.85 1.982-.655 1.253-1.52 2.37-2.474 3.325a13.177 13.177 0 0 1-3.16 2.206 14.28 14.28 0 0 1-3.205 1.133c-.999.238-1.938.313-2.758.313-.82.03-1.535-.03-2.102-.09-.581-.044-1.013-.164-1.327-.208-.283-.06-.447-.09-.447-.09-1.073-.208-1.803-1.267-1.58-2.34a1.992 1.992 0 0 1 2.027-1.625l.15.015s.521.015 1.4 0c.448-.015.97-.03 1.551-.134.582-.09 1.237-.239 1.908-.433a9.334 9.334 0 0 0 2.028-.909c.67-.387 1.282-.924 1.863-1.49a10.585 10.585 0 0 0 1.446-2.088c.149-.387.373-.834.477-1.192.045-.209.134-.328.179-.596l.194-.85c.134-.716.193-1.625.06-2.415a8.518 8.518 0 0 0-.776-2.296c-.775-1.43-1.908-2.638-3.115-3.428a15.01 15.01 0 0 0-1.715-.984 10.843 10.843 0 0 0-1.371-.582c-.373-.149-.85-.253-1.074-.327-.268-.075-.402-.12-.402-.12a2.023 2.023 0 0 1-1.371-2.49 1.989 1.989 0 0 1 2.131-1.43" fill="#231F20"/>
        <path d="M114.3 29.758c-6.955-.937-13.562 4.823-13.562 10.84 0 6.894 6.592 9.902 13.561 10.855" fill="#FFF"/>
        <path d="M114.09 31.767s-.167 0-.44-.016c-.347-.015-.514.03-.998.061-.847.045-2.058.333-3.39.923-1.346.59-2.783 1.634-3.918 3.01-1.15 1.378-1.937 3.118-1.952 4.752v.318c.015.136.015.348.03.408.016.182.03.363.06.575.077.424.167.832.304 1.21a7.006 7.006 0 0 0 1.286 2.058c1.134 1.226 2.723 2.164 4.19 2.77a30.597 30.597 0 0 0 3.768 1.27c.969.227 1.529.363 1.529.363a2.005 2.005 0 0 1 1.452 2.436c-.212.939-1.074 1.559-1.997 1.529 0 0-.636-.015-1.755-.152-1.12-.15-2.739-.348-4.66-.998-1.877-.65-4.192-1.589-6.234-3.616-1.014-1-1.937-2.27-2.497-3.738a11.724 11.724 0 0 1-.62-2.24 9.793 9.793 0 0 1-.152-1.21c-.03-.242-.015-.332-.03-.499l-.015-.227v-.363c.09-3.208 1.574-6.052 3.39-8.034 1.83-2.043 4.054-3.314 6.067-4.04a13.665 13.665 0 0 1 5.114-.772c.575.015 1.24.121 1.452.167.273.045.424.075.424.075a2.02 2.02 0 0 1 1.604 2.345 2.024 2.024 0 0 1-2.012 1.635" fill="#231F20"/>
        <path d="M114.3 51.453c-6.97-.953-14.242 4.505-14.892 10.477-.756 6.864 6.138 11.127 13.107 12.064" fill="#FFF"/>
        <path d="M114.074 53.449s-.166 0-.454-.015c-.348-.015-.53.015-1.028.045-.893.06-2.18.333-3.632.923-1.452.575-3.026 1.589-4.357 2.95-1.317 1.362-2.36 3.117-2.542 4.797-.015.015-.076.62-.06.726a2.51 2.51 0 0 0 .014.575c.03.439.091.847.212 1.256a6.88 6.88 0 0 0 1.21 2.24c1.09 1.391 2.633 2.48 4.086 3.207 1.467.726 2.784 1.21 3.737 1.468.953.272 1.498.393 1.498.393a2 2 0 0 1 1.528 2.406 2.024 2.024 0 0 1-2.012 1.574l-.046-.016s-.68-.015-1.845-.181c-1.18-.197-2.875-.5-4.812-1.317-1.922-.817-4.221-2.012-6.128-4.221-.938-1.105-1.77-2.451-2.27-3.995a11.558 11.558 0 0 1-.453-2.375c-.03-.393-.046-.817-.03-1.271.014-.514.014-.545.075-1.135.439-3.298 2.24-5.961 4.221-7.822 2.013-1.907 4.328-3.057 6.386-3.738a14.702 14.702 0 0 1 5.174-.696c.605.015 1.271.106 1.498.152l.439.09a2.03 2.03 0 0 1 1.619 2.346c-.197.983-1.074 1.664-2.028 1.634" fill="#231F20"/>
        <path d="M112.517 73.93c-6.965-.936-14.67 2.916-15.334 8.884-.755 6.859 3.898 11.814 10.862 12.75" fill="#FFF"/>
        <path d="M112.285 75.926s-.15-.015-.423-.015c-.318-.015-.56 0-1.043.015-.923.03-2.208.197-3.705.62a13.12 13.12 0 0 0-4.566 2.253c-1.406 1.089-2.464 2.555-2.676 4.067l-.03.136v.076l-.015.03c0 .03.03-.227.015-.106v.03l-.03.454c-.016.272-.061.635-.046.847.03.408.015.801.09 1.27.137.877.349 1.739.727 2.48a8.689 8.689 0 0 0 1.345 2.04c.514.605 1.134 1.09 1.724 1.498.605.393 1.21.725 1.769.982.56.257 1.058.454 1.497.59.438.151.786.212 1.013.287.242.076.378.106.378.106l.196.06a1.975 1.975 0 0 1 1.376 2.45 1.97 1.97 0 0 1-2.101 1.452s-.182-.016-.484-.046c-.318-.045-.786-.03-1.361-.166a16.667 16.667 0 0 1-2.102-.514 13.116 13.116 0 0 1-2.646-1.134c-.922-.53-1.905-1.18-2.812-2.072-.937-.846-1.769-1.935-2.404-3.175a12.3 12.3 0 0 1-1.346-4.067c-.12-.696-.166-1.497-.166-2.283-.015-.378.03-.62.045-.938V82.7l.03-.182v-.075l.03-.151.046-.303c.257-1.603.938-3.1 1.815-4.34.892-1.239 1.965-2.222 3.054-3.008 2.238-1.557 4.566-2.313 6.562-2.722 2.01-.393 3.72-.332 4.899-.242a10.646 10.646 0 0 1 1.799.273 2.012 2.012 0 0 1 1.588 2.358 2.03 2.03 0 0 1-2.042 1.618" fill="#231F20"/>
        <path d="M135.397 28.373c31.562 36.01 28.89 95.12 28.89 95.12 0 22.096-17.911 39.993-39.993 39.993H44.292c-22.097 0-39.993-17.897-39.993-39.994 0 0-4-45.336 32.874-95.552 0 0 14.114-13.789 19.457-11.565 5.327 2.223 11.318.355 9.434 13.295-1.883 12.924-23.162 100.493 17.048 96.046 40.179-4.447 42.85-91.553 42.402-99.551-.432-8.014 9.883 2.208 9.883 2.208" fill="#FFF"/>
        <path d="M133.464 30.224a34.835 34.835 0 0 0-3.043-2.58c-1.035-.787-2.255-1.544-2.981-1.76-.186-.062-.263-.046-.186-.046.047.015.541-.078.788-.34.124-.155.2-.216.216-.31.047-.015.047-.076.031-.045-.015.108-.015.139-.03.37l.03 1.05c.031.418.031.804.031 1.174l.016 2.286c-.016 6.009-.34 11.956-.819 17.918-.463 5.946-1.236 11.878-2.224 17.778-.973 5.9-2.286 11.77-3.877 17.577-1.607 5.808-3.553 11.554-6.04 17.145-2.517 5.56-5.575 10.998-9.653 15.848-4.078 4.834-9.221 9.097-15.693 11.229l-2.518.772c-.772.185-1.467.278-2.193.417l-1.081.185-.541.109c-.479.061-.185.015-.309.03l-.093.016h-.139l-.308.03c-.82.078-1.653.14-2.487.124-3.352.047-6.905-.633-10.102-2.27-3.182-1.622-5.808-4.155-7.707-6.95-1.916-2.812-3.198-5.84-4.155-8.867-1.9-6.085-2.58-12.217-2.858-18.288-.247-6.07-.03-12.094.402-18.071.448-5.978 1.158-11.91 2.008-17.794.85-5.9 1.853-11.754 2.95-17.577l1.622-8.665c.463-2.704.741-5.53.37-7.492-.061-.216-.139-.401-.185-.602-.077-.2-.17-.294-.2-.448-.078-.108-.17-.185-.232-.294-.124-.061-.14-.185-.31-.247-.494-.355-1.637-.71-3.088-1.065l-1.128-.31-1.344-.4-1.05-.387c.062.015.062.015-.031 0-.386-.031-1.576.309-2.641.834-2.24 1.097-4.572 2.734-6.781 4.448a92.123 92.123 0 0 0-6.395 5.56l.356-.4-3.584 5.19-1.807 2.61a45.477 45.477 0 0 0-1.714 2.64l-3.275 5.407c-.525.896-1.097 1.776-1.606 2.703l-1.468 2.796-2.965 5.575-2.626 5.715-1.298 2.873-1.158 2.935c-.757 1.962-1.575 3.892-2.27 5.87l-2.008 5.977c-.68 1.977-1.159 4.031-1.746 6.04-.602 2.007-1.05 4.062-1.514 6.1l-.695 3.074-.571 3.09-.54 3.089-.433 3.104c-.34 2.07-.494 4.155-.71 6.225-.124 1.035-.124 2.07-.217 3.12a69.51 69.51 0 0 0-.124 3.105c-.03 1.034-.061 2.07-.03 3.089 0 1.004.046 2.085.108 2.95l.015.2v.093a37.499 37.499 0 0 0 4.155 16.93c2.672 5.235 6.734 9.684 11.492 13.097.556.479 1.235.803 1.838 1.19.649.37 1.251.787 1.9 1.127l1.992.958.973.478 1.035.371 2.07.757c.695.247 1.405.386 2.116.587.71.154 1.421.417 2.116.494l2.07.325c.34.046.68.123 1.05.154l1.19.062 2.394.123.309.016h.077c.17.015-.155 0-.093 0h79.932l1.097-.046c1.467-.078 2.935-.109 4.371-.402.742-.124 1.468-.2 2.178-.355l2.132-.54c5.684-1.484 10.889-4.511 15.198-8.496 4.356-3.954 7.615-9.036 9.577-14.55.571-1.344.85-2.796 1.235-4.201.217-.726.279-1.406.387-2.101l.34-2.07.216-4.71c.03-1.545.03-3.105.03-4.665a186.81 186.81 0 0 0-1.297-18.798c-.71-6.256-1.714-12.465-3.089-18.597-1.328-6.132-2.95-12.187-5.05-18.087-2.086-5.9-4.573-11.646-7.57-17.114-1.513-2.718-3.181-5.36-4.927-7.924-.865-1.282-1.807-2.471-2.703-3.707-.926-1.19-1.946-2.378-2.903-3.568zm3.985-3.552c1.035 1.235 2.054 2.44 3.073 3.707 1.004 1.328 2.055 2.656 2.997 4.016 1.884 2.687 3.676 5.452 5.282 8.325 3.275 5.684 6.055 11.646 8.387 17.747 4.696 12.233 7.553 25.053 9.144 37.966a190.64 190.64 0 0 1 1.329 19.493c.015 1.622.015 3.259-.031 4.927l-.216 4.881-.387 2.657c-.154.88-.247 1.807-.494 2.625-.448 1.684-.788 3.383-1.452 4.99-2.332 6.533-6.193 12.526-11.322 17.19-5.066 4.712-11.26 8.28-17.979 10.04l-2.517.65c-.834.185-1.7.277-2.564.416-1.7.325-3.43.386-5.175.464l-1.282.061H44.465l-.48-.015-.293-.015-2.41-.124-1.189-.046-1.328-.186-2.672-.417c-.896-.123-1.7-.401-2.549-.587-.834-.231-1.699-.401-2.502-.695l-2.44-.88-1.22-.463-1.174-.557-2.348-1.127c-.757-.417-1.483-.896-2.24-1.328-.726-.464-1.498-.865-2.178-1.421-5.622-4.016-10.41-9.283-13.577-15.462a44.26 44.26 0 0 1-4.911-20.018l.015.294a54.861 54.861 0 0 1-.139-3.46c-.015-1.128 0-2.224.046-3.336 0-1.112.062-2.21.14-3.321.077-1.097.107-2.193.216-3.29.216-2.193.401-4.387.741-6.55l.448-3.258.571-3.244.603-3.228.726-3.213c.494-2.131.942-4.278 1.575-6.364.618-2.1 1.128-4.232 1.838-6.317l2.07-6.21c.726-2.069 1.575-4.077 2.363-6.116l1.22-3.058 1.36-2.981 2.734-5.947 3.058-5.792 1.529-2.904c.525-.957 1.112-1.869 1.668-2.81l3.398-5.592a34.697 34.697 0 0 1 1.777-2.75l1.853-2.687 3.722-5.39.14-.202.231-.216a88.443 88.443 0 0 1 6.935-6.024c2.425-1.9 4.943-3.722 8.001-5.22.788-.371 1.591-.726 2.518-1.004.958-.263 1.946-.526 3.275-.48.664.032 1.39.14 2.147.418l1.004.386.787.232 1.004.262c1.39.386 3.182.71 5.16 1.993.493.278.941.757 1.405 1.158.401.448.787.958 1.096 1.452.278.51.587 1.05.757 1.56.155.494.325 1.004.448 1.514.71 3.861.17 6.997-.324 10.07l-1.622 8.743c-1.066 5.761-2.07 11.522-2.904 17.3-1.637 11.537-2.796 23.183-2.348 34.629.263 5.7.927 11.383 2.549 16.573 1.59 5.175 4.387 9.793 8.572 11.894 2.086 1.065 4.464 1.56 7.013 1.529.633.015 1.266-.031 1.915-.093l.247-.015.124-.016h.062c-.078.016.247-.03-.155.031l.525-.093 1.097-.2c.71-.14 1.483-.248 2.147-.402l1.699-.587.865-.263c.293-.092.587-.278.88-.401l1.746-.834c.602-.263 1.127-.68 1.683-1.02.556-.37 1.143-.648 1.638-1.08 2.1-1.638 4.108-3.43 5.823-5.561 3.537-4.186 6.348-9.113 8.665-14.288 2.317-5.174 4.155-10.627 5.7-16.187 1.56-5.56 2.733-11.23 3.799-16.944 1.05-5.715 1.854-11.476 2.549-17.253.664-5.792 1.173-11.615 1.39-17.392l.062-2.147c0-.355 0-.71-.016-1.02l-.015-1.174c.015-.494.061-1.22.216-1.822.093-.309.232-.71.401-1.066.248-.417.48-.803.896-1.19.773-.772 2.008-1.158 2.796-1.127a5.867 5.867 0 0 1 1.977.294c2.07.726 3.321 1.699 4.634 2.672a40.542 40.542 0 0 1 3.599 3.135l.077.093.093.093z" fill="#231F20"/>
        <path d="M54.506 23.497s-13.893 12.536-20.009.884c-4.88-9.333 5.338-16.882 16.227-19.55 12.46-3.05 25.117.441 25.117 11.102 0 10.675-3.553 27.115-7.106 42.67-3.57 15.556-16.898 61.78 15.997 61.78 32.896 0 29.77-81.33 29.77-94.675 0-13.329 8.006-15.54 11.56-15.54 3.568 0 9.775 0 9.775 15.098 0 15.113-1.77 50.22-12.445 76.893-10.66 26.673-21.762 31.111-40.886 31.111-19.11 0-34.222-9.333-35.107-40.002-.9-30.669 9.333-56.884 7.107-69.771" fill="#FFF"/>
        <path d="M57.804 22.92s.016.168.077.519c.03.336.122.855.137 1.527.122 1.329.138 3.253-.046 5.635-.336 4.81-1.603 11.438-3.191 19.715-1.558 8.277-3.497 18.264-4.337 29.794a152.34 152.34 0 0 0-.382 8.918c-.046 3.07.03 6.216.32 9.392.58 6.307 1.955 12.95 5.239 18.768a25.515 25.515 0 0 0 6.505 7.575c2.703 2.061 5.88 3.573 9.376 4.52 3.498.931 7.208 1.313 11.087 1.313 3.925 0 7.895-.183 11.683-.916 3.802-.733 7.437-2.062 10.598-4.307 3.16-2.183 5.849-5.222 8.17-8.628 4.581-6.872 7.987-15.103 10.628-23.517 2.658-8.46 4.536-17.348 5.91-26.45 1.375-9.086 2.215-18.386 2.657-27.778.23-4.703.336-9.376.275-14.095-.03-2.23-.213-4.444-.656-6.399-.474-1.954-1.237-3.604-2.154-4.245-.442-.336-.962-.55-1.74-.672-.718-.107-2.047-.137-2.719-.076a7.774 7.774 0 0 0-4.52 2.061c-1.267 1.176-2.184 2.887-2.749 4.857-.58 2-.81 4.108-.794 6.49.29 19.318-.107 38.895-3.68 57.923-.932 4.75-2.092 9.453-3.65 14.08-1.573 4.596-3.528 9.132-6.383 13.27-1.436 2.062-3.1 4.017-5.055 5.727-1.97 1.68-4.276 3.07-6.78 3.955-2.459.917-5.284 1.222-7.697 1.146-2.474-.061-4.963-.352-7.422-1.085-2.428-.702-4.825-1.847-6.872-3.45-2.061-1.574-3.756-3.605-5.024-5.773-2.55-4.368-3.543-9.132-3.986-13.683-.412-4.582-.213-9.04.184-13.393.381-4.352 1.053-8.598 1.817-12.736.779-4.138 1.695-8.185 2.596-12.11.886-3.879 1.71-7.788 2.52-11.575 1.588-7.59 3.008-14.95 3.94-21.975.458-3.528.779-6.934.824-10.202 0-.962.016-1.527-.06-2.138-.047-.626-.2-1.19-.383-1.725a7.073 7.073 0 0 0-1.878-2.795c-1.74-1.588-4.337-2.535-6.994-2.962-2.657-.428-5.437-.367-8.078 0-5.284.733-10.186 2.626-13.744 5.161-1.772 1.268-3.161 2.734-3.925 4.17-.779 1.435-.916 2.763-.626 4.092.076.32.183.718.29.947.046.122.076.26.214.519l.168.336.076.183c-.015-.03.076.168-.015-.046l.03.061c.367.642.733 1.253 1.146 1.665.794.855 1.588 1.222 2.55 1.374 1.924.275 4.276-.61 5.971-1.48a26.326 26.326 0 0 0 3.864-2.46c.412-.32.702-.565.916-.717l.275-.23.152-.137c1.375-1.16 3.436-1.008 4.597.367a3.2 3.2 0 0 1 .748 1.695zm-6.291 6.75c-.367.213-.749.473-1.176.687-1.146.595-2.459 1.206-4.093 1.695-1.619.458-3.573.855-5.895.55-2.305-.26-4.886-1.527-6.612-3.452-.9-.931-1.573-1.985-2.184-3.084l-.06-.107-.092-.199-.077-.168-.183-.351a8.368 8.368 0 0 1-.366-.886 11.566 11.566 0 0 1-.611-2.046c-.672-2.78-.214-6.139 1.282-8.796 1.451-2.673 3.62-4.765 5.971-6.445 4.75-3.344 10.446-5.436 16.814-6.337 3.161-.412 6.536-.504 10.048.061 1.741.29 3.528.733 5.3 1.481 1.77.718 3.557 1.741 5.13 3.192 1.573 1.435 2.887 3.33 3.635 5.452.366 1.053.641 2.153.733 3.237.153 1.084.107 2.245.076 3.009-.122 3.665-.534 7.314-1.069 10.964-1.1 7.315-2.687 14.752-4.413 22.388a782.766 782.766 0 0 1-2.764 11.636c-.977 3.91-1.955 7.834-2.78 11.835-1.633 7.972-2.916 16.325-2.214 24.571.367 4.078 1.252 8.155 3.238 11.484 1.94 3.36 5.04 5.742 8.857 6.796 1.894.565 3.955.81 6.047.855 2.123.03 3.925-.168 5.788-.84 3.68-1.283 6.81-4.154 9.239-7.681 2.428-3.543 4.26-7.682 5.727-11.973 1.45-4.306 2.565-8.796 3.45-13.377 1.772-9.163 2.704-18.6 3.208-28.114.519-9.53.534-19.09.412-28.756l-.03-1.878c-.03-.565 0-1.283.03-1.97.061-1.329.23-2.672.504-4.032.58-2.702 1.741-5.528 3.848-7.834 2.093-2.32 5.07-3.833 8.155-4.275.397-.062.794-.107 1.191-.123l.596-.03h.473c.672.015 1.436.03 2.23.137 1.588.199 3.42.81 4.902 1.924 1.466 1.115 2.52 2.55 3.237 3.956.718 1.405 1.115 2.81 1.42 4.169.596 2.718.734 5.314.749 7.864-.03 4.856-.23 9.728-.535 14.492-.626 9.59-1.664 19.074-3.237 28.359-1.558 9.3-3.635 18.432-6.536 27.198-2.978 8.75-6.353 17.18-11.469 24.815-2.58 3.772-5.711 7.284-9.529 9.972-3.818 2.718-8.262 4.352-12.568 5.192-4.352.84-8.613 1.023-12.72 1.039-4.185-.016-8.446-.428-12.492-1.543-4.032-1.1-7.896-2.932-11.179-5.467-3.268-2.535-5.925-5.711-7.85-9.117-3.878-6.826-5.329-14.14-5.986-20.89-.32-3.421-.397-6.704-.412-9.865-.015-3.223.061-6.292.23-9.285.702-11.958 2.504-22.19 3.954-30.527 1.482-8.323 2.474-14.783 2.658-19.043v-.52z" fill="#231F20"/>
        <path d="M22.317 95.28c1.325.47 2.43.956 3.578 1.56a32.837 32.837 0 0 1 3.269 1.929c2.135 1.398 4.078 3.062 5.86 4.917 1.767 1.856 3.372 3.917 4.638 6.17 1.28 2.252 2.326 4.638 3.033 7.126l.265.928.059.235.059.206.014.118.104.427c.132.53.235 1.34.338 2.061a21.19 21.19 0 0 1-.03 4.108c-.323 2.71-1.133 5.3-2.267 7.642-1.119 2.356-2.576 4.476-4.137 6.464-.78 1-1.634 1.928-2.518 2.827-.898.898-1.767 1.722-2.842 2.576a1.917 1.917 0 0 1-2.635 0l-.059-.059c-1.531-1.443-2.62-2.841-3.71-4.387a39.46 39.46 0 0 1-2.9-4.756 53.804 53.804 0 0 1-2.283-5.065l-.928-2.606-.81-2.65c-.28-.87-.426-1.782-.633-2.68a28.33 28.33 0 0 1-.515-2.71l-.427-2.723-.265-2.739c-.22-1.826-.177-3.651-.28-5.477 0-1.09.015-1.782.089-2.768.103-.987.176-2.003.353-2.915.265-1.9.81-3.755 1.399-5.58a33.504 33.504 0 0 1 2.385-5.228 34.59 34.59 0 0 1 3.225-4.711c1.207-1.458 2.547-2.812 3.93-4.079a43.68 43.68 0 0 1 9.247-6.257 42.933 42.933 0 0 1 5.168-2.15c.884-.294 1.782-.56 2.724-.795.972-.206 1.855-.398 3.136-.412a1.983 1.983 0 0 1 2.003 1.987 1.99 1.99 0 0 1-1.811 2.003l-.192.015c-.5.044-1.325.235-2.076.456-.765.236-1.531.5-2.311.81a38.1 38.1 0 0 0-4.491 2.164c-2.9 1.635-5.64 3.578-8.04 5.846-2.37 2.267-4.416 4.844-5.992 7.656a31.803 31.803 0 0 0-1.958 4.402c-.471 1.532-.898 3.092-1.12 4.697-.161.795-.161 1.546-.264 2.326a78.69 78.69 0 0 0-.088 2.518c.073 1.693.014 3.401.191 5.08l.22 2.532.354 2.503c.103.84.265 1.664.442 2.489.191.824.324 1.664.53 2.473l.633 2.444.78 2.4a47.45 47.45 0 0 0 1.87 4.668l1.105 2.253c.412.706.795 1.472 1.251 2.164.854 1.384 1.87 2.827 2.812 3.902l-2.694-.044a49.636 49.636 0 0 0 4.182-5.242 33.476 33.476 0 0 0 3.239-5.772c.868-1.987 1.457-4.034 1.678-6.066.103-1.016.118-2.032.044-3.033-.073-.456-.073-.84-.206-1.472l-.103-.442-.03-.118v-.03c-.014-.102.015.104.015.074l-.014-.044-.044-.206-.221-.795a28.06 28.06 0 0 0-2.46-6.052c-1.074-1.899-2.296-3.725-3.768-5.374-1.429-1.678-3.122-3.15-4.874-4.52a27.732 27.732 0 0 0-2.768-1.885c-.928-.574-1.958-1.148-2.856-1.56l-.089-.044a2.019 2.019 0 0 1-1.001-2.65c.427-.943 1.531-1.385 2.488-1.06" fill="#231F20"/>
        <path d="M19.222 114.165s1.246-.483 3.152-.865c.47-.088.983-.205 1.525-.278.557-.074 1.129-.176 1.715-.235a49.78 49.78 0 0 1 3.724-.293 39.502 39.502 0 0 1 3.739.03 32.61 32.61 0 0 1 3.269.293c1.92.263 3.21.674 3.21.674l.133 4.002s-1.261.499-3.167.88c-.938.205-2.053.396-3.24.513a37.4 37.4 0 0 1-3.724.264c-1.275.059-2.55.015-3.738-.044-.601 0-1.173-.088-1.716-.117-.542-.044-1.07-.118-1.554-.176-1.92-.264-3.196-.66-3.196-.66l-.132-3.988" fill="#231F20"/>
    </g>
</svg>
