<svg width="167" height="168" xmlns="http://www.w3.org/2000/svg">
    <title>
        mun
    </title>
    <g fill="none" fill-rule="evenodd">
        <path d="M163.63 124.16c0 22.093-17.907 40-39.999 40h-80c-22.09 0-40-17.907-40-40v-80c0-22.093 17.91-40 40-40h80c22.092 0 40 17.907 40 40v80" fill="#FFF" fill-rule="nonzero"/>
        <path d="M163.63 124.16c0 22.093-17.907 40-39.999 40h-80c-22.09 0-40-17.907-40-40v-80c0-22.093 17.91-40 40-40h80c22.092 0 40 17.907 40 40v80z" stroke="#231F20" stroke-width="6.667"/>
        <path d="M117.409 4.16l.179 44.293a1164012.746 1164012.746 0 0 1 .077 48.534l-.155 3.293c-.143 1.16-.335 2.373-.518 3.573-.289 1.12-.578 2.254-.87 3.387a34.014 34.014 0 0 1-6.918 12.267 34.336 34.336 0 0 1-11.472 8.546c-2.193 1.027-4.515 1.76-6.878 2.307-1.184.267-2.394.4-3.59.6-.604.053-1.21.067-1.816.107l-.908.04-.455.026-.227.014h-.113c-.105 0 .076.013-.265.013-1.114-.067-2.194-.107-3.336-.2-1.245-.187-2.53-.333-3.736-.6-2.362-.547-4.685-1.28-6.877-2.307a34.342 34.342 0 0 1-11.473-8.546 34.014 34.014 0 0 1-6.918-12.267c-.291-1.133-.58-2.267-.87-3.387-.173-1.146-.36-2.293-.507-3.44-.056-1.146-.11-2.293-.166-3.426l.006-3.134.071-45.4.18-44.293h5.333s.071 17.72.18 44.293a1433460.505 1433460.505 0 0 0 .076 48.534l.147 2.853c.142.947.285 1.893.43 2.84.24.933.483 1.867.726 2.8a28.062 28.062 0 0 0 5.756 10.12A28.463 28.463 0 0 0 72 122.64c1.809.84 3.725 1.427 5.67 1.88.956.2 1.877.293 2.816.467 1.063.08 2.2.12 3.297.173-.272-.013-.022 0-.058-.013h.094l.187-.014.376-.013.75-.04c.5-.027 1.002-.027 1.5-.08.985-.173 1.984-.267 2.96-.48 1.946-.453 3.862-1.04 5.671-1.88a28.468 28.468 0 0 0 9.497-7.04 28.056 28.056 0 0 0 5.757-10.12c.242-.933.485-1.867.726-2.787.14-.906.28-1.813.42-2.706.052-1.014.105-2.014.157-3l.005-3.134.071-45.4.18-44.293h5.333" fill="#231F20" fill-rule="nonzero"/>
        <path d="M97.687 96.6l-.044-.987c.006-.333-.05-.72-.123-1.186-.043-.467-.165-1-.32-1.587-.32-1.16-.812-2.56-1.748-3.973a14.069 14.069 0 0 0-3.947-4.054c-.882-.56-1.826-1.106-2.887-1.48-1.033-.453-2.234-.666-3.254-.84-.263-.053-.689-.04-1.028-.066l-.542-.04-.273-.014c-.13 0 .141 0 .103.014h-.202c-.615.053-1.243.04-1.86.173-1.252.147-2.48.573-3.677 1.08-1.198.52-2.307 1.267-3.351 2.107-1.026.866-1.911 1.92-2.68 3.04-.741 1.146-1.3 2.413-1.712 3.733-.161.667-.35 1.347-.405 1.933-.047.307-.11.587-.112 1.054l-.05 1.093c.054 1.387.24 2.76.645 4.067.436 1.293 1.014 2.533 1.77 3.653a15.616 15.616 0 0 0 2.691 2.96c1.037.813 2.134 1.547 3.314 2.04.588.253 1.184.48 1.788.64l.908.227c.299.08.555.08.83.133.45.12 1.308.12 2.014.16l.136.013h.103c.045 0-.268-.013-.122 0l.225-.013.447-.027c.296-.013.595 0 .884-.053a14.307 14.307 0 0 0 6.16-2.213 14.33 14.33 0 0 0 3.95-3.934c.953-1.386 1.47-2.773 1.81-3.92.078-.28.153-.56.223-.813.058-.253.076-.467.117-.68l.105-.573c.033-.174.032-.44.048-.614l.07-1.2-.004.147zm5.663.147l-.05 1.186c-.015.214-.005.387-.041.68-.04.294-.084.614-.13.974-.054.346-.097.733-.177 1.106l-.29 1.174c-.45 1.626-1.165 3.6-2.473 5.586-1.285 1.974-3.104 4.014-5.531 5.64a20.168 20.168 0 0 1-8.78 3.254c-.413.066-.836.066-1.26.093l-.637.04-.32.013-.43-.013c-.752-.053-1.381-.04-2.403-.213-1.918-.254-3.529-.787-5.242-1.52-1.678-.734-3.24-1.76-4.695-2.947-1.434-1.213-2.684-2.667-3.755-4.24-1.045-1.613-1.844-3.387-2.417-5.227-.544-1.866-.785-3.8-.81-5.733l.076-1.387c.006-.373.084-.906.166-1.413.128-1.067.394-1.973.645-2.907.597-1.826 1.416-3.573 2.475-5.146a21.455 21.455 0 0 1 3.768-4.174c1.446-1.146 2.996-2.16 4.657-2.866 1.659-.707 3.37-1.24 5.092-1.44.855-.16 1.713-.16 2.556-.214h.447l.273.014.542.026c.38.027.676.014 1.117.067 1.795.227 3.337.547 4.79 1.12 1.469.52 2.789 1.267 4.008 2.027a20.1 20.1 0 0 1 5.534 5.533c1.326 1.947 2.065 3.893 2.535 5.52.231.813.406 1.547.487 2.2.11.653.19 1.2.2 1.653l.077 1.387-.004.147z" fill="#231F20" fill-rule="nonzero"/>
        <path fill="#231F20" fill-rule="nonzero" d="M80.965 79.707l.333-75.547h4.667l.333 75.547h-5.333"/>
    </g>
</svg>
