<svg width="168" height="168" xmlns="http://www.w3.org/2000/svg">
    <title>
        musi
    </title>
    <g fill="none" fill-rule="evenodd">
        <path d="M163.964 84.16c0 44.187-35.816 80-80 80-44.183 0-80-35.813-80-80s35.817-80 80-80c44.184 0 80 35.813 80 80" fill="#FFF" fill-rule="nonzero"/>
        <path d="M163.964 84.16c0 44.187-35.816 80-80 80-44.183 0-80-35.813-80-80s35.817-80 80-80c44.184 0 80 35.813 80 80z" stroke="#231F20" stroke-width="6.667"/>
        <path d="M112.097 8.387l-.029 9.24c-.001 5.88-.004 14.28-.005 24.36l.017 16.266.01 8.894c0 1.506.003 3.04.005 4.586-.011 1.547.045 3.08-.078 4.84-.43 6.84-3.273 13.747-8.308 18.987-2.505 2.6-5.542 4.773-8.925 6.267a27.16 27.16 0 0 1-10.82 2.333 27.179 27.179 0 0 1-10.819-2.333c-3.382-1.494-6.42-3.667-8.926-6.267-5.034-5.227-7.878-12.173-8.306-18.96-.069-.84-.07-1.707-.081-2.533.001-.774.001-1.56.003-2.334.001-1.546.002-3.08.005-4.586l.01-8.894.017-16.266-.006-24.36-.029-9.24h4.667l-.03 9.24c-.001 5.88-.004 14.28-.005 24.36l.017 16.266.01 8.894.005 4.586c.001.774.001 1.56.003 2.334.021.733.034 1.44.108 2.173.461 5.76 2.986 11.533 7.225 15.787 4.192 4.293 10.119 6.88 16.132 6.8 6.015.08 11.941-2.507 16.133-6.8 4.239-4.24 6.766-10.04 7.224-15.774.142-1.373.108-2.96.112-4.52.002-1.546.003-3.08.006-4.586.002-3.04.006-6 .009-8.894l.017-16.266-.005-24.36-.03-9.24h4.667" fill="#231F20" fill-rule="nonzero"/>
        <path d="M81.297 75.16l.334-70.787a2.342 2.342 0 0 1 2.345-2.32 2.344 2.344 0 0 1 2.321 2.32l.334 70.787a2.674 2.674 0 0 1-2.654 2.68 2.675 2.675 0 0 1-2.68-2.653v-.027m-37.769-1.227c0 5.894-3.83 10.667-8.556 10.667-4.725 0-8.556-4.773-8.556-10.667 0-5.893 3.83-10.666 8.556-10.666 4.725 0 8.556 4.773 8.556 10.666m97.984 0c0 5.894-3.83 10.667-8.555 10.667s-8.556-4.773-8.556-10.667c0-5.893 3.831-10.666 8.556-10.666 4.726 0 8.555 4.773 8.555 10.666" fill="#231F20" fill-rule="nonzero"/>
        <path d="M114.095 123.213c-8.447 4.627-19.007 7.387-30.464 7.387-11.736 0-22.532-2.893-31.078-7.733" stroke="#231F20" stroke-width="5.333" stroke-linecap="round" stroke-linejoin="round"/>
    </g>
</svg>
