<svg width="167" height="88" xmlns="http://www.w3.org/2000/svg">
    <title>
        mute
    </title>
    <g fill="none">
        <path d="M26.964 62.52c13.333 14.08 19.46 30.787 42.175 17.987 8.048 5.866 18.308 5.146 22.51-.934 8.616 4.747 26.871 10.574 35.538-12.2 8.666-22.773 9.11-39.626 9.11-39.626H89.631l-42.222 2.186L26.964 62.52" fill="#FFF"/>
        <path d="M130.964 40.32c-21 7.333-74.667 4.667-74.667 4.667v13.506c0 14.267-11.565 25.827-25.833 25.827-14.267 0-25.833-11.56-25.833-25.827l-.334-14.506c0-22.094 17.91-40 40-40h80.334c22.092 0 41.953 12.333 38 33.666-1.667 9-3.651 17.067-1.334 27.334 2.334 10.333-1.666 19-15.666 19s-16.834-1.827-23.334-8.334" fill="#FFF"/>
        <path d="M131.576 42.227l-2.243.733-2.39.653a97.92 97.92 0 0 1-4.703 1.04c-3.14.587-6.285 1.04-9.43 1.414-6.294.746-12.59 1.173-18.883 1.466-6.294.28-12.584.4-18.874.414a496.58 496.58 0 0 1-18.886-.294h-.002l2.799-2.666.23 12.306c.005.547.026.96.02 1.614-.003.52.009 1-.035 1.64-.051 1.226-.208 2.293-.403 3.44-.393 2.266-1.095 4.466-2.021 6.573-3.67 8.467-11.731 14.827-20.855 16.56-2.237.427-4.675.613-6.823.507a28.658 28.658 0 0 1-6.916-1.174 29.038 29.038 0 0 1-11.906-6.92 28.936 28.936 0 0 1-7.42-11.6 28.67 28.67 0 0 1-1.452-6.786c-.043-.574-.1-1.16-.104-1.734l-.04-1.573-.074-3.067-.148-6.16-.074-3.066-.034-1.707.038-1.533A43.463 43.463 0 0 1 3.484 29.2C6.5 20.8 12.196 13.44 19.503 8.347 26.776 3.2 35.753.453 44.607.533L69.223.56l49.23.04 6.154.013c2.084.014 4.353.12 6.498.347 4.32.48 8.616 1.387 12.763 2.893 4.144 1.494 8.14 3.6 11.701 6.427 3.54 2.827 6.606 6.507 8.514 10.8a27.029 27.029 0 0 1 1.982 6.72c.356 2.307.378 4.627.18 6.893-.085 1.147-.276 2.267-.468 3.374l-.61 3.04c-.41 2.013-.807 3.986-1.136 5.946-.622 3.92-.998 7.76-.643 11.56.168 1.907.47 3.787.897 5.64.228 1.027.472 2.24.611 3.374.147 1.16.207 2.346.176 3.546-.065 2.4-.528 4.934-1.716 7.294-1.161 2.36-3.061 4.413-5.245 5.813-4.427 2.787-9.432 3.16-13.687 3-2.025-.053-4.26-.16-6.39-.427-2.16-.253-4.4-.626-6.631-1.466a19.796 19.796 0 0 1-6.087-3.587c-1.705-1.52-3.116-3.107-4.432-4.733a2.01 2.01 0 0 1 .292-2.827 2.02 2.02 0 0 1 2.517-.013l.019.013c1.595 1.267 3.105 2.587 4.665 3.56 1.538 1 3.055 1.693 4.747 2.107 3.395.8 7.36.813 11.363.773 1.073-.027 1.91-.027 2.838-.093a20.988 20.988 0 0 0 2.64-.347c1.7-.32 3.274-.853 4.554-1.653 2.6-1.52 4.001-4.254 4.208-7.694a17.36 17.36 0 0 0-.034-2.6 21.833 21.833 0 0 0-.406-2.693 47.11 47.11 0 0 1-.92-6.52c-.323-4.387-.012-8.773.63-12.96.298-2.093.658-4.16 1.014-6.173l.521-3c.127-.92.263-1.827.3-2.734.225-3.64-.32-7.213-1.815-10.4-1.456-3.2-3.765-6.026-6.629-8.306-2.876-2.28-6.227-4.054-9.803-5.334-3.573-1.293-7.357-2.093-11.19-2.506a63.174 63.174 0 0 0-5.788-.294h-6.154l-49.23.054-24.616.026c-7.564-.08-15.019 2.2-21.182 6.52-6.164 4.28-10.986 10.48-13.538 17.547a36.898 36.898 0 0 0-2.158 10.96l-.04 1.533.031 1.374.068 3.08.135 6.146.068 3.08.034 1.507c-.001.453.047.893.078 1.333.145 1.787.533 3.534 1.104 5.227 1.134 3.373 3.117 6.467 5.694 8.947a22.429 22.429 0 0 0 9.159 5.346 23.21 23.21 0 0 0 5.187.907c1.95.08 3.632-.027 5.426-.333a22.497 22.497 0 0 0 9.72-4.334c2.839-2.2 5.183-5.066 6.739-8.32.772-1.626 1.379-3.346 1.737-5.12.178-.866.33-1.826.398-2.653.056-.387.073-.933.098-1.44.028-.36.024-.987.038-1.467l.228-12.306.002-.094a2.618 2.618 0 0 1 2.67-2.573h.129c6.179.333 12.432.533 18.653.627 6.228.093 12.458.093 18.675-.08 6.215-.174 12.423-.48 18.576-1.107 3.073-.307 6.135-.693 9.156-1.213a98.244 98.244 0 0 0 4.481-.894l2.147-.546 2.233-.694h.019a1.997 1.997 0 0 1 2.497 1.334 1.994 1.994 0 0 1-1.293 2.48" fill="#231F20"/>
        <path d="M45.433 79.067l.668.306c.215.107.479.227.79.374.277.106.597.226.954.373.726.253 1.658.6 2.723.867 1.076.24 2.285.493 3.627.586.666.08 1.368.067 2.089.08l1.167-.04c.349-.026.704-.066 1.062-.093a19.685 19.685 0 0 0 4.656-1.173c3.126-1.2 6.114-3.374 8.43-6.147 2.366-2.733 4.049-6.067 4.918-9.387.444-1.653.7-3.306.802-4.893.081-1.507.077-3.28.12-4.773.045-1.52.093-2.92.169-4.16.075-1.24.105-2.32.19-3.2.131-1.787.243-2.8.243-2.8a2.009 2.009 0 0 1 2.222-1.774 2.018 2.018 0 0 1 1.778 1.774s.114 1.013.246 2.8c.082.88.114 1.96.188 3.2.076 1.24.125 2.64.17 4.16.016 1.56.106 3.093.023 5.08a30.422 30.422 0 0 1-.877 5.946c-.998 4.067-2.99 8.2-5.895 11.68-2.928 3.44-6.77 6.12-10.792 7.6a25.022 25.022 0 0 1-5.993 1.4l-1.512.12c-.454 0-.9 0-1.339.014-.92-.054-1.81-.08-2.655-.214a20.931 20.931 0 0 1-4.501-1.12c-1.295-.493-2.36-.986-3.239-1.48-.436-.266-.825-.506-1.164-.706-.284-.2-.526-.374-.722-.52-.383-.28-.588-.44-.588-.44a2.007 2.007 0 0 1-.4-2.814 2.005 2.005 0 0 1 2.442-.626" fill="#231F20"/>
        <path d="M69.561 79.067l.668.306c.215.107.479.227.79.374.278.106.597.226.956.373.724.253 1.656.6 2.721.867 1.076.24 2.285.493 3.627.586.666.08 1.368.067 2.089.08l1.167-.04c.349-.026.704-.066 1.062-.093a19.67 19.67 0 0 0 4.656-1.173c3.126-1.2 6.114-3.374 8.43-6.147 2.366-2.733 4.05-6.067 4.918-9.387.444-1.653.7-3.306.802-4.893.081-1.507.077-3.28.12-4.773.045-1.52.093-2.92.17-4.16.074-1.24.104-2.32.188-3.2.132-1.787.244-2.8.244-2.8a2.009 2.009 0 0 1 2.222-1.774 2.016 2.016 0 0 1 1.778 1.774s.114 1.013.246 2.8c.082.88.114 1.96.188 3.2.076 1.24.125 2.64.17 4.16.016 1.56.106 3.093.023 5.08a30.422 30.422 0 0 1-.877 5.946c-.998 4.067-2.99 8.2-5.894 11.68-2.928 3.44-6.769 6.12-10.793 7.6a25.007 25.007 0 0 1-5.993 1.4l-1.512.12c-.454 0-.9 0-1.339.014-.92-.054-1.81-.08-2.653-.214a20.925 20.925 0 0 1-4.503-1.12c-1.295-.493-2.36-.986-3.239-1.48-.436-.266-.825-.506-1.164-.706-.284-.2-.526-.374-.722-.52-.383-.28-.588-.44-.588-.44a2.007 2.007 0 0 1-.4-2.814 2.005 2.005 0 0 1 2.442-.626" fill="#231F20"/>
        <path d="M93.69 79.067s.242.106.7.32c.22.106.513.266.818.386.29.107.624.24.997.387.77.28 1.742.613 2.858.88 1.133.227 2.394.507 3.801.573.692.04 1.448.054 2.172.027a16.02 16.02 0 0 0 2.34-.213 19.02 19.02 0 0 0 4.823-1.4 20.57 20.57 0 0 0 4.604-2.814c1.45-1.16 2.729-2.56 3.9-4.053 2.305-3.013 3.83-6.613 4.485-10.16.327-1.747.467-3.56.427-5.133l-.108-5.147c-.034-1.6-.003-3.067-.007-4.36 0-1.293.007-2.427.039-3.36a97.13 97.13 0 0 1 .094-2.933 1.999 1.999 0 0 1 2.112-1.894c.98.054 1.759.8 1.884 1.734 0 0 .143 1.066.331 2.92.108.92.205 2.053.31 3.346.1 1.294.249 2.747.343 4.334l.31 5.146c.102 2.067-.048 4.134-.407 6.307-.73 4.307-2.515 8.773-5.327 12.573-2.812 3.8-6.7 6.8-10.834 8.52a24.27 24.27 0 0 1-6.21 1.707c-.95.147-2.196.213-2.962.227a23.41 23.41 0 0 1-2.798-.147c-1.78-.173-3.369-.613-4.736-1.067-1.357-.506-2.485-1.026-3.4-1.533-.456-.267-.864-.52-1.218-.733-.334-.214-.558-.387-.768-.534-.402-.306-.615-.466-.615-.466a2.007 2.007 0 0 1-.401-2.814 2.005 2.005 0 0 1 2.442-.626" fill="#231F20"/>
    </g>
</svg>
