<svg width="167" height="168" xmlns="http://www.w3.org/2000/svg">
    <title>
        namako
    </title>
    <g fill="none" fill-rule="evenodd">
        <path d="M61.297 32.493C64.631 14.16 80.583 3.52 92.631 3.987c21.333.84 10.386 34 8.333 37.84 9.261-9.267 22.32-12.827 30.703-4.534 7.964 7.867 5.632 20.36-4.035 29.534 5-2.667 14.537-4.667 20-4.667 11.69 0 15.999 8.333 15.999 22 0 44.187-35.816 80-80 80-44.183 0-80-35.813-80-80 0-31.667 20.745-53.333 46.333-53.333 25.59 0 47.668 23 47.668 64" fill="#FFF" fill-rule="nonzero"/>
        <path d="M58.687 31.947c.156-.934.301-1.854.557-2.934.241-1.04.508-2 .83-2.986a37.995 37.995 0 0 1 2.35-5.72 38.923 38.923 0 0 1 7.403-9.934C72.8 7.467 76.304 5.107 80.14 3.36 83.976 1.627 88.216.547 92.69.653c.7.054.917.054 1.63.134.621.066 1.18.173 1.747.266 1.14.254 2.286.6 3.401 1.094a14.102 14.102 0 0 1 5.719 4.613c1.445 1.987 2.312 4.2 2.84 6.347.536 2.16.716 4.293.734 6.373.022 4.173-.581 8.173-1.466 12.053a70.613 70.613 0 0 1-1.628 5.747 56.148 56.148 0 0 1-1.007 2.827c-.395.973-.721 1.813-1.343 2.973h-.001l-4.237-3.147c4.109-4.426 9.325-8.093 15.572-9.76 3.102-.84 6.51-1.066 9.857-.36 3.347.68 6.536 2.36 9.01 4.654l.465.426.442.454.364.386.446.534a17.5 17.5 0 0 1 1.537 2.093 18.935 18.935 0 0 1 2.133 4.667 20.186 20.186 0 0 1 .34 9.973c-.688 3.213-2.013 6.173-3.692 8.813a33.811 33.811 0 0 1-6.082 6.947h-.004l-3.09-4.293c2.508-1.24 4.962-2.014 7.434-2.72a80.026 80.026 0 0 1 7.486-1.654c2.508-.413 5.152-.706 7.854-.626 2.826.093 5.753.533 8.509 2.026 2.763 1.44 4.923 3.947 6.227 6.56 1.344 2.614 2.056 5.334 2.493 7.987.437 2.653.585 5.28.604 7.853l-.081 3.774c-.022 1.226-.168 2.586-.25 3.866a83.317 83.317 0 0 1-8.17 29.414 82.311 82.311 0 0 1-18.25 24.453 83.756 83.756 0 0 1-25.826 16.24c-9.506 3.76-19.714 5.787-29.93 5.827a84.148 84.148 0 0 1-15.253-1.24 83.409 83.409 0 0 1-14.78-4c-9.588-3.56-18.473-8.96-26.11-15.747a83.786 83.786 0 0 1-18.723-24.053C4.913 113.347 1.869 103.4.799 93.24c-.251-2.547-.442-5.093-.466-7.653l-.024-.96-.01-.547.009-.453.035-1.84c.024-1.227.133-2.6.216-3.894.468-5.12 1.412-10.24 3.081-15.16 3.241-9.84 9.217-19.013 17.612-25.466 4.163-3.24 8.908-5.747 13.921-7.427 5.05-1.627 10.291-2.44 15.634-2.32.622.027 1.202.027 1.861.08l2.05.173c1.338.187 2.638.334 3.937.627 2.6.52 5.149 1.28 7.601 2.28 4.923 1.947 9.447 4.827 13.364 8.307 7.861 6.986 13.236 16.24 16.403 25.92 3.233 9.706 4.366 19.893 4.276 29.92a2.67 2.67 0 0 1-2.691 2.653 2.677 2.677 0 0 1-2.643-2.653c-.093-9.574-1.477-19.12-4.542-28.014-3.026-8.893-8.02-17.106-14.943-23.106-6.899-6.014-15.733-9.48-24.861-9.534-4.47-.08-9.058.627-13.338 2.027-4.281 1.453-8.334 3.6-11.905 6.4-7.185 5.573-12.457 13.507-15.365 22.267-1.499 4.36-2.359 8.96-2.796 13.6-.072 1.16-.172 2.226-.202 3.453l-.04 1.84-.009.467.012.373.023.88c.021 2.347.198 4.693.428 7.04.984 9.347 3.784 18.493 8.104 26.84a77.06 77.06 0 0 0 17.23 22.133c7.028 6.254 15.203 11.214 24.019 14.48a75.028 75.028 0 0 0 13.59 3.68 76.851 76.851 0 0 0 14.04 1.147c9.414-.053 18.782-1.96 27.507-5.427a76.815 76.815 0 0 0 23.691-14.973c6.895-6.387 12.63-14.027 16.775-22.453 4.157-8.414 6.729-17.64 7.565-26.96.073-1.174.212-2.254.239-3.48l.088-3.587c-.01-2.32-.142-4.613-.499-6.8-.348-2.187-.925-4.267-1.824-6.027-.908-1.746-2.083-3.106-3.547-4.173-1.457-1.053-3.449-1.787-5.504-1.987-2.204-.213-4.466.04-6.805.347a52.63 52.63 0 0 0-6.893 1.44c-2.243.627-4.464 1.44-6.316 2.453a2.643 2.643 0 0 1-3.614-1.04 2.669 2.669 0 0 1 .412-3.133l.112-.107.004-.013c1.786-1.92 3.399-3.96 4.622-6.187 1.262-2.2 2.169-4.546 2.561-6.906.383-2.36.333-4.707-.348-6.84a12.132 12.132 0 0 0-1.437-3.014c-.292-.453-.671-.96-.987-1.306l-.24-.294-.37-.386-.293-.307-.313-.293c-1.663-1.574-3.652-2.654-5.855-3.147-2.202-.507-4.6-.373-6.988.12-2.39.533-4.757 1.507-6.986 2.787-2.254 1.253-4.347 2.853-6.316 4.6l-.208.186a2.64 2.64 0 0 1-3.734-.213 2.664 2.664 0 0 1-.296-3.12c.244-.547.576-1.493.835-2.307.276-.866.536-1.733.775-2.613.48-1.76.888-3.56 1.218-5.347.687-3.573 1.1-7.2.964-10.666-.148-3.427-.822-6.787-2.492-8.987a7.565 7.565 0 0 0-3.112-2.453 11.702 11.702 0 0 0-2.048-.627c-.372-.053-.752-.12-1.08-.147-.233-.053-.972-.08-1.222-.093-3.172-.12-6.536.64-9.655 2.027-3.137 1.36-6.032 3.333-8.613 5.653a33.2 33.2 0 0 0-6.492 8.147 32.707 32.707 0 0 0-2.247 4.746 30.43 30.43 0 0 0-.837 2.494c-.25.76-.474 1.706-.698 2.64A2.658 2.658 0 0 1 60.695 35a2.662 2.662 0 0 1-2.014-3.027l.006-.026" fill="#231F20" fill-rule="nonzero"/>
        <path d="M46.643 54.693L48.752 80.8m-29.935 1.08l19.795 9.227M32.01 121.88l12.091-19.36m31.187 20.653L58.221 100.96m22.222-22.827l-18.64 8.974" stroke="#231F20" stroke-width="5.333" stroke-linecap="round" stroke-linejoin="round"/>
    </g>
</svg>
