<svg width="168" height="168" xmlns="http://www.w3.org/2000/svg">
    <title>
        nanpa
    </title>
    <g fill="none">
        <path d="M80.957 138.72c6.875 15.013 22.03 25.44 39.619 25.44 24.055 0 43.555-19.507 43.555-43.56 0-17.467-10.291-32.547-25.142-39.48L86.972 29.587c-6.876-15-22.03-25.427-39.619-25.427C23.3 4.16 3.797 23.653 3.797 47.707c0 17.48 10.291 32.546 25.143 39.493l52.017 51.52" fill="#FFF"/>
        <path d="M78.763 140.307L27.064 89.093l.748.52a47.996 47.996 0 0 1-9.393-5.88c-2.878-2.333-5.52-4.96-7.754-7.92a47.421 47.421 0 0 1-5.633-9.546 43.566 43.566 0 0 1-3.195-10.614c-.613-3.786-.869-7.333-.552-11.066.012-1.854.436-3.667.679-5.507.1-.92.421-1.8.623-2.707.242-.893.437-1.8.722-2.68 1.218-3.493 2.636-6.946 4.632-10.066 1.856-3.214 4.266-6.067 6.81-8.76 2.692-2.534 5.525-4.974 8.752-6.827 3.134-2 6.6-3.413 10.106-4.64l2.698-.707c.9-.24 1.786-.493 2.752-.613 1.884-.293 3.852-.653 5.526-.667l2.614-.146 2.934.08c.931 0 1.852.173 2.78.253l1.388.147L55.676 2c3.667.64 7.276 1.707 10.675 3.24a48.02 48.02 0 0 1 9.594 5.707c2.976 2.253 5.63 4.933 7.958 7.84a48.037 48.037 0 0 1 5.897 9.506l-.639-.906 52.172 51.36-.934-.64a48.396 48.396 0 0 1 9.518 5.973c2.915 2.36 5.591 5.04 7.851 8.04a47.745 47.745 0 0 1 5.696 9.68 44.03 44.03 0 0 1 3.224 10.76c.192.907.297 1.88.395 2.84.104.96.224 1.96.226 2.8l.046 1.307.024.653.013.44-.017.36-.143 2.8c-.016 1.88-.445 3.72-.695 5.587-.104.933-.428 1.813-.634 2.733-.247.907-.446 1.827-.736 2.72l-.968 2.64-.488 1.32-.604 1.267-1.226 2.533c-.422.84-.957 1.613-1.433 2.413-1.907 3.24-4.365 6.094-6.956 8.787-2.74 2.547-5.619 4.973-8.885 6.813-3.176 1.987-6.676 3.387-10.212 4.587l-2.718.693c-.906.227-1.798.48-2.772.587-1.898.28-3.882.627-5.553.627l-2.615.12-2.948-.12c-.933 0-1.856-.174-2.782-.267l-1.39-.16-1.374-.267c-3.664-.68-7.259-1.786-10.635-3.36a47.968 47.968 0 0 1-9.5-5.813c-2.937-2.28-5.54-4.96-7.823-7.88a25.941 25.941 0 0 1-1.644-2.24c-.521-.773-1.058-1.507-1.525-2.36-.46-.813-1.008-1.667-1.387-2.453l-.966-1.96zm4.577-2.787l1.192 2.333c.397.787.824 1.387 1.23 2.08.38.68.88 1.347 1.349 2.014.458.68.945 1.346 1.481 1.96 2.052 2.546 4.377 4.88 6.992 6.84a41.52 41.52 0 0 0 8.403 4.946c2.969 1.347 6.12 2.254 9.321 2.8l1.199.214 1.212.133c.809.067 1.612.213 2.426.213l1.219.04.61.014.305.013h.152l.076.013h.038c-.056 0 .178-.013-.114 0l2.613-.146c1.83-.027 3.281-.36 4.836-.587.765-.08 1.553-.32 2.337-.52l2.352-.613c3.051-1.08 6.078-2.294 8.808-4.054 2.82-1.6 5.282-3.746 7.64-5.96 2.212-2.36 4.328-4.826 5.938-7.64 1.756-2.72 2.966-5.746 4.034-8.786.25-.76.41-1.56.622-2.334.17-.786.465-1.546.541-2.36.196-1.6.588-3.186.581-4.8.295-3.186.018-6.64-.492-9.653a37.69 37.69 0 0 0-2.794-9.24 41.676 41.676 0 0 0-4.918-8.307c-1.948-2.573-4.261-4.866-6.769-6.88a42.025 42.025 0 0 0-8.181-5.12l-.024-.013a3.276 3.276 0 0 1-.911-.64L84.784 31.8a3.233 3.233 0 0 1-.639-.907 41.637 41.637 0 0 0-5.066-8.28c-2.008-2.546-4.283-4.893-6.859-6.88a42.09 42.09 0 0 0-8.307-5.053c-2.946-1.373-6.084-2.32-9.281-2.907l-1.199-.24-1.213-.146c-.81-.067-1.613-.227-2.43-.227l-1.222-.053-.61-.027-.306-.013-.153-.014h-.115.108l-2.615.12c-1.826 0-3.293.32-4.862.534-.774.08-1.567.306-2.358.506l-2.372.6c-3.08 1.054-6.142 2.24-8.913 3.987-2.861 1.6-5.367 3.733-7.773 5.947-2.259 2.36-4.424 4.84-6.084 7.68-.416.706-.89 1.373-1.26 2.106l-1.067 2.214-.53 1.106L9.237 33l-.846 2.307c-.253.786-.419 1.586-.633 2.373-.176.8-.474 1.573-.554 2.4-.202 1.613-.6 3.227-.598 4.867-.3 3.24-.03 6.693.485 9.8a38.172 38.172 0 0 0 2.824 9.373c1.323 3 2.997 5.84 4.981 8.453 1.974 2.614 4.319 4.947 6.864 7a42.472 42.472 0 0 0 8.308 5.214h.016c.276.133.526.306.732.52l52.016 51.52c.204.2.368.426.492.666l.015.027z" fill="#231F20"/>
        <path d="M83.797 124.16c0 22.093-17.908 40-40 40-22.09 0-40-17.907-40-40s17.91-40 40-40h40v40" fill="#FFF"/>
        <path d="M81.13 124.16c-.003-13.333.106-26.667 0-40l2.667 2.667-14.277-.04-14.277.013-7.14.013-3.57.014c-1.208-.014-2.246.106-3.377.16a37.498 37.498 0 0 0-12.775 3.36 37.513 37.513 0 0 0-10.78 7.586 37.302 37.302 0 0 0-7.374 10.88c-.518.974-.818 2.04-1.2 3.067-.172.52-.396 1.027-.53 1.547l-.392 1.6-.398 1.6c-.094.52-.15 1.04-.23 1.56-.14 1.053-.358 2.013-.358 3.266-.3 4.507.181 8.827 1.452 13.04 2.481 8.387 8.09 15.734 15.4 20.507 3.656 2.373 7.73 4.147 12.01 5.04 1.051.253 2.07.333 3.103.533l.773.147.888.053 1.783.107.89.04.446.027.056.013c.163 0-.16 0-.108-.013h.103l.205-.014 1.641-.066 1.644-.067c.546-.04 1.086-.147 1.628-.213a37.185 37.185 0 0 0 12.475-3.974c3.883-2.08 7.376-4.88 10.293-8.186a37.395 37.395 0 0 0 6.827-11.28c.39-1.027.812-2.054 1.05-3.147.251-1.067.655-2.147.763-3.187.147-1.08.398-2.053.483-3.226l.21-3.56-.003.133zm5.331.133l-.149 3.56c-.064 1.214-.324 2.574-.49 3.854-.137 1.333-.545 2.506-.822 3.76-.263 1.24-.715 2.44-1.147 3.64A43.046 43.046 0 0 1 76.2 152.24c-3.307 3.88-7.301 7.2-11.78 9.693a42.94 42.94 0 0 1-14.497 4.894c-.635.093-1.267.226-1.904.293l-1.922.107-1.922.12-.24.013h-.12l-.275-.013-.447-.014-.89-.04-1.784-.066-.894-.04-.99-.134c-1.311-.2-2.672-.346-3.936-.64-5.051-1.026-9.879-3.08-14.211-5.853-4.335-2.787-8.172-6.347-11.237-10.48a43.517 43.517 0 0 1-6.86-13.747c-.308-1.253-.663-2.493-.92-3.76l-.563-3.813c-.095-1.28-.125-2.56-.184-3.853l-.019-.48-.009-.24.004-.214.003-.053.006-.12.054-.893.105-1.774c.013-1.133.272-2.52.472-3.813.108-.667.201-1.32.33-1.973l.491-1.854.496-1.866c.171-.614.432-1.2.646-1.814.462-1.186.852-2.413 1.464-3.546a43.211 43.211 0 0 1 8.785-12.48 43.3 43.3 0 0 1 12.592-8.56 43.097 43.097 0 0 1 14.736-3.614c1.247-.04 2.583-.133 3.753-.12h3.57l7.14.014 14.277.026 14.277-.04 2.688-.013-.021 2.68c-.104 13.333.005 26.667 0 40l-.003.133z" fill="#231F20"/>
        <path d="M84.13 44.16c0-22.093 17.91-40 40-40 22.093 0 40 17.907 40 40s-17.907 40-40 40h-40v-40" fill="#FFF"/>
        <path d="M86.797 44.16c.006 13.333-.104 26.667 0 40l-2.665-2.667 14.277.04 14.278-.026 7.14-.014h3.569c1.208.014 2.247-.12 3.377-.16a37.214 37.214 0 0 0 12.775-3.373 36.98 36.98 0 0 0 10.779-7.587 37.218 37.218 0 0 0 7.376-10.866c.517-.974.817-2.04 1.2-3.067.172-.52.396-1.027.529-1.56l.392-1.6.399-1.587c.093-.533.149-1.04.229-1.56.14-1.053.359-2.013.359-3.266.3-4.507-.182-8.84-1.454-13.04-2.48-8.387-8.089-15.747-15.398-20.507-3.656-2.373-7.731-4.147-12.011-5.04-1.05-.253-2.07-.347-3.103-.547l-.773-.133-.888-.053-1.783-.107-.89-.053-.446-.027h.052-.102l-.206.013-1.641.067-1.644.067c-.545.053-1.085.146-1.628.226a36.594 36.594 0 0 0-12.475 3.974c-3.882 2.08-7.376 4.88-10.293 8.186a37.331 37.331 0 0 0-6.827 11.267c-.392 1.04-.813 2.067-1.05 3.147-.251 1.066-.655 2.16-.763 3.2-.147 1.08-.399 2.053-.483 3.226l-.21 3.56.002-.133zm-5.329-.133l.15-3.574c.062-1.2.323-2.56.489-3.84.137-1.333.545-2.506.822-3.76.263-1.253.715-2.44 1.146-3.64a42.92 42.92 0 0 1 7.654-13.133 42.833 42.833 0 0 1 11.78-9.693 43.257 43.257 0 0 1 14.498-4.907c.634-.093 1.266-.213 1.904-.28l1.921-.12 1.923-.107.24-.013h.394l.447.027.89.026 1.785.08.893.04.99.134c1.311.2 2.673.346 3.937.626 5.05 1.04 9.878 3.08 14.21 5.867a42.456 42.456 0 0 1 11.238 10.48 43.378 43.378 0 0 1 6.86 13.747c.308 1.253.662 2.493.92 3.746l.561 3.827c.096 1.28.127 2.56.185 3.84l.019.48.01.24-.005.227-.002.053-.007.107-.053.893-.106 1.787c-.013 1.133-.272 2.506-.472 3.813-.108.653-.201 1.32-.33 1.96l-.491 1.867-.496 1.853c-.17.627-.432 1.213-.645 1.813-.463 1.2-.852 2.427-1.464 3.56a43.392 43.392 0 0 1-8.786 12.48 42.998 42.998 0 0 1-12.592 8.547 42.793 42.793 0 0 1-14.736 3.613c-1.246.054-2.582.147-3.753.134l-3.57-.014-7.14-.013-14.277-.013-14.277.04h-2.688l.02-2.667c.105-13.333-.004-26.667 0-40l.004-.133z" fill="#231F20"/>
    </g>
</svg>
