<svg width="168" height="168" xmlns="http://www.w3.org/2000/svg">
    <title>
        nasa
    </title>
    <g fill="none" fill-rule="evenodd">
        <path d="M74.613 150.253c-7.334 8.52-18.196 13.907-30.316 13.907-22.09 0-40-17.907-40-40v-40c0-44.187 35.818-80 80-80h60c11.047 0 20 8.333 20 17.333 0 9-8.41 18.667-22.668 18.667 14.591 0 22.668 8 22.668 18.667 0 9.666-8.744 15.986-22.668 15.986 0 0-11.998 7.56-22.22 17.787s-44.796 57.653-44.796 57.653" fill="#FFF" fill-rule="nonzero"/>
        <path d="M74.613 150.253c-7.334 8.52-18.196 13.907-30.316 13.907-22.09 0-40-17.907-40-40v-40c0-44.187 35.818-80 80-80h60c11.047 0 20 8.333 20 17.333 0 9-8.41 18.667-22.668 18.667 14.591 0 22.668 8 22.668 18.667 0 9.666-8.744 15.986-22.668 15.986 0 0-11.998 7.56-22.22 17.787s-44.796 57.653-44.796 57.653z" stroke="#231F20" stroke-width="6.667"/>
        <path d="M60.833 129.053c-10.074-27.68 4.198-58.28 31.876-68.36 27.679-10.08 58.284 4.2 68.358 31.88 10.074 27.68-4.198 58.28-31.876 68.347-27.679 10.08-58.283-4.187-68.358-31.867" fill="#FFF" fill-rule="nonzero"/>
        <path d="M60.833 129.053c-10.074-27.68 4.198-58.28 31.876-68.36 27.679-10.08 58.284 4.2 68.358 31.88 10.074 27.68-4.198 58.28-31.876 68.347-27.679 10.08-58.283-4.187-68.358-31.867z" stroke="#231F20" stroke-width="6.667"/>
        <path d="M84.097 104.867c-3.08-8.467 1.284-17.827 9.748-20.907 8.464-3.08 17.823 1.28 20.904 9.747 3.08 8.466-1.284 17.826-9.748 20.906-8.464 3.08-17.822-1.293-20.904-9.746z" stroke="#231F20" stroke-width="5.333"/>
        <path d="M107.15 127.92c-3.08-8.467 1.285-17.827 9.749-20.907 8.464-3.08 17.822 1.28 20.904 9.747 3.08 8.467-1.284 17.827-9.748 20.907-8.464 3.08-17.823-1.294-20.904-9.747z" stroke="#231F20" stroke-width="5.333"/>
        <path d="M144.22 43.493s-10.57-.04-26.425-.093c-3.964-.027-8.259-.04-12.8-.053-4.576-.014-9.272-.054-14.074.253-4.82.28-9.746.907-14.585 2.04-4.845 1.107-9.547 2.88-13.808 5.333a41.985 41.985 0 0 0-5.947 4.294c-1.794 1.64-3.524 3.36-4.973 5.306-3.004 3.814-5.221 8.16-6.888 12.587-1.67 4.427-2.79 8.933-3.603 13.253a126.89 126.89 0 0 0-1.52 12.4c-.157 1.947-.205 3.814-.308 5.587l-.104 5.04-.044 8.333-.032 7.267a2.676 2.676 0 0 1-2.678 2.667 2.679 2.679 0 0 1-2.655-2.667l-.032-7.267-.03-8.346.063-5.2c.088-1.84.123-3.774.268-5.787.255-4.027.726-8.4 1.482-13.013.82-4.6 1.97-9.44 3.757-14.307 1.783-4.853 4.213-9.76 7.621-14.16 1.646-2.253 3.623-4.267 5.695-6.187a47.035 47.035 0 0 1 6.84-5.013c4.872-2.867 10.167-4.88 15.45-6.133 5.285-1.267 10.551-1.974 15.618-2.307 5.09-.36 9.981-.347 14.487-.36 4.541-.013 8.836-.027 12.8-.04 15.854-.067 26.425-.093 26.425-.093a3.33 3.33 0 0 1 3.345 3.32 3.34 3.34 0 0 1-3.321 3.346h-.024" fill="#231F20" fill-rule="nonzero"/>
    </g>
</svg>
