<svg width="167" height="168" xmlns="http://www.w3.org/2000/svg">
    <title>
        nasin
    </title>
    <g fill="none">
        <path d="M58.133 158.56c-17.801 7.96-38.91 2.24-49.265-14.2-11.385-18.08-2.285-47.2 16.881-54.533-8.333-2.44-15.666-11.334-14.333-20.334 1.977-13.346 15.503-18.506 33.836-15.84-10.17-15.826.497-32.493 23.281-29.493l18.214 1.8 4.44 36.867-33.054 95.733" fill="#FFF"/>
        <path d="M55.96 156.52a451.46 451.46 0 0 1 3.32-10.96 633.75 633.75 0 0 1 3.96-12.027l2.053-5.986c.707-1.987 1.374-3.987 2.107-5.974.733-1.973 1.413-3.973 2.173-5.946.76-1.96 1.48-3.947 2.267-5.907l4.627-11.8 2.306-5.893 2.214-5.934 2.106-5.973 2.027-6a489.3 489.3 0 0 0 3.907-12.04l-.107 1.013-2.8-18.36c-.467-3.053-.947-6.12-1.387-9.173-.413-3.067-.88-6.133-1.253-9.2l2.947 2.88c-2.827-.267-5.64-.493-8.454-.813-2.813-.294-5.64-.6-8.44-.96L65.427 27c-1.307-.24-2.587-.133-3.894-.187-.653-.053-1.28.04-1.92.107l-1.92.173c-.613.12-1.226.28-1.853.414-.613.133-1.253.253-1.813.506l-1.774.654c-.56.266-1.08.586-1.64.88-.266.146-.557.28-.816.453l-.729.56c-.463.4-1.037.693-1.428 1.173l-1.265 1.334c-.36.493-.668 1.026-1.015 1.533-.387.48-.555 1.08-.819 1.64l-.374.84c-.114.293-.159.6-.235.907-.112.6-.34 1.186-.373 1.813l-.127 1.88c-.019.627.099 1.253.133 1.88.031.32.046.64.092.947l.24.933c.174.613.284 1.253.498 1.853l.734 1.8c.208.614.547 1.187.876 1.747l.964 1.72.015.027c.565 1 .21 2.266-.793 2.84-.39.213-.819.293-1.234.253-1.381-.133-2.764-.347-4.146-.413l-2.072-.107c-.69-.027-1.376-.013-2.064-.013-1.38-.04-2.738.12-4.096.213-1.342.187-2.691.347-3.984.667a15.22 15.22 0 0 0-1.927.506c-.621.214-1.281.347-1.867.614-.593.266-1.21.48-1.785.76l-1.68.906L19.8 59.88c-.479.4-.913.827-1.376 1.227-.436.426-.79.92-1.196 1.36-.385.466-.659 1-1 1.493-.587 1.04-1.073 2.173-1.353 3.2-.199.44-.3 1.253-.436 1.933l-.096.534-.05.266-.024.134-.005.026-.004.027c.013-.08-.033.173.03-.16l-.003.053-.047.854c-.076.573.045 1.16.044 1.72.11.573.141 1.16.301 1.72.26 1.133.696 2.253 1.235 3.32a17.098 17.098 0 0 0 1.997 3.04c.751.96 1.655 1.8 2.579 2.6.952.773 1.953 1.48 3.023 2.026 1.05.6 2.166.987 3.268 1.36a3.395 3.395 0 0 1 .385 6.28l-.127.054-2.966 1.413-2.775 1.8c-.868.693-1.696 1.44-2.553 2.16-.804.773-1.535 1.64-2.312 2.453-.743.84-1.363 1.814-2.056 2.707-.691.907-1.187 1.947-1.796 2.907-.635.96-1.012 2.066-1.531 3.08-.532 1.013-.865 2.133-1.275 3.2-.19.546-.42 1.08-.58 1.626l-.441 1.667-.448 1.68c-.117.56-.193 1.133-.295 1.693-.188 1.134-.422 2.267-.454 3.414-.048 1.146-.247 2.293-.154 3.44.066 1.133-.013 2.293.159 3.413.173 1.133.253 2.267.487 3.373.284 1.094.53 2.214.826 3.28.382.974.75 1.96 1.095 2.947l1.736 3.307.11.213.027.053c-.044-.08.119.2-.096-.16l.015.014.061.093.243.347.484.706.964 1.414c.708.893 1.455 1.76 2.18 2.64.82.8 1.605 1.626 2.445 2.4.899.706 1.736 1.493 2.678 2.146.966.614 1.853 1.347 2.88 1.867 1.012.547 1.98 1.173 3.053 1.587 1.05.466 2.093.96 3.2 1.28l1.633.573 1.68.413c.562.12 1.115.294 1.684.387l1.712.267c2.283.373 4.607.44 6.922.373 1.161.013 2.309-.187 3.468-.267 1.153-.133 2.285-.413 3.432-.6 1.106-.266 2.173-.586 3.266-.866l2.307-.867zm3.147 4.52l-3.467 1.427c-1.307.413-2.627.853-3.947 1.213-1.306.267-2.596.613-3.918.813-1.327.147-2.648.4-3.987.44-2.673.147-5.367.094-8.027-.266l-1.996-.28c-.662-.107-1.312-.28-1.97-.414l-1.966-.466-1.922-.614c-1.298-.373-2.536-.906-3.776-1.44-1.264-.48-2.426-1.173-3.626-1.786-1.214-.6-2.29-1.44-3.44-2.16-1.124-.747-2.142-1.654-3.216-2.48-1.016-.894-1.972-1.854-2.956-2.787-.889-1.027-1.793-2.04-2.652-3.093l-1.181-1.654-.588-.826-.293-.427-.074-.093-.018-.027-.124-.213-.03-.054-.113-.213-1.808-3.293a162.988 162.988 0 0 1-1.597-4.027c-.394-1.333-.704-2.653-1.05-3.987-.292-1.333-.417-2.693-.624-4.04-.205-1.346-.149-2.706-.228-4.053-.106-1.36.09-2.707.143-4.053.037-1.347.285-2.68.495-4 .112-.667.202-1.334.334-2l.498-1.96.504-1.947c.184-.653.438-1.28.656-1.907.457-1.28.87-2.56 1.5-3.76.614-1.2 1.088-2.466 1.84-3.613.725-1.147 1.337-2.36 2.168-3.44.836-1.08 1.596-2.2 2.505-3.227.948-1 1.852-2.026 2.85-2.973 1.062-.893 2.102-1.8 3.197-2.653 1.172-.747 2.337-1.52 3.528-2.24l3.824-1.76.258 6.333c-1.614-.533-3.204-1.147-4.621-2.013-1.45-.827-2.773-1.814-4.015-2.894-1.212-1.106-2.366-2.28-3.344-3.6a23.26 23.26 0 0 1-2.578-4.226C9.553 78.8 8.992 77.2 8.667 75.533c-.19-.826-.252-1.693-.339-2.533.016-.853-.07-1.72.061-2.573l.146-1.28.009-.08.047-.24.03-.134.063-.253.123-.533c.182-.707.268-1.32.616-2.214.553-1.72 1.306-3.2 2.194-4.6.499-.68.94-1.386 1.499-2 .576-.6 1.119-1.24 1.735-1.786.638-.507 1.262-1.054 1.921-1.534l2.053-1.293 2.154-1.04c.725-.32 1.473-.56 2.208-.827.732-.306 1.494-.426 2.24-.64.746-.213 1.5-.373 2.256-.48 1.505-.306 3.014-.413 4.52-.56 1.501-.04 3.006-.146 4.493-.08.745.027 1.492.027 2.233.08l2.218.174c1.481.093 2.932.373 4.398.533l-2.012 3.12-1.109-1.987c-.372-.666-.752-1.32-1.004-2.053l-.848-2.147c-.248-.72-.39-1.493-.587-2.24l-.272-1.133-.129-1.16c-.064-.787-.201-1.56-.195-2.347l.122-2.373c.041-.787.292-1.56.436-2.333.097-.387.145-.787.27-1.174l.423-1.12c.303-.733.521-1.52.972-2.186.41-.694.797-1.4 1.244-2.067l1.523-1.867c.486-.653 1.15-1.106 1.728-1.653l.901-.8c.316-.24.657-.453.987-.667.668-.426 1.326-.893 2.017-1.28l2.148-1c.707-.36 1.453-.573 2.2-.813.747-.213 1.507-.467 2.253-.667l2.294-.413c.76-.133 1.533-.28 2.293-.293 1.52-.067 3.08-.28 4.6-.147l2.28.12 2.08.147c2.827.2 5.64.453 8.467.72 2.813.24 5.626.573 8.453.866a3.29 3.29 0 0 1 2.933 2.88c.374 3.067.654 6.147.974 9.227.306 3.08.546 6.173.826 9.253l1.64 18.494.014.146c.026.307-.027.6-.12.88a551.442 551.442 0 0 0-4.36 11.88l-2.107 5.974-2.013 6-1.934 6.026-1.826 6.067-3.627 12.147c-.6 2.026-1.24 4.026-1.867 6.053-.626 2.013-1.306 4.013-1.96 6.013-.64 2.014-1.346 4-2.026 6l-2.08 5.987a669.363 669.363 0 0 1-4.294 11.907 490.235 490.235 0 0 1-4.6 11.8l-.04.106a2.78 2.78 0 0 1-1.506 1.507z" fill="#231F20"/>
        <path d="M163.413 97.707v37.226c0 16.147-13.08 29.227-29.213 29.227H75.747c-16.134 0-29.219-13.08-29.219-29.227V97.707c0-32.28 26.165-58.44 58.445-58.44s58.44 26.16 58.44 58.44" fill="#FFF"/>
        <path d="M160.213 97.707s-.066-1.507-.2-4.334c-.16-2.813-.773-6.933-2.173-12.026-1.627-5.027-4.213-10.987-8.64-16.894-.56-.733-1.08-1.52-1.693-2.24-.64-.706-1.28-1.426-1.947-2.146-1.24-1.52-2.8-2.814-4.307-4.227-.386-.333-.76-.72-1.173-1.04-.413-.307-.84-.627-1.253-.947-.854-.64-1.707-1.293-2.574-1.946-.893-.614-1.853-1.147-2.8-1.747-.96-.547-1.866-1.227-2.92-1.68-2.04-.973-4.093-2.08-6.346-2.8-1.12-.387-2.2-.893-3.374-1.187-1.16-.293-2.346-.6-3.533-.92-1.187-.36-2.373-.453-3.56-.666-.6-.094-1.213-.2-1.813-.294-.6-.093-1.2-.213-1.88-.226a467.226 467.226 0 0 1-4.027-.214l-1.013-.053-.12-.013c-.08 0 .186.013.013.013l-.24.013-.48.027a95.07 95.07 0 0 0-1.947.093l-1.96.08-.986.054-.987.146c-1.307.187-2.613.387-3.947.587-1.32.213-2.6.627-3.92.933l-1.973.494-1.933.706c-1.267.494-2.614.867-3.854 1.467-1.253.6-2.506 1.2-3.773 1.8-1.24.627-2.413 1.427-3.64 2.133-1.24.68-2.36 1.547-3.507 2.4-9.28 6.667-16.426 16.774-20.106 28.174-.374 1.44-.747 2.893-1.134 4.36-.218.72-.317 1.453-.424 2.173l-.332 2.187c-.098.746-.253 1.44-.312 2.213l-.114 2.373-.115 2.374-.03.6-.014.293c-.004.08.005-.147.003.013v.147l.002 1.2.051 19.107.09 9.56.045 4.786.025 2.374.133 2.146a27.409 27.409 0 0 0 2.152 8.254c1.134 2.6 2.76 4.96 4.654 7.04 3.773 4.2 8.946 6.933 14.28 8.013l1.906.267c.16.026.307.053.48.066l.574.027 1.146.053 1.147.04h.973l2.294-.026c3.026-.014 6.04-.04 9.04-.054 11.96-.013 23.52-.026 34.48-.04 2.746 0 5.44 0 8.106.014 1.307-.014 2.707.026 3.907-.027 1.16-.067 2.32-.067 3.44-.293 2.267-.28 4.413-1 6.44-1.827.987-.493 2.013-.893 2.907-1.507.453-.28.933-.533 1.373-.84l1.28-.96c3.4-2.56 5.88-5.933 7.547-9.4.853-1.72 1.413-3.533 1.84-5.306.24-.894.28-1.694.453-2.534.093-.36.08-.946.12-1.413l.08-1.467c.013-7.706.04-14.426.053-19.96.027-11.16.04-17.546.04-17.546zm6.4 0l.04 17.546c.014 5.627.014 12.454.027 20.294-.08 1-.053 1.893-.2 3.026-.173 1.147-.293 2.374-.573 3.494-.52 2.226-1.227 4.506-2.294 6.693-2.066 4.373-5.186 8.6-9.426 11.84-.534.4-1.067.8-1.614 1.213-.546.374-1.133.707-1.72 1.067-1.133.76-2.4 1.293-3.64 1.907-2.56 1.066-5.28 1.96-8.133 2.333-1.413.28-2.867.307-4.32.387-1.427.053-2.667.013-4.027.026-2.666 0-5.36.014-8.106.014-10.96-.014-22.52-.027-34.48-.054l-9.04-.04-2.294-.026-1.306-.014-1.147-.066-1.133-.067-.574-.04-.666-.093-2.654-.427c-6.68-1.453-12.986-4.973-17.533-10.227-2.29-2.6-4.217-5.546-5.563-8.76a33.384 33.384 0 0 1-2.437-10.12L43.693 135l.019-2.387.045-4.786.091-9.56.05-19.107.003-1.2.006-.427.016-.293.032-.6.124-2.373.125-2.374c.063-.8.23-1.653.344-2.48l.384-2.506c.12-.84.239-1.667.47-2.454.407-1.6.814-3.186 1.22-4.773 3.965-12.507 11.751-23.587 21.871-30.987 1.24-.946 2.467-1.893 3.827-2.666 1.333-.787 2.613-1.654 3.973-2.374 1.387-.666 2.76-1.333 4.134-2 1.373-.666 2.84-1.093 4.24-1.653l2.12-.773 2.16-.574c1.453-.346 2.866-.813 4.32-1.053 1.453-.227 2.906-.453 4.346-.68l1.08-.173 1.08-.054 2.16-.12 2.147-.12.533-.026.267-.014h.267l.133.014 1.013.04 4.027.2c.64 0 1.36.106 2.053.213.707.107 1.4.2 2.107.307 1.387.226 2.8.36 4.093.746 1.307.334 2.614.654 3.894.987 1.293.307 2.506.853 3.746 1.267 2.494.8 4.774 1.986 7.054 3.066 1.16.494 2.173 1.214 3.24 1.827 1.04.653 2.12 1.24 3.106 1.92.96.72 1.92 1.427 2.867 2.12.467.36.933.707 1.4 1.053.453.36.867.76 1.293 1.134 1.707 1.546 3.414 2.986 4.827 4.653.72.8 1.453 1.587 2.16 2.36.693.8 1.28 1.667 1.907 2.467 4.946 6.52 7.88 13.146 9.72 18.706 1.64 5.654 2.346 10.254 2.573 13.387.173 3.147.253 4.827.253 4.827z" fill="#231F20"/>
        <path d="M104.973 21.933c0 10.067-8.16 18.227-18.226 18.227-10.067 0-18.214-8.16-18.214-18.227 0-10.066 8.147-18.226 18.214-18.226 10.066 0 18.226 8.16 18.226 18.226" fill="#FFF"/>
        <path d="M101.973 21.933s-.026-.373-.08-1.066c0-.36-.08-.787-.173-1.28-.067-.507-.213-1.067-.4-1.694-.373-1.226-.947-2.72-1.987-4.2-1.026-1.466-2.44-2.973-4.293-4.173-.933-.573-1.947-1.12-3.053-1.507-1.094-.466-2.36-.68-3.4-.853-.267-.053-.734-.04-1.094-.067l-.586-.04-.294-.013h.134l-.04.013h-.174c-.653.04-1.306.014-1.96.134-1.32.133-2.613.533-3.893 1.04-1.293.506-2.507 1.24-3.653 2.106-1.134.88-2.147 1.96-3.027 3.134a15.644 15.644 0 0 0-2.04 3.986c-.2.734-.427 1.467-.52 2.134-.16.586-.173 1.626-.253 2.48.013-.254.013-.054.013-.094v.107l.013.147.014.28.026.573c-.013.387.054.76.12 1.133.067.774.28 1.507.467 2.24a16.456 16.456 0 0 0 1.907 4.107c.853 1.24 1.826 2.4 2.973 3.347 1.16.906 2.387 1.72 3.72 2.28.653.28 1.32.533 2 .706l1.013.267c.334.08.64.093.96.147.534.133 1.44.133 2.2.173l.147.013h.12c.04 0-.24-.013-.107 0l.254-.026.493-.027c.333-.027.667-.013.987-.08a16.103 16.103 0 0 0 6.826-2.573 15.531 15.531 0 0 0 4.267-4.44c1-1.547 1.533-3.08 1.867-4.334.08-.32.146-.626.226-.906.054-.28.067-.507.107-.747.027-.227.067-.427.093-.627.027-.186.027-.466.04-.666l.04-1.28v.146zm6 .16s-.04.44-.093 1.28c-.013.214-.013.414-.053.72-.054.32-.107.667-.16 1.04-.067.374-.12.787-.214 1.187-.093.4-.213.813-.333 1.253-.507 1.734-1.307 3.827-2.747 5.907a21.66 21.66 0 0 1-5.96 5.907 21.347 21.347 0 0 1-9.293 3.32c-.44.053-.893.053-1.333.08l-.667.026-.333.014-.44-.027c-.814-.053-1.507-.04-2.56-.227-1.987-.253-3.694-.826-5.48-1.586-1.76-.774-3.4-1.854-4.934-3.094a23.836 23.836 0 0 1-3.973-4.44c-1.12-1.68-1.987-3.533-2.613-5.466-.267-.987-.547-1.974-.667-3-.08-.507-.16-1-.173-1.52l-.04-.76-.027-.387-.013-.187v-.146c0-.08-.014.093 0-.187.04-.933-.014-1.68.173-2.853.12-1.12.373-2.094.613-3.094.6-1.973 1.414-3.866 2.494-5.6 1.106-1.72 2.413-3.293 3.933-4.626 1.533-1.307 3.187-2.454 4.987-3.294 1.8-.786 3.666-1.413 5.56-1.666.933-.187 1.88-.2 2.813-.267l.173-.013h.334L87.24.4l.587.027c.413.04.72.013 1.213.08.947.146 1.973.253 2.787.506l1.28.32c.413.147.813.294 1.213.44 1.627.574 3.053 1.427 4.387 2.28 2.613 1.787 4.56 4 5.933 6.16 1.4 2.147 2.16 4.28 2.627 6.04.24.894.4 1.694.48 2.4.106.707.173 1.294.173 1.787.04.973.053 1.493.053 1.493v.16z" fill="#231F20"/>
        <path d="M142.747 21.933c0 10.067-8.16 18.227-18.214 18.227-10.066 0-18.226-8.16-18.226-18.227 0-10.066 8.16-18.226 18.226-18.226 10.054 0 18.214 8.16 18.214 18.226" fill="#FFF"/>
        <path d="M139.413 21.933s-.013-.36-.053-1.053c0-.347-.053-.76-.147-1.253-.04-.494-.173-1.04-.346-1.667-.36-1.213-.88-2.693-1.854-4.2a15.73 15.73 0 0 0-4.133-4.333c-.92-.6-1.92-1.2-3.04-1.627-1.093-.48-2.373-.733-3.453-.933-.28-.067-.734-.067-1.107-.094l-.587-.04-.293-.026h.12l-.027.013h-.186c-.667.04-1.334.013-2 .147-1.347.133-2.68.546-3.987 1.066-1.307.534-2.52 1.32-3.68 2.214-1.133.92-2.12 2.026-2.987 3.253a16.91 16.91 0 0 0-1.96 4.04c-.2.733-.413 1.48-.493 2.147-.16.586-.16 1.626-.227 2.48v-.094.04l.014.067v.147l.013.28.027.573c0 .387.066.76.12 1.133.08.774.293 1.507.466 2.24.467 1.454 1.08 2.84 1.907 4.107.853 1.24 1.84 2.4 2.973 3.347 1.16.906 2.4 1.72 3.72 2.28a14.3 14.3 0 0 0 2 .706l1.027.267c.333.08.627.093.947.147.533.133 1.44.133 2.213.173l.147.013h.106c.04 0-.226-.013-.106 0l.253-.026.507-.04c.333-.027.653-.027.986-.08 2.587-.374 4.907-1.36 6.734-2.68a15.83 15.83 0 0 0 4.12-4.467c.946-1.547 1.453-3.04 1.786-4.28.08-.307.147-.6.214-.88.053-.267.066-.493.106-.72.027-.213.054-.413.094-.6.026-.187.013-.48.026-.667.027-.84.054-1.293.054-1.293l-.014.173zm6.667.174l-.08 1.28c-.027.226-.013.413-.067.733-.04.32-.106.68-.16 1.053-.066.387-.12.814-.213 1.227-.107.387-.227.813-.347 1.253-.506 1.774-1.333 3.894-2.826 5.987a21.377 21.377 0 0 1-6.12 5.867c-2.64 1.64-5.854 2.866-9.374 3.213-.44.067-.88.053-1.32.067l-.68.026-.333.014-.44-.027c-.8-.053-1.507-.04-2.547-.227-1.986-.253-3.693-.826-5.493-1.586-1.76-.774-3.4-1.854-4.92-3.094a23.904 23.904 0 0 1-3.987-4.44c-1.12-1.68-1.973-3.533-2.613-5.466-.253-.987-.533-1.974-.667-3-.08-.507-.16-1-.173-1.52l-.04-.76-.027-.387v-.187l-.013-.106V21.8c.067-.933.013-1.68.213-2.853.12-1.12.387-2.094.64-3.08.6-1.96 1.44-3.84 2.547-5.547a23.012 23.012 0 0 1 3.973-4.52c1.534-1.267 3.187-2.373 4.96-3.16 1.774-.787 3.614-1.4 5.48-1.64.92-.2 1.854-.213 2.76-.267l.174-.013h.32l.293.013.587.014c.413.026.733 0 1.213.066.933.12 1.933.214 2.747.44.426.107.853.214 1.266.307.414.147.814.28 1.214.427 1.6.546 3.053 1.333 4.4 2.16 2.64 1.706 4.653 3.88 6.093 6 1.467 2.133 2.267 4.266 2.76 6.04.253.893.44 1.706.52 2.426.12.707.2 1.307.213 1.8.04 1 .067 1.52.067 1.52v.174zm18.24 63.733s-.373.293-1.067.867c-.346.28-.773.64-1.28 1.053-.56.4-1.2.853-1.92 1.373-.72.534-1.533 1.054-2.413 1.614a39.9 39.9 0 0 1-2.907 1.733 59.11 59.11 0 0 1-1.626.92c-.574.293-1.16.6-1.76.893-1.2.64-2.507 1.2-3.867 1.8-1.347.614-2.8 1.12-4.28 1.72-1.507.52-3.053 1.08-4.68 1.574a92.315 92.315 0 0 1-10.307 2.6c-3.613.693-7.386 1.28-11.24 1.613-3.853.387-7.733.533-11.733.547-3.773-.067-7.84-.24-11.653-.667-1.92-.173-3.814-.493-5.694-.733-1.866-.347-3.72-.587-5.52-1.014-3.626-.693-7.053-1.706-10.293-2.72-3.2-1.08-6.213-2.2-8.907-3.44-1.36-.6-2.653-1.186-3.84-1.84a51.304 51.304 0 0 1-3.36-1.88c-1.053-.586-2-1.2-2.866-1.8-.88-.56-1.68-1.106-2.374-1.64-.698-.52-1.328-.973-1.857-1.4-.517-.44-.957-.813-1.313-1.12-.712-.6-1.092-.933-1.092-.933a1.994 1.994 0 0 1-.224-2.813 1.995 1.995 0 0 1 2.73-.294l.107.08s.367.28 1.055.814c.341.266.768.586 1.261.96.52.36 1.12.773 1.787 1.226.653.467 1.413.947 2.253 1.44.84.52 1.747 1.067 2.747 1.574a48.266 48.266 0 0 0 3.226 1.64 59.47 59.47 0 0 0 3.654 1.64c2.56 1.106 5.44 2.106 8.506 3.053 3.08.88 6.374 1.747 9.827 2.413 1.707.387 3.493.6 5.267.92 1.8.214 3.613.507 5.453.654 3.707.373 7.32.52 11.227.546 3.68 0 7.493-.093 11.16-.44 3.68-.293 7.28-.826 10.733-1.453 3.453-.653 6.773-1.413 9.867-2.293 1.546-.44 3.026-.934 4.466-1.4 1.4-.534 2.8-.974 4.08-1.534 1.294-.52 2.547-1.026 3.68-1.586.587-.267 1.147-.52 1.694-.774.533-.266 1.053-.546 1.56-.8a40.428 40.428 0 0 0 2.786-1.52c.84-.493 1.627-.946 2.267-1.386.667-.44 1.267-.827 1.787-1.16.52-.387.973-.72 1.333-.987.733-.52 1.12-.813 1.12-.813a2.004 2.004 0 0 1 2.8.44 2.004 2.004 0 0 1-.36 2.733m0 24.667s-.373.293-1.067.866c-.346.28-.773.64-1.28 1.054-.56.4-1.2.853-1.92 1.373-.72.533-1.533 1.053-2.413 1.613a39.9 39.9 0 0 1-2.907 1.734c-.52.306-1.066.613-1.626.92-.574.293-1.16.586-1.76.893-1.2.64-2.507 1.2-3.867 1.787-1.347.626-2.8 1.133-4.28 1.733-1.507.52-3.053 1.08-4.68 1.573a92.315 92.315 0 0 1-10.307 2.6c-3.613.694-7.386 1.28-11.24 1.614-3.853.386-7.733.533-11.733.546-3.773-.066-7.84-.24-11.653-.666-1.92-.174-3.814-.494-5.694-.734-1.866-.346-3.72-.586-5.52-1.013-3.626-.693-7.053-1.72-10.293-2.72-3.2-1.08-6.213-2.2-8.907-3.44-1.36-.6-2.653-1.2-3.84-1.84a51.304 51.304 0 0 1-3.36-1.88c-1.053-.587-2-1.213-2.866-1.8-.88-.56-1.68-1.107-2.374-1.64-.698-.52-1.328-.973-1.857-1.4-.517-.44-.957-.813-1.313-1.12-.712-.6-1.092-.933-1.092-.933a1.994 1.994 0 0 1-.224-2.814 1.995 1.995 0 0 1 2.73-.293l.107.08s.367.28 1.055.813c.341.254.768.587 1.261.96.52.36 1.12.774 1.787 1.227.653.467 1.413.947 2.253 1.44.84.52 1.747 1.067 2.747 1.573a48.267 48.267 0 0 0 3.226 1.64 59.47 59.47 0 0 0 3.654 1.64c2.56 1.107 5.44 2.107 8.506 3.054 3.08.88 6.374 1.746 9.827 2.4 1.707.4 3.493.613 5.267.933 1.8.213 3.613.507 5.453.653 3.707.374 7.32.52 11.227.547 3.68 0 7.493-.093 11.16-.44 3.68-.293 7.28-.827 10.733-1.453 3.453-.654 6.773-1.414 9.867-2.294 1.546-.44 3.026-.933 4.466-1.4 1.4-.533 2.8-.973 4.08-1.533 1.294-.52 2.547-1.027 3.68-1.587.587-.266 1.147-.52 1.694-.773a88.61 88.61 0 0 1 1.56-.8 40.428 40.428 0 0 0 2.786-1.52c.84-.493 1.627-.947 2.267-1.387.667-.44 1.267-.826 1.787-1.16.52-.386.973-.72 1.333-.986.733-.534 1.12-.814 1.12-.814a2.004 2.004 0 0 1 2.8.44 2.004 2.004 0 0 1-.36 2.734" fill="#231F20"/>
    </g>
</svg>
