<svg width="168" height="168" xmlns="http://www.w3.org/2000/svg">
    <title>
        nena
    </title>
    <g fill="none" fill-rule="evenodd">
        <path d="M19.627 124.16v-44c0-44.187 32.32-76 72.173-76h32.16c22.093 0 40 17.907 40 40v80c0 22.093-16.147 40-36.08 40H3.96s15.667-9.667 15.667-40" fill="#FFF" fill-rule="nonzero"/>
        <path d="M19.627 124.16v-44c0-44.187 32.32-76 72.173-76h32.16c22.093 0 40 17.907 40 40v80c0 22.093-16.147 40-36.08 40H3.96s15.667-9.667 15.667-40z" stroke="#231F20" stroke-width="6.667" stroke-linecap="round" stroke-linejoin="round"/>
        <path d="M93.627 122.653c0 13.72-9.92 24.84-22.16 24.84s-22.174-11.12-22.174-24.84c0-13.706 9.934-24.826 22.174-24.826s22.16 11.12 22.16 24.826" fill="#FFF" fill-rule="nonzero"/>
        <path d="M90.827 122.653s-.014-.52-.067-1.493c0-.24-.013-.507-.027-.813-.04-.294-.08-.614-.133-.96-.04-.36-.093-.734-.147-1.134-.066-.4-.173-.813-.266-1.253a22.651 22.651 0 0 0-2.307-6.08c-1.2-2.187-2.933-4.48-5.307-6.387-.573-.506-1.253-.893-1.893-1.36-.693-.36-1.373-.8-2.12-1.106-.747-.32-1.507-.654-2.32-.854-.813-.28-1.573-.373-2.347-.533-.333-.093-.946-.08-1.413-.12l-.747-.053-.386-.014c-.147-.013.146 0 .106 0h-.04l-.08.014h-.173c-.88.066-1.773.08-2.653.28-.894.106-1.76.426-2.654.666-.84.36-1.733.64-2.546 1.134-1.68.853-3.227 2.066-4.614 3.453-1.426 1.36-2.6 3.013-3.586 4.773-1.027 1.747-1.72 3.707-2.254 5.694l-.333 1.506c-.093.494-.133.974-.213 1.454l-.107.733-.04.853-.067 1.734c.014-.24 0-.04 0-.08l.014.053v.093l.013.2.013.387.027.773c0 .52.067 1.04.147 1.547.066.52.12 1.04.213 1.547l.333 1.506c.534 1.987 1.227 3.947 2.254 5.694.986 1.76 2.16 3.413 3.586 4.773 1.387 1.387 2.934 2.587 4.614 3.44.813.507 1.706.773 2.546 1.147.88.24 1.787.56 2.587.653l.6.107.307.066.386.027c.52.027 1.027.053 1.534.093h.186l.107.014h.04c.053 0-.253-.014-.107 0l.334-.027.653-.04c.427-.04.867-.013 1.293-.12 3.387-.507 6.454-1.907 8.8-3.853 2.374-1.92 4.107-4.2 5.307-6.4a22.582 22.582 0 0 0 2.307-6.067c.093-.44.2-.867.266-1.253.054-.374.094-.734.147-1.067.04-.32.08-.627.12-.907.013-.333.027-.64.04-.906a75.1 75.1 0 0 0 .067-1.654v.12zm5.6.134l-.08 1.653c-.014.267-.027.573-.04.907-.054.386-.107.8-.174 1.24-.053.453-.12.933-.2 1.44-.093.506-.226 1-.346 1.546-.48 2.174-1.36 4.76-2.894 7.48-1.52 2.72-3.706 5.574-6.746 7.987-3 2.453-7 4.293-11.467 4.907-.547.12-1.12.093-1.693.146l-.854.04-.426.027-.534-.027c-.52-.026-1.026-.053-1.533-.08l-.387-.013-.466-.08-.92-.147c-1.28-.16-2.387-.533-3.547-.853-1.12-.453-2.28-.84-3.333-1.453-2.187-1.107-4.174-2.614-5.934-4.36-1.8-1.72-3.293-3.774-4.546-5.947-1.28-2.173-2.16-4.573-2.827-7.013l-.427-1.854c-.12-.626-.186-1.253-.28-1.88a12.827 12.827 0 0 1-.186-1.893l-.094-2.027.094-1.733.04-.867.133-.986c.093-.654.173-1.334.293-1.96l.427-1.854c.667-2.453 1.547-4.84 2.827-7.013 1.253-2.187 2.746-4.227 4.546-5.947 1.76-1.746 3.747-3.266 5.934-4.36 1.053-.626 2.213-1 3.333-1.453 1.16-.32 2.293-.707 3.467-.853 1.16-.24 2.333-.28 3.48-.334l.226-.013h.36l.374.027.76.04c.52.04.933.013 1.573.133 1.173.173 2.36.36 3.373.693 1.067.254 2.054.68 3.027 1.08.973.414 1.867.947 2.76 1.427.827.587 1.693 1.08 2.427 1.707 3.04 2.426 5.226 5.28 6.746 7.986a27.428 27.428 0 0 1 2.894 7.48c.12.547.253 1.054.346 1.547.067.493.134.947.2 1.373.054.427.107.827.16 1.187.014.373.04.693.054 1l.08 1.813v.134z" fill="#231F20" fill-rule="nonzero"/>
        <path d="M138.627 129.013c0 9.494-6.867 17.187-15.334 17.187-8.466 0-15.333-7.693-15.333-17.187 0-9.48 6.867-17.173 15.333-17.173 8.467 0 15.334 7.693 15.334 17.173" fill="#FFF" fill-rule="nonzero"/>
        <path d="M135.96 129.013s-.013-.346-.04-.986c.013-.32-.027-.72-.093-1.187a10.11 10.11 0 0 0-.28-1.573 14.364 14.364 0 0 0-1.494-4.027 14.31 14.31 0 0 0-3.48-4.24c-.373-.347-.826-.587-1.24-.907-.453-.24-.906-.52-1.386-.733-.947-.44-2.094-.76-3.027-.92-.2-.067-.64-.053-.96-.08l-.52-.04-.253-.013c-.147-.014.146 0 .106 0h-.08l-.106.013c-.587.04-1.174.053-1.747.187-1.16.2-2.32.613-3.4 1.2-2.187 1.16-4.093 3.106-5.373 5.453-.68 1.16-1.12 2.453-1.467 3.773l-.227 1c-.053.334-.08.64-.133.947l-.067.467-.026.6-.04 1.186c.013-.226 0-.04 0-.08v.027l.013.067v.133l.013.253.014.52c0 .347.04.68.093 1.027.053.68.2 1.36.36 2.013.347 1.32.787 2.627 1.467 3.787 1.28 2.347 3.186 4.28 5.373 5.44.52.333 1.12.52 1.667.76.573.16 1.173.373 1.666.427.427.133 1.2.173 1.907.213h.133l.067.013h.027c.04 0-.24-.013-.107 0l.213-.026.427-.027c.28-.027.573-.013.853-.08 2.214-.347 4.214-1.267 5.76-2.56a14.31 14.31 0 0 0 3.48-4.24 14.364 14.364 0 0 0 1.494-4.027c.16-.6.226-1.093.266-1.52.027-.213.067-.413.08-.586.014-.227.027-.44.027-.627l.04-1.147v.12zm5.333.12s-.026.4-.053 1.147c-.013.187-.027.4-.04.627-.04.28-.08.586-.12.906-.08.667-.2 1.4-.4 2.147a19.63 19.63 0 0 1-2.093 5.347c-1.094 1.946-2.667 3.986-4.854 5.706-2.173 1.76-5.053 3.067-8.266 3.507-.4.08-.814.067-1.214.093l-.613.04-.32.014-.4-.027c-.707-.027-1.36-.027-2.347-.213-.933-.12-1.72-.374-2.56-.614-.8-.32-1.64-.586-2.4-1.026-3.133-1.614-5.773-4.24-7.546-7.374-.934-1.546-1.56-3.266-2.054-5.013-.226-.88-.413-1.76-.506-2.667a9.422 9.422 0 0 1-.147-1.36l-.027-.68-.026-.333v-.253l-.014-.054v-.16l.067-1.186.04-.614.093-.72c.067-.466.12-.96.214-1.413l.306-1.333c.494-1.734 1.12-3.454 2.054-5 1.773-3.134 4.413-5.774 7.546-7.374 1.547-.813 3.214-1.386 4.894-1.64.84-.173 1.68-.186 2.506-.226l.16-.014h.294l.253.014.52.026c.373.027.64 0 1.107.094 1.786.226 3.226.653 4.64 1.266.706.294 1.346.68 1.986 1.014.6.413 1.227.773 1.76 1.226a19.559 19.559 0 0 1 4.854 5.707 19.964 19.964 0 0 1 2.093 5.347c.2.773.32 1.48.387 2.093.106.6.16 1.133.16 1.56.053.84.066 1.293.066 1.293v.12z" fill="#231F20" fill-rule="nonzero"/>
    </g>
</svg>
