<svg width="167" height="168" xmlns="http://www.w3.org/2000/svg">
    <title>
        ni
    </title>
    <g fill="none" fill-rule="evenodd">
        <path d="M43.653 164.16c-22.093 0-40-17.907-40-40 0-11.053 4.48-21.053 11.72-28.293l77.974-77.8c7.333-8.52 18.186-13.907 30.306-13.907 22.094 0 40 17.907 40 40v80c0 22.093-17.906 40-40 40h-80" fill="#FFF" fill-rule="nonzero"/>
        <path d="M43.653 164.16c-22.093 0-40-17.907-40-40 0-11.053 4.48-21.053 11.72-28.293l77.974-77.8c7.333-8.52 18.186-13.907 30.306-13.907 22.094 0 40 17.907 40 40v80c0 22.093-17.906 40-40 40h-80z" stroke="#231F20" stroke-width="6.667"/>
        <path d="M76.653 77.493c-22-20.333-22.733-36.266-13.666-45.333 9.066-9.08 29-11 48.333 14" fill="#FFF" fill-rule="nonzero"/>
        <path d="M75.267 78.92s-1.32-1.107-3.587-3.093c-1.12-1.014-2.467-2.4-4.027-3.92-1.453-1.6-3.16-3.347-4.76-5.534-.413-.533-.826-1.08-1.253-1.626l-1.2-1.8c-.4-.627-.827-1.24-1.213-1.894-.374-.68-.734-1.36-1.12-2.066a75.785 75.785 0 0 1-.56-1.054 37.804 37.804 0 0 1-.494-1.12c-.333-.76-.653-1.533-.986-2.306-.507-1.64-1.08-3.294-1.347-5.107-.64-3.573-.587-7.6.773-11.413.174-.467.32-.947.52-1.414l.68-1.346c.414-.934 1-1.747 1.574-2.587.533-.867 1.253-1.56 1.906-2.32l.24-.28.134-.147.053-.066c.08-.08-.12.12.187-.174l.026-.026.494-.427.96-.853c3.253-2.654 6.92-4.267 10.72-5.04 3.786-.774 7.6-.614 11.12.026 1.733.427 3.453.787 5.013 1.467.787.32 1.6.56 2.333.933.734.36 1.454.734 2.16 1.094 2.827 1.466 5.254 3.213 7.347 4.933 1.107.813 2.027 1.707 2.92 2.573.853.867 1.76 1.614 2.453 2.454 1.427 1.653 2.747 3 3.667 4.253a301.873 301.873 0 0 1 2.907 3.893 2 2 0 0 1-.454 2.787 1.98 1.98 0 0 1-2.613-.24l-.107-.107S108.573 46.16 106.6 44c-.96-1.107-2.307-2.253-3.747-3.68-.706-.72-1.586-1.333-2.44-2.053-.88-.707-1.76-1.494-2.786-2.147a42.529 42.529 0 0 0-6.68-3.987c-.614-.28-1.24-.56-1.88-.853-.64-.28-1.32-.44-1.974-.68-1.333-.507-2.733-.733-4.133-1.067-2.827-.426-5.773-.44-8.613.187-2.827.587-5.6 1.907-7.667 3.613l-.96.854-.493.44-.027.026c.293-.28.067-.066.133-.12l-.053.054-.08.093-.187.2c-.453.547-1 1.04-1.36 1.64-.4.573-.826 1.147-1.106 1.773l-.494.92c-.133.32-.226.654-.346.974-.934 2.586-1.094 5.413-.694 8.186.147 1.387.6 2.747.947 4.094.253.653.493 1.306.733 1.96l.374.96.453.933c.293.627.587 1.227.88 1.827.307.6.667 1.16 1 1.733.32.573.64 1.133.96 1.68.36.533.707 1.053 1.053 1.56.68 1.027 1.347 2.013 2.054 2.893.693.907 1.32 1.774 1.96 2.574 1.32 1.533 2.386 2.893 3.413 3.986 2.067 2.2 3.213 3.48 3.213 3.48a2.003 2.003 0 0 1-.16 2.827c-.76.68-1.88.68-2.626.04" fill="#231F20" fill-rule="nonzero"/>
        <path d="M41.32 123.493c-33.333-18.666-35.747-39.906-25.333-51 10.333-11 24.333-20 56 9.667" fill="#FFF" fill-rule="nonzero"/>
        <path d="M40.32 125.213s-.453-.226-1.307-.666c-.853-.44-2.12-1.067-3.72-2a92.92 92.92 0 0 1-5.64-3.494c-1.08-.68-2.186-1.506-3.36-2.333-1.146-.893-2.36-1.813-3.573-2.867-2.44-2.066-4.96-4.493-7.32-7.4-2.373-2.88-4.587-6.293-6.16-10.253-1.533-3.947-2.427-8.52-1.773-13.187.6-4.653 2.746-9.213 5.986-12.666 2.92-3.12 6.214-6.16 10.227-8.374 3.987-2.24 8.707-3.28 13.053-3.026 2.187.08 4.267.453 6.227 1 1.96.52 3.787 1.24 5.52 1.973 3.44 1.533 6.413 3.36 9.053 5.133 2.627 1.8 4.894 3.6 6.84 5.254a131.26 131.26 0 0 1 4.92 4.386c1.347 1.214 2.32 2.267 3.014 2.947.68.693 1.053 1.053 1.053 1.053a2 2 0 0 1-.013 2.827 2.004 2.004 0 0 1-2.68.133l-.04-.04s-.4-.32-1.12-.933l-3.187-2.6a119.99 119.99 0 0 0-5.013-3.867 111.668 111.668 0 0 0-6.76-4.533c-2.534-1.533-5.347-3.027-8.387-4.267-3.027-1.2-6.347-2.08-9.653-2.146-3.32-.107-6.614.72-9.654 2.453-3.053 1.693-5.88 4.28-8.52 7.147-2.346 2.533-3.88 5.693-4.346 9.04-.467 3.346.053 6.813 1.213 10.026 1.213 3.214 2.947 6.187 4.933 8.814 1.987 2.626 4.16 4.946 6.294 6.973a84.691 84.691 0 0 0 6.16 5.267 90.335 90.335 0 0 0 5.08 3.706c1.426.96 2.6 1.747 3.426 2.267.8.52 1.227.8 1.227.8.933.6 1.2 1.84.6 2.773a2.01 2.01 0 0 1-2.6.68" fill="#231F20" fill-rule="nonzero"/>
        <path d="M137.32 77.987c0 8.386-6.787 15.173-15.16 15.173-8.387 0-15.173-6.787-15.173-15.173 0-8.374 6.786-15.16 15.173-15.16 8.373 0 15.16 6.786 15.16 15.16zm-17 43.173c0 11.6-9.4 21-21 21s-21-9.4-21-21 9.4-21 21-21 21 9.4 21 21z" stroke="#231F20" stroke-width="5.333" stroke-linecap="round" stroke-linejoin="round"/>
        <path d="M36.933 136.533C49.4 110.84 101 50.547 119.173 41.067" fill="#FFF" fill-rule="nonzero"/>
        <path d="M34.573 135.28l2.454-4.867c.853-1.546 1.986-3.426 3.24-5.573 1.266-2.147 2.786-4.427 4.426-6.96 1.68-2.493 3.547-5.16 5.52-7.973 2.054-2.747 4.12-5.734 6.427-8.68 2.293-2.947 4.64-6.027 7.133-9.054 2.454-3.08 5-6.146 7.574-9.186 2.52-3.094 5.24-6.014 7.813-8.987 2.64-2.907 5.24-5.76 7.8-8.493 2.6-2.707 5.067-5.347 7.56-7.734 1.24-1.2 2.427-2.373 3.587-3.493 1.2-1.107 2.36-2.173 3.466-3.2 2.174-2.067 4.347-3.827 6.24-5.413.48-.387.934-.774 1.387-1.134.467-.346.92-.693 1.36-1.013.867-.64 1.68-1.227 2.4-1.76.693-.56 1.427-.987 2.053-1.347.627-.373 1.16-.68 1.6-.933l1.32-.773c1.267-.747 2.894-.307 3.64.96a2.658 2.658 0 0 1-.813 3.533l-.36.227s-.373.266-1.093.733c-.347.24-.787.533-1.307.88-.52.333-1.12.707-1.76 1.253-.653.52-1.373 1.107-2.16 1.734-.387.306-.8.64-1.227.973-.413.373-.84.747-1.266 1.147-1.747 1.6-3.76 3.333-5.854 5.4-1.053 1.013-2.146 2.08-3.28 3.173a761.094 761.094 0 0 1-3.426 3.52c-2.374 2.4-4.76 5.04-7.307 7.707a569.812 569.812 0 0 0-7.627 8.44c-2.533 2.933-5.146 5.88-7.68 8.893-2.573 3-5.106 6-7.546 9.027-2.48 2.973-4.814 5.986-7.107 8.88-2.28 2.906-4.413 5.746-6.48 8.426-2 2.72-3.893 5.294-5.587 7.694-1.626 2.426-3.24 4.626-4.493 6.6-1.24 1.973-2.36 3.653-3.24 5.12-1.693 3.026-2.68 4.746-2.68 4.746v.014a2.66 2.66 0 0 1-3.64 1.013 2.663 2.663 0 0 1-1.067-3.52" fill="#231F20" fill-rule="nonzero"/>
    </g>
</svg>
