<svg width="168" height="168" xmlns="http://www.w3.org/2000/svg">
    <title>
        nimi
    </title>
    <g fill="none" fill-rule="evenodd">
        <path d="M151.08 113.107c7.747 4.906 13 13.546 13 23.386 0 15.28-12.387 27.667-27.667 27.667H31.747c-15.28 0-27.667-12.387-27.667-27.667 0-10.2 4.787-19.106 13-23.906V71.16c0-37 30-67 67-67s67 30 67 67v41.947" fill="#FFF" fill-rule="nonzero"/>
        <path d="M151.08 113.107c7.747 4.906 13 13.546 13 23.386 0 15.28-12.387 27.667-27.667 27.667H31.747c-15.28 0-27.667-12.387-27.667-27.667 0-10.2 4.787-19.106 13-23.906V71.16c0-37 30-67 67-67s67 30 67 67v41.947z" stroke="#231F20" stroke-width="6.667" stroke-linecap="round" stroke-linejoin="round"/>
        <path d="M84 34.827v98.666m38.547-64.986c-11.934 1.88-24.894 2.92-38.467 2.92-13.707 0-26.813-1.054-38.84-2.974m77.307 33.52c-11.934 1.88-24.894 2.907-38.467 2.907-13.707 0-26.813-1.053-38.84-2.973" stroke="#231F20" stroke-width="4.667" stroke-linecap="round" stroke-linejoin="round"/>
        <path d="M123.373 74.12v59.373H44.787V74.12c0-21.707 17.586-39.293 39.293-39.293s39.293 17.586 39.293 39.293z" stroke="#231F20" stroke-width="5.333" stroke-linecap="round" stroke-linejoin="round"/>
    </g>
</svg>
