<svg width="167" height="168" xmlns="http://www.w3.org/2000/svg">
    <title>
        noka
    </title>
    <g fill="none" fill-rule="evenodd">
        <path d="M46.666 32.766c1.555 11.181-4.625 21.29-13.835 22.576-9.197 1.274-17.897-6.756-19.466-17.937C11.81 26.21 18.004 16.115 27.2 14.829c9.197-1.274 17.911 6.757 19.466 17.937" fill-rule="nonzero" fill="#FFF"/>
        <path d="M44.029 33.127s-.067-.403-.228-1.154a9.51 9.51 0 0 0-.336-1.368c-.16-.537-.322-1.14-.603-1.798-.47-1.341-1.288-2.87-2.428-4.427-1.127-1.556-2.67-3.139-4.575-4.319-.939-.617-1.999-1.087-3.085-1.476-.577-.12-1.127-.348-1.717-.389-.295-.026-.59-.107-.859-.12-.255.013-.51-.014-.764-.027-.188-.054-.658 0-1.033.027l-.604.053-.295.014c-.201.027.215-.014.16-.014l-.026.014h-.054l-.12.027c-.604.12-1.208.228-1.798.47a11.014 11.014 0 0 0-3.42 1.877 12.552 12.552 0 0 0-2.858 3.072 15.35 15.35 0 0 0-2.039 4.024c-.536 1.436-.872 2.978-1.033 4.561l-.107 1.194v1.114l-.013.563.053.684.12 1.368c-.026-.228 0-.04-.013-.08l.014.027.013.08.027.148.04.308.108.59c.053.416.134.792.241 1.181l.295 1.18.39 1.127c.536 1.503 1.233 2.965 2.119 4.253.832 1.328 1.878 2.495 3.005 3.474a13.833 13.833 0 0 0 3.689 2.375c.63.308 1.314.482 1.985.684.63.12 1.382.308 1.932.295.322.013.523.08.939.053.416-.04.818-.067 1.22-.093l.161-.014h.108c.054-.013-.281.027-.133 0l.241-.04.47-.094c.322-.067.643-.107.939-.228 1.234-.335 2.347-.94 3.38-1.596.993-.738 1.918-1.503 2.643-2.428 1.542-1.771 2.495-3.81 3.098-5.661.604-1.878.886-3.609.926-5.03.08-.725.04-1.315.04-1.839-.013-.254-.013-.51-.013-.737a37.632 37.632 0 0 0-.08-.711 65.92 65.92 0 0 0-.135-1.302l.014.108zm5.312-.63s.04.455.12 1.314c.014.215.04.456.068.71 0 .31.013.645.013 1.007.013.724.027 1.556-.054 2.428-.094 1.784-.47 3.93-1.247 6.305a22.702 22.702 0 0 1-4.092 7.391c-.979 1.234-2.24 2.348-3.622 3.38-1.448.953-3.058 1.838-4.869 2.362-.43.16-.885.241-1.355.335l-.71.148-.35.067-.456.053c-.402.027-.818.067-1.22.094-.403.04-1.02 0-1.516-.013a16.883 16.883 0 0 1-5.89-1.315 19.364 19.364 0 0 1-5.15-3.139 22.91 22.91 0 0 1-4.105-4.494c-1.194-1.663-2.133-3.5-2.884-5.406l-.55-1.435-.416-1.476c-.161-.496-.255-.992-.349-1.502l-.148-.738-.067-.389-.04-.188-.013-.094-.014-.053-.027-.161-.147-1.369-.08-.684-.04-.818-.041-1.623.08-1.543a25.616 25.616 0 0 1 1.167-6.077 22.21 22.21 0 0 1 2.63-5.593 20.01 20.01 0 0 1 4.131-4.629 16.875 16.875 0 0 1 5.393-3.018c.952-.362 1.945-.563 2.924-.738l.188-.04.094-.013.04-.014.242-.026.308-.027.604-.04c.416-.027.724-.081 1.315-.054a30.91 30.91 0 0 1 1.596.067c.51.054.952.16 1.422.241.939.121 1.797.456 2.67.698 1.663.657 3.232 1.408 4.533 2.388a22.76 22.76 0 0 1 5.89 6.305c1.328 2.16 2.213 4.171 2.763 5.862.322.831.483 1.623.657 2.294.175.657.282 1.234.349 1.717.16.939.241 1.435.241 1.435l.014.107z" fill-rule="nonzero" fill="#231F20"/>
        <path d="M81.118 32.266c1.007 11.735-6.902 22-17.671 22.926-10.756.94-20.3-7.841-21.307-19.577-1.007-11.749 6.903-22.014 17.672-22.926 10.755-.926 20.285 7.841 21.306 19.577" fill-rule="nonzero" fill="#FFF"/>
        <path d="M78.365 32.482c-.014-.068-.069-.504-.191-1.24-.041-.422-.15-.913-.3-1.499-.082-.286-.163-.6-.245-.926-.11-.327-.218-.668-.354-1.036-.218-.736-.614-1.485-.995-2.33-.463-.79-.94-1.662-1.594-2.493-1.267-1.676-2.957-3.38-5.137-4.674-.532-.327-1.117-.586-1.676-.9-.613-.217-1.2-.53-1.84-.708-1.253-.422-2.725-.613-3.883-.708l-.245-.027-.313.013-.654.014-.668.014-.313.013c-.191 0 .177-.013.122-.013h-.027l-.055.013-.136.027c-.722.096-1.458.164-2.166.368-1.43.34-2.848.954-4.17 1.758-2.657 1.608-4.932 4.128-6.445 7.153-.776 1.5-1.253 3.161-1.607 4.837l-.218 1.281c-.055.436-.055.818-.096 1.213-.109.654 0 2.044-.013 2.711.286 3.488 1.39 6.936 3.352 9.756 1.948 2.848 4.66 5.069 7.63 6.281.354.178.75.314 1.117.423.382.109.763.259 1.145.34.763.15 1.553.341 2.234.355.613.109 1.58.054 2.466.04l.15-.013h.137c.04 0-.26.014-.123 0l.286-.04.559-.069c.354-.068.75-.068 1.09-.177 2.875-.654 5.41-2.017 7.317-3.788 1.948-1.758 3.27-3.842 4.169-5.777a18.732 18.732 0 0 0 1.553-5.314c.055-.395.11-.75.15-1.09l.041-.9.04-.79c0-.272-.013-.545-.026-.776a46.269 46.269 0 0 0-.068-1.322zm5.518-.327l.04 1.444c.014.232.014.504.028.79-.014.341-.04.709-.054 1.118-.028.395-.055.817-.082 1.294-.068.423-.136.886-.205 1.376a23.904 23.904 0 0 1-2.084 6.772c-1.172 2.48-2.957 5.069-5.464 7.399-2.494 2.33-5.886 4.197-9.742 5.069-.477.15-.981.163-1.472.258l-.75.11-.367.054-.49.027c-.886.014-1.704.096-2.903-.027-1.13-.04-2.14-.273-3.188-.45-.518-.109-1.022-.286-1.526-.436a8.428 8.428 0 0 1-1.526-.531c-4.034-1.553-7.63-4.428-10.22-8.053-2.643-3.61-4.237-8.012-4.714-12.508-.04-1.335-.177-1.948-.095-3.297.027-.613.027-1.227.095-1.799l.232-1.69c.408-2.22.994-4.441 1.975-6.485 1.88-4.115 4.946-7.685 8.707-10.001 1.867-1.172 3.897-2.071 5.982-2.575 1.022-.327 2.07-.45 3.12-.586l.204-.028.082-.013.055-.014.231-.013.314-.014.667-.014.654-.027.327-.014.409.028c1.09.054 2.221.136 3.147.354.982.163 1.922.45 2.821.75.926.272 1.758.708 2.602 1.048.804.45 1.622.859 2.344 1.35a24.058 24.058 0 0 1 6.595 6.676 24.957 24.957 0 0 1 3.065 6.458c.15.477.287.927.41 1.35.095.422.176.83.258 1.198.177.75.273 1.39.327 1.922.123 1.035.177 1.594.177 1.594a.232.232 0 0 1 .014.095v.04z" fill-rule="nonzero" fill="#231F20"/>
        <path d="M115.42 30.15c0 13.874-10.059 25.108-22.44 25.108-12.396 0-22.456-11.234-22.456-25.108 0-13.86 10.06-25.109 22.456-25.109 12.381 0 22.44 11.249 22.44 25.109" fill-rule="nonzero" fill="#FFF"/>
        <path d="M112.732 30.163s-.014-.526-.083-1.522c-.014-.249-.028-.512-.055-.816-.042-.318-.097-.637-.152-.996-.056-.346-.097-.733-.166-1.135-.083-.4-.208-.816-.305-1.259a21.339 21.339 0 0 0-2.462-6.1c-1.273-2.173-3.086-4.428-5.507-6.268-.567-.484-1.259-.83-1.909-1.287-.692-.332-1.383-.76-2.13-1.037-.747-.305-1.495-.609-2.31-.775-.803-.277-1.523-.346-2.27-.484l-.304-.055-.36-.014-.747-.042-.775-.041h-.36l-.165.014c-.872.069-1.73.096-2.601.304-.886.11-1.716.415-2.587.664-.83.346-1.702.609-2.49 1.107-3.266 1.701-6.157 4.538-8.15 8.01-1.05 1.702-1.756 3.639-2.337 5.603l-.36 1.508c-.083.484-.138.955-.222 1.439l-.124.72-.055.857-.083 1.757c.013-.277 0-.055 0-.097l.013.042v.29l.014.388.028.788c0 .512.041 1.024.11 1.55.084.498.125 1.024.208 1.55l.332 1.493c.512 2.007 1.19 3.971 2.2 5.728.982 1.77 2.144 3.445 3.555 4.842 1.384 1.398 2.933 2.629 4.635 3.487.789.512 1.702.788 2.56 1.162.871.249 1.784.58 2.587.678l.608.124.305.07.401.027c.526.028 1.038.055 1.55.097l.18.014h.11l.042.014c.055 0-.25-.014-.111-.014l.332-.014.664-.028c.443-.041.885 0 1.314-.083 3.445-.47 6.572-1.868 8.979-3.832a21.076 21.076 0 0 0 5.465-6.475 22.824 22.824 0 0 0 2.338-6.184c.097-.456.207-.885.29-1.273.042-.387.083-.76.125-1.093.055-.332.097-.65.138-.94.014-.332.028-.637.042-.9.041-1.093.055-1.688.055-1.688v.125zm5.34.124s-.027.582-.083 1.675c-.013.276-.041.58-.055.926-.042.374-.097.789-.152 1.232-.07.456-.139.94-.222 1.452-.083.498-.22 1.01-.345 1.55-.485 2.186-1.384 4.787-2.92 7.526-1.55 2.712-3.707 5.617-6.75 8.066-3.017 2.476-7.029 4.344-11.54 5.022-.553.138-1.134.124-1.7.18l-.872.055-.43.028-.539-.014-1.55-.083-.4-.014-.471-.07-.927-.151c-1.314-.153-2.421-.526-3.597-.844-1.134-.443-2.324-.83-3.39-1.44-2.24-1.106-4.274-2.642-6.087-4.385-1.84-1.743-3.375-3.818-4.662-6.032-1.314-2.2-2.241-4.634-2.947-7.125l-.456-1.895c-.125-.623-.194-1.259-.291-1.91-.11-.65-.194-1.286-.208-1.922l-.055-.983-.028-.484-.013-.249v-.18c0-.083-.014.111 0-.193l.055-1.757.041-.872.111-1.024c.097-.678.166-1.37.277-2.02l.415-1.909c.664-2.518 1.522-4.98 2.836-7.235 1.245-2.27 2.767-4.386 4.62-6.185 1.813-1.812 3.875-3.39 6.13-4.537 1.093-.637 2.31-1.038 3.472-1.495 1.204-.345 2.38-.733 3.597-.885 1.218-.235 2.435-.263 3.611-.318l.235-.014h.402l.387.028.76.055c.54.055.928.028 1.606.166 1.231.194 2.462.401 3.5.76 1.107.278 2.117.748 3.099 1.163 1.01.443 1.91 1.024 2.822 1.522.83.622 1.716 1.148 2.449 1.798 3.085 2.546 5.243 5.493 6.724 8.287a28.332 28.332 0 0 1 2.794 7.623c.125.554.25 1.066.332 1.564.07.498.125.954.18 1.383.055.443.097.844.139 1.204.013.373.027.705.041.996.042 1.204.055 1.84.055 1.84v.124z" fill-rule="nonzero" fill="#231F20"/>
        <path d="M134.307 4.165c16.075 0 29.101 13.027 29.101 29.101v90.902c0 22.086-17.91 39.996-39.996 39.996H43.406c-22.087 0-39.996-17.91-39.996-39.996V81.942c0-22.101 17.91-40.01 39.996-40.01h42.226c25.332 0 21.776-37.767 48.675-37.767" fill-rule="nonzero" fill="#FFF"/>
        <path d="M134.312 7.485s-.48-.014-1.399.043c-.919.042-2.261.141-3.93.58-1.667.409-3.646 1.186-5.71 2.614-2.077 1.413-4.211 3.562-6.317 6.43-2.12 2.87-4.184 6.403-6.6 10.375-1.216 1.979-2.53 4.07-4.114 6.177-1.583 2.091-3.42 4.24-5.752 6.12-2.318 1.893-5.187 3.462-8.339 4.296a23.595 23.595 0 0 1-4.862.763c-.452.029-.777.029-1.145.029l-1.159.014c-.735 0-1.47.014-2.219.014-5.922.014-12.155.042-18.657.056-6.501.029-13.271.057-20.282.071-6.53-.028-13.172 1.64-19.08 5.173a36.951 36.951 0 0 0-14.12 15.222 37.53 37.53 0 0 0-3.35 10.29c-.17.89-.254 1.837-.367 2.713l-.1 1.315c-.028.452-.028.99-.042 1.484l-.028.664v5.315c-.014 8.127-.014 16.395-.028 24.748 0 4.184.014 8.367.014 12.58.042 3.886.664 7.787 1.95 11.476 2.488 7.434 7.534 14.042 14.092 18.522 3.293 2.214 6.925 3.96 10.756 5 1.908.534 3.872.946 5.851 1.147 1.004.093 1.838.187 2.982.2l.806.026.735.013h1.625c17.343-.04 34.67-.066 51.73-.106l25.356-.04c7.817.12 15.293-2.147 21.456-6.387 6.148-4.199 10.854-10.22 13.441-16.891a33.17 33.17 0 0 0 1.569-5.102c.41-1.696.678-3.491.805-5.173l.1-1.258.028-1.428.014-.622v-7.759c0-14.897 0-28.975.014-41.978 0-13.003.014-24.918.028-35.476V34.82c0-.608-.014-1.244-.014-1.851-.014-.566-.014-1.103-.07-1.654a24.81 24.81 0 0 0-1.23-6.177 25.445 25.445 0 0 0-5.64-9.47c-2.29-2.444-4.777-4.197-7.123-5.37-2.304-1.202-4.452-1.823-6.205-2.22-1.767-.38-3.152-.48-3.971-.55l-1.598-.043h.1zm.085-6.657s.537 0 1.611.028c1.258.085 2.968.212 5.188.693 2.204.495 4.918 1.286 7.844 2.798 2.926 1.47 6.077 3.661 8.96 6.742a32.385 32.385 0 0 1 7.124 11.943 32.009 32.009 0 0 1 1.569 7.774c.057.693.057 1.385.085 2.078v1.936c0 1.286.014 2.587.014 3.915 0 10.558.014 22.473.014 35.476.014 13.003.014 27.08.014 41.978v7.053l-.014 1.498-.042 1.427-.1 1.583c-.183 2.134-.48 4.156-.975 6.205a40.88 40.88 0 0 1-1.88 6.035c-3.095 7.912-8.663 15.033-15.956 19.993-3.647 2.466-7.69 4.426-11.986 5.707-4.24 1.279-8.862 1.865-13.258 1.812l-25.356-.04c-17.06-.04-34.387-.066-51.73-.106h-1.625l-.89-.014-.82-.013c-1.018 0-2.36-.12-3.505-.227-2.333-.24-4.636-.707-6.884-1.319-4.522-1.227-8.805-3.268-12.678-5.867-7.717-5.24-13.681-12.987-16.635-21.75C.959 133.815.21 129.207.14 124.656c0-4.24-.015-8.466-.015-12.664C.111 103.638.111 95.37.097 87.243v-5.315l.014-.834c.029-.508.014-.975.057-1.54l.113-1.682c.127-1.103.226-2.177.438-3.237a41.452 41.452 0 0 1 4.014-12.14c3.816-7.562 9.809-13.739 16.749-17.81 6.94-4.084 14.868-5.978 22.345-5.893 7.01.028 13.78.042 20.282.07 6.502.029 12.735.043 18.657.057.75.014 1.484.014 2.22.014h.536l.467-.014c.367-.014.763-.014 1.031-.042 1.145-.085 2.431-.283 3.534-.608 2.29-.622 4.31-1.739 6.063-3.194 3.534-2.926 6.064-6.983 8.396-10.799 2.304-3.858 4.41-7.618 6.77-10.883 2.346-3.265 4.975-6.05 7.745-8 2.756-1.964 5.513-3.08 7.788-3.66a24.58 24.58 0 0 1 5.215-.848c1.174-.057 1.781-.057 1.781-.057h.085z" fill-rule="nonzero" fill="#231F20"/>
        <path d="M105.032 81.077c-4.883 11.14-25.927 19.518-51.168 19.518-9.078 0-17.592-1.073-25.033-2.985" fill-rule="nonzero" fill="#FFF"/>
        <path d="M105.032 81.077c-4.883 11.14-25.927 19.518-51.168 19.518-9.078 0-17.592-1.073-25.033-2.985" stroke="#231F20" stroke-width="5.333" stroke-linecap="round" stroke-linejoin="round"/>
        <path d="M41.396 127.04c6.383-6.424 20.218-10.876 36.244-10.876 6.478 0 12.615.726 18.025 2.027" fill-rule="nonzero" fill="#FFF"/>
        <path d="M41.396 127.04c6.383-6.424 20.218-10.876 36.244-10.876 6.478 0 12.615.726 18.025 2.027" stroke="#231F20" stroke-width="5.333" stroke-linecap="round" stroke-linejoin="round"/>
    </g>
</svg>
