<svg width="168" height="170" xmlns="http://www.w3.org/2000/svg">
    <title>
        o
    </title>
    <g fill="none" fill-rule="evenodd">
        <path d="M163.742 108.829c0 31.667-35.809 57.333-79.992 57.333-44.199 0-80.008-25.666-80.008-57.333 0-31.666 35.81-57.334 80.008-57.334 44.183 0 79.992 25.668 79.992 57.334" fill-rule="nonzero" fill="#FFF"/>
        <path d="M163.742 108.829c0 31.667-35.809 57.333-79.992 57.333-44.199 0-80.008-25.666-80.008-57.333 0-31.666 35.81-57.334 80.008-57.334 44.183 0 79.992 25.668 79.992 57.334z" stroke="#231F20" stroke-width="6.667"/>
        <path d="M117.647 6.244c17.601 8.027 29.274 22.136 29.274 38.196 0 25-28.278 45.266-63.174 45.266-34.88 0-63.158-20.267-63.158-45.266 0-16.122 11.75-30.184 29.442-38.196l16.82 21.278L83.747 6.244l16.728 21.278 17.172-21.278" fill-rule="nonzero" fill="#FFF"/>
        <path d="M118.504 10.357l-15.95 18.84-2.209 2.6-1.963-2.626h-.015L81.128 8.286l5.23.016-17.407 20.882-2.193 2.626-1.994-2.64L47.418 8.303l3.987.966v.015c-4.953 2.209-9.646 5-13.803 8.374-2.024 1.749-4.018 3.558-5.69 5.614-.905.966-1.64 2.055-2.454 3.113-.368.546-.705 1.106-1.073 1.653l-.522.84-.46.867c-1.303 2.28-2.193 4.747-2.898 7.24l-.445 1.907c-.123.612-.169 1.213-.276 1.827l-.138.918-.062 1.068-.046 1.066-.03.533-.016.134.016.253c-.03 5.2 1.426 10.36 3.957 14.987 2.5 4.64 6.073 8.773 10.23 12.214 4.156 3.466 8.88 6.28 13.864 8.532 5 2.227 10.29 3.88 15.69 4.96 2.699.561 5.429.96 8.174 1.227l2.055.2 2.04.107c1.334.107 2.822.08 4.217.12 5.43-.04 11.028-.507 16.395-1.626a73.962 73.962 0 0 0 15.705-4.948c4.985-2.24 9.724-5.04 13.88-8.506 4.187-3.428 7.745-7.547 10.276-12.186 2.53-4.654 4.018-9.707 4.003-15.041 0-5.054-1.304-10.32-3.835-14.894-.567-1.185-1.35-2.253-2.04-3.375-.812-1.043-1.533-2.163-2.438-3.13-1.656-2.054-3.65-3.864-5.66-5.628-2.1-1.671-4.247-3.297-6.579-4.662-1.15-.752-2.3-1.32-3.466-1.963-.445-.26-.95-.46-1.472-.721zm.613-7.116c1.289.66 2.516 1.227 3.85 1.963 1.319.751 2.684 1.487 3.91 2.316 2.562 1.564 4.94 3.42 7.255 5.352 2.24 2.025 4.432 4.11 6.319 6.518.997 1.135 1.84 2.439 2.73 3.666.767 1.319 1.656 2.561 2.3 3.967a37.271 37.271 0 0 1 4.34 17.908c-.045.719-.045 1.398-.107 2.16l-.26 2.4-.43 2.292c-.153.747-.368 1.494-.552 2.24a38.623 38.623 0 0 1-3.543 8.48c-2.99 5.333-7.085 9.92-11.702 13.707-4.616 3.814-9.785 6.84-15.183 9.24a80.62 80.62 0 0 1-16.855 5.253c-5.782 1.16-11.595 1.654-17.546 1.667-1.441-.04-2.79 0-4.325-.107l-2.223-.12-2.194-.187a83.371 83.371 0 0 1-8.71-1.279 80.035 80.035 0 0 1-16.84-5.28c-5.4-2.4-10.568-5.44-15.169-9.267-4.616-3.8-8.696-8.386-11.671-13.734-2.975-5.319-4.785-11.452-4.831-17.666l-.016-.293.016-.387.03-.533.046-1.08.031-1.068.154-1.185c.107-.8.184-1.613.322-2.388l.521-2.265c.782-2.988 1.84-5.934 3.313-8.627l.521-1.026.598-.982c.4-.644.783-1.319 1.197-1.948.905-1.226 1.748-2.515 2.745-3.665 1.917-2.377 4.11-4.463 6.365-6.472 4.6-3.896 9.723-7.086 15.122-9.616h.015l2.423-1.105 1.565 2.086L68.95 25.862h-4.172L81.143 4.176v-.015L83.904.848l2.47 3.328 16.195 21.702-4.172-.03 18.297-23.85 2.423 1.243z" fill-rule="nonzero" fill="#231F20"/>
        <path d="M100.064 53.088c0 9.127-7.41 16.54-16.55 16.54-9.123 0-16.549-7.413-16.549-16.54 0-9.14 7.426-16.55 16.55-16.55 9.138 0 16.549 7.41 16.549 16.55" fill-rule="nonzero" fill="#FFF"/>
        <path d="M100.064 53.088c0 9.127-7.41 16.54-16.55 16.54-9.123 0-16.549-7.413-16.549-16.54 0-9.14 7.426-16.55 16.55-16.55 9.138 0 16.549 7.41 16.549 16.55z" stroke="#231F20" stroke-width="5.333" stroke-linecap="round" stroke-linejoin="round"/>
        <path d="M90.87 53.083c0 4.044-3.294 7.338-7.352 7.338s-7.353-3.294-7.353-7.338c0-4.073 3.295-7.367 7.353-7.367s7.353 3.294 7.353 7.367" fill-rule="nonzero" fill="#231F20"/>
        <path d="M36.83 93.89c12.109-8.36 28.615-13.52 46.795-13.52 17.86 0 34.093 4.974 46.127 13.067" fill-rule="nonzero" fill="#FFF"/>
        <path d="M35.762 92.2s1.263-.866 3.456-2.4c1.066-.786 2.604-1.6 4.294-2.573.853-.453 1.766-1.04 2.741-1.48.99-.44 2.025-.906 3.106-1.399.548-.24 1.097-.493 1.66-.748.563-.239 1.173-.426 1.766-.653 1.219-.426 2.452-.88 3.731-1.346 1.28-.454 2.65-.76 4.02-1.16 1.37-.373 2.771-.813 4.233-1.054 1.462-.28 2.939-.559 4.446-.839 1.493-.28 3.03-.4 4.584-.588 3.09-.44 6.258-.412 9.41-.56l.29-.012.076-.014.182.014h.153l.563.026 1.157.04 2.269.094 2.3.079c.776.067 1.568.161 2.36.24 1.553.174 3.136.334 4.659.533 1.507.28 2.984.56 4.431.827 1.477.24 2.878.6 4.264 1 1.37.387 2.725.72 4.02 1.12 1.279.454 2.527.894 3.745 1.32.594.213 1.188.426 1.767.627.563.253 1.127.494 1.675.734 2.177.946 4.172 1.8 5.832 2.799 1.675.96 3.182 1.693 4.309 2.52 2.3 1.547 3.609 2.44 3.609 2.44a2.016 2.016 0 0 1 .533 2.774 2.012 2.012 0 0 1-2.62.627l-.152-.094s-1.294-.707-3.578-1.96c-1.112-.68-2.589-1.28-4.218-2.053-1.614-.814-3.548-1.467-5.603-2.28-.533-.2-1.051-.413-1.6-.614a139.16 139.16 0 0 0-1.69-.52c-1.141-.347-2.33-.706-3.547-1.08-1.219-.32-2.513-.573-3.822-.88-.64-.145-1.31-.307-1.98-.453-.655-.16-1.34-.24-2.025-.36-1.37-.226-2.771-.453-4.172-.68-1.416-.146-2.817-.28-4.249-.426-.715-.067-1.431-.16-2.162-.214l-2.284-.067-2.284-.067-1.157-.04-.564-.013-.152-.014h.061-.015l-.092.014h-.258c-2.97.134-5.954.08-8.847.48-1.447.173-2.909.24-4.31.467-1.4.24-2.801.466-4.172.693-1.386.187-2.695.586-4.005.867-1.294.32-2.588.546-3.806.92-1.203.386-2.391.747-3.548 1.106-.564.188-1.142.334-1.675.535-.533.213-1.066.426-1.584.626-2.07.826-3.99 1.533-5.543 2.332-1.614.774-3.014 1.348-4.172 2.094a1456.01 1456.01 0 0 0-3.685 2.08 1.998 1.998 0 0 1-2.725-.746c-.518-.908-.229-2.054.594-2.64" fill-rule="nonzero" fill="#231F20"/>
    </g>
</svg>
