<svg width="168" height="168" xmlns="http://www.w3.org/2000/svg">
    <title>
        olin
    </title>
    <g fill="none">
        <path d="M74.021 30.6C81.76 14.813 97.983 3.96 116.743 3.96c26.264 0 47.554 21.293 47.554 47.547V163.96h-104.5c-30.65 0-55.5-24.853-55.5-55.507v-32.28c0-27.853 22.586-50.44 50.446-50.44s50.444 30.36 50.444 58.227" fill="#FFF"/>
        <path d="M71.67 29.333c.586-1.12 1.082-2.2 1.742-3.36.71-1.146 1.356-2.4 2.137-3.44.755-1.093 1.498-2.2 2.356-3.213l1.25-1.547 1.358-1.453c3.654-3.867 7.9-7.187 12.611-9.707a50.875 50.875 0 0 1 15.099-5.2c2.632-.48 5.304-.693 7.977-.773l.5-.013.64.026.937.04 1.875.094c.635.04 1.225.04 1.897.12l2.054.293c2.793.32 5.336 1.067 7.928 1.76l3.776 1.373c1.266.44 2.433 1.107 3.653 1.667 4.775 2.413 9.219 5.507 13.036 9.267a53.545 53.545 0 0 1 9.484 12.893c2.55 4.72 4.12 9.933 5.005 15.213l.304 1.987.146.987.053 1.013.204 4.013.013 7.507.015 15.013.027 30.027-.116 60.04v.013a3.325 3.325 0 0 1-3.331 3.32h-.009c-32.315.054-64.63.214-96.944.174l-6.06-.014h-1.692l-1.512-.08-3.026-.16c-.973 0-2.096-.2-3.188-.36l-3.278-.493c-2.144-.413-4.179-1.04-6.271-1.547-8.201-2.573-15.797-6.986-22.135-12.76-6.336-5.773-11.448-12.906-14.766-20.826-.707-2.027-1.554-4.014-2.128-6.08l-.8-3.12-.398-1.56c-.108-.52-.17-1.054-.257-1.587-.29-2.12-.753-4.227-.768-6.373-.108-2.147-.24-4.32-.196-6.294l.021-24.226.022-6.24.156-3.027c.05-1 .073-1.987.278-3.12.334-2.2.602-4.44 1.219-6.48.276-1.053.523-2.093.83-3.133l1.11-3.04c3.008-8.094 8.165-15.307 14.599-21.014 6.397-5.786 14.292-9.826 22.648-11.906 4.169-1.107 8.486-1.48 12.781-1.614l.201-.013.303.013.379.014.757.026c.517.027.979.027 1.543.08 1.118.134 2.305.2 3.364.4 1.08.187 2.161.36 3.216.64a36.28 36.28 0 0 1 3.152.88c8.346 2.627 15.602 7.68 21.545 13.72 5.881 6.147 10.484 13.374 13.725 21.134 3.179 7.786 4.971 16.2 4.799 24.653a2.334 2.334 0 0 1-4.665.027l-.002-.027c-.246-7.72-2.14-15.373-5.302-22.44-3.156-7.053-7.566-13.573-12.998-18.973-5.417-5.374-11.9-9.72-19.048-11.867-.889-.28-1.784-.52-2.692-.707-.9-.24-1.816-.373-2.729-.52-.927-.173-1.767-.186-2.652-.293-.44-.04-.99-.04-1.481-.053l-.758-.027-.378-.013h-.095.019l-.178.013c-3.768.133-7.552.453-11.194 1.44-7.304 1.827-14.211 5.373-19.798 10.453-5.622 5-10.136 11.32-12.738 18.4l-.972 2.654c-.264.906-.472 1.826-.714 2.733-.558 1.827-.732 3.613-1.03 5.413-.183.854-.21 1.88-.258 2.894l-.15 3.026-.004 5.894.021 24.226c-.041 2.08.096 3.934.19 5.827 0 1.907.438 3.76.686 5.64.077.467.128.933.225 1.4l.358 1.373.709 2.747c.507 1.827 1.27 3.56 1.884 5.36 2.94 6.987 7.47 13.267 13.073 18.36 5.606 5.093 12.308 8.973 19.535 11.227 1.832.426 3.673 1 5.49 1.346l2.711.414c.906.133 1.772.32 2.826.32l3.025.16 1.513.066h7.398c32.314-.053 64.629.12 96.944.174h.006l-3.333 3.333-.115-60.04.027-30.027.013-15.013v-7.493l-.174-3.48-.04-.88-.13-.854-.262-1.72c-.763-4.573-2.095-9.093-4.308-13.186a46.621 46.621 0 0 0-8.208-11.2c-3.31-3.28-7.17-5.96-11.307-8.067-1.06-.48-2.064-1.08-3.165-1.453l-3.272-1.214c-2.242-.586-4.515-1.253-6.707-1.493l-1.657-.267c-.567-.08-1.234-.08-1.844-.12l-1.875-.093-.937-.053-.234-.014h-.117l-.059-.013c-.057 0 .282.013.114.013l-.438.014c-2.328.026-4.657.186-6.953.573a44.26 44.26 0 0 0-13.22 4.373c-4.179 2.08-7.988 4.907-11.304 8.214l-1.241 1.253-1.163 1.32c-.803.867-1.496 1.813-2.21 2.747-.76.933-1.289 1.906-1.955 2.853-.631.987-1.232 2.147-1.85 3.213l-.032.054a2.665 2.665 0 0 1-3.642.973 2.678 2.678 0 0 1-1.03-3.547" fill="#231F20"/>
        <path d="M76.077 105.733l-.074-1.506c.002-.494-.086-1.094-.202-1.787-.058-.36-.093-.733-.18-1.133-.101-.4-.209-.814-.322-1.267-.496-1.747-1.262-3.867-2.691-6a21.663 21.663 0 0 0-5.987-6.08c-1.328-.84-2.766-1.653-4.369-2.213-.399-.134-.801-.28-1.207-.427-.417-.107-.837-.213-1.262-.32-.863-.267-1.659-.293-2.499-.453-.412-.067-.99-.054-1.48-.094l-.77-.04-.389-.013h.088-.042l-.087.013-.173.014c-.922.066-1.862.053-2.788.253-1.876.24-3.718.853-5.51 1.627-1.793.786-3.453 1.906-5.012 3.173-1.528 1.307-2.861 2.867-4.013 4.547-1.115 1.72-1.957 3.613-2.577 5.586-.244 1-.535 2.014-.628 2.947-.199.84-.183 2.187-.256 3.32.008-.28.004-.053.006-.093l.003.04.007.106.012.187.021.387.043.786c.002.52.097 1.027.18 1.534.113 1.026.41 2.026.665 3.013.643 1.96 1.504 3.827 2.632 5.52 1.165 1.667 2.507 3.2 4.036 4.48 1.56 1.227 3.215 2.307 4.984 3.093.423.24.896.36 1.339.534.45.16.886.373 1.353.466l1.37.36c.453.12.869.147 1.3.227.762.187 1.931.2 2.943.267l.194.013h.041l.34-.027.679-.026c.448-.027.901-.014 1.34-.08a21.587 21.587 0 0 0 9.352-3.36c2.606-1.707 4.586-3.854 6.001-5.96 1.445-2.094 2.232-4.2 2.747-5.934.118-.453.23-.866.336-1.253.089-.387.121-.733.184-1.067.057-.333.11-.626.158-.906.05-.28.046-.627.068-.894l.1-1.693-.004.133zm5.331.134l-.072 1.693c-.02.293-.007.56-.056.947l-.177 1.293c-.071.453-.126.973-.234 1.48l-.392 1.573c-.606 2.2-1.569 4.867-3.34 7.547-1.74 2.68-4.194 5.44-7.469 7.667-3.273 2.213-7.365 3.853-11.879 4.413-.56.08-1.133.08-1.706.12l-.864.053-.434.014-.541-.014c-1.06-.066-2.004-.04-3.333-.266-2.542-.307-4.775-1.027-7.099-1.987-2.293-.973-4.417-2.387-6.396-3.987-1.95-1.653-3.66-3.626-5.125-5.773-1.431-2.173-2.527-4.587-3.319-7.093-.33-1.28-.683-2.56-.828-3.867-.1-.653-.205-1.307-.213-1.973l-.048-.987-.022-.493-.01-.24-.006-.134-.002-.053.001-.213c.09-1.214.05-2.24.316-3.707.165-1.413.524-2.667.865-3.933.815-2.507 1.93-4.894 3.374-7.054 1.48-2.12 3.197-4.053 5.148-5.68 1.98-1.573 4.098-2.946 6.368-3.906 2.266-.947 4.598-1.68 6.95-1.947 1.166-.227 2.338-.213 3.488-.28h.216l.108-.013h.054l.185.013.387.013.77.04c.531.04.979.027 1.568.12 1.151.187 2.363.294 3.386.614.528.133 1.052.28 1.572.413.505.187 1.006.36 1.504.547 1.993.72 3.772 1.746 5.429 2.786a26.86 26.86 0 0 1 7.485 7.534c1.786 2.653 2.77 5.293 3.396 7.48.143.56.278 1.08.406 1.573.109.507.162.973.237 1.413.145.88.252 1.627.26 2.24.061 1.227.095 1.88.095 1.88l-.003.134zm27.499 28.306l-.03-.733c.006-.24-.036-.533-.088-.88-.029-.347-.118-.733-.23-1.16-.234-.867-.592-1.907-1.282-2.96a10.346 10.346 0 0 0-2.918-3.013c-.655-.414-1.354-.827-2.142-1.107-.764-.32-1.662-.48-2.397-.613-.19-.04-.523-.04-.78-.054l-.413-.026-.208-.014h.093l-.021.014h-.128c-.456.04-.923.04-1.38.133-.928.12-1.836.427-2.722.813a10.638 10.638 0 0 0-4.45 3.827c-.548.853-.96 1.787-1.264 2.747-.282 1.066-.382 1.706-.422 3.16.007-.254.003-.054.006-.107l.001.027.004.04.007.093.012.2.022.387c.002.253.051.506.094.746.057.507.209 1 .336 1.48.322.96.749 1.88 1.308 2.707a10.45 10.45 0 0 0 4.446 3.68c.839.347 1.836.64 2.59.72.308.08.977.08 1.512.107l.105.013h-.035l.166-.013.329-.014c.217-.013.437 0 .65-.04 1.717-.2 3.271-.8 4.537-1.626 1.26-.84 2.222-1.88 2.918-2.894.708-1.013 1.092-2.04 1.348-2.88.127-.44.222-.813.255-1.093.028-.147.055-.293.08-.413.025-.134.025-.334.037-.467l.056-.907-.002.12zm4.996.134l-.035.906c-.01.16-.003.28-.03.52l-.1.76c-.06.574-.193 1.16-.36 1.787-.347 1.28-.903 2.827-1.92 4.373a15.46 15.46 0 0 1-4.318 4.427 15.745 15.745 0 0 1-6.865 2.533c-.324.054-.655.054-.986.08l-.498.027-.25.013-.348-.013c-.577-.053-1.042-.04-1.858-.173-1.516-.2-2.762-.627-4.102-1.2a15.64 15.64 0 0 1-6.585-5.627c-.816-1.253-1.44-2.64-1.887-4.08-.189-.72-.385-1.453-.468-2.213-.054-.374-.113-.747-.117-1.12l-.025-.574-.012-.28-.006-.133-.002-.08.001-.187c.02-1.093.247-2.973.688-4.333a16.432 16.432 0 0 1 1.932-4.027 15.434 15.434 0 0 1 6.58-5.466c1.295-.547 2.63-.96 3.972-1.107.665-.133 1.333-.133 1.99-.16h.569l.414.027c.292.013.511 0 .858.053 1.412.173 2.608.427 3.74.88 1.144.4 2.172.973 3.121 1.573a15.79 15.79 0 0 1 4.317 4.294c1.036 1.52 1.618 3.04 1.987 4.293.183.64.32 1.213.384 1.72.088.507.152.933.16 1.293l.063 1.08-.004.134z" fill="#231F20"/>
    </g>
</svg>
