<svg width="168" height="168" xmlns="http://www.w3.org/2000/svg">
    <title>
        ona
    </title>
    <g fill="none" fill-rule="evenodd">
        <path d="M163.964 97.293c0 36.814-29.847 66.667-66.666 66.667H70.63c-36.818 0-66.666-29.853-66.666-66.667V70.627C3.965 33.8 33.813 3.96 70.63 3.96h26.667c36.82 0 66.666 29.84 66.666 66.667v26.666" fill="#FFF" fill-rule="nonzero"/>
        <path d="M163.964 97.293c0 36.814-29.847 66.667-66.666 66.667H70.63c-36.818 0-66.666-29.853-66.666-66.667V70.627C3.965 33.8 33.813 3.96 70.63 3.96h26.667c36.82 0 66.666 29.84 66.666 66.667v26.666z" stroke="#231F20" stroke-width="6.667"/>
        <path d="M72 63.547V3.987" stroke="#231F20" stroke-width="5"/>
        <path d="M95 3.987v59.56" stroke="#231F20" stroke-width="5.333"/>
        <path d="M37.732 116.467l-.21-25.907-.017-3.24.012-.88a12.65 12.65 0 0 1 .48-2.947c.709-2.533 2.21-4.746 4.052-6.453 1.851-1.707 4.046-2.947 6.364-3.747a20.358 20.358 0 0 1 7.168-1.066c2.474.08 4.866.586 7.142 1.546 2.266.947 4.375 2.374 6.086 4.24 1.708 1.867 2.97 4.267 3.401 6.854.103.653.174 1.306.174 1.96l-.008 1.666-.031 3.24c-.032 4.32-.19 8.64-.162 12.947l-.017 12.96h-4l-.206-23.92-.016-3-.004-.747.006-.813c-.004-.2.035-.627.062-.933.042-.32.078-.614.14-.92.455-2.427 1.701-4.654 3.347-6.347 3.31-3.427 7.957-5.04 12.47-5.053 4.512.013 9.16 1.626 12.47 5.053 1.645 1.693 2.891 3.92 3.346 6.347.115.6.186 1.213.201 1.84l.008.826-.005.747-.016 3-.205 23.92h-4l-.018-12.96c.029-4.307-.13-8.627-.162-12.947l-.03-3.24c-.002-1.04-.073-2.24.165-3.626.432-2.587 1.693-4.987 3.401-6.854 3.445-3.76 8.373-5.626 13.204-5.786h.931c.278 0 .513 0 .856.026.656.027 1.241.094 1.848.187a20.51 20.51 0 0 1 3.557.853c2.319.8 4.513 2.04 6.364 3.747 1.842 1.707 3.343 3.92 4.053 6.453.36 1.227.522 2.627.492 3.827l-.018 3.24-.21 25.907h-4l-.209-25.907-.017-3.24a8.39 8.39 0 0 0-.37-2.56c-.502-1.627-1.501-3.12-2.83-4.347-1.334-1.213-2.974-2.146-4.744-2.733a15.816 15.816 0 0 0-2.734-.64c-.46-.067-.952-.107-1.374-.133-.195-.014-.5-.014-.761-.027h-.334l-.355.013c-3.762.08-7.534 1.56-9.967 4.214-1.203 1.306-2.056 2.88-2.369 4.546-.159.747-.15 1.72-.158 2.84l-.032 3.24c-.032 4.32-.19 8.64-.162 12.947l-.017 12.96h-4l-.206-23.92-.016-3-.005-.747-.002-.373-.013-.28a6.96 6.96 0 0 0-.15-1.133c-.32-1.494-1.114-2.894-2.241-4.054-2.267-2.333-5.74-3.586-9.166-3.56-3.428-.026-6.9 1.227-9.167 3.56-1.127 1.16-1.92 2.56-2.242 4.054-.043.186-.067.373-.098.56-.012.173-.045.253-.05.546l-.016.374v.306l-.005.747-.016 3-.205 23.92h-4l-.018-12.96c.028-4.307-.13-8.627-.162-12.947l-.031-3.24-.022-1.573a8.13 8.13 0 0 0-.137-1.267c-.313-1.666-1.166-3.24-2.368-4.546-1.213-1.32-2.77-2.36-4.488-3.067a15.08 15.08 0 0 0-5.456-1.147c-1.939-.053-3.8.2-5.582.787-1.77.587-3.41 1.52-4.743 2.733-1.33 1.227-2.33 2.72-2.83 4.347-.13.413-.215.827-.282 1.24l-.065.587-.017.4-.007.333-.017 3.24-.21 25.907h-4" fill="#231F20" fill-rule="nonzero"/>
        <path d="M143.699 95.093c0 12.454-12.25 22.547-27.361 22.547H51.591c-15.11 0-27.36-10.093-27.36-22.547V86.08c0-12.453 12.25-22.547 27.36-22.547h64.747c15.11 0 27.36 10.094 27.36 22.547v9.013z" stroke="#231F20" stroke-width="5.333"/>
    </g>
</svg>
