<svg width="167" height="167" xmlns="http://www.w3.org/2000/svg">
    <title>
        open
    </title>
    <g fill="none" fill-rule="evenodd">
        <path d="M3.63 153.173V48.293c0-25.333 17.91-45.333 40-45.333 39.557 0 40 36.587 40 48 0-11.413.446-48 40-48 22.093 0 40 19.107 40 45.333v104.88h-160" fill="#FFF" fill-rule="nonzero"/>
        <path d="M6.657 150.133l76.974-.146 40-.094c13.333-.013 26.666-.066 40-.026l-3.304 3.306.16-60.92.08-30.453.018-7.613.011-3.814.005-1.906-.068-1.8c-.076-1.2-.034-2.414-.2-3.6l-.453-3.56c-.484-2.347-.955-4.694-1.753-6.934-1.5-4.52-3.694-8.8-6.563-12.546-2.863-3.76-6.405-6.987-10.436-9.387L138.021 9l-3.258-1.307c-1.115-.346-2.251-.64-3.374-.973-1.118-.253-2.217-.373-3.324-.587-.516-.133-1.21-.12-1.828-.173l-1.901-.107-.79-.04-.907.027-1.814.04c-1.209.04-2.396.2-3.594.28a101.59 101.59 0 0 0-3.534.56c-4.644.96-9.088 2.667-12.824 5.413a29.19 29.19 0 0 0-5.085 4.694 34.02 34.02 0 0 0-3.89 5.826c-2.226 4.16-3.613 8.827-4.471 13.614-.855 4.786-1.139 9.693-1.13 14.693a2.655 2.655 0 0 1-2.661 2.667 2.658 2.658 0 0 1-2.672-2.654v-.013c.024-5-.247-9.893-1.088-14.693-.844-4.787-2.217-9.454-4.432-13.64a33.906 33.906 0 0 0-3.877-5.84 29.357 29.357 0 0 0-5.083-4.734c-3.741-2.76-8.192-4.506-12.848-5.48-1.165-.226-2.361-.4-3.536-.573-1.19-.093-2.292-.253-3.555-.28l-1.901-.053-.95-.027c-.155-.013-.549.027-.811.04-1.17.093-2.351.08-3.511.253a33.51 33.51 0 0 0-13.203 4.654C18.071 15.493 12.083 23.613 9.015 32.64c-.336 1.147-.787 2.253-1.036 3.427l-.784 3.506-.458 3.467c-.101.56-.121 1.2-.144 1.84l-.08 1.893-.04.947-.02.48-.005.12-.001.053c-.004.134.001-.106 0-.053l.001.227.004 1.906.008 3.8.015 7.614.062 30.44.12 57.826zM.6 153.173l.125-60.866.064-30.44.015-7.614.008-3.8.004-1.906v-.227l.013-.373.023-.467.042-.96.088-1.893c.026-.627.047-1.254.159-1.96l.55-4.08.887-3.907c.29-1.307.788-2.56 1.176-3.853 1.758-5.054 4.299-9.867 7.599-14.12 3.295-4.267 7.355-7.974 12.013-10.774A38.484 38.484 0 0 1 38.69.613c1.347-.2 2.718-.2 4.074-.293.372-.013.61-.04 1.09-.04l.951.04 1.901.053c1.272.04 2.69.227 4.027.334 1.332.2 2.653.373 3.972.64 5.256 1.093 10.472 3.12 14.923 6.386 2.214 1.64 4.254 3.52 6.024 5.614a39.47 39.47 0 0 1 4.517 6.813c2.537 4.8 4.043 9.987 4.961 15.187.915 5.2 1.192 10.466 1.168 15.613h-5.333c-.036-5.147.228-10.427 1.13-15.627.91-5.213 2.405-10.413 4.94-15.24a39.443 39.443 0 0 1 4.52-6.826c1.77-2.12 3.818-4 6.04-5.64 4.463-3.307 9.702-5.334 14.978-6.44 1.323-.267 2.653-.467 3.983-.654C117.885.427 119.22.24 120.548.2l1.993-.067.996-.026h.277l.12.013h.238l.474.027 1.902.106c.646.04 1.23.014 1.961.16 1.39.227 2.82.4 4.173.707 1.316.373 2.646.707 3.951 1.107l3.815 1.506 3.634 1.907c4.715 2.773 8.834 6.493 12.146 10.787 3.321 4.293 5.841 9.146 7.564 14.253.91 2.547 1.465 5.173 2.013 7.8l.53 3.987c.186 1.333.16 2.68.247 4.013l.08 1.987.006 1.906.009 3.814.02 7.613.08 30.453.16 60.92a3.293 3.293 0 0 1-3.29 3.307h-.015c-13.334.053-26.667 0-40-.027l-40-.08-80-.16H3.62a3.034 3.034 0 0 1-3.02-3.04z" fill="#231F20" fill-rule="nonzero"/>
        <path d="M56.52 66.333h54.223m-54.223 24h54.223" stroke="#231F20" stroke-width="5.333" stroke-linecap="round" stroke-linejoin="round"/>
        <path d="M117.572 111.747c8.687 5.426 14.059 12.92 14.059 21.213 0 16.56-21.49 30-48 30s-48-13.44-48-30c0-8.293 5.373-15.787 14.06-21.213" fill="#FFF" fill-rule="nonzero"/>
        <path d="M119.035 109.507s.588.373 1.69 1.08c1.191.813 2.874 1.96 4.807 3.733 1.913 1.787 4.164 4.16 6.039 7.467.937 1.653 1.782 3.533 2.338 5.64.567 2.08.834 4.48.715 6.773-.21 4.947-2.241 9.92-5.547 14.08-3.282 4.16-7.648 7.573-12.51 10.213-9.755 5.294-21.399 7.747-32.936 7.8-5.74-.04-11.582-.653-17.135-1.933-5.568-1.293-10.933-3.213-15.8-5.867-4.863-2.64-9.228-6.053-12.51-10.213-3.306-4.133-5.34-9.187-5.545-14.013l-.03-.907-.007-.227-.003-.106.003-.227.019-.387.036-.76.018-.373.054-.453c.126-1.267.349-2.347.622-3.4.556-2.107 1.4-3.987 2.339-5.64 1.875-3.307 4.125-5.68 6.039-7.467 1.936-1.773 3.624-2.92 4.76-3.707 1.165-.733 1.786-1.133 1.786-1.133a2.67 2.67 0 0 1 3.678.827 2.654 2.654 0 0 1-.738 3.613l-.113.08s-.536.373-1.541 1.067c-.972.72-2.399 1.786-4.003 3.333-1.579 1.547-3.38 3.573-4.761 6.2-.698 1.307-1.296 2.747-1.659 4.307a18.566 18.566 0 0 0-.392 2.346l-.037.28-.012.374-.026.76-.012.373c-.002.133.002-.107.003-.067l.003.04.004.08.009.16.032.654c.213 3.48 1.707 7.173 4.404 10.44 2.67 3.293 6.405 6.146 10.668 8.44 4.276 2.293 9.11 4.013 14.17 5.16 5.091 1.133 10.337 1.666 15.677 1.68 5.305 0 10.608-.547 15.677-1.68 5.061-1.147 9.895-2.867 14.17-5.16 4.263-2.294 7.998-5.147 10.669-8.44 2.696-3.24 4.193-7.014 4.4-10.387.24-3.613-.672-6.747-2.083-9.36-1.381-2.627-3.183-4.653-4.761-6.2-1.607-1.547-3.039-2.613-3.958-3.307a389.788 389.788 0 0 0-1.636-1.12h-.008a2.682 2.682 0 0 1-.693-3.72 2.674 2.674 0 0 1 3.627-.746" fill="#231F20" fill-rule="nonzero"/>
        <path d="M61.853 136.333h43.556" stroke="#231F20" stroke-width="5.333" stroke-linecap="round" stroke-linejoin="round"/>
        <path d="M86.297 50.96l.334 80.44a3.006 3.006 0 0 1-2.987 3.013 3.007 3.007 0 0 1-3.013-2.986v-.027l.333-80.44a2.665 2.665 0 0 1 2.679-2.653 2.658 2.658 0 0 1 2.654 2.653" fill="#231F20" fill-rule="nonzero"/>
    </g>
</svg>
