<svg width="167" height="168" xmlns="http://www.w3.org/2000/svg">
    <title>
        pakala
    </title>
    <g fill="none">
        <path fill="#FFF" d="M32.01 86.173l2.954 51.72 108.667.454-26.667-57.854-84.953 5.68"/>
        <path d="M98.079 127.373c24.445 0 56.218-4.88 56.218 15.56 0 24-32.45 20.894-81.34 20.894-50.214 0-69.326-30.667-69.326-80 0-44.187 35.817-80 80-80h19.782c33.258 0 60.218 23.173 60.218 51.773 0 28.6-13.996 46.44-49.334 46.44 0 0-43.11-2-56.106-2-8.338 0-14.112 6.32-14.112 14.12 0 7.787 6.318 12.773 14.112 12.773 0 0 15.444.44 39.888.44" fill="#FFF"/>
        <path d="M98.079 130.04s-11.41-.107-31.378-.307c-2.49-.053-5.114-.106-7.866-.146l-1.03-.027c-.398-.027-.8-.04-1.204-.053-.805-.094-1.625-.16-2.442-.36-1.635-.334-3.295-.88-4.863-1.747-3.139-1.667-5.967-4.693-7.156-8.507l-.385-1.44a289.46 289.46 0 0 1-.244-1.586c-.05-.48-.051-.84-.079-1.28l-.019-.44.015-.374.035-.733c.125-1.96.573-3.96 1.4-5.853 1.616-3.787 4.902-7.094 9.034-8.64 1.038-.4 2.064-.667 3.204-.867.554-.08 1.235-.2 1.692-.213l.706-.027.354-.027h.178c.312-.013.189 0 .305 0 1.907.04 3.839.08 5.796.134 7.847.133 16.019.48 24.568.773 4.272.173 8.632.347 13.076.52 2.22.093 4.463.187 6.725.28 1.131.04 2.266.093 3.406.133l1.714.067.738.027.838-.027c8.914-.173 18.256-1.453 26.355-5.667 4.023-2.093 7.648-4.933 10.455-8.546 2.838-3.574 4.878-7.84 6.186-12.454 1.339-4.573 1.935-9.573 2.079-14.493l.02-1.973.005-.494c.002-.133.002-.093-.002-.186l-.007-.227-.027-.92c-.001-1.213-.152-2.427-.248-3.653-.31-2.427-.81-4.84-1.508-7.227-2.874-9.48-9.137-18.093-17.442-24.333-8.287-6.294-18.464-10.32-29.083-11.734-2.724-.32-5.175-.506-8.08-.533h-8.387c-2.822.013-5.649.013-8.478.013-2.872 0-5.588.014-8.303.187a77.054 77.054 0 0 0-31.26 8.973c-9.644 5.16-18.107 12.467-24.723 21.107-6.653 8.613-11.281 18.667-13.753 29.12l-.456 1.96-.361 1.973-.355 1.987-.255 1.987a49.112 49.112 0 0 0-.396 3.933c-.044.667-.118 1.293-.141 1.973l-.055 2.094c-.096 5.346.11 10.853.579 16.173.957 10.667 3.15 21.107 7.388 30.36 4.205 9.267 10.77 17.053 18.936 22.2 8.168 5.173 17.613 7.8 26.961 8.893l3.511.36 3.459.2c1.145.067 2.39.054 3.574.094l1.728.026h1.791c4.761.014 9.45.04 14.06.054 9.205.053 18.077.106 26.505-.187 8.387-.347 16.486-.907 23.37-2.96 3.413-1.027 6.442-2.533 8.5-4.573 2.077-2.027 3.154-4.64 3.485-7.547.05-.373.072-.72.095-1.053.034-.294.026-.814.042-1.214 0-.613-.012-1.373-.104-2.013-.157-1.307-.529-2.48-1.089-3.507-1.101-2.053-3.12-3.56-5.484-4.613-2.367-1.04-4.979-1.667-7.532-2.093-2.561-.427-5.087-.64-7.503-.787-4.838-.267-9.245-.227-13.089-.187-3.865.067-7.155.134-9.82.187-2.69.027-4.755.04-6.144.053-1.39 0-2.11-.013-2.11-.013h-.007zm-.008-5.333s.706 0 2.073-.027c1.368-.04 3.397-.107 6.044-.187 2.67-.106 5.963-.24 9.835-.386 3.893-.134 8.39-.267 13.509-.094 2.56.094 5.277.28 8.159.694 2.876.426 5.938 1.053 9.105 2.373 1.576.667 3.179 1.52 4.693 2.693 1.51 1.174 2.915 2.694 3.948 4.494 1.039 1.8 1.694 3.826 1.976 5.84.156 1.026.206 1.96.214 3.053-.016.453 0 .787-.043 1.347a20.48 20.48 0 0 1-.13 1.546 20.71 20.71 0 0 1-1.605 6.067c-.892 2-2.188 3.893-3.777 5.467-3.208 3.173-7.248 5.026-11.244 6.266-8.077 2.414-16.481 2.96-25.123 3.28-8.649.28-17.577.187-26.788.12-4.598-.026-9.274-.066-14.024-.093h-1.781l-1.857-.04c-1.211-.04-2.372-.027-3.634-.093l-3.793-.24c-1.25-.12-2.507-.254-3.767-.387-10.024-1.2-20.462-4.067-29.708-9.947-9.253-5.84-16.708-14.826-21.297-25.013-4.687-10.187-7.004-21.307-8.041-32.48a160.076 160.076 0 0 1-.643-16.947l.05-2.08c.022-.706.098-1.466.146-2.2.095-1.48.22-2.946.427-4.373l.273-2.16.377-2.16.391-2.147.49-2.133c2.623-11.387 7.791-22.267 15.027-31.6 7.22-9.333 16.43-17.2 26.904-22.733A82.953 82.953 0 0 1 78.345.92c2.947-.173 5.903-.173 8.69-.173C89.864.76 92.69.76 95.513.76c2.844.013 5.684.013 8.519.027 2.723.013 5.88.24 8.721.6 11.607 1.44 22.843 5.72 32.147 12.64 9.276 6.88 16.677 16.506 19.973 27.533a52.966 52.966 0 0 1 1.756 8.373c.12 1.414.286 2.827.294 4.24l.032 1.054.006.266v.307l-.01.493-.042 1.974c-.22 5.546-.918 10.933-2.506 16.226-1.532 5.254-4.094 10.28-7.579 14.507-3.465 4.267-7.89 7.587-12.583 9.92-4.701 2.36-9.657 3.76-14.534 4.64-4.892.853-9.734 1.173-14.459 1.173-9.245-.4-18.179-.773-26.753-1.146-8.524-.32-16.71-.68-24.432-.774l-5.73-.12s-.242 0-.049-.013l-.177.013-.355.014-.705.04c-.486.013-.726.106-1.099.146-.699.12-1.475.334-2.156.6-2.793 1.054-4.95 3.24-6.053 5.814-.56 1.293-.87 2.68-.955 4.066l-.024.507-.013.267c-.008-.227.002.026.002.013l.008.16c.024.4.031.867.071 1.2.055.28.101.56.139.853l.245.92c.757 2.414 2.483 4.294 4.613 5.467 1.056.587 2.226.987 3.406 1.227.582.146 1.189.186 1.78.266.654.027 1.301.04 1.941.067 2.752.053 5.376.12 7.867.173 19.893.134 31.26.214 31.26.214h-.008z" fill="#231F20"/>
        <path d="M51.123 124.413l14.821-25.24a2.669 2.669 0 0 1 3.65-.946c.423.24.758.6.982 1l14.71 26.533-4.646-.027 14.467-25.293a2.662 2.662 0 0 1 3.638-.987c.424.24.762.587.99.987l14.433 25.187-4.604-.04 15.116-25.4a2.672 2.672 0 0 1 3.655-.934c.468.28.818.68 1.037 1.134l12.943 26.8a2.664 2.664 0 0 1-1.242 3.56 2.66 2.66 0 0 1-3.561-1.24l-12.943-26.8 4.694.2-15.116 25.4a2.674 2.674 0 0 1-3.656.933 2.735 2.735 0 0 1-.95-.96l-14.433-25.187h4.628l-14.467 25.294a2.674 2.674 0 0 1-3.638.986 2.697 2.697 0 0 1-1.008-1.026l-14.711-26.534 4.63.054-14.82 25.24a2.667 2.667 0 0 1-3.65.946 2.656 2.656 0 0 1-.95-3.64" fill="#231F20"/>
    </g>
</svg>
