<svg width="168" height="168" xmlns="http://www.w3.org/2000/svg">
    <title>
        palisa
    </title>
    <g fill="none">
        <path d="M45.965 86.533s13.332 10.667 37.666 2c24.333-8.666 38.333 13.24 38.333 35.334 0 22.093-17.908 40-40 40H44.297c-22.09 0-40-17.667-40-40 0-22.334 3.334-56 6.334-80 3-24 17.909-40 40-40 12.12 0 22.981 5.386 30.316 13.906l71.636 77.814c7.238 7.24 11.714 17.24 11.714 28.28 0 22.093-17.908 40-40 40 0 0-13.666 1.333-20.333-6.334" fill="#FFF"/>
        <path d="M46.788 85.48a23.823 23.823 0 0 0 4.215 1.973 31.79 31.79 0 0 0 4.56 1.307c3.102.64 6.268.987 9.442.867 3.171-.054 6.34-.48 9.459-1.147a62.445 62.445 0 0 0 4.644-1.2c.767-.24 1.533-.467 2.29-.733l2.402-.814 1.192-.386 1.34-.36c.907-.254 1.8-.427 2.69-.574 1.786-.333 3.623-.466 5.466-.466 3.69.053 7.444.853 10.803 2.48 3.39 1.586 6.329 3.96 8.772 6.653 2.422 2.72 4.384 5.787 5.889 9.013 3.05 6.454 4.455 13.48 4.688 20.507.287 7.053-1.252 14.347-4.439 20.747-3.154 6.453-8.017 12.066-13.922 16.213-5.914 4.16-12.944 6.707-20.147 7.427-.903.066-1.804.173-2.71.173l-1.355.04h-1.262l-5.016.013-10.032.014-20.062.013c-3.356.04-7.186-.173-10.682-.973-3.541-.774-7.005-1.96-10.244-3.6-6.509-3.214-12.145-8.147-16.274-14.12-2.068-2.987-3.73-6.254-5-9.654a45.085 45.085 0 0 1-2.424-10.6c-.159-1.786-.252-3.64-.211-5.4l.079-5.013c.009-3.32.224-6.747.346-10.12.647-13.493 1.786-26.853 3.127-40.213a979.196 979.196 0 0 1 2.208-20c.396-3.32.755-6.72 1.54-10.254a57.71 57.71 0 0 1 3.17-10.173c2.715-6.613 6.934-12.787 12.571-17.533C29.533 4.867 36.573 1.8 43.784.773 47.381.24 51.031.16 54.609.467c3.696.346 7.24 1.12 10.682 2.36A43.444 43.444 0 0 1 83.189 14.96l27.098 29.507 27.144 29.546L151 88.8l3.394 3.693.809.867.864.92c.57.587 1.235 1.387 1.821 2.08 2.276 2.813 4.258 5.893 5.768 9.2 3.075 6.547 4.415 14.013 3.928 21.107a43.043 43.043 0 0 1-6.73 20.52c-3.891 6.12-9.368 11.186-15.715 14.68-6.35 3.493-13.63 5.333-20.841 5.146l.304-.013c-.62.04-1.067.04-1.588.053-.504.014-1.002 0-1.499-.026-.992-.04-1.98-.12-2.965-.24a32.06 32.06 0 0 1-5.867-1.214 23.776 23.776 0 0 1-5.593-2.506c-.884-.56-1.719-1.2-2.51-1.88a17.064 17.064 0 0 1-2.125-2.347 1.992 1.992 0 0 1 .368-2.8 2.011 2.011 0 0 1 2.572.107l.077.08c1.166 1.066 2.499 1.906 3.955 2.573 1.453.667 3.025 1.12 4.641 1.467 1.624.32 3.295.506 4.98.586.843.04 1.688.054 2.531.027l1.253-.053c.396-.014.866-.054 1.159-.094h.1l.207-.013a42.687 42.687 0 0 0 9.11-1.293c2.954-.814 5.827-1.934 8.512-3.414 5.358-2.96 9.991-7.266 13.263-12.453 3.308-5.133 5.256-11.227 5.633-17.213.408-6.24-.746-12.347-3.344-17.907-1.274-2.787-2.957-5.373-4.877-7.747-.504-.573-.9-1.08-1.487-1.693l-1.76-1.867-3.401-3.68-13.607-14.746-27.212-29.494L77.877 19.68A36.4 36.4 0 0 0 62.884 9.56c-2.845-1.027-5.896-1.667-8.857-1.933a39.099 39.099 0 0 0-9.18.266c-6.024.894-11.711 3.347-16.347 7.214-4.627 3.88-8.217 9.026-10.59 14.76a50.601 50.601 0 0 0-2.806 8.946c-.17.774-.333 1.547-.456 2.294l-.201 1.146-.179 1.24c-.223 1.534-.408 3.28-.613 4.907a956.582 956.582 0 0 0-2.242 19.867c-1.362 13.253-2.525 26.56-3.19 39.786-.128 3.307-.347 6.56-.366 9.934L7.767 123c-.042 1.573.04 3.08.165 4.613a38.21 38.21 0 0 0 2.02 8.92c1.064 2.867 2.45 5.614 4.185 8.12 3.463 5.04 8.199 9.214 13.679 11.934 2.724 1.386 5.641 2.386 8.628 3.053 3.033.68 5.927.867 9.25.853l20.063.014 10.032.013 5.016.013h1.247l1.15-.026c.769 0 1.531-.094 2.297-.134 3.056-.266 6.068-.946 8.965-1.96a39.054 39.054 0 0 0 8.223-4.12c5.12-3.413 9.432-8.106 12.316-13.6a34.979 34.979 0 0 0 3.262-8.68c.731-3.053 1.019-6.093.976-9.293-.018-3.173-.408-6.347-1.094-9.427-.678-3.093-1.664-6.106-3.004-8.933-2.616-5.64-6.767-10.587-12.139-13.12-2.66-1.307-5.605-1.893-8.592-1.987-1.499 0-3.01.094-4.516.36-.76.12-1.51.254-2.215.454l-1.089.266-1.196.374-2.361.773c-.819.293-1.663.507-2.499.747-1.675.48-3.38.853-5.093 1.186-3.446.587-6.956.947-10.476.8-3.511-.146-7.034-.653-10.396-1.733-3.375-1.08-6.563-2.52-9.428-4.893a1.339 1.339 0 0 1-.176-1.88 1.341 1.341 0 0 1 1.71-.294l.111.067" fill="#231F20"/>
        <path d="M7.055 97.2l.649.573c.203.16.49.454.759.64.236.134.496.28.781.48.301.187.78.36 1.216.574.476.186 1.027.333 1.607.506 1.224.24 2.648.48 4.332.48 3.338.08 7.449-.453 12.024-.88 4.549-.4 9.724-.706 14.94.654a20.666 20.666 0 0 1 7.273 3.48c.55.386 1.087.786 1.552 1.253.479.453.981.893 1.424 1.36.825 1 1.712 1.933 2.352 2.987.341.52.696 1.026 1.013 1.533.282.533.562 1.053.838 1.573.59 1.027 1 2.08 1.428 3.094.458 1 .781 2.013 1.096 2.986.32.974.646 1.907.85 2.814.231.92.452 1.786.662 2.613.198.827.32 1.627.47 2.373.292 1.48.528 2.774.648 3.854.29 2.133.454 3.36.454 3.36l-4.636.533-.46-3.2c-.123-1.027-.358-2.24-.646-3.64-.145-.693-.266-1.44-.457-2.213-.201-.76-.413-1.574-.633-2.4-.195-.854-.5-1.694-.798-2.574-.292-.88-.589-1.786-1.001-2.653-.385-.893-.752-1.827-1.264-2.68-.239-.44-.479-.88-.723-1.333-.269-.427-.566-.84-.85-1.254-.535-.893-1.256-1.6-1.912-2.4-.352-.373-.748-.693-1.119-1.053a7.693 7.693 0 0 0-1.201-.947 15.615 15.615 0 0 0-5.638-2.626C37.924 104 33.3 104.24 28.9 104.68c-4.411.427-8.678 1.053-12.575 1-1.935.013-3.803-.24-5.453-.573-.828-.227-1.61-.44-2.319-.707-.71-.32-1.339-.547-1.939-.907-.605-.36-1.138-.72-1.593-1.026-.392-.294-.595-.507-.827-.694l-.653-.573 3.515-4m37.632 35.507a5.563 5.563 0 1 1-11.099-.76 5.572 5.572 0 0 1 5.93-5.174 5.566 5.566 0 0 1 5.169 5.934" fill="#231F20"/>
        <path d="M58.077 133.56c-.16-.213-.304-.44-.465-.64a31.326 31.326 0 0 0-1.73-2.04 28.682 28.682 0 0 0-1.869-1.907c-.637-.626-1.318-1.173-1.994-1.733-.703-.52-1.392-1.053-2.132-1.493-.718-.48-1.487-.827-2.238-1.227-.773-.293-1.572-.653-2.27-.8-.62-.253-1.699-.347-2.606-.48.279.027.072 0 .132.013h-.294l-.303-.013H41.7c-.403-.027-.812.04-1.221.08-.819.053-1.632.293-2.451.467-.805.28-1.625.493-2.412.88-.803.306-1.57.746-2.348 1.146-.759.454-1.52.907-2.25 1.414a30.852 30.852 0 0 0-2.15 1.613c-.7.56-1.381 1.16-2.035 1.773-.649.6-1.318 1.267-1.853 1.867l.163-2.373a28.183 28.183 0 0 0 1.58 2.106 32.402 32.402 0 0 0 1.774 2.04 28.69 28.69 0 0 0 1.911 1.88c.65.614 1.345 1.16 2.033 1.72.716.507 1.418 1.04 2.17 1.454.729.48 1.509.813 2.269 1.2.783.293 1.588.64 2.295.773.368.093.686.227 1.204.267l1.269.16c.81-.027 1.615.04 2.43-.12.815-.054 1.623-.307 2.434-.494.797-.293 1.607-.533 2.384-.906.793-.334 1.55-.774 2.316-1.187.747-.467 1.496-.92 2.212-1.44a34.59 34.59 0 0 0 2.11-1.64c.689-.56 1.355-1.16 1.995-1.787.19-.186.362-.386.548-.573zm4.79 1.733a28.349 28.349 0 0 1-2.15 2.187 40.808 40.808 0 0 1-2.27 1.987 38.707 38.707 0 0 1-2.418 1.813c-.822.573-1.7 1.093-2.574 1.627-.91.466-1.802.973-2.77 1.36-.934.44-1.952.733-2.945 1.066-1.037.24-2.059.52-3.143.6-1.06.174-2.161.094-3.245.094l-1.55-.214c-.433-.04-1.022-.2-1.571-.346-1.155-.254-2.088-.694-3.079-1.08-.93-.467-1.885-.92-2.74-1.494-.895-.52-1.699-1.146-2.52-1.746-.784-.64-1.567-1.294-2.29-1.987-.735-.68-1.437-1.4-2.105-2.147a36.687 36.687 0 0 1-1.934-2.28 30.67 30.67 0 0 1-1.791-2.466c-.493-.76-.4-1.734.163-2.374a34.092 34.092 0 0 1 2.112-2.213 34.857 34.857 0 0 1 2.228-1.987 30.168 30.168 0 0 1 2.378-1.84c.811-.586 1.675-1.12 2.538-1.653.897-.48 1.778-1 2.737-1.4.924-.44 1.932-.76 2.919-1.093 1.028-.254 2.044-.547 3.122-.64.534-.067 1.063-.16 1.611-.134l.816-.013h.803l.153.013c.967.147 1.797.174 2.99.507 1.162.253 2.102.667 3.102 1.053.94.454 1.907.894 2.772 1.454.907.52 1.723 1.133 2.557 1.733.796.64 1.592 1.267 2.328 1.96.751.68 1.466 1.387 2.148 2.133.691.72 1.348 1.48 1.979 2.267a30.74 30.74 0 0 1 1.844 2.48 2.255 2.255 0 0 1-.19 2.76l-.015.013z" fill="#231F20"/>
    </g>
</svg>
