<svg width="168" height="168" xmlns="http://www.w3.org/2000/svg">
    <title>
        pali
    </title>
    <g fill="none" fill-rule="evenodd">
        <path d="M163.964 91.293c0-40.133-33.148-72.666-77.33-72.666-44.183 0-82.67 32.88-82.67 70 0 0 21.779.666 21.779 15.333 0 39.547 30.252 60 68.666 60 38.415 0 69.555-32.533 69.555-72.667" fill="#FFF" fill-rule="nonzero"/>
        <path d="M163.964 91.293c0-40.133-33.148-72.666-77.33-72.666-44.183 0-82.67 32.88-82.67 70 0 0 21.779.666 21.779 15.333 0 39.547 30.252 60 68.666 60 38.415 0 69.555-32.533 69.555-72.667" stroke="#231F20" stroke-width="6.667" stroke-linecap="round" stroke-linejoin="round"/>
        <path d="M108.41 22.84c0 10.44-8.457 18.893-18.889 18.893-10.432 0-18.888-8.453-18.888-18.893 0-10.427 8.456-18.88 18.888-18.88 10.432 0 18.89 8.453 18.89 18.88" fill="#FFF" fill-rule="nonzero"/>
        <path d="M105.393 22.84l-.081-1.12c-.004-.36-.08-.8-.176-1.32-.064-.533-.217-1.12-.41-1.76-.395-1.293-.99-2.853-2.075-4.387a16.121 16.121 0 0 0-4.468-4.373c-.984-.587-2.03-1.173-3.194-1.587-1.134-.48-2.46-.706-3.553-.88-.283-.053-.765-.053-1.143-.08l-.606-.04-.306-.013h.132-.094l-.127.013c-.672.04-1.363.014-2.04.147-1.376.147-2.73.587-4.059 1.12-1.328.56-2.562 1.36-3.733 2.28a17.674 17.674 0 0 0-3.05 3.307c-.86 1.253-1.523 2.653-2.026 4.106-.201.747-.435 1.507-.517 2.187-.066.333-.146.653-.159 1.173l-.045.694-.023.346-.01.174-.007.08-.003.04c.001-.054-.005.186.001-.107.018 1.573.187 3.133.608 4.64.456 1.493 1.079 2.933 1.914 4.24.857 1.293 1.869 2.48 3.029 3.48 1.184.96 2.444 1.813 3.805 2.413.679.294 1.368.574 2.068.774l1.054.28c.348.093.66.106.988.173.565.147 1.498.16 2.292.213l.153.014h.015l.261-.014.521-.026c.347-.04.695-.014 1.032-.08 2.716-.334 5.18-1.307 7.138-2.667a15.927 15.927 0 0 0 4.444-4.653c1.048-1.614 1.59-3.214 1.94-4.534l.225-.933c.059-.293.07-.547.11-.787.035-.226.067-.453.098-.653.03-.2.023-.493.036-.693l.045-1.334-.004.147zm6.031.16l-.088 1.333c-.021.227-.017.427-.063.747-.05.333-.106.68-.166 1.067-.067.386-.123.813-.22 1.226-.108.4-.224.84-.347 1.294-.535 1.786-1.368 3.933-2.85 6.08a22.145 22.145 0 0 1-6.158 6.066c-2.672 1.72-5.952 3.027-9.572 3.44-.45.08-.908.067-1.368.094l-.69.04-.349.013-.444-.013c-.837-.054-1.565-.027-2.646-.2-2.054-.24-3.832-.814-5.699-1.587-1.835-.787-3.55-1.88-5.152-3.16-1.576-1.32-2.967-2.88-4.179-4.587-1.181-1.733-2.097-3.666-2.77-5.693-.639-2.04-.948-4.173-1.019-6.32l.055-1.533c-.006-.427.072-1.014.152-1.587.12-1.173.397-2.2.657-3.24.625-2.053 1.503-4.027 2.656-5.827 1.181-1.76 2.565-3.386 4.161-4.746 1.615-1.32 3.354-2.48 5.223-3.307 1.867-.8 3.799-1.44 5.75-1.693.967-.187 1.94-.2 2.898-.254l.18-.013h.09l.045-.013.208.013.304.013.606.027c.428.027.751.013 1.255.08.98.147 2.032.253 2.876.507.44.12.877.24 1.312.346.423.147.841.307 1.256.454 1.665.586 3.153 1.453 4.519 2.333a22.332 22.332 0 0 1 6.136 6.347c1.444 2.226 2.225 4.426 2.714 6.24.24.92.418 1.733.492 2.466.11.734.186 1.347.186 1.854l.053 1.533-.004.16zm-87.469 82.613s.854-1.306 2.349-3.573c.796-1.147 1.877-2.56 3.072-4.147 1.295-1.48 2.67-3.226 4.427-4.933.426-.427.862-.88 1.306-1.333.475-.414.96-.854 1.454-1.28.493-.44.994-.894 1.504-1.334.542-.426 1.093-.84 1.652-1.266 2.204-1.747 4.777-3.294 7.513-4.72 2.804-1.307 5.79-2.547 9.004-3.227 3.196-.707 6.537-1.067 9.881-.933 3.339.173 6.652.8 9.771 1.853a33.334 33.334 0 0 1 8.605 4.32c2.558 1.813 4.863 3.813 6.688 6.04 1.835 2.2 3.378 4.467 4.467 6.72 1.167 2.227 1.908 4.413 2.48 6.36.515 1.96.868 3.693 1.01 5.147.226 1.44.213 2.586.255 3.36l.046 1.2h-4.667l-.05-1.04c-.043-.68-.031-1.68-.242-2.934-.128-1.253-.45-2.76-.903-4.453-.51-1.68-1.154-3.56-2.176-5.467-.945-1.933-2.294-3.866-3.881-5.76-1.577-1.906-3.58-3.613-5.785-5.146a28.326 28.326 0 0 0-7.42-3.667 31.816 31.816 0 0 0-8.406-1.533c-2.877-.094-5.758.226-8.529.866-2.783.6-5.39 1.707-7.856 2.867-2.408 1.293-4.69 2.667-6.663 4.253-.5.387-.993.774-1.478 1.147-.459.413-.911.827-1.355 1.227-.444.4-.881.786-1.31 1.173-.402.413-.798.827-1.185 1.227-1.592 1.56-2.849 3.186-4.034 4.56-1.068 1.453-2 2.666-2.755 3.746-1.48 2.294-2.325 3.587-2.325 3.587l-4.464-2.907" fill="#231F20" fill-rule="nonzero"/>
        <path d="M75.968 112.493a5.912 5.912 0 0 1-6.303 5.494 5.921 5.921 0 0 1-5.494-6.307 5.914 5.914 0 0 1 6.304-5.493 5.912 5.912 0 0 1 5.493 6.306" fill="#231F20" fill-rule="nonzero"/>
        <path d="M94.075 113.653c-.268-.36-.519-.746-.795-1.093a40.942 40.942 0 0 0-2.096-2.467 38.084 38.084 0 0 0-2.263-2.306c-.773-.747-1.598-1.414-2.42-2.094-.854-.613-1.692-1.28-2.594-1.8-.874-.6-1.814-1.013-2.731-1.493-.947-.36-1.916-.8-2.799-.987-.798-.306-2.065-.413-3.156-.586.278.026.07.013.13.013h-1.483c-.497-.04-1 .04-1.5.107-1.007.053-2 .346-3.001.56-.982.346-1.98.613-2.936 1.08-.976.373-1.906.906-2.848 1.4-.919.546-1.84 1.093-2.722 1.72-.889.6-1.757 1.253-2.596 1.946-.845.68-1.665 1.4-2.454 2.147a34.124 34.124 0 0 0-2.244 2.267l.164-2.374c.55.827 1.233 1.734 1.91 2.56.68.854 1.396 1.667 2.14 2.454.736.8 1.508 1.56 2.306 2.293.786.733 1.626 1.4 2.46 2.067.868.613 1.716 1.266 2.63 1.786.886.574 1.836.987 2.763 1.454.956.36 1.933.786 2.824.96.457.12.867.266 1.476.32l1.548.2c.997-.027 1.99.053 2.99-.134 1-.08 1.989-.373 2.982-.613.973-.347 1.963-.64 2.908-1.107.967-.386 1.885-.933 2.817-1.426.906-.56 1.816-1.107 2.683-1.747a36.588 36.588 0 0 0 2.557-1.973 39.79 39.79 0 0 0 2.414-2.16c.324-.307.621-.654.936-.974zm4.792 1.734a36.505 36.505 0 0 1-2.54 2.586 42.445 42.445 0 0 1-2.69 2.36 45.001 45.001 0 0 1-2.864 2.147c-.974.693-2.01 1.307-3.045 1.933-1.075.56-2.13 1.147-3.27 1.614-1.103.52-2.3.866-3.471 1.266-1.219.267-2.42.614-3.691.707-1.245.2-2.535.107-3.805.12l-1.827-.267c-.527-.04-1.204-.226-1.844-.4-1.339-.306-2.443-.8-3.608-1.253-1.096-.56-2.223-1.08-3.233-1.76-1.056-.627-2.01-1.36-2.983-2.08-.928-.76-1.856-1.52-2.715-2.347a37.345 37.345 0 0 1-2.5-2.533 42.914 42.914 0 0 1-2.3-2.707 38.483 38.483 0 0 1-2.122-2.92c-.494-.76-.4-1.733.162-2.373a36.754 36.754 0 0 1 2.503-2.613 46.096 46.096 0 0 1 2.648-2.374 44.14 44.14 0 0 1 2.824-2.173c.963-.693 1.987-1.32 3.01-1.947 1.06-.573 2.106-1.173 3.237-1.653 1.093-.52 2.28-.893 3.442-1.293 1.212-.294 2.407-.64 3.674-.747.625-.08 1.248-.187 1.888-.16h1.897l.156.013c1.15.174 2.17.2 3.539.6 1.346.294 2.458.787 3.633 1.227 1.105.547 2.243 1.067 3.264 1.733 1.07.6 2.033 1.334 3.02 2.04.94.76 1.883 1.507 2.753 2.334.887.8 1.735 1.64 2.543 2.52.817.866 1.597 1.76 2.344 2.693.761.933 1.45 1.84 2.176 2.933a2.257 2.257 0 0 1-.19 2.76l-.015.014z" fill="#231F20" fill-rule="nonzero"/>
        <path d="M111.97 90.627s11.998-6 30.666-8.894m3.999 15.974s-10.668 6.253-30.667 8.893" stroke="#231F20" stroke-width="4.667" stroke-linecap="round" stroke-linejoin="round"/>
    </g>
</svg>
