<svg width="167" height="168" xmlns="http://www.w3.org/2000/svg">
    <title>
        pan
    </title>
    <g fill="none" fill-rule="evenodd">
        <path d="M163.64 47.627V83.96c0 44.173-35.813 80-80 80-44.179 0-79.996-35.827-79.996-80V47.627c0-24.12 19.55-43.667 43.667-43.667h72.662c24.12 0 43.667 19.547 43.667 43.667" fill="#FFF" fill-rule="nonzero"/>
        <path d="M163.64 47.627V83.96c0 44.173-35.813 80-80 80-44.179 0-79.996-35.827-79.996-80V47.627c0-24.12 19.55-43.667 43.667-43.667h72.662c24.12 0 43.667 19.547 43.667 43.667z" stroke="#231F20" stroke-width="6.667"/>
        <path d="M128.707 41.627S108.533 57.96 83.64 57.96c-24.88 0-45.064-16.333-45.064-16.333S58.76 25.293 83.64 25.293c24.893 0 45.067 16.334 45.067 16.334" fill="#FFF" fill-rule="nonzero"/>
        <path d="M125.08 41.627c-.84-.56-1.68-1.147-2.533-1.667a98.558 98.558 0 0 0-5.174-2.907c-1.76-.893-3.533-1.773-5.346-2.573-.88-.427-1.814-.76-2.72-1.147a40.533 40.533 0 0 0-2.76-1.053c-1.854-.693-3.734-1.24-5.614-1.813-.933-.294-1.893-.48-2.84-.734-.946-.24-1.893-.48-2.866-.626l-2.88-.52-2.827-.32-1.413-.16-1.52-.04-3.054-.107-2.8.093-1.453.054-1.44.16-2.907.32-2.88.52c-.96.146-1.906.386-2.853.626-.96.254-1.907.44-2.853.734-1.867.573-3.76 1.12-5.6 1.813-.934.32-1.854.667-2.76 1.053-.907.387-1.84.72-2.734 1.147-1.8.8-3.573 1.68-5.336 2.573a95.57 95.57 0 0 0-5.178 2.907 75.198 75.198 0 0 0-4.904 3.213v-3.106a75.198 75.198 0 0 0 4.904 3.213c1.689 1.04 3.428 1.987 5.178 2.907 1.763.906 3.536 1.786 5.336 2.573.894.44 1.827.773 2.734 1.147a34.73 34.73 0 0 0 2.76 1.053c1.84.693 3.733 1.24 5.6 1.827.946.28 1.893.48 2.853.72.947.253 1.893.48 2.853.626l2.88.52 2.827.32 1.427.16 1.52.054 2.933.106 2.907-.106L88 55.133l1.453-.16 2.894-.32 2.88-.52c.973-.146 1.92-.373 2.866-.626.947-.24 1.907-.44 2.84-.72 1.88-.587 3.76-1.134 5.614-1.827a34.544 34.544 0 0 0 2.76-1.053c.906-.374 1.84-.707 2.72-1.147 1.813-.787 3.586-1.667 5.346-2.573 1.747-.92 3.48-1.867 5.174-2.907.866-.52 1.693-1.107 2.533-1.653zm4.88 1.56a58.514 58.514 0 0 1-5.067 3.76 90.297 90.297 0 0 1-5.293 3.32 103.65 103.65 0 0 1-5.533 2.893c-.934.48-1.907.867-2.854 1.293-.946.44-1.92.84-2.893 1.214-.987.36-1.947.786-2.947 1.106l-3 .96c-1 .307-2.026.534-3.04.814-1.013.266-2.04.52-3.08.706l-3.106.587-3.16.387-1.574.186-1.586.067-3.187.147-3.147-.147-1.52-.067-1.613-.186-3.213-.387-3.107-.587a39.671 39.671 0 0 1-3.08-.706c-1.013-.28-2.053-.507-3.053-.814l-3-.96c-1-.32-1.96-.746-2.934-1.106a42.655 42.655 0 0 1-2.893-1.214c-.96-.426-1.933-.813-2.853-1.293-1.88-.907-3.728-1.88-5.546-2.893a93.99 93.99 0 0 1-5.293-3.32 61.438 61.438 0 0 1-5.07-3.774l-1.87-1.546 1.87-1.56c1.683-1.4 3.327-2.6 5.07-3.774 1.725-1.173 3.499-2.253 5.293-3.32a105.567 105.567 0 0 1 5.546-2.893c.92-.48 1.893-.853 2.853-1.293.947-.44 1.907-.84 2.893-1.2.974-.374 1.934-.787 2.934-1.107l3-.96c1-.32 2.04-.547 3.053-.813A30.3 30.3 0 0 1 71.04 24l3.107-.6 3.146-.373 1.574-.187 1.6-.08 3.28-.133 3.04.133 1.52.067 1.613.186 3.227.387 3.106.6a30.3 30.3 0 0 1 3.08.707c1.014.266 2.04.493 3.04.813l3 .96c1 .32 1.96.733 2.947 1.107.973.36 1.947.76 2.893 1.2.947.44 1.92.813 2.854 1.293 1.88.907 3.72 1.88 5.533 2.893 1.8 1.067 3.573 2.16 5.293 3.32a62.476 62.476 0 0 1 5.08 3.774l1.867 1.56-1.88 1.56z" fill="#231F20" fill-rule="nonzero"/>
        <path d="M122.28 86.453s-17.307 14-38.64 14c-21.333 0-38.625-14-38.625-14s17.292-14 38.625-14 38.64 14 38.64 14" fill="#FFF" fill-rule="nonzero"/>
        <path d="M118.613 86.453c-.6-.386-1.186-.8-1.786-1.16a79.822 79.822 0 0 0-4.44-2.453 71.517 71.517 0 0 0-4.56-2.187c-.76-.373-1.547-.653-2.32-.973a34.053 34.053 0 0 0-2.36-.893c-1.574-.587-3.187-1.054-4.787-1.547-.8-.24-1.613-.4-2.413-.613a26.62 26.62 0 0 0-2.44-.534l-2.454-.44-2.4-.266-1.2-.134-1.306-.04-2.614-.093-2.36.093-1.24.04-1.226.134-2.467.266-2.453.44c-.827.134-1.627.32-2.44.534-.814.213-1.627.373-2.427.613-1.6.493-3.2.96-4.773 1.547-.8.266-1.587.56-2.36.893-.774.32-1.574.6-2.334.973-1.546.667-3.053 1.414-4.56 2.187a79.453 79.453 0 0 0-4.426 2.453c-1.436.867-2.9 1.8-4.195 2.72v-3.106a68.414 68.414 0 0 0 4.195 2.706c1.44.88 2.933 1.68 4.426 2.467 1.507.76 3.014 1.507 4.56 2.187.76.36 1.56.64 2.334.973.773.32 1.56.627 2.36.88 1.573.587 3.173 1.053 4.773 1.547.8.24 1.613.413 2.427.626.813.2 1.613.4 2.44.52l2.453.44 2.4.267 1.2.133 1.293.054 2.507.08 2.48-.08 1.227-.04 1.24-.134 2.466-.28 2.454-.44c.813-.12 1.626-.32 2.44-.52.8-.213 1.613-.386 2.413-.626 1.6-.494 3.213-.96 4.787-1.547.786-.253 1.573-.56 2.36-.88.773-.333 1.56-.613 2.32-.973a89.57 89.57 0 0 0 4.56-2.187c1.506-.787 2.986-1.587 4.44-2.467.6-.36 1.186-.773 1.786-1.16zm4.907 1.574a49.147 49.147 0 0 1-4.347 3.253c-1.48 1.013-3 1.96-4.546 2.88-1.56.88-3.147 1.72-4.76 2.493-.8.427-1.64.76-2.454 1.134a41.02 41.02 0 0 1-2.493 1.04c-1.667.693-3.387 1.253-5.12 1.786-.853.28-1.747.467-2.627.707-.866.24-1.746.453-2.653.613l-2.68.507-2.72.333-1.36.16-1.373.067-2.747.12-2.707-.12-1.306-.053-1.387-.16-2.8-.347-2.68-.507a30.555 30.555 0 0 1-2.653-.613c-.867-.24-1.76-.427-2.627-.707-1.72-.533-3.44-1.093-5.107-1.786-.853-.32-1.68-.667-2.493-1.04-.827-.374-1.653-.707-2.453-1.134a81.096 81.096 0 0 1-4.774-2.493 90.08 90.08 0 0 1-4.538-2.88 53.076 53.076 0 0 1-4.359-3.267l-1.85-1.56 1.85-1.546a50.4 50.4 0 0 1 4.359-3.28 80.97 80.97 0 0 1 4.538-2.867c1.574-.88 3.147-1.733 4.774-2.507.8-.413 1.626-.746 2.453-1.12.813-.386 1.64-.733 2.493-1.053 1.667-.693 3.387-1.24 5.107-1.787.867-.266 1.76-.466 2.627-.706.88-.227 1.76-.454 2.653-.6l2.68-.52 2.72-.334 1.36-.16 1.373-.066 2.854-.12 2.613.12 1.307.066 1.386.16 2.787.334 2.68.52c.907.146 1.787.373 2.653.6.88.24 1.774.44 2.627.706 1.733.547 3.453 1.094 5.12 1.8.84.307 1.68.654 2.493 1.04.814.374 1.654.707 2.454 1.12 1.613.774 3.2 1.627 4.76 2.507a76.583 76.583 0 0 1 4.546 2.867 51.037 51.037 0 0 1 4.36 3.28l1.854 1.546-1.867 1.574z" fill="#231F20" fill-rule="nonzero"/>
        <path d="M112.16 125.293s-12.773 10.334-28.52 10.334-28.507-10.334-28.507-10.334 12.76-10.333 28.507-10.333c15.747 0 28.52 10.333 28.52 10.333" fill="#FFF" fill-rule="nonzero"/>
        <path d="M108.427 125.293c-.2-.133-.4-.266-.6-.386a63.955 63.955 0 0 0-3.254-1.76 76.483 76.483 0 0 0-3.346-1.574c-1.134-.466-2.267-.946-3.427-1.333-1.147-.413-2.32-.747-3.48-1.107-1.173-.293-2.347-.626-3.533-.826L89.013 118l-1.72-.187-.866-.106-.96-.027-1.934-.053-1.68.053c-.586 0-1.186.04-1.786.12l-1.787.2-1.773.307c-1.2.2-2.36.533-3.534.826-1.173.36-2.333.694-3.493 1.107-1.16.387-2.293.867-3.427 1.333a83.999 83.999 0 0 0-3.333 1.574 54.3 54.3 0 0 0-3.253 1.76 69.077 69.077 0 0 0-3.08 1.933v-3.107a51.05 51.05 0 0 0 3.08 1.934 54.3 54.3 0 0 0 3.253 1.76c1.107.546 2.213 1.093 3.333 1.573 1.134.48 2.267.96 3.427 1.333 1.16.427 2.32.747 3.493 1.107 1.174.293 2.334.64 3.534.827l1.773.32 1.72.186c1.027.174 2.613.12 3.64.187 1.2-.08 2.387-.013 3.573-.187l1.8-.186 1.774-.32c1.186-.187 2.36-.534 3.533-.827 1.16-.36 2.333-.68 3.48-1.107 1.16-.373 2.293-.853 3.427-1.333 1.133-.48 2.24-1.027 3.346-1.573a63.954 63.954 0 0 0 3.254-1.76c.2-.12.4-.254.6-.374zm4.973 1.56a36.53 36.53 0 0 1-3.227 2.48 63.217 63.217 0 0 1-3.373 2.174 68.991 68.991 0 0 1-3.533 1.893c-1.214.573-2.427 1.16-3.694 1.64-1.24.52-2.52.947-3.813 1.347-1.307.36-2.613.746-3.947.986l-2.013.4-2.04.254c-1.36.2-2.747.173-4.12.266-1.533-.106-2.533-.053-4.04-.266l-2.107-.254-2.013-.4c-1.347-.24-2.64-.626-3.947-.986-1.293-.4-2.586-.827-3.826-1.347-1.254-.48-2.467-1.067-3.68-1.64-1.2-.6-2.387-1.227-3.547-1.893a69.09 69.09 0 0 1-3.373-2.174 40.57 40.57 0 0 1-3.24-2.493l-1.8-1.547 1.8-1.56a37.45 37.45 0 0 1 3.24-2.48 69.346 69.346 0 0 1 3.373-2.186 69.197 69.197 0 0 1 3.547-1.88c1.213-.574 2.426-1.16 3.68-1.64 1.24-.534 2.533-.96 3.826-1.36 1.307-.347 2.6-.747 3.947-.987l2.013-.387 2.04-.253a14.78 14.78 0 0 1 2.054-.173l2.16-.094 1.933.094.96.04 1.053.12 2.107.266 2.013.387c1.334.24 2.64.64 3.947.987 1.293.4 2.573.826 3.813 1.36 1.267.48 2.48 1.066 3.694 1.64 1.2.586 2.373 1.226 3.533 1.88 1.147.706 2.28 1.413 3.373 2.186 1.12.76 2.147 1.534 3.24 2.48l1.8 1.56-1.813 1.56z" fill="#231F20" fill-rule="nonzero"/>
    </g>
</svg>
