<svg width="167" height="168" xmlns="http://www.w3.org/2000/svg">
    <title>
        pana
    </title>
    <g fill="none" fill-rule="evenodd">
        <path d="M152.387 30.2c22.653 31.64 10.16 79.373-27.894 106.6-38.053 27.24-87.253 23.667-109.906-7.973-22.64-31.64-10.16-79.374 27.893-106.614C80.533-5.013 129.747-1.44 152.387 30.2" fill="#FFF" fill-rule="nonzero"/>
        <path d="M152.387 30.2c22.653 31.64 10.16 79.373-27.894 106.6-38.053 27.24-87.253 23.667-109.906-7.973-22.64-31.64-10.16-79.374 27.893-106.614C80.533-5.013 129.747-1.44 152.387 30.2z" stroke="#231F20" stroke-width="6.667"/>
        <path d="M97.893 130.587c30.294-21.68 45.854-59.654 33.36-77.36-12.693-17.974-50.186-10.147-79.36 13.026-33.573 26.68-54.346 67.867-47 85 6 14 16.667 12.667 24.334 12.667h90.666s26-.667 26-22c0-25.333-48-11.333-48-11.333" fill="#FFF" fill-rule="nonzero"/>
        <path d="M97.333 128.667s.48-.16 1.414-.467c.906-.307 2.266-.72 4.053-1.213 3.573-.974 8.853-2.267 15.84-3.027 3.493-.347 7.427-.533 11.827-.093 2.213.24 4.52.64 6.933 1.493 2.387.827 4.88 2.16 7.04 4.24l.8.8c.253.293.48.6.707.907l.693.933c.213.333.373.68.573 1.027l.534 1.04c.173.36.28.72.413 1.093.267.733.52 1.467.653 2.307.134.786.347 1.76.334 2.306l.053.96.027.48.013.24c.013.454 0 .2 0 .347l-.013.133a28.528 28.528 0 0 1-.414 4.454c-.546 3.013-1.706 6.12-3.626 8.8-1.894 2.706-4.44 4.933-7.254 6.626-2.813 1.72-5.88 2.92-9.04 3.774-1.586.426-3.2.76-4.84 1.013a37.85 37.85 0 0 1-3.826.4l-.427.013H35.533c-3.76.014-7.533.014-11.333.027-3.96-.027-8.52-.653-12.573-2.933A21.804 21.804 0 0 1 6.373 160c-.706-.867-1.386-1.733-2-2.68l-.893-1.467-.427-.733-.306-.653-.627-1.294-.16-.333-.133-.293-.08-.214-.294-.813c-.44-1.093-.653-2.2-.906-3.293-.4-2.2-.494-4.374-.414-6.494.187-4.24 1.04-8.28 2.16-12.173 1.147-3.907 2.6-7.653 4.24-11.293 3.294-7.294 7.334-14.134 11.827-20.6a160.566 160.566 0 0 1 14.787-18.214c2.653-2.853 5.426-5.546 8.253-8.16a133.332 133.332 0 0 1 4.347-3.84c1.493-1.306 2.88-2.373 4.413-3.626 6.04-4.707 12.387-8.84 19-12.28 6.587-3.454 13.413-6.227 20.36-8.174 6.947-1.92 14.053-3.026 21.12-2.653 3.52.2 7.027.787 10.373 1.947 3.347 1.146 6.52 2.92 9.147 5.306.667.587 1.307 1.32 1.933 1.987l.72.907.36.453.174.227c.2.253.106.16.173.253l.093.133c.96 1.44 1.8 2.947 2.427 4.52 1.28 3.12 1.907 6.347 2.133 9.467.44 6.267-.653 12.107-2.16 17.4a79.314 79.314 0 0 1-5.906 14.373 97.318 97.318 0 0 1-14.574 20.347c-4.733 5.08-8.92 8.56-11.893 10.84a81.899 81.899 0 0 1-3.387 2.493c-.773.547-1.16.827-1.16.827l-1.76-3.533zm-.626.32s.373-.307 1.12-.88a71.478 71.478 0 0 0 3.173-2.56c2.667-2.294 6.573-5.787 10.947-10.76 4.333-4.974 9.24-11.414 13.44-19.56a73.821 73.821 0 0 0 5.466-13.414c1.387-4.853 2.32-10.16 1.934-15.506-.36-5.32-2.174-10.707-6.254-14.374-4.026-3.693-9.933-5.613-16.173-5.84-6.253-.28-12.84.774-19.32 2.64-6.507 1.88-12.96 4.56-19.187 7.907-6.253 3.32-12.28 7.333-17.986 11.867-1.36 1.12-2.934 2.36-4.254 3.546a128.955 128.955 0 0 0-4.093 3.68c-2.707 2.534-5.36 5.147-7.88 7.907a152.494 152.494 0 0 0-14.08 17.6c-4.267 6.227-8.08 12.813-11.107 19.667-3 6.826-5.373 14.066-5.68 21.066-.04 1.734.04 3.427.32 5.027.2.76.334 1.56.627 2.253l.187.534.053.133c-.107-.227.013.04.013.027l.147.32.627 1.306.306.64.32.507.6.987c.427.64.934 1.306 1.427 1.906a14.738 14.738 0 0 0 3.533 2.934c2.64 1.48 5.827 2.04 9.387 2.066 3.76-.013 7.493-.013 11.213-.026h84.414l1-.08c.693-.067 1.4-.147 2.106-.254 1.4-.213 2.774-.506 4.107-.866 2.667-.72 5.16-1.72 7.32-3.027 2.16-1.307 3.96-2.92 5.253-4.773 1.334-1.84 2.107-3.96 2.52-6.134.2-1.106.28-2.226.294-3.346v-.094c0 .054 0-.28.013.094l-.013-.24-.04-.48-.067-.947c-.013-.747-.173-.987-.24-1.44-.053-.4-.227-.84-.387-1.267-.08-.213-.133-.44-.24-.64l-.32-.56c-.106-.186-.2-.4-.306-.573l-.4-.507c-.147-.16-.254-.346-.4-.506l-.467-.44c-2.507-2.387-6.4-3.56-10.067-4.12-3.693-.6-7.306-.654-10.573-.52-6.533.226-11.72 1.08-15.24 1.64-1.76.28-3.093.56-4 .733-.88.173-1.347.267-1.347.267l-.106.026a2.009 2.009 0 0 1-2.374-1.56 1.994 1.994 0 0 1 .734-1.986z" fill="#231F20" fill-rule="nonzero"/>
        <path d="M32.227 30.92C43.493 44.493 63.013 58.4 63.013 58.4" fill="#FFF" fill-rule="nonzero"/>
        <path d="M32.227 30.92C43.493 44.493 63.013 58.4 63.013 58.4" stroke="#231F20" stroke-width="5.333" stroke-linecap="round" stroke-linejoin="round"/>
        <path d="M16.84 49.92c9.56 11.533 26.147 23.333 26.147 23.333" fill="#FFF" fill-rule="nonzero"/>
        <path d="M16.84 49.92c9.56 11.533 26.147 23.333 26.147 23.333" stroke="#231F20" stroke-width="5.333" stroke-linecap="round" stroke-linejoin="round"/>
    </g>
</svg>
