<svg width="168" height="168" xmlns="http://www.w3.org/2000/svg">
    <title>
        pi
    </title>
    <g fill="none" fill-rule="evenodd">
        <path d="M164.013 123.96c0 22.093-17.906 40-40 40h-80c-22.093 0-40-17.907-40-40V80.293c0-22.093 17.907-40 40-40h72.334V27.787c0-13.16 10.666-23.827 23.826-23.827 13.174 0 23.84 10.667 23.84 18.16v101.84" fill="#FFF" fill-rule="nonzero"/>
        <path d="M164.013 123.96c0 22.093-17.906 40-40 40h-80c-22.093 0-40-17.907-40-40V80.293c0-22.093 17.907-40 40-40h72.334V27.787c0-13.16 10.666-23.827 23.826-23.827 13.174 0 23.84 10.667 23.84 18.16v101.84z" stroke="#231F20" stroke-width="6.667" stroke-linecap="round" stroke-linejoin="round"/>
        <path d="M144.84 19.787a4.655 4.655 0 0 1-4.667 4.666 4.663 4.663 0 0 1-4.666-4.666 4.672 4.672 0 0 1 4.666-4.667 4.663 4.663 0 0 1 4.667 4.667m0 16a4.655 4.655 0 0 1-4.667 4.666 4.663 4.663 0 0 1-4.666-4.666 4.672 4.672 0 0 1 4.666-4.667 4.663 4.663 0 0 1 4.667 4.667" fill="#231F20" fill-rule="nonzero"/>
    </g>
</svg>
