<svg width="167" height="168" xmlns="http://www.w3.org/2000/svg">
    <title>
        pilin
    </title>
    <g fill="none" fill-rule="evenodd">
        <path d="M163.347 83.96c0 44.173-35.814 80-80 80-44.187 0-80-35.827-80-80 0-44.187 35.813-80 80-80 44.186 0 80 35.813 80 80" fill="#FFF" fill-rule="nonzero"/>
        <path d="M163.347 83.96c0 44.173-35.814 80-80 80-44.187 0-80-35.827-80-80 0-44.187 35.813-80 80-80 44.186 0 80 35.813 80 80z" stroke="#231F20" stroke-width="6.667"/>
        <path d="M130.44 121.293c0 23.56-21.08 42.667-47.093 42.667-26.014 0-47.094-19.107-47.094-42.667 0-23.573 21.08-42.666 47.094-42.666 26.013 0 47.093 19.093 47.093 42.666" fill="#FFF" fill-rule="nonzero"/>
        <path d="M127.44 121.293c-.107-4.08-.813-8.106-2.147-11.946-1.386-3.827-3.466-7.387-5.946-10.614l-1.96-2.346-2.187-2.16c-.693-.747-1.533-1.347-2.32-2-.8-.654-1.56-1.334-2.44-1.867-3.307-2.453-7.08-4.2-10.92-5.64l-2.933-.96c-1-.253-2-.467-3.014-.707-.493-.106-1-.253-1.493-.333l-1.48-.2c-1.013-.12-1.933-.307-3-.373L84.293 82l-.826-.04h-.2l-.054-.013c-.053 0 .254.013.094.013h-.094l-.386.013-1.547.08c-1.027.067-2.067.027-3.08.187l-3.067.413c-1.026.107-2.013.44-3.026.64-1 .227-2.014.44-2.974.8l-2.933.96-2.84 1.227c-3.68 1.773-7.28 3.867-10.333 6.613-3.067 2.68-5.894 5.694-8.027 9.174-2.133 3.466-3.787 7.213-4.76 11.16-.333 1.96-.813 3.706-.853 6.026l-.107 1.654-.027.413-.013.107c0 .16.013-.174.013-.12v.04l.014.2.026.76.134 3.053a39.899 39.899 0 0 0 3.253 11.76c1.72 3.747 4.147 7.133 6.92 10.213l2.173 2.227 2.387 2.013c.76.707 1.667 1.254 2.507 1.867.853.587 1.693 1.213 2.626 1.693l2.734 1.547 2.866 1.293c.947.48 1.96.774 2.947 1.134.987.333 1.96.76 3 .973l3.067.773c1.013.227 2.04.347 3.053.52l1.533.254c.534.066 1.094.08 1.64.12l3.307.213-.093-.333 4.2-.24c1.4-.134 2.773-.4 4.16-.587 1.386-.2 2.733-.627 4.093-.92.693-.147 1.347-.373 2-.6l1.987-.68.986-.347.96-.426 1.907-.854c1.307-.506 2.453-1.306 3.68-1.96 1.253-.626 2.32-1.52 3.48-2.28 1.187-.733 2.16-1.733 3.253-2.586l.787-.667.733-.747 1.454-1.466c.506-.48.946-1.014 1.36-1.547l1.306-1.613c.454-.52.814-1.107 1.187-1.68l1.133-1.72c.747-1.147 1.28-2.414 1.947-3.614.587-1.226 1.013-2.533 1.533-3.786.414-1.294.734-2.627 1.107-3.934l.64-3.853.2-4.4v.173zm6 .16l-.293 4.4c-.28 1.614-.534 3.24-.867 4.827-.453 1.52-.853 3.053-1.36 4.533-.613 1.454-1.16 2.934-1.853 4.347-.774 1.36-1.44 2.8-2.307 4.093l-1.333 1.947c-.44.64-.867 1.307-1.387 1.88l-1.52 1.8c-.48.6-1 1.187-1.573 1.72l-1.667 1.627-.84.826-.907.734c-1.226.946-2.36 2.026-3.693 2.826-1.307.84-2.533 1.8-3.933 2.48-1.374.694-2.68 1.547-4.134 2.094l-2.133.906-1.067.454-1.106.36-2.2.706c-.734.24-1.467.48-2.227.614-1.507.32-2.987.746-4.52.946-1.52.174-3.04.427-4.573.547l-4.6.173-.094-.333-3.306-.093c-.547-.027-1.094-.014-1.654-.054l-1.746-.213c-1.16-.147-2.334-.24-3.48-.453l-3.374-.72c-4.44-1.147-8.84-2.694-12.84-5.054-1.04-.52-2-1.186-2.96-1.813-.96-.653-1.973-1.24-2.853-2l-2.72-2.187-2.507-2.44c-3.213-3.373-6.053-7.16-8.133-11.4a45.427 45.427 0 0 1-4.107-13.506l-.253-3.547-.053-.893-.014-.227v-.373l.027-.414.08-1.653c0-2.093.493-4.68.893-7.067 1.08-4.64 2.934-9.066 5.36-13.133 2.44-4.08 5.64-7.627 9.147-10.773 3.52-3.174 7.613-5.6 11.84-7.64l3.24-1.414 3.333-1.12c1.107-.4 2.254-.653 3.4-.92 1.147-.24 2.28-.6 3.44-.733l3.48-.493c1.16-.174 2.347-.147 3.507-.227l1.76-.08.44-.027h.36l.213.014.827.04 3.307.16c1.12.08 2.373.293 3.546.453l1.8.253c.587.094 1.147.254 1.72.387 1.147.267 2.294.52 3.427.813l3.333 1.12c4.387 1.654 8.68 3.694 12.467 6.52 1 .627 1.893 1.414 2.8 2.16.907.76 1.84 1.467 2.653 2.347.827.84 1.667 1.667 2.48 2.52l2.24 2.747c2.84 3.786 5.187 7.96 6.747 12.466 1.507 4.507 2.267 9.254 2.32 14v.16z" fill="#231F20" fill-rule="nonzero"/>
        <path d="M110.76 132.547s-.053-.667-.147-1.934c-.013-.626-.133-1.4-.306-2.293-.08-.453-.147-.933-.267-1.44-.133-.507-.293-1.04-.44-1.6-.693-2.227-1.733-4.907-3.6-7.573-1.84-2.654-4.387-5.36-7.72-7.52-1.693-1.027-3.507-2-5.52-2.707-.507-.173-1-.36-1.52-.533-.52-.134-1.04-.267-1.573-.4-1.094-.334-2.08-.36-3.134-.56-.52-.094-1.24-.08-1.866-.12l-.96-.04-.48-.027h.106-.053l-.107.013-.226.014c-1.147.066-2.334.04-3.494.266-2.36.267-4.693 1.014-6.96 1.96-2.293.934-4.426 2.294-6.44 3.854-1.986 1.626-3.746 3.546-5.266 5.666-1.494 2.16-2.64 4.56-3.52 7.067-.347 1.293-.747 2.587-.907 3.827-.293 1.146-.307 2.786-.427 4.213v-.067.054l.014.133v.253l.026.507.027 1c-.013.68.093 1.347.187 2.013.12 1.347.466 2.654.773 3.96.773 2.587 1.853 5.08 3.28 7.347 1.48 2.227 3.2 4.293 5.2 6.027 2.027 1.68 4.2 3.173 6.56 4.24 2.333 1 4.853 1.826 7.2 2.106 1.12.254 2.52.267 3.8.347l.253.013.12.014h.054c.04 0-.147-.014-.04-.014l.453-.026.907-.04c.586-.054 1.2-.04 1.773-.134 4.707-.586 8.96-2.293 12.347-4.64a27.81 27.81 0 0 0 7.666-8.04c1.8-2.8 2.747-5.573 3.347-7.84.133-.573.267-1.12.387-1.64.106-.506.133-.96.2-1.4.066-.426.12-.826.173-1.186.04-.374.027-.8.053-1.134.04-1.386.067-2.12.067-2.12v.134zm5.32.133s-.04.733-.147 2.12c-.026.347-.026.707-.093 1.173-.08.48-.16 1-.253 1.56-.107.547-.187 1.16-.32 1.787-.174.6-.347 1.24-.534 1.907-.8 2.68-2.053 5.88-4.28 9.08-2.186 3.186-5.226 6.426-9.213 9.026-3.987 2.547-8.88 4.48-14.267 5.094-.666.093-1.346.08-2.04.12l-1.026.053-.52.013-.587-.013c-1.32-.08-2.56-.053-4.067-.32-2.946-.347-5.653-1.227-8.413-2.36-2.733-1.147-5.293-2.773-7.693-4.653-2.374-1.934-4.467-4.24-6.28-6.8-1.774-2.587-3.16-5.454-4.187-8.48-.427-1.534-.88-3.067-1.093-4.654-.134-.8-.28-1.586-.307-2.386l-.08-1.2-.04-.6-.013-.307-.014-.147-.013-.066v-.214c.08-1.52.013-2.853.293-4.6.174-1.706.587-3.24.96-4.8.934-3.093 2.227-6.053 3.947-8.746 1.76-2.667 3.827-5.107 6.213-7.174 2.414-2 5.014-3.76 7.827-5.013 2.813-1.213 5.72-2.16 8.653-2.533 1.454-.294 2.92-.294 4.36-.387l.267-.013.133-.014h.08l.227.014.48.026.973.054c.667.053 1.227.026 1.96.146 1.44.227 2.96.374 4.24.774.667.173 1.32.346 1.974.52l1.88.68c2.493.893 4.706 2.213 6.76 3.546a33.14 33.14 0 0 1 9.16 9.547c2.16 3.32 3.306 6.627 4.04 9.333.16.694.32 1.347.453 1.96.133.614.187 1.2.267 1.747.16 1.08.266 2 .266 2.76.054 1.507.08 2.307.08 2.307l-.013.133z" fill="#231F20" fill-rule="nonzero"/>
        <path d="M148.013 75.853l-11.24 8.76M119.787 47.64l-6.36 13.653M83 37.453V52.88m-36.453-5.24l6.36 13.667M18.32 75.867l11.253 8.76" stroke="#231F20" stroke-width="5.333" stroke-linecap="round" stroke-linejoin="round"/>
    </g>
</svg>
