<svg width="168" height="168" xmlns="http://www.w3.org/2000/svg">
    <title>
        pimeja
    </title>
    <g fill="none" fill-rule="evenodd">
        <path d="M157.91 77.384c0 40.747-33.028 73.774-73.763 73.774-40.748 0-73.777-33.027-73.777-73.774 0-40.733 33.03-73.76 73.777-73.76 40.735 0 73.763 33.027 73.763 73.76" fill-rule="nonzero" fill="#FFF"/>
        <path d="M10.372 76.96c0-40.507 32.848-73.334 73.342-73.334 40.507 0 73.327 32.827 73.327 73.333" stroke="#231F20" stroke-width="6.667" stroke-linecap="round" stroke-linejoin="round"/>
        <path d="M107.222 96.892c0-15.6 12.659-28.253 28.263-28.253 15.605 0 28.25 12.653 28.25 28.253l-.057 27.067c0 22.094-17.902 40-39.991 40H43.675c-22.09 0-39.992-17.906-39.992-40V96.892c0-15.6 12.659-28.253 28.25-28.253 15.604 0 28.249 12.653 28.249 28.253 0-12.987 10.544-23.52 23.527-23.52s23.513 10.533 23.513 23.52" fill-rule="nonzero" fill="#FFF"/>
        <path d="M107.222 96.892c0-15.6 12.659-28.253 28.263-28.253 15.605 0 28.25 12.653 28.25 28.253l-.057 27.067c0 22.094-17.902 40-39.991 40H43.675c-22.09 0-39.992-17.906-39.992-40V96.892c0-15.6 12.659-28.253 28.25-28.253 15.604 0 28.249 12.653 28.249 28.253 0-12.987 10.544-23.52 23.527-23.52s23.513 10.533 23.513 23.52z" stroke="#231F20" stroke-width="6.667" stroke-linecap="round" stroke-linejoin="round"/>
        <path d="M124.707 72.714l-3.61-1.88-3.665-2.133-3.498-2.266-3.388-2.44-3.276-2.587-3.152-2.734-2.999-2.893-2.873-3.04-2.722-3.173-2.54-3.307-2.36-3.44-2.194-3.56-1.971-3.693-1.736-3.787-1.527-3.907-1.277-3.986h3.832l-1.278 3.986-1.513 3.907-1.763 3.787-1.972 3.693-2.18 3.56-2.373 3.44-2.541 3.307-2.707 3.172-2.874 3.04-3.013 2.894-3.137 2.734-3.277 2.586-3.387 2.44-3.513 2.267-3.596 2.107-3.72 1.933a2.681 2.681 0 0 1-3.61-1.133 2.673 2.673 0 0 1 1.138-3.6c.014 0 .028-.014.042-.014l.139-.067 3.512-1.732 3.443-1.92 3.346-2.068 3.235-2.226 3.152-2.387 3.012-2.52 2.902-2.68 2.763-2.8 2.624-2.946 2.47-3.066 2.292-3.2 2.124-3.321 1.916-3.427 1.735-3.533 1.5-3.626 1.277-3.721a2.015 2.015 0 0 1 2.568-1.254 2.03 2.03 0 0 1 1.264 1.254l1.277 3.72 1.5 3.627 1.72 3.533 1.93 3.427 2.125 3.32 2.29 3.2 2.472 3.067 2.61 2.946 2.776 2.8 2.888 2.68 3.027 2.52 3.151 2.387 3.235 2.226 3.346 2.068 3.387 1.88 3.638 1.799a2.67 2.67 0 0 1-2.36 4.787.102.102 0 0 1-.056-.027" fill-rule="nonzero" fill="#231F20"/>
        <path d="M30.496 68.324C34.732 42.78 56.94 23.3 83.703 23.3c26.805 0 49.055 19.573 53.235 45.212" stroke="#231F20" stroke-width="5.333" stroke-linecap="round" stroke-linejoin="round"/>
    </g>
</svg>
