<svg width="168" height="168" xmlns="http://www.w3.org/2000/svg">
    <title>
        pini
    </title>
    <g fill="none">
        <path d="M110.765 151.628c24.668 10.666 50.666 12.332 50.666 12.332s11.006-64.332-12.01-88.985h-130.7C-4.31 99.628 6.694 163.96 6.694 163.96s25.998-1.666 50.667-12.332h53.403" fill="#FFF"/>
        <path d="M110.265 154.292l-52.908.227 1.157-.24-6.217 2.453-3.116 1.214-3.177 1.026c-2.129.668-4.227 1.348-6.37 2l-6.433 1.654c-1.08.267-2.144.56-3.24.76l-3.254.68-3.255.666-3.285.547-3.27.548-3.317.44c-2.206.305-4.38.532-6.68.72a2.97 2.97 0 0 1-3.192-2.468v-.052c-.34-1.987-.602-3.894-.849-5.84a185.318 185.318 0 0 1-.663-5.8c-.4-3.881-.694-7.76-.91-11.654-.4-7.774-.416-15.587.093-23.414.138-1.959.277-3.92.509-5.866.2-1.96.493-3.92.756-5.866.323-1.947.647-3.908 1.095-5.84.37-1.947.894-3.881 1.403-5.8l.88-2.882 1.002-2.84c.324-.959.756-1.878 1.157-2.825a28.13 28.13 0 0 1 1.28-2.76c.88-1.84 1.944-3.614 3.07-5.348.602-.839 1.172-1.72 1.836-2.533l2.02-2.4c.556-.666 1.358-1 2.16-1.013h.17l65.356-.093 32.67-.054 32.687.067h.154c.895 0 1.697.413 2.237 1.04l2.036 2.4c.632.826 1.203 1.693 1.82 2.548 1.141 1.732 2.206 3.506 3.07 5.346.478.92.925 1.84 1.295 2.773.37.946.818 1.867 1.126 2.826l1.018 2.854.849 2.88c.524 1.919 1.049 3.853 1.434 5.8.432 1.946.74 3.893 1.08 5.84.262 1.96.555 3.907.74 5.866.232 1.96.37 3.921.51 5.88.509 7.827.478 15.64.061 23.414a245.62 245.62 0 0 1-.925 11.654 185.314 185.314 0 0 1-.664 5.8 217.163 217.163 0 0 1-.848 5.84l-.015.04c-.247 1.533-1.65 2.585-3.147 2.466-2.314-.2-4.489-.427-6.695-.734l-3.316-.452-3.255-.56-3.285-.574-3.255-.68-3.255-.694c-1.08-.213-2.144-.506-3.224-.785l-6.432-1.682c-2.144-.666-4.273-1.359-6.417-2.039l-3.193-1.041-3.039-1.213-5.63-2.227zm1.481-5.146l6.124 2.32 3.054 1.16 3.054.92 6.078 1.84 6.247 1.533c1.049.253 2.082.52 3.131.706l3.178.628 3.147.613 3.193.507 3.177.492 3.193.415c2.098.28 4.273.492 6.324.666l-3.177 2.493c.278-1.8.54-3.706.771-5.573.232-1.88.447-3.76.633-5.653.354-3.773.632-7.56.817-11.347.37-7.586.37-15.16-.154-22.68-.154-1.88-.293-3.76-.525-5.613-.185-1.866-.478-3.72-.725-5.573-.339-1.84-.632-3.68-1.064-5.495-.355-1.812-.848-3.598-1.342-5.386l-.802-2.625-.926-2.589c-.277-.865-.694-1.678-1.033-2.519-.34-.84-.725-1.653-1.141-2.454-.787-1.626-1.728-3.147-2.7-4.612-.524-.72-1.003-1.455-1.542-2.133l-1.697-1.987 2.39 1.026-32.685.066-32.67-.052-65.357-.094 2.329-1.014-1.697 2c-.555.681-1.049 1.428-1.558 2.134-.956 1.48-1.897 3.014-2.684 4.64-.416.8-.817 1.6-1.141 2.454-.355.84-.756 1.652-1.034 2.52l-.925 2.586-.802 2.64c-.479 1.787-.972 3.573-1.342 5.4-.417 1.8-.71 3.654-1.034 5.494-.262 1.853-.555 3.693-.74 5.573-.232 1.853-.355 3.733-.51 5.613-.508 7.52-.524 15.106-.138 22.68.185 3.787.463 7.574.833 11.347.2 1.892.4 3.773.632 5.653.247 1.867.494 3.773.787 5.573L6.5 160.92c2.051-.16 4.226-.375 6.324-.668l3.193-.413 3.178-.52 3.162-.52 3.162-.64 3.147-.64c1.049-.199 2.098-.48 3.131-.733l6.247-1.56 6.14-1.88 3.07-.947 2.992-1.146 5.97-2.28.138-.067a2.97 2.97 0 0 1 1.003-.173l53.417.227c.34 0 .648.066.941.172l.031.014z" fill="#231F20"/>
        <path d="M21.71 130.454s.014-.214.043-.6c.03-.414.103-1 .191-1.72.177-1.453.5-3.507.986-5.947.25-1.227.529-2.546.897-3.92.338-1.4.764-2.84 1.205-4.333.427-1.508 1.03-3.013 1.559-4.573.618-1.52 1.22-3.081 1.926-4.601.765-1.506 1.397-3.053 2.265-4.48.823-1.439 1.617-2.88 2.544-4.16.882-1.32 1.735-2.6 2.72-3.706.941-1.12 1.735-2.253 2.706-3.134.897-.906 1.72-1.747 2.455-2.48.81-.693 1.53-1.253 2.118-1.733 1.161-.947 1.838-1.494 1.838-1.494a2.672 2.672 0 0 1 3.75.4 2.662 2.662 0 0 1-.412 3.747c-.015.013-.015.026-.015.026l-.265.2s-.603.455-1.647 1.268c-.529.413-1.161.907-1.896 1.466-.662.653-1.427 1.373-2.25 2.173-.868.747-1.632 1.76-2.515 2.734-.882.973-1.69 2.12-2.529 3.307-.897 1.147-1.632 2.453-2.44 3.76-.839 1.28-1.471 2.733-2.206 4.094-.706 1.4-1.294 2.866-1.927 4.265-.514 1.468-1.132 2.868-1.558 4.28-.471 1.4-.927 2.76-1.25 4.068-.397 1.306-.677 2.559-.97 3.706-.516 2.32-.868 4.267-1.06 5.614a83.502 83.502 0 0 0-.22 1.559c-.044.36-.059.56-.059.56l-.015.041a1.993 1.993 0 0 1-2.205 1.773c-1.074-.133-1.868-1.094-1.765-2.16m120.737.346s-.015-.2-.061-.56c-.046-.345-.107-.865-.214-1.56a73.67 73.67 0 0 0-1.087-5.612c-.275-1.148-.55-2.4-.933-3.707-.352-1.306-.795-2.666-1.254-4.068-.444-1.412-1.04-2.811-1.576-4.278-.627-1.4-1.224-2.867-1.927-4.267-.75-1.36-1.377-2.813-2.203-4.094-.796-1.306-1.56-2.612-2.432-3.76-.842-1.187-1.637-2.333-2.555-3.306-.872-.974-1.622-1.987-2.494-2.733-.826-.8-1.575-1.52-2.264-2.174-.719-.56-1.361-1.054-1.881-1.467-1.056-.812-1.668-1.267-1.668-1.267l-.214-.186a2.646 2.646 0 0 1-.49-3.733 2.645 2.645 0 0 1 3.733-.48c.015 0 .046.026.046.026s.673.547 1.851 1.494c.581.479 1.3 1.039 2.096 1.733.75.733 1.575 1.573 2.478 2.48.948.88 1.76 2.013 2.708 3.133.963 1.108 1.805 2.387 2.707 3.707.934 1.28 1.698 2.72 2.525 4.16.887 1.427 1.53 2.973 2.294 4.48.704 1.52 1.285 3.08 1.912 4.6.536 1.56 1.132 3.066 1.56 4.572.46 1.495.888 2.935 1.194 4.334.382 1.374.643 2.694.918 3.921.49 2.44.81 4.493.979 5.946a34.7 34.7 0 0 1 .183 1.72c.031.387.062.601.062.601a2.001 2.001 0 0 1-1.82 2.16 2.013 2.013 0 0 1-2.173-1.76v-.054" fill="#231F20"/>
        <path d="M124.077 3.959c-22.091 0-39.992 17.853-40.008 39.893 0-22.04-17.9-39.893-40.007-39.893-22.092 0-39.993 17.867-39.993 39.906 0 22.054 17.901 39.92 39.993 39.92 1.818 0 3.59-.133 5.345-.36v45.933c0 19.107 15.514 34.6 34.662 34.6 19.15 0 34.662-15.493 34.662-34.6V83.426a41.92 41.92 0 0 0 5.346.359c22.091 0 39.992-17.866 39.992-39.92 0-22.04-17.9-39.906-39.992-39.906" fill="#FFF"/>
        <path d="M124.064.63l4.427.212 4.365.667c1.435.373 2.885.706 4.304 1.12 1.388.507 2.777.973 4.134 1.547 1.327.654 2.7 1.226 3.98 1.973 1.25.786 2.576 1.453 3.748 2.36 2.407 1.72 4.674 3.626 6.68 5.8 1.002 1.094 2.02 2.173 2.854 3.387l1.326 1.773c.417.614.787 1.254 1.172 1.88l1.142 1.907.972 1.987c.308.68.648 1.332.94 2.013l.757 2.08c.231.706.54 1.386.71 2.106l.555 2.148c.431 1.386.617 2.932.833 4.453.277 1.586.277 2.88.37 4.253l.03 1.013.016.267.015.12v.307l-.046.561-.108 2.199c-.03 1.48-.324 2.934-.555 4.387-.17 1.467-.633 2.88-1.003 4.307-.786 2.84-1.928 5.587-3.27 8.186-.648 1.334-1.512 2.533-2.252 3.8-.802 1.227-1.759 2.36-2.638 3.533-.941 1.12-1.974 2.174-2.946 3.254-1.096.987-2.175 1.973-3.301 2.92-1.188.853-2.345 1.774-3.58 2.573-1.264.72-2.467 1.56-3.81 2.187-2.606 1.307-5.337 2.4-8.175 3.147-1.435.32-2.792.76-4.32.905-1.48.189-3.069.482-4.35.468l-2.05.08-.51.014-.262.012h-.262l-.155-.012-1.08-.054c-1.48-.026-2.9-.24-4.334-.4l3.008-2.64.34 25.08.092 12.534c-.031 4.226.231 8.212-.216 12.919-.494 4.533-1.851 9-4.01 13.027a38.019 38.019 0 0 1-8.439 10.72 38.19 38.19 0 0 1-11.662 7.067c-1.08.386-2.144.84-3.27 1.08l-1.666.426c-.54.16-1.095.28-1.697.36-1.172.16-2.437.4-3.501.48l-3.301.173a38.607 38.607 0 0 1-13.436-2.519 38.007 38.007 0 0 1-11.662-7.068 38.296 38.296 0 0 1-8.438-10.72c-.478-1.027-1.003-2.052-1.45-3.092l-1.172-3.227-.849-3.334c-.231-1.12-.37-2.334-.54-3.506a11.162 11.162 0 0 1-.154-1.654l-.062-1.56-.03-.786-.031-.547v-.4l.015-1.56.062-6.28.092-12.533.324-25.08 3.024 2.64c-1.095.12-2.237.28-3.27.346l-1.512.08-.756.04h-.293l-.216-.012-.401-.014-3.224-.12c-1.08-.067-2.129-.267-3.209-.4-4.257-.694-8.468-1.906-12.31-3.933-3.856-1.973-7.48-4.428-10.597-7.454a46.36 46.36 0 0 1-7.929-10.306C3.974 60.456 2.51 56.335 1.6 52.029l-.54-3.36c-.17-1.12-.139-2.04-.232-3.067l-.092-1.52v-.359l.015-.215.016-.4.046-.826c.062-1.08.062-2.186.2-3.266.463-4.347 1.682-8.6 3.379-12.627 1.727-4.04 4.196-7.707 7.034-11.026 2.823-3.348 6.294-6.12 10.011-8.401 1.82-1.2 3.841-2.08 5.831-3.013 2.052-.747 4.088-1.547 6.232-2.013l1.589-.4c.54-.12 1.11-.186 1.666-.28 1.11-.147 2.283-.347 3.332-.44L43.109.67l.772-.04h.354l.216.012.401.028 1.636.092c2.19.04 4.334.508 6.478.867 2.114.546 4.227 1.067 6.248 1.907 4.041 1.573 7.898 3.72 11.245 6.48 3.363 2.733 6.386 5.88 8.793 9.48 2.39 3.6 4.257 7.52 5.6 11.627a48.204 48.204 0 0 1 1.881 12.732h-5.337l.2-4.172c.17-1.387.402-2.76.602-4.147.293-1.36.663-2.707 1.003-4.067.416-1.32.925-2.626 1.404-3.946.555-1.28 1.172-2.533 1.758-3.8.679-1.228 1.42-2.414 2.129-3.614.802-1.146 1.635-2.266 2.468-3.4l2.792-3.133c1.034-.96 2.036-1.92 3.085-2.854 1.11-.853 2.221-1.733 3.363-2.546 1.188-.747 2.376-1.52 3.579-2.214 1.265-.612 2.53-1.279 3.794-1.853 1.327-.493 2.638-1.027 3.98-1.467 1.358-.359 2.715-.76 4.104-1.08 1.434-.24 2.915-.493 4.319-.68l3.918-.253h.17zm.17 6.653l-3.919.146-3.424.467c-1.157.227-2.33.547-3.502.813-1.157.347-2.268.787-3.425 1.16-1.11.466-2.19 1.014-3.285 1.494-1.065.572-2.098 1.212-3.132 1.812-1.002.68-1.959 1.415-2.961 2.121l-2.73 2.387-2.484 2.667-2.222 2.892c-.617 1.041-1.295 2.053-1.912 3.107-.525 1.093-1.111 2.16-1.59 3.28-.416 1.147-.878 2.267-1.249 3.427-.293 1.174-.648 2.346-.91 3.534-.17 1.212-.385 2.412-.555 3.613l-.2 3.652v.08a2.687 2.687 0 0 1-2.824 2.521c-1.388-.08-2.468-1.226-2.514-2.6-.093-3.76-.663-7.507-1.759-11.093-1.172-3.574-2.915-6.946-5.075-10-2.16-3.067-4.859-5.707-7.805-7.974-2.946-2.306-6.325-3.986-9.795-5.267-1.713-.692-3.533-1.08-5.322-1.52-1.851-.252-3.656-.64-5.523-.627l-1.388-.052-.355-.014-.17-.014h-.123c-.046 0 .293-.012.124 0l-.756.04-3.008.16c-.957.094-1.774.267-2.654.401-.447.08-.879.107-1.31.213l-1.343.36c-1.82.387-3.532 1.093-5.26 1.72-1.65.813-3.363 1.547-4.89 2.573-3.131 1.934-6.016 4.307-8.422 7.106-2.391 2.788-4.52 5.868-5.986 9.268-1.45 3.386-2.483 6.946-2.915 10.625-.139.921-.123 1.84-.185 2.762l-.046.692-.016.347v.267l-.015.04v-.12l.061 1.507c.062.986.047 2.08.17 2.96l.386 2.626c.71 3.586 1.913 7.146 3.625 10.44a40.254 40.254 0 0 0 6.617 8.92c2.638 2.654 5.723 4.8 9.01 6.56 3.27 1.801 6.894 2.893 10.55 3.628.941.132 1.836.345 2.777.425l2.807.187.617.054.756-.026 1.512-.028c.987-.04 1.836-.146 2.761-.213l.14-.014a2.69 2.69 0 0 1 2.868 2.507v.147l.34 25.08.092 12.534.046 6.28v1.999c0-.053.016.2 0-.107l.016.094v.2l.062.786.092 1.561.031.787c.03.253.077.452.108.68.185.893.278 1.759.478 2.666l.725 2.747.987 2.666c.386.866.833 1.707 1.234 2.56a31.369 31.369 0 0 0 7.035 8.84c5.676 5.026 13.189 7.826 20.763 7.826l2.977-.146c.987-.08 1.79-.267 2.7-.388a6.775 6.775 0 0 0 1.341-.265l1.373-.36c.941-.187 1.805-.56 2.7-.868a31.429 31.429 0 0 0 9.672-5.798c5.707-4.974 9.548-12.068 10.474-19.614.432-3.6.262-8 .34-12.146l.107-12.534.309-25.08a2.715 2.715 0 0 1 2.73-2.668l.185.014.108.014c1.28.093 2.56.253 3.826.24l.94.013h.171l.031.014h-.108l.247-.026.524-.028 2.037-.133c1.434-.027 2.53-.333 3.748-.52 1.188-.134 2.437-.573 3.64-.88 2.438-.707 4.783-1.68 7.02-2.84 1.125-.56 2.159-1.307 3.239-1.933 1.049-.694 2.02-1.52 3.039-2.254.94-.84 1.85-1.706 2.776-2.56.818-.946 1.697-1.853 2.484-2.826.74-1.026 1.542-2 2.206-3.067.617-1.094 1.342-2.12 1.866-3.267 1.11-2.24 2.036-4.586 2.669-6.999.293-1.228.663-2.414.787-3.666.17-1.24.416-2.467.4-3.735l.078-1.867.03-.465v-.095c0-.16.016.187.016.135l-.015-.12-.016-.254-.046-1.027c-.093-1.347-.108-2.8-.355-3.893-.185-1.173-.308-2.334-.694-3.56l-.463-1.813c-.139-.6-.416-1.174-.617-1.76l-.632-1.76c-.247-.574-.54-1.12-.802-1.694l-.818-1.68-.972-1.6c-.34-.52-.648-1.08-1.003-1.587l-1.126-1.493c-.694-1.027-1.573-1.933-2.421-2.854-1.682-1.84-3.595-3.466-5.63-4.92-.988-.772-2.099-1.32-3.148-2-1.08-.638-2.252-1.106-3.347-1.68-1.157-.492-2.345-.867-3.502-1.319-1.203-.347-2.422-.627-3.625-.96l-3.702-.573-3.748-.188.17-.012z" fill="#231F20"/>
        <path d="M54.306 48.93s.8-.44 2.266-1.174c.695-.373 1.691-.772 2.764-1.252 1.087-.508 2.326-.961 3.685-1.453 1.344-.521 2.87-.922 4.456-1.4 1.616-.389 3.307-.855 5.09-1.148 1.782-.319 3.64-.64 5.542-.786 1.904-.24 3.837-.226 5.785-.321h.181l.272.013.348.014.694.027 1.39.053 1.39.054 1.465.133c.966.106 1.933.2 2.884.32.922.16 1.828.319 2.734.48 1.782.28 3.474.772 5.09 1.16 1.586.493 3.096.893 4.44 1.413 1.36.494 2.598.947 3.656 1.44 1.072.48 2.008.854 2.748 1.24 1.51.747 2.357 1.2 2.357 1.2a1.998 1.998 0 0 1 .815 2.706 1.996 1.996 0 0 1-2.356.975l-.09-.028s-.862-.267-2.372-.773c-.74-.28-1.661-.533-2.719-.853-1.042-.334-2.25-.613-3.549-.987-1.299-.373-2.749-.613-4.229-.987-1.51-.266-3.096-.612-4.758-.826-.83-.108-1.661-.227-2.522-.334-.83-.08-1.661-.145-2.522-.227l-1.269-.106-1.374-.04c-.891-.026-1.798-.04-2.689-.067-1.767.067-3.55.027-5.286.227-.876.093-1.752.12-2.583.226-.86.108-1.706.213-2.537.32-1.662.24-3.247.547-4.743.815-1.495.373-2.96.613-4.229.986-1.314.36-2.522.64-3.534.973-1.042.32-1.933.546-2.703.853-1.541.533-2.432.814-2.432.814a2.006 2.006 0 0 1-2.522-1.306c-.303-.934.12-1.92.966-2.375" fill="#231F20"/>
    </g>
</svg>
