<svg width="167" height="168" xmlns="http://www.w3.org/2000/svg">
    <title>
        pipi
    </title>
    <g fill="none">
        <path d="M161.9 54.52c7.727 36.027-21.179 72.76-64.563 82.067-43.384 9.306-84.818-12.347-92.545-48.36C-2.935 52.2 25.97 15.467 69.355 6.16c43.384-9.307 84.818 12.347 92.545 48.36" fill="#FFF"/>
        <path d="M158.641 55.227l-.302-1.214c-.2-.8-.462-2-.972-3.506-.948-3.04-2.636-7.44-5.799-12.507a61.359 61.359 0 0 0-5.996-7.867 64.183 64.183 0 0 0-8.681-7.84c-6.699-5.026-15.317-9.426-25.396-12.12-10.066-2.68-21.56-3.586-33.478-2.106-11.889 1.546-24.24 5.386-35.455 12.106C31.381 26.84 21.236 36.347 14.589 48.2c-1.693 2.933-3.064 6.053-4.246 9.227a54.1 54.1 0 0 0-2.632 9.826C7.151 70.6 6.811 74 6.908 77.4c-.024.853.082 1.707.114 2.547.032.866.113 1.693.224 2.493.136 1.587.502 3.413.825 5.187l.577 2.386c.172.827.474 1.627.707 2.44.235.827.501 1.627.817 2.427.313.787.56 1.6.925 2.373 1.286 3.147 2.973 6.134 4.843 8.974a55.835 55.835 0 0 0 6.385 7.96c2.365 2.453 4.881 4.76 7.622 6.786 10.889 8.227 24.099 12.934 37.132 14.454 6.53.76 13.044.813 19.357.173l2.36-.267 2.302-.346c1.507-.187 3.101-.534 4.665-.827 1.475-.267 2.998-.693 4.48-1.027 1.482-.386 2.94-.826 4.393-1.24 11.551-3.573 21.7-9.213 29.784-15.88 8.095-6.68 14.145-14.293 18.15-21.706a63.08 63.08 0 0 0 4.642-10.787 61.272 61.272 0 0 0 2.181-9.667c.768-5.92.456-10.706.064-13.76-.149-1.493-.428-2.813-.589-3.666l-.247-1.307.02.107zm6.538-1.307s.078.453.23 1.307c.151.866.404 2.093.592 3.986.423 3.654.69 8.894-.249 15.534a67.618 67.618 0 0 1-2.556 10.733 69.894 69.894 0 0 1-5.247 11.8c-4.48 8.04-11.132 16.187-19.894 23.213-8.757 7.014-19.61 12.84-31.831 16.587-1.538.44-3.082.893-4.65 1.28-1.592.36-3.126.787-4.793 1.08-1.569.293-3.117.613-4.813.84l-2.5.36c-.83.093-1.661.173-2.495.267-6.67.72-13.57.706-20.516-.054-1.74-.16-3.47-.466-5.213-.72-1.73-.346-3.478-.613-5.205-1.053-3.475-.747-6.912-1.8-10.314-3-6.793-2.467-13.382-5.853-19.399-10.227-3.03-2.146-5.846-4.64-8.504-7.293a58.786 58.786 0 0 1-7.21-8.733c-2.123-3.147-4.045-6.467-5.533-10-.416-.854-.711-1.774-1.071-2.654a32.1 32.1 0 0 1-.95-2.706c-.274-.92-.615-1.827-.824-2.76l-.721-2.88C1.189 87.04.83 85.32.624 83.293a30.224 30.224 0 0 1-.268-2.906C.316 79.44.204 78.48.224 77.52c-.112-3.827.257-7.653.881-11.4a60.81 60.81 0 0 1 2.919-10.987c1.305-3.533 2.827-6.986 4.682-10.226 7.3-13.08 18.341-23.36 30.41-30.52C51.227 7.16 64.45 3.093 77.18 1.44c12.77-1.587 25.134-.653 36.036 2.24 10.914 2.88 20.35 7.653 27.723 13.227a70.944 70.944 0 0 1 9.604 8.706 67.879 67.879 0 0 1 6.69 8.8c3.546 5.694 5.442 10.667 6.503 14.094.568 1.706.867 3.053 1.09 3.946l.333 1.374.02.093z" fill="#231F20"/>
        <path d="M54.84 48.707c0 3.933-2.487 7.12-5.556 7.12-3.068 0-5.555-3.187-5.555-7.12 0-3.92 2.487-7.107 5.555-7.107 3.069 0 5.556 3.187 5.556 7.107m24.668-9.334c0 3.934-2.487 7.12-5.555 7.12-3.068 0-5.556-3.186-5.556-7.12 0-3.92 2.488-7.106 5.556-7.106s5.555 3.186 5.555 7.106m24.669-.88c0 3.92-2.487 7.107-5.556 7.107-3.068 0-5.555-3.187-5.555-7.107 0-3.933 2.487-7.12 5.555-7.12 3.07 0 5.556 3.187 5.556 7.12" fill="#231F20"/>
        <path d="M30.842 91.373s37.776-44.44 103.11-18.213c4.445 76 3.555 91.107 3.555 91.107l-32.445-23.56-15.11 23.12-20-20-19.11 20s-17.333-48-20-72.454" fill="#FFF"/>
        <path d="M33.668 92.28l.488 3.333.859 4.534c.283 1.506.662 3.026.989 4.533.323 1.507.704 3.013 1.084 4.52.728 3.013 1.571 6.013 2.38 9.013.867 3 1.707 6 2.628 8.974a592.46 592.46 0 0 0 5.698 17.84 669.536 669.536 0 0 0 6.183 17.666l-5.546-1.173 19.591-19.533.092-.094a2.61 2.61 0 0 1 3.681 0c.011.014.03.04.041.04l20.472 19.534-5.147.533h.001l15.668-22.747.073-.106a2.605 2.605 0 0 1 3.622-.667c.033.027.072.053.104.08h.001l32.834 23.013-5.285 2.494c.045-1.8.114-3.587.077-5.507l-.035-5.653-.034-5.654-.166-5.693-.676-22.733-2.054-45.507 1.668 2.32h-.004c-8.449-3.387-17.235-5.893-26.194-7.16-8.95-1.28-18.066-1.253-26.956.187-8.89 1.426-17.534 4.32-25.53 8.466a88.776 88.776 0 0 0-11.452 7.147 82.493 82.493 0 0 0-5.248 4.227 63.164 63.164 0 0 0-3.907 3.773zm-4.85-2.64c1.717-1.933 3.418-3.52 5.235-5.133a81.843 81.843 0 0 1 5.6-4.507 89.996 89.996 0 0 1 12.163-7.587C60.304 68 69.5 64.92 78.95 63.4c9.45-1.533 19.123-1.547 28.556-.2 9.446 1.333 18.646 3.973 27.436 7.48h.004a2.591 2.591 0 0 1 1.667 2.267l.003.053 2.725 45.56 1.012 22.827.25 5.706.12 5.734.117 5.746c.065 1.88.025 3.894-.006 5.894a3.302 3.302 0 0 1-3.416 3.173 3.322 3.322 0 0 1-1.857-.667l-.012-.013-32.051-24.093h-.002l3.799-.694-14.552 23.48h-.001l-.09.12a3.26 3.26 0 0 1-4.545.84 3.468 3.468 0 0 1-.512-.426l-19.528-20.48 3.813-.04-18.627 20.453v.013l-.05.04a3.294 3.294 0 0 1-4.677.067 3.278 3.278 0 0 1-.819-1.28c-2.08-5.987-4.03-11.96-5.934-17.973-1.901-6-3.72-12.04-5.435-18.107-.876-3.04-1.676-6.093-2.5-9.133-.768-3.08-1.57-6.134-2.26-9.227-.36-1.547-.721-3.08-1.028-4.64-.308-1.573-.666-3.107-.934-4.68l-.808-4.733-.616-4.8a2.583 2.583 0 0 1 .627-2.027z" fill="#231F20"/>
    </g>
</svg>
