<svg width="167" height="168" xmlns="http://www.w3.org/2000/svg">
    <title>
        poka
    </title>
    <g fill="none" fill-rule="evenodd">
        <path d="M163.483 83.827c0 44.186-35.818 80-80 80-44.183 0-80-35.814-80-80 0-44.187 35.817-80 80-80 44.182 0 80 35.813 80 80" fill="#FFF" fill-rule="nonzero"/>
        <path d="M160.15 83.827l-.033-1.387c-.04-.907 0-2.267-.164-4.027-.216-3.52-.77-8.693-2.521-15.053-1.736-6.347-4.655-13.907-9.701-21.613-5.011-7.68-12.112-15.534-21.53-21.867a78.473 78.473 0 0 0-15.665-8.08c-5.701-2.187-11.888-3.653-18.332-4.427-1.615-.213-3.184-.28-4.813-.413-.855-.027-1.714-.053-2.574-.067l-1.292-.04-1.176.027c-.833.013-1.669.04-2.506.053-.839.027-1.676.12-2.518.174-1.685.093-3.364.346-5.057.546-3.368.52-6.759 1.187-10.09 2.2-1.683.44-3.32 1.067-4.985 1.614-1.626.653-3.297 1.24-4.892 2-12.936 5.746-24.661 15.453-32.828 27.88-8.222 12.373-12.741 27.4-12.657 42.48-.03 15.08 4.543 30.066 12.79 42.386 8.194 12.374 19.906 22.014 32.811 27.694 1.592.773 3.258 1.333 4.879 1.986 1.661.547 3.292 1.16 4.97 1.6 3.32 1 6.698 1.654 10.05 2.174 1.681.213 3.37.466 4.997.56.83.053 1.615.133 2.474.173.87.013 1.738.04 2.604.067 1.588.066 3.289-.054 4.913-.067 1.632-.133 3.263-.213 4.867-.413 6.421-.76 12.588-2.214 18.274-4.387a78.259 78.259 0 0 0 15.628-8.027 77.35 77.35 0 0 0 21.54-21.746c5.063-7.68 8.003-15.227 9.756-21.547a73.192 73.192 0 0 0 2.566-15c.168-1.667.137-3.173.18-4.093l.036-1.454-.002.094zm6.665.08l-.036 1.44c-.044.973-.006 2.306-.187 4.293-.256 3.92-.872 9.48-2.796 16.413-1.907 6.88-5.11 15.094-10.61 23.427a84.026 84.026 0 0 1-23.403 23.627 84.52 84.52 0 0 1-16.992 8.733c-6.186 2.36-12.894 3.947-19.874 4.773-1.742.227-3.513.294-5.286.44-1.796.014-3.535.147-5.41.067-.865-.013-1.733-.04-2.604-.053-.882-.04-1.837-.134-2.756-.2-1.874-.094-3.673-.374-5.508-.6-3.644-.574-7.317-1.28-10.929-2.36-1.824-.48-3.6-1.147-5.405-1.747-1.764-.707-3.574-1.333-5.306-2.16-14.036-6.173-26.752-16.653-35.657-30.093C5.091 116.52.112 100.187.149 83.827c.016-16.374 5.048-32.667 14.04-46 8.932-13.387 21.636-23.8 35.64-29.92 6.982-3.134 14.31-5.094 21.571-6.2 1.824-.227 3.633-.507 5.45-.614.906-.066 1.809-.16 2.711-.186l2.702-.08c.48 0 .824-.027 1.416-.027l1.292.027c.861.026 1.718.04 2.573.066 1.777.134 3.608.214 5.341.44 6.956.8 13.644 2.374 19.814 4.72a84.904 84.904 0 0 1 16.956 8.667 84.252 84.252 0 0 1 23.414 23.533c5.516 8.294 8.739 16.494 10.664 23.36 1.943 6.894 2.579 12.52 2.84 16.347.186 1.907.156 3.373.203 4.36l.04 1.507-.001.08z" fill="#231F20" fill-rule="nonzero"/>
        <path d="M161.692 62s-.508.373-1.459 1.08c-.984.693-2.274 1.76-4.196 3.013-.953.64-2.008 1.334-3.156 2.094-1.15.76-2.433 1.48-3.784 2.293-1.34.84-2.83 1.613-4.397 2.44-.784.413-1.581.853-2.417 1.253-.844.4-1.707.8-2.59 1.2-1.749.854-3.625 1.614-5.57 2.4-1.928.827-3.988 1.48-6.08 2.24-2.098.747-4.298 1.347-6.524 2.04-2.25.587-4.55 1.214-6.904 1.734-2.359.493-4.751 1.066-7.191 1.466-1.219.227-2.444.44-3.676.667-1.235.187-2.476.373-3.721.56-4.984.76-10.058 1.32-15.128 1.813-5.074.454-10.146.8-15.135 1.08-4.987.294-9.981.414-14.743.44a270.4 270.4 0 0 1-13.768-.24c-4.373-.173-8.508-.4-12.324-.72-3.816-.28-7.312-.68-10.406-1.053-3.098-.413-5.795-.84-8.015-1.227-2.22-.413-3.96-.76-5.147-1.066-1.185-.267-1.817-.414-1.817-.414a2.68 2.68 0 0 1-1.99-3.213 2.681 2.681 0 0 1 3.09-2.013l.11.026s.603.12 1.731.334c1.12.24 2.799.48 4.927.826 2.143.307 4.755.64 7.77.947 3.02.28 6.431.56 10.17.787 3.736.24 7.797.386 12.093.48 4.296.106 8.831.093 13.518.053 4.7-.053 9.484-.2 14.417-.52 4.93-.307 9.93-.68 14.908-1.133 4.979-.467 9.947-.974 14.79-1.694 1.213-.173 2.42-.346 3.62-.52 1.193-.213 2.38-.413 3.558-.626 2.368-.374 4.664-.907 6.939-1.374 2.269-.48 4.46-1.08 6.629-1.586 2.13-.64 4.247-1.16 6.248-1.84 1.999-.68 3.975-1.267 5.81-2.027 1.858-.707 3.651-1.387 5.32-2.173.843-.36 1.669-.734 2.474-1.08.8-.374 1.56-.787 2.316-1.147 1.507-.747 2.943-1.427 4.237-2.187 1.299-.746 2.558-1.386 3.648-2.066 1.091-.68 2.094-1.294 2.999-1.867 1.81-1.107 3.256-2.173 4.23-2.813.98-.667 1.502-1.014 1.502-1.014a2.662 2.662 0 0 1 3.705.707 2.67 2.67 0 0 1-.621 3.64" fill="#231F20" fill-rule="nonzero"/>
        <path d="M58.81 7.72s.835.92 2.297 2.547c.361.426.782.786 1.198 1.4.422.586.878 1.213 1.364 1.893.474.667 1.028 1.387 1.512 2.16.446.787.914 1.6 1.402 2.467 1.053 1.68 1.822 3.666 2.768 5.706.473 1.027.788 2.134 1.202 3.227.388 1.107.823 2.24 1.111 3.413l.984 3.56.792 3.68c.287 1.24.49 2.494.68 3.747.185 1.267.433 2.52.568 3.787.3 2.533.596 5.066.759 7.56.229 2.493.298 4.933.433 7.306.067 2.36.157 4.64.179 6.8l.058 6.067.034 12.453.001.04a3.324 3.324 0 0 1-3.325 3.334 3.325 3.325 0 0 1-3.343-3.32v-.054l.175-12.466c.013-1.867.026-3.867.042-6 .015-2.12-.037-4.347-.064-6.667-.092-2.293-.118-4.68-.301-7.08-.115-2.4-.36-4.827-.604-7.24-.108-1.227-.324-2.413-.479-3.613-.161-1.187-.33-2.387-.581-3.534-.23-1.173-.457-2.32-.683-3.466-.289-1.12-.576-2.227-.857-3.307-.248-1.107-.63-2.133-.97-3.147-.36-1.013-.63-2.04-1.043-2.96-.828-1.853-1.488-3.68-2.404-5.186-.422-.774-.826-1.507-1.21-2.214-.406-.68-.846-1.24-1.226-1.826-.386-.56-.747-1.094-1.082-1.587-.294-.493-.79-.947-1.118-1.36-1.435-1.64-2.254-2.573-2.254-2.573a2.68 2.68 0 0 1 .251-3.774 2.68 2.68 0 0 1 3.735.227M80.91 3.053s.865.96 2.377 2.627c.372.453.809.827 1.238 1.453.435.614.906 1.254 1.407 1.96.488.694 1.06 1.427 1.56 2.227.459.813.943 1.667 1.447 2.547 1.088 1.746 1.882 3.8 2.86 5.906.488 1.054.813 2.2 1.241 3.334.4 1.146.85 2.306 1.148 3.52.333 1.213.672 2.44 1.016 3.68.27 1.266.543 2.533.817 3.813.296 1.28.506 2.573.703 3.88.19 1.293.447 2.6.585 3.92.31 2.613.616 5.227.783 7.813.236 2.574.308 5.107.445 7.547.07 2.453.163 4.813.184 7.04.02 2.24.04 4.347.059 6.293l.032 12.88v.04a3.324 3.324 0 0 1-3.325 3.334 3.323 3.323 0 0 1-3.342-3.32v-.054l.176-12.906.043-6.214c.015-2.2-.04-4.506-.068-6.893-.096-2.373-.125-4.853-.313-7.333-.122-2.494-.376-5-.63-7.507-.112-1.267-.336-2.493-.497-3.733-.167-1.24-.343-2.467-.603-3.667a964.678 964.678 0 0 0-.709-3.587l-.89-3.44c-.255-1.133-.654-2.2-1.005-3.253-.376-1.053-.654-2.12-1.084-3.08-.858-1.92-1.542-3.8-2.494-5.36-.438-.8-.856-1.573-1.255-2.307-.423-.693-.879-1.293-1.275-1.893-.401-.587-.777-1.133-1.124-1.64-.308-.52-.82-.987-1.16-1.413C77.773 7.573 76.924 6.6 76.924 6.6a2.661 2.661 0 0 1 .25-3.76 2.666 2.666 0 0 1 3.735.213" fill="#231F20" fill-rule="nonzero"/>
        <path d="M56.483 53.653c0 7.827-6.343 14.174-14.167 14.174S28.149 61.48 28.149 53.653c0-7.813 6.343-14.16 14.167-14.16s14.167 6.347 14.167 14.16zm80-7.666c0 7.826-6.343 14.173-14.167 14.173s-14.167-6.347-14.167-14.173c0-7.814 6.343-14.16 14.167-14.16s14.167 6.346 14.167 14.16z" stroke="#231F20" stroke-width="5.333" stroke-linecap="round" stroke-linejoin="round"/>
    </g>
</svg>
