<svg width="168" height="168" xmlns="http://www.w3.org/2000/svg">
    <title>
        poki
    </title>
    <g fill="none">
        <path d="M16.036 59.387s-2.001 6.213-2.668 40.44c-.675 34.653 31.539 64 70.444 64s71.344-27.574 70.445-64c-.889-36-2.669-40.894-2.669-40.894" fill="#FFF"/>
        <path d="M18.624 60.027l-.17.826c-.142.56-.21 1.32-.325 2.307-.117 1-.262 2.24-.433 3.68-.1 1.533-.215 3.293-.343 5.28l-.414 6.56c-.1 2.4-.135 5-.212 7.787-.07 2.773-.142 5.733-.219 8.853l-.121 4.707.037 2.493c.004.867.107 1.573.152 2.387a53.97 53.97 0 0 0 1.787 9.92 55.261 55.261 0 0 0 4.004 10.08c3.406 6.64 8.361 12.973 14.537 18.36 6.175 5.386 13.59 9.8 21.695 12.773 8.076 2.973 16.93 4.507 25.598 4.44 8.911-.013 17.618-1.56 25.755-4.52 8.115-2.96 15.545-7.333 21.68-12.747 6.137-5.413 10.984-11.813 14.208-18.52 3.223-6.72 4.935-13.693 5.28-20.2.15-1.613.09-3.253.116-4.76l-.145-4.813-.248-8.907-.224-7.813-.406-6.547-.325-5.28c-.17-1.493-.315-2.76-.43-3.786-.234-2.24-.394-2.68-.375-2.734l.598-1.946a2.288 2.288 0 0 1 2.863-1.52 2.28 2.28 0 0 1 1.55 1.64l.273 1.093c.04.187.086.387.137.613.027.174.055.374.087.587l.198 1.467.535 4.066.43 5.4.534 6.72.361 7.827.406 8.893.208 4.814c-.002 1.786.072 3.52-.072 5.333-.315 7.227-2.139 15.027-5.663 22.56-3.523 7.52-8.832 14.707-15.6 20.667-6.747 6-14.873 10.813-23.712 14.066-8.813 3.254-18.439 4.974-27.87 5.014-9.675.04-19.17-1.654-28.026-4.947-8.837-3.267-16.927-8.107-23.688-14.053-6.78-5.92-12.18-12.974-15.89-20.387a61.552 61.552 0 0 1-4.343-11.28 59.606 59.606 0 0 1-1.894-11.173c-.045-.907-.145-1.894-.138-2.72l-.014-2.494.183-4.933c.135-3.147.261-6.133.38-8.933.13-2.8.21-5.427.356-7.854l.541-6.706.451-5.4.583-4.174c.161-1.133.274-2.013.417-2.533l.184-.827a2.67 2.67 0 0 1 3.183-2.013 2.668 2.668 0 0 1 2.028 3.133l-.035.174" fill="#231F20"/>
        <path d="M163.816 40.04c0-19.747-35.817-35.773-80-35.773s-80 16.026-80 35.773c0 12.627 14.612 23.707 36.667 30.08v30.587c0 22.093 17.909 40 40 40h6.666c22.092 0 40-17.907 40-40V70.12c22.055-6.373 36.667-17.453 36.667-30.08" fill="#FFF"/>
        <path d="M167.15 40.04l-.14 1.893-.082.947-.199.92-.418 1.84-.639 1.747-.328.866-.412.814-.844 1.613c-.647 1-1.29 2.013-2.015 2.947-.762.88-1.457 1.853-2.297 2.626-.813.814-1.61 1.654-2.493 2.36-.86.747-1.72 1.48-2.64 2.12-.904.667-1.81 1.334-2.759 1.894-.94.6-1.868 1.213-2.84 1.72-.97.52-1.91 1.106-2.903 1.573-.985.467-1.96.973-2.952 1.427l-2.997 1.293c-1.008.4-2.03.76-3.043 1.147-1.01.386-2.041.706-3.068 1.04-2.042.706-4.124 1.253-6.189 1.853h-.003l1.927-2.56.325 24.187.05 6.04c-.006 1.026-.078 2.146-.118 3.226l-.082 1.614-.231 1.613c-.181 1.08-.256 2.16-.533 3.213l-.791 3.174c-.297 1.04-.71 2.053-1.063 3.08-.333 1.04-.802 2.013-1.276 3-.858 2-2.042 3.84-3.17 5.706-1.286 1.747-2.556 3.52-4.079 5.094-2.967 3.173-6.336 6.026-10.155 8.146-3.792 2.134-7.862 3.84-12.14 4.747-1.04.307-2.216.4-3.32.587l-1.681.253c-.533.053-1.015.053-1.524.093l-1.51.08-.755.04-.378.014-.545.013h-6.047c-1.04-.027-2.165-.107-3.242-.147-.544-.04-1.09-.053-1.632-.106l-1.619-.254c-1.072-.186-2.17-.266-3.22-.573-4.279-.907-8.35-2.613-12.141-4.747-3.818-2.12-7.188-4.973-10.155-8.146-1.523-1.574-2.792-3.347-4.079-5.094-1.126-1.866-2.312-3.706-3.17-5.706-.474-.987-.943-1.96-1.275-3-.355-1.027-.767-2.04-1.063-3.08l-.79-3.174c-.278-1.04-.366-2.2-.547-3.306l-.23-1.667-.073-1.52-.065-1.507-.032-.76-.016-.373-.003-.533.05-6.04.325-24.187 1.927 2.56-.011-.013c-4.915-1.32-9.792-2.907-14.517-4.987-4.707-2.107-9.324-4.6-13.524-7.92-1.007-.907-2.086-1.693-3.023-2.693l-1.443-1.454-1.334-1.586c-1.724-2.174-3.286-4.614-4.216-7.414-.126-.36-.256-.693-.372-1.053l-.268-1.173L.787 43.2l-.112-.587-.036-.466-.147-1.854c-.017-.506-.003-.186-.005-.32l.002-.066.007-.134.013-.28.031-.573.07-1.12c.335-2.973 1.365-5.827 2.79-8.307 1.428-2.48 3.217-4.653 5.153-6.573a44.265 44.265 0 0 1 6.222-5.107c4.357-3.026 9.046-5.333 13.809-7.333 9.57-3.88 19.553-6.293 29.61-7.813a170.425 170.425 0 0 1 15.16-1.56c5.113-.294 10.133-.4 15.218-.254 10.145.267 20.284 1.387 30.263 3.507 4.988 1.067 9.932 2.4 14.788 4.08 4.85 1.707 9.637 3.68 14.202 6.253 4.555 2.56 8.966 5.614 12.674 9.72 1.844 2.04 3.51 4.36 4.722 7.014l.814 2.026c.217.707.413 1.427.61 2.147.154.773.278 1.587.394 2.387l.105 1.866.005.187zm-6.662.2l-.11-1.867c-.098-.426-.167-.84-.242-1.28l-.421-1.453-.575-1.427c-.868-1.88-2.136-3.666-3.63-5.306-2.989-3.294-6.854-6.014-10.975-8.307-4.126-2.293-8.582-4.133-13.128-5.707-4.558-1.56-9.248-2.813-14.002-3.813-9.509-1.987-19.253-3.04-29.013-3.267-4.87-.106-9.813-.04-14.64.227-4.872.267-9.73.747-14.55 1.453-9.623 1.414-19.14 3.694-28.046 7.28-4.417 1.84-8.724 3.947-12.55 6.6-3.837 2.614-7.242 5.787-9.391 9.454C8.156 34.653 7.47 36.6 7.239 38.56l-.04.747-.024.373-.012.187-.007.093-.003.04c-.005-.093.006.267-.012-.187l.122 1.854.03.466.083.334.15.64.127.64.256.72c1.252 3.906 4.322 7.386 7.814 10.32 3.554 2.946 7.68 5.386 11.997 7.453 4.324 2.08 8.85 3.84 13.492 5.307h.01a2.704 2.704 0 0 1 1.929 2.546l-.002.027.326 24.187.049 6.04.001.186.002.094v.053c.004.147-.006-.16-.003-.107l.021.374.044.76.088 1.506.095 1.494.225 1.32c.175.893.223 1.746.483 2.653l.715 2.693c.266.88.641 1.747.95 2.614.29.88.71 1.706 1.127 2.546.748 1.694 1.797 3.24 2.768 4.814l1.675 2.213c.522.773 1.226 1.387 1.828 2.093 2.54 2.68 5.406 5.107 8.662 6.88 3.23 1.787 6.678 3.24 10.304 3.987.89.253 1.823.293 2.731.467l1.37.2c.46.053.923.053 1.386.08.935.04 1.821.106 2.797.12l3.023-.014 3.024.014h.283c.166 0-.174.013-.12 0h.046l.378-.014.754-.04 1.511-.066c.495-.04 1.024-.04 1.492-.094l1.307-.2c.877-.173 1.732-.2 2.632-.453 3.628-.747 7.074-2.2 10.305-3.987 3.255-1.773 6.123-4.2 8.663-6.88.6-.706 1.304-1.32 1.826-2.093l1.676-2.213c.97-1.574 2.02-3.12 2.767-4.814 1.627-3.333 2.801-6.906 3.288-10.6l.225-1.373.086-1.4c.044-.933.128-1.827.149-2.813l.05-6.04.325-24.187v-.027a2.7 2.7 0 0 1 1.926-2.546h.003c1.943-.654 3.905-1.267 5.805-2.027.955-.36 1.918-.707 2.848-1.12.934-.4 1.882-.787 2.803-1.2l2.753-1.293c.907-.44 1.787-.934 2.683-1.387.907-.453 1.732-1.013 2.603-1.507.876-.493 1.68-1.066 2.504-1.613.84-.533 1.61-1.147 2.382-1.747.8-.573 1.523-1.213 2.244-1.853.756-.613 1.391-1.32 2.055-2 .704-.653 1.208-1.427 1.82-2.133.56-.734 1.024-1.507 1.513-2.267l.595-1.187.3-.6.21-.613.44-1.213.254-1.24.137-.627.034-.627.088-1.253.005.2z" fill="#231F20"/>
        <path d="M129.816 39.107l-.03-.48c0-.32-.07-.787-.211-1.4-.146-.6-.422-1.347-.878-2.2a14.41 14.41 0 0 0-2.094-2.8c-1.859-1.987-4.783-4.054-8.511-5.854-3.73-1.8-8.264-3.373-13.375-4.52-5.104-1.146-10.798-1.906-16.821-2.16a99.227 99.227 0 0 0-18.964 1.04c-6.481 1-13.13 2.667-19.2 5.547-3.023 1.427-5.88 3.227-8.16 5.4-1.13 1.093-2.085 2.293-2.74 3.547-.161.32-.328.64-.435.96-.141.32-.236.64-.316.96-.118.346-.112.573-.181.853-.037.08-.037.373-.052.587l-.036.666c.01-.293.005-.04.01-.093l.003.067.01.12.014.24c.014.16.004.333.046.493.068.32.086.653.201.973.083.32.18.64.323.96.109.32.277.627.441.947.661 1.253 1.623 2.44 2.755 3.52 2.288 2.147 5.146 3.92 8.17 5.32 6.072 2.84 12.714 4.48 19.183 5.427 6.463.96 12.924 1.173 18.905.973 6.027-.213 11.696-.947 16.799-2.067 5.104-1.106 9.635-2.64 13.367-4.413 3.728-1.773 6.656-3.813 8.522-5.787a14.912 14.912 0 0 0 2.107-2.773c.461-.84.743-1.587.892-2.187.26-.88.247-2.093.261-2.026l-.005.16zm5.663.146l-.035.667c.003.307-.113 1.4-.376 2.44-.253 1.04-.71 2.267-1.42 3.573-.727 1.294-1.707 2.64-2.945 3.947-2.478 2.64-5.963 5.027-10.158 7.053-4.2 2.027-9.126 3.72-14.594 4.947-5.468 1.227-11.476 2.027-17.848 2.293a97.075 97.075 0 0 1-4.862.08 91.29 91.29 0 0 1-4.942-.146 104.966 104.966 0 0 1-10.206-1.027c-6.889-1.067-13.98-2.827-20.79-6.04-3.394-1.613-6.726-3.64-9.663-6.44-2.877-2.8-5.49-6.613-5.485-11.653l.038-.68c.019-.24.01-.4.07-.76.096-.614.186-1.294.354-1.8a11.04 11.04 0 0 1 .534-1.6c.192-.534.442-1.014.696-1.507 1.025-1.933 2.377-3.56 3.836-4.96 2.945-2.773 6.278-4.773 9.673-6.36 6.812-3.173 13.896-4.88 20.773-5.907 6.887-1.026 13.622-1.24 19.952-1.026 6.375.226 12.359.986 17.824 2.186 5.462 1.187 10.386 2.84 14.587 4.84 4.195 2.014 7.685 4.374 10.17 6.987a20.15 20.15 0 0 1 2.958 3.92c.713 1.307 1.176 2.52 1.433 3.56.254 1.04.367 1.867.386 2.413l.044.854-.004.146z" fill="#231F20"/>
        <path d="M34.735 38.28s1.488-.36 4.09-.973c1.304-.294 2.887-.667 4.703-1.08 1.795-.467 3.964-.68 6.261-1.054 2.311-.333 4.824-.76 7.472-1.08 2.644-.226 5.432-.466 8.316-.72 1.444-.12 2.912-.226 4.398-.346 1.486-.04 2.992-.094 4.51-.134 3.036-.093 6.12-.173 9.204-.266 3.078.08 6.156.173 9.186.253 1.502.053 2.994.093 4.469.133 1.481.08 2.964.227 4.412.334 2.899.253 5.701.493 8.357.72 2.646.306 5.126.733 7.424 1.053 2.295.373 4.406.587 6.251 1.053 1.847.414 3.457.787 4.783 1.08 2.644.627 4.154.974 4.154.974a2.006 2.006 0 0 1 1.487 2.413 1.995 1.995 0 0 1-2.272 1.507l-.173-.027-4.084-.693c-1.295-.227-2.867-.507-4.67-.827-.894-.187-1.869-.293-2.898-.4-1.026-.12-2.104-.24-3.228-.373-2.251-.24-4.682-.587-7.262-.8-2.581-.174-5.302-.347-8.118-.534-1.411-.08-2.83-.213-4.292-.28l-4.471-.08c-2.985-.066-6.019-.12-9.052-.173-3.027.053-6.053.12-9.033.173-1.491.027-2.968.054-4.43.094-1.454.093-2.893.186-4.306.293-2.831.173-5.567.36-8.16.52-2.574.227-4.974.573-7.21.813-1.116.134-2.186.254-3.204.374-1.018.093-1.988.213-2.908.4-1.833.333-3.432.613-4.749.853-2.636.453-4.143.72-4.143.72h-.012a2.002 2.002 0 1 1-.803-3.92" fill="#231F20"/>
    </g>
</svg>
