<svg width="168" height="168" xmlns="http://www.w3.org/2000/svg">
    <title>
        pona
    </title>
    <g fill="none" fill-rule="evenodd">
        <path d="M147.63 54.827c0 7.546-23.131 13.666-51.666 13.666-28.535 0-51.667-6.12-51.667-13.666 0-7.547 23.132-13.667 51.667-13.667s51.667 6.12 51.667 13.667" fill="#FFF" fill-rule="nonzero"/>
        <path d="M16.817 51.827c-19.333-19.667-6.333-48 15.334-48 17.333 0 28 16.72 28 34.053 0-15.96 8.666-31.56 24-31.56 16.666 0 24 15.6 24 31.56 0-17.333 11.666-34.053 28.333-34.053 15.464 0 27.692 15.36 27.692 32.693l-.025 47.307c0 44.186-35.818 80-80 80-44.183 0-80-35.814-80-80 0 0-.667-37.667 29.333-37.667 25.667 0 33.335 14 56.336 14 22.333 0 34.06-7.387 41.001-12.667" fill="#FFF" fill-rule="nonzero"/>
        <path d="M14.855 53.627c-.83-.88-1.627-1.6-2.491-2.68-.885-1-1.62-2.04-2.36-3.08a36.555 36.555 0 0 1-3.61-6.84A31.573 31.573 0 0 1 4.575 25.6c.722-5.213 2.785-10.267 6.08-14.453 3.26-4.187 7.76-7.507 12.883-9.227 2.553-.88 5.249-1.333 7.928-1.4l.502-.027h.346l.221.014.885.026.444.014.528.053 1.054.093a27.854 27.854 0 0 1 11.325 3.933 30.968 30.968 0 0 1 6.123 5.027c1.797 1.92 3.298 4.067 4.586 6.294a39.333 39.333 0 0 1 3.147 7c.824 2.413 1.379 4.893 1.75 7.4a42.13 42.13 0 0 1 .44 7.533h-5.334c-.144-3.92.276-7.867 1.179-11.72.95-3.853 2.436-7.613 4.613-11.08 2.156-3.467 5.143-6.587 8.819-8.787a22.63 22.63 0 0 1 5.92-2.506 24.365 24.365 0 0 1 6.414-.8l1.388.053 1.66.147a31.2 31.2 0 0 1 3.128.586 23.66 23.66 0 0 1 5.951 2.387c3.74 2.147 6.785 5.307 8.896 8.84 2.14 3.52 3.515 7.347 4.365 11.213a48.438 48.438 0 0 1 1 11.667h-5.333c-.085-6.133 1.081-12.32 3.659-17.96 2.574-5.613 6.465-10.827 11.782-14.48a28.382 28.382 0 0 1 8.798-4.027c1.582-.4 3.196-.68 4.821-.8.83-.04 1.581-.093 2.481-.066l1.092.026 1.302.12c6.614.667 12.637 3.974 17.114 8.48 4.514 4.52 7.651 10.174 9.388 16.174.882 3.013 1.375 6.12 1.539 9.24.028.773.048 1.6.05 2.32l-.002 2.146-.003 4.307-.017 34.44-.003 4.307-.001 1.08-.012 1.146-.055 2.16c-.004 1.4-.144 2.947-.257 4.467-.084 1.533-.323 2.987-.499 4.48-.828 5.92-2.265 11.76-4.364 17.36-4.174 11.213-10.793 21.493-19.233 29.96-8.472 8.44-18.75 15.053-29.964 19.227-11.2 4.173-23.387 5.8-35.208 4.906-12.003-.893-23.695-4.333-34.15-10.186-10.44-5.827-19.645-13.867-26.72-23.52-7.08-9.627-12.08-20.787-14.498-32.507C1.32 94.8.781 88.867.829 82.813c.222-6.106 1.24-12.066 3.286-17.893 2.053-5.747 5.314-11.453 10.389-15.587a26.856 26.856 0 0 1 8.49-4.693c3.067-1.053 6.258-1.52 9.386-1.6 6.007-.107 12.135.653 17.921 2.293 5.824 1.614 11.227 4.147 16.399 6.454 5.175 2.32 10.29 4.226 15.655 5.08a50.14 50.14 0 0 0 8.11.613c2.928 0 5.624-.067 8.387-.333 2.776-.214 5.512-.667 8.23-1.2 2.697-.587 5.373-1.294 7.963-2.24 5.182-1.88 10.047-4.494 14.566-7.814a2 2 0 0 1 2.796.44 1.992 1.992 0 0 1-.358 2.734l-.017.013c-4.583 3.68-9.777 6.84-15.355 8.973-2.782 1.094-5.646 1.934-8.534 2.654-2.9.64-5.824 1.2-8.767 1.506-1.46.2-2.965.28-4.457.4-1.514.134-2.891.12-4.342.187a55.49 55.49 0 0 1-9.052-.533c-6.017-.854-11.78-2.92-17.105-5.2-5.341-2.28-10.425-4.547-15.71-5.907-5.289-1.4-10.68-1.947-16.147-1.84-5.218.133-10.164 1.747-13.988 4.96-3.856 3.173-6.555 7.8-8.3 12.813-1.736 5.027-2.64 10.534-2.787 15.88-.027 5.427.456 10.987 1.567 16.36 2.225 10.774 6.82 21.04 13.336 29.907 6.509 8.88 14.988 16.28 24.589 21.64 9.58 5.373 20.443 8.547 31.321 9.36 11.064.827 22.151-.68 32.482-4.507 10.309-3.84 19.768-9.92 27.568-17.68 7.768-7.8 13.856-17.253 17.696-27.56 1.93-5.16 3.249-10.533 4.012-15.973.158-1.36.388-2.747.454-4.08.099-1.333.234-2.64.24-4.12l.055-2.147.01-1v-1.066l.003-4.307.018-34.44.002-4.307.002-2.16a66.28 66.28 0 0 0-.042-1.986c-.14-2.6-.548-5.2-1.284-7.707-1.444-5-4.072-9.693-7.693-13.307-3.592-3.626-8.253-6.066-13.103-6.626-4.958-.6-10.012.666-14.198 3.493-4.218 2.8-7.628 6.973-9.934 11.72a37.31 37.31 0 0 0-3.772 15.4l-.001.08a2.662 2.662 0 0 1-2.733 2.6 2.673 2.673 0 0 1-2.599-2.68c-.155-3.507-.588-6.973-1.487-10.293-.857-3.307-2.134-6.48-3.924-9.214-1.796-2.706-4.036-5.013-6.74-6.52a17 17 0 0 0-4.313-1.666 22.504 22.504 0 0 0-2.315-.4l-1.097-.107-1.377-.027c-1.428-.013-3.086.147-4.546.534-1.493.373-2.925.96-4.264 1.746-2.692 1.547-4.958 3.907-6.814 6.614-1.85 2.72-3.22 5.853-4.156 9.146-.979 3.267-1.476 6.72-1.634 10.187a2.666 2.666 0 0 1-2.62 2.707 2.668 2.668 0 0 1-2.706-2.56l-.007-.147a43.513 43.513 0 0 0-.759-6.587c-.418-2.16-1.044-4.266-1.796-6.32-1.524-4.08-3.793-7.853-6.726-10.866-2.9-3.04-6.512-5.267-10.472-6.267-.494-.133-.999-.227-1.496-.333-.502-.067-1.026-.16-1.507-.214l-.712-.066-.355-.027-.442-.013-.886-.027h-.277.077-.12l-.382.013c-2.042.04-4.07.36-5.995 1.014-3.856 1.266-7.31 3.746-9.879 6.986a24.871 24.871 0 0 0-4.98 11.334c-.658 4.146-.206 8.453 1.166 12.48.712 2 1.658 3.946 2.789 5.786.596.907 1.196 1.814 1.841 2.614.558.826 1.466 1.76 2.207 2.626l.059.08c.95 1.12.81 2.8-.315 3.747a2.674 2.674 0 0 1-3.67-.213" fill="#231F20" fill-rule="nonzero"/>
        <path d="M34.152 77.827c12.667-7.334 25.667 7.986 50.67 8.546 19.994.44 39.558-13.213 48.998-6.88 12.332 8.267 7.332 49.654-51.335 49.654-58.666 0-59.134-45.067-48.333-51.32" fill="#FFF" fill-rule="nonzero"/>
        <path d="M35.576 80.28c.012.067-.515.213-1.41 1.4-.463.56-.906 1.493-1.369 2.627a20.677 20.677 0 0 0-.961 4.306 28.018 28.018 0 0 0 .035 5.694 30.61 30.61 0 0 0 1.585 6.586c1.61 4.587 4.74 9.307 9.29 13.28 2.315 1.947 4.965 3.72 7.902 5.254 2.935 1.533 6.212 2.693 9.633 3.72 1.746.413 3.487.92 5.323 1.213.912.16 1.819.36 2.75.493l2.815.36c1.894.28 3.776.307 5.692.48.967.067 2.014.054 3.023.08l1.533.04.77.014h.677c3.996-.107 8.065-.187 12.117-.707a72.099 72.099 0 0 0 12.076-2.347c7.9-2.186 15.54-6 21.083-11.893 2.756-2.907 5.036-6.267 6.417-9.96a23.393 23.393 0 0 0 1.478-5.627c.264-1.906.329-3.826.06-5.653-.252-1.827-.78-3.573-1.6-5.027-.384-.733-.946-1.4-1.291-1.786-.047-.094-.27-.267-.485-.44l-.624-.494-.078-.066c-.068-.054.298.226.116.093l-.114-.067-.227-.133a1.96 1.96 0 0 0-.475-.24c-2.626-1.253-6.672-.72-10.437.147-3.83.88-7.676 2.106-11.501 3.213-3.828 1.133-7.651 2.173-11.476 2.947-3.842.773-7.611 1.24-11.456 1.293-3.676 0-7.27-.333-10.65-.853-6.78-1.094-12.728-3.12-17.776-5.014-5.053-1.88-9.322-3.533-12.733-4.186-3.417-.68-5.84-.334-7.388.213-.81.28-1.147.413-1.719.72-.292.16-.493.267-.605.32zm-2.741-4.987s.244-.12.716-.36c.358-.2 1.465-.72 2.612-1.08 2.324-.8 6.105-1.173 10.226-.253 4.146.84 8.572 2.693 13.523 4.56 4.952 1.867 10.497 3.76 16.736 4.787a56.9 56.9 0 0 0 9.804.733c3.255-.08 6.795-.533 10.339-1.293 3.566-.747 7.214-1.8 10.973-2.947 3.767-1.133 7.628-2.413 11.807-3.427 2.096-.493 4.274-.933 6.633-1.08 2.345-.106 4.972 0 7.556 1.174.323.133.636.293.94.48l.459.266.228.134c-.126-.094.302.2.284.2l.078.053.628.493c.206.16.408.307.707.614 1.161 1.12 1.927 2.146 2.579 3.293 1.31 2.267 2.038 4.707 2.405 7.16.377 2.44.321 4.907.01 7.307-.302 2.4-.903 4.76-1.771 7-1.666 4.533-4.378 8.6-7.612 12.08-6.52 7-15.196 11.32-23.839 13.813a78.333 78.333 0 0 1-13.084 2.653c-4.35.587-8.659.774-12.887.814h-.396l-.468-.014-.768-.013-1.533-.04c-1.028-.04-2.015-.04-3.064-.107-2.107-.2-4.239-.266-6.265-.573-1.019-.133-2.034-.28-3.042-.413-1.006-.147-2.002-.374-2.994-.56-1.991-.334-3.923-.894-5.839-1.387-3.795-1.147-7.453-2.48-10.804-4.267-3.345-1.773-6.425-3.826-9.108-6.173-5.312-4.76-8.992-10.467-10.85-16a36.919 36.919 0 0 1-1.795-7.973 33.84 33.84 0 0 1 .061-7.014c.26-2.133.775-4.026 1.359-5.653.673-1.627 1.358-2.987 2.197-4.027.201-.266.376-.52.57-.733.215-.227.417-.427.602-.613.364-.374.699-.68 1.03-.894.626-.426.949-.653.949-.653.014-.013.028-.013.042-.027l.066-.04z" fill="#231F20" fill-rule="nonzero"/>
        <path d="M49.821 97.293s16 10.16 35.667 10.16 30.667-9.706 30.667-9.706" fill="#FFF" fill-rule="nonzero"/>
        <path d="M49.821 97.293s16 10.16 35.667 10.16 30.667-9.706 30.667-9.706" stroke="#231F20" stroke-width="5.333" stroke-linecap="round" stroke-linejoin="round"/>
    </g>
</svg>
