<svg width="167" height="168" xmlns="http://www.w3.org/2000/svg">
    <title>
        sama
    </title>
    <g fill="none" fill-rule="evenodd">
        <path d="M98.268 9.267c10.615-1.907 19.241-5.107 29.504-5.107 14.59 0 21.948 8.28 21.948 18.493 0 10.214-7.847 18.507-21.948 18.507-9.88 0-16.088-4.547-27.017-7.267" fill="#FFF" fill-rule="nonzero"/>
        <path d="M97.756 6.64l1.343-.307c.862-.213 2.19-.48 3.754-.906 1.606-.414 3.555-.92 5.791-1.507 2.275-.587 4.87-1.253 7.787-1.827 2.937-.533 6.166-1.106 9.686-1.2.439-.026.88-.04 1.324-.066h.167l.083-.014h.206l.315.014.632.013c.859.04 1.641.013 2.693.147.995.106 2.012.2 2.968.413l1.466.28 1.468.427c3.91 1.106 7.914 3.373 10.853 6.866 2.936 3.494 4.58 8.08 4.715 12.52l.033.84.008.2.005.107-.006.253-.018.36-.064 1.44c-.149 1.187-.3 2.44-.613 3.494-.564 2.2-1.464 4.333-2.75 6.2-2.505 3.8-6.255 6.533-10.093 8.026-3.848 1.56-7.772 2.054-11.364 2.067l-.337.013h-.27l-.077-.013-.153-.013-.61-.027c-.405-.04-.807-.067-1.206-.093-.795-.054-1.557-.094-2.485-.28-.882-.16-1.747-.307-2.596-.467-.808-.187-1.548-.413-2.3-.627-2.988-.826-5.47-1.866-7.658-2.733-2.148-.867-4.016-1.573-5.529-2.147-1.519-.613-2.73-.92-3.552-1.2-.823-.266-1.261-.413-1.261-.413l-.159-.053a2.669 2.669 0 0 1-1.713-3.36 2.679 2.679 0 0 1 3.16-1.76s.484.12 1.39.333c.896.24 2.268.493 3.91 1.013 1.68.467 3.646 1.12 5.876 1.894 2.197.733 4.641 1.6 7.21 2.24.642.16 1.311.333 1.962.466.625.094 1.262.2 1.91.294.592.133 1.407.146 2.211.186l1.208.04.61.04h.232l.038.014c-.366-.014-.082-.014-.154-.014l.278-.013c2.984-.027 6.057-.56 8.888-1.68 2.837-1.107 5.35-2.973 7.034-5.48.872-1.227 1.471-2.653 1.867-4.133.241-.787.287-1.44.425-2.147l.074-1.427.018-.36.003-.053c.004-.16-.003.173-.003.12l-.004-.067-.008-.146-.03-.614c-.123-3.213-1.283-6.2-3.211-8.493-1.955-2.267-4.66-3.88-7.641-4.72l-1.111-.32-1.144-.24c-.767-.187-1.492-.24-2.216-.333-.661-.12-1.595-.134-2.423-.174l-.632-.026-.314-.014c.234.014.044 0 .086 0l-.036.014h-.221l-1.162.04c-3.075-.027-6.018.413-8.748.813-2.734.48-5.282.973-7.556 1.453-2.279.48-4.294.894-6.003 1.2-1.703.334-2.975.494-3.87.654-.889.133-1.362.213-1.362.213a2.666 2.666 0 0 1-3.057-2.213c-.223-1.387.685-2.707 2.033-3.027" fill="#231F20" fill-rule="nonzero"/>
        <path d="M65.593 34.053c-10.602 2.734-16.825 7.107-26.348 7.107-13.854 0-21.946-8.293-21.946-18.507C17.299 12.44 27.72 4.16 39.245 4.16c8.155 0 17.722 3.24 29.134 5.133" fill="#FFF" fill-rule="nonzero"/>
        <path d="M66.33 36.613s-.45.147-1.291.427c-.814.293-2.142.653-3.57 1.24-.737.28-1.553.587-2.442.933-.918.36-1.91.76-2.97 1.174-2.162.853-4.616 1.88-7.576 2.68-.742.2-1.476.44-2.269.6-.799.146-1.612.293-2.44.44-.821.186-1.692.186-2.561.266l-1.319.08-.333.027-.167.013h-.295l-.605-.013-1.225-.04a13.081 13.081 0 0 1-1.332-.093c-.954-.12-1.976-.16-2.896-.387-.942-.173-1.896-.347-2.844-.653-.475-.147-.954-.267-1.428-.44l-1.415-.56c-.959-.334-1.857-.894-2.792-1.347-.879-.587-1.817-1.093-2.636-1.8-1.72-1.307-3.221-2.96-4.47-4.8-1.273-1.84-2.177-3.933-2.753-6.107-.322-1.08-.461-2.186-.62-3.293-.045-.547-.062-1.107-.089-1.667l-.019-.413-.008-.2.018-.4.042-.707.042-.706c.01-.12.009-.227.026-.36l.076-.467c.103-.627.218-1.24.343-1.853.336-1.107.633-2.214 1.14-3.24.427-1.054 1.035-1.987 1.603-2.947.656-.893 1.274-1.813 2.032-2.587 2.894-3.28 6.576-5.493 10.333-6.92C33.377 1.107 37.435.653 40.97.907c1.549.04 3.387.346 5.034.546 1.567.307 3.092.56 4.499.88 2.84.6 5.365 1.267 7.594 1.814 2.216.533 4.148 1.013 5.739 1.4 1.587.4 2.828.64 3.679.826.849.187 1.301.294 1.301.294l.087.013a2.676 2.676 0 0 1 2.029 3.187c-.301 1.373-1.621 2.253-2.99 2.066 0 0-.477-.08-1.37-.213-.888-.133-2.215-.293-3.863-.587-3.316-.52-7.997-1.533-13.446-2.546-1.364-.267-2.762-.454-4.204-.68-1.39-.12-2.674-.36-4.378-.36-2.937-.16-5.816.253-8.716 1.306-2.838 1.094-5.61 2.76-7.67 5.08-.559.547-.964 1.187-1.442 1.787-.372.667-.816 1.293-1.085 1.987-.357.666-.525 1.4-.764 2.093-.053.307-.115.613-.19.92l-.057.227c-.016.093-.017.226-.028.346l-.046.707-.047.707-.005.08-.003.053c-.007.2.005-.227.005-.173l.01.146.017.294.065 1.16c.13.76.212 1.533.446 2.253.402 1.453 1.002 2.853 1.87 4.067.85 1.226 1.847 2.346 3.054 3.226.552.507 1.24.84 1.846 1.267.687.307 1.306.733 2.027.973l1.043.414 1.081.32c.705.253 1.45.386 2.179.533.741.2 1.414.2 2.109.32.177.027.333.053.525.067l.619.026c.41.027.819.04 1.224.054l.607.026c.128.014-.131 0-.094 0h.102l.133-.013.268-.013 1.06-.04c.701-.054 1.399 0 2.075-.147.68-.093 1.348-.2 2.004-.293.657-.094 1.305-.307 1.94-.44 2.53-.614 4.936-1.467 7.1-2.187 1.101-.373 2.133-.72 3.086-1.04.968-.32 1.914-.587 2.739-.84 1.684-.533 2.895-.747 3.77-.987.86-.213 1.32-.333 1.32-.333a2.673 2.673 0 0 1 3.23 1.96c.336 1.36-.452 2.733-1.759 3.173" fill="#231F20" fill-rule="nonzero"/>
        <path d="M33.345 21.453s6.614 3.027 14.63 3.027" fill="#FFF" fill-rule="nonzero"/>
        <path d="M34.417 19.013s.198.094.543.254c.304.146.803.36 1.415.6a35.91 35.91 0 0 0 4.62 1.506c.861.2 1.721.44 2.54.56.817.12 1.582.307 2.24.334 1.32.133 2.2.213 2.2.213l.188.013a1.997 1.997 0 0 1 1.804 2.174 2.011 2.011 0 0 1-1.992 1.813s-.998 0-2.492-.013c-.756.026-1.612-.094-2.547-.16-.936-.054-1.912-.227-2.896-.374a42.79 42.79 0 0 1-5.34-1.213c-.717-.227-1.323-.413-1.777-.587-.414-.146-.65-.24-.65-.24a2.664 2.664 0 0 1-1.58-3.426 2.675 2.675 0 0 1 3.431-1.587c.072.027.143.053.21.093l.083.04" fill="#231F20" fill-rule="nonzero"/>
        <path d="M133.673 21.413s-6.764 3.094-14.962 3.094" fill="#FFF" fill-rule="nonzero"/>
        <path d="M134.745 23.853s-.241.094-.664.254c-.462.173-1.08.373-1.812.6-1.474.426-3.446.933-5.454 1.253-1.006.147-2.002.32-2.959.373-.953.067-1.828.2-2.6.174h-2.545a1.983 1.983 0 0 1-2.002-1.987 1.987 1.987 0 0 1 1.806-1.987l.196-.026 2.253-.2c.673-.027 1.457-.227 2.293-.347.84-.12 1.722-.36 2.603-.573a39.492 39.492 0 0 0 4.733-1.534 33.401 33.401 0 0 0 1.452-.613c.354-.173.556-.267.556-.267l.079-.04a2.673 2.673 0 0 1 3.553 1.28 2.676 2.676 0 0 1-1.277 3.56c-.068.027-.141.067-.21.08" fill="#231F20" fill-rule="nonzero"/>
        <path d="M123.51 35.827h-15.002c0-17.854-11.193-32.334-25-32.334-13.808 0-25 14.48-25 32.334H43.509c-22.092 0-40 17.906-40 40v8c0 44.186 35.818 80 80 80 44.183 0 80-35.814 80-80v-8c0-22.094-17.909-40-40-40" fill="#FFF" fill-rule="nonzero"/>
        <path d="M123.51 35.827h-15.002c0-17.854-11.193-32.334-25-32.334-13.808 0-25 14.48-25 32.334H43.509c-22.092 0-40 17.906-40 40v8c0 44.186 35.818 80 80 80 44.183 0 80-35.814 80-80v-8c0-22.094-17.909-40-40-40z" stroke="#231F20" stroke-width="6.667" stroke-linecap="round" stroke-linejoin="round"/>
        <path d="M109.407 5.667s.35.36.965.986c.307.32.68.694 1.108 1.134.432.4.896 1.066 1.412 1.68.49.64 1.123 1.306 1.6 2.08.5.773 1.028 1.586 1.573 2.426.498.867.95 1.787 1.44 2.72.528.92.835 1.947 1.256 2.934.19.506.414 1 .571 1.506.147.507.293 1.027.437 1.534.286 1.013.603 2 .738 3 .169 1 .357 1.96.486 2.866.066.92.128 1.8.187 2.6l.079 1.16-.034 1.12-.053 1.574-.048 1.386a2.667 2.667 0 1 1-5.33-.186c0-.027.003-.08.005-.107l.105-1.373.119-1.587.066-.827-.032-1-.064-2.253c-.08-.8-.213-1.64-.321-2.507-.073-.88-.321-1.746-.532-2.64l-.323-1.36c-.117-.44-.3-.88-.446-1.32-.336-.88-.555-1.8-.992-2.613-.4-.84-.758-1.68-1.164-2.453l-1.3-2.187c-.398-.72-.888-1.253-1.276-1.827-.432-.56-.712-1.066-1.166-1.52-.409-.453-.766-.853-1.06-1.186L106.49 8.4a1.987 1.987 0 0 1 .15-2.813 2.004 2.004 0 0 1 2.768.08M45.881 36.253l-.042-1.346-.05-1.547-.014-.467-.008-.24-.004-.12-.003-.066.001-.294.003-.026c.024-.347.05-.694.075-1.067l.17-2.36c.126-.907.306-1.893.474-2.893.136-1.027.442-1.987.716-2.987l.42-1.493c.154-.494.366-.987.549-1.467.404-.973.7-1.987 1.207-2.88.472-.92.904-1.827 1.384-2.68l1.51-2.387c.464-.76 1.046-1.386 1.506-2.013.494-.613.888-1.213 1.346-1.653.435-.454.814-.854 1.126-1.187.625-.667.981-1.04.981-1.04a1.995 1.995 0 0 1 2.823-.067c.776.734.829 1.947.137 2.747l-.13.147s-.305.36-.835.973c-.266.307-.588.667-.958 1.093-.394.414-.714.96-1.13 1.52-.384.574-.882 1.147-1.259 1.84-.395.68-.812 1.414-1.244 2.16-.39.76-.732 1.587-1.115 2.414-.417.8-.626 1.706-.948 2.56-.14.44-.313.853-.428 1.306l-.306 1.32c-.2.88-.442 1.747-.503 2.56-.105.814-.208 1.6-.305 2.36l-.07 2.374-.03 1.053-.002.027v-.24.013l.006.053.009.134.017.24.035.453a938.537 938.537 0 0 0 .216 2.893 2.682 2.682 0 0 1-2.461 2.867c-1.468.107-2.75-1-2.859-2.467l-.007-.12" fill="#231F20" fill-rule="nonzero"/>
    </g>
</svg>
