<svg width="168" height="172" xmlns="http://www.w3.org/2000/svg">
    <title>
        seli
    </title>
    <g fill="none">
        <path d="M163.843 7.827v80.88c0 44.186-35.818 79.12-80 79.12-44.183 0-80-34.934-80-79.12V7.827L43.399 43.6 83.843 7.827l40 35.773 40-35.773" fill="#FFF"/>
        <path d="M160.51 15.213L125.842 45.84l-2.026 1.787-1.974-1.787h-.004L81.62 10.307l4.43.013-.006.013-40.659 35.52-2.034 1.774-1.966-1.8-.01-.014-39.768-35.52 5.569-2.466v80.466l.07 3.107c.003 1.027.086 2.053.17 3.08.084 1.027.13 2.053.284 3.067.435 4.093 1.285 8.12 2.407 12.08 2.218 7.906 5.844 15.4 10.514 22.16 4.691 6.746 10.518 12.693 17.108 17.613 6.632 4.84 13.998 8.733 21.838 11.24 3.912 1.253 7.913 2.267 11.984 2.88 4.105.627 8.056.933 12.301.973 8.237-.053 16.472-1.28 24.285-3.866 7.839-2.507 15.204-6.387 21.835-11.24 6.59-4.92 12.413-10.867 17.104-17.614 4.667-6.76 8.292-14.253 10.508-22.173 1.12-3.947 1.97-7.987 2.403-12.067.156-1.026.196-2.026.281-3.026.083-1 .165-2 .172-3.094l.07-3.133V15.213zM167.175.307V88.28l-.072 3.293c-.005 1.054-.09 2.187-.181 3.334-.094 1.133-.148 2.293-.312 3.386-.475 4.44-1.396 8.84-2.616 13.134-2.418 8.626-6.363 16.8-11.447 24.146-5.107 7.347-11.44 13.827-18.608 19.16-7.207 5.28-15.217 9.507-23.733 12.24-8.491 2.8-17.434 4.134-26.354 4.187a92.205 92.205 0 0 1-13.338-1.053c-4.418-.667-8.764-1.76-13.016-3.134-8.518-2.72-16.528-6.946-23.738-12.226-7.166-5.334-13.505-11.8-18.612-19.16-5.086-7.347-9.033-15.52-11.453-24.134-1.223-4.306-2.143-8.693-2.619-13.146C.912 97.2.86 96.093.767 94.973c-.09-1.106-.178-2.226-.184-3.346l-.074-3.334V7.827L.556.293l5.523 5.054 39.32 36.026h.012l-4-.013L81.627 5.333h.006l2.25-1.973 2.182 1.973L125.84 41.36h.004-4L167.176.307z" fill="#231F20"/>
        <path d="M125.884 106.707c0 22.706-18.823 41.12-42.041 41.12-23.219 0-42.043-18.414-42.043-41.12 0-22.694 42.043-74 42.043-74s42.041 51.306 42.041 74" fill="#FFF"/>
        <path d="M122.815 106.707c-.008-3.014-.803-6.32-1.87-9.534-1.078-3.24-2.445-6.44-3.957-9.6-3.032-6.306-6.6-12.44-10.373-18.453-3.783-6.013-7.795-11.893-11.95-17.68a430.776 430.776 0 0 0-6.341-8.613 358.996 358.996 0 0 0-6.543-8.427h-.001 4.125c-2.773 3.467-5.509 7.067-8.181 10.653a422.232 422.232 0 0 0-7.852 10.934c-5.097 7.373-9.999 14.866-14.39 22.6-2.187 3.866-4.243 7.8-6.029 11.8-1.769 4-3.32 8.093-4.112 12.146-.809 3.747-.385 8.16.462 12.174.902 4.066 2.516 7.96 4.7 11.506 2.217 3.52 4.966 6.72 8.201 9.347 3.216 2.653 6.856 4.8 10.747 6.28 3.845 1.52 8.084 2.36 12.097 2.587.507.04 1.112.026 1.664.053h.423l.33.013.782-.026c1.044 0 2.082-.094 3.121-.174a41.648 41.648 0 0 0 6.14-1.106c4.03-1.04 7.877-2.76 11.375-5.027 3.472-2.28 6.625-5.08 9.212-8.347 2.601-3.253 4.674-6.92 6.058-10.853.696-1.96 1.251-3.973 1.594-6.027.166-1.013.337-2.08.404-3.066.106-.934.13-2.107.165-3.227l-.001.067zm6.138.08c-.024 1.133-.025 2.226-.141 3.533-.077 1.28-.248 2.44-.433 3.653-.375 2.4-.991 4.76-1.779 7.067-1.567 4.613-3.94 8.933-6.936 12.773-5.972 7.707-14.556 13.28-23.961 15.774a46.78 46.78 0 0 1-7.17 1.32c-1.21.106-2.422.213-3.637.226l-.91.027h-.305l-.212-.013-.422-.014c-.576-.013-1.102-.013-1.72-.053a46.211 46.211 0 0 1-7.29-1.013 43.84 43.84 0 0 1-6.972-2.12 45.15 45.15 0 0 1-12.486-7.414c-3.748-3.106-6.936-6.853-9.492-11-2.526-4.146-4.379-8.72-5.402-13.48a45.624 45.624 0 0 1-.937-7.226L38.707 107c0-.8.008-1.12.06-1.867.09-1.413.292-2.546.524-3.786.989-4.827 2.721-9.2 4.628-13.44 1.925-4.24 4.092-8.307 6.376-12.28 4.576-7.934 9.624-15.534 14.916-22.934a443.202 443.202 0 0 1 8.105-10.96c2.764-3.613 5.55-7.16 8.464-10.706l2.081-2.534 2.044 2.534a365.6 365.6 0 0 1 6.74 8.506c2.2 2.854 4.37 5.747 6.502 8.654 4.264 5.826 8.39 11.76 12.309 17.853 3.91 6.107 7.63 12.36 10.875 18.947 1.618 3.293 3.108 6.693 4.336 10.253 1.2 3.56 2.217 7.293 2.286 11.467v.08z" fill="#231F20"/>
        <path d="M104.477 104.973c0 11.387-9.238 20.627-20.634 20.627s-20.635-9.24-20.635-20.627c0-11.4 20.635-37.146 20.635-37.146s20.634 25.746 20.634 37.146" fill="#FFF"/>
        <path d="M101.408 104.973c-.11-.693-.076-1.32-.239-2.053-.208-.76-.322-1.493-.588-2.267l-.825-2.32-1.013-2.32c-.338-.773-.756-1.533-1.13-2.306a41.997 41.997 0 0 0-1.21-2.294c-.428-.76-.819-1.533-1.276-2.28l-1.338-2.253c-1.834-3-3.766-5.947-5.778-8.853a286.664 286.664 0 0 0-3.078-4.32 201.847 201.847 0 0 0-3.17-4.214h-.002 4.162a183.824 183.824 0 0 0-3.938 5.334 229.853 229.853 0 0 0-3.782 5.453 201.117 201.117 0 0 0-3.582 5.573c-1.157 1.867-2.289 3.76-3.324 5.667-.545.947-1.028 1.92-1.506 2.88-.507.96-.936 1.933-1.351 2.893-.885 1.934-1.497 3.987-1.879 5.494-.109.426-.12 1.08-.185 1.613l-.079.84c-.013.253.014-.333.012-.267l.002.027.002.04.007.093.01.174.023.36c.012.96.196 1.893.343 2.84a18.139 18.139 0 0 0 2.097 5.266 16.495 16.495 0 0 0 3.655 4.334 17.813 17.813 0 0 0 4.828 2.92l1.332.48 1.37.346c.471.147.863.147 1.293.227l.629.107.841.026.842.04.42.014c.046.013-.304 0-.146 0h.067l.088-.014h.177l1.414-.066c.929-.147 1.865-.267 2.766-.534a18.77 18.77 0 0 0 5.136-2.293 18.511 18.511 0 0 0 4.147-3.827c1.176-1.493 2.132-3.16 2.74-4.96.196-.44.277-.906.413-1.36l.191-.693.108-.64.115-.64.062-.32.026-.427.105-1.68-.004.16zm6.135.147l-.066 1.68-.016.427-.064.506-.137 1.027-.152 1.013-.23.947c-.163.627-.28 1.267-.52 1.867-.778 2.48-2.02 4.8-3.578 6.866a24.468 24.468 0 0 1-5.593 5.387 23.447 23.447 0 0 1-7.078 3.24c-1.253.373-2.548.547-3.838.733l-1.951.107h-.244l-.121.013h-.29l-.42-.026-.84-.054-.841-.04-1.035-.146c-.674-.12-1.414-.187-2.018-.374-.63-.173-1.263-.333-1.886-.52l-1.83-.68a24.53 24.53 0 0 1-6.579-4.12A22.994 22.994 0 0 1 63.309 117a24.683 24.683 0 0 1-2.748-7.24c-.2-1.28-.408-2.547-.416-3.84l-.02-.493-.01-.24-.004-.12-.003-.054-.001-.04.014-.306.091-.84c.079-.574.08-1.067.221-1.72.622-2.88 1.462-5.094 2.45-7.24.482-1.094.981-2.16 1.537-3.187.533-1.04 1.073-2.08 1.66-3.067 2.281-4.026 4.787-7.853 7.427-11.56a225.77 225.77 0 0 1 4.036-5.506 201.35 201.35 0 0 1 4.218-5.387l2.134-2.627 2.029 2.627a176.13 176.13 0 0 1 3.365 4.307 249.193 249.193 0 0 1 3.238 4.36 196.85 196.85 0 0 1 6.136 9.026l1.442 2.334c.49.773.927 1.586 1.392 2.373.464.8.92 1.6 1.342 2.427.422.84.878 1.64 1.274 2.493l1.179 2.573 1.03 2.72c.331.92.546 1.96.814 2.92.237 1.014.292 2.187.41 3.28l-.003.147z" fill="#231F20"/>
    </g>
</svg>
