<svg width="168" height="168" xmlns="http://www.w3.org/2000/svg">
    <title>
        selo
    </title>
    <g fill="none">
        <path d="M164.173 84.04v34.667c0 25.333-17.906 45.333-40 45.333-39.546 0-40-36.587-40-48 0 11.413-.44 48-39.997 48-22.092 0-40-19.107-40-45.333V44.04c0-22.08 17.908-40 40-40h79.997c22.094 0 40 17.92 40 40v40" fill="#FFF"/>
        <path d="M161.147 84.04l-.054-28.68-.013-7.173-.013-3.587c0-1.2-.107-2.24-.147-3.36a36.99 36.99 0 0 0-3.347-12.707c-3.693-7.986-10.36-14.6-18.453-18.093-2.013-.853-4.093-1.613-6.24-2.093-.52-.12-1.067-.307-1.587-.374l-1.56-.24-1.56-.24c-.573-.053-1.186-.066-1.773-.093l-1.787-.093-.453-.014-.107-.013c-.08 0 .227.013.054 0h-.227l-.907.013h-3.586l-7.174.027-57.373.08-7.18.013h-3.577l-3.284.174a37.144 37.144 0 0 0-12.564 3.533C20.359 14.933 13.92 21.653 10.5 29.72L9.368 32.8c-.347 1.027-.557 2.107-.85 3.16a9.488 9.488 0 0 0-.309 1.56l-.24 1.547c-.213.96-.221 2.24-.289 3.413l-.081 1.613.001 1.8.003 3.587.006 7.173-.013 28.694-.024 28.693c-.048 4.907.041 9.24.78 13.707.819 4.386 2.227 8.653 4.213 12.613 3.907 7.947 10.646 14.387 18.671 17.733 1.98.88 4.133 1.454 6.19 1.907 1.04.16 2.002.373 3.097.507l3.581.2 3.22-.067c1.123-.067 2.235-.187 3.356-.28 1.093-.173 2.2-.307 3.293-.52 1.067-.267 2.174-.427 3.2-.787 2.12-.573 4.12-1.426 6.054-2.386 1.893-1.04 3.72-2.187 5.333-3.6 1.6-1.414 3.107-2.96 4.4-4.707a36.141 36.141 0 0 0 3.4-5.613c1.92-3.987 3.147-8.374 3.973-12.867.814-4.52 1.12-9.12 1.174-13.84v-.067a2.678 2.678 0 0 1 2.706-2.64 2.666 2.666 0 0 1 2.627 2.707c.053 3.573.227 7.053.667 10.507.44 3.44 1.133 6.826 2.12 10.08.973 3.253 2.32 6.36 4.04 9.186 1.706 2.827 3.84 5.347 6.32 7.414 2.48 2.08 5.32 3.72 8.386 4.893 3.067 1.173 6.36 1.893 9.68 2.28l2.454.213c.866.04 1.786.054 2.68.08l.68.014h.333l.053.013c.094 0-.093-.013-.066-.013h.08l.146-.014 1.24-.066c.814-.054 1.627-.054 2.44-.147 1.614-.32 3.267-.44 4.814-.987.786-.24 1.586-.413 2.36-.693l2.28-.933c.786-.267 1.48-.707 2.213-1.094.72-.413 1.48-.733 2.16-1.213 1.36-.933 2.773-1.8 4-2.933 2.6-2.067 4.787-4.627 6.787-7.294.906-1.413 1.906-2.76 2.64-4.266.4-.747.826-1.48 1.186-2.227l.987-2.333.493-1.16.387-1.2.787-2.4c.24-.814.386-1.64.6-2.467.16-.813.426-1.653.506-2.467l.347-2.426c.053-.414.12-.8.16-1.227l.067-1.36.133-2.693.013-.347.014-.16c0-.147-.014.133-.014.093v-.133l.014-.667v-1.36l.04-10.826.08-21.667zm6.066 0l.067 21.667.04 10.826.013 1.36v.667l-.013.48-.013.347-.107 2.693-.053 1.36c-.04.467-.12.973-.174 1.453l-.386 2.934c-.094 1-.374 1.893-.56 2.84-.227.933-.387 1.88-.654 2.813l-.88 2.747-.44 1.373-.56 1.333-1.12 2.654c-.413.88-.893 1.72-1.346 2.573-.84 1.733-1.987 3.307-3.04 4.933-2.28 3.12-4.827 6.094-7.867 8.547-1.44 1.32-3.093 2.373-4.707 3.493-.8.56-1.706.96-2.546 1.454-.867.453-1.72.96-2.64 1.306l-2.734 1.12c-.906.347-1.88.574-2.813.867-1.88.64-3.853.827-5.787 1.2-.973.107-1.96.133-2.946.2l-1.48.08-.187.013H124l-.333-.013-.68-.013c-.907-.04-1.787-.054-2.72-.107l-2.947-.28c-3.84-.48-7.64-1.333-11.307-2.787-3.666-1.44-7.146-3.48-10.173-6.066-3.04-2.574-5.547-5.734-7.507-9.12-1.973-3.387-3.426-7-4.453-10.667-1.053-3.68-1.667-7.427-2.013-11.147-.36-3.733-.427-7.48-.36-11.133h5.333c.213 9.68-.653 19.907-4.933 29.307-1.08 2.333-2.36 4.6-3.88 6.733a35.243 35.243 0 0 1-5.28 5.827c-1.974 1.76-4.2 3.2-6.494 4.48-2.333 1.2-4.746 2.226-7.24 2.933-1.226.427-2.493.64-3.746.96-1.254.253-2.52.427-3.787.64-1.259.107-2.525.253-3.788.347l-1.89.053-.947.04-.472.013h-.119c.123.014-.305 0-.297 0l-.224-.013-3.582-.187c-1.277-.146-2.664-.4-3.988-.6-2.604-.573-5.088-1.253-7.494-2.293-9.639-3.987-17.571-11.667-22.118-20.853-2.316-4.587-3.933-9.48-4.87-14.494-.863-4.986-.952-10.24-.911-14.893L.756 85.347.743 56.653l.006-7.173.003-3.587.001-1.8.094-1.96c.073-1.2.068-2.333.32-3.72l.302-2.013c.092-.667.208-1.333.388-1.947.34-1.253.607-2.52 1.019-3.76.447-1.213.881-2.44 1.352-3.64C8.308 17.48 15.933 9.533 25.281 5.04A43.39 43.39 0 0 1 40.185.88l3.88-.2h3.595l7.18.013 57.373.08 7.174.027h4.493l.227.013h.386l.44.027 1.787.093 1.813.107 1.987.293 1.987.307c.666.107 1.266.307 1.893.453 2.52.574 4.96 1.48 7.32 2.494 9.48 4.173 17.253 11.933 21.547 21.306 2.173 4.68 3.466 9.747 3.853 14.88.053 1.267.16 2.614.16 3.827v3.587l-.013 7.173-.054 28.68z" fill="#231F20"/>
        <path d="M110.88 49.773l2.2.067 2.187.267c.72.146 1.44.28 2.16.44.706.213 1.426.4 2.133.653 1.387.507 2.76 1.107 4.053 1.88.654.387 1.294.773 1.894 1.24.613.44 1.2.933 1.746 1.467 1.147 1.013 2.12 2.226 3.014 3.506.813 1.334 1.573 2.734 2.026 4.267.107.387.24.747.334 1.16l.24 1.293.106.64.027.507.067.973.013.12v.32l-.013.307-.04.6c-.04.387-.04.8-.107 1.187-.16.786-.24 1.586-.507 2.346-.226.76-.48 1.52-.84 2.227-.293.733-.706 1.4-1.106 2.08-.387.68-.894 1.267-1.347 1.893-.52.574-1.013 1.174-1.573 1.694-1.12 1.04-2.307 2.013-3.6 2.773-.627.4-1.294.76-1.974 1.067-.653.36-1.36.613-2.053.88-1.387.52-2.827.893-4.267 1.16-.72.16-1.533.2-2.28.293-.786.093-1.346.053-2.026.093h-1.094l-.986-.026-1.96-.027-3.92-.08 2.626-2.627.08 5.04.054 2.52.026 1.254c0 .426-.026.933-.04 1.4-.026 1.893-.386 3.76-.84 5.6-.546 1.826-1.2 3.626-2.16 5.28-.893 1.693-2.08 3.226-3.373 4.653-1.333 1.373-2.813 2.653-4.467 3.653-.813.534-1.706.947-2.573 1.387-.907.347-1.8.76-2.76.987-.467.133-.92.28-1.427.386l-1.546.254c-1.174.186-1.587.133-2.814.213-1.946-.067-3.92-.253-5.786-.853-.96-.227-1.84-.64-2.76-.987-.867-.44-1.76-.853-2.56-1.387-1.667-1-3.134-2.28-4.48-3.653-1.294-1.427-2.48-2.96-3.36-4.653-.96-1.654-1.627-3.454-2.174-5.28-.186-.947-.466-1.8-.573-2.814l-.2-1.493c-.053-.507-.04-.867-.067-1.293l-.026-1.4.026-1.254.04-2.52.094-5.04 2.626 2.627-4.4.093c-1.493.014-2.826.107-4.546.04-1.64-.053-3.267-.32-4.88-.68-1.603-.426-3.19-.933-4.694-1.68-1.528-.68-2.942-1.626-4.282-2.666-1.3-1.094-2.548-2.294-3.551-3.734-1.047-1.386-1.867-2.973-2.447-4.653l-.397-1.28c-.107-.467-.19-.96-.276-1.44l-.119-.72-.037-.547-.072-1.093-.004-.213.001-.014.003-.04.004-.093.01-.16.02-.347.042-.666a7.61 7.61 0 0 1 .17-1.334c.083-.44.158-.88.258-1.306l.397-1.28c.58-1.68 1.4-3.28 2.447-4.667 1.003-1.427 2.25-2.627 3.55-3.72 1.34-1.04 2.755-1.987 4.283-2.68 1.504-.733 3.091-1.253 4.694-1.667.813-.16 1.586-.36 2.453-.466.84-.094 1.8-.227 2.467-.214l1.093-.026h.667l.56.013 2.186.053 4.4.08-2.626 2.627-.08-5.027-.04-2.52-.027-1.266c0-.427.027-.92.04-1.387.027-1.893.4-3.76.853-5.6.547-1.813 1.214-3.613 2.174-5.267.893-1.68 2.08-3.2 3.36-4.626 1.333-1.387 2.8-2.667 4.453-3.667.813-.547 1.693-.96 2.56-1.387.907-.36 1.8-.773 2.747-1 .48-.133.933-.28 1.426-.386l1.56-.267c.24-.027.534-.08.76-.107l.627-.04 1.253-.08h.254l.093.014.187.013.36.013.733.04c.493.027.973.054 1.453.16l1.454.24c.48.107.946.254 1.413.374.96.226 1.853.64 2.76 1 .867.426 1.76.84 2.573 1.373 1.667 1.013 3.134 2.293 4.48 3.667 1.28 1.426 2.454 2.96 3.347 4.653.96 1.653 1.613 3.453 2.16 5.267.2.946.48 1.813.587 2.826l.186 1.494c.067.493.054.853.08 1.293l.014.627.013.32.013.293v.147l-.026 1.266-.04 2.52c-.014 1.68-.054 3.347-.094 5.027l-2.626-2.627c2.493-.093 5-.106 7.493-.16zm0 5.574c-2.493-.054-5-.054-7.493-.16h-.027a2.708 2.708 0 0 1-2.6-2.627c-.053-1.68-.08-3.347-.107-5.027l-.04-2.52-.013-1.266-.067-1.12c-.026-.4-.026-.88-.093-1.214l-.16-1c-.067-.653-.333-1.4-.48-2.106-.453-1.374-.973-2.747-1.733-3.974-.694-1.28-1.627-2.4-2.587-3.453-1.013-1-2.093-1.947-3.307-2.667-.6-.4-1.24-.68-1.866-.986-.667-.24-1.294-.56-1.987-.707-.347-.08-.68-.187-1.013-.267l-1.04-.16a6.877 6.877 0 0 0-1.04-.106l-.52-.027-.267-.013h-.133l-.067-.014h-.053.146l-1.253.054-.627.04c-.2.013-.32.053-.48.066l-.933.147c-.333.067-.68.187-1.013.267-.694.146-1.32.453-1.987.693-.627.307-1.28.587-1.88.973-1.227.72-2.32 1.667-3.333 2.667-.96 1.067-1.894 2.187-2.574 3.467-.76 1.24-1.28 2.613-1.733 4-.36 1.413-.667 2.853-.72 4.32-.013.373-.053.706-.067 1.12l-.013 1.266-.04 2.52-.08 5.027a2.673 2.673 0 0 1-2.613 2.627h-.014l-4.4.093-2.186.04-.56.013-.267.014h-.067.094-.054l-.133.013-1.093.067c-.8.013-1.294.146-1.907.213-.587.08-1.24.28-1.853.4-1.214.36-2.42.773-3.531 1.36l-.835.427-.785.506c-.545.307-1.003.72-1.504 1.08-.92.8-1.805 1.64-2.468 2.627a11.167 11.167 0 0 0-1.6 3.093l-.253.827-.151.84c-.065.267-.101.56-.101.84l-.023.427-.015.213-.006.107-.004.053-.002.027-.001.013c-.003-.08.005.187-.007-.173l.063 1.093.033.547.079.36.135.72.253.813c.367 1.093.885 2.147 1.6 3.093.663.987 1.548 1.84 2.468 2.64.501.36.959.774 1.504 1.08l.785.507.835.427c1.11.586 2.317 1 3.53 1.36 1.24.293 2.507.546 3.787.613 1.214.107 2.814.093 4.24.147l4.4.08c1.44.04 2.6 1.2 2.627 2.626l.08 5.04.053 2.52.027 1.254.067 1.133c.04.4.026.88.093 1.213l.16 1c.067.654.333 1.4.48 2.094.467 1.373.973 2.746 1.733 3.986.694 1.267 1.614 2.387 2.574 3.454 1.013 1 2.093 1.946 3.32 2.666.586.387 1.24.667 1.866.987.654.24 1.294.56 1.974.693 1.346.44 2.76.534 4.146.587.454-.053 1.734-.027 2.214-.16l.933-.16c.32-.067.667-.173 1-.267.693-.133 1.32-.453 1.987-.693.626-.32 1.266-.6 1.866-.987 1.214-.72 2.307-1.666 3.307-2.666.96-1.067 1.88-2.187 2.573-3.454.76-1.24 1.28-2.613 1.734-3.986.373-1.414.693-2.84.733-4.32.027-.374.067-.707.08-1.12l.013-1.254.054-2.52.093-5.04a2.685 2.685 0 0 1 2.627-2.626l3.92-.067 1.96-.04.986-.013.494-.014h.133-.107.094l.253-.013c.613-.053 1.36-.053 1.893-.147.534-.093 1.027-.12 1.6-.253 1.12-.24 2.214-.547 3.267-.973.52-.214 1.053-.414 1.533-.694.507-.253 1-.52 1.454-.84.946-.573 1.8-1.28 2.586-2.026.387-.387.72-.8 1.08-1.2.294-.44.654-.84.907-1.307.253-.453.547-.893.72-1.387.227-.466.387-.96.52-1.453.187-.48.2-.987.32-1.48.04-.253.027-.507.04-.76l.027-.387.013-.186v-.054c0-.16.013.214.013.174v-.04l-.013-.134-.053-.973-.027-.48-.08-.32-.12-.64c-.04-.227-.147-.48-.213-.72-.267-.987-.774-1.907-1.294-2.813-.613-.867-1.266-1.72-2.08-2.454-.386-.373-.8-.733-1.253-1.053-.413-.36-.88-.64-1.36-.947-.933-.586-1.96-1.066-3.013-1.48-.52-.213-1.08-.346-1.614-.533l-1.666-.387-1.707-.24-1.72-.106zM3.864 125.227l.873-.267c.586-.173 1.432-.427 2.506-.72 1.074-.307 2.385-.613 3.888-1 1.508-.347 3.202-.773 5.073-1.133 3.733-.76 8.11-1.547 12.836-2.16 2.361-.32 4.82-.52 7.31-.787 2.5-.16 5.037-.387 7.585-.467 2.549-.066 5.096-.186 7.612-.08 2.506.08 4.986.094 7.373.32 2.4.187 4.707.32 6.88.694 1.093.16 2.147.32 3.173.466.52.08 1.014.147 1.52.227.48.093.96.2 1.44.293 1.88.4 3.614.774 5.134 1.12 1.506.387 2.813.827 3.893 1.134 2.147.666 3.36 1.053 3.36 1.053a1.985 1.985 0 0 1 1.32 2.493 1.99 1.99 0 0 1-2.333 1.36l-.174-.04s-1.2-.266-3.293-.733c-1.04-.24-2.293-.573-3.76-.853-1.48-.227-3.147-.507-4.96-.827-.453-.067-.907-.147-1.387-.227-.466-.053-.96-.106-1.453-.16-.987-.106-2.013-.213-3.053-.32-2.094-.266-4.334-.36-6.627-.506-2.293-.2-4.693-.187-7.107-.227-2.429-.08-4.898.12-7.364.107-2.468.066-4.934.253-7.362.373-2.424.24-4.816.4-7.119.693-2.304.267-4.54.48-6.645.8-2.114.267-4.099.6-5.935.894-3.667.613-6.717 1.173-8.83 1.626-1.05.227-1.875.4-2.438.52-.565.12-.868.2-.868.2h-.033a1.992 1.992 0 0 1-2.395-1.506 2.018 2.018 0 0 1 1.36-2.36m3.475 12.906s.278-.093.802-.253c.54-.173 1.322-.413 2.31-.68.989-.293 2.196-.587 3.58-.947 1.389-.32 2.95-.733 4.673-1.066 3.44-.707 7.47-1.467 11.83-2.027 2.178-.293 4.445-.48 6.74-.733 2.306-.147 4.645-.36 6.995-.44 2.352-.04 4.7-.147 7.024-.054 2.32.08 4.6.094 6.8.307 2.214.16 4.334.307 6.347.653 2.013.334 3.92.494 5.653.92 1.734.374 3.334.72 4.734 1.054 1.386.36 2.586.773 3.586 1.066 1.974.627 3.107.974 3.107.974a1.998 1.998 0 0 1 1.307 2.506 1.988 1.988 0 0 1-2.334 1.347l-.173-.04s-1.107-.24-3.027-.68c-.96-.213-2.12-.52-3.466-.787-1.36-.2-2.88-.453-4.547-.746-1.653-.347-3.507-.414-5.427-.654-1.92-.253-3.973-.32-6.08-.466-2.12-.174-4.32-.16-6.546-.2-2.224-.08-4.495.106-6.762.12-2.268.053-4.536.226-6.769.346-2.228.214-4.428.36-6.547.627-2.117.267-4.173.453-6.11.747-1.944.24-3.771.546-5.459.813-3.372.573-6.181 1.067-8.124 1.493-.965.2-1.724.36-2.24.467-.521.12-.8.187-.8.187h-.035a1.987 1.987 0 0 1-2.39-1.507 2 2 0 0 1 1.348-2.347" fill="#231F20"/>
    </g>
</svg>
