<svg width="167" height="168" xmlns="http://www.w3.org/2000/svg">
    <title>
        seme
    </title>
    <g fill="none" fill-rule="evenodd">
        <path d="M163.507 84.04c0 44.187-35.814 80-80 80-44.187 0-80-35.813-80-80 0-44.173 35.813-80 80-80 44.186 0 80 35.827 80 80" fill="#FFF" fill-rule="nonzero"/>
        <path d="M163.507 84.04c0 44.187-35.814 80-80 80-44.187 0-80-35.813-80-80 0-44.173 35.813-80 80-80 44.186 0 80 35.827 80 80z" stroke="#231F20" stroke-width="6.667"/>
        <path d="M162.653 69.467s-.36.08-1.026.24c-.707.16-1.6.453-2.974.68-1.36.226-3.04.56-4.906.72-1.894.24-3.934.346-6.36.386-1.12-.026-2.214.014-3.494-.066-1.266-.094-2.626-.12-3.933-.307-2.653-.267-5.453-.787-8.307-1.493-2.84-.8-5.76-1.814-8.613-3.267-2.84-1.467-5.667-3.36-8-6.147-1.093-1.44-2.16-3.04-2.707-4.973-.133-.467-.306-.947-.386-1.427l-.147-1.506-.027-.374-.013-.186-.013-.094c.013-.16-.014.28.013-.373v-.04l.067-.547.106-1.08c.227-.973.534-2.24.934-3.053.426-.84.813-1.707 1.36-2.4l.786-1.08c.267-.347.574-.627.854-.933l.88-.92c.293-.28.613-.52.92-.787a28.877 28.877 0 0 1 7.626-4.573c2.547-1.054 5-1.827 7.28-2.347 1.147-.267 2.24-.52 3.294-.68a40.197 40.197 0 0 1 2.986-.427c1.88-.226 3.52-.293 4.867-.36 1.347-.08 2.413-.013 3.133-.013h1.107v5.333s-.36.027-1.027.08c-.653.054-1.626.067-2.853.2-1.227.134-2.72.28-4.4.587-.853.107-1.733.32-2.667.52-.946.16-1.906.427-2.92.693a39.658 39.658 0 0 0-6.226 2.254c-2.107.96-4.2 2.173-5.96 3.68l-.654.573-.573.613c-.187.214-.4.414-.56.627l-.453.653c-.36.427-.507.907-.747 1.347-.16.24-.147.387-.2.547-.053.173-.133.28-.2.506l-.093 1.094-.054.546v.027c.027-.64 0-.16.014-.293l.013.04.013.08.014.173c.04.227.053.453.066.68.04.24.147.453.2.693.227.92.84 1.827 1.48 2.734 1.454 1.786 3.587 3.333 5.894 4.533 2.32 1.2 4.813 2.107 7.293 2.827 2.493.693 4.96 1.226 7.36 1.533 1.187.213 2.307.24 3.413.373 1.107.107 2.32.107 3.414.16 2 0 4.013.04 5.706-.106 1.734-.08 3.147-.294 4.334-.427 1.2-.147 2.253-.387 2.92-.493.68-.12 1.04-.187 1.04-.187l1.106 5.227m-1.106 32.16s-.36-.067-1.04-.187c-.667-.107-1.72-.347-2.92-.48-1.187-.147-2.6-.36-4.334-.44-1.693-.147-3.706-.107-5.706-.107-1.094.054-2.307.054-3.414.16-1.106.134-2.226.16-3.426.374-2.387.306-4.854.84-7.347 1.533-2.48.72-4.973 1.627-7.293 2.827-2.307 1.2-4.44 2.746-5.894 4.533-.653.907-1.253 1.813-1.48 2.747-.053.226-.16.453-.186.68-.014.226-.04.453-.067.68l-.027.173-.013.08-.013.053c0-.146.013.334-.014-.306v.026l.054.547.106 1.093c.067.227.147.334.187.507.067.16.04.307.2.547.24.453.387.92.747 1.346l.453.654c.16.213.387.413.56.626l.573.614.654.573c1.76 1.507 3.853 2.72 5.96 3.68 2.106.96 4.226 1.72 6.226 2.24 1.014.28 1.974.533 2.92.707.934.2 1.814.4 2.667.52 1.68.306 3.173.453 4.4.586 1.227.134 2.2.147 2.853.214.667.04 1.027.066 1.027.066v5.334s-.387 0-1.107.013c-.72-.013-1.786.053-3.133-.027-1.347-.053-2.987-.12-4.867-.36a29.248 29.248 0 0 1-2.986-.426c-1.054-.147-2.147-.4-3.294-.667a45.932 45.932 0 0 1-7.293-2.347 29.393 29.393 0 0 1-7.613-4.573c-.307-.267-.627-.52-.934-.8l-.866-.907c-.28-.32-.587-.6-.854-.946l-.786-1.08c-.547-.68-.934-1.56-1.36-2.387-.414-.827-.707-2.093-.934-3.067l-.12-1.08-.053-.546v-.04c-.04-.654-.013-.2-.013-.36v-.094l.013-.186.04-.387.147-1.493c.08-.494.253-.96.386-1.44.547-1.934 1.614-3.52 2.72-4.974 2.32-2.786 5.147-4.68 7.987-6.146 2.853-1.44 5.773-2.467 8.613-3.254 2.867-.706 5.654-1.226 8.307-1.493 1.307-.187 2.667-.213 3.933-.307 1.28-.08 2.374-.053 3.494-.08 2.426.054 4.466.147 6.36.387 1.866.173 3.546.493 4.906.72 1.374.24 2.267.533 2.974.68.666.16 1.026.253 1.026.253l-1.106 5.214M81.48 107.64l-.08 2.12c-.187 1.693-.52 3.973-1.653 6.68-1.174 2.667-3.147 5.76-6.334 8.36-3.16 2.547-7.586 4.613-12.653 4.853l-.947.054h-.12l-.066.013-.2-.013-.214-.014-.413-.013-.84-.04c-.267-.013-.573-.027-.933-.093-.694-.107-1.427-.187-2.094-.334-.653-.173-1.306-.333-1.96-.506a22.353 22.353 0 0 1-7.4-3.987c-4.506-3.613-7.733-9.427-8.106-15.76l-.054-1.187-.013-.146v-.254l.013-.253.014-.52.04-1.027c.013-.373.066-.813.106-1.213.16-1.667.52-3.187 1.014-4.773 1.026-3.134 2.92-5.974 5.066-8.294 2.147-2.346 4.547-4.266 6.96-6.053 2.427-1.787 4.894-3.44 7.374-5.04 2.426-1.6 4.786-3.173 7.053-4.84 2.253-1.653 4.373-3.4 6.12-5.293 1.733-1.894 3.053-3.92 3.787-6.134.706-2.2.96-4.706.813-7.12-.267-4.533-2.6-8.826-5.907-11.453-3.293-2.72-7.4-3.827-11.08-3.613-3.72.133-6.946 1.613-9.306 3.453a16.624 16.624 0 0 0-4.827 6.08c-.933 1.973-1.24 3.68-1.427 4.84-.093 1.173-.146 1.8-.146 1.8l-.014.227a2.668 2.668 0 0 1-2.866 2.44c-1.4-.107-2.454-1.294-2.454-2.667 0 0 0-.827.094-2.387.186-1.533.506-3.84 1.653-6.546a22.295 22.295 0 0 1 6.32-8.36c3.173-2.56 7.587-4.627 12.667-4.867a22.31 22.31 0 0 1 7.786.96c2.6.813 5.147 2.16 7.387 3.987 4.52 3.64 7.733 9.373 8.12 15.8.16 3.04-.107 6.173-1.12 9.32-1.04 3.146-2.933 5.986-5.067 8.306-2.16 2.347-4.546 4.267-6.96 6.054-2.426 1.786-4.92 3.453-7.373 5.04-4.787 3.16-9.653 6.346-13.173 10.133-1.734 1.893-3.054 3.907-3.787 6.133-.347 1.094-.64 2.307-.733 3.427-.027.28-.067.533-.094.853l-.026 1.04-.014.52-.013.254v-.054.054l.013.12.04.866c.28 4.614 2.614 8.84 5.92 11.494a16.206 16.206 0 0 0 5.387 2.906c.48.134.96.254 1.427.374.466.106.88.133 1.32.226.186.04.453.067.76.067l.84.04.413.027.2.013h-.093l.04-.013h.093l.693-.027c3.72-.133 6.947-1.613 9.307-3.453a16.766 16.766 0 0 0 4.827-6.08c.933-1.974 1.226-3.707 1.413-4.72.107-1.334.16-2.054.16-2.054v-.04a2.68 2.68 0 0 1 2.867-2.453 2.664 2.664 0 0 1 2.453 2.76" fill="#231F20" fill-rule="nonzero"/>
    </g>
</svg>
