<svg width="168" height="168" xmlns="http://www.w3.org/2000/svg">
    <title>
        sewi
    </title>
    <g fill="none" fill-rule="evenodd">
        <path d="M10.733 78.493c0-42.453 32-74.453 73.107-74.453 41.12 0 74.453 33.333 74.453 74.453 0 41.107-1.346 37.214-1.346 37.214" fill="#FFF" fill-rule="nonzero"/>
        <path d="M8.067 78.427l.04-3.04c.026-1.987.213-5.134.666-8.894.534-3.8 1.36-8.4 3-13.506 1.64-5.094 3.974-10.734 7.44-16.387a74.571 74.571 0 0 1 13.52-16.48c2.8-2.587 5.92-4.96 9.24-7.16a69.129 69.129 0 0 1 10.734-5.84 78.34 78.34 0 0 1 11.946-4.107A80.688 80.688 0 0 1 77.4.933c1.08-.066 2.173-.2 3.267-.2l3.36-.08 3.146.067c1.04.027 2.214.147 3.32.213a78.77 78.77 0 0 1 13.094 2.214c8.586 2.213 16.733 5.986 23.946 10.88a79.05 79.05 0 0 1 18.427 17.586c4.973 6.627 8.733 13.814 11.24 21 2.507 7.174 3.747 14.32 4.133 20.92.12 1.654.094 3.28.134 4.854a9282.25 9282.25 0 0 1-.04 4.466c-.04 2.894-.094 5.654-.134 8.24-.106 5.16-.226 9.68-.413 13.414-.173 3.72-.373 6.666-.587 8.733-.12 1.053-.226 1.84-.386 2.587a5.62 5.62 0 0 1-.174.613c-.066.173-.08.213-.186.453a7.34 7.34 0 0 1-.2.334c0 .026-.307.426-.507.586a2.838 2.838 0 0 1-1.373.627c-.64.12-1.28-.04-1.8-.333-.72-.454-.867-.814-.974-.96-.12-.214-.146-.294-.2-.387a3.753 3.753 0 0 0-.066-.187l5.053-1.72s-.027-.053-.067-.16a1.348 1.348 0 0 0-.16-.32c-.093-.12-.213-.44-.893-.88a2.695 2.695 0 0 0-1.72-.32 2.613 2.613 0 0 0-1.293.587 2.15 2.15 0 0 0-.294.307l-.146.2a1.321 1.321 0 0 0-.147.226c-.08.174-.053.134-.093.214-.014.04-.014.04 0-.04.053-.254.133-.987.2-1.907.133-1.88.226-4.76.266-8.427.014-3.693.027-8.16.054-13.293-.014-2.573-.04-5.32-.054-8.2l-.04-4.44c-.066-1.453-.04-2.947-.186-4.453-.2-3.04-.627-6.174-1.267-9.387-.707-3.187-1.533-6.467-2.733-9.733-2.32-6.547-5.774-13.094-10.347-19.147a72.51 72.51 0 0 0-16.88-15.973c-6.6-4.427-14.027-7.84-21.827-9.92a74.332 74.332 0 0 0-11.88-2.054c-1-.053-1.92-.173-2.973-.2l-3.147-.093-2.933.067c-1 0-1.987.12-2.987.186-3.96.307-7.88.92-11.666 1.84a73.1 73.1 0 0 0-10.894 3.694c-6.973 2.96-13.16 7.053-18.36 11.64A68.2 68.2 0 0 0 24.44 39.813c-3.253 5.147-5.467 10.307-7.04 15a80.783 80.783 0 0 0-3.067 12.48c-.506 3.574-.733 6.24-.826 8.227-.067 1.973-.107 3.04-.107 3.04l-5.333-.133" fill="#231F20" fill-rule="nonzero"/>
        <path d="M3.84 94.933c0-16.08 13.04-29.106 29.12-29.106 16.067 0 29.773 14.88 28.573 35.88 2.36-12.667 14.947-21.147 26.534-19 11.586 2.16 19.773 14 15.973 29.32 5.76-6.667 16.253-13.76 31.36-13.76 21.107 0 28.44 13.413 28.44 26.666 0 22.08-17.907 39.107-40 39.107h-80c-22.093 0-40-17.907-40-40V94.933" fill="#FFF" fill-rule="nonzero"/>
        <path d="M7.173 94.933v19.6l.014 9.787c.12 2.987.373 5.987 1.186 8.88.667 2.92 1.92 5.667 3.24 8.347 1.534 2.56 3.147 5.106 5.254 7.266.96 1.147 2.12 2.107 3.213 3.12.533.534 1.187.934 1.76 1.387.613.44 1.187.933 1.827 1.32 1.293.747 2.52 1.64 3.893 2.227l2.027.973 2.106.76c1.387.6 2.867.84 4.307 1.253.733.2 1.427.227 2.133.374.734.093 1.36.253 2.174.306l2.44.12 1.226.067 1.054-.013h78.413c1.56-.054 3.027-.094 4.533-.227 5.96-.693 11.787-2.693 16.76-6.04 1.2-.893 2.48-1.693 3.56-2.733.547-.494 1.134-.974 1.667-1.494l1.533-1.64c.534-.52.987-1.106 1.427-1.706l1.373-1.774 1.174-1.906.586-.947c.187-.333.334-.667.507-1l.987-2.013c.293-.68.52-1.387.786-2.08.6-1.374.88-2.854 1.28-4.294.227-.72.254-1.413.387-2.12.093-.72.253-1.373.32-2.146l.133-2.454.067-1.213-.027-.96c-.146-5.893-2.026-11.693-5.92-15.693-1.92-2.014-4.28-3.614-6.933-4.734-2.68-1.08-5.653-1.693-8.48-2.04l-2.44-.133-1.227-.053-.146-.014h.04-.067l-.28.014-.573.04c-1.52.093-3.067.08-4.574.226-1.506.267-3.013.467-4.52.747-1.453.44-2.933.787-4.373 1.28-5.747 2.053-10.96 5.533-15.2 9.947-.893.946-2.387.973-3.333.08a2.327 2.327 0 0 1-.707-2.027l.013-.133c.2-1.427.467-2.814.52-4.227.08-.707.08-1.4.054-2.093-.014-.707-.014-1.4-.12-2.08-.094-1.374-.36-2.72-.707-4.027a20.327 20.327 0 0 0-1.453-3.76c-.627-1.173-1.307-2.32-2.134-3.347-.826-1.026-1.746-1.973-2.773-2.773-.52-.413-1.027-.813-1.6-1.133l-.84-.52-.88-.414c-.293-.133-.587-.306-.88-.413l-.84-.293c-.307-.094-.48-.227-.893-.32l-1.12-.267c-1.174-.293-2.547-.44-3.84-.44-1.307-.013-2.627.16-3.934.427-.653.12-1.28.36-1.933.52-.64.213-1.253.493-1.88.72l-1.827.893-1.733 1.04-1.64 1.227-1.52 1.36c-.453.506-.933.986-1.387 1.506l-1.24 1.627c-.36.573-.76 1.133-1.106 1.72-.294.613-.627 1.213-.92 1.84l-.747 1.907-.573 1.986-.027.08a2.338 2.338 0 0 1-2.893 1.6 2.36 2.36 0 0 1-1.707-2.24c0-1.92.067-3.84-.187-5.733l-.12-1.427-.253-1.4c-.187-.92-.293-1.866-.587-2.773-.28-.907-.466-1.84-.813-2.707-.347-.88-.653-1.773-1.013-2.626L54.973 82.4l-1.48-2.373c-.533-.76-1.133-1.467-1.68-2.214-.6-.693-1.266-1.333-1.88-2.013-.666-.64-1.386-1.2-2.08-1.813-.72-.56-1.493-1.04-2.226-1.574-.787-.466-1.6-.866-2.387-1.306-.827-.374-1.667-.68-2.507-1.04l-2.586-.72-2.507-.4-1.52-.067-.76-.04-.373-.013-.187-.014c-.16 0 .187.014.147.014h-.067l-.08.013c-.907.067-1.813.08-2.72.173-.893.174-1.8.267-2.68.467-.867.253-1.76.427-2.6.747-1.707.6-3.373 1.333-4.92 2.28-.76.466-1.547.92-2.24 1.506l-1.08.814c-.347.28-.667.613-1 .906l-.987.92-.906 1.014c-.627.653-1.147 1.386-1.68 2.12-1.054 1.453-1.907 3.04-2.64 4.68-.387.813-.627 1.693-.947 2.52-.28.853-.44 1.733-.68 2.6l-.387 2.493-.16 3.027v-.174zM.507 94.76l.16-3.04c.173-1.16.333-2.36.56-3.493.306-1.094.546-2.2.906-3.267.414-1.053.734-2.133 1.227-3.147.947-2.04 2.067-4.013 3.413-5.8.68-.906 1.347-1.813 2.134-2.613l1.146-1.227c.4-.386.827-.76 1.24-1.133.427-.373.827-.76 1.267-1.107l1.36-1c.88-.706 1.853-1.253 2.813-1.826 1.934-1.134 4.014-2.014 6.134-2.72 1.053-.374 2.16-.574 3.24-.867 1.093-.24 2.213-.347 3.32-.52 1.106-.093 2.226-.12 3.333-.173h.387l.186.013.374.027.76.053 1.52.107c1.12.173 2.32.4 3.48.626 1.08.32 2.16.64 3.226.987 1.027.453 2.067.88 3.08 1.36.96.573 1.947 1.093 2.894 1.693.893.667 1.813 1.294 2.666 2 .827.747 1.68 1.454 2.454 2.24.72.827 1.493 1.627 2.186 2.48.64.894 1.32 1.76 1.934 2.667l1.653 2.84 1.387 2.96c.4 1 .733 2.04 1.106 3.053.36 1.027.56 2.094.84 3.134.307 1.04.414 2.12.587 3.173l.24 1.6.107 1.6c.213 2.133.093 4.267.04 6.4l-4.627-.56.507-2.493c.226-.814.506-1.614.76-2.427.32-.787.68-1.56 1.013-2.347.387-.76.827-1.493 1.24-2.24.453-.72.96-1.4 1.453-2.093.534-.667 1.107-1.293 1.667-1.947.587-.6 1.213-1.186 1.827-1.786l2-1.6 2.146-1.414c.76-.4 1.507-.826 2.28-1.186.8-.32 1.6-.68 2.414-.96.826-.24 1.64-.534 2.493-.707a24.979 24.979 0 0 1 5.187-.64c1.773-.013 3.48.133 5.28.547.746.186 1.466.32 2.413.68l1.32.48c.427.173.8.373 1.2.573l1.187.587 1.12.706c.76.454 1.453 1 2.133 1.56 1.373 1.094 2.573 2.387 3.653 3.76a23.097 23.097 0 0 1 2.707 4.454 26.111 26.111 0 0 1 1.653 4.893c.374 1.667.627 3.36.68 5.053.08.84.014 1.68-.026 2.52-.027.84-.094 1.667-.24 2.494-.174 1.653-.6 3.253-1 4.84l-4.027-2.094c4.467-5.333 10.267-9.506 16.76-12.08 1.627-.613 3.307-1.093 4.973-1.626 1.694-.4 3.414-.694 5.12-1.04 1.72-.24 3.467-.307 5.2-.44l.654-.04.32-.014.08-.013.213.013h.147l1.226.04 2.454.08c3.68.334 7.146 1 10.573 2.294 3.4 1.36 6.627 3.386 9.24 6.08 2.627 2.68 4.6 5.946 5.867 9.386 1.28 3.454 1.893 7.054 2.013 10.627l.027.667.013.333v.093c0 .094.013-.12 0 .24l-.013.16-.054 1.227-.12 2.44c-.066.853-.24 1.813-.373 2.707-.16.893-.227 1.853-.48 2.693-.467 1.707-.827 3.453-1.52 5.093-.307.827-.587 1.68-.947 2.494l-1.173 2.386c-.2.4-.387.8-.6 1.187l-.693 1.133-1.414 2.267-1.613 2.12c-.533.707-1.08 1.4-1.707 2.027l-1.826 1.946c-.627.627-1.32 1.187-1.974 1.774-1.293 1.226-2.786 2.186-4.213 3.24-5.88 3.946-12.76 6.32-19.76 7.12-1.733.16-3.547.213-5.24.28H45.027l-1.387-.014-1.227-.066-2.453-.12c-.813-.04-1.787-.24-2.68-.347-.893-.16-1.853-.24-2.693-.467-1.707-.48-3.467-.8-5.107-1.48l-2.493-.906-2.387-1.147c-1.64-.707-3.093-1.733-4.613-2.627-.76-.466-1.427-1.04-2.147-1.56-.693-.546-1.453-1.013-2.08-1.64-1.307-1.2-2.667-2.333-3.813-3.693-2.467-2.547-4.4-5.547-6.187-8.587-1.587-3.16-3.04-6.413-3.84-9.88-.96-3.413-1.28-6.96-1.4-10.493l-.013-9.827V94.76z" fill="#231F20" fill-rule="nonzero"/>
        <path d="M65.947 5.88c7.92 5 13.013 12.773 13.013 21.493 0 15.107-15.227 27.334-34 27.334-11.093 0-20.933-4.254-27.133-10.854" stroke="#231F20" stroke-width="5.333"/>
        <path d="M52.48 10.733c3.2 2.88 5.147 6.667 5.147 10.84 0 8.974-9.054 16.254-20.227 16.254-5.08 0-9.733-1.507-13.28-4" stroke="#231F20" stroke-width="4"/>
    </g>
</svg>
