<svg width="168" height="168" xmlns="http://www.w3.org/2000/svg">
    <title>
        sijelo
    </title>
    <g fill="none" fill-rule="evenodd">
        <path d="M144.013 68.107c4.36-4.68 7.054-10.934 7.054-17.84 0-14.48-11.747-26.227-26.227-26.227-12.307 0-22.613 8.507-25.427 19.947-4.226-3.294-9.493-5.28-15.24-5.28-5.746 0-11.013 1.986-15.226 5.266C66.12 32.547 55.813 24.04 43.507 24.04c-14.48 0-26.214 11.747-26.214 26.227 0 6.906 2.68 13.16 7.04 17.84-12.04 5.4-20.16 15.533-20.16 27.146v6.254c0 34.546 35.814 62.533 80 62.533 44.187 0 80-27.987 80-62.533v-6.254c0-11.613-8.12-21.746-20.16-27.146" fill="#FFF" fill-rule="nonzero"/>
        <path d="M148.72 67.107c1.907 1.013 3.773 2.12 5.507 3.426 2.773 2.12 5.293 4.614 7.4 7.494 2.093 2.866 3.76 6.12 4.773 9.613.267.867.427 1.773.64 2.653.133.92.28 1.947.36 2.827l.067 1.213.026.6.014.44v2.72c.013 3.12.013 6.654-.414 10.04a59.655 59.655 0 0 1-2.266 10.027 62.51 62.51 0 0 1-4.067 9.4c-1.653 2.973-3.547 5.813-5.6 8.507a75.721 75.721 0 0 1-6.813 7.493c-2.467 2.293-5.027 4.493-7.76 6.44-5.427 3.96-11.334 7.187-17.48 9.773-6.174 2.534-12.574 4.494-19.107 5.72-1.64.294-3.267.614-4.92.814-1.64.253-3.293.44-4.947.586-1.64.2-3.346.254-5.026.36-1.667.094-3.227.08-4.854.12-6.773-.013-13.32-.626-19.88-1.88-6.533-1.213-12.933-3.173-19.106-5.72-6.147-2.573-12.054-5.813-17.48-9.76-2.734-1.946-5.294-4.146-7.76-6.426a72.703 72.703 0 0 1-6.814-7.507c-2.066-2.693-3.96-5.52-5.6-8.507a61.093 61.093 0 0 1-4.08-9.386 58.376 58.376 0 0 1-2.266-10.027c-.174-1.76-.374-3.573-.374-5.12l-.04-1.2-.013-.707v-5.426c0-.8.067-1.8.107-2.68.093-.907.226-1.814.36-2.707.213-.88.373-1.787.64-2.653C2.96 84.173 4.613 80.92 6.72 78.04c2.093-2.867 4.613-5.373 7.387-7.493 2.786-2.107 5.826-3.8 8.973-5.16l.027-.014-.974 4.787c-1.48-1.64-2.906-3.373-4-5.307-1.186-1.893-2.04-3.973-2.773-6.08-.307-1.093-.6-2.133-.813-3.28l-.267-1.76c-.04-.28-.093-.6-.107-.853l-.04-.747-.093-1.493v-.187l-.013-.2V50.2l.013-.107.013-.426.04-.827c.027-.56.04-1.12.08-1.68l.24-1.667c.307-2.226.974-4.386 1.774-6.48.44-1.026.933-2.04 1.453-3.04.613-.933 1.12-1.946 1.813-2.826.667-.907 1.32-1.814 2.107-2.627.387-.413.747-.84 1.147-1.227l1.24-1.146c1.653-1.507 3.546-2.747 5.48-3.867 2-1.027 4.08-1.933 6.253-2.467l1.64-.413c.547-.133 1.16-.187 1.733-.28.587-.08 1.2-.173 1.747-.227l1.48-.066c2.307-.12 4.507.12 6.72.52 2.187.44 4.333 1.12 6.373 2.04 2 .973 3.974 2.066 5.694 3.48 1.76 1.36 3.373 2.906 4.76 4.64 1.413 1.706 2.56 3.613 3.533 5.6.987 1.973 1.64 4.093 2.16 6.213l.653-.16v.027l-5.28-1.84L68.773 40l2-1.2c.694-.333 1.387-.693 2.08-1.027.72-.28 1.44-.586 2.174-.853.733-.227 1.48-.467 2.226-.667.76-.16 1.507-.346 2.294-.48.8-.106 1.64-.226 2.426-.306l2.054-.08h.44l.28.013.586.027 1.16.053 2.307.293c.773.134 1.533.32 2.293.48.747.2 1.48.44 2.227.667.733.267 1.44.573 2.16.853.707.32 1.4.68 2.093 1.027.667.387 1.334.8 1.987 1.2l1.893 1.347-.413.52.013.013-4.226 1.467c.506-2.134 1.146-4.267 2.133-6.24.973-1.987 2.107-3.907 3.547-5.6 1.373-1.747 2.986-3.294 4.746-4.667 1.734-1.4 3.68-2.507 5.707-3.48 2.04-.893 4.173-1.6 6.387-2.04 1.08-.213 2.386-.373 3.413-.467l1.493-.066.374-.027h.346l.214.013.84.027 1.666.08c.56.053 1.12.147 1.68.227.547.08 1.107.133 1.654.266l1.64.414c2.173.56 4.24 1.466 6.24 2.48 1.946 1.12 3.84 2.36 5.493 3.88l1.24 1.133c.4.4.773.827 1.147 1.24.786.8 1.44 1.707 2.106 2.613.707.88 1.214 1.894 1.814 2.84.52.987 1.013 2.014 1.453 3.04.8 2.12 1.453 4.187 1.773 6.547l.254 1.76c.04.52.04 1 .066 1.507l.04.746.014.374.013.346-.013.214-.094 1.68c-.013 1.12-.266 2.213-.413 3.32-.2 1.106-.52 2.186-.813 3.253-.734 2.12-1.587 4.2-2.76 6.093a22.108 22.108 0 0 1-1.507 2.254zm-6.987-.934l.947-1.16c.32-.386.653-.773.853-1.106.454-.68.934-1.347 1.334-2.147.906-1.52 1.493-3.187 2.026-4.84.427-1.693.787-3.413.854-5.16l.053-1.307.013-.16v-.026c.014.32 0 .08 0 .146v-.146l-.026-.374-.04-.746c-.04-.48-.054-1-.094-1.467l-.213-1.2c-.24-1.587-.8-3.347-1.427-4.933a54.416 54.416 0 0 0-1.146-2.347c-.48-.72-.84-1.52-1.4-2.2-.52-.693-1.014-1.4-1.627-2.027-.307-.32-.587-.653-.893-.96l-.96-.866c-1.28-1.187-2.76-2.134-4.254-3.014-1.546-.773-3.146-1.493-4.84-1.92-.826-.226-1.666-.44-2.533-.546-.44-.067-.867-.147-1.293-.2l-1.307-.067-.653-.053h-.16l-.08-.014h.12-.08l-.374.014-1.493.053c-.533 0-.827.093-1.267.133-.4.067-.786.067-1.226.174-1.72.306-3.387.84-5 1.506-1.574.734-3.16 1.507-4.56 2.587a21.903 21.903 0 0 0-3.894 3.56c-1.173 1.307-2.186 2.773-3.053 4.333-.88 1.547-1.48 3.227-2.04 4.92l-.067.187a2.654 2.654 0 0 1-3.36 1.707 2.43 2.43 0 0 1-.8-.427h-.013l-.4.52-1.453-1.027-1.534-.92-1.586-.786c-.56-.214-1.094-.44-1.654-.64-.56-.174-1.12-.36-1.693-.52l-1.733-.36-1.76-.227-.894-.027-.44-.026-.226-.014h-.214c-.12 0 .174-.013.147-.013l-2.053.093-1.64.214-1.72.36-1.694.52-1.653.64-1.6.786-1.52.92-1.453 1.04c-1.534 1.094-3.68.747-4.774-.8a3.044 3.044 0 0 1-.493-1l-.013-.04v-.013l.64-.16C64.4 37.707 59.267 31.907 52.8 29.187c-1.613-.667-3.28-1.2-5-1.507-1.707-.28-3.507-.44-5.187-.307l-1.493.08c-.44.054-.8.134-1.213.2-.4.08-.787.107-1.214.214l-1.253.333c-1.68.453-3.28 1.16-4.827 1.933-1.493.88-2.973 1.827-4.253 3.014l-.96.866c-.307.32-.587.654-.893.96-.614.627-1.107 1.347-1.627 2.04-.56.667-.92 1.467-1.4 2.187-.4.773-.787 1.56-1.133 2.36-.627 1.613-1.187 3.267-1.44 4.987l-.214 1.293-.08 1.307-.04.653-.013.333-.013.08v-.093.2l.066 1.493.027.747c.013.24.067.413.08.627l.173 1.2c.147.813.374 1.693.574 2.533.533 1.653 1.12 3.32 2.026 4.84.8 1.56 1.907 2.947 3.04 4.307l.08.093a3.037 3.037 0 0 1-1.053 4.693h-.027c-5.4 2.574-10.253 6.28-13.586 10.96-1.667 2.347-2.92 4.92-3.667 7.627-.2.667-.307 1.36-.467 2.04-.08.693-.186 1.387-.24 2.08-.013.72-.066 1.32-.066 2.147v4.813l.013 1.107.04 1.2c0 1.68.187 3.066.32 4.506a51.22 51.22 0 0 0 1.987 8.774 54.758 54.758 0 0 0 3.6 8.28c1.453 2.653 3.146 5.173 5 7.6a68.565 68.565 0 0 0 6.146 6.76c2.254 2.08 4.587 4.093 7.094 5.88 4.973 3.613 10.426 6.613 16.133 9 5.72 2.346 11.68 4.186 17.8 5.32 6.067 1.16 12.387 1.746 18.48 1.773 1.6-.053 3.253-.04 4.787-.133 1.533-.107 3.04-.147 4.6-.334a68.705 68.705 0 0 0 4.64-.546c1.533-.187 3.066-.48 4.586-.76 6.12-1.147 12.08-2.974 17.8-5.334 5.707-2.386 11.16-5.386 16.134-9 2.506-1.786 4.84-3.8 7.08-5.88a68.847 68.847 0 0 0 6.16-6.773c1.84-2.413 3.533-4.947 4.986-7.587a54.904 54.904 0 0 0 3.6-8.293 50.9 50.9 0 0 0 1.974-8.773c.373-2.987.386-5.907.373-9.214v-2.786.066-.146l-.027-.614-.04-1.2c-.066-.706-.16-1.293-.24-1.96-.16-.666-.266-1.36-.466-2.04-.747-2.693-2-5.266-3.667-7.613-3.347-4.693-8.2-8.387-13.6-10.947l-.027-.013a3.035 3.035 0 0 1-1.44-4.04 3.4 3.4 0 0 1 .4-.627z" fill="#231F20" fill-rule="nonzero"/>
        <path d="M62.427 44.48c-2.827-4.173-4.467-9.227-4.467-14.653C57.96 15.347 69.693 3.6 84.173 3.6S110.4 15.347 110.4 29.827c0 6-2.013 11.52-5.4 15.946" fill="#FFF" fill-rule="nonzero"/>
        <path d="M60.173 45.893l-.72-1.066c-.226-.32-.52-.827-.88-1.467a27.15 27.15 0 0 0-.546-.987 39.21 39.21 0 0 0-.52-1.12 28.287 28.287 0 0 1-1.947-5.973c-.133-.6-.253-1.213-.32-1.867-.08-.64-.2-1.293-.213-1.973a27.15 27.15 0 0 1-.054-1.04l-.026-.533.013-.64c.027-.64.053-1.307.08-1.974.267-3.133 1-6.36 2.387-9.52 1.373-3.173 3.413-6.293 6.12-8.946a29.632 29.632 0 0 1 9.706-6.36A29.221 29.221 0 0 1 85.133.32c.934.067 1.707.04 2.84.24 1.04.16 2.147.28 3.094.573.973.254 1.96.48 2.88.867.946.333 1.893.68 2.773 1.147a29.354 29.354 0 0 1 9.293 6.946c2.547 2.8 4.387 6.04 5.587 9.28 1.2 3.24 1.787 6.52 1.787 9.52l.026.56.014.28v.254l-.014.12c-.013.333-.04.666-.053.986-.013.32-.04.64-.053.947-.027.333-.094.72-.134 1.067-.16 1.466-.48 2.706-.76 3.893-.693 2.333-1.466 4.307-2.32 5.84-.373.787-.813 1.427-1.16 2-.346.587-.693 1.04-.973 1.413-.56.747-.853 1.147-.853 1.147a2.659 2.659 0 0 1-3.72.533 2.664 2.664 0 0 1-.64-3.586l.133-.2s.227-.334.64-.974c.213-.306.467-.693.72-1.186.253-.48.587-1.014.867-1.667.64-1.253 1.186-2.867 1.666-4.76.174-.96.4-1.987.454-2.973.026-.267.066-.494.08-.787.013-.32.026-.64.026-.96.014-.32.027-.653.04-.987v-.146.093l-.013-.053-.013-.214-.027-.453c-.133-4.76-2.107-10.267-6.12-14.64a22.711 22.711 0 0 0-7.28-5.347c-.68-.373-1.413-.613-2.147-.88-.72-.293-1.493-.453-2.253-.653-.773-.227-1.467-.267-2.187-.4-.64-.147-1.68-.133-2.533-.187-3.013-.093-6.253.427-9.107 1.56a22.78 22.78 0 0 0-7.6 4.894c-2.106 2.066-3.773 4.453-4.92 6.906-1.16 2.467-1.773 5-2.053 7.227-.04.667-.093 1.333-.133 1.973l-.014.24v.12l-.013.067c0 .147.013-.173.013-.133v.453c.014.28.014.56.027.827-.013.546.067 1.08.093 1.586.04.52.12 1.014.2 1.494a21.82 21.82 0 0 0 1.36 4.853c.134.333.254.64.374.92.133.267.253.52.36.747.12.24.213.453.306.653.107.2.254.427.347.6.427.72.653 1.107.653 1.107a2.662 2.662 0 0 1-.96 3.653 2.655 2.655 0 0 1-3.56-.827" fill="#231F20" fill-rule="nonzero"/>
        <path d="M40.253 50.413c11.414-5.68 27.174-8.56 44.587-8.56 16.747 0 31.973 3.254 43.267 8.56" fill="#FFF" fill-rule="nonzero"/>
        <path d="M39.427 48.587s1.24-.68 3.44-1.814c1.053-.6 2.586-1.146 4.24-1.853 1.68-.76 3.56-1.333 5.653-2 2.067-.707 4.373-1.187 6.8-1.813a465.58 465.58 0 0 0 3.76-.72c1.28-.254 2.6-.494 3.947-.64 1.333-.174 2.706-.347 4.093-.52 1.373-.16 2.787-.24 4.2-.347 2.84-.253 5.707-.24 8.587-.333l.546-.027h.134l.213.013h.267l1.053.04 2.107.054c1.413.04 2.786.066 4.253.2l4.267.36c1.4.146 2.76.373 4.106.546 2.694.307 5.254.947 7.694 1.414 2.426.6 4.72 1.16 6.786 1.84 2.067.693 3.974 1.253 5.6 1.986 1.627.707 3.08 1.214 4.214 1.814a132.194 132.194 0 0 1 3.56 1.813 1.992 1.992 0 0 1 .826 2.707c-.453.866-1.48 1.253-2.386.96l-.134-.04s-1.32-.44-3.56-1.24c-1.106-.454-2.546-.787-4.133-1.28-1.587-.507-3.453-.854-5.44-1.374-.987-.266-2.04-.426-3.133-.64-1.094-.213-2.2-.466-3.36-.653-2.347-.307-4.787-.773-7.347-1-1.28-.12-2.587-.293-3.893-.387-1.307-.08-2.627-.16-3.947-.253-1.307-.12-2.733-.12-4.133-.147l-2.107-.04-1.053-.013-.454-.013-.506.013c-2.76.067-5.52.027-8.227.24-1.347.093-2.693.12-4.013.227-1.32.12-2.627.24-3.907.373-1.293.093-2.547.28-3.773.44-1.227.173-2.427.333-3.587.493-1.16.214-2.28.427-3.373.627-1.094.187-2.147.373-3.134.64-1.973.507-3.853.853-5.373 1.36-1.573.493-2.92.787-4.093 1.293-2.307.867-3.64 1.347-3.64 1.347a2.023 2.023 0 0 1-2.56-1.227c-.334-.933.08-1.96.92-2.426" fill="#231F20" fill-rule="nonzero"/>
        <path d="M58.507 68.187c6.666-3.32 15.88-5 26.053-5 9.787 0 18.68 1.906 25.28 5" fill="#FFF" fill-rule="nonzero"/>
        <path d="M58.507 68.187c6.666-3.32 15.88-5 26.053-5 9.787 0 18.68 1.906 25.28 5" stroke="#231F20" stroke-width="5.333" stroke-linecap="round" stroke-linejoin="round"/>
        <path d="M37.733 119.6c46.667 0 48-26.667 92.894-26.667" fill="#FFF" fill-rule="nonzero"/>
        <path d="M37.627 116.933s1.533-.08 4.213-.213c1.32-.093 3-.08 4.787-.293 1.76-.227 3.76-.48 5.933-.76 2.16-.427 4.52-.907 6.973-1.494 2.414-.76 5.014-1.386 7.56-2.466 2.6-.92 5.174-2.187 7.814-3.44 1.306-.694 2.613-1.374 3.933-2.08 1.32-.734 2.64-1.467 3.973-2.214 2.68-1.48 5.36-3 8.107-4.413 1.347-.733 2.76-1.373 4.147-2.027.68-.32 1.373-.64 2.053-.96.68-.306 1.4-.546 2.093-.826 1.4-.52 2.747-1.107 4.12-1.547 1.374-.413 2.72-.813 4.04-1.2 1.307-.44 2.614-.64 3.88-.92a808.01 808.01 0 0 0 3.64-.747c2.36-.333 4.52-.52 6.44-.733.96-.133 1.854-.147 2.694-.16.826-.027 1.586-.04 2.266-.067 2.76-.066 4.334-.106 4.334-.106 1.466-.04 2.68 1.133 2.72 2.6a2.648 2.648 0 0 1-2.52 2.72l-.2.013s-1.494.08-4.107.213c-.64.04-1.36.067-2.147.107-.786.04-1.64.067-2.533.227-1.787.24-3.8.506-6 .8-1.08.226-2.2.466-3.36.72-1.16.266-2.387.453-3.573.88-1.214.373-2.454.746-3.72 1.133-1.254.413-2.494.973-3.787 1.467-.64.266-1.293.493-1.933.786-.627.307-1.267.614-1.92.92-1.294.614-2.6 1.214-3.894 1.947-2.6 1.36-5.24 2.88-7.906 4.387-1.347.76-2.694 1.506-4.04 2.253-1.387.72-2.76 1.44-4.134 2.16-2.8 1.32-5.573 2.653-8.386 3.64-2.76 1.16-5.587 1.813-8.214 2.587-2.666.6-5.2 1.066-7.546 1.48-2.387.253-4.574.48-6.52.693-1.934.173-3.507.107-4.867.173-2.68.054-4.213.094-4.213.094a2.676 2.676 0 0 1-2.734-2.6 2.69 2.69 0 0 1 2.534-2.734" fill="#231F20" fill-rule="nonzero"/>
    </g>
</svg>
