<svg width="167" height="168" xmlns="http://www.w3.org/2000/svg">
    <title>
        sike
    </title>
    <g fill="none" fill-rule="evenodd">
        <path d="M163.517 84.035c0 44.188-35.82 80.002-79.996 80.002-44.19 0-80.01-35.814-80.01-80.002 0-44.173 35.82-80 80.01-80 44.175 0 79.996 35.827 79.996 80" fill-rule="nonzero" fill="#FFF"/>
        <path d="M163.517 84.035c0 44.188-35.82 80.002-79.996 80.002-44.19 0-80.01-35.814-80.01-80.002 0-44.173 35.82-80 80.01-80 44.175 0 79.996 35.827 79.996 80z" stroke="#231F20" stroke-width="6.667"/>
        <path d="M106.01 40.148c-7.885.213-13.866-.573-22.78-2.6 2.21 7.519 3.588 14.826 3.796 22.706.209 7.88-.973 15.494-2.6 22.787 7.524-2.414 14.825-3.6 22.71-3.8 7.872-.213 15.493.773 22.781 2.6-2.42-7.307-3.602-14.827-3.797-22.707-.222-7.88.974-16.106 2.601-22.787-7.315 2.414-14.825 3.6-22.71 3.8" fill-rule="nonzero" fill="#FFF"/>
        <path d="M106.01 40.148c-7.885.213-13.866-.573-22.78-2.6 2.21 7.519 3.588 14.826 3.796 22.706.209 7.88-.973 15.494-2.6 22.787 7.524-2.414 14.825-3.6 22.71-3.8 7.872-.213 15.493.773 22.781 2.6-2.42-7.307-3.602-14.827-3.797-22.707-.222-7.88.974-16.106 2.601-22.787-7.315 2.414-14.825 3.6-22.71 3.8z" stroke="#231F20" stroke-width="5.333" stroke-linecap="round" stroke-linejoin="round"/>
    </g>
</svg>
