<svg width="168" height="94" xmlns="http://www.w3.org/2000/svg">
    <title>
        sin
    </title>
    <g fill="none" fill-rule="evenodd">
        <path d="M164.286 45.269c0-7.853-6.37-14.213-14.222-14.213-.386 0-.74.026-1.095.054 2.313-2.534 3.763-5.908 3.763-9.615 0-7.852-6.386-14.226-14.237-14.226s-14.206 6.374-14.206 14.226c0 2.428.601 4.707 1.68 6.707-5.228 3.948-8.807 11.8-8.807 20.841 0 8.16 2.9 15.333 7.28 19.573a17.27 17.27 0 0 0-.153 2.213c0 8.84 7.157 16 15.995 16 8.824 0 15.996-7.16 15.996-16a15.94 15.94 0 0 0-4.797-11.413c7.188-.72 12.803-6.774 12.803-14.147" fill-rule="nonzero" fill="#FFF"/>
        <path d="M167.633 45.264l-.093 1.614c-.062.533-.154 1.053-.247 1.586-.216 1.054-.494 2.093-.911 3.08a18.923 18.923 0 0 1-1.499 2.827c-.308.44-.617.866-.942 1.292-.355.4-.71.788-1.066 1.174l-1.158 1.068c-.432.332-.85.639-1.266.946l-1.344.8c-.479.226-.942.467-1.421.666l-1.452.52c-.51.12-1.004.254-1.514.347l-1.498.2-1.53.027 1.221-3.426c1.159 1 2.286 2.093 3.166 3.386a17.266 17.266 0 0 1 2.163 4.2c.247.76.494 1.493.649 2.373.077.4.185.893.216 1.24l.092 1.014.031.253.016.12.015.067v.826l-.03 1.214c-.078.799-.124 1.613-.31 2.399-.308 1.6-.865 3.148-1.575 4.614a17.795 17.795 0 0 1-2.734 4.052c-1.066 1.24-2.348 2.282-3.691 3.227-1.375.868-2.858 1.614-4.418 2.12-.772.294-1.575.44-2.378.64l-1.313.201-.68.08-.51.027-1.02.04h-.432l-.308-.027-.618-.04c-.819-.026-1.607-.174-2.425-.32-1.591-.32-3.167-.827-4.603-1.561-1.483-.692-2.78-1.667-4.016-2.692-1.174-1.094-2.286-2.268-3.135-3.627-.48-.64-.819-1.373-1.205-2.054-.324-.732-.68-1.44-.88-2.213-.526-1.506-.757-3.026-.88-4.719-.047-.428-.016-.695-.016-1.055v-.519l.015-.253v-.213l.016-.028.015-.147.355-2.28.587 1.72c-.68-.773-1.436-1.493-2.039-2.319-.571-.84-1.235-1.64-1.699-2.533-.494-.88-1.004-1.76-1.374-2.694l-.587-1.373c-.201-.466-.325-.947-.48-1.413l-.478-1.427-.324-1.454-.34-1.453c-.077-.493-.139-1.013-.216-1.506l-.201-1.52c-.046-.507-.046-.947-.077-1.413l-.047-1.401-.015-.346-.016-.187.016-.093v-.174l.03-.746c.078-.987.063-1.974.202-2.961l.448-2.933.725-2.893c.294-.96.68-1.88 1.004-2.827.356-.933.865-1.813 1.298-2.72.432-.906 1.081-1.72 1.606-2.587.572-.84 1.298-1.586 1.946-2.372.71-.748 1.545-1.401 2.317-2.095l-.556 2.535c-.37-.641-.788-1.268-1.096-1.948-.279-.72-.618-1.347-.804-2.16-.216-.76-.432-1.666-.478-2.24l-.14-.96-.03-.12v-1.16a16.098 16.098 0 0 1 .648-4.6c.417-1.52 1.128-2.92 1.962-4.266.834-1.334 1.9-2.52 3.09-3.574 1.22-1.013 2.517-1.946 3.984-2.6.741-.333 1.483-.6 2.24-.84.772-.213 1.529-.426 2.44-.532.958-.161 1.483-.147 2.162-.201h.124l.216-.014.093.014.293.014.587.026c.402.026.803.04 1.205.107 1.591.186 3.136.667 4.618 1.254 1.452.665 2.842 1.465 4.047 2.507 1.22 1.025 2.332 2.173 3.213 3.492a15.88 15.88 0 0 1 2.085 4.227c.278.732.432 1.506.602 2.266.077.388.124.84.155 1.253.061.414.092.868.077 1.147v1.307l-.016.08v.28l-.061.587c-.047.76-.232 1.52-.402 2.28-.401 1.48-.973 2.906-1.745 4.213a16.643 16.643 0 0 1-2.842 3.466l-1.545-3.345.742-.149.17-.026.092-.012.047-.014h.015l.015-.012h.093l.433-.028c.556-.013 1.127-.093 1.699-.04.556.04 1.143.04 1.714.16.572.107 1.143.187 1.7.36 1.127.307 2.223.734 3.258 1.28.525.254 1.02.574 1.498.92.495.307.973.68 1.421 1.067.464.374.865.8 1.298 1.214.417.412.772.905 1.143 1.373.386.453.664.987 1.004 1.48.324.506.571 1.053.85 1.586.262.547.447 1.12.663 1.68.17.573.325 1.16.48 1.747.123.626.215 1.293.293 1.946l.092 1.468.016.159zm-6.673.173l-.062-1.466c-.046-.307-.092-.613-.139-.947l-.278-1.08-.37-1.067c-.155-.333-.278-.693-.464-1.027-.2-.32-.34-.68-.571-.987-.232-.306-.417-.64-.664-.919-.247-.293-.48-.613-.757-.88-.263-.28-.525-.56-.834-.786a7.74 7.74 0 0 0-.927-.734c-.602-.48-1.297-.867-2.023-1.186-.34-.213-.726-.32-1.112-.467-.371-.173-.773-.227-1.159-.374-.401-.132-.803-.159-1.22-.253l-.309-.066h.077-.015l-.016-.014h-.061l-.093-.014-.17-.012-.726-.054a2.155 2.155 0 0 1-1.961-2.307c.046-.386.185-.733.386-1.027l.015-.026c.649-.92 1.159-1.894 1.591-2.893.37-1.027.664-2.054.788-3.108.03-.532.123-1.051.077-1.572v-.6l-.015-.04v-.039c.015.28.015.066.015.118l-.015-.118-.109-.961c0-.374-.092-.547-.139-.774-.061-.227-.077-.426-.154-.68-.17-.48-.294-.987-.51-1.44-.37-.96-.942-1.812-1.529-2.613-.602-.827-1.375-1.507-2.147-2.133-.803-.6-1.699-1.067-2.595-1.48-.926-.333-1.9-.64-2.873-.733-.247-.04-.494-.04-.756-.054l-.603-.026c-.633.04-1.405.04-1.714.133-.402.026-.88.16-1.375.28-.463.146-.942.293-1.405.506-.912.374-1.761.906-2.58 1.507a13.001 13.001 0 0 0-2.116 2.147c-.602.827-1.158 1.693-1.529 2.666-.402.947-.695 1.96-.803 3.014l-.062.386-.015.2v.055c-.016-.334-.016-.08-.016-.147v.158l-.015.974c-.047.734.061 1.093.092 1.6.093 1.013.402 2.12.742 3.174l.062.147c.278.879 0 1.8-.618 2.399-.603.56-1.251 1.067-1.823 1.666-.525.655-1.143 1.228-1.59 1.948-.449.734-.99 1.387-1.345 2.16-.37.787-.818 1.519-1.112 2.333-.293.826-.617 1.626-.88 2.454l-.633 2.533-.386 2.6c-.14.866-.109 1.747-.186 2.627l-.03.652v.16l-.016.095v-.068.054l.015.36.062 1.4c.031.453.031.946.077 1.374l.186 1.252.17 1.267.293 1.28.294 1.267.401 1.24c.14.413.263.839.402 1.24l.525 1.187c.324.814.757 1.546 1.174 2.293.386.773.942 1.414 1.42 2.106.495.693 1.113 1.254 1.653 1.881.387.453.587 1 .587 1.56v.16l.047 1.786v.054l.015.067.031.253.046.507c.062.305.062.72.155.959.231 1 .54 2.16 1.066 3.174.2.519.571.985.803 1.493.355.453.602.947 1.004 1.36.68.892 1.544 1.614 2.394 2.333.896.627 1.822 1.24 2.842 1.627.494.24 1.035.374 1.544.56.525.12 1.05.28 1.591.346.54.067 1.066.161 1.622.147l.402.014h.293c-.093.012.17 0-.17.012h.016l.139-.012 1.004-.066.51-.04.34-.068.694-.107c.51-.16 1.05-.24 1.545-.44 1.02-.346 1.961-.867 2.873-1.44.895-.599 1.76-1.266 2.47-2.079.742-.774 1.345-1.68 1.9-2.615.526-.946.958-1.958 1.22-3.012.17-.52.233-1.067.356-1.601.031-.52.155-1.173.14-1.599v-1.013c0-.334-.063-.52-.078-.786 0-.48-.108-1.041-.216-1.602-.108-.545-.278-1.092-.448-1.639-.217-.52-.371-1.093-.649-1.588-.448-1.08-1.143-2.038-1.838-3.025a2.228 2.228 0 0 1 .525-3.094c.185-.12.386-.213.572-.28l.108-.04 1.065-.36 1.035-.426.973-.48.927-.573.85-.614.803-.68c.232-.266.479-.493.741-.733l.664-.801c.417-.546.788-1.12 1.128-1.706a13.5 13.5 0 0 0 .803-1.853c.077-.32.2-.627.294-.96l.216-.974.123-1 .031-1v.173z" fill-rule="nonzero" fill="#231F20"/>
        <path d="M135.837 47.04c0 22.228-14.229 40.228-31.767 40.228-17.553 0-31.782-18-31.782-40.228 0-22.212 14.229-40.212 31.782-40.212 17.538 0 31.767 18 31.767 40.212" fill-rule="nonzero" fill="#FFF"/>
        <path d="M133.182 47.038s-.03-.826-.107-2.414a19.046 19.046 0 0 0-.305-2.879c-.153-1.12-.29-2.426-.657-3.84-.55-2.879-1.725-6.253-3.465-9.853-1.771-3.6-4.306-7.388-7.802-10.667-1.694-1.707-3.755-3.107-5.908-4.427-.58-.266-1.145-.547-1.725-.826l-.87-.44-.901-.32c-.61-.2-1.222-.414-1.848-.64-.61-.12-1.206-.254-1.801-.387-.55-.186-1.359-.213-2.122-.28l-1.16-.094-.58-.053c-.214-.012.198 0 .122 0h-.061l-.138.014-.244.013c-.687.026-1.374.054-2.076.08-.703.04-1.39.227-2.077.32-2.778.52-5.587 1.454-8.168 3.054-2.58 1.559-5.053 3.507-7.16 5.933-2.122 2.387-4.076 5.067-5.542 8.053-.84 1.453-1.389 3.053-2.06 4.586-.49 1.628-1.13 3.2-1.466 4.88-.184.827-.397 1.668-.58 2.494l-.382 2.507c-.076.426-.153.84-.199 1.267l-.091 1.32-.199 2.599c.016.867.061 1.734.138 2.586.06.867.137 1.72.305 2.574l.412 2.547c.183.827.412 1.667.611 2.493.336 1.667 1.008 3.241 1.496 4.853.718 1.535 1.252 3.135 2.092 4.56 3.053 5.907 7.511 10.895 12.732 13.881.657.347 1.283.747 1.97 1.054l2.015.84c.656.292 1.39.413 2.061.639l1.008.293.977.134c.32.054.64.106.946.16.336.053.596.16 1.023.146.794.041 1.588.08 2.351.12l.29.014.153.014h.076c.077 0-.35-.014-.137-.014l.504-.027.992-.08c.672-.04 1.344-.053 1.985-.214.656-.119 1.313-.225 1.954-.346.626-.174 1.237-.386 1.863-.573l.916-.294.885-.4c.595-.266 1.176-.52 1.756-.786.534-.32 1.084-.654 1.618-.973l.81-.48.747-.561c.504-.373.993-.747 1.481-1.107.473-.386.9-.826 1.344-1.226 3.542-3.293 6.045-7.146 7.786-10.76.488-.893.84-1.8 1.16-2.68.366-.88.733-1.72.947-2.573.26-.84.519-1.64.732-2.414.199-.786.352-1.533.52-2.252.35-1.427.473-2.68.64-3.774.077-.56.153-1.04.2-1.547.03-.506.045-.974.076-1.386.091-1.653.152-2.548.152-2.548l-.015.107zm5.328.107s-.015.893-.061 2.56c0 .414-.015.881-.03 1.386-.031.521-.107 1.135-.168 1.788-.138 1.293-.26 2.8-.611 4.386-.153.814-.305 1.666-.489 2.547-.244.88-.488 1.8-.763 2.76-.229.96-.595 1.92-.977 2.933-.351 1.014-.733 2.067-1.252 3.107-1.847 4.2-4.656 8.76-8.824 12.813-.535.493-1.038 1.028-1.603 1.507-.58.466-1.176.933-1.787 1.4l-.9.707-.993.626c-.656.414-1.328.827-2 1.24-.717.374-1.45.706-2.183 1.053l-1.099.52-1.176.414c-.809.254-1.587.533-2.396.773l-2.52.52c-.84.213-1.694.226-2.58.294l-1.313.08-.64.026c.152.013-.321 0-.306 0h-.076l-.153-.013-.29-.026c-.764-.054-1.557-.12-2.336-.187-.366 0-.886-.134-1.344-.213l-1.404-.293-1.374-.321-1.283-.44c-.84-.334-1.74-.574-2.534-.987-.809-.4-1.633-.813-2.458-1.213-.794-.44-1.527-.987-2.305-1.48-2.977-2.08-5.725-4.573-7.908-7.507-2.214-2.907-4.138-6.054-5.497-9.454-2.992-6.72-3.923-14.172-3.908-21.413l.015-2.707.016-1.333c.015-.44.076-.906.107-1.374l.26-2.758c.121-.921.29-1.814.442-2.707.244-1.814.824-3.56 1.252-5.333.626-1.72 1.099-3.495 1.893-5.148 1.39-3.386 3.297-6.519 5.511-9.414 2.199-2.919 4.947-5.372 7.924-7.425 2.977-2.093 6.381-3.535 9.832-4.36 3.435-.88 7.16-.854 10.29-.44.885.16 1.77.307 2.656.465.824.214 1.603.481 2.412.72l1.191.375 1.114.493c.749.333 1.497.654 2.214 1 .672.412 1.359.812 2.046 1.226l.992.6.916.693c.611.467 1.222.934 1.802 1.388.58.493 1.099 1.012 1.633 1.519 4.214 4.067 6.977 8.68 8.81 12.907.503 1.04.854 2.106 1.205 3.12.367 1.014.733 1.986.962 2.96.245.96.489 1.88.718 2.76.183.894.32 1.747.473 2.547.351 1.612.443 3.08.58 4.333.153 1.267.183 2.347.183 3.227.062 1.747.092 2.666.092 2.666v.107z" fill-rule="nonzero" fill="#231F20"/>
        <path d="M112.952 47.043c0 22.226-14.234 40.226-31.792 40.226-17.543 0-31.762-18-31.762-40.226 0-22.213 14.22-40.212 31.762-40.212 17.558 0 31.792 17.999 31.792 40.212" fill-rule="nonzero" fill="#FFF"/>
        <path d="M110.279 47.044s-.03-.827-.121-2.414a18.714 18.714 0 0 0-.273-2.88c-.166-1.12-.287-2.426-.65-3.853-.166-.706-.333-1.453-.514-2.24-.242-.773-.484-1.573-.742-2.413-.226-.853-.59-1.694-.953-2.56-.363-.88-.71-1.8-1.195-2.68-1.754-3.601-4.31-7.4-7.835-10.68-1.71-1.706-3.812-3.027-5.99-4.32-.56-.266-1.15-.534-1.724-.8l-.878-.4-.907-.293c-.62-.2-1.226-.401-1.86-.613-.576-.12-1.18-.24-1.77-.361-.53-.173-1.362-.2-2.118-.253l-1.165-.08-.575-.04c-.227-.013.212 0 .136 0h-.06l-.121.013-.257.013-2.058.08c-.68.028-1.361.214-2.042.307-2.738.547-5.536 1.44-8.092 3.014-5.25 2.946-9.802 7.867-12.918 13.76-.862 1.452-1.407 3.053-2.118 4.586-.5 1.613-1.15 3.213-1.467 4.894-.182.826-.394 1.667-.575 2.506l-.333 2.52c-.06.413-.12.826-.166 1.266l-.06 1.321-.137 2.6c.076 6.893 1.498 13.867 4.765 19.746 1.497 2.986 3.524 5.64 5.703 7.987 2.132 2.4 4.674 4.267 7.275 5.76.681.333 1.286.747 1.967 1.053.68.28 1.361.56 2.027.827.665.294 1.391.413 2.057.627l1.013.307.969.158.952.174c.333.053.59.147 1.03.133.786.041 1.572.067 2.344.108l.287.012h.151l.076.014c.076 0-.348-.026-.136-.014l.499-.04.998-.08c.666-.052 1.347-.052 1.997-.225a86.334 86.334 0 0 1 1.921-.387c.62-.213 1.24-.413 1.846-.614l.922-.294.878-.413c.574-.266 1.15-.532 1.724-.8 2.178-1.293 4.28-2.612 5.99-4.32 3.51-3.266 6.05-7.08 7.82-10.68 1.74-3.627 2.874-7.013 3.404-9.892.363-1.428.484-2.68.635-3.774.076-.56.182-1.04.212-1.547.03-.506.06-.973.076-1.386a94.55 94.55 0 0 0 .136-2.547v.107zm5.324.106s-.03.894-.06 2.561c0 .413-.015.879-.03 1.386-.03.52-.107 1.134-.167 1.786-.136 1.293-.257 2.801-.59 4.4-.166.8-.318 1.654-.5 2.548-.241.866-.483 1.786-.74 2.746-.227.973-.605 1.934-.968 2.947-.363 1.012-.711 2.066-1.226 3.106-1.845 4.227-4.598 8.814-8.788 12.907-.53.493-1.044 1.027-1.603 1.52l-1.785 1.413-.908.706-.998.628c-.666.413-1.347.826-2.027 1.239-.711.36-1.452.694-2.194 1.04l-1.119.521-1.18.4c-.801.253-1.603.52-2.405.747-.847.158-1.679.319-2.526.48-.847.187-1.724.212-2.587.267l-1.316.066-.65.04h-.303l-.075-.014-.136-.014-.288-.025-2.36-.201c-.801-.067-1.815-.32-2.722-.494l-1.407-.305-1.27-.44c-.863-.335-1.74-.574-2.557-.988-.802-.413-1.603-.812-2.42-1.225-.802-.44-1.543-.974-2.315-1.481-5.99-4.214-10.406-10.374-13.16-17.093-.786-1.64-1.225-3.414-1.845-5.12-.423-1.775-.998-3.507-1.255-5.307-.787-3.56-.953-7.213-1.074-10.853l.075-2.707.046-1.333c.015-.44.09-.908.12-1.36l.288-2.76c.136-.907.303-1.8.469-2.693.136-.908.318-1.8.575-2.667l.665-2.654c.59-1.719 1.06-3.493 1.846-5.146 1.33-3.4 3.207-6.573 5.385-9.48 2.163-2.947 4.87-5.494 7.85-7.586 2.98-2.12 6.399-3.6 9.908-4.4.877-.16 1.755-.415 2.632-.495.893-.079 1.77-.145 2.662-.225l.333-.028.167-.013h.075c-.015 0 .454.013.288.013l.59.028 1.15.066c.77.04 1.497.053 2.45.253.907.16 1.8.334 2.677.493.817.227 1.619.495 2.405.76l1.195.4 1.12.507c.725.348 1.482.68 2.193 1.04.68.427 1.361.84 2.027 1.24l.983.64.907.707c.606.466 1.21.947 1.8 1.413.56.48 1.06 1.013 1.589 1.52 4.19 4.08 6.943 8.68 8.773 12.894.514 1.04.877 2.093 1.225 3.105.363 1.014.742 1.988.984 2.949.242.959.499 1.878.74 2.759.182.88.334 1.733.485 2.547.348 1.599.454 3.066.59 4.32.166 1.266.196 2.346.212 3.226.045 1.748.075 2.667.075 2.667v.106z" fill-rule="nonzero" fill="#231F20"/>
        <path d="M90.066 47.04c0 23.813-19.31 43.12-43.112 43.12-23.802 0-43.113-19.307-43.113-43.12 0-23.8 19.31-43.108 43.113-43.108 23.802 0 43.112 19.308 43.112 43.107" fill-rule="nonzero" fill="#FFF"/>
        <path d="M87.405 47.037s-.045-.986-.165-2.84c-.03-.466-.015-.986-.105-1.56-.09-.56-.18-1.173-.285-1.84-.12-.667-.195-1.386-.36-2.146a340.97 340.97 0 0 0-.629-2.374c-.944-3.32-2.428-7.32-5.155-11.333-2.653-4.014-6.414-8.12-11.375-11.386-2.517-1.548-5.215-3.081-8.242-4.121-.75-.267-1.514-.534-2.263-.8-.794-.2-1.588-.4-2.398-.6-1.588-.48-3.162-.547-4.78-.853-.795-.121-1.799-.094-2.698-.16l-1.379-.067-.704-.027h.075l-.075.013h-.165l-.33.027c-1.738.12-3.506.107-5.245.481-3.521.44-6.983 1.6-10.355 3.04-3.372 1.493-6.519 3.586-9.441 5.973-2.878 2.467-5.41 5.36-7.583 8.546-2.113 3.227-3.717 6.788-4.886 10.494l-.719 2.826a8.26 8.26 0 0 0-.285 1.4l-.21 1.388-.21 1.386c-.104.44-.074 1.026-.104 1.533l-.15 3c.09 3.92.57 7.814 1.678 11.547 1.17 3.706 2.773 7.267 4.886 10.493 2.173 3.186 4.705 6.08 7.583 8.547 2.922 2.387 6.07 4.48 9.441 5.973.794.44 1.693.667 2.548 1.013.839.307 1.678.694 2.562.881.884.227 1.754.467 2.623.693.854.213 1.693.28 2.547.44 1.574.36 3.597.374 5.425.493l.54.04.66-.04 1.273-.054c.854-.052 1.724-.025 2.563-.158 6.729-.762 12.858-3.134 17.818-6.374 4.96-3.267 8.722-7.373 11.375-11.386 2.727-4.015 4.21-8.015 5.155-11.334.225-.841.435-1.626.63-2.374.164-.747.24-1.44.344-2.079.105-.641.195-1.24.285-1.788.105-.545.09-1.146.12-1.626.12-1.973.165-3.04.165-3.04v.133zm5.335.147s-.06 1.053-.15 3.027c-.03.507-.03 1.027-.105 1.694-.09.653-.195 1.372-.315 2.146-.12.773-.21 1.627-.404 2.493-.21.853-.435 1.76-.675 2.707-1.064 3.773-2.727 8.334-5.784 12.907-2.998 4.586-7.224 9.28-12.814 13.092-5.604 3.76-12.588 6.602-20.306 7.56-.974.161-1.948.148-2.937.215l-1.484.093-.734.04c.105 0-.255-.015-.255-.015h-.255l-.344-.025c-1.888-.107-3.672-.068-5.845-.454-4.24-.493-8.137-1.746-12.094-3.374-3.926-1.68-7.598-4.04-11.014-6.772-3.372-2.8-6.325-6.16-8.887-9.841-2.473-3.733-4.391-7.866-5.785-12.185C1.234 56.144.635 51.597.515 47.037l.165-3.333c.06-.547.03-1.013.135-1.614l.254-1.76.27-1.747c.075-.586.195-1.16.36-1.692l.854-3.294c1.394-4.32 3.312-8.453 5.785-12.186 2.562-3.68 5.515-7.04 8.887-9.84 3.416-2.734 7.088-5.094 11.014-6.774 3.912-1.626 7.943-2.894 12.004-3.36 2.023-.386 4.047-.373 6.04-.48l.374-.013h.195l.09-.013.24.013.69.04 1.393.08c.929.066 1.783.054 2.787.2 1.949.334 3.987.52 5.77 1.066.9.254 1.813.493 2.697.721.885.306 1.754.64 2.608.96 3.447 1.24 6.519 3.013 9.366 4.826 5.59 3.814 9.816 8.507 12.814 13.08 3.057 4.588 4.72 9.146 5.784 12.92.24.947.465 1.854.675 2.706.194.855.27 1.668.404 2.428.105.746.21 1.452.3 2.092.09.642.09 1.227.12 1.761.09 2.094.15 3.213.15 3.213v.147z" fill-rule="nonzero" fill="#231F20"/>
        <path d="M66.964 26.158c0 5.027-4.078 9.106-9.12 9.106-5.026 0-9.104-4.079-9.104-9.106 0-5.04 4.078-9.12 9.105-9.12a9.114 9.114 0 0 1 9.119 9.12" fill-rule="nonzero" fill="#FFF"/>
        <path d="M66.964 26.158c0 5.027-4.078 9.106-9.12 9.106-5.026 0-9.104-4.079-9.104-9.106 0-5.04 4.078-9.12 9.105-9.12a9.114 9.114 0 0 1 9.119 9.12z" stroke="#231F20" stroke-width="4"/>
        <path d="M29.626 67.267a5.775 5.775 0 0 1-5.781 5.772 5.775 5.775 0 0 1-5.781-5.772 5.776 5.776 0 0 1 5.78-5.774 5.776 5.776 0 0 1 5.782 5.774" fill-rule="nonzero" fill="#FFF"/>
        <path d="M29.626 67.267a5.775 5.775 0 0 1-5.781 5.772 5.775 5.775 0 0 1-5.781-5.772 5.776 5.776 0 0 1 5.78-5.774 5.776 5.776 0 0 1 5.782 5.774z" stroke="#231F20" stroke-width="3.333"/>
        <path d="M7.211 34.915s.974 1.242 2.89 3.347c1.902 2.107 4.747 5.027 8.389 8.2 1.828 1.588 3.862 3.214 6.133 4.747 2.255 1.52 4.732 2.974 7.415 3.96 2.669 1 5.529 1.614 8.242 1.173.678-.04 1.312-.306 1.99-.452.604-.293 1.268-.454 1.843-.854l.899-.52.84-.653.413-.32.044-.04c.045-.027-.28.267-.132.12l.03-.027.117-.106.221-.227.428-.44c.133-.134.339-.321.354-.414.103-.2.236-.4.383-.587.103-.24.206-.533.324-.799.148-.253.133-.586.236-.867.089-.293.118-.613.118-.933.074-.628-.03-1.32-.074-1.987-.147-.693-.22-1.386-.471-2.094-.796-2.8-2.212-5.533-3.775-8.065-3.17-5.08-6.855-9.468-10.113-13.108a178.265 178.265 0 0 0-8.182-8.573c-1.032-.986-1.843-1.76-2.389-2.294-.56-.506-.855-.786-.855-.786l2.64-3s.324.28.928.812c.575.534 1.43 1.308 2.506 2.307 2.138 2.001 5.175 4.894 8.58 8.615 3.391 3.733 7.24 8.213 10.69 13.653 1.71 2.733 3.331 5.719 4.378 9.186.295.84.427 1.787.619 2.694.088.96.206 1.906.118 2.934a6.91 6.91 0 0 1-.192 1.52c-.118.505-.162 1.026-.383 1.52-.221.492-.383.986-.649 1.478a16.351 16.351 0 0 1-.988 1.48c-.176.294-.294.362-.442.534l-.427.454-.222.212-.103.121-.206.2-.074.052-.575.441-1.135.854-1.253.72c-.796.52-1.74.8-2.624 1.173-.93.227-1.858.547-2.801.613-3.79.547-7.387-.306-10.497-1.507-3.126-1.2-5.853-2.839-8.3-4.506-2.448-1.68-4.586-3.44-6.502-5.12-3.833-3.374-6.65-6.533-8.595-8.76-1.917-2.227-2.963-3.613-2.963-3.613l3.154-2.468" fill-rule="nonzero" fill="#231F20"/>
    </g>
</svg>
