<svg width="167" height="168" xmlns="http://www.w3.org/2000/svg">
    <title>
        sina
    </title>
    <g fill="none" fill-rule="evenodd">
        <path d="M163.63 83.987v40c0 22.093-17.907 40-39.999 40h-80c-22.09 0-40-17.907-40-40v-40c0-44.174 35.817-80 80-80s80 35.826 80 80" fill="#FFF" fill-rule="nonzero"/>
        <path d="M163.63 83.987v40c0 22.093-17.907 40-39.999 40h-80c-22.09 0-40-17.907-40-40v-40c0-44.174 35.817-80 80-80s80 35.826 80 80z" stroke="#231F20" stroke-width="6.667"/>
        <path d="M31.093 163.987l.374-46.894.111-22.706.015-3.054.167-3.213c.017-2 .466-4.333.808-6.587.138-1.146.523-2.186.778-3.293.318-1.08.496-2.213.934-3.28l1.186-3.227c.358-1.093.96-2.093 1.435-3.146.929-2.134 2.236-4.094 3.452-6.107.645-.987 1.396-1.907 2.096-2.853L43.52 58.2l1.199-1.333c3.093-3.64 6.9-6.707 10.957-9.374l3.131-1.893 3.307-1.6c1.088-.573 2.248-.973 3.406-1.387 1.165-.4 2.289-.92 3.495-1.186 4.73-1.427 9.682-1.974 14.615-2.107l3.648.187c.593.026 1.153.026 1.773.106l1.88.267c1.243.213 2.533.333 3.73.627l3.585.92c1.206.266 2.329.786 3.495 1.186 1.157.414 2.318.814 3.406 1.387l3.306 1.6 3.132 1.893c4.057 2.667 7.864 5.734 10.957 9.374l1.199 1.333 1.072 1.427c.7.946 1.45 1.866 2.095 2.853 1.216 2.013 2.524 3.973 3.452 6.107.475 1.053 1.078 2.053 1.435 3.146.397 1.08.793 2.16 1.187 3.227.438 1.067.616 2.2.934 3.28.252 1.093.644 2.16.774 3.28.33 2.213.782 4.387.81 6.573l.168 3.24.015 3.054c.04 8.053.077 15.68.11 22.706l.375 46.894h-6.666l.375-46.894.11-22.706.015-3.054-.128-2.906c.005-1.96-.397-3.894-.662-5.88-.098-1-.453-1.947-.666-2.934-.28-.96-.424-1.973-.82-2.92-.348-.96-.698-1.92-1.05-2.88-.308-.986-.858-1.88-1.275-2.826-.814-1.92-1.993-3.654-3.064-5.467-.574-.88-1.25-1.707-1.87-2.56l-.951-1.28-1.073-1.187c-2.751-3.28-6.163-6.026-9.785-8.44l-2.796-1.706-2.958-1.427c-.97-.533-2.01-.893-3.046-1.267-1.044-.346-2.044-.84-3.125-1.066l-3.208-.827c-1.07-.28-2.127-.36-3.19-.547l-1.594-.266c-.541-.067-1.158-.067-1.734-.107l-3.377-.187c-4.433.147-8.87.64-13.102 1.934-1.082.226-2.082.72-3.125 1.066-1.036.374-2.076.734-3.046 1.267L61.4 50.347l-2.798 1.706c-3.621 2.414-7.033 5.16-9.784 8.44l-1.073 1.187-.951 1.28c-.621.853-1.297 1.68-1.87 2.56-1.072 1.813-2.25 3.547-3.065 5.467-.417.946-.967 1.84-1.275 2.826l-1.05 2.88c-.396.947-.539 1.96-.82 2.92-.21.987-.57 1.96-.66 2.92-.256 1.934-.66 3.72-.666 5.867l-.13 2.933.016 3.054.11 22.706.374 46.894h-6.666" fill="#231F20" fill-rule="nonzero"/>
        <path d="M45.034 163.987l.18-23.76.071-24.374.02-6.786.005-.334.011-.213.023-.427c.024-.306.013-.533.064-.906.106-.72.194-1.48.386-2.12.303-1.334.864-2.6 1.507-3.827 1.36-2.387 3.335-4.467 5.75-5.867 2.383-1.453 5.206-2.146 7.983-2.173.877.053 1.147.013 2.005.133l1.114.174 1.02.253a14.38 14.38 0 0 1 3.845 1.613c2.414 1.4 4.39 3.48 5.75 5.867 1.336 2.4 2.02 5.2 1.996 7.827l.02 6.786.071 24.374.18 23.76H71.7l.18-23.76.071-24.374.02-6.786a11.2 11.2 0 0 0-1.356-5.507c-1.836-3.413-5.637-5.693-9.582-5.693-3.944 0-7.745 2.28-9.58 5.693-.435.853-.834 1.72-1.03 2.653-.147.48-.16.88-.245 1.294-.04.2-.035.56-.054.826l-.021.427-.01.213c.004-.226.001-.026.002-.066v.16c.008 2.293.014 4.56.02 6.786l.073 24.374.179 23.76h-5.334m37.404 0l.18-30.707a578894.266 578894.266 0 0 0 .092-40.253l.004-.4.015-.28.03-.56c.029-.387.015-.694.08-1.147.134-.88.236-1.827.479-2.613.376-1.667 1.076-3.254 1.877-4.774 1.696-2.986 4.16-5.586 7.174-7.333 2.973-1.813 6.495-2.68 9.965-2.72 1.05.067 1.495.013 2.523.173l1.372.214 1.271.306c.856.187 1.654.56 2.476.84.78.387 1.595.707 2.323 1.187 3.013 1.747 5.477 4.347 7.173 7.333 1.666 2.987 2.518 6.48 2.486 9.774l.02 8.773.072 31.48c.107 18.427.18 30.707.18 30.707h-5.334l.179-30.707.072-31.48.02-8.773c.03-2.64-.602-5.16-1.847-7.467-2.49-4.613-7.646-7.707-12.986-7.693-5.34-.014-10.496 3.08-12.987 7.693-.592 1.16-1.13 2.347-1.4 3.613-.197.64-.224 1.2-.337 1.787-.054.293-.046.72-.072 1.08l-.027.547-.013.28c.005-.214.001-.014.002-.054v.067l.001.147.02 8.773.072 31.48.179 30.707h-5.334" fill="#231F20" fill-rule="nonzero"/>
    </g>
</svg>
