<svg width="168" height="168" xmlns="http://www.w3.org/2000/svg">
    <title>
        sinpin
    </title>
    <g fill="none" fill-rule="evenodd">
        <path d="M163.964 26.747v57.24c0 44.186-35.816 80-80 80-44.183 0-80-35.814-80-80v-57.24" fill="#FFF" fill-rule="nonzero"/>
        <path d="M163.964 26.747v57.24c0 44.186-35.816 80-80 80-44.183 0-80-35.814-80-80v-57.24" stroke="#231F20" stroke-width="6.667" stroke-linecap="round" stroke-linejoin="round"/>
        <path d="M163.964 26.747c0-12.667-35.816-22.92-80-22.92-44.183 0-80 10.253-80 22.92 0 12.653 35.817 22.906 80 22.906 44.184 0 80-10.253 80-22.906" fill="#FFF" fill-rule="nonzero"/>
        <path d="M167.297 26.747s-.018.506-.12 1.48c-.045.493-.23 1.066-.409 1.746-.227.654-.535 1.4-.957 2.147-1.706 3.053-5.135 5.987-9.65 8.4-9.07 4.853-22.666 8.507-39.136 10.667-8.241 1.093-17.182 1.8-26.692 2.04-9.458.266-19.488-.067-29.806-.974-10.322-.933-20.968-2.48-31.627-5.293-5.321-1.453-10.657-3.173-15.853-5.773-2.591-1.32-5.16-2.84-7.552-4.974-1.172-1.106-2.344-2.293-3.259-3.906-.248-.36-.45-.787-.637-1.24-.19-.44-.388-.814-.532-1.427l-.206-.853c-.057-.267-.136-.614-.132-.734l-.042-.506-.022-.254-.01-.133-.024-.413c.01-2.067.697-4.014 1.62-5.56.918-1.614 2.092-2.787 3.266-3.894 2.396-2.106 4.968-3.626 7.56-4.933 5.199-2.573 10.536-4.267 15.858-5.693 10.658-2.774 21.3-4.28 31.613-5.187C70.885.587 80.833.36 90.338.573c9.475.2 18.429.88 26.66 1.934 16.458 2.12 30.057 5.693 39.134 10.506 4.517 2.4 7.952 5.32 9.664 8.36.233.347.385.76.552 1.107.155.387.31.64.423 1.067.113.4.206.773.282 1.106.075.334.147.694.144.8l.088 1 .012.294zm-6.653.293l-.088-1c-.007-.227-.05-.227-.079-.293a.496.496 0 0 1-.061-.187c.01-.053-.117-.253-.168-.387-.081-.16-.108-.32-.248-.506-.777-1.454-3.113-3.72-7.02-5.774-3.888-2.066-9.123-4.053-15.368-5.693-6.244-1.667-13.477-3.067-21.461-4.08-7.982-1.027-16.711-1.68-25.962-1.88-9.217-.213-19.045.013-29.066.88-10.031.88-20.372 2.36-30.487 4.987-5.03 1.346-10.045 2.96-14.579 5.226-2.253 1.12-4.39 2.427-6.081 3.92-1.707 1.494-2.679 3.174-2.679 4.494-.021-.547.002-.08 0-.174l.011.134.024.253.047.507c.008.226.054.186.076.253a.741.741 0 0 1 .057.147c-.013.066.116.293.193.466.076.187.156.374.302.574.424.773 1.189 1.56 1.992 2.306 1.694 1.48 3.834 2.774 6.089 3.88 4.536 2.227 9.553 3.827 14.584 5.147 10.115 2.587 20.448 4.027 30.472 4.867 10.04.853 19.787.986 29.05.826 9.218-.16 17.957-.8 25.929-1.786 7.978-.987 15.21-2.36 21.454-3.987 6.246-1.613 11.482-3.587 15.374-5.627 3.909-2.026 6.249-4.28 7.034-5.72.81-1.44.559-2.053.646-2.066l.013.293zM30.464 145.653l-.11-9.013-.13-10.36-.037-3.093-.02-1.614-.011-.826-.003-.214.01-.36.016-.413c.116-2.267.077-4.507.565-7.253.281-2.707 1.033-5.294 1.712-8.027l1.447-4.053c.224-.694.52-1.36.849-2.014.316-.68.633-1.346.955-2.026 2.646-5.36 6.341-10.6 11.088-15.107a53.982 53.982 0 0 1 16.83-10.92 54.407 54.407 0 0 1 20.339-4.04l5.083.267c1.73.2 3.545.506 5.306.773 1.736.347 3.383.853 5.071 1.267 1.664.48 3.259 1.16 4.88 1.733a53.982 53.982 0 0 1 16.83 10.92c4.746 4.507 8.442 9.747 11.089 15.107.32.68.638 1.346.954 2.026.33.654.626 1.32.85 2.014.489 1.373.972 2.72 1.445 4.053.68 2.733 1.433 5.347 1.703 7.947.48 2.573.466 5.08.58 7.453.03 2.307-.039 4.387-.051 6.4l-.128 10.36c-.07 5.733-.112 9.013-.112 9.013h-5.333l-.111-9.013-.13-10.36c-.037-1.987-.02-4.16-.107-6.333-.167-2.107-.148-4.334-.623-6.614-.259-2.306-.98-4.613-1.599-7.026l-1.33-3.547c-.203-.613-.475-1.2-.778-1.787-.286-.573-.576-1.173-.868-1.76a49.07 49.07 0 0 0-9.916-13.226 47.426 47.426 0 0 0-14.84-9.534c-1.428-.493-2.825-1.093-4.288-1.506-1.472-.347-2.956-.787-4.424-1.08-1.472-.2-2.885-.467-4.406-.64l-4.747-.24c-6.144 0-12.268 1.186-17.864 3.466a47.426 47.426 0 0 0-14.84 9.534 49.07 49.07 0 0 0-9.916 13.226c-.292.587-.581 1.187-.87 1.76a12.231 12.231 0 0 0-.775 1.787l-1.331 3.547c-.62 2.413-1.341 4.746-1.588 6.946-.467 2.107-.473 4.6-.637 6.814l-.027.413-.007.107-.002.053.002-.107-.002.214-.011.826-.02 1.614c-.013 1.066-.025 2.093-.039 3.093l-.128 10.36c-.07 5.733-.112 9.013-.112 9.013h-5.333" fill="#231F20" fill-rule="nonzero"/>
        <path d="M55.797 115.333h56.334" stroke="#231F20" stroke-width="5.333" stroke-linecap="round" stroke-linejoin="round"/>
        <path d="M60.63 133.6h46.667" stroke="#231F20" stroke-width="5.6" stroke-linecap="round" stroke-linejoin="round"/>
    </g>
</svg>
