<svg width="168" height="168" xmlns="http://www.w3.org/2000/svg">
    <title>
        sitelen
    </title>
    <g fill="none">
        <path d="M79.297 141.987c0 12.16 6.294 22 14.056 22 7.763 0 14.056-9.84 14.056-22 0 12.16 6.292 22 14.055 22s14.056-9.84 14.056-22c0 12.16 6.293 22 14.056 22 7.763 0 14.055-9.84 14.055-22V83.653c0-44.173-35.816-80-80-80-44.183 0-80 35.827-80 80v40c0 22.094 17.666 40 40 40 22.333 0 35.666-21.666 35.666-21.666" fill="#FFF"/>
        <path d="M77.108 149.52c-.197.24-.381.493-.583.733-1.837 2.12-3.804 4.147-5.976 5.96-4.28 3.68-9.208 6.814-14.748 8.667l-2.092.627c-.702.2-1.376.44-2.149.56l-2.26.4c-.756.146-1.53.293-2.161.293l-2 .133-1.002.067-.249.027s-.461.013-.33 0h-.134l-.541-.027c-1.442-.093-2.892-.08-4.324-.28a42.913 42.913 0 0 1-16.416-5.333c-10.115-5.707-17.696-15.654-20.502-26.92l-.526-2.12-.34-2.227-.315-2.227-.101-2-.102-2-.006-2.173-.004-4.013-.011-16.04-.012-16.04v-2.014l.05-2.08.053-2.093.154-2.08.158-2.093.256-2.067.264-2.08.362-2.053a82.944 82.944 0 0 1 12.246-30.88 83.9 83.9 0 0 1 23.306-23.654A83.058 83.058 0 0 1 67.772 1.84 85.52 85.52 0 0 1 76.06.68c1.393-.093 2.88-.253 4.197-.267L82.263.36l1.001-.027h.595l.521.014c5.564.04 11.13.626 16.583 1.786 10.906 2.28 21.332 6.827 30.454 13.227a84.058 84.058 0 0 1 22.895 24.04c5.936 9.44 9.97 20.08 11.693 31.107.22 1.373.364 2.76.547 4.146.155 1.387.228 2.827.341 4.24.09 1.4.082 2.68.127 4.04l.016 1.08v1.014l-.003 2-.013 16.04-.025 32.08-.004 4.013c-.012 1.36.025 2.587-.043 4.12-.101 2.92-.532 5.853-1.361 8.72-.835 2.853-2.06 5.653-3.868 8.227-.875 1.293-1.991 2.48-3.21 3.586-1.3 1.04-2.705 2.054-4.405 2.64-.739.36-1.91.574-2.85.747l-1 .08-.25.027h-.125c.022.013-.599.026-.419.013l-.681-.053c-1.834-.08-3.575-.694-5.123-1.48-3.057-1.667-5.3-4.134-6.867-6.774-3.094-5.333-4.174-11.28-3.936-17.026l.014-.32a2.66 2.66 0 0 1 2.773-2.547 2.673 2.673 0 0 1 2.547 2.867V142c.033 1.28.073 2.573-.042 3.867-.024.64-.089 1.293-.18 1.933-.086.653-.145 1.307-.286 1.947-.232 1.28-.587 2.56-.971 3.826l-.681 1.88-.824 1.854c-.302.6-.651 1.2-.979 1.8-.356.586-.779 1.16-1.17 1.733-.433.547-.907 1.093-1.366 1.64-.528.493-1.027 1.027-1.596 1.493-1.163.934-2.427 1.814-3.919 2.374-.386.146-.688.32-1.149.426-.443.12-.89.214-1.339.307-.509.12-.776.133-1.068.16l-.445.04-.223.013-.112.014-.374.013c-1.62-.067-3.264-.333-4.711-.973-1.492-.56-2.755-1.44-3.917-2.374-.57-.466-1.07-1-1.596-1.506-.459-.534-.934-1.08-1.364-1.64-.392-.574-.815-1.134-1.171-1.72-.33-.6-.677-1.2-.979-1.814l-.824-1.84-.681-1.88c-.384-1.266-.739-2.546-.97-3.84-.142-.64-.2-1.28-.286-1.933a18.949 18.949 0 0 1-.181-1.933c-.115-1.294-.074-2.587-.04-3.88l.006-.28a2.663 2.663 0 0 1 2.735-2.6 2.673 2.673 0 0 1 2.592 2.88c.032 1.293.073 2.586-.041 3.88-.026.64-.09 1.293-.182 1.933-.085.653-.144 1.293-.285 1.947-.232 1.28-.587 2.56-.97 3.826l-.682 1.88-.824 1.854c-.301.6-.65 1.2-.979 1.8-.356.586-.778 1.146-1.17 1.733-.432.547-.907 1.093-1.364 1.64-.528.493-1.028 1.027-1.598 1.493-1.162.934-2.425 1.814-3.918 2.374-.387.146-.688.32-1.15.426-.441.12-.889.214-1.337.307-.51.12-.777.133-1.07.16l-.445.04-.222.013-.112.014-.375.013c-1.62-.067-3.264-.333-4.71-.973-1.493-.56-2.755-1.44-3.918-2.374-.57-.466-1.07-1-1.596-1.506-.459-.534-.933-1.08-1.364-1.627-.393-.587-.815-1.147-1.172-1.733-.328-.6-.676-1.2-.977-1.814l-.826-1.84-.681-1.88c-.383-1.266-.737-2.546-.97-3.84-.015-.066-.017-.133-.03-.213zm4.855-7.613c.109 1.186.192 2.426.368 3.4a14.4 14.4 0 0 0 .284 1.573c.118.533.205 1.067.37 1.587.255 1.04.592 2.066.95 3.066l.614 1.454.708 1.386a25.098 25.098 0 0 0 1.66 2.52l.944 1.107c.35.293.675.64 1.028.933.715.534 1.442 1.027 2.2 1.28.746.334 1.51.387 2.264.44-.521.027-.136.014-.249.014h.097l.112-.014.224-.013.447-.04.447-.027c.176 0 .162-.053.253-.066.132-.04.265-.08.404-.094.127-.013.355-.146.528-.2.76-.253 1.487-.746 2.201-1.28.352-.293.678-.64 1.027-.933l.945-1.107a24.861 24.861 0 0 0 1.659-2.52l.71-1.386.614-1.454c.357-1 .695-2.013.95-3.066.165-.52.251-1.054.37-1.587a14.59 14.59 0 0 0 .288-1.613c.181-1.08.252-2.174.363-3.28h5.333c.11 1.106.181 2.2.363 3.28.064.546.164 1.08.286 1.613.119.533.207 1.067.372 1.587.254 1.04.592 2.066.95 3.066l.613 1.454.71 1.386c.511.894 1.07 1.734 1.658 2.52l.944 1.107c.35.293.676.64 1.028.933.715.534 1.441 1.027 2.2 1.28.745.334 1.51.387 2.264.44-.521.027-.136.014-.25.014h.098l.112-.014.224-.013.447-.04.445-.027c.177 0 .164-.04.255-.066.257-.08.52-.094.932-.294.76-.253 1.486-.746 2.201-1.28.352-.293.677-.64 1.027-.933l.945-1.107a25.098 25.098 0 0 0 1.66-2.52l.708-1.386.615-1.454c.357-1 .694-2.013.949-3.066.165-.52.253-1.054.37-1.587a14.59 14.59 0 0 0 .289-1.613c.181-1.08.252-2.174.362-3.267v-.013h5.334c.16 2.48.529 4.906 1.202 7.226.644 2.32 1.588 4.52 2.835 6.414 1.197 1.933 2.787 3.453 4.448 4.32.841.386 1.68.693 2.532.68l.319.026c.262-.013-.275.027-.17.014l.126-.014.249-.013 1-.08c.172-.067.3-.12.455-.147.078-.026.145-.026.236-.053l.31-.133c.844-.267 1.64-.867 2.427-1.48.745-.694 1.49-1.454 2.105-2.387 1.272-1.8 2.238-3.96 2.892-6.227.655-2.28 1.008-4.666 1.086-7.08.058-1.146.025-2.586.033-3.893l-.004-4.013-.027-32.08-.013-16.04-.001-2v-1.014l-.016-.906c-.047-1.32-.044-2.707-.131-3.974-.11-1.253-.172-2.493-.315-3.76-.173-1.266-.302-2.533-.508-3.8a76.466 76.466 0 0 0-10.705-28.56 77.243 77.243 0 0 0-21.008-22.133c-8.376-5.893-17.945-10.08-27.968-12.2-9.99-2.133-20.525-2.213-30.539-.267A76.28 76.28 0 0 0 40.84 20.08a77.011 77.011 0 0 0-21.392 21.773 76.152 76.152 0 0 0-11.201 28.36l-.331 1.894-.241 1.906-.24 1.907-.146 1.907-.146 1.92-.05 1.92-.05 1.92-.004 2-.012 16.04-.012 16.04-.003 4.013-.004 1.827.097 2.013.099 2 .27 1.733.258 1.734.448 1.786c2.35 9.507 8.74 17.92 17.272 22.747a36.407 36.407 0 0 0 13.868 4.533c1.215.174 2.45.147 3.675.24l.46.027h.114c.215 0-.165.013-.078.013l.25-.013 1.002-.053 2.001-.107c.71-.013 1.248-.133 1.808-.24l1.688-.28c.557-.067 1.15-.267 1.732-.427l1.756-.506c4.641-1.494 8.984-4.067 12.916-7.2 1.985-1.547 3.81-3.32 5.583-5.134a52.945 52.945 0 0 0 4.8-5.773l.013-.027a2.71 2.71 0 0 1 3.795-.626 2.7 2.7 0 0 1 1.128 1.96z" fill="#231F20"/>
        <path d="M3.016 95.427s.481-.174 1.383-.507c.892-.333 2.13-.867 3.738-1.52 1.61-.627 3.502-1.667 5.718-2.667a80.47 80.47 0 0 1 1.706-.8c.572-.306 1.143-.653 1.739-.986 1.185-.68 2.432-1.387 3.733-2.134 1.336-.76 2.728-1.546 4.168-2.373.732-.413 1.619-.813 2.446-1.24.842-.387 1.696-.707 2.564-1.08 3.512-1.32 7.45-2.267 11.686-2.32 4.199-.107 8.827.933 12.767 3.56.928.733 1.915 1.4 2.701 2.293.399.44.86.827 1.203 1.307l1.052 1.427.26.36.065.093.122.2.094.173.379.654.757 1.333c.522.827.976 1.947 1.443 2.973 1.808 4.134 2.848 8.334 3.353 12.547.474 4.2.582 8.307.442 12.24-.295 7.867-1.242 15.027-2.15 21.12-.45 3.053-.882 5.84-1.316 8.293-.425 2.467-.797 4.6-1.102 6.36l-1.022 5.534-.001.013a2.005 2.005 0 0 1-2.332 1.6 2.008 2.008 0 0 1-1.628-2.16l.548-5.613.732-6.414c.297-2.48.635-5.253 1.001-8.293.366-3.04.73-6.32 1.084-9.773.355-3.454.622-7.094.732-10.827a77.428 77.428 0 0 0-.494-11.373l-.458-2.827c-.168-.947-.437-1.853-.645-2.787-.177-.946-.523-1.826-.807-2.733l-.44-1.36-.542-1.24c-.375-.84-.644-1.64-1.208-2.56l-.747-1.333-.373-.68-.094-.16-.022-.04c-.072-.12.07.12.048.08l-.048-.067-.191-.253-.75-1.04c-.237-.36-.574-.614-.851-.934-.54-.653-1.252-1.106-1.89-1.653-2.766-1.853-6.204-2.747-9.648-2.693-3.44.026-6.848.706-9.922 1.8-.756.306-1.528.586-2.242.906-.704.334-1.362.6-2.08.987-.704.387-1.397.76-2.077 1.133-.723.387-1.433.76-2.13 1.12-1.391.734-2.725 1.427-3.994 2.094-.636.32-1.247.653-1.856.946-.621.267-1.225.534-1.81.787-1.173.493-2.27.96-3.285 1.387-1.012.426-1.944.813-2.829 1.106-1.743.6-3.119 1.107-4.041 1.387-.919.28-1.408.427-1.408.427a1.998 1.998 0 0 1-2.491-1.334 2.01 2.01 0 0 1 1.23-2.466h.03" fill="#231F20"/>
        <path d="M2.42 117.533s.872-.44 2.4-1.186a166.52 166.52 0 0 1 6.46-3.027c1.343-.613 2.81-1.24 4.377-1.893 1.552-.667 3.228-1.294 4.947-1.974 1.737-.626 3.525-1.306 5.376-1.906.924-.307 1.856-.614 2.79-.92l2.847-.84c1.902-.56 3.83-1.04 5.732-1.48 1.911-.427 3.798-.827 5.648-1.12 1.835-.347 3.652-.494 5.356-.734 1.724-.093 3.344-.293 4.862-.293 1.513-.013 2.9-.067 4.136.04 1.234.067 2.31.08 3.196.213 1.772.214 2.784.347 2.784.347a2.263 2.263 0 1 1-.546 4.493h-.017l-.17-.026s-.918-.12-2.527-.32c-.799-.147-1.795-.16-2.927-.227-1.13-.107-2.421-.067-3.828-.067-1.404-.026-2.933.16-4.548.227-1.612.213-3.321.333-5.073.653-1.759.267-3.566.627-5.399 1.027-1.828.413-3.685.853-5.524 1.373-.92.267-1.84.52-2.756.787-.908.293-1.813.573-2.712.867-1.799.56-3.544 1.213-5.239 1.813-1.681.653-3.317 1.24-4.841 1.88a122.791 122.791 0 0 0-4.295 1.813 182.69 182.69 0 0 0-6.344 2.907c-1.533.733-2.409 1.16-2.409 1.16-.995.48-2.19.067-2.67-.933a1.988 1.988 0 0 1 .914-2.654m4.812 22.094s.195-.12.557-.347c.375-.227.924-.547 1.623-.973 1.384-.814 3.393-1.907 5.833-3.174 1.239-.586 2.558-1.28 3.996-1.92 1.435-.653 2.943-1.346 4.544-1.973 1.582-.68 3.254-1.28 4.96-1.893 1.687-.654 3.479-1.107 5.232-1.68 1.774-.494 3.58-.907 5.348-1.347 1.804-.307 3.562-.693 5.296-.907 1.747-.146 3.42-.413 5.036-.44 1.618-.013 3.146-.08 4.56-.026 1.418.133 2.716.253 3.868.36 1.154.08 2.139.413 2.96.546 1.638.36 2.572.56 2.572.56a2.337 2.337 0 0 1 1.782 2.774 2.342 2.342 0 0 1-2.772 1.786l-.016-.013-.3-.067s-.82-.186-2.258-.506c-.725-.134-1.573-.44-2.608-.52-1.03-.107-2.193-.227-3.461-.36-1.277-.067-2.677-.014-4.15-.027-1.475 0-3.038.24-4.651.36-1.614.173-3.272.52-4.963.787-1.673.386-3.384.76-5.075 1.213-1.676.533-3.382.947-5.008 1.547-1.64.56-3.249 1.133-4.778 1.76-1.547.586-3.01 1.24-4.4 1.84-1.395.6-2.675 1.253-3.878 1.813-2.368 1.187-4.321 2.227-5.652 3-.656.387-1.172.68-1.522.893-.355.214-.544.32-.544.32l-.028.027a2.01 2.01 0 0 1-2.75-.667 2.013 2.013 0 0 1 .647-2.746m158.232-66.04s-.316.6-.907 1.733a21.102 21.102 0 0 1-1.22 2.16c-.55.853-1.141 1.92-1.918 2.907-.748 1.04-1.584 2.186-2.615 3.333-.965 1.2-2.17 2.347-3.421 3.6a53.142 53.142 0 0 1-9.546 7.027 54.005 54.005 0 0 1-12.901 5.346c-1.207.28-2.424.6-3.67.854-1.253.2-2.518.453-3.806.626-1.293.12-2.599.28-3.921.374-.663.013-1.328.04-1.996.066l-1.006.027-.504.013h-.378l-.239-.013a349.756 349.756 0 0 0-3.867-.187c-.628-.013-1.348-.12-2.048-.213-.701-.093-1.406-.2-2.113-.293-.7-.107-1.428-.174-2.11-.32l-2.049-.48c-1.372-.307-2.753-.614-4.09-1.094-5.416-1.68-10.704-4.2-15.376-7.626-4.69-3.4-8.783-7.64-11.936-12.427-3.159-4.773-5.334-10.107-6.386-15.48-.2-1.347-.505-2.68-.6-4.013-.068-1.347-.134-2.68-.201-3.987l-.005-.133-.003-.054.004-.16.012-.24.023-.453.046-.92c.047-.627.026-1.16.13-1.853.176-1.307.28-2.64.57-3.854a42.639 42.639 0 0 1 4.91-13.093c2.164-3.76 4.696-6.84 7.161-9.32 2.473-2.467 4.848-4.373 6.935-5.747 1.013-.733 1.974-1.293 2.806-1.786a26.016 26.016 0 0 1 2.142-1.2c1.182-.614 1.814-.934 1.814-.934a2.002 2.002 0 0 1 2.692.854c.495.96.143 2.133-.784 2.653l-.113.067s-.57.32-1.637.933a24.2 24.2 0 0 0-1.927 1.173c-.747.494-1.61 1.027-2.51 1.734-1.858 1.333-3.945 3.173-6.138 5.44a40.264 40.264 0 0 0-6.223 8.506 37.715 37.715 0 0 0-4.05 11.654c-.239 1.093-.271 2.133-.408 3.213-.08.507-.051 1.187-.08 1.773l-.024.907-.012.467-.007.226.001-.04.003.054.008.106.221 3.467c.094 1.173.388 2.32.568 3.493.979 4.654 2.924 9.267 5.743 13.427 2.808 4.16 6.48 7.827 10.644 10.827 4.156 3.013 8.885 5.226 13.732 6.693 1.193.44 2.435.693 3.661.973l1.835.414c.61.133 1.207.173 1.808.266l1.79.24c.598.08 1.166.187 1.84.187l3.867.16.24.013h.12c-.04 0 .175.014-.076 0h.058l.452-.013.901-.027c.6-.026 1.197-.04 1.79-.066 1.186-.08 2.354-.227 3.513-.334 1.152-.16 2.281-.386 3.404-.573 1.11-.227 2.196-.52 3.273-.773 4.272-1.16 8.135-2.827 11.461-4.76a47.195 47.195 0 0 0 8.406-6.2c2.224-2.174 4.016-4.214 5.288-6.04.706-.88 1.137-1.694 1.602-2.387.451-.653.82-1.373 1.116-1.947l.916-1.733a2.999 2.999 0 0 1 4.054-1.253 2.988 2.988 0 0 1 1.261 4.04" fill="#231F20"/>
        <path d="M86.037 58.147s.876-.24 2.41-.64c1.537-.387 3.726-.974 6.368-1.6 1.33-.307 2.77-.64 4.294-.987 1.531-.333 3.138-.72 4.814-1.067 1.674-.333 3.429-.626 5.2-.96 1.768-.333 3.573-.653 5.409-.88 1.832-.24 3.643-.546 5.472-.653 1.823-.133 3.615-.28 5.353-.347 1.742-.013 3.426-.013 5.02 0 1.592.027 3.087.174 4.471.24 1.384.08 2.65.16 3.755.334 1.108.133 2.074.253 2.872.346 1.588.214 2.496.334 2.496.334a2 2 0 0 1 1.718 2.253 2.012 2.012 0 0 1-2.024 1.733h-.077s-.896-.026-2.467-.066c-1.562-.054-3.812-.174-6.469-.174-1.33.014-2.775-.053-4.293 0-1.516.08-3.114.147-4.766.187-1.65.107-3.352.307-5.084.427-1.73.106-3.489.466-5.253.653-1.761.187-3.527.467-5.267.773-1.738.294-3.45.547-5.105.854-3.317.626-6.419 1.106-9.087 1.626-2.669.494-4.908.854-6.468 1.134-1.566.24-2.461.386-2.461.386a1.998 1.998 0 0 1-2.295-1.653 2.011 2.011 0 0 1 1.464-2.253" fill="#231F20"/>
        <path d="M106.63 35.293l.14 1.787c.065 1.133.191 2.76.282 4.72l.273 6.667c.072 2.44.132 5.04.162 7.64.016 2.613.089 5.2-.035 7.666-.067 2.467-.224 4.76-.321 6.72-.087 1.974-.256 3.6-.334 4.747l-.166 1.8a2 2 0 0 1-2.182 1.813 2.01 2.01 0 0 1-1.816-1.88l-.001-.026-.108-1.787c-.04-1.133-.156-2.76-.177-4.693-.034-1.947-.116-4.2-.103-6.627.02-2.413-.076-5.04-.073-7.64-.022-2.6-.011-5.2.014-7.64a19158 19158 0 0 0 .148-6.68c.054-1.96.15-3.587.192-4.733l.107-1.787.001-.027a2.02 2.02 0 0 1 2.118-1.893 2.016 2.016 0 0 1 1.88 1.853m19.989-.52l.308 1.694c.164 1.066.467 2.6.708 4.453.181 1.88.44 4.093.632 6.467.139 2.346.26 4.84.341 7.346.022 2.494.091 5 .03 7.347-.031 2.333-.131 4.52-.214 6.387-.068 1.88-.225 3.44-.297 4.52a47.685 47.685 0 0 1-.164 1.72l-.003.026a2.001 2.001 0 0 1-2.234 1.747c-.98-.12-1.71-.92-1.762-1.88l-.094-1.693c-.036-1.08-.138-2.614-.191-4.467l-.21-6.333-.191-7.24-.368-13.454c-.123-1.853-.163-3.413-.219-4.493l-.05-1.72a2.006 2.006 0 0 1 3.978-.427" fill="#231F20"/>
    </g>
</svg>
