<svg width="168" height="168" xmlns="http://www.w3.org/2000/svg">
    <title>
        sona
    </title>
    <g fill="none">
        <path d="M142.86 78.267c0 23.72-19.228 42.96-42.948 42.96-23.719 0-42.948-19.24-42.948-42.96 0-23.707 19.23-42.947 42.948-42.947 23.72 0 42.948 19.24 42.948 42.947" fill="#FFF"/>
        <path d="M108.27 55.96s9.111 8.227 3.111 14.227S95.41 55.88 88.964 62.32c-6.444 6.453 15.08 26.107 4.667 35.667-12.334 11.333-28.667-21-43.583-13.574-20.545 10.214-34.805 79.574 27.416 79.574h46.5c22.092 0 40-17.907 40-40v-80c0-22.08-17.908-40-40-40h-80c-22.09 0-40 17.92-40 40v78.666c0 16.667 10.01 30.907 24.5 36.92l.917.374c3.071 1.2 6.006 1.706 9.5 1.706 4.222 0 8.219-.96 11.787-2.666" fill="#FFF"/>
        <path d="M109.17 54.973s.16.147.473.427c.3.28.733.693 1.274 1.267a19.83 19.83 0 0 1 1.86 2.32c.67.986 1.408 2.2 1.931 3.813.524 1.56.777 3.747-.123 5.907-.453 1.08-1.069 2-1.976 2.92-.1.093-.145.146-.29.28-.155.12-.322.266-.476.373a4.969 4.969 0 0 1-1.003.56c-.73.32-1.572.467-2.352.427-1.577-.094-2.845-.68-3.967-1.307-1.125-.64-2.124-1.387-3.101-2.173-1.947-1.547-3.817-3.294-5.828-4.747-.99-.707-2.053-1.347-2.95-1.587-.942-.226-1.26-.133-1.88.387l-.115.107c-.09.093.061-.067.008-.014l-.094.107c-.044.053-.166.173-.145.173-.001.014-.007.027-.015.027-.054.107-.149.253-.189.427-.113.32-.143.8-.1 1.346.107 1.134.541 2.52 1.101 3.907 1.136 2.827 2.735 5.787 4.252 9.027 1.478 3.266 3.122 6.76 3.526 11.173.182 2.173-.139 4.733-1.416 6.933a11.433 11.433 0 0 1-2.383 2.934l-.585.493c-.264.2-.539.413-.804.587-.522.346-1.072.68-1.666.946a10.74 10.74 0 0 1-3.822.934c-1.316.066-2.596-.107-3.786-.414-2.385-.626-4.421-1.72-6.333-2.893-3.799-2.36-7.137-5.16-10.624-7.72-3.445-2.533-7.123-5.053-10.856-5.827-1.848-.373-3.603-.24-5.239.52l-.154.08c-.131.067.009-.026-.08.027l-.388.213c-.25.134-.551.294-.706.414l-.569.373-.617.453a21.334 21.334 0 0 0-2.343 2.12c-2.984 3.174-5.339 7.24-7.15 11.6-1.811 4.374-3.071 9.094-3.747 13.947-.635 4.867-.634 9.88.152 14.787.776 4.906 2.448 9.693 5.078 13.906 2.652 4.187 6.323 7.72 10.715 10.28 4.397 2.534 9.435 4.16 14.708 5.014a64.38 64.38 0 0 0 8.068.786c2.685.067 5.599.04 8.479.04h40.692l1.032-.013c.757-.013 1.501-.04 2.116-.093a37.42 37.42 0 0 0 8.022-1.507c5.243-1.64 10.162-4.453 14.207-8.267a36.601 36.601 0 0 0 9.243-13.746 35.432 35.432 0 0 0 2.057-8.107c.19-1.387.301-2.787.32-4.187.039-1.4.01-3.026.019-4.533V44.213L160.579 42c-.092-1.307-.218-2.707-.46-4.093a36.953 36.953 0 0 0-2.312-8.04c-2.17-5.147-5.488-9.8-9.683-13.44a36.483 36.483 0 0 0-14.463-7.8 36.36 36.36 0 0 0-8.11-1.267c-1.319-.04-2.836-.04-4.327-.04H47.68c-1.359.013-2.713.013-4.065.013-.664.027-1.435.014-2.01.08-.608.054-1.184.067-1.817.16-2.499.28-4.952.814-7.31 1.6A36.534 36.534 0 0 0 19.79 16.44C12.456 22.827 8.1 31.947 7.428 41.027c-.11 1.16-.112 2.24-.13 3.453v78.133l.026 1.374.064 1.226c.112 1.627.333 3.267.65 4.84.62 3.147 1.666 6.094 2.954 8.76a36.436 36.436 0 0 0 10.147 12.614 38.092 38.092 0 0 0 5.844 3.826c.969.52 1.938.96 2.882 1.374l.651.266c.259.107.515.2.768.294.544.213.859.28 1.29.426 1.735.494 3.383.787 4.973.894 1.566.12 3.153.053 4.306-.04 2.556-.254 4.483-.76 5.747-1.2.64-.187 1.112-.387 1.43-.507.32-.12.483-.173.483-.173l.162-.067a2.659 2.659 0 0 1 3.437 1.547c.49 1.28-.092 2.706-1.29 3.32 0 0-.189.093-.56.28-.373.186-.92.48-1.682.8a29.745 29.745 0 0 1-6.996 1.973 33.618 33.618 0 0 1-5.32.307c-1.947-.054-4.157-.267-6.452-.907-.563-.173-1.28-.373-1.748-.547l-.773-.28c-.296-.12-.595-.24-.895-.346a48.793 48.793 0 0 1-3.432-1.56c-2.31-1.187-4.684-2.627-6.961-4.44a43.223 43.223 0 0 1-12.006-14.934c-1.526-3.16-2.76-6.64-3.496-10.36a44.658 44.658 0 0 1-.766-5.746l-.078-1.507-.025-1.373-.001-2.854V44.48c.017-1.253.026-2.653.152-3.973.792-10.747 5.954-21.547 14.608-29.08a43.383 43.383 0 0 1 15-8.587c2.79-.92 5.694-1.56 8.646-1.893.727-.107 1.527-.134 2.29-.2.794-.067 1.405-.054 2.118-.08 1.408 0 2.82 0 4.235-.014h73.544c1.484 0 2.947 0 4.61.054a41.87 41.87 0 0 1 9.587 1.493 43.092 43.092 0 0 1 17.099 9.213c4.948 4.294 8.873 9.8 11.439 15.88a43.918 43.918 0 0 1 2.736 9.52c.28 1.614.442 3.28.548 5.014l.054 2.386V120.2c-.009 1.56.022 3-.02 4.667a40.435 40.435 0 0 1-.378 4.946 41.985 41.985 0 0 1-2.434 9.587 43.212 43.212 0 0 1-10.921 16.24c-4.776 4.493-10.587 7.827-16.793 9.76a43.692 43.692 0 0 1-9.584 1.8c-.872.067-1.618.093-2.351.107l-1.201.013H82.923c-11.394.307-24.158-.693-34.488-7.107-5.148-3.133-9.51-7.52-12.552-12.56-3.03-5.053-4.819-10.64-5.586-16.173-.776-5.547-.654-11.067.14-16.373.763-5.307 2.146-10.427 4.156-15.24 2.027-4.8 4.618-9.347 8.24-13.174a24.453 24.453 0 0 1 2.963-2.666l.819-.6.922-.6c.335-.214.564-.32.83-.467l.389-.213.317-.16.248-.107c2.643-1.253 5.774-1.453 8.427-.867 2.68.56 4.993 1.667 7.085 2.867 2.094 1.227 3.986 2.56 5.795 3.907 3.607 2.693 6.904 5.44 10.248 7.52 1.663 1.026 3.344 1.893 4.93 2.306 1.6.427 2.991.36 4.238-.213 2.865-1.427 4.19-3.827 3.948-6.933-.216-3.107-1.572-6.387-2.961-9.467-1.411-3.12-2.995-6.12-4.256-9.333-.615-1.614-1.186-3.294-1.362-5.267-.065-.987-.034-2.08.344-3.2.179-.56.447-1.093.799-1.613l.319-.427c.126-.16.144-.16.221-.253l.095-.094c.008-.013.225-.24.205-.213l.295-.267c.802-.706 1.901-1.293 3.073-1.493 1.17-.2 2.275-.027 3.184.253 1.82.6 3.099 1.52 4.275 2.387 2.304 1.773 4.113 3.573 5.878 5.04.875.747 1.724 1.413 2.524 1.92.798.52 1.568.84 2.091.893.521.027.788-.026 1.327-.493.466-.427.946-1.04 1.194-1.587.543-1.12.516-2.373.239-3.533-.597-2.36-1.93-4.093-2.745-5.187a20.112 20.112 0 0 0-1.359-1.586l-.06-.067a1.329 1.329 0 0 1 .065-1.88 1.35 1.35 0 0 1 1.792-.027" fill="#231F20"/>
    </g>
</svg>
