<svg width="168" height="168" xmlns="http://www.w3.org/2000/svg">
    <title>
        soweli
    </title>
    <g fill="none" fill-rule="evenodd">
        <path d="M61.63 37.653c0 15.84-12.833 28.667-28.666 28.667-15.832 0-28.667-12.827-28.667-28.667 0-15.826 12.835-28.666 28.667-28.666 15.833 0 28.667 12.84 28.667 28.666" fill="#FFF" fill-rule="nonzero"/>
        <path d="M59.536 37.653l-.135-1.866c-.012-.614-.137-1.36-.3-2.227-.082-.427-.138-.907-.257-1.4-.136-.48-.28-1-.433-1.547-.664-2.16-1.672-4.76-3.488-7.333A26.592 26.592 0 0 0 47.43 16c-1.646-.973-3.403-1.947-5.36-2.587-.487-.16-.978-.333-1.471-.493-.508-.12-1.02-.24-1.537-.36-1.046-.307-2.026-.32-3.047-.493-.501-.08-1.184-.054-1.773-.094l-.922-.026-.462-.014h.092l-.052.014h-.104l-.208.013c-1.111.107-2.243.107-3.355.36-2.252.32-4.456 1.093-6.59 2.04-2.137.987-4.105 2.347-5.943 3.893-1.81 1.574-3.416 3.414-4.851 5.387-1.387 2.027-2.457 4.28-3.264 6.627-.328 1.2-.7 2.426-.843 3.56-.268 1.04-.274 2.626-.389 3.986.01-.293.004-.053.007-.093l.002.053.004.12.01.24.016.467.03.947c-.009.626.092 1.253.18 1.88.112 1.253.446 2.466.734 3.693.73 2.4 1.737 4.72 3.081 6.84 1.385 2.08 3 3.987 4.857 5.613 1.894 1.574 3.923 2.96 6.116 3.947 2.163.96 4.523 1.747 6.69 2.04 1.013.24 2.369.267 3.585.36l.232.013h.116l.057.014c.047 0-.192-.014-.065-.014l.424-.013.845-.027c.562-.04 1.126-.013 1.675-.093a26.986 26.986 0 0 0 11.747-4.093 26.823 26.823 0 0 0 7.576-7.44c1.816-2.64 2.786-5.294 3.381-7.494l.383-1.586c.1-.494.134-.934.202-1.36.06-.427.116-.814.168-1.174.051-.36.039-.76.059-1.08l.075-2.026-.003.106zm4.188.107l-.13 2.027c-.03.333-.023.68-.09 1.12l-.232 1.44c-.092.52-.163 1.093-.297 1.68-.152.56-.315 1.16-.487 1.8-.745 2.52-1.865 5.546-3.888 8.626-1.985 3.067-4.772 6.24-8.516 8.827a31.637 31.637 0 0 1-13.612 5.173c-.645.107-1.305.107-1.965.16l-.996.067-.5.027-.588-.014c-1.259-.066-2.427-.026-3.912-.28-2.883-.32-5.508-1.133-8.194-2.226-2.658-1.107-5.142-2.694-7.477-4.52-2.297-1.88-4.328-4.134-6.085-6.614-1.714-2.506-3.044-5.306-4.026-8.24-.413-1.48-.853-2.973-1.05-4.52-.131-.76-.27-1.533-.292-2.306l-.076-1.16-.036-.587-.018-.293-.009-.147-.004-.067c0-.093-.007.107 0-.226.08-1.454.007-2.694.293-4.414.168-1.666.57-3.16.943-4.666.905-2.987 2.172-5.854 3.843-8.454 1.709-2.573 3.746-4.906 6.093-6.826 2.388-1.867 4.933-3.467 7.65-4.587 2.711-1.093 5.495-1.933 8.291-2.227 1.387-.24 2.779-.213 4.143-.28h.656l.463.027.918.067c.632.066 1.175.053 1.867.16 1.359.253 2.777.4 3.983.786.621.174 1.238.347 1.85.507a332.2 332.2 0 0 1 1.766.68c2.337.88 4.424 2.107 6.345 3.36a31.65 31.65 0 0 1 8.599 9c2.024 3.133 3.105 6.227 3.782 8.787.154.64.299 1.253.436 1.826.116.574.166 1.134.243 1.64.15 1.014.256 1.88.25 2.6l.069 2.16-.003.107z" fill="#231F20" fill-rule="nonzero"/>
        <path d="M164.297 37.653c0 15.84-12.833 28.667-28.666 28.667-15.832 0-28.667-12.827-28.667-28.667 0-15.826 12.835-28.666 28.667-28.666 15.833 0 28.666 12.84 28.666 28.666" fill="#FFF" fill-rule="nonzero"/>
        <path d="M161.159 37.653l-.118-1.8c-.005-.586-.121-1.293-.272-2.133-.077-.413-.125-.88-.236-1.347-.128-.466-.264-.973-.406-1.493-.627-2.08-1.562-4.6-3.288-7.107-1.724-2.48-3.974-5.133-7.062-7.293-1.568-1.027-3.254-2.04-5.158-2.747-.474-.186-.951-.373-1.432-.56-.498-.133-1-.266-1.506-.413-1.029-.347-1.988-.4-3.002-.627-.499-.093-1.182-.093-1.77-.146l-.92-.067-.462-.027c-.15-.013.138 0 .09 0h-.156l-.209.014c-1.113.053-2.255 0-3.384.2-2.285.226-4.55.906-6.77 1.786-2.223.894-4.303 2.214-6.273 3.707-1.928 1.573-3.626 3.453-5.109 5.52-1.439 2.093-2.55 4.427-3.387 6.867-.341 1.253-.725 2.506-.878 3.72-.272 1.106-.259 2.8-.358 3.946.048 2.614.364 5.214 1.092 7.72.78 2.467 1.846 4.854 3.251 7.014 1.443 2.133 3.141 4.066 5.08 5.693 1.972 1.573 4.068 2.96 6.335 3.907 2.234.906 4.633 1.666 6.86 1.88 1.045.2 2.389.186 3.61.24h.407c.044.013-.176 0-.057 0l.426-.027.85-.067c.562-.053 1.126-.04 1.676-.146 4.417-.614 8.366-2.294 11.509-4.507 3.148-2.227 5.464-4.947 7.11-7.547 1.68-2.613 2.554-5.186 3.111-7.306.126-.547.246-1.054.359-1.52.092-.48.119-.894.18-1.294.056-.4.108-.76.155-1.106.048-.334.034-.747.052-1.067l.064-2.027-.004.16zm6.274.16l-.14 2.027c-.033.333-.028.667-.098 1.12-.075.467-.156.973-.246 1.52-.097.547-.176 1.147-.318 1.747-.16.586-.331 1.213-.511 1.866-.784 2.6-1.999 5.707-4.159 8.814a31.43 31.43 0 0 1-8.981 8.706 32.266 32.266 0 0 1-13.848 4.774c-.647.093-1.307.066-1.965.106l-.992.027-.498.013h-.23l-.116-.013-.232-.013c-1.254-.107-2.434-.107-3.886-.4-2.824-.4-5.412-1.254-8.024-2.387-2.585-1.147-5.002-2.733-7.258-4.56-2.216-1.88-4.163-4.107-5.863-6.533-1.65-2.467-2.923-5.2-3.856-8.054-.88-2.88-1.292-5.893-1.376-8.92.096-1.64.044-2.786.327-4.453.156-1.587.545-3.027.905-4.493.877-2.894 2.101-5.68 3.72-8.2 1.66-2.494 3.607-4.787 5.833-6.72 2.259-1.894 4.692-3.56 7.322-4.747 2.626-1.173 5.349-2.107 8.113-2.493 1.37-.294 2.75-.32 4.112-.427l.255-.013.128-.014h.269l.464.014.921.04c.632.026 1.175 0 1.871.093 1.364.2 2.803.293 4.027.653.632.147 1.258.307 1.881.454.605.213 1.207.413 1.803.613 2.393.813 4.548 1.987 6.548 3.213 3.937 2.547 6.986 5.747 9.03 8.974 2.112 3.2 3.268 6.373 3.982 9.013.162.667.317 1.293.462 1.893.124.587.182 1.16.264 1.68.162 1.054.276 1.947.278 2.68l.086 2.24-.004.16z" fill="#231F20" fill-rule="nonzero"/>
        <path d="M112.964 135.32c0 15.84-12.833 28.667-28.667 28.667-15.832 0-28.666-12.827-28.666-28.667 0-15.827 12.834-28.667 28.666-28.667 15.834 0 28.667 12.84 28.667 28.667" fill="#FFF" fill-rule="nonzero"/>
        <path d="M110.964 135.32l-.096-1.88c0-.613-.11-1.36-.256-2.24-.075-.44-.121-.92-.23-1.413a361.9 361.9 0 0 1-.406-1.574c-.625-2.186-1.59-4.84-3.38-7.493-1.753-2.653-4.217-5.373-7.487-7.56-1.66-1.053-3.445-2.067-5.442-2.773-.498-.187-.999-.36-1.504-.547-.522-.133-1.046-.267-1.575-.4-1.065-.333-2.107-.387-3.179-.587-.53-.093-1.19-.08-1.786-.12l-.922-.053-.461-.027h.044l-.055.014h-.108l-.216.013c-1.152.067-2.328.04-3.49.28-2.354.267-4.675 1.013-6.939 1.947-2.267.96-4.375 2.346-6.356 3.92-1.947 1.626-3.655 3.573-5.133 5.693-1.438 2.16-2.53 4.547-3.34 7.04-.752 2.573-1.1 4.907-1.155 7.853.007-.16.004 0 .007-.026l.004.066.006.12.015.24.028.494.056.986c.004.667.13 1.307.247 1.96.166 1.307.558 2.547.905 3.814.865 2.453 2.019 4.8 3.536 6.853a27.105 27.105 0 0 0 5.313 5.32c2.014 1.427 4.12 2.627 6.326 3.467.528.266 1.113.373 1.66.573.56.16 1.09.4 1.662.493.559.12 1.116.254 1.671.374.552.12 1.061.133 1.584.226.933.214 2.321.214 3.533.267l.232.013h.116l.058.014c.057 0-.284-.014-.115-.014l.41-.013.814-.027c.541-.04 1.085-.013 1.615-.093 4.253-.44 8.212-1.693 11.568-3.573a24.243 24.243 0 0 0 7.793-7.054c1.824-2.613 2.907-5.253 3.239-7.52l.213-1.6c.041-.493.005-.933.015-1.36l-.018-1.133c-.009-.36-.076-.773-.104-1.08a41.344 41.344 0 0 0-.245-2.04l1.328.16zm5.33.173s-.182.694-.45 2c-.079.347-.127.667-.253 1.12l-.419 1.48c-.15.52-.29 1.107-.483 1.68-.206.56-.426 1.147-.657 1.774-1.01 2.453-2.016 5.52-4.032 8.613-1.937 3.12-4.621 6.4-8.297 9.213-3.67 2.774-8.428 4.987-13.79 5.694-.665.106-1.346.106-2.026.16l-1.026.066-.516.027h-.289l-.116-.013-.232-.014c-1.263-.093-2.399-.08-3.963-.36-.726-.12-1.496-.213-2.189-.4-.688-.2-1.38-.4-2.075-.586-.7-.174-1.366-.467-2.041-.734-.665-.293-1.365-.506-2.001-.88-2.647-1.253-5.054-3.026-7.268-5-2.183-2.013-4.028-4.386-5.63-6.906-1.538-2.574-2.722-5.347-3.57-8.214-.355-1.466-.738-2.92-.88-4.413-.102-.747-.215-1.48-.224-2.227l-.096-2.346c.077-2.667.456-5.947 1.312-8.747.904-2.853 2.149-5.573 3.768-8.053 1.664-2.427 3.601-4.654 5.81-6.534 2.246-1.813 4.651-3.413 7.236-4.546 2.584-1.107 5.248-1.974 7.946-2.307 1.336-.267 2.681-.28 4.005-.36l.248-.013h.124l.061-.014.16.014.463.013.921.053c.626.04 1.19.027 1.854.12a31.299 31.299 0 0 1 13.656 4.974c3.758 2.52 6.59 5.653 8.605 8.706 2.052 3.054 3.175 6.094 3.89 8.614.165.64.32 1.253.465 1.813.125.573.184 1.12.269 1.627.167 1.013.288 1.866.293 2.573.071 1.413.107 2.16.107 2.16l1.33.173z" fill="#231F20" fill-rule="nonzero"/>
        <path d="M164.297 118.653c0 25.334-17.908 45.334-40 45.334-39.554 0-40-36.587-40-48 0 11.413-.444 48-40 48-22.09 0-40-19.107-40-45.334V83.987c0-44.174 35.818-80 80-80 44.183 0 80 35.826 80 80v34.666" fill="#FFF" fill-rule="nonzero"/>
        <path d="M161.265 118.653l-.046-28.72c-.019-2.36.022-4.826-.044-7.12-.019-2.306-.198-4.6-.404-6.893a76.078 76.078 0 0 0-2.695-13.507c-2.59-8.826-6.8-17.16-12.333-24.506-5.542-7.334-12.415-13.64-20.16-18.574-7.746-4.92-16.366-8.453-25.342-10.333-2.246-.453-4.505-.853-6.785-1.107-1.145-.173-2.26-.24-3.379-.333L88.4 7.44l-1.79-.053c-4.613-.134-9.196.106-13.736.8a76.586 76.586 0 0 0-25.878 8.866 76.204 76.204 0 0 0-21.12 17.387 77.047 77.047 0 0 0-13.688 23.68A73.622 73.622 0 0 0 8.753 71.4c-.356 2.253-.672 4.573-.808 6.787l-.132 1.666-.052 1.787-.046 1.8-.016.813v.894l-.019 28.72c-.041 4.906.032 9.266.76 13.72.828 4.4 2.212 8.666 4.196 12.64 3.908 7.96 10.627 14.426 18.656 17.786 1.984.88 4.132 1.467 6.196 1.934 1.035.146 2.013.36 3.09.506l3.583.187.224.013c-.044 0 .256.014-.069 0h.105l.424-.013.847-.013 1.696-.04c1.124-.067 2.236-.187 3.356-.28 1.101-.16 2.207-.307 3.297-.507 1.066-.267 2.175-.427 3.211-.787 2.12-.573 4.13-1.413 6.063-2.373 1.886-1.04 3.721-2.173 5.334-3.6 1.611-1.413 3.12-2.96 4.42-4.707a36.032 36.032 0 0 0 3.399-5.613c1.928-4 3.165-8.387 3.99-12.88.805-4.52 1.115-9.12 1.173-13.84v-.013a2.678 2.678 0 0 1 2.63-2.707 2.675 2.675 0 0 1 2.703 2.64l.001.067c.064 5.693.504 11.253 1.735 16.626 1.193 5.347 3.147 10.48 6.163 14.8 3.01 4.307 7.029 7.774 11.816 9.894 2.39 1.066 4.898 1.906 7.528 2.413 1.298.267 2.656.453 3.964.627 1.324.093 2.548.266 4.053.266l2.165.04 1.864-.106c.654-.054 1.312-.04 1.962-.134l1.937-.333c1.307-.147 2.556-.56 3.816-.92 1.285-.293 2.461-.907 3.688-1.373.621-.214 1.201-.52 1.776-.854l1.745-.92c1.152-.653 2.206-1.466 3.32-2.173 1.044-.813 2.051-1.68 3.076-2.52.924-.96 1.896-1.88 2.794-2.867.824-1.053 1.732-2.04 2.504-3.133.721-1.133 1.55-2.2 2.197-3.373.615-1.2 1.355-2.334 1.879-3.574.502-1.253 1.145-2.453 1.546-3.746.387-1.294.9-2.56 1.196-3.88.275-1.32.659-2.654.856-3.96.162-1.32.388-2.574.519-3.934l.205-4.333-.004.133zm6.062.134l-.178 4.333c-.125 1.493-.37 3.093-.564 4.64-.226 1.56-.63 3.013-.944 4.52-.329 1.493-.888 2.933-1.328 4.4-.452 1.467-1.136 2.853-1.7 4.293-.582 1.414-1.393 2.747-2.086 4.12-.724 1.36-1.647 2.614-2.468 3.92-.875 1.267-1.896 2.44-2.846 3.667-1.025 1.16-2.138 2.253-3.21 3.387-1.18 1.013-2.352 2.04-3.572 3.013-1.298.88-2.539 1.84-3.896 2.627l-2.066 1.133c-.685.373-1.38.747-2.12 1.013-1.465.574-2.88 1.294-4.418 1.654-1.515.44-3.02.92-4.59 1.12l-2.333.4c-.781.106-1.572.106-2.357.173l-2.462.12-2.164-.067c-1.386-.013-3.03-.213-4.584-.346-1.552-.214-3.061-.44-4.582-.774-3.042-.613-6.032-1.64-8.903-2.946-5.761-2.627-10.785-7.014-14.247-12.267-3.5-5.253-5.582-11.173-6.761-17.107-1.167-5.933-1.433-11.973-1.317-17.826h5.334l-.001.013c.205 9.693-.66 19.92-4.948 29.32a41.918 41.918 0 0 1-3.89 6.733 35.452 35.452 0 0 1-5.295 5.827c-1.972 1.76-4.206 3.2-6.499 4.467-2.333 1.213-4.755 2.226-7.247 2.933-1.233.427-2.501.64-3.753.96-1.259.24-2.524.427-3.788.627-1.264.106-2.532.266-3.795.346l-1.893.067-.947.027-.473.013h-.412l-.224-.013-3.584-.2c-1.295-.147-2.67-.4-4-.614-2.597-.573-5.084-1.266-7.49-2.306-9.642-4.014-17.545-11.707-22.086-20.92-2.308-4.587-3.899-9.494-4.841-14.507-.85-5-.919-10.24-.883-14.893l-.019-28.72-.001-.894.017-.986.044-1.8.051-1.8.139-1.894c.092-1.28.18-2.546.36-3.773.172-1.24.272-2.48.521-3.707.81-4.92 2.055-9.786 3.761-14.466a83.727 83.727 0 0 1 14.935-25.76c6.447-7.6 14.268-14.054 22.993-18.894 8.714-4.853 18.307-8.106 28.17-9.6 4.925-.746 9.941-1 14.892-.853l1.798.053 1.9.134c1.268.093 2.543.186 3.767.36 2.477.28 4.933.72 7.377 1.213 9.771 2.027 19.116 5.96 27.494 11.333 8.376 5.4 15.784 12.28 21.74 20.254a83.844 83.844 0 0 1 13.226 26.586 82.484 82.484 0 0 1 2.863 14.627c.219 2.467.4 4.947.415 7.44.058 2.48.009 4.8.018 7.213l-.048 28.72-.002.134z" fill="#231F20" fill-rule="nonzero"/>
        <path d="M108.63 104.413c0 6.467-10.893 26.907-24.333 26.907-13.438 0-24.333-20.44-24.333-26.907 0-6.466 10.895-9.093 24.333-9.093 13.44 0 24.334 2.627 24.334 9.093" fill="#FFF" fill-rule="nonzero"/>
        <path d="M105.552 104.413c-.023 0-.023-.24-.13-.613-.066-.373-.395-.907-1.4-1.653-1.01-.734-2.746-1.494-4.96-2.04-2.215-.56-4.891-.96-7.869-1.187a122.777 122.777 0 0 0-4.646-.24c-1.719-.027-3.33-.027-5.087 0-3.445.093-7.096.333-10.61 1.08-1.758.36-3.466.88-4.92 1.573a8.898 8.898 0 0 0-1.849 1.147 7.297 7.297 0 0 0-.577.627c-.11.186-.297.44-.267.426a.07.07 0 0 1-.053.027l-.041.013-.024.187-.094.773-.024.187c-.006.093.032-.6.018-.293l.001.026.003.054.005.226.053.534c.111.76.346 1.653.627 2.533.564 1.76 1.367 3.56 2.257 5.293 1.815 3.467 4.068 6.76 6.707 9.494 2.637 2.693 5.687 4.853 8.812 5.68 3.112.853 6.208.186 8.95-1.334 2.749-1.493 5.031-3.72 6.914-5.92 3.764-4.466 5.98-9.026 7.139-12.12.574-1.56.873-2.786.982-3.506.08-.427.084-1.147.086-1.12l-.003.146zm6.155.147c-.022.027.034.36-.214 1.867-.22 1.2-.673 2.773-1.416 4.626-.738 1.854-1.784 3.974-3.166 6.294a48.415 48.415 0 0 1-5.371 7.333c-2.225 2.493-4.981 5-8.544 6.973-1.784.96-3.805 1.76-6.025 2.107-1.107.173-2.251.267-3.408.2-.251-.013-.459-.013-.746-.04l-.932-.107c-.65-.066-1.166-.226-1.742-.346-4.51-1.147-8.272-3.894-11.407-7-3.121-3.16-5.752-6.734-7.903-10.627-1.065-1.947-2.032-3.947-2.796-6.133-.38-1.094-.724-2.214-.948-3.48-.046-.347-.101-.654-.133-1.014l-.032-.546-.007-.147-.004-.067c-.017.267.02-.453.019-.4l.017-.186.074-.774.02-.2.082-.346.196-.707c.587-1.907 1.53-2.907 2.56-3.96a14.833 14.833 0 0 1 3.208-2.187c2.162-1.106 4.295-1.746 6.363-2.213 4.143-.947 8.084-1.253 11.805-1.413.932-.04 1.844-.04 2.747-.067.89 0 1.765.013 2.628.027 1.767.04 3.496.133 5.115.253 3.266.307 6.289.8 8.994 1.56 2.699.76 5.114 1.773 7.043 3.24 1.928 1.413 3.264 3.44 3.593 5 .268.733.223 1.333.29 1.733l.044.6-.004.147z" fill="#231F20" fill-rule="nonzero"/>
        <path d="M134.964 71.493c0 22.187-21.947 5.494-50.667 5.494-28.718 0-50.665 16.693-50.665-5.494 0-22.186 21.947-44.173 50.665-44.173 28.72 0 50.667 21.987 50.667 44.173" fill="#FFF" fill-rule="nonzero"/>
        <path d="M134.964 71.493c0 22.187-21.947 5.494-50.667 5.494-28.718 0-50.665 16.693-50.665-5.494 0-22.186 21.947-44.173 50.665-44.173 28.72 0 50.667 21.987 50.667 44.173z" stroke="#231F20" stroke-width="5.333" stroke-linecap="round" stroke-linejoin="round"/>
        <path d="M56.939 60.507c7.457-4.8 16.974-7.854 27.549-7.854 10.395 0 19.77 2.947 27.17 7.614" fill="#FFF" fill-rule="nonzero"/>
        <path d="M55.576 58.213s.75-.493 2.063-1.373c.616-.44 1.561-.933 2.606-1.52.526-.267 1.087-.613 1.679-.893l1.877-.84c1.298-.614 2.779-1.08 4.323-1.654.77-.293 1.596-.466 2.423-.72.833-.226 1.676-.493 2.56-.64 1.758-.346 3.576-.733 5.453-.88 1.868-.266 3.781-.266 5.69-.36h.467l.338.014.674.026 1.347.054 1.34.053 1.448.147c.96.106 1.924.2 2.852.333.907.173 1.803.347 2.684.52 1.761.32 3.423.853 4.996 1.307 1.545.573 3.036 1.013 4.336 1.626 1.321.56 2.519 1.094 3.53 1.68 1.022.56 1.926 1.014 2.62 1.48 1.398.92 2.198 1.44 2.198 1.44a2.659 2.659 0 0 1 .78 3.68 2.672 2.672 0 0 1-3.428.934l-.196-.107s-.757-.387-2.083-1.053c-.641-.374-1.484-.707-2.426-1.12-.931-.44-2.034-.827-3.219-1.267-1.17-.493-2.519-.8-3.9-1.24-.697-.2-1.435-.333-2.176-.507-.744-.16-1.495-.373-2.283-.466-.78-.134-1.574-.254-2.378-.387l-2.382-.24-1.206-.133-1.342-.04-1.346-.04L84.82 56h-.337l-.084-.013h-.022c-.033 0 .21.013.098 0l-.04.013h-.159c-1.687.08-3.384.04-5.033.267-.824.106-1.654.133-2.455.28-.804.133-1.597.266-2.379.386-.788.107-1.528.347-2.276.494-.738.186-1.482.306-2.17.533-1.382.44-2.722.773-3.888 1.267-1.191.453-2.282.853-3.167 1.28-.913.413-1.703.72-2.413 1.146-1.396.734-2.195 1.147-2.195 1.147a2.663 2.663 0 0 1-3.607-1.12c-.641-1.213-.234-2.72.883-3.467" fill="#231F20" fill-rule="nonzero"/>
    </g>
</svg>
