<svg width="168" height="169" xmlns="http://www.w3.org/2000/svg">
    <title>
        suli
    </title>
    <g fill="none">
        <path d="M84.037 123.24c0 21.92-17.77 39.693-39.69 39.693-21.92 0-39.69-17.773-39.69-39.693 0-21.92 17.77-39.68 39.69-39.68 21.92 0 39.69 17.76 39.69 39.68" fill="#FFF"/>
        <path d="M3.63 123.653v-44c0-44.186 32.311-76 72.167-76h87.834s-15.667 9.667-15.667 40l-.001 80c0 22.094-12.999 40-34.083 40H67.63" fill="#FFF"/>
        <path d="M.299 123.653l-.042-31.08-.01-7.773-.006-3.88-.001-.973v-.24l.012-.4.021-.48.087-1.947L.532 73c.043-.653.028-1.28.116-1.96L.923 69l.561-4.08c.103-.68.175-1.373.304-2.04l.464-1.96.933-3.947c.168-.653.287-1.32.495-1.96l.652-1.92c.904-2.546 1.63-5.173 2.852-7.6L8.86 41.8l.421-.92.506-.893 1.013-1.76 2.032-3.52c.716-1.147 1.555-2.227 2.327-3.334.797-1.106 1.562-2.226 2.388-3.293l2.68-3.067 1.342-1.533.672-.773.739-.694 2.973-2.786 1.49-1.4c.505-.454 1.069-.84 1.601-1.254l3.243-2.48c1.05-.866 2.23-1.546 3.386-2.253l3.474-2.147c2.382-1.293 4.868-2.426 7.31-3.613l3.827-1.4 1.915-.707c.636-.24 1.274-.466 1.94-.613l3.946-1.013c1.318-.334 2.626-.707 3.979-.854L66.091.88l2.013-.293 2.03-.107C75.655.093 80.728.227 85.925.2l15.541.013 62.166.027a3.416 3.416 0 0 1 1.882 6.267l-.088.053c-.185.133-.673.507-1.029.8-.377.347-.776.653-1.143 1.04-.754.72-1.465 1.533-2.152 2.36-1.378 1.653-2.541 3.52-3.629 5.427-2.112 3.853-3.619 8.12-4.561 12.533-.29 1.08-.407 2.227-.62 3.333l-.287 1.68-.168 1.694c-.101 1.146-.256 2.266-.316 3.413l-.112 3.44c-.095 4.653-.03 9.52-.053 14.28l-.027 57.387-.004 7.173v1.787l-.01 1.026-.033.894c-.064 1.213-.046 2.346-.177 3.64-.144 1.293-.277 2.6-.448 3.893l-.728 3.76c-.31 1.24-.675 2.48-1.015 3.707-.377 1.226-.873 2.426-1.309 3.64-1.944 4.773-4.733 9.293-8.415 13.066-3.665 3.774-8.248 6.76-13.269 8.494l-3.817 1.08-3.895.64c-1.304.106-2.61.16-3.917.226-1.264.04-2.41 0-3.62 0l-14.347-.093-14.347-.2c-4.781-.08-9.564-.2-14.346-.36a2.66 2.66 0 0 1-2.579-2.747 2.684 2.684 0 0 1 2.579-2.586 1025.2 1025.2 0 0 1 14.346-.347l14.347-.213 14.347-.08c1.178-.014 2.426 0 3.55-.04l3.244-.187 3.18-.533 3.083-.867c4.036-1.4 7.684-3.773 10.673-6.867 2.998-3.08 5.338-6.84 6.992-10.906.367-1.054.798-2.067 1.12-3.12.288-1.067.606-2.134.878-3.214l.63-3.28.376-3.226c.122-1.08.11-2.36.17-3.534l.033-.893.003-.773-.002-1.787-.002-7.173-.026-57.387c.019-4.813-.05-9.507.042-14.4l.12-3.733c.064-1.254.228-2.494.34-3.734l.188-1.866.31-1.867c.235-1.24.371-2.48.69-3.707 1.054-4.933 2.75-9.8 5.222-14.333 1.274-2.253 2.651-4.467 4.331-6.493.841-1.014 1.717-2 2.685-2.934.46-.48 1.002-.92 1.504-1.373.575-.453 1.014-.84 1.832-1.373l1.794 6.333-62.166.027H85.924c-5.163.026-10.459-.08-15.281.266l-1.85.094-1.828.28-3.657.56c-1.23.12-2.415.466-3.607.786l-3.58.907c-.604.133-1.181.347-1.757.573l-1.732.64-3.468 1.267c-2.205 1.08-4.457 2.093-6.615 3.28l-3.14 1.933c-1.046.654-2.12 1.254-3.066 2.054l-2.934 2.24c-.481.386-.996.733-1.452 1.146l-1.349 1.254-2.704 2.52-.673.626-.61.707-1.22 1.387-2.445 2.773c-.75.973-1.444 2-2.172 2.987-.704 1.013-1.476 1.986-2.13 3.026L16.8 41.627l-.93 1.6-.466.8-.383.84-1.537 3.373c-1.132 2.213-1.787 4.613-2.627 6.947l-.606 1.746c-.194.587-.3 1.2-.456 1.8l-.866 3.627-.436 1.8c-.118.613-.177 1.213-.269 1.813l-.516 3.614-.263 1.8c-.086.613-.077 1.293-.12 1.92L7.143 77.2l-.091 1.933-.024.48-.005.134-.003.053c.007-.293.001-.04.003-.093v.24l-.002.973-.005 3.88-.01 7.773-.04 31.08a3.34 3.34 0 0 1-3.34 3.334A3.327 3.327 0 0 1 .3 123.653" fill="#231F20"/>
        <path d="M29.853 160.773v-51.12c0-31.773 17.778-49.546 49.778-49.546 11.537 0 23.554 6.013 23.554 17.546 0 14.894-10.221 12.667-17.388 19.787-12.742 12.64 5.834 45.773-.61 58 0 0-3.111 9.547-34.667 9.547-25.896 0-46.89-18.054-46.89-40.334" fill="#FFF"/>
        <path d="M26.52 160.773l.27-31.493.095-15.747.027-3.986c.045-1.334.028-2.574.133-3.987.128-2.787.459-5.467.902-8.187.937-5.4 2.532-10.773 5.136-15.733 2.556-4.96 6.124-9.48 10.484-13.027a44.885 44.885 0 0 1 6.953-4.68 49.552 49.552 0 0 1 7.645-3.28c5.246-1.76 10.688-2.64 16.102-3.013a82.34 82.34 0 0 1 4.062-.16 37.084 37.084 0 0 1 4.184.093c2.823.227 5.627.76 8.342 1.694 2.712.92 5.346 2.226 7.705 4.053 2.35 1.813 4.417 4.2 5.705 7.04a17.014 17.014 0 0 1 1.328 4.44c.251 1.48.242 3.173.182 4.413a23.185 23.185 0 0 1-.631 4.454c-.37 1.48-.953 2.986-1.812 4.373-.855 1.4-2.012 2.6-3.235 3.573-1.23.96-2.513 1.694-3.74 2.347-2.458 1.267-4.72 2.28-6.59 3.613-.947.68-1.767 1.374-2.558 2.24-.608.68-1.246 1.64-1.694 2.587-.952 1.947-1.366 4.267-1.506 6.653-.25 4.8.574 9.867 1.555 14.92 1.001 5.067 2.248 10.16 3.213 15.48.468 2.654.875 5.374.966 8.254.054 2.866-.074 6.013-1.692 9.24l.213-.507-.135.36-.093.2-.181.36c-.12.213-.231.387-.351.573-.239.4-.477.654-.725.974-.498.573-1.007 1.12-1.536 1.546-.526.467-1.066.867-1.611 1.227-.541.4-1.096.707-1.65 1.013-2.223 1.24-4.493 2.134-6.77 2.787l-1.71.493c-.57.147-1.14.254-1.71.387-1.141.267-2.281.507-3.42.667-2.281.413-4.552.626-6.825.88-2.264.133-4.538.346-6.791.373l-3.385.067-.847.013-.9-.013-1.659-.04c-2.432-.134-4.737-.347-7.052-.734-2.308-.413-4.608-.893-6.852-1.6-8.985-2.68-17.389-7.72-23.689-14.92-3.116-3.613-5.696-7.733-7.424-12.24-1.775-4.493-2.64-9.333-2.65-14.16a3.325 3.325 0 0 1 3.326-3.333 3.337 3.337 0 0 1 3.34 3.293v.04c.05 4 .785 7.974 2.29 11.68 1.451 3.734 3.669 7.147 6.291 10.214 5.32 6.12 12.594 10.56 20.471 12.933 1.965.627 3.988 1.053 6.019 1.413 2.03.36 4.121.547 6.089.667l1.647.04.753.027.807-.014 3.226-.066c2.156-.014 4.278-.214 6.414-.334 2.108-.226 4.232-.413 6.29-.786 1.047-.134 2.062-.36 3.071-.587l1.515-.333 1.468-.427c1.961-.547 3.829-1.253 5.473-2.133.408-.227.828-.44 1.173-.694.379-.24.734-.493 1.031-.76.34-.253.575-.52.817-.773.082-.12.23-.253.271-.333l.085-.134h.006c-.003 0 .012-.026-.003.014a1.106 1.106 0 0 0-.059.16l.215-.507c.812-1.48 1.11-3.747 1.099-6.093-.01-2.374-.304-4.867-.683-7.374-.77-5.04-1.932-10.173-2.85-15.426-.894-5.254-1.71-10.654-1.307-16.347.229-2.84.792-5.787 2.129-8.573.69-1.414 1.487-2.68 2.639-3.947.98-1.067 2.173-2.08 3.37-2.92 2.423-1.707 5.002-2.813 7.199-3.947 2.215-1.133 3.939-2.346 4.97-4.026 1.051-1.654 1.517-3.947 1.629-6.214.053-1.36.042-2.32-.134-3.426a11.704 11.704 0 0 0-.928-3.067c-1.778-3.933-5.84-6.733-10.321-8.253-2.25-.787-4.639-1.254-7.045-1.454a33.36 33.36 0 0 0-3.682-.08c-1.272 0-2.537.067-3.801.134-5.05.32-10.048 1.173-14.759 2.773-4.706 1.573-9.132 3.893-12.858 7.053-3.751 3.134-6.78 7.054-8.974 11.44-2.233 4.374-3.612 9.2-4.405 14.134-.37 2.466-.653 5.013-.732 7.48-.084 1.2-.055 2.573-.083 3.866l.024 3.88.098 15.747.268 31.493a3.331 3.331 0 0 1-3.306 3.36 3.338 3.338 0 0 1-3.361-3.306v-.054" fill="#231F20"/>
    </g>
</svg>
