<svg width="168" height="168" xmlns="http://www.w3.org/2000/svg">
    <title>
        suno
    </title>
    <g fill="none" fill-rule="evenodd">
        <path d="M163.96 83.987c0 44.186-35.813 80-80 80-44.179 0-79.996-35.814-79.996-80 0-44.174 35.817-80 79.996-80 44.187 0 80 35.826 80 80" fill="#FFF" fill-rule="nonzero"/>
        <path d="M163.96 83.987c0 44.186-35.813 80-80 80-44.179 0-79.996-35.814-79.996-80 0-44.174 35.817-80 79.996-80 44.187 0 80 35.826 80 80z" stroke="#231F20" stroke-width="6.667"/>
        <path d="M107.96 83.987c0 13.253-10.747 24-24 24s-24-10.747-24-24c0-13.254 10.747-24 24-24s24 10.746 24 24" fill="#FFF" fill-rule="nonzero"/>
        <path d="M107.96 83.987c0 13.253-10.747 24-24 24s-24-10.747-24-24c0-13.254 10.747-24 24-24s24 10.746 24 24z" stroke="#231F20" stroke-width="6.667"/>
        <path d="M86.493 1.307s.72.68 1.96 1.88c.307.306.64.64 1.027 1 .373.44.787.92 1.213 1.426.854 1.04 1.92 2.187 2.747 3.534.44.653.907 1.346 1.387 2.066.493.707.853 1.534 1.293 2.334.413.813.893 1.626 1.267 2.506.36.894.72 1.814 1.093 2.734.173.466.387.933.52 1.413.147.493.28.973.413 1.48.267.987.56 1.987.8 3 .16 1.027.334 2.067.494 3.12.08.52.186 1.04.226 1.573l.08 1.587.067 1.587.04.786.013.4.014.2v.227l-.014.093-.16 2.934-.053.72-.107.8c-.08.533-.16 1.053-.226 1.573l-.24 1.56c-.12.493-.24.973-.347 1.467-.253.946-.44 1.92-.747 2.813-.306.907-.613 1.787-.906 2.653-.28.854-.707 1.64-1.04 2.427-.36.773-.654 1.547-1.067 2.227-.787 1.373-1.44 2.666-2.213 3.693-.747 1.053-1.32 2.013-1.947 2.707a353.582 353.582 0 0 1-1.84 2.226l-4-3.52s.573-.733 1.573-2c.534-.6 1.014-1.453 1.64-2.386.654-.907 1.187-2.054 1.854-3.254.36-.6.586-1.28.893-1.96.267-.693.627-1.36.853-2.12.24-.746.494-1.52.747-2.306.253-.787.373-1.627.573-2.454.094-.426.187-.84.28-1.266.054-.414.107-.84.16-1.254.054-.413.12-.84.174-1.266l.08-.64.04-.72c.026-.974.066-1.947.093-2.934-.053-.853-.107-1.733-.173-2.6l-.094-1.36c-.04-.453-.146-.893-.226-1.346-.16-.894-.32-1.774-.467-2.667-.227-.867-.507-1.707-.747-2.547-.133-.426-.253-.84-.373-1.253-.133-.413-.32-.8-.48-1.2-.333-.773-.653-1.547-.973-2.307-.334-.746-.774-1.426-1.134-2.12-.4-.666-.693-1.36-1.133-1.96-.427-.6-.827-1.173-1.227-1.733-.746-1.173-1.573-1.987-2.253-2.8-.347-.4-.68-.773-.973-1.12-.387-.36-.734-.68-1.054-.973a205.792 205.792 0 0 0-1.986-1.84l4.586-4.84M1.748 80.92s.7-.707 1.925-1.933c.307-.307.648-.64 1.018-1.014.452-.373.941-.773 1.462-1.2 1.047-.866 2.223-1.866 3.583-2.693.672-.44 1.372-.893 2.096-1.36.748-.44 1.557-.827 2.37-1.253 1.6-.907 3.434-1.547 5.302-2.28.917-.4 1.933-.574 2.919-.867 1.001-.24 1.985-.613 3.033-.72 1.037-.16 2.083-.32 3.13-.493 1.047-.187 2.12-.134 3.18-.214l1.593-.066.398-.014.199-.013.328.013.739.04c.985.067 1.965.12 2.938.174 2.135.32 4.288.573 6.172 1.133 1.952.427 3.736 1.16 5.458 1.76.836.36 1.636.747 2.409 1.107.787.346 1.533.706 2.2 1.133 1.387.8 2.653 1.507 3.68 2.293 1.04.76 1.987 1.374 2.667 2l2.2 1.907-3.627 3.92s-.707-.587-1.96-1.613c-.6-.547-1.44-1.067-2.36-1.707-.907-.68-2.027-1.253-3.24-1.933-.587-.36-1.243-.654-1.93-.934-.682-.293-1.378-.626-2.11-.92-1.508-.48-3.057-1.106-4.755-1.413-1.692-.48-3.369-.6-5.085-.867-.975-.026-1.956-.066-2.941-.106l-.74-.027h-.162c-.136-.013.159 0 .12 0l-.17.013-.343.027-1.372.093c-.91.08-1.835.04-2.73.24-.895.147-1.789.307-2.674.467-.897.107-1.728.467-2.581.68-.835.267-1.703.413-2.476.787-1.578.666-3.134 1.226-4.476 2.04-.684.386-1.368.72-1.998 1.106-.605.414-1.192.814-1.754 1.2-1.18.734-2.047 1.547-2.856 2.227-.407.333-.787.653-1.138.947-.361.373-.693.72-.993 1.026a943.011 943.011 0 0 0-1.883 1.974L1.748 80.92m79.145 85.293s-.68-.693-1.88-1.88c-.293-.306-.626-.626-.986-.986-.36-.44-.76-.92-1.187-1.414-.813-1.026-1.84-2.16-2.64-3.493-.427-.653-.867-1.333-1.333-2.04-.48-.693-.814-1.507-1.24-2.293-.4-.814-.854-1.6-1.227-2.467a265.4 265.4 0 0 0-1.04-2.693c-.173-.454-.36-.907-.507-1.374-.133-.48-.266-.96-.4-1.453-.253-.973-.533-1.947-.773-2.947-.147-1-.307-2.026-.467-3.053-.08-.507-.173-1.013-.226-1.533l-.067-1.547-.08-1.56-.027-.773-.013-.387-.013-.2v-.32c.053-.96.106-1.92.16-2.867l.04-.706.106-.787c.08-.507.147-1.027.227-1.533.067-.52.147-1.027.227-1.534.093-.48.213-.96.32-1.426.253-.947.426-1.88.706-2.774.307-.88.6-1.746.88-2.586.254-.854.667-1.627.987-2.4.347-.76.627-1.52 1.027-2.187.76-1.347 1.373-2.627 2.12-3.653.706-1.027 1.266-1.987 1.853-2.667 1.133-1.4 1.773-2.213 1.773-2.213l4.054 3.466-1.494 1.974c-.506.6-.973 1.44-1.573 2.36-.627.893-1.133 2.026-1.773 3.213-.347.587-.56 1.253-.854 1.92-.253.68-.613 1.347-.813 2.093-.227.734-.467 1.48-.707 2.254-.24.773-.36 1.6-.56 2.413-.08.413-.186.827-.253 1.24l-.16 1.227-.16 1.24-.08.626-.027.707c-.026.947-.066 1.907-.093 2.867l.173 2.546.094 1.334c.053.44.146.88.226 1.32.147.866.307 1.746.454 2.6.24.84.48 1.68.72 2.506.12.414.24.827.36 1.227.133.4.306.787.466 1.173.32.774.627 1.52.934 2.267.32.733.746 1.4 1.093 2.08.387.653.667 1.347 1.093 1.933.414.587.8 1.16 1.174 1.707.72 1.16 1.533 1.96 2.186 2.773.334.387.64.76.934 1.107.373.347.706.68 1.013.973 1.213 1.16 1.92 1.827 1.92 1.827l-4.667 4.773m85.76-79.693s-.68.707-1.893 1.96c-.293.307-.64.653-1 1.027-.44.386-.92.8-1.44 1.24-1.04.853-2.187 1.92-3.547 2.746-.666.454-1.36.92-2.08 1.4-.72.48-1.546.84-2.346 1.294-.827.4-1.627.906-2.534 1.266-.893.36-1.813.72-2.746 1.094-.92.4-1.907.653-2.894.933-1 .253-2 .573-3.026.787-2.08.293-4.174.786-6.32.786l-1.587.067-.8.04-.4.013h-.333l-.187-.013c-.973-.067-1.96-.12-2.933-.173-.96-.04-2.107-.28-3.134-.414l-1.56-.24c-.493-.12-.986-.24-1.466-.36-.96-.266-1.934-.426-2.84-.76-.894-.32-1.787-.626-2.654-.933-.853-.293-1.64-.72-2.426-1.053-.787-.374-1.547-.68-2.227-1.094-1.387-.8-2.68-1.48-3.707-2.253-1.053-.747-2.013-1.347-2.706-1.973a1801.086 1801.086 0 0 0-2.227-1.867l3.56-3.973s.72.586 1.987 1.586c.6.547 1.466 1.04 2.386 1.68.907.667 2.067 1.214 3.267 1.88.6.36 1.28.614 1.96.907.693.28 1.373.64 2.133.88.747.24 1.52.493 2.307.76.787.267 1.64.387 2.467.6.426.093.84.187 1.266.293l1.267.16c.867.094 1.627.28 2.627.307.973.04 1.946.067 2.933.107h.187l.093.013c-.053 0 .16 0-.12-.013h.067l.346-.027.68-.04 1.374-.093c1.853-.027 3.626-.52 5.413-.787.867-.2 1.72-.493 2.56-.733.853-.254 1.693-.48 2.467-.854.786-.32 1.573-.653 2.32-.973.76-.32 1.44-.773 2.133-1.133.68-.387 1.373-.707 1.973-1.134.614-.426 1.187-.84 1.747-1.226 1.173-.747 2-1.587 2.827-2.267.4-.347.773-.68 1.12-.973a333.99 333.99 0 0 1 2.84-3.054l4.826 4.587" fill="#231F20" fill-rule="nonzero"/>
    </g>
</svg>
