<svg width="169" height="169" xmlns="http://www.w3.org/2000/svg">
    <title>
        supa
    </title>
    <g fill="none" fill-rule="evenodd">
        <path d="M143.96 80.2c0 31.667-25.667 57.333-57.333 57.333-31.654 0-57.334-25.666-57.334-57.333 0-31.667 25.68-57.333 57.334-57.333 31.666 0 57.333 25.666 57.333 57.333" fill="#FFF" fill-rule="nonzero"/>
        <path d="M123.093 56.2c-11.853 2.52-24.906 3.907-38.586 3.907-13.654 0-26.707-1.374-38.534-3.88 1.787 4.026 2.76 8.706 2.76 13.653 0 15.467-9.946 28-22.226 28-12.267 0-22.214-12.533-22.214-28V53.653c0-27.36 35.907-49.546 80.214-49.546 44.306 0 80.226 22.186 80.226 49.546V69.88c0 15.467-9.946 28-22.226 28-12.267 0-22.214-12.533-22.214-28 0-4.96 1-9.64 2.8-13.68" fill="#FFF" fill-rule="nonzero"/>
        <path d="M125.52 57.28l-1.04 2.853-.733 2.96c-.174.974-.28 1.934-.427 2.907-.12 1-.107 2.187-.173 3.267l-.014.413-.013.213v.094c0 .066.013-.2 0-.04l.053.76.08 1.533a45.88 45.88 0 0 0 .4 3.013c.414 1.987.894 3.96 1.667 5.814 1.427 3.746 3.747 7.093 6.653 9.626 1.48 1.2 3.08 2.267 4.814 2.947.413.2.866.293 1.306.44l.654.227c.213.04.413.066.613.106.427.067.76.187 1.253.24l1.667.094.413.026c-.36-.013-.053-.013-.12-.013l.094-.013.173-.014.68-.053c.453-.027.92-.027 1.36-.147l1.347-.266 1.306-.44c1.707-.68 3.387-1.534 4.84-2.774a20.695 20.695 0 0 0 3.92-4.213c1.174-1.56 2.067-3.347 2.854-5.16.333-.933.746-1.84.973-2.813l.413-1.44.294-1.467c.24-1 .28-1.92.413-2.867.08-.44.08-1.026.093-1.573l.067-1.667-.013-13.16-.027-3.293c-.053-.987-.04-1.987-.2-2.96-.187-1.973-.707-3.893-1.293-5.8-1.307-3.76-3.307-7.333-5.854-10.56-5.146-6.427-12.093-11.52-19.64-15.4-7.56-3.893-15.773-6.627-24.173-8.44-4.2-.907-8.467-1.573-12.76-1.987-4.347-.44-8.453-.64-12.973-.653-8.52.027-17.227.813-25.614 2.64-8.4 1.8-16.613 4.533-24.186 8.427-7.547 3.88-14.494 8.973-19.64 15.4-2.547 3.213-4.56 6.786-5.867 10.546-.267.96-.613 1.907-.8 2.88l-.307 1.454c-.08.48-.12.92-.186 1.386-.16.84-.16 2.054-.214 3.134l-.013 3.186-.013 13.294c-.027 4.026.746 8.026 2.146 11.746.76 1.84 1.627 3.64 2.774 5.24 1.08 1.654 2.413 3.094 3.88 4.347 1.44 1.307 3.16 2.2 4.893 2.907l1.347.466 1.253.267c.36.133.947.16 1.507.2l.826.067.414.026h-.08l.093-.013.173-.013c1.894 0 3.747-.467 5.534-1.12 1.773-.707 3.4-1.787 4.933-3.014 2.947-2.6 5.32-6 6.747-9.813.786-1.88 1.24-3.893 1.626-5.893a53.26 53.26 0 0 0 .36-2.974l.067-1.666.04-.827-.04-.68c-.093-4.12-.92-8.213-2.587-11.893a2.668 2.668 0 0 1 1.427-3.52 2.62 2.62 0 0 1 1.413-.2l.147.026 4.733.68c1.574.227 3.134.507 4.72.694l4.747.506c1.573.16 3.16.374 4.733.494 1.574.08 3.16.173 4.72.293 1.587.093 3.134.24 4.734.307l9.626.186 9.534-.186c3.186-.174 6.346-.454 9.533-.614 1.573-.106 3.133-.32 4.707-.48l4.706-.506c1.587-.187 3.187-.467 4.787-.707l4.8-.707a2.726 2.726 0 0 1 2.96 3.627l-.04.08zm-6.573 2.573l-.12.027c-1.587.32-3.147.693-4.76 1l-4.92.733c-1.64.227-3.28.507-4.92.694-1.64.16-3.28.306-4.92.44-1.64.12-3.28.28-4.92.373l-9.854.32-9.786-.307c-1.64-.093-3.307-.253-4.947-.386-1.653-.12-3.307-.28-4.96-.44-1.64-.174-3.267-.454-4.893-.68l-4.88-.72c-1.614-.294-3.227-.68-4.84-1.014l-4.814-1.066 2.987-3.68h.013c1.934 4.44 2.814 9.226 2.854 13.96l.026.44v.226l.014.107-.014.213-.026.827-.067 1.653a57.187 57.187 0 0 1-.44 3.627c-.453 2.347-1 4.68-1.92 6.893-1.707 4.48-4.44 8.627-8.133 11.907-1.894 1.573-3.987 2.973-6.334 3.933-2.346.92-4.853 1.547-7.4 1.587l-.24.013-.12.014h-.293l-.413-.027-.827-.04c-.547-.027-1.08-.04-1.8-.173-.667-.12-1.347-.227-2-.374l-1.827-.56c-2.373-.866-4.653-2.053-6.6-3.613-1.986-1.52-3.76-3.293-5.213-5.28-1.52-1.96-2.693-4.12-3.707-6.333C1.973 79.667 1.04 74.8.96 69.96L.933 56.653v-2.906l.014-.547c.053-1.133.04-2.133.24-3.493.24-2.6.866-4.867 1.586-7.24 1.587-4.614 3.987-8.867 6.934-12.6 5.96-7.454 13.653-13.04 21.826-17.28 8.2-4.24 16.947-7.16 25.867-9.107C66.347 1.52 75.373.667 84.573.613c4.36.014 9.107.254 13.587.72 4.52.454 9.04 1.187 13.493 2.16C120.56 5.427 129.32 8.36 137.52 12.6c8.16 4.24 15.867 9.827 21.813 17.293 2.934 3.734 5.347 8 6.92 12.614.72 2.333 1.347 4.706 1.587 7.16.187 1.213.173 2.44.24 3.666v3.36l-.027 13.427-.066 1.667c-.04.56-.04 1.066-.134 1.733-.16 1.253-.266 2.547-.56 3.707l-.373 1.786-.52 1.747c-.307 1.187-.813 2.307-1.24 3.453-1 2.227-2.133 4.427-3.64 6.414-1.44 2.013-3.2 3.84-5.173 5.413-3.987 3.16-9 5.107-14.467 4.92l-1.667-.107c-.586-.066-1.346-.226-2.013-.36-.333-.066-.693-.12-1.013-.213l-.92-.293c-.614-.214-1.254-.374-1.827-.654-2.387-.973-4.507-2.426-6.44-4.026-3.76-3.347-6.533-7.547-8.213-12.094-.92-2.253-1.44-4.626-1.867-6.986a54.155 54.155 0 0 1-.387-3.574l-.053-1.8-.027-.893v-.253l.014-.107.013-.213.027-.414c.08-1.12.093-2.16.253-3.36.2-1.226.373-2.466.613-3.666l.574-2.094z" fill="#231F20" fill-rule="nonzero"/>
        <path d="M164.733 130.987c0 18.786-14.733 34-32.893 34H37.627c-18.174 0-32.894-15.214-32.894-34 0-18.774 14.72-34 32.894-34h94.213c18.16 0 32.893 15.226 32.893 34" fill="#FFF" fill-rule="nonzero"/>
        <path d="M161.8 130.987s-.013-.347-.053-1.04c-.014-.347-.027-.774-.054-1.294l-.04-.826c-.04-.28-.08-.6-.133-.934-.093-.653-.2-1.4-.32-2.213-.187-.8-.4-1.667-.64-2.613-.24-.934-.64-1.894-.987-2.96a64.76 64.76 0 0 0-1.48-3.214c-1.213-2.173-2.733-4.506-4.8-6.706-2.08-2.16-4.613-4.24-7.666-5.907-.774-.373-1.547-.813-2.36-1.16-.84-.32-1.694-.64-2.547-.973-.893-.24-1.787-.48-2.707-.734-.893-.146-1.786-.306-2.706-.453-.987-.12-2.12-.133-3.187-.2l-.413-.027h.04-2.8c-2.227 0-4.52-.013-6.854-.013-9.333-.013-19.453-.027-30.16-.053-10.706-.027-21.986.066-33.666.12-5.84.04-11.774.093-17.787.146-1.493.014-3.053 0-4.36.12-1.373.014-2.72.294-4.08.52-2.667.627-5.333 1.427-7.76 2.814-2.427 1.306-4.747 2.92-6.707 4.906-1.066.907-1.906 2.04-2.84 3.08-.786 1.16-1.693 2.24-2.346 3.494-1.467 2.4-2.494 5.053-3.227 7.76l-.507 2.053-.293 1.987-.147.986-.053 1.174-.093 2.333v-.04l.013.133.013.267.027.533.053 1.054.054 1.053.146 1.04.32 2.093.507 2.054c.76 2.693 1.8 5.333 3.28 7.706.653 1.254 1.56 2.32 2.36 3.467.933 1.027 1.787 2.147 2.84 3.053 1.987 1.96 4.293 3.534 6.72 4.814 2.4 1.346 5.08 2.12 7.68 2.706l1.893.307.467.093.573.027 1.134.053 1.12.067.293.013h.133c.2.014-.12 0-.026 0h20.6c11.68.014 22.96.027 33.666.027 10.707.04 20.827.08 30.16.12 2.334 0 4.627.013 6.854.013 1.106 0 2.266.04 3.28 0 .973-.066 1.946-.066 2.906-.173 3.827-.387 7.334-1.573 10.36-3.2 3.027-1.613 5.56-3.653 7.654-5.8 2.066-2.16 3.586-4.467 4.826-6.627a47.548 47.548 0 0 0 1.494-3.186c.36-1.04.76-2 1.026-2.934.24-.946.454-1.813.654-2.6.12-.773.226-1.48.333-2.106.04-.32.093-.614.133-.894.027-.32.04-.626.054-.906.026-.547.053-1.027.08-1.4.04-.747.053-1.134.053-1.134v.134zm5.867.146s-.027.387-.054 1.147c-.013.373-.04.84-.066 1.4-.014.28-.027.573-.04.893-.04.36-.094.747-.147 1.147l-.4 2.72c-.227.947-.48 1.987-.747 3.093-.306 1.12-.76 2.267-1.186 3.52a61.857 61.857 0 0 1-1.76 3.814c-1.427 2.586-3.24 5.346-5.694 7.973-2.48 2.573-5.506 5.067-9.16 7.053a34 34 0 0 1-12.573 4c-1.147.134-2.333.16-3.533.24-1.174.04-2.214.014-3.36.027-2.227.013-4.52.027-6.854.027-9.333.04-19.453.08-30.16.106-10.706.014-21.986.027-33.666.027h-20.6l-.747-.027-1.133-.053-1.12-.067-.574-.026-.653-.094-2.6-.4c-3.307-.733-6.547-1.706-9.52-3.36-2.987-1.56-5.813-3.506-8.227-5.88-1.293-1.12-2.333-2.466-3.466-3.733-.987-1.387-2.067-2.707-2.867-4.213-1.8-2.894-3.067-6.094-3.987-9.374l-.613-2.48c-.147-.84-.267-1.693-.387-2.533l-.186-1.267-.067-1.266-.067-1.28-.026-.64-.014-.32-.013-.16v-.32l.133-2.334.067-1.16.187-1.32c.133-.88.253-1.773.413-2.626l.627-2.48c.933-3.267 2.226-6.454 4.026-9.334.8-1.493 1.894-2.813 2.88-4.186 1.134-1.254 2.174-2.587 3.467-3.694 2.427-2.346 5.253-4.253 8.227-5.8 2.96-1.6 6.213-2.56 9.453-3.24 1.64-.253 3.28-.533 4.933-.546 1.707-.107 3.16-.067 4.667-.054 6.013.054 11.947.094 17.787.147 11.68.053 22.96.147 33.666.107l30.16-.04c2.334 0 4.627-.014 6.854-.014H132l.413.014c1.094.08 2.12.08 3.254.2 1.186.173 2.373.333 3.52.546 1.08.294 2.16.574 3.226.854 1.027.373 2.04.746 3.027 1.12.987.413 1.907.92 2.84 1.36 3.627 1.946 6.667 4.4 9.133 6.946 2.467 2.587 4.294 5.32 5.734 7.894a67.032 67.032 0 0 1 1.786 3.786c.427 1.24.894 2.387 1.2 3.494.28 1.106.534 2.133.774 3.08.146.96.28 1.84.4 2.613.053.4.106.76.16 1.107.026.346.04.666.053.973.04.6.067 1.107.08 1.52.04.813.067 1.227.067 1.227v.146z" fill="#231F20" fill-rule="nonzero"/>
        <path d="M38 128.387l3.973-.587c2.52-.347 6.12-.84 10.454-1.44 1.08-.147 2.2-.293 3.373-.44 1.187-.093 2.413-.187 3.68-.28 2.52-.187 5.187-.387 7.947-.587 2.76-.173 5.613-.426 8.506-.426 2.88-.067 5.814-.134 8.747-.187 1.467-.027 2.933-.04 4.4-.053l4.347.12c2.893.066 5.733.146 8.48.213 2.746.093 5.4.32 7.906.48 2.52.173 4.894.307 7.08.547 4.387.386 8.027.826 10.587 1.173 1.267.16 2.267.307 2.973.413.68.107 1.054.174 1.054.174 1.306.2 2.2 1.426 2 2.733a2.399 2.399 0 0 1-2.614 2.027l-.053-.014s-1.387-.146-3.92-.333c-1.253-.093-2.773-.253-4.533-.36l-5.907-.36c-2.147-.173-4.507-.24-6.987-.333-2.48-.107-5.093-.2-7.8-.307-2.706-.053-5.506-.093-8.346-.147-1.427-.013-2.854-.04-4.294-.066l-4.333.08c-2.88.04-5.773.08-8.613.106-2.854-.013-5.614.214-8.307.347-2.693.147-5.293.28-7.76.4-1.227.067-2.427.12-3.587.173-1.173.12-2.306.24-3.386.347-4.347.413-7.974.76-10.507 1-2.547.227-3.987.347-3.987.347a2.398 2.398 0 0 1-2.613-2.174 2.42 2.42 0 0 1 2.04-2.586" fill="#231F20" fill-rule="nonzero"/>
        <path d="M59.627 57.88l50.213 39.107m-50.213 0L109.84 57.88" stroke="#231F20" stroke-width="4.667" stroke-linecap="round" stroke-linejoin="round"/>
    </g>
</svg>
