<svg width="168" height="168" xmlns="http://www.w3.org/2000/svg">
    <title>
        suwi
    </title>
    <g fill="none" fill-rule="evenodd">
        <path d="M79.373 33.32c38.667 0 64 22.667 64 64 0 42.667-21.333 66.667-59.773 66.667-44.187 0-79.773-35.814-79.773-80 0-44.174 35.813-80 80-80h16c21.6 0 39.106 13.533 39.106 30.226 0 7.76-2.666 14.654-8.893 20 2.147-1.106 4.56-1.933 7.12-2.56 12.4-2.986 24.2 1.8 26.347 10.68 2.146 8.894-6.174 18.534-18.587 21.52-.893.227-1.667.214-2.547.347 10.747 1.747 19.787 12.253 21.28 25.813 1.734 15.76-7.346 29.694-20.293 31.12-3.68.4-6.707.32-10-1.186" fill="#FFF" fill-rule="nonzero"/>
        <path d="M79.453 31.333l4.294.067c1.426.027 2.84 0 4.333.187l4.44.44 1.107.12 1.08.2 2.173.413 2.173.413c.734.12 1.454.28 2.16.507l4.267 1.227 1.067.306 1.04.414 2.08.813c1.373.573 2.786 1.04 4.093 1.787l3.973 2.08c1.28.786 2.507 1.64 3.76 2.48.614.426 1.267.813 1.84 1.293l1.72 1.453 1.72 1.467c.574.493 1.147.973 1.64 1.547l3.08 3.306c1.014 1.107 1.827 2.387 2.747 3.574l1.347 1.826c.413.627.76 1.294 1.146 1.934.747 1.306 1.534 2.586 2.24 3.92l1.827 4.106c.28.694.64 1.36.853 2.067l.694 2.133c.44 1.427.946 2.84 1.333 4.28l.96 4.347.48 2.187.28 2.2.56 4.413c.173 1.467.16 2.947.24 4.413.067 1.494.147 2.907.173 4.454-.026 11.6-1.506 23.6-6.066 34.72-2.294 5.546-5.347 10.853-9.307 15.48a50.852 50.852 0 0 1-14.067 11.546c-2.653 1.48-5.426 2.76-8.266 3.76-1.414.56-2.88.947-4.307 1.4-1.467.36-2.907.8-4.387 1.067-5.893 1.213-11.813 1.72-17.8 1.613-11.853-.173-23.773-2.946-34.52-8.093-10.746-5.16-20.333-12.68-27.973-21.827-7.64-9.146-13.24-19.986-16.373-31.493A84.055 84.055 0 0 1 .493 88.253l-.106-4.546c.053-1.44.053-2.84.133-4.307.12-1.52.187-3.053.36-4.547.213-1.466.333-2.96.613-4.426 1.907-11.774 6.414-23.12 13.08-33.014a84.741 84.741 0 0 1 25.654-24.56C50.4 6.613 61.933 2.64 73.773 1.227 76.72.853 79.707.68 82.68.627c2.947-.054 5.747 0 8.627-.014l8.706.014c1.44.066 2.827.08 4.32.2 1.547.2 3.16.306 4.654.6 6.026 1.066 11.893 3.186 17.173 6.44 2.6 1.693 5.12 3.573 7.293 5.88 2.24 2.2 4.094 4.853 5.614 7.68 1.506 2.84 2.44 6 2.933 9.226l.147 2.44.04.6.013.307v.147c.013.026 0 .386 0 .293l-.053 1.067c-.067.746-.04 1.373-.16 2.213l-.36 2.48a29.26 29.26 0 0 1-3.48 8.96c-1.72 2.747-3.92 5.093-6.347 7.067l-.013.013-2.974-4.4 2.267-1.08c.747-.347 1.507-.72 2.293-.947l2.334-.76.586-.186.147-.04.24-.067.28-.067 1.107-.253c.693-.2 1.586-.307 2.44-.44.88-.147 1.693-.187 2.533-.253 1.667-.12 3.347-.08 5.04.08 1.68.146 3.36.466 5.027.92.826.266 1.653.546 2.466.866.787.374 1.614.667 2.374 1.147.786.427 1.56.88 2.28 1.44.76.507 1.426 1.147 2.106 1.773 1.307 1.32 2.507 2.827 3.307 4.6.467.84.72 1.787 1.013 2.707l.054.173.026.08.067.307.04.28.093.56c.054.413.134.667.16 1.28.027.533.04 1.067.04 1.6 0 .533-.08.96-.12 1.453-.066.96-.346 1.854-.573 2.774-.56 1.76-1.32 3.453-2.307 4.933-.946 1.52-2.106 2.853-3.333 4.067-.627.6-1.293 1.133-1.947 1.693-.68.507-1.36 1.027-2.066 1.493a33.866 33.866 0 0 1-4.414 2.427c-1.52.667-3.106 1.2-4.693 1.653l-1.2.294-.6.146-.307.067-.2.04h-.013l-.04.013h-.067l-.146.027c-.734.093-1.52.147-2.32.2l.013-5.267c2.027.374 4.053.84 5.907 1.707.96.36 1.826.907 2.733 1.36.84.56 1.747 1.053 2.533 1.693.8.6 1.6 1.227 2.32 1.934.76.666 1.427 1.413 2.107 2.146.68.747 1.253 1.56 1.88 2.334.547.84 1.16 1.64 1.64 2.506.493.867 1.027 1.72 1.427 2.627.44.893.853 1.787 1.186 2.72.747 1.853 1.28 3.76 1.707 5.693.24.96.333 1.947.507 2.92l.066.374.04.48.054.68.12 1.36.04.68.013.773v1.56c.027 1.053-.12 2.013-.2 3.013a33.026 33.026 0 0 1-1.107 5.894 32.702 32.702 0 0 1-2.133 5.666 30.988 30.988 0 0 1-3.213 5.214c-.64.8-1.347 1.573-2.04 2.346-.774.694-1.507 1.427-2.334 2.08-1.666 1.267-3.453 2.427-5.426 3.214l-1.467.6-1.533.426c-1.014.334-2.067.454-3.107.614l-.787.106-.173.014h-.133l-.16.013-.347.013-1.36.04-.693.014-.827-.04-1.627-.107c-1.08-.08-2.133-.413-3.186-.64-1.014-.347-2-.8-2.974-1.213a2.656 2.656 0 0 1-1.36-3.494 2.646 2.646 0 0 1 3.094-1.493l.48.12 2.16.573c.746.04 1.466.187 2.2.187l1.093-.027h.533l.667-.066 1.36-.16.333-.04.174-.027h.08l.053-.013h.013c.04 0-.226.026-.106.013l.56-.133c.746-.147 1.493-.267 2.2-.547l1.08-.36 1.026-.493c1.374-.627 2.627-1.507 3.84-2.454.587-.48 1.12-1.053 1.694-1.573.506-.587 1.053-1.147 1.546-1.76.934-1.267 1.827-2.587 2.547-4.013a25.031 25.031 0 0 0 1.8-4.467c.48-1.56.827-3.16 1.027-4.787.08-.8.24-1.64.226-2.4l.04-1.173.014-.587-.027-.68-.08-1.36-.04-.68v-.16l-.013-.093c0-.04.026.24.013.12v-.027l-.013-.04-.04-.306c-.12-.814-.174-1.64-.36-2.454-.307-1.613-.707-3.226-1.294-4.76a20.068 20.068 0 0 0-.92-2.293c-.32-.773-.733-1.467-1.12-2.2-.386-.72-.866-1.387-1.293-2.093-.493-.64-.947-1.32-1.48-1.934-1.053-1.24-2.2-2.4-3.467-3.386-.613-.547-1.306-.934-1.946-1.414-.707-.373-1.374-.853-2.107-1.133-1.413-.733-2.96-1.12-4.493-1.48l-.307-.08a2.632 2.632 0 0 1-1.973-3.16 2.633 2.633 0 0 1 2.306-2.027h.014c.706-.12 1.44-.24 2.186-.4l.147-.026.067-.014.026-.013h.027c-.08.013.187-.04-.173.027l.253-.08.493-.16.987-.32a30.83 30.83 0 0 0 3.787-1.627 26.825 26.825 0 0 0 3.48-2.107c.533-.4 1.053-.826 1.573-1.24.48-.466.987-.893 1.427-1.373.866-.96 1.746-1.92 2.373-3 .693-1.053 1.133-2.187 1.493-3.293.107-.574.307-1.134.32-1.694.014-.266.08-.586.067-.813a3.714 3.714 0 0 1-.013-.667c.04-.16-.08-.64-.134-.986l-.093-.56-.053-.28v-.04l-.014-.014c.094.454.027.12.04.214l-.013-.04-.027-.107c-.173-.52-.293-1.053-.573-1.547-.427-1.013-1.147-1.92-1.947-2.773-.44-.4-.84-.827-1.36-1.173-.466-.387-1-.694-1.546-1.014-.52-.346-1.147-.546-1.707-.84-.6-.24-1.213-.466-1.827-.666-1.266-.36-2.546-.694-3.893-.854a25.482 25.482 0 0 0-4.053-.213c-.68.027-1.374.04-2 .12-.654.08-1.267.107-2.054.267l-1.12.186-.28.054-.08.013h-.026c-.027.013.186-.04.08-.013h-.014l-.12.04-.506.133-2.04.52c-.707.147-1.32.427-1.947.667l-1.933.72-.267.093a2.66 2.66 0 0 1-3.427-1.56c-.4-1.067-.066-2.213.734-2.933h.013c1.813-1.867 3.4-3.854 4.613-6.04 1.147-2.227 1.907-4.627 2.347-7.08l.227-1.774c.053-.28.066-.64.08-1l.04-1.08.026-1.066c.014-.174 0 .093 0 .026l-.013-.12-.013-.226-.04-.467-.147-1.84c-.453-2.413-1.107-4.813-2.307-7.013s-2.64-4.307-4.48-6.094c-1.746-1.88-3.866-3.44-6.04-4.853-4.466-2.747-9.533-4.573-14.773-5.493-1.307-.267-2.56-.32-3.84-.507-1.36-.107-2.84-.133-4.253-.2l-8.44.013c-2.84.014-5.76-.026-8.534.027-2.733.053-5.48.213-8.2.56-10.866 1.32-21.44 4.987-30.76 10.733a77.683 77.683 0 0 0-23.52 22.574c-6.08 9.093-10.226 19.48-12 30.28-.253 1.333-.373 2.706-.56 4.053-.16 1.36-.226 2.68-.346 4.013-.067 1.387-.08 2.854-.12 4.267l.08 4.027a77.275 77.275 0 0 0 2.56 16.186c2.853 10.574 7.986 20.52 14.986 28.947 7.014 8.413 15.814 15.347 25.68 20.107a76.62 76.62 0 0 0 31.76 7.48c10.934.24 22.08-1.64 31.467-6.814 4.693-2.573 8.907-5.96 12.387-10.026 3.506-4.04 6.266-8.747 8.373-13.747 2.08-5.027 3.56-10.333 4.44-15.787.24-1.36.44-2.733.6-4.106.187-1.374.293-2.76.413-4.147.147-1.387.174-2.747.254-4.12.066-1.373.066-2.853.106-4.267.094-11.013-1.893-22.133-6.52-31.973-.626-1.2-1.32-2.36-1.973-3.56-.333-.587-.653-1.187-1.013-1.76l-1.187-1.653c-.813-1.08-1.507-2.24-2.413-3.254l-2.734-3.013c-.426-.52-.933-.96-1.453-1.4l-1.533-1.347-1.52-1.346c-.52-.427-1.107-.787-1.654-1.187-1.12-.76-2.2-1.587-3.346-2.333l-3.574-1.987c-1.16-.72-2.453-1.187-3.706-1.733l-1.894-.814-.946-.413-.987-.307-3.933-1.253c-.654-.227-1.32-.4-2-.533l-2.04-.44-2.027-.44-1.013-.227-1.027-.133-4.08-.56c-1.333-.24-2.787-.28-4.213-.374l-4.28-.253a1.989 1.989 0 0 1-1.88-2.107 1.988 1.988 0 0 1 2.026-1.88" fill="#231F20" fill-rule="nonzero"/>
        <path d="M106.16 76.493c0 10.774-8.733 19.494-19.507 19.494-10.773 0-19.493-8.72-19.493-19.494 0-10.773 8.72-19.506 19.493-19.506 10.774 0 19.507 8.733 19.507 19.506z" stroke="#231F20" stroke-width="5.667" stroke-linecap="round" stroke-linejoin="round"/>
        <path d="M70.453 66.96s-.133-.027-.386-.067c-.28-.026-.68-.08-1.2-.146a57.79 57.79 0 0 0-4.667-.28 53.645 53.645 0 0 0-7.24.333c-2.76.32-5.853.867-9.053 1.92-3.174 1.067-6.467 2.64-9.374 4.987a25.719 25.719 0 0 0-7.2 9.08c-1.786 3.68-2.84 7.906-3.253 12.32-.227 2.2-.28 4.493-.24 6.72.067 2.08.4 4.2 1.067 6.093 1.293 3.827 4.133 6.787 7.64 7.787 3.493 1.026 7.346.093 9.986-2.214 2.707-2.28 4.174-5.773 4.667-9.306.133-.88.213-1.774.227-2.667.013-.987.04-1.973.053-2.933.053-1.987.16-3.894.333-5.747.347-3.693.827-7.16 1.947-10.267.573-1.546 1.307-3.013 2.267-4.293.96-1.253 2.146-2.28 3.346-2.92 2.44-1.267 4.427-1.333 5.667-1.413 1.253-.014 1.893.04 1.893.04l.08.013a2.01 2.01 0 0 1 1.814 2.173 1.992 1.992 0 0 1-1.894 1.814s-.56.04-1.533.186c-.96.147-2.373.44-3.587 1.28a6.25 6.25 0 0 0-1.666 1.76c-.507.8-.934 1.827-1.28 3.04-.68 2.44-1.08 5.534-1.227 8.987-.067 1.72-.093 3.547-.107 5.427v2.96c0 1.106-.08 2.226-.226 3.386-.28 2.294-.88 4.667-1.947 6.974-1.08 2.293-2.653 4.506-4.72 6.28a17.138 17.138 0 0 1-7.387 3.746c-2.773.614-5.733.52-8.506-.333-2.774-.84-5.32-2.44-7.307-4.533-2-2.094-3.4-4.64-4.28-7.254-.893-2.626-1.267-5.293-1.333-7.96-.014-2.533.12-4.986.413-7.466.573-4.934 1.867-9.814 4.093-14.16 2.187-4.36 5.36-8.12 8.974-10.774 3.586-2.706 7.48-4.426 11.12-5.506a45.75 45.75 0 0 1 10.12-1.8 59.062 59.062 0 0 1 7.826-.027c2.16.133 3.854.347 5.014.52.586.093 1.026.16 1.333.213.307.067.48.094.48.094a1.994 1.994 0 0 1 1.573 2.346 2.005 2.005 0 0 1-2.253 1.6l-.067-.013" fill="#231F20" fill-rule="nonzero"/>
    </g>
</svg>
