<svg width="168" height="167" xmlns="http://www.w3.org/2000/svg">
    <title>
        tan
    </title>
    <g fill="none">
        <path d="M164.067 108.933c0 29.854-35.894 54.054-80.174 54.054-44.266 0-80.16-24.2-80.16-54.054 0-29.853 35.894-54.053 80.16-54.053 44.28 0 80.174 24.2 80.174 54.053" fill="#FFF"/>
        <path d="M161.067 108.933l-.04-1.12c-.014-.373-.027-.826-.054-1.373a123.71 123.71 0 0 0-.2-1.88 35.759 35.759 0 0 0-3.693-11.867c-2.413-4.853-6.493-10.293-12.427-15.293-5.893-5.013-13.6-9.6-22.653-13.04-9.04-3.453-19.44-5.813-30.587-6.547-11.16-.76-23.053.174-34.84 3.134-11.72 3.026-23.493 8.146-33.146 16.2-4.774 4.013-9.014 8.76-12.014 14.186-1.48 2.707-2.666 5.574-3.466 8.534-.427 1.466-.694 3.013-.907 4.48-.067.733-.187 1.413-.227 2.213l-.08 2.373c.027 6.134 1.774 12.174 4.8 17.547 3.014 5.387 7.267 10.08 12.054 14.067 9.666 7.946 21.413 12.973 33.106 15.906 5.867 1.454 11.774 2.347 17.587 2.827 2.92.24 5.68.333 8.68.36a126.1 126.1 0 0 0 8.413-.213c11.094-.654 21.454-2.934 30.48-6.307 9.04-3.373 16.734-7.88 22.64-12.84 5.947-4.933 10.04-10.333 12.48-15.147 2.507-4.8 3.387-9.026 3.76-11.786.094-.68.16-1.28.214-1.814.026-.586.053-1.093.066-1.493.04-.8.054-1.213.054-1.213v.106zm5.986.12l-.04 1.214c-.013.4-.026.906-.053 1.493-.067.667-.147 1.427-.227 2.293a41.812 41.812 0 0 1-4.306 13.854c-2.787 5.573-7.4 11.68-13.907 17.16-6.467 5.493-14.76 10.4-24.4 14.066-9.627 3.667-20.6 6.147-32.333 6.907-2.934.187-5.867.307-8.947.267-2.867-.04-6.04-.16-9.107-.454-6.146-.533-12.4-1.52-18.626-3.106-12.4-3.2-24.934-8.6-35.507-17.4-5.24-4.414-9.987-9.68-13.427-15.88-3.426-6.187-5.466-13.32-5.44-20.534l.094-2.6c.053-.866.2-1.84.293-2.746.267-1.814.6-3.56 1.093-5.28a44.541 44.541 0 0 1 4.08-9.84C9.747 82.293 14.507 77.08 19.76 72.72c10.587-8.707 23.107-14 35.467-17.12 12.44-3.08 24.88-3.813 36.52-3.147 11.68.694 22.613 3.08 32.226 6.68C133.6 62.733 141.88 67.56 148.36 73c6.52 5.413 11.16 11.467 13.96 17.013a41.765 41.765 0 0 1 4.373 13.774c.094.84.174 1.573.254 2.213.026.64.04 1.187.066 1.613.027.88.054 1.32.054 1.32l-.014.12z" fill="#231F20"/>
        <path d="M83.893 38.64c-37.28 0-67.493 16.8-67.493 37.507 0 16.346 18.827 30.253 45.08 35.386l9.333-11.92 13.08-16.706 13.08 16.706 9.334 11.92c26.266-5.133 45.093-19.04 45.093-35.386 0-20.707-30.227-37.507-67.507-37.507" fill="#FFF"/>
        <path d="M83.893 35.973c3.107.027 6.214.08 9.307.32 3.093.227 6.187.56 9.267 1.027 3.08.453 6.133 1.067 9.173 1.76 3.04.68 6.053 1.573 9.027 2.56 5.946 2 11.72 4.653 17.093 8.16 2.667 1.773 5.213 3.787 7.547 6.093 2.333 2.307 4.44 4.934 6.08 7.92.8 1.507 1.533 3.067 2.053 4.72.573 1.64.907 3.334 1.147 5.24.066.494.053.787.08 1.187l.026.573.027.28v.454l-.173 2.626c-.027.894-.294 1.734-.454 2.587-.186.853-.346 1.72-.68 2.52-.293.813-.573 1.64-.893 2.44l-1.16 2.293c-.373.787-.867 1.467-1.32 2.174-.493.693-.907 1.44-1.453 2.066-1.067 1.28-2.107 2.614-3.307 3.72-.587.574-1.147 1.187-1.773 1.72l-1.88 1.574a20.44 20.44 0 0 1-1.92 1.48l-1.974 1.413c-1.346.88-2.72 1.707-4.093 2.533-1.413.734-2.813 1.52-4.24 2.2-1.453.64-2.88 1.347-4.347 1.92-2.933 1.2-5.933 2.2-8.946 3.08-1.52.4-3.027.827-4.56 1.2l-4.587.987h-.013l-.04.013a3.259 3.259 0 0 1-3.227-1.226L81.8 84.547H86l-21.893 29.04a3.234 3.234 0 0 1-3.227 1.226l-.04-.013-4.6-.987c-1.52-.373-3.04-.8-4.56-1.2-3.013-.88-6.013-1.88-8.933-3.08-1.48-.573-2.907-1.28-4.36-1.92-1.427-.68-2.827-1.466-4.24-2.2-1.374-.826-2.747-1.653-4.094-2.533l-1.973-1.413a20.44 20.44 0 0 1-1.92-1.48l-1.88-1.574c-.613-.533-1.173-1.146-1.773-1.72-1.2-1.106-2.24-2.44-3.307-3.72-.533-.626-.96-1.373-1.44-2.066-.467-.707-.96-1.387-1.32-2.174l-1.173-2.293c-.307-.8-.6-1.627-.894-2.44-.333-.773-.506-1.707-.706-2.627-.16-.88-.44-1.933-.427-2.613l-.16-2.267-.013-.08v-.48l.026-.32.027-.666c.04-.427.027-.867.093-1.307.4-3.493 1.56-6.84 3.2-9.827 1.627-2.986 3.734-5.613 6.067-7.92 2.333-2.306 4.88-4.32 7.56-6.093 5.36-3.507 11.147-6.16 17.08-8.16 2.987-.987 5.987-1.88 9.027-2.56 3.04-.693 6.106-1.307 9.186-1.76 3.067-.467 6.16-.8 9.254-1.027 3.093-.24 6.28-.293 9.266-.32h.04zm.04 5.334c-3.093.053-5.973.12-8.933.373-2.96.227-5.907.573-8.84 1.04-2.933.44-5.827 1.067-8.68 1.787-2.88.706-5.68 1.6-8.453 2.586-5.52 1.974-10.827 4.547-15.574 7.774-4.68 3.253-8.88 7.266-11.36 12.013-1.24 2.373-2.04 4.88-2.28 7.44-.053.32-.026.64-.053.96l-.013.48-.014.24v.147c-.026-.467-.013-.107-.013-.2l.013.066.16 2.267c.027.4.054.773.147 1.027l.2.853c.133.56.213 1.12.48 1.747l.68 1.84.907 1.76c.266.6.68 1.146 1.053 1.706.387.547.707 1.147 1.16 1.667.893 1.04 1.72 2.12 2.747 3.067.506.48.973 1 1.506 1.453l1.627 1.347c.52.466 1.093.88 1.68 1.28l1.733 1.24c1.2.773 2.44 1.506 3.667 2.253 1.28.653 2.533 1.36 3.84 1.973 1.333.574 2.627 1.227 3.987 1.747 1.373.507 2.706 1.08 4.093 1.547 1.387.44 2.76.946 4.173 1.346 1.414.387 2.814.8 4.24 1.16l4.307.96v.014l-3.267 1.213L81.8 81.267a2.694 2.694 0 0 1 4.2 0l22.933 28.213-3.266-1.213.013-.014 4.293-.96c1.427-.36 2.827-.773 4.24-1.16 1.414-.4 2.787-.906 4.174-1.346 1.386-.467 2.733-1.04 4.093-1.547 1.36-.52 2.653-1.173 3.987-1.747 1.306-.613 2.56-1.32 3.853-1.973 1.227-.747 2.453-1.48 3.653-2.253l1.734-1.24c.6-.4 1.16-.814 1.693-1.28l1.613-1.347c.547-.453 1-.973 1.507-1.453 1.04-.947 1.867-2.027 2.747-3.067.466-.52.773-1.12 1.16-1.667.373-.56.786-1.106 1.053-1.706l.92-1.76.667-1.84c.266-.6.373-1.24.506-1.867.107-.627.347-1.24.334-1.893l.146-1.907v-.067c.014.067 0-.173.014.12v-.026l-.014-.147v-.28l-.026-.573c-.027-.36-.014-.814-.054-1.08-.146-1.107-.346-2.427-.76-3.654-.36-1.253-.906-2.466-1.506-3.653-2.494-4.747-6.68-8.76-11.374-12.013-4.746-3.227-10.04-5.8-15.573-7.774-2.76-.986-5.573-1.88-8.44-2.586-2.867-.72-5.76-1.347-8.693-1.787-2.92-.467-5.867-.813-8.827-1.04-2.96-.253-5.933-.32-8.907-.373h.04z" fill="#231F20"/>
        <path d="M68.733 45.653s.014 1.08.054 2.974c.013.933.04 2.08.066 3.4.014.28.04.573.054.866.026.334.04.747.093 1.04.133.574.133 1.107.36 1.787.307 1.32.907 2.68 1.693 4.013.8 1.334 1.854 2.6 3.147 3.694 1.28 1.093 2.8 2 4.453 2.613.827.333 1.694.533 2.56.707.454.053.894.146 1.334.186l.68.027.333.013.16.014h.16c-.067 0 .16 0-.133.013l1.613-.08c.507-.04.827-.133 1.24-.173.813-.16 1.733-.387 2.533-.707a14.851 14.851 0 0 0 4.454-2.613 14.591 14.591 0 0 0 3.146-3.694c.787-1.333 1.4-2.693 1.694-4.013.213-.653.253-1.307.373-1.907.067-.626.107-1.186.147-1.786.013-1.32.04-2.467.053-3.4.04-1.894.067-2.974.067-2.974a2.663 2.663 0 0 1 2.706-2.613 2.683 2.683 0 0 1 2.627 2.613s.013 1.08.053 2.974c.014.933.04 2.08.067 3.4-.013.72-.04 1.546-.093 2.4-.134.84-.2 1.746-.454 2.64-.386 1.84-1.16 3.76-2.226 5.626a19.678 19.678 0 0 1-4.294 5.214 21.066 21.066 0 0 1-6.213 3.706c-1.16.467-2.333.774-3.627 1.027-.64.093-1.386.213-1.946.267l-1.614.08h-.4l-.226-.014-.48-.026-.934-.054c-.626-.053-1.24-.173-1.866-.266-1.227-.24-2.44-.56-3.6-1.014a20.829 20.829 0 0 1-6.2-3.706 19.735 19.735 0 0 1-4.307-5.214c-1.053-1.866-1.827-3.786-2.227-5.626-.253-.867-.333-1.894-.466-2.774-.04-.44-.027-.746-.04-1.106-.014-.4-.027-.787-.027-1.16.013-1.32.04-2.467.053-3.4.04-1.894.067-2.974.067-2.974a2.663 2.663 0 0 1 2.707-2.613 2.683 2.683 0 0 1 2.626 2.613" fill="#231F20"/>
        <path d="M123.813 25.8c0 12.253-17.866 22.187-39.92 22.187-22.053 0-39.92-9.934-39.92-22.187 0-12.24 17.867-22.173 39.92-22.173 22.054 0 39.92 9.933 39.92 22.173" fill="#FFF"/>
        <path d="M120.48 25.8s-.08-.56-.147-1.627c-.173-.52-.28-1.186-.573-1.933l-.56-1.2c-.187-.427-.547-.84-.827-1.307-1.253-1.813-3.32-3.853-6.213-5.693-2.893-1.84-6.547-3.48-10.76-4.707-4.2-1.213-9.027-2.026-14-2.28-5.24-.253-10.56.04-16.013 1.094-5.387 1.066-10.907 2.84-15.6 5.8-2.334 1.48-4.467 3.226-6.04 5.266l-1.027 1.56-.773 1.64c-.147.494-.254.934-.44 1.4l-.214 2.294c.027-.587.014-.134.014-.24l.013.053.013.107.014.213.04.427c.026.28.026.56.066.853l.454 1.693.76 1.654 1.026 1.586c1.56 2.054 3.694 3.827 6.014 5.32 4.693 3.014 10.213 4.854 15.626 5.974 2.734.56 5.467.866 8.054 1.066 1.333.107 2.773.107 4.133.16 1.173.014 2.573-.066 3.827-.093 5.106-.267 9.893-1.093 14.12-2.373 4.213-1.267 7.88-2.947 10.76-4.827 2.893-1.867 4.946-3.92 6.2-5.76.28-.467.626-.893.826-1.32.187-.427.374-.84.534-1.213.106-.187.16-.347.186-.494a3.99 3.99 0 0 1 .107-.426c.08-.267.16-.507.24-.734.12-1.453.187-2.226.187-2.226l-.027.293zm6.653.307s-.066.773-.213 2.226c-.213.907-.493 2.254-1 3.48a99.71 99.71 0 0 1-.88 1.88c-.333.667-.8 1.267-1.227 1.947-1.853 2.627-4.64 5.24-8.146 7.44-3.507 2.2-7.734 4.04-12.48 5.36-4.734 1.32-9.987 2.2-15.547 2.453-1.427.027-2.733.107-4.293.08-1.387-.04-2.734-.026-4.2-.133-3-.2-5.974-.52-8.974-1.12-5.986-1.133-12.173-3-17.866-6.533-2.827-1.774-5.574-3.92-7.814-6.787l-1.533-2.307c-.44-.826-.827-1.706-1.227-2.56-.306-.906-.546-1.866-.8-2.8-.08-.48-.12-.973-.173-1.453l-.067-.733-.026-.374-.014-.186-.013-.094c.013-.16-.013.24.013-.386l.214-2.347c.24-1.027.506-2.107.84-3.093.386-.867.773-1.734 1.213-2.574l1.52-2.32c2.227-2.893 4.96-5.066 7.787-6.866C57.933 4.733 64.107 2.8 70.12 1.6 76.12.427 82.147.12 87.587.387c5.706.28 10.906 1.173 15.666 2.546 4.747 1.387 8.974 3.254 12.48 5.494 3.52 2.226 6.294 4.853 8.12 7.506.44.694.907 1.294 1.227 1.96.307.667.6 1.307.88 1.894.48 1.2.707 2.333.933 3.2.2 1.84.254 2.813.254 2.813l-.014.307z" fill="#231F20"/>
    </g>
</svg>
