<svg width="87" height="168" xmlns="http://www.w3.org/2000/svg">
    <title>
        taso
    </title>
    <g fill="none">
        <path d="M83.506 163.987c-44.184 0-80.006-35.814-80.006-80 0-44.174 35.822-80 80.006-80" fill="#FFF"/>
        <path d="M83.46 165.984h-2.815c-.902.026-2.08-.028-3.481-.107-.68-.04-1.429-.067-2.22-.12-.79-.08-1.608-.174-2.496-.267-3.508-.413-7.752-1.093-12.523-2.44a79.165 79.165 0 0 1-15.422-6.08c-5.409-2.787-10.928-6.506-16.226-11.093-5.256-4.6-10.277-10.121-14.451-16.548-4.216-6.386-7.642-13.6-10-21.292-1.206-3.854-2.038-7.827-2.69-11.841-.277-2.026-.554-4.04-.68-6.079-.082-1.027-.166-2.04-.18-3.067L.18 83.903c.07-3.8.333-8.146.957-12.12.652-4.013 1.484-8 2.69-11.84 2.358-7.694 5.784-14.907 10-21.293 4.173-6.427 9.194-11.946 14.45-16.56 5.298-4.573 10.817-8.294 16.226-11.08a79.077 79.077 0 0 1 15.422-6.08c4.77-1.348 9.015-2.028 12.523-2.44.888-.094 1.706-.187 2.497-.267.79-.04 1.525-.08 2.205-.12 1.373-.08 2.524-.134 3.48-.12h2.885v4s-.957.054-2.746.147c-.887.026-1.997.133-3.286.28a58.067 58.067 0 0 0-4.438.56c-3.287.506-7.281 1.306-11.692 2.746-4.41 1.413-9.25 3.413-14.256 6.134-4.98 2.72-10.041 6.306-14.854 10.68-2.385 2.214-4.743 4.573-6.906 7.2a75.655 75.655 0 0 0-6.213 8.36c-3.856 5.932-6.976 12.627-9.098 19.72-1.082 3.56-1.817 7.226-2.385 10.933-.541 3.774-.75 7.28-.79 11.333l.068 2.734c0 .947.07 1.88.14 2.826.096 1.88.346 3.734.582 5.6.568 3.707 1.303 7.374 2.385 10.92 2.122 7.107 5.242 13.8 9.098 19.734a74.216 74.216 0 0 0 6.213 8.347c2.163 2.626 4.521 5 6.906 7.213 4.813 4.36 9.875 7.947 14.854 10.68 5.006 2.72 9.846 4.72 14.256 6.133 4.41 1.441 8.405 2.24 11.692 2.748.832.119 1.622.24 2.357.346.735.08 1.415.146 2.053.214 1.262.145 2.358.252 3.287.28 1.844.093 2.829.133 2.829.133l-.111 4" fill="#231F20"/>
        <path d="M83.506 3.986H3.5c0 44.187 35.822 80.002 80.006 80.002V3.986" fill="#FFF"/>
        <path d="M86.83 3.989v80.08c0 1.8-1.457 3.254-3.249 3.254h-.083l-4.097-.161-4.07-.36c-1.347-.146-2.68-.373-4.028-.547-1.347-.199-2.68-.48-4.013-.72-1.347-.266-2.653-.626-3.986-.933-1.32-.32-2.625-.746-3.93-1.12-1.292-.387-2.57-.866-3.862-1.292-1.278-.44-2.527-.988-3.805-1.48-1.25-.508-2.472-1.108-3.722-1.653-1.223-.574-2.403-1.24-3.625-1.855-1.195-.64-2.361-1.345-3.542-2.012-1.166-.707-2.291-1.454-3.444-2.174-1.111-.76-2.222-1.56-3.333-2.347l-3.209-2.493-3.097-2.654-2.958-2.8-2.82-2.946-2.666-3.08-2.528-3.214c-.791-1.107-1.583-2.2-2.36-3.32-.723-1.146-1.473-2.28-2.181-3.44-.667-1.173-1.39-2.347-2.028-3.546-.611-1.213-1.264-2.4-1.847-3.627-.556-1.254-1.153-2.466-1.667-3.733a87.599 87.599 0 0 1-2.764-7.68c-.36-1.307-.777-2.6-1.11-3.92-.292-1.333-.654-2.652-.917-3.986-.25-1.333-.528-2.666-.723-4.014-.18-1.36-.388-2.706-.541-4.054L.29 8.083l-.125-4.08v-.014C.125 2.203 1.556.709 3.333.656h80.165a3.34 3.34 0 0 1 3.333 3.333zm-6.666 3.333H3.5L6.833 3.99v.014l.07 3.76.235 3.76c.125 1.253.292 2.494.445 3.746.153 1.24.389 2.48.597 3.721.222 1.226.528 2.453.792 3.68.291 1.227.653 2.425.986 3.64a86.79 86.79 0 0 0 2.528 7.106c.472 1.16 1.013 2.293 1.513 3.453.528 1.133 1.125 2.24 1.68 3.373.598 1.107 1.25 2.188 1.862 3.28.653 1.08 1.347 2.134 2.014 3.2.708 1.04 1.444 2.053 2.166 3.094l2.306 2.973 2.472 2.867 2.583 2.747 2.736 2.612 2.848 2.48 2.972 2.334c1.027.72 2.041 1.48 3.083 2.188 1.07.666 2.111 1.386 3.194 2.026 1.098.612 2.18 1.267 3.292 1.853 1.125.56 2.236 1.16 3.389 1.693 1.139.507 2.277 1.054 3.444 1.52a78.54 78.54 0 0 0 7.125 2.52c1.208.32 2.416.694 3.639.973 1.222.255 2.458.56 3.694.788 1.236.198 2.472.439 3.722.612 1.25.134 2.486.293 3.75.4l3.75.227 3.778.028-3.334 3.333V7.322z" fill="#231F20"/>
        <path d="M83.506 163.987H3.5c0-44.174 35.822-80 80.006-80v80" fill="#FFF"/>
        <path d="M80.164 160.656V83.99l3.334 3.333-3.778.039-3.75.226c-1.264.107-2.5.268-3.75.402-1.25.172-2.486.412-3.722.612-1.236.214-2.472.533-3.694.788-1.223.279-2.43.652-3.64.972a78.976 78.976 0 0 0-7.124 2.52c-1.167.467-2.305 1.014-3.444 1.52-1.153.52-2.264 1.133-3.39 1.693-1.11.587-2.193 1.24-3.29 1.854-1.084.64-2.126 1.36-3.195 2.026-1.042.707-2.056 1.467-3.083 2.187l-2.972 2.333-2.848 2.48-2.736 2.614-2.583 2.733-2.472 2.867-2.306 2.986c-.722 1.04-1.458 2.054-2.166 3.094-.667 1.067-1.361 2.107-2.014 3.2-.611 1.093-1.264 2.174-1.861 3.28-.556 1.133-1.153 2.227-1.68 3.373-.5 1.147-1.042 2.28-1.514 3.454a84.982 84.982 0 0 0-2.528 7.107c-.333 1.212-.695 2.412-.986 3.64-.264 1.226-.57 2.439-.792 3.679-.208 1.24-.444 2.467-.597 3.72-.153 1.24-.32 2.494-.445 3.734l-.236 3.76-.07 3.773-3.332-3.333h76.664zm3.334 6.666H3.416a3.243 3.243 0 0 1-3.25-3.254v-.079l.125-4.093.334-4.068c.153-1.36.36-2.705.541-4.052.195-1.348.473-2.681.723-4.014.263-1.346.625-2.653.916-3.986.334-1.32.75-2.614 1.111-3.934.806-2.6 1.723-5.16 2.764-7.666.514-1.267 1.111-2.494 1.667-3.733.583-1.228 1.236-2.428 1.847-3.64.639-1.2 1.361-2.36 2.028-3.534.708-1.173 1.458-2.294 2.18-3.44.778-1.133 1.57-2.226 2.361-3.333l2.528-3.2 2.667-3.08 2.819-2.948 2.958-2.8 3.097-2.652 3.209-2.507c1.11-.774 2.222-1.574 3.333-2.333 1.153-.721 2.278-1.467 3.444-2.174 1.18-.68 2.347-1.386 3.542-2.026 1.222-.614 2.402-1.267 3.625-1.84 1.25-.546 2.472-1.146 3.722-1.667 1.278-.48 2.527-1.027 3.805-1.48 1.292-.427 2.57-.892 3.861-1.294 1.306-.372 2.611-.786 3.93-1.12 1.334-.306 2.64-.652 3.987-.919 1.333-.24 2.666-.52 4.013-.72 1.348-.186 2.681-.4 4.028-.56l4.07-.36 4.097-.16a3.256 3.256 0 0 1 3.333 3.173v80.161a3.34 3.34 0 0 1-3.333 3.332z" fill="#231F20"/>
    </g>
</svg>
