<svg width="168" height="167" xmlns="http://www.w3.org/2000/svg">
    <title>
        tawa
    </title>
    <g fill="none">
        <path d="M164.22 100.055c0 34.76-35.893 62.933-80.161 62.933-44.285 0-80.178-28.173-80.178-62.933 0-34.773 35.893-62.946 80.178-62.946 44.268 0 80.162 28.173 80.162 62.946" fill="#FFF"/>
        <path d="M161.212 100.056s0-.428-.015-1.228c-.03-.8-.046-1.986-.216-3.533-.31-3.08-1.05-7.626-3.181-13.067-2.178-5.386-5.76-11.68-11.413-17.667-5.621-5.985-13.22-11.72-22.485-16.067-9.25-4.36-20.153-7.4-31.905-8.385-1.467-.08-2.904-.2-4.417-.253-.757-.028-1.529-.04-2.301-.054l-1.158-.027-1.081.027c-1.53.04-3.043.04-4.587.16l-2.286.147-2.3.225c-6.162.641-12.401 1.881-18.517 3.827-12.215 3.815-24.137 10.441-33.326 20.093-4.571 4.828-8.447 10.36-11.073 16.469-1.328 3.039-2.378 6.198-3.026 9.452-.217.814-.31 1.626-.433 2.453a19.006 19.006 0 0 0-.324 2.427c-.062.826-.185 1.532-.2 2.453l-.078 2.64.093 2.386c.015.828.139 1.654.216 2.468.046.826.185 1.653.324 2.466.139.814.263 1.64.463 2.44.68 3.24 1.745 6.4 3.089 9.427 2.656 6.066 6.563 11.56 11.119 16.332 9.22 9.561 21.126 16.081 33.31 19.802 6.085 1.893 12.293 3.093 18.424 3.692l2.286.213 2.24.134c1.466.107 3.057.107 4.617.133 1.436.04 2.98-.04 4.463-.04 1.467-.04 2.934-.159 4.4-.227 11.707-.906 22.548-3.865 31.783-8.158 9.266-4.267 16.848-9.921 22.485-15.854 5.683-5.921 9.281-12.174 11.505-17.534 2.146-5.387 2.919-9.986 3.227-12.986.078-.76.186-1.373.186-2.014.03-.627.046-1.16.062-1.586.03-.854.03-1.294.03-1.294v.108zm6.008.092l-.047 1.293c0 .428-.015.96-.03 1.588-.016.613-.124 1.453-.186 2.345-.37 3.548-1.204 8.627-3.598 14.735-2.425 6.025-6.424 13-12.602 19.546-6.161 6.56-14.377 12.72-24.307 17.386-9.93 4.667-21.512 7.894-33.99 8.933-3.135.214-6.255.387-9.513.334-1.56-.054-3.104-.054-4.787-.187-.819-.04-1.637-.093-2.471-.147a139.61 139.61 0 0 1-2.44-.253 97.965 97.965 0 0 1-19.675-4.054c-13.018-4.08-25.82-11.133-35.89-21.679-4.988-5.266-9.28-11.373-12.23-18.2a54.016 54.016 0 0 1-3.398-10.613c-.216-.907-.355-1.84-.51-2.76-.154-.92-.293-1.84-.355-2.774-.061-.932-.216-1.853-.231-2.785l-.077-2.908.092-2.64c.016-.854.17-1.88.247-2.813.077-.973.232-1.894.386-2.814.14-.919.278-1.84.51-2.746.772-3.654 1.961-7.2 3.46-10.574 2.98-6.8 7.288-12.853 12.276-18.093 10.1-10.44 22.887-17.386 35.86-21.373 13.018-4.066 26.314-5.013 38.7-4.146 12.4.96 23.952 4.092 33.85 8.692 9.915 4.575 18.131 10.68 24.308 17.16 6.208 6.493 10.239 13.427 12.694 19.44 2.425 6.054 3.29 11.174 3.645 14.654a35.55 35.55 0 0 1 .262 3.986l.047 1.375v.092z" fill="#231F20"/>
        <path d="M120.23 35.614c2.467-14.372-5.245-29.225-18.896-31.625-18.787-3.32-36.896 8.226-49.96 31.786-9.625 17.373-6.725 64-6.725 64S61.045 81.708 87.59 85.549c21.471 3.106 28.212 12.44 49.683 11.12 15.98-1 26.947-11.12 26.947-26.894 0-12.893-9.888-22-22.104-22 0 0-22.921-6.093-21.888-12.16" fill="#FFF"/>
        <path d="M123.123 36.105c.03-.133-.046-.24 0-.12.03.107.185.347.417.6.448.52 1.174 1.094 1.962 1.627 1.575 1.067 3.444 1.986 5.344 2.826a78.36 78.36 0 0 0 5.9 2.28c1.005.348 2.024.667 3.028.987 1.02.308 2.055.613 3.043.893l-.695-.093c4.063-.066 8.156.84 11.878 2.654 3.723 1.813 7.029 4.6 9.376 8.094 2.395 3.466 3.738 7.586 4.078 11.786.31 4.067-.185 8.093-1.436 12.04-1.267 3.906-3.476 7.56-6.38 10.479-2.888 2.947-6.44 5.134-10.148 6.614-3.707 1.494-7.646 2.24-11.508 2.507-3.846.2-7.615.227-11.46-.253a61.23 61.23 0 0 1-11.168-2.467c-3.615-1.146-7.044-2.493-10.427-3.707-3.398-1.213-6.765-2.333-10.194-3.173-3.321-.8-7.013-1.508-10.38-1.854a46.937 46.937 0 0 0-20.513 2.507c-3.275 1.16-6.441 2.707-9.438 4.506-2.966 1.787-5.9 3.96-8.264 6.28-.695.827-1.93.934-2.78.24a2.076 2.076 0 0 1-.695-1.333v-.133c-.31-3.573-.572-7.093-.695-10.653a203.712 203.712 0 0 1-.201-10.64c.015-7.12.309-14.24 1.112-21.387.402-3.573.942-7.147 1.7-10.72a62.025 62.025 0 0 1 1.39-5.36c.246-.894.602-1.773.895-2.667.355-.88.772-1.92 1.159-2.72 1.668-3.36 3.506-6.386 5.545-9.453a73.78 73.78 0 0 1 6.735-8.667c4.88-5.48 10.766-10.332 17.64-13.587 3.444-1.613 7.12-2.787 10.92-3.412a39.426 39.426 0 0 1 11.554-.16l1.313.199c.602.108 1.02.214 1.544.32.989.24 1.962.548 2.935.894 1.9.72 3.707 1.693 5.36 2.853a26.626 26.626 0 0 1 7.955 8.853c1.93 3.44 3.151 7.2 3.707 11.014.525 3.8.433 7.786-.355 11.413l.247.093zm-5.298-3.746a28.416 28.416 0 0 0-.51-6.773c-.571-3.134-1.699-6.148-3.305-8.8-1.622-2.64-3.692-4.988-6.163-6.667a18.056 18.056 0 0 0-3.955-2.028 16.868 16.868 0 0 0-2.131-.625l-1.035-.214-1.313-.2c-3.074-.427-6.364-.427-9.5.068a35.396 35.396 0 0 0-9.221 2.825c-5.9 2.734-11.168 6.96-15.678 11.934-2.27 2.479-4.34 5.16-6.287 7.947-1.93 2.772-3.8 5.746-5.314 8.665-.401.788-.633 1.387-.957 2.135-.263.772-.603 1.52-.819 2.32a59.935 59.935 0 0 0-1.375 4.84c-.772 3.292-1.359 6.692-1.822 10.106-.896 6.853-1.344 13.814-1.591 20.8-.108 3.48-.201 6.974-.232 10.48 0 3.493-.046 7.013.046 10.467l-3.49-1.214c1.405-1.52 2.764-2.747 4.263-3.973a53.847 53.847 0 0 1 4.587-3.386 53.796 53.796 0 0 1 10.18-5.187C69.338 83.12 77.138 82 84.8 82.584c.957.055 1.915.187 2.873.282 1.05.146 1.838.305 2.78.454 1.76.252 3.722.732 5.56 1.132 3.677.88 7.26 2.067 10.736 3.347 3.475 1.267 6.843 2.626 10.194 3.706 3.368 1.08 6.735 1.907 10.195 2.307 3.43.4 6.982.346 10.426.16 3.445-.28 6.735-1.066 9.778-2.373 3.027-1.333 5.73-3.253 7.862-5.627 2.163-2.36 3.646-5.227 4.603-8.267.942-3.04 1.22-6.4 1.035-9.614-.185-3.092-1.158-6.158-2.765-8.812-1.59-2.666-3.923-4.893-6.703-6.454-2.765-1.546-5.994-2.32-9.253-2.386h-.062c-.2-.014-.417-.04-.618-.094a173.402 173.402 0 0 1-3.243-.933 124.175 124.175 0 0 1-3.167-1.026c-2.116-.721-4.232-1.467-6.317-2.334-2.101-.88-4.17-1.84-6.272-3.12-1.035-.653-2.085-1.387-3.12-2.453-.51-.547-1.02-1.174-1.452-2.067-.432-.852-.71-2.08-.51-3.293l.464-2.76z" fill="#231F20"/>
        <path d="M44.65 99.775s-1.417-33.919 30.725-47.12c30.326-12.439 30.264-22.306 46.32-30.212 12.623-6.227 24.676-.667 29.063 5.332 8.42 11.547 6.312 36.88-30.757 39.56-38.222 2.747-59.358-.014-75.352 32.44" fill="#FFF"/>
        <path d="M42.849 98.882s.538-1.054 1.538-3.04c1.093-1.96 2.632-4.853 5.094-8.28 2.477-3.4 5.862-7.4 10.71-10.933 4.847-3.535 11.156-6.294 18.203-7.84 7.032-1.6 14.68-2.294 22.681-2.88 3.986-.28 8.079-.575 12.264-.867 2.078-.16 4.186-.32 6.325-.48 1.015-.106 2.046-.214 3.092-.32 1.016-.12 2.047-.306 3.078-.452 4.124-.668 8.17-1.829 11.925-3.549 3.77-1.719 7.156-4.16 9.633-7.28a19.066 19.066 0 0 0 4.14-10.905c.107-1.988-.062-4-.555-5.933-.261-.96-.538-1.907-.938-2.815-.37-.918-.862-1.786-1.262-2.519l-.462-.72-.246-.36c0 .014-.123-.16 0 .014l-.046-.068-.092-.132c-.262-.362-.57-.694-.893-1.04a14.974 14.974 0 0 0-2.17-1.867c-1.584-1.148-3.416-2.054-5.308-2.694-3.816-1.267-7.986-1.4-11.895-.44-.954.24-1.954.56-2.847.908l-.661.266-.785.346-.385.186-.292.148-.723.372c-.939.48-1.893.974-2.77 1.547a27.65 27.65 0 0 0-2.647 1.72c-3.477 2.387-6.601 5.4-9.97 8.294-6.71 5.933-14.265 10.573-21.667 14.013-.923.427-1.846.867-2.77 1.293-.923.426-1.815.774-2.708 1.16a928.32 928.32 0 0 0-5.2 2.227c-3.278 1.466-6.263 3.227-8.895 5.2-5.324 3.946-9.217 8.747-11.91 13.427-2.692 4.693-4.231 9.24-5.185 13.027a52.695 52.695 0 0 0-1.477 8.96c-.093 1.039-.108 1.826-.124 2.359v.774l-3.8-.827zm-.2.96s0-.32-.016-.933c0-.6.016-1.48.077-2.615a61.36 61.36 0 0 1 1.4-9.679c.97-4.093 2.54-9.04 5.386-14.24 2.847-5.186 7.063-10.6 12.88-15.093 2.892-2.254 6.17-4.253 9.725-5.947a304.28 304.28 0 0 1 5.277-2.36c.878-.4 1.8-.773 2.663-1.2.877-.413 1.738-.84 2.6-1.266 7.032-3.414 13.895-7.787 20.173-13.52 3.185-2.828 6.401-6.054 10.28-8.84.968-.693 1.938-1.387 2.984-2 1-.654 2.047-1.228 3.109-1.8l.784-.428.462-.238.385-.188.769-.36.908-.387c1.216-.506 2.4-.906 3.647-1.226 4.955-1.332 10.386-1.266 15.372.32a26.258 26.258 0 0 1 7.124 3.44 21.772 21.772 0 0 1 3.124 2.614c.477.506.97 1.026 1.4 1.598l.17.214.092.108.123.186.246.36.508.733c.785 1.266 1.4 2.44 1.893 3.694.508 1.227.877 2.505 1.2 3.8.6 2.586.785 5.239.6 7.88-.37 5.279-2.462 10.414-5.77 14.387-3.293 4.013-7.586 6.866-11.987 8.8-4.447 1.933-9.002 3.12-13.495 3.773-1.139.134-2.262.306-3.37.412l-3.324.28c-2.154.12-4.262.24-6.37.36-4.186.2-8.279.415-12.28.615-7.924.44-15.372 1-21.973 2.386-6.617 1.347-12.28 3.72-16.65 6.8-4.385 3.067-7.54 6.654-9.894 9.773-2.339 3.146-3.862 5.88-4.908 7.707-1 1.893-1.524 2.893-1.524 2.893l-.046.08a1.988 1.988 0 0 1-2.693.826 1.996 1.996 0 0 1-1.061-1.72z" fill="#231F20"/>
    </g>
</svg>
