<svg width="167" height="168" xmlns="http://www.w3.org/2000/svg">
    <title>
        telo
    </title>
    <g fill="none">
        <path d="M156.77 37.653c0 17.774-14.4 32.174-32.166 32.174-17.765 0-32.167-14.4-32.167-32.174 0-17.76 14.402-32.16 32.167-32.16s32.167 14.4 32.167 32.16" fill="#FFF"/>
        <path d="M162.741 75.16c0 17.76-14.401 32.16-32.166 32.16-17.766 0-32.167-14.4-32.167-32.16 0-17.76 14.4-32.173 32.167-32.173 17.765 0 32.166 14.413 32.166 32.173" fill="#FFF"/>
        <path d="M152.63 98.987c12.334 8.666 11 21.333 11 32 0 13.666-13 32.84-39.999 32.84-38.666 0-40.37-13.84-75.333-13.84-19.963 0-31 4.666-44.667 13.666V60.987c0-25.027 24.396-45.334 53.667-45.334 14.875 0 29.888 8.374 37.944 13.694 8.056 5.306 11.39 7.306 21.222 7.306 9.167 0 12.502-4.4 12.502-9.826 0-5.427-5.001-9.84-11.168-9.84-7.167 0-15.167 7-15.167 16.666" fill="#FFF"/>
        <path d="M154.215 96.853c4.016 2.587 7.76 6.56 9.781 11.267 2.11 4.68 2.75 9.707 2.887 14.4.078 2.36.056 4.667.056 6.907l.001 1.76c-.017.6.001 1.066-.064 1.813-.09 1.413-.301 2.587-.552 3.853-1.072 4.974-3.287 9.56-6.233 13.56-2.954 4-6.684 7.4-10.874 10.014-4.182 2.653-8.825 4.48-13.576 5.586-2.376.56-4.788.894-7.196 1.12-1.206.094-2.412.187-3.616.2l-.904.014-.483.013h-.424l-1.7-.013c-4.628-.054-9.324-.347-13.966-.934-4.651-.613-9.301-1.533-13.82-2.84-4.525-1.266-8.883-2.906-13.086-4.44-4.214-1.52-8.344-2.88-12.582-3.813-4.228-.947-8.552-1.507-12.929-1.787-2.188-.146-4.39-.213-6.598-.253l-3.347.013-3.253.107c-4.369.187-8.696.707-12.912 1.64-4.22.92-8.344 2.28-12.319 4.107-4.014 1.76-7.89 3.933-11.775 6.186a1.995 1.995 0 0 1-3.1-1.626v-.054c-.22-12.653-.507-25.306-.646-37.96-.178-12.653-.342-25.306-.434-37.96l-.17-18.986L.34 64l-.021-2.373-.005-.587.013-.693.026-1.187c.14-3.48.72-6.92 1.695-10.2 1.944-6.6 5.524-12.627 10.058-17.653 4.542-5.04 10.026-9.147 15.994-12.214 5.99-3.04 12.457-5.053 19.055-6.066 3.3-.494 6.636-.76 9.97-.76 3.25.013 6.875.426 10.1 1.106 6.596 1.334 12.76 3.827 18.593 6.774A106.184 106.184 0 0 1 94.316 25c2.794 1.76 5.33 3.573 7.894 5.107 2.561 1.533 5 2.613 7.769 3.106 1.382.267 2.824.427 4.32.494.368.026.745.04 1.123.04l1.045.026c.778-.013 1.644 0 2.213-.08 1.279-.106 2.648-.373 3.738-.826 1.113-.454 1.993-1.107 2.631-1.92.656-.8 1.026-1.867 1.192-3.067.06-.293.051-.613.078-.92l.008-.12c.002-.053.008.24.004.08l-.003-.067-.013-.293-.025-.6c-.065-.213-.054-.4-.13-.667-.08-.266-.127-.546-.25-.8-.776-2.133-2.828-3.88-5.231-4.64a9.798 9.798 0 0 0-3.79-.44c-1.212.094-2.537.454-3.745 1.014-2.447 1.12-4.611 3.04-6.113 5.36a14.946 14.946 0 0 0-2.4 7.866v.014a1.993 1.993 0 0 1-2.037 1.96 1.996 1.996 0 0 1-1.963-1.974c-.05-3.52.906-7.093 2.758-10.133 1.843-3.04 4.512-5.587 7.764-7.227 1.636-.813 3.386-1.386 5.324-1.6 1.863-.2 3.767-.026 5.594.48 3.627 1.027 7.048 3.574 8.632 7.387.217.453.35.947.5 1.44.148.493.23 1.107.321 1.653l.044.6.021.294.006.08.006.226-.004.174c-.017.48-.005.96-.073 1.453-.195 1.92-.819 3.987-2.099 5.707-1.249 1.733-3.009 3.013-4.8 3.8-1.822.786-3.592 1.16-5.453 1.373-1.002.133-1.72.133-2.523.173h-1.328c-.413 0-.826 0-1.248-.013a35.76 35.76 0 0 1-5.117-.453c-3.492-.507-6.98-1.934-9.853-3.627-2.903-1.667-5.54-3.493-8.125-5.067a96.39 96.39 0 0 0-8.06-4.413c-5.493-2.667-11.21-4.853-17.037-6.013-2.973-.574-5.66-.88-8.74-.894a57.242 57.242 0 0 0-8.933.747c-5.9.933-11.653 2.773-16.933 5.493C25.988 28 21.146 31.56 17.188 35.907c-3.957 4.333-7.026 9.453-8.696 14.986a35.237 35.237 0 0 0-1.476 8.467l-.046 1.187-.02.493-.005.587L6.923 64l-.042 4.747-.17 18.986c-.092 12.654-.256 25.307-.434 37.96-.138 12.654-.425 25.307-.646 37.96l-3.1-1.666c3.686-2.734 7.582-5.254 11.709-7.48 4.143-2.2 8.593-3.947 13.164-5.214 4.58-1.266 9.273-1.96 13.948-2.306l3.538-.2 3.45-.08c2.323-.014 4.652.013 6.987.146 4.666.254 9.366.787 13.992 1.787 4.63.96 9.146 2.4 13.463 3.92 4.33 1.507 8.476 3.04 12.678 4.227 4.196 1.186 8.459 2.026 12.793 2.586 4.35.56 8.716.787 13.147.88l1.699.027h.791l.795-.013c1.063 0 2.118-.067 3.172-.147 2.1-.187 4.192-.453 6.228-.92 4.076-.92 7.992-2.44 11.492-4.613 3.507-2.16 6.612-4.947 9.067-8.227 2.45-3.267 4.275-7.027 5.14-10.92.196-.933.383-2 .44-2.853.061-.387.064-1.04.092-1.587l.025-1.627c.04-2.293.098-4.52.063-6.693-.085-4.333-.51-8.493-1.997-12.173-1.488-3.694-3.96-6.774-7.359-9.374a2.662 2.662 0 0 1 3.052-4.36l.115.08" fill="#231F20"/>
        <path d="M155.196 49.12c.855.747 1.936 1.84 2.76 2.827a31.366 31.366 0 0 1 2.39 3.213c1.455 2.24 2.607 4.653 3.505 7.147 1.829 4.986 2.432 10.36 2.072 15.653a34.405 34.405 0 0 1-1.471 7.84c-.092.32-.196.64-.307.96-.124.347-.18.56-.36 1.013-.242.587-.409 1.08-.713 1.747-.597 1.333-1.205 2.52-1.921 3.667-2.854 4.626-6.871 8.333-11.286 11.12-4.434 2.773-9.246 4.746-14.19 6.053-4.959 1.253-10.039 2.027-15.189 1.947a31.14 31.14 0 0 1-1.93-.054l-.483-.013-.5-.04-.909-.067a99.001 99.001 0 0 1-3.717-.32c-2.517-.24-4.986-.586-7.442-1-4.926-.826-9.626-1.933-14.287-2.613-4.663-.693-9.343-1.04-14.084-1.173l-.888-.027-.378-.013-.455.013c-.622-.013-1.22 0-1.733.027-.53.026-1.082.053-1.66.106-.568.04-1.138.08-1.71.147a63.785 63.785 0 0 0-6.85 1.12 75.864 75.864 0 0 0-13.333 4.2 77.487 77.487 0 0 0-12.368 6.573c-3.893 2.574-7.586 5.48-10.944 8.734a73.026 73.026 0 0 0-9.101 10.693c-2.678 3.867-5.077 7.947-7.042 12.253-1.98 4.294-3.612 8.774-4.992 13.334v.013a1.996 1.996 0 0 1-2.445 1.413 1.998 1.998 0 0 1-1.48-2.133l.004-.04a448.07 448.07 0 0 1 2.622-20.773 272.212 272.212 0 0 1 3.859-20.64c1.56-6.854 3.399-13.654 5.73-20.36 2.363-6.68 5.242-13.254 9.017-19.427 3.758-6.16 8.488-11.933 14.35-16.48 5.85-4.547 12.695-7.827 19.777-9.613 1.77-.44 3.545-.854 5.331-1.16l1.435-.254 1.29-.173 2.583-.347c3.743-.346 7.408-.426 11.053-.106 3.646.306 7.255.92 10.761 1.786 3.5.88 6.89 1.987 10.2 3.147 3.308 1.16 6.562 2.293 9.8 3.293 1.62.48 3.24.947 4.862 1.334l.608.16.582.12c.413.08.877.186 1.24.24.755.146 1.55.253 2.36.346 6.424.64 13.093-.386 18.745-3.32 5.676-2.88 10.197-7.626 12.608-13.36.15-.36.321-.706.445-1.08l.379-1.026c.259-.827.543-1.694.69-2.36.357-1.454.655-3.04.769-4.574.254-3.106.073-6.24-.656-9.266-1.392-6.08-4.85-11.614-9.571-15.64-4.699-4.04-10.797-6.48-17-6.867-6.214-.453-12.56 1.24-17.85 4.613-5.292 3.387-9.487 8.494-11.786 14.454l-.01.026a2.667 2.667 0 0 1-3.448 1.534 2.676 2.676 0 0 1-1.57-3.334c1.184-3.56 2.909-6.973 5.182-10.013 2.265-3.04 5.07-5.667 8.193-7.84 6.284-4.293 14.008-6.507 21.674-6.107C133.67.8 141.164 3.707 147.05 8.68c5.903 4.947 10.038 11.88 11.712 19.36.847 3.733 1.096 7.613.675 11.413-.196 1.934-.57 3.76-1.09 5.667-.27 1.013-.553 1.8-.829 2.613-.401 1.054-.7 1.84-1.129 2.734-3.192 7.013-9.104 12.653-15.921 15.84-6.839 3.186-14.43 4.333-21.804 3.546-7.487-.826-14.077-3.4-20.672-5.426-3.283-1.027-6.533-1.974-9.793-2.694a64.865 64.865 0 0 0-9.813-1.333c-3.287-.213-6.58.053-9.75.307l-2.579.36-1.29.186-1.124.214c-1.637.293-3.24.693-4.838 1.093-6.35 1.707-12.348 4.387-17.517 8.333-5.178 3.907-9.484 8.987-13.02 14.627-3.57 5.627-6.312 11.827-8.76 18.16-2.39 6.373-4.339 12.947-6.024 19.6-1.667 6.667-3.106 13.413-4.377 20.187-1.262 6.786-2.343 13.626-3.378 20.466l-3.92-.746.001-.014c2.314-9.626 5.999-19.093 11.545-27.506a78.145 78.145 0 0 1 9.447-11.787c3.53-3.613 7.396-6.907 11.58-9.76a85.013 85.013 0 0 1 13.264-7.307 83.373 83.373 0 0 1 14.39-4.786c2.47-.587 4.984-1.014 7.532-1.334a40.26 40.26 0 0 1 3.902-.32c.7-.04 1.32-.053 1.914-.04l.457-.013.534.013.936.027c4.981.133 10.023.587 14.956 1.507 4.947.893 9.692 2.173 14.33 3.133a98.46 98.46 0 0 0 6.98 1.2l1.732.227 1.814.173.908.08.41.04.428.027c.57.04 1.141.066 1.715.08 4.58.093 9.245-.4 13.677-1.68a47.44 47.44 0 0 0 6.478-2.334 38.37 38.37 0 0 0 5.904-3.386c3.704-2.56 6.825-5.814 8.956-9.56.556-.92 1.032-1.92 1.421-2.814.208-.453.427-1.106.64-1.653l.23-.693c.089-.267.17-.52.24-.787.609-2.107.982-4.293 1.19-6.493.412-4.4-.165-8.88-1.432-13.12-1.336-4.24-3.441-8.134-6.488-11.44a2.673 2.673 0 0 1 .157-3.774 2.671 2.671 0 0 1 3.55-.053l.089.08" fill="#231F20"/>
    </g>
</svg>
