<svg width="168" height="168" xmlns="http://www.w3.org/2000/svg">
    <title>
        tenpo
    </title>
    <g fill="none" fill-rule="evenodd">
        <path d="M164.007 123.827c0 22.093-17.908 40-40 40h-80c-22.092 0-40-17.907-40-40v-80c0-22.094 17.908-40 40-40h80c22.092 0 40 17.906 40 40v80" fill="#FFF" fill-rule="nonzero"/>
        <path d="M164.007 123.827c0 22.093-17.908 40-40 40h-80c-22.092 0-40-17.907-40-40v-80c0-22.094 17.908-40 40-40h80c22.092 0 40 17.906 40 40v80z" stroke="#231F20" stroke-width="6.667"/>
        <path d="M4.007 61.987s1.452-.04 3.994-.12c2.542-.054 6.174-.187 10.531-.254h.945c.279 0 .559.014.842.027.582.027 1.093 0 1.828.12 1.414.147 2.741.453 4.085.84 2.687.827 5.379 2.227 7.708 4.24 2.337 2 4.339 4.56 5.727 7.48.713 1.453 1.22 3.027 1.602 4.613.199.8.282 1.614.419 2.427.056.413.059.827.088 1.227l.033.626.015.307.008.147.004.08.003.04-.003.173c-.047.733-.064 1.427-.137 2.2-.135.853-.23 1.76-.43 2.56-.382 1.587-.889 3.147-1.602 4.6a22.687 22.687 0 0 1-5.727 7.493c-2.33 2-5.021 3.414-7.708 4.227-1.35.4-2.685.693-3.997.84-.651.12-1.302.107-1.935.133-.316.014-.63.027-.941.027-.279 0-.555 0-.827-.013-4.357-.054-7.99-.187-10.53-.24-2.543-.08-3.995-.134-3.995-.134v-4s1.452-.04 3.994-.12c2.542-.053 6.174-.186 10.531-.253.27 0 .545 0 .823-.013.244-.014.49-.027.74-.054.497-.04 1.008-.04 1.513-.146 1.023-.147 2.053-.414 3.09-.747 2.065-.707 4.09-1.867 5.88-3.427a17.248 17.248 0 0 0 4.34-5.786c.54-1.12.905-2.32 1.189-3.534.148-.613.178-1.16.292-1.733.058-.667.073-1.44.112-2.147-.008.254-.004.054-.006.107l-.001-.04-.004-.053-.005-.12-.012-.24-.022-.467c-.02-.307-.012-.627-.052-.947-.109-.613-.153-1.24-.302-1.853-.284-1.213-.65-2.413-1.19-3.533a17.434 17.434 0 0 0-4.34-5.8c-1.789-1.547-3.814-2.72-5.88-3.414a17.836 17.836 0 0 0-3.001-.733c-.421-.12-1.07-.12-1.62-.173a17.31 17.31 0 0 1-.84-.054c-.237 0-.472 0-.704-.013-4.357-.053-7.99-.187-10.53-.24-2.543-.08-3.995-.133-3.995-.133v-4M105.84 3.827l.13 3.986c.053 2.547.185 6.174.245 10.534.002.32.005.626.009.946l-.03.84c-.03.587-.006 1.094-.123 1.827-.148 1.413-.45 2.747-.842 4.093a21.545 21.545 0 0 1-4.24 7.707 22.658 22.658 0 0 1-7.481 5.72 22.35 22.35 0 0 1-9.501 2.173l-1.223-.053c-.375-.04-.696-.027-1.115-.08-.85-.133-1.752-.227-2.552-.427-1.594-.386-3.157-.893-4.612-1.613a22.658 22.658 0 0 1-7.481-5.72 21.545 21.545 0 0 1-4.24-7.707c-.395-1.346-.69-2.693-.832-4-.115-.653-.103-1.306-.133-1.933l-.032-.947.012-.826c.06-4.36.192-7.987.245-10.534l.13-3.986h4s.046 1.453.129 3.986c.053 2.547.185 6.174.245 10.534.004.28.01.546.013.826.019.24.036.494.054.734.044.506.038 1.013.153 1.52.14 1.026.408 2.053.744 3.093.704 2.067 1.867 4.08 3.42 5.88a17.418 17.418 0 0 0 5.796 4.333c1.117.547 2.317.907 3.536 1.187.604.147 1.155.187 1.733.293.3.04.707.04 1.056.067l.954.04a17.21 17.21 0 0 0 7.278-1.587 17.405 17.405 0 0 0 5.796-4.333c1.554-1.8 2.716-3.813 3.42-5.88.339-1.053.602-2.08.735-3.013.112-.414.119-1.067.163-1.614l.056-.84.01-.706c.06-4.36.192-7.987.246-10.534l.129-3.986h4m58.167 101.826s-1.452.054-3.995.134c-2.541.053-6.172.186-10.53.24-.313.013-.627.013-.946.013-.279-.013-.559-.013-.841-.027-.583-.026-1.094-.013-1.828-.12-1.415-.146-2.742-.453-4.086-.853a21.465 21.465 0 0 1-7.708-4.227c-2.337-2-4.338-4.56-5.726-7.493-.714-1.453-1.22-3.013-1.603-4.6-.199-.8-.281-1.627-.419-2.44-.056-.4-.057-.813-.088-1.227l-.032-.613-.016-.307-.008-.16-.004-.066-.002-.04.002-.174c.047-.746.064-1.426.138-2.213.134-.84.229-1.747.429-2.547.383-1.586.89-3.16 1.603-4.613a22.772 22.772 0 0 1 5.726-7.48c2.33-2.013 5.022-3.413 7.708-4.24 1.35-.4 2.686-.693 3.998-.827.65-.12 1.301-.106 1.934-.133l.942-.04c.278.013.554.013.826.013 4.359.067 7.99.2 10.531.254 2.543.08 3.995.12 3.995.12v4s-1.452.053-3.995.133c-2.541.053-6.172.187-10.53.24-.271.013-.546.013-.823.013-.244.027-.491.04-.74.054-.498.053-1.008.04-1.514.16-1.022.133-2.053.413-3.089.746-2.065.694-4.09 1.867-5.88 3.414a17.434 17.434 0 0 0-4.34 5.8c-.539 1.12-.905 2.32-1.19 3.533-.147.6-.178 1.16-.291 1.733-.059.667-.074 1.44-.112 2.147.008-.267.004-.053.005-.107l.001.027.004.067.006.12.012.226.021.48c.02.307.012.627.052.934.11.626.153 1.253.303 1.866.284 1.214.65 2.414 1.189 3.534a17.248 17.248 0 0 0 4.34 5.786c1.79 1.56 3.815 2.72 5.88 3.427 1.041.333 2.081.6 3.001.733.422.107 1.071.12 1.62.16.283.027.563.04.84.054.238.013.472.013.704.013 4.359.067 7.99.2 10.531.253 2.543.08 3.995.12 3.995.12v4M62.173 163.827l-.129-4c-.053-2.534-.185-6.174-.245-10.534l-.01-.946c.011-.267.02-.547.03-.84.03-.574.006-1.094.124-1.827.148-1.413.449-2.733.841-4.08a21.434 21.434 0 0 1 4.24-7.707 22.517 22.517 0 0 1 7.481-5.733c1.455-.707 3.018-1.213 4.612-1.6.796-.2 1.618-.28 2.428-.413.407-.054.819-.067 1.23-.094l.616-.026.308-.027h.23l.039-.013.173.013c.738.04 1.423.053 2.203.133.85.134 1.752.227 2.552.427 1.595.387 3.159.893 4.612 1.6a22.517 22.517 0 0 1 7.481 5.733 21.434 21.434 0 0 1 4.24 7.707c.395 1.347.691 2.68.832 4 .115.653.103 1.293.134 1.933l.032.934-.012.826c-.06 4.36-.192 8-.246 10.534l-.129 4h-4l-.13-4c-.053-2.534-.185-6.174-.245-10.534l-.013-.813c-.017-.253-.036-.493-.053-.747-.044-.493-.039-1-.154-1.506-.14-1.027-.408-2.054-.744-3.094-.704-2.066-1.866-4.093-3.42-5.88a17.44 17.44 0 0 0-5.796-4.346c-1.117-.534-2.317-.894-3.536-1.187-.604-.147-1.154-.173-1.733-.293-.663-.054-1.432-.067-2.144-.107.26.013.055 0 .105 0l-.029.013h-.177l-.236.014-.472.026c-.314.014-.631.014-.942.054-.618.106-1.249.146-1.857.293-1.219.293-2.419.653-3.536 1.187a17.454 17.454 0 0 0-5.796 4.346c-1.553 1.787-2.716 3.814-3.42 5.88-.339 1.04-.601 2.08-.735 3-.112.427-.118 1.067-.162 1.627l-.056.84-.011.693c-.06 4.36-.192 8-.245 10.534l-.13 4h-4" fill="#231F20" fill-rule="nonzero"/>
        <path d="M108.673 83.827c0-13.627-11.044-24.667-24.666-24.667-13.623 0-24.667 11.04-24.667 24.667 0 13.626 11.044 24.666 24.667 24.666 13.622 0 24.666-11.04 24.666-24.666" fill="#FFF" fill-rule="nonzero"/>
        <path d="M108.673 83.827c0-13.627-11.044-24.667-24.666-24.667-13.623 0-24.667 11.04-24.667 24.667 0 13.626 11.044 24.666 24.667 24.666 13.622 0 24.666-11.04 24.666-24.666z" stroke="#231F20" stroke-width="5.333"/>
    </g>
</svg>
