<svg width="171" height="168" xmlns="http://www.w3.org/2000/svg">
    <title>
        toki
    </title>
    <g fill="none">
        <path d="M145.007 78.16c21.666 45.333-17.484 85.667-61.667 85.667s-80-35.814-80-80v-22.32c0-37.68 36.787-57.68 82.167-57.68 51.5 0 82.166 19.253 82.166 43 0 23.746-26.334 52.666-106.666 19" fill="#FFF"/>
        <path d="M147.432 77.053s.277.534.815 1.56c.528 1.04 1.321 2.774 2.204 4.934 1.673 4.373 3.886 11.146 3.99 20.133.179 8.907-2.178 20.04-8.837 30.573-6.565 10.52-17.33 20.214-31.165 26.32a77.002 77.002 0 0 1-22.646 6.107 77.646 77.646 0 0 1-6.14.44l-1.554.027-.864.013-.747-.027c-.996-.026-1.997-.053-3.001-.066-4.256-.24-8.488-.72-12.711-1.56-16.892-3.36-33.685-12.547-46.07-26.747C8.247 124.707.405 105.627.058 85.84c-.092-2.507-.033-4.787-.05-7.2v-17l.025-1 .055-1.8.028-.907.086-.973C.61 51.733 1.705 46.773 3.57 41.933a49.315 49.315 0 0 1 7.687-13.32c6.43-8.04 14.955-14.026 23.995-18.2 9.065-4.2 18.67-6.8 28.278-8.28C73.124.653 82.848.267 92.216.613c9.49.307 18.801 1.307 27.877 3.2 9.051 1.92 17.859 4.707 25.932 8.907 4.028 2.107 7.864 4.573 11.344 7.493 3.454 2.934 6.548 6.347 8.936 10.24 2.346 3.907 3.983 8.294 4.471 12.8.536 4.52.076 8.88-1.07 13.04a34.684 34.684 0 0 1-5.538 11.334c-2.479 3.333-5.501 6.133-8.759 8.346-6.542 4.467-13.858 6.52-20.66 7.52-6.852.96-13.357.84-19.362.307-6.011-.56-11.539-1.587-16.578-2.733a166.459 166.459 0 0 1-13.658-3.76 213.996 213.996 0 0 1-18.52-6.867 226.278 226.278 0 0 1-4.768-2.053c-1.075-.48-1.63-.72-1.63-.72a2.001 2.001 0 0 1-1.024-2.64 1.99 1.99 0 0 1 2.54-1.054h.031s.559.214 1.64.64a250.99 250.99 0 0 0 4.793 1.787c4.215 1.507 10.41 3.707 18.418 5.973 8.005 2.187 17.858 4.614 29.249 5.44 5.677.414 11.747.414 17.93-.56 6.155-.973 12.466-2.986 17.897-6.706 2.705-1.854 5.154-4.147 7.152-6.854a27.887 27.887 0 0 0 4.444-9.186c.916-3.334 1.276-7.014.852-10.467-.376-3.52-1.652-6.947-3.548-10.12-1.943-3.173-4.538-6.053-7.54-8.627-3.034-2.533-6.462-4.746-10.13-6.666-7.353-3.827-15.62-6.48-24.212-8.294-8.601-1.8-17.61-2.76-26.685-3.053-9.192-.347-18.344.04-27.488 1.44-9.112 1.4-18.136 3.867-26.49 7.733-8.34 3.84-15.97 9.28-21.593 16.307-5.692 6.96-8.932 15.76-9.612 24.573l-.08.814-.026.893-.056 1.8-.022.8v17c.016 2.36-.038 4.813.048 7.04.32 18.213 7.524 35.747 18.996 48.68 11.402 13.08 26.851 21.52 42.378 24.613 3.897.774 7.789 1.214 11.56 1.427 1.005.027 2.005.053 3.002.067l.747.026.628-.013 1.419-.027c1.886-.053 3.757-.2 5.604-.386a71.611 71.611 0 0 0 20.689-5.587c12.64-5.573 22.375-14.4 28.216-23.773a51.229 51.229 0 0 0 6.188-14.08 50.89 50.89 0 0 0 1.707-12.92c-.018-7.92-1.664-14.08-2.959-18.174a74.493 74.493 0 0 0-1.657-4.626l-.658-1.64a2.667 2.667 0 0 1 1.491-3.467c1.283-.52 2.732.053 3.36 1.253" fill="#231F20"/>
        <path d="M55.09 54.08c-6.489 6.387-16.935 6.32-23.333-.173-6.398-6.494-6.324-16.934.166-23.334 6.489-6.4 16.936-6.32 23.333.16 6.399 6.494 6.324 16.947-.165 23.347" fill="#FFF"/>
        <path d="M53.479 52.387c.068-.08.292-.307.661-.707.24-.227.487-.533.77-.92.31-.36.605-.813.92-1.347.614-1.04 1.287-2.386 1.655-4.066.382-1.667.53-3.64.175-5.734-.216-1.04-.465-2.133-.955-3.173-.418-1.067-1.106-2.08-1.741-2.973-.157-.24-.441-.52-.659-.774l-.35-.4-.176-.2c-.068-.08.07.067.048.04l-.023-.013-.044-.04-.087-.08c-.473-.413-.917-.867-1.453-1.227-1.008-.8-2.188-1.4-3.413-1.893-1.238-.507-2.574-.773-3.931-.92-1.365-.12-2.756-.027-4.127.213-1.366.28-2.688.774-3.94 1.414-1.29.72-2.172 1.373-3.468 2.586.151-.146.03-.026.058-.053l-.023.027-.044.04-.088.106-.176.2-.355.387c-.25.253-.45.547-.656.827-.444.546-.778 1.173-1.136 1.773-.633 1.24-1.124 2.56-1.398 3.907-.244 1.36-.335 2.733-.22 4.093.154 1.333.421 2.653.908 3.867.48 1.186 1.121 2.413 1.825 3.293.267.44.839 1.013 1.3 1.533l.09.107.045.04.022.027c.026.026-.138-.147-.058-.067l.17.16.339.307c.23.2.433.413.676.6a14.444 14.444 0 0 0 6.03 2.813c2.045.413 3.987.333 5.645.013 1.669-.306 3.03-.92 4.092-1.493.54-.307.996-.573 1.322-.84.178-.12.343-.24.494-.333.153-.107.328-.294.465-.4.427-.387.699-.627.81-.72zm3.164 3.426s-.302.267-.867.774c-.152.133-.275.266-.497.44-.227.16-.475.346-.743.546-.539.427-1.163.814-1.861 1.2-1.412.787-3.231 1.614-5.452 2.04-2.207.44-4.802.56-7.526-.013a19.201 19.201 0 0 1-8.02-3.827c-.317-.24-.594-.52-.896-.786l-.442-.414-.223-.213-.261-.28c-.475-.56-.931-1-1.471-1.8-1.088-1.427-1.799-2.893-2.44-4.52-.615-1.627-.952-3.36-1.116-5.12-.125-1.773.016-3.573.372-5.347.385-1.773 1.048-3.48 1.908-5.093.472-.787.932-1.573 1.513-2.28.275-.373.547-.733.87-1.067l1.013-1.066c1.063-1.014 2.776-2.334 4.341-3.134 1.627-.813 3.347-1.426 5.112-1.773 1.768-.307 3.556-.4 5.307-.227 1.743.214 3.45.587 5.032 1.227 3.156 1.24 5.888 3.467 7.716 5.76 1.02 1.333 1.839 2.587 2.415 3.947.624 1.333 1.029 2.706 1.334 4.04a18.77 18.77 0 0 1 .01 7.44c-.42 2.2-1.239 4.013-2.014 5.413-.393.707-.772 1.32-1.158 1.813-.364.52-.684.947-.984 1.254-.578.64-.886.986-.886.986a.412.412 0 0 1-.033.04l-.053.04z" fill="#231F20"/>
        <path d="M52.787 40.653a7.275 7.275 0 0 1-7.279 7.28 7.275 7.275 0 0 1-7.277-7.28c0-4.013 3.258-7.28 7.277-7.28a7.284 7.284 0 0 1 7.279 7.28m76.189 40.16l.088.467c.053.32.135.8.239 1.413.19 1.214.442 2.987.688 5.24.241 2.267.47 5 .686 8.147l.25 5 .129 5.547c.005.506.03.933.021 1.52-.006.493-.014.986-.022 1.493a43.405 43.405 0 0 1-.252 3.28 37.01 37.01 0 0 1-1.432 6.707c-1.411 4.506-3.88 9.04-7.51 12.813-3.596 3.787-8.364 6.747-13.621 8.293a35.423 35.423 0 0 1-8.096 1.387c-.707 0-1.321.04-2.107.027-.661-.027-1.221-.014-1.966-.08-1.451-.107-2.795-.254-4.162-.52a33.025 33.025 0 0 1-14.873-6.894c-4.25-3.44-7.496-7.866-9.616-12.573-2.108-4.72-3.063-9.693-3.17-14.373l-.013-.867-.002-.467.009-.413.036-1.613c.025-1.067.05-2.107.073-3.147.024-2.053.135-4.08.238-6.027.158-3.893.513-7.413.782-10.546.316-3.12.623-5.84.927-8.08.296-2.24.556-4 .755-5.2l.314-1.867a1.996 1.996 0 0 1 2.306-1.64 2.011 2.011 0 0 1 1.646 2.253l-.01.08-.247 1.76a169.932 169.932 0 0 0-.592 5.107c-.235 2.2-.459 4.88-.681 7.96-.188 3.08-.399 6.573-.5 10.347-.07 1.88-.147 3.853-.139 5.92-.007 1.04-.015 2.093-.021 3.16l-.011 1.613-.003.4.01.36.024.76c.161 4.093 1.073 8.387 2.938 12.4 1.842 4.013 4.623 7.773 8.226 10.653a27.782 27.782 0 0 0 12.558 5.72c1.142.227 2.346.347 3.442.427.525.053 1.245.04 1.857.067.49 0 1.15-.027 1.716-.04a29.396 29.396 0 0 0 6.856-1.12c4.41-1.267 8.359-3.68 11.38-6.827 3.055-3.12 5.14-6.933 6.453-10.773a32.002 32.002 0 0 0 1.352-5.774c.13-.96.218-1.893.275-2.773l.05-1.48c.017-.387.003-.933.006-1.387.023-3.8-.05-7.28-.117-10.36-.112-3.08-.25-5.76-.414-7.96-.176-2.2-.334-3.92-.468-5.08l-.158-1.293-.068-.453-.003-.027a2.001 2.001 0 1 1 3.944-.667" fill="#231F20"/>
        <path d="M128.824 94.56s-.943.2-2.59.533c-.815.174-1.843.36-3.022.56-1.179.227-2.508.44-3.953.627-1.446.213-3.018.4-4.68.6-1.663.2-3.424.32-5.243.48-1.823.107-3.705.253-5.621.307a139.3 139.3 0 0 1-5.81.146c-2.013 0-3.849-.04-5.794-.106a124.25 124.25 0 0 1-5.662-.307c-1.829-.107-3.586-.347-5.256-.507-1.661-.226-3.24-.413-4.68-.653-2.892-.44-5.274-.92-6.94-1.253-1.661-.334-2.612-.534-2.612-.534l.758-3.92s.94.147 2.585.414c1.645.266 3.997.626 6.817.973 2.819.373 6.114.707 9.651.92 1.772.133 3.59.2 5.435.267 1.836.04 3.846.066 5.676.053 1.897-.04 3.794-.04 5.661-.12 1.867-.04 3.7-.173 5.476-.253 1.772-.147 3.49-.24 5.11-.4 1.623-.147 3.16-.28 4.57-.467a186.02 186.02 0 0 0 6.804-.88c1.663-.267 2.612-.413 2.612-.413l.708 3.933m0 17s-.947.2-2.603.533c-1.642.32-4.114.814-7.008 1.2-1.453.214-3.033.4-4.704.6-1.67.214-3.441.32-5.269.48-1.832.107-3.723.254-5.648.307-1.924.107-3.881.12-5.837.12-2.003 0-3.864-.013-5.812-.067a150.219 150.219 0 0 1-5.668-.253c-1.832-.093-3.603-.28-5.28-.427-1.675-.2-3.262-.346-4.718-.573-2.916-.387-5.326-.84-7.009-1.16-1.68-.347-2.64-.533-2.64-.533l.757-3.92s.942.146 2.587.413c1.647.253 4.004.587 6.84.88 1.415.187 2.957.293 4.584.453 1.632.107 3.35.254 5.135.307 1.785.107 3.624.16 5.489.2 1.853.04 3.855.053 5.716.04 1.905-.027 3.812-.053 5.687-.12 1.877-.04 3.72-.16 5.504-.253 3.562-.267 6.889-.52 9.726-.867 2.858-.32 5.151-.627 6.838-.88a506.09 506.09 0 0 1 2.625-.413l.708 3.933" fill="#231F20"/>
    </g>
</svg>
