<svg width="168" height="168" xmlns="http://www.w3.org/2000/svg">
    <title>
        tomo
    </title>
    <g fill="none" fill-rule="evenodd">
        <path d="M164.007 83.827v40c0 22.093-17.908 40-40 40h-80c-22.092 0-40-17.907-40-40v-40c0-44.187 35.817-80 80-80 44.182 0 80 35.813 80 80" fill="#FFF" fill-rule="nonzero"/>
        <path d="M164.007 83.827v40c0 22.093-17.908 40-40 40h-80c-22.092 0-40-17.907-40-40v-40c0-44.187 35.817-80 80-80 44.182 0 80 35.813 80 80z" stroke="#231F20" stroke-width="6.667"/>
        <path d="M23.463 159.08l.121-9.173c.061-5.84.221-14.174.27-24.174.053-5.04.043-10.346.154-16.226.25-6.227 2.064-12.654 5.55-18.44 3.486-5.76 8.642-10.774 14.887-14.08 6.204-3.36 13.568-4.88 20.611-4.414 7.255.427 14.197 2.974 19.945 7.107 5.746 4.107 10.23 9.747 12.903 15.92 1.35 3.093 2.247 6.307 2.773 9.507.228 1.613.411 3.2.442 4.786.06 1.627.034 2.974.054 4.427l.108 16.16c.223 20 .37 33.347.37 33.347a3.34 3.34 0 0 1-3.296 3.373 3.348 3.348 0 0 1-3.371-3.307v-.066l.37-33.347.109-16.16c-.002-1.387.041-2.947.005-4.28-.005-1.347-.148-2.72-.32-4.093a32.536 32.536 0 0 0-2.305-8.147c-2.263-5.307-6.094-10.16-11.014-13.72-4.886-3.56-10.956-5.787-17.028-6.16-6.264-.427-12.449.933-17.804 3.827-5.352 2.88-9.765 7.213-12.732 12.16-2.972 4.933-4.49 10.533-4.612 15.746-.025 5.587.063 11.107.086 16.08.049 10 .209 18.334.27 24.174.078 5.84.12 9.173.12 9.173a3.331 3.331 0 0 1-3.289 3.373 3.336 3.336 0 0 1-3.377-3.293v-.08" fill="#231F20" fill-rule="nonzero"/>
        <path d="M52.128 162.587v-39.014l.012-1.173.03-1.12c.062-.84.113-1.693.23-2.48a30.64 30.64 0 0 1 .99-4.8c.895-3.147 2.307-6.133 4.08-8.813a32.61 32.61 0 0 1 6.287-7c2.364-1.947 4.914-3.507 7.487-4.64 2.563-1.16 5.148-1.854 7.56-2.28 2.4-.414 4.715-.507 6.616-.44a31.12 31.12 0 0 1 5.157.6c1.403.28 2.484.586 3.218.813.728.24 1.116.373 1.116.373a2.657 2.657 0 0 1 1.7 3.36 2.674 2.674 0 0 1-3.366 1.707l-.104-.04-.93-.307a28.85 28.85 0 0 0-2.68-.68 27.002 27.002 0 0 0-4.226-.493 26.692 26.692 0 0 0-5.602.36c-2.01.36-4.163.933-6.298 1.907-2.144.933-4.268 2.24-6.244 3.866a27.245 27.245 0 0 0-5.248 5.84c-1.477 2.24-2.654 4.734-3.397 7.347a24.771 24.771 0 0 0-.825 4c-.104.68-.132 1.307-.188 1.947l-.031 1.106-.01 1.04v39.014a2.67 2.67 0 0 1-2.667 2.666 2.671 2.671 0 0 1-2.667-2.666" fill="#231F20" fill-rule="nonzero"/>
    </g>
</svg>
