<svg width="88" height="168" xmlns="http://www.w3.org/2000/svg">
    <title>
        tu
    </title>
    <g fill="none">
        <path d="M83.108 83.827c0-13.747-10.044-26.667-22.439-26.667 12.439 0 23.772-12.933 23.772-26.667 0-14.733-11.938-26.666-26.666-26.666H44.44c-22.09 0-40 17.906-40 40v80c0 22.093 17.91 40 40 40h13.334c14.728 0 26.666-11.947 26.666-26.667 0-13.453-11.166-26.667-22.953-26.667 11.62 0 21.62-13.2 21.62-26.666" fill="#FFF"/>
        <path d="M86.441 83.827l-.136 2.626c-.089.88-.232 1.747-.35 2.614-.136.853-.37 1.706-.555 2.546-.185.854-.496 1.68-.76 2.507-.245.827-.644 1.613-.965 2.413-.315.814-.754 1.56-1.147 2.334-.38.773-.859 1.506-1.327 2.24-.45.733-.989 1.426-1.524 2.106-.51.707-1.101 1.347-1.698 1.987-.57.667-1.216 1.253-1.883 1.827-.633.6-1.35 1.12-2.068 1.64-.69.533-1.472.973-2.243 1.413-.75.467-1.606.773-2.42 1.12-.797.387-1.708.547-2.552.827-.857.24-1.77.306-2.645.453-.893.053-1.796.013-2.679.013a1.998 1.998 0 0 1-1.998-2c0-1.066.834-1.933 1.885-1.986l.112-.014c4.643-.253 9.296 1.307 13.01 3.894 3.789 2.546 6.862 6.013 9.102 9.933 2.268 3.907 3.77 8.347 4.072 13.04.308 4.52-.472 9.253-2.243 13.507a30.815 30.815 0 0 1-8.108 11.093c-3.469 3.067-7.726 5.187-12.202 6.333-1.087.334-2.315.507-3.528.68l-.91.134-.769.04-1.536.08-.384.013-.557.013h-2.308l-3.078.014-6.154.013h-1.547l-1.668-.08c-1.11-.08-2.23-.053-3.33-.227-8.851-1.04-17.411-4.813-24.007-10.84-1.708-1.44-3.168-3.146-4.646-4.813l-2.012-2.68c-.672-.893-1.193-1.88-1.793-2.827-2.221-3.853-4.016-8.013-4.94-12.4l-.207-.813-.137-.867-.265-1.72-.254-1.733c-.062-.547-.064-1.04-.098-1.56l-.082-1.533-.04-.774-.021-.373-.007-.573-.006-3.08-.028-12.307-.054-24.613.055-24.627.028-12.307c.01-1.04-.013-2.013.025-3.106l.176-3.347c.034-1.12.296-2.213.439-3.32l.26-1.653.412-1.627c.305-1.08.505-2.187.907-3.227l1.16-3.146c.942-2.027 1.853-4.08 3.085-5.947 2.34-3.787 5.204-7.293 8.624-10.16 3.392-2.893 7.179-5.347 11.284-7.107A46.28 46.28 0 0 1 40.289.56l3.074-.147.768-.04h2.482l6.155.014h3.077c1.027.013 2.014-.014 3.222.08l1.732.093 1.716.253c1.152.134 2.27.44 3.389.734 8.953 2.466 16.499 9.36 19.807 18 .4 1.08.816 2.16 1.061 3.293l.419 1.68.273 1.813c.223 1.294.212 2.227.272 3.267l.019.387.009.186.004.094.004.28-.048.866-.105 1.734c-.456 4.613-2.056 9.013-4.426 12.88-.564.986-1.273 1.88-1.924 2.8-.748.853-1.44 1.76-2.253 2.546-.812.8-1.604 1.6-2.516 2.294-.863.733-1.817 1.36-2.777 1.973-.944.627-1.996 1.12-3.01 1.627-1.086.386-2.108.893-3.242 1.133-2.187.693-4.534.827-6.802.76h-.04a2.007 2.007 0 0 1-1.937-2.067 1.997 1.997 0 0 1 1.977-1.933c.888-.013 1.79-.04 2.692-.013.887.12 1.794.213 2.676.4.863.24 1.766.413 2.607.733.827.36 1.712.627 2.496 1.067.779.44 1.62.813 2.333 1.36.727.52 1.511.986 2.167 1.586.677.587 1.388 1.147 1.979 1.814.608.653 1.258 1.28 1.786 1.986.547.707 1.138 1.374 1.603 2.134.477.746 1 1.48 1.392 2.266.401.8.875 1.56 1.196 2.387.332.813.745 1.613 1.003 2.467.272.84.588 1.666.784 2.546.19.867.422 1.707.57 2.614.127.92.275 1.893.36 2.773l.124 2.4.004.147zm-6.664.146l-.092-2.4c-.07-.72-.177-1.333-.25-2-.096-.666-.291-1.386-.426-2.08-.138-.693-.408-1.36-.584-2.053-.172-.693-.493-1.333-.728-2.013-.225-.68-.594-1.294-.888-1.947-.281-.667-.694-1.253-1.04-1.88-.329-.64-.772-1.187-1.169-1.787-.381-.6-.87-1.12-1.317-1.666-.432-.574-.97-1.027-1.454-1.547-.473-.547-1.049-.933-1.578-1.413-.52-.494-1.146-.8-1.71-1.227-.565-.427-1.21-.693-1.816-1.053-.617-.334-1.284-.534-1.929-.827-.66-.227-1.347-.373-2.027-.573l-2.1-.347v-4c7.346-.707 13.599-5.947 17.131-12.32 1.748-3.213 2.925-6.733 3.225-10.307l.051-1.333.03-.667-.031-.6c-.059-1.013-.078-2.12-.254-2.853l-.19-1.24-.336-1.293c-.184-.88-.524-1.707-.832-2.56-1.276-3.347-3.427-6.347-6.084-8.734-2.656-2.4-5.859-4.213-9.316-5.133-.867-.213-1.726-.467-2.619-.56l-1.327-.2-1.341-.053c-.84-.067-1.905-.054-2.93-.054l-3.078.014-6.155.013h-2.132l-.769.04-3.072.173c-3.495.427-7.221 1.36-10.659 2.814-3.436 1.493-6.598 3.573-9.436 6-2.865 2.413-5.242 5.373-7.188 8.56-1.034 1.56-1.768 3.293-2.562 4.973l-.955 2.64c-.339.867-.484 1.8-.74 2.693l-.344 1.36-.204 1.387c-.108.92-.344 1.84-.359 2.773l-.134 2.8c-.035.96-.006 2.027-.012 3.04l.028 12.307.056 24.627-.055 24.613-.027 12.307-.008 3.08v.293c.004.187-.006-.16-.004-.093l.019.386.037.774.075 1.533c.03.507.033 1.053.09 1.52l.21 1.307.199 1.32.096.653.174.68c.743 3.667 2.246 7.147 4.082 10.387.504.786.922 1.626 1.488 2.373l1.673 2.253c1.241 1.387 2.447 2.84 3.881 4.04 5.508 5.094 12.667 8.267 20.094 9.187.922.173 1.869.12 2.802.2l1.406.08 1.532.013 6.154.014h3.078l1.538.013h1.058c.186-.013-.147 0-.078 0l.384-.013 1.538-.08.766-.04.614-.107c.814-.133 1.624-.213 2.508-.48 3.452-.88 6.761-2.48 9.458-4.853a24.134 24.134 0 0 0 6.334-8.587c1.389-3.32 1.985-6.893 1.798-10.547-.164-3.506-1.266-7.066-2.948-10.346-.821-1.64-1.88-3.16-2.978-4.64-1.199-1.387-2.428-2.787-3.87-3.907a20.398 20.398 0 0 0-4.585-2.893l-1.248-.52c-.42-.16-.856-.24-1.285-.374-.86-.306-1.747-.333-2.642-.52v-4c.682-.133 1.356-.213 2.015-.36.65-.226 1.315-.333 1.94-.613.616-.307 1.267-.48 1.844-.867.584-.36 1.195-.653 1.73-1.093.553-.413 1.127-.773 1.627-1.267.523-.453 1.046-.906 1.504-1.44.478-.506.964-1 1.383-1.56.444-.546.884-1.08 1.256-1.68.395-.586.795-1.16 1.116-1.786.343-.614.72-1.214.996-1.867.29-.64.632-1.253.853-1.933.23-.654.54-1.294.703-1.987.17-.68.437-1.333.568-2.013.133-.694.321-1.374.419-2.054.078-.693.188-1.386.252-2.08l.08-2.066.002.146z" fill="#231F20"/>
        <path d="M27.432 118.253l11.715-.146 5.857-.08 1.464-.014 1.587.054c.596.066 1.236.146 1.83.24.56.146 1.131.253 1.68.426 4.411 1.387 8.26 4.707 10.03 9.094a15.612 15.612 0 0 1 1.13 6.866c-.146 2.4-.857 4.76-2.054 6.774-2.37 4.093-6.575 7.013-11.216 7.8-.58.08-1.158.213-1.743.213-.579.04-1.205.08-1.65.067l-2.93.026h-1.464l-.732.014h-.507l-.365-.027c-.81 0-2.367-.16-3.441-.453-4.602-1.067-8.714-4.214-10.84-8.547a15.82 15.82 0 0 1-1.672-6.96l-.008-5.853-.063-46.854-.02-23.44.09-23.426.091-1.534c.087-.613.175-1.24.298-1.826.265-1.094.62-2.174 1.098-3.187a16.262 16.262 0 0 1 4.02-5.32 16.609 16.609 0 0 1 5.751-3.24 16.787 16.787 0 0 1 3.23-.707c1.095-.12 2.243-.12 3.082-.106l2.745.013 1.374.013.685.014.479.013.342.027.686.04c.233.013.572.066.852.106.596.08 1.176.174 1.688.334.534.12 1.061.266 1.573.48.521.173 1.027.373 1.517.626 3.958 1.88 7.14 5.427 8.41 9.68a16.26 16.26 0 0 1 .61 3.24l.038.827.016.413.002.054-.002.186-.006.08-.009.174-.043.68a5.475 5.475 0 0 1-.077.773 14.776 14.776 0 0 1-.804 3.293 14.403 14.403 0 0 1-1.45 2.947c-2.329 3.707-6.211 6.307-10.445 7.12-.529.093-1.064.16-1.596.24-.534.04-1.07.053-1.605.067l-2.757-.014-5.491-.053-10.98-.093a2.251 2.251 0 0 1-2.23-2.267 2.25 2.25 0 0 1 2.23-2.227l10.98-.093 5.49-.053 2.734-.027 1.135-.067 1.117-.186c2.95-.627 5.596-2.494 7.12-5.027a9.15 9.15 0 0 0 .937-1.987c.25-.68.396-1.426.478-2.026.036-.12.048-.347.054-.587l.03-.68.008-.173.004-.094c-.007.267-.003.067-.006.12L57.512 34l-.003-.04-.018-.267-.034-.546a11.114 11.114 0 0 0-.437-2.134c-.877-2.773-3.044-5.106-5.712-6.32a6.86 6.86 0 0 0-1.02-.4 7.154 7.154 0 0 0-1.056-.306c-.37-.107-.692-.147-1.004-.187-.173-.013-.285-.053-.508-.067l-.685-.026-.343-.014-.172-.013h.051-.087l-.685.013-1.374.014-2.745.026c-.99 0-1.677.027-2.397.107-.722.107-1.434.267-2.116.507a10.696 10.696 0 0 0-3.702 2.173 10.33 10.33 0 0 0-2.5 3.413 11.14 11.14 0 0 0-.65 2c-.054.32-.083.6-.147.894l-.057 1.2.089 23.426-.02 23.44-.063 46.854-.006 5.853a9.802 9.802 0 0 0 .981 4.347c1.28 2.733 3.904 4.84 6.904 5.573.388.12.724.173 1.05.213.265.08.82.094 1.298.12l.365.027h.046c.14.013-.14 0-.094 0h.275l.732.013h1.464l2.93.027c.529.013.877-.013 1.274-.027.393 0 .775-.093 1.163-.133 3.089-.467 5.902-2.387 7.496-5.04a9.789 9.789 0 0 0 1.397-4.307 10.216 10.216 0 0 0-.67-4.6c-1.107-2.906-3.689-5.226-6.7-6.213-.375-.133-.769-.213-1.15-.32l-1.064-.2-1.34-.08-1.464-.013-5.857-.08-11.715-.147a2.251 2.251 0 0 1-2.221-2.28 2.262 2.262 0 0 1 2.221-2.227" fill="#231F20"/>
    </g>
</svg>
