<svg width="168" height="168" xmlns="http://www.w3.org/2000/svg">
    <title>
        unpa
    </title>
    <g fill="none" fill-rule="evenodd">
        <path d="M163.775 83.827c0 44.186-35.818 80-80 80-44.183 0-80-35.814-80-80 0-44.187 35.817-80 80-80 44.182 0 80 35.813 80 80" fill="#FFF" fill-rule="nonzero"/>
        <path d="M163.775 83.827c0 44.186-35.818 80-80 80-44.183 0-80-35.814-80-80 0-44.187 35.817-80 80-80 44.182 0 80 35.813 80 80z" stroke="#231F20" stroke-width="6.667"/>
        <path d="M83.859 1.427s.229 0 .673.013c.459.013 1.056 0 2.073.093 1.962.147 4.651.52 7.988 1.64 3.318 1.08 7.16 2.987 10.991 5.907 3.816 2.933 7.6 6.907 10.688 11.933 3.097 5 5.493 11.04 6.528 17.747.227 1.68.419 3.4.461 5.147l.035 1.4-.03 1.226c-.013.787-.115 1.88-.215 2.774-.443 3.666-1.59 7.32-3.311 10.706-3.463 6.8-9.047 12.307-15.216 16.694-6.19 4.386-13.123 7.786-20.121 10.453-6.706 2.573-13.174 5.613-18.72 9.587-5.543 3.933-10.034 8.906-12.435 14.626-1.23 2.854-1.928 5.854-2.256 8.854-.297 2.96-.21 6.133.08 9.026.6 5.907 2.33 11.28 4.813 15.694 2.511 4.386 5.747 7.786 9.07 10.146 3.321 2.374 6.694 3.72 9.54 4.507 2.857.8 5.209 1.067 6.812 1.173.798.08 1.421.067 1.837.094.416.013.63.026.63.026h.133a2.666 2.666 0 0 1 2.565 2.76 2.673 2.673 0 0 1-2.697 2.574s-.244 0-.716-.014c-.474-.013-1.175.014-2.091-.053a39.741 39.741 0 0 1-7.899-1.187c-3.346-.853-7.384-2.346-11.424-5.106-4.042-2.72-8.026-6.734-11.029-11.894-2.995-5.146-5.045-11.36-5.807-18.013-.08-.84-.192-1.667-.233-2.533a45.64 45.64 0 0 1-.123-2.547c-.068-1.68 0-3.493.148-5.28.33-3.587 1.19-7.267 2.675-10.76 1.467-3.493 3.547-6.787 6.055-9.707 2.498-2.933 5.406-5.493 8.509-7.733 6.221-4.48 13.172-7.733 20.147-10.453 6.728-2.547 13.102-5.654 18.74-9.614 5.604-3.933 10.404-8.76 13.233-14.28a26.661 26.661 0 0 0 2.717-8.56c.064-.373.072-.693.115-1.053.035-.333.077-.667.083-1.093l.044-1.227-.02-1.04c-.015-1.493-.166-2.96-.339-4.413-.821-5.8-2.836-11.107-5.484-15.494-2.652-4.4-5.86-7.92-9.08-10.52-3.236-2.586-6.459-4.266-9.221-5.226a27.284 27.284 0 0 0-6.558-1.52c-.696-.094-1.42-.094-1.852-.12-.444-.027-.673-.027-.673-.027a2.672 2.672 0 0 1-2.552-2.787 2.673 2.673 0 0 1 2.719-2.546" fill="#231F20" fill-rule="nonzero"/>
    </g>
</svg>
