<svg width="168" height="168" xmlns="http://www.w3.org/2000/svg">
    <title>
        uta
    </title>
    <g fill="none" fill-rule="evenodd">
        <path d="M164.107 83.827c0 44.186-35.814 80-80 80-44.182 0-79.999-35.814-79.999-80 0-44.187 35.817-80 79.999-80 44.186 0 80 35.813 80 80" fill="#FFF" fill-rule="nonzero"/>
        <path d="M164.107 83.827c0 44.186-35.814 80-80 80-44.182 0-79.999-35.814-79.999-80 0-44.187 35.817-80 79.999-80 44.186 0 80 35.813 80 80z" stroke="#231F20" stroke-width="6.667"/>
        <path d="M8.775 54.76l23.542-.333c7.062-.054 15.296-.12 24.136-.187 8.827-.027 18.24-.053 27.654-.08 9.413.027 18.84.053 27.666.08 8.827.067 17.067.133 24.134.187l23.533.333v4.8l-23.533.333c-7.067.054-15.307.12-24.134.187-8.826.027-18.253.053-27.666.08-9.414-.027-18.827-.053-27.654-.08-8.84-.067-17.074-.133-24.136-.187L8.775 59.56v-4.8m0 53.333l23.542-.333c7.062-.053 15.296-.12 24.136-.187l27.654-.08 27.666.08c8.827.067 17.067.134 24.134.187l23.533.333v4.8l-23.533.334c-7.067.053-15.307.12-24.134.186-8.826.027-18.253.054-27.666.08-9.414-.026-18.827-.053-27.654-.08-8.84-.066-17.074-.133-24.136-.186l-23.542-.334v-4.8" fill="#231F20" fill-rule="nonzero"/>
    </g>
</svg>
