<svg width="167" height="168" xmlns="http://www.w3.org/2000/svg">
    <title>
        utala
    </title>
    <g fill="none" fill-rule="evenodd">
        <path d="M163.44 105.813v14.027c0 24.293-17.907 43.987-40 43.987h-80c-22.093 0-40-19.694-40-43.987v-14.027c0-65.986 80-101.32 80-101.32s80 35.334 80 101.32" fill="#FFF" fill-rule="nonzero"/>
        <path d="M163.44 105.813v14.027c0 24.293-17.907 43.987-40 43.987h-80c-22.093 0-40-19.694-40-43.987v-14.027c0-65.986 80-101.32 80-101.32s80 35.334 80 101.32z" stroke="#231F20" stroke-width="6.667"/>
        <path d="M154.307 146.4l-25.867-37.92h3.827l-23.187 34.067a2.656 2.656 0 0 1-4.387 0l-23.2-34.067h3.84l-23.2 34.067a2.64 2.64 0 0 1-3.68.693 2.69 2.69 0 0 1-.706-.693L34.56 108.48h3.84l-25.76 37.76a2.675 2.675 0 0 1-3.707.707 2.675 2.675 0 0 1-.706-3.707c.013-.013.026-.027.026-.04l26.307-37.373a2.346 2.346 0 0 1 3.267-.56c.226.146.413.346.573.56l23.733 33.68H57.76l23.733-33.68a2.362 2.362 0 0 1 3.28-.56c.214.16.414.346.56.56l23.747 33.68h-4.387l23.747-33.68a2.346 2.346 0 0 1 3.267-.56c.226.146.413.346.56.56l26.426 37.546c.84 1.2.56 2.867-.653 3.707-1.2.853-2.867.56-3.707-.64-.013-.013-.026-.027-.026-.04" fill="#231F20" fill-rule="nonzero"/>
        <path d="M111.827 61.373c0 15.654-12.68 28.334-28.334 28.334-15.64 0-28.333-12.68-28.333-28.334 0-15.64 12.693-28.333 28.333-28.333 15.654 0 28.334 12.693 28.334 28.333z" stroke="#231F20" stroke-width="4.667" stroke-linecap="round" stroke-linejoin="round"/>
        <path d="M64.68 40.08l1.8 1.653c1.133 1.067 2.773 2.547 4.693 4.387 1.92 1.853 4.187 3.973 6.56 6.307 2.36 2.333 4.88 4.813 7.414 7.306 2.493 2.52 4.973 5.04 7.306 7.414 2.347 2.36 4.454 4.64 6.307 6.546a338.64 338.64 0 0 1 6.027 6.507c.653.72.586 1.827-.134 2.467-.666.6-1.68.586-2.333 0 0 0-2.653-2.374-6.507-6.027-1.92-1.853-4.186-3.96-6.546-6.307a3282.64 3282.64 0 0 1-7.414-7.306c-2.493-2.52-4.986-5.054-7.306-7.414-2.334-2.373-4.454-4.64-6.307-6.56-1.84-1.92-3.32-3.56-4.387-4.693l-1.653-1.8c-.64-.707-.6-1.827.12-2.48.667-.613 1.693-.587 2.36 0" fill="#231F20" fill-rule="nonzero"/>
        <path d="M104.787 42.56s-.6.653-1.64 1.8c-1.067 1.133-2.547 2.787-4.387 4.707-1.853 1.906-3.973 4.173-6.307 6.546-2.333 2.36-4.813 4.894-7.306 7.414-2.52 2.493-5.054 4.973-7.414 7.306-2.373 2.334-4.64 4.454-6.56 6.307-1.906 1.84-3.56 3.32-4.693 4.387a435.81 435.81 0 0 0-1.8 1.64c-.72.653-1.827.6-2.48-.107a1.772 1.772 0 0 1 0-2.36s.6-.667 1.653-1.813c1.054-1.12 2.547-2.774 4.387-4.694 1.853-1.906 3.96-4.186 6.293-6.546a3423 3423 0 0 1 7.32-7.414c2.52-2.493 5.04-4.986 7.414-7.32 2.36-2.333 4.64-4.44 6.546-6.293 1.92-1.84 3.574-3.333 4.694-4.387 1.146-1.053 1.813-1.653 1.813-1.653a1.75 1.75 0 0 1 2.467.12c.613.68.6 1.707 0 2.36" fill="#231F20" fill-rule="nonzero"/>
    </g>
</svg>
