<svg width="168" height="168" xmlns="http://www.w3.org/2000/svg">
    <title>
        walo
    </title>
    <g fill="none" fill-rule="evenodd">
        <path d="M157.653 76.48c0 40.453-32.8 73.24-73.253 73.24s-73.24-32.787-73.24-73.24c0-40.453 32.787-73.253 73.24-73.253 40.453 0 73.253 32.8 73.253 73.253" fill="#FFF" fill-rule="nonzero"/>
        <path d="M107.84 96.76c0-15.6 12.653-28.253 28.253-28.253s28.254 12.653 28.254 28.253l-.054 27.067c0 22.093-17.92 40-40 40h-80c-22.093 0-40-17.907-40-40V96.76c0-15.6 12.64-28.253 28.254-28.253 15.6 0 28.253 12.653 28.253 28.253 0-12.987 10.52-23.52 23.52-23.52 12.987 0 23.52 10.533 23.52 23.52" fill="#FFF" fill-rule="nonzero"/>
        <path d="M107.84 96.76c0-15.6 12.653-28.253 28.253-28.253s28.254 12.653 28.254 28.253l-.054 27.067c0 22.093-17.92 40-40 40h-80c-22.093 0-40-17.907-40-40V96.76c0-15.6 12.64-28.253 28.254-28.253 15.6 0 28.253 12.653 28.253 28.253 0-12.987 10.52-23.52 23.52-23.52 12.987 0 23.52 10.533 23.52 23.52z" stroke="#231F20" stroke-width="6.667" stroke-linecap="round" stroke-linejoin="round"/>
        <path d="M10.987 76.827c0-40.507 32.826-73.334 73.333-73.334 40.493 0 73.333 32.827 73.333 73.334" stroke="#231F20" stroke-width="6.667" stroke-linecap="round" stroke-linejoin="round"/>
        <path d="M57.813 44.653c0 3.96-3.2 7.174-7.16 7.174a7.176 7.176 0 0 1-7.173-7.174c0-3.946 3.213-7.16 7.173-7.16s7.16 3.214 7.16 7.16m33.667 0c0 3.96-3.2 7.174-7.16 7.174a7.176 7.176 0 0 1-7.173-7.174c0-3.946 3.213-7.16 7.173-7.16s7.16 3.214 7.16 7.16m33.667 0c0 3.96-3.2 7.174-7.16 7.174a7.176 7.176 0 0 1-7.174-7.174c0-3.946 3.214-7.16 7.174-7.16 3.96 0 7.16 3.214 7.16 7.16" fill="#231F20" fill-rule="nonzero"/>
    </g>
</svg>
