<svg width="88" height="168" xmlns="http://www.w3.org/2000/svg">
    <title>
        wan
    </title>
    <g fill="none" fill-rule="evenodd">
        <path d="M82.707 83.827c0-13.747-10.04-26.667-22.44-26.667 12.44 0 23.773-12.933 23.773-26.667 0-14.733-11.947-26.666-26.667-26.666H44.04c-22.093 0-40 17.906-40 40v80c0 22.093 17.907 40 40 40h13.333c14.72 0 26.667-11.947 26.667-26.667 0-13.453-11.173-26.667-22.96-26.667 11.627 0 21.627-13.2 21.627-26.666" fill="#FFF" fill-rule="nonzero"/>
        <path d="M86.04 83.827l-.133 2.626c-.094.88-.24 1.747-.36 2.614-.134.853-.36 1.706-.547 2.546-.187.854-.493 1.68-.76 2.507-.253.827-.64 1.613-.973 2.413-.307.814-.747 1.56-1.147 2.334-.373.773-.853 1.506-1.32 2.24-.453.733-.987 1.426-1.52 2.106-.52.707-1.107 1.347-1.707 1.987-.573.667-1.213 1.253-1.88 1.827-.64.6-1.346 1.12-2.066 1.64-.694.533-1.48.973-2.24 1.413-.76.467-1.614.773-2.427 1.12-.8.387-1.707.547-2.547.827-.853.24-1.773.306-2.653.453-.893.053-1.787.013-2.68.013a1.995 1.995 0 0 1-1.987-2 1.98 1.98 0 0 1 1.88-1.986l.107-.014c4.653-.253 9.307 1.307 13.013 3.894 3.787 2.546 6.867 6.013 9.107 9.933 2.267 3.907 3.773 8.347 4.067 13.04.306 4.52-.467 9.253-2.24 13.507a30.796 30.796 0 0 1-8.107 11.093c-3.467 3.067-7.733 5.187-12.2 6.333-1.093.334-2.32.507-3.533.68l-.907.134-.773.04-1.534.08-.386.013-.56.013H54.72l-3.08.014-6.147.013h-1.546l-1.667-.08c-1.107-.08-2.227-.053-3.333-.227-8.854-1.04-17.414-4.813-24.014-10.84-1.706-1.44-3.16-3.146-4.64-4.813l-2.013-2.68c-.667-.893-1.187-1.88-1.787-2.827-2.226-3.853-4.026-8.013-4.946-12.4l-.2-.813-.147-.867-.267-1.72-.253-1.733c-.053-.547-.053-1.04-.093-1.56l-.08-1.533-.04-.774-.027-.373v-.573l-.013-3.08L.4 108.08.347 83.467.4 58.84l.027-12.307c.013-1.04-.014-2.013.026-3.106L.64 40.08c.027-1.12.293-2.213.427-3.32l.266-1.653.414-1.627c.306-1.08.506-2.187.906-3.227l1.16-3.146c.947-2.027 1.854-4.08 3.08-5.947C9.24 17.373 12.107 13.867 15.52 11c3.387-2.893 7.173-5.347 11.28-7.107A46.352 46.352 0 0 1 39.88.56l3.08-.147.773-.04h2.48l6.147.014h3.08c1.027.013 2.013-.014 3.227.08L60.4.56l1.707.253c1.16.134 2.28.44 3.4.734 8.946 2.466 16.493 9.36 19.8 18 .4 1.08.813 2.16 1.066 3.293l.414 1.68.28 1.813c.213 1.294.213 2.227.266 3.267l.014.387.013.186v.094c0-.12.013.28.013.28l-.053.866-.107 1.734c-.453 4.613-2.053 9.013-4.426 12.88-.56.986-1.267 1.88-1.92 2.8-.747.853-1.44 1.76-2.254 2.546-.813.8-1.6 1.6-2.52 2.294-.853.733-1.813 1.36-2.773 1.973-.947.627-2 1.12-3.013 1.627-1.08.386-2.107.893-3.24 1.133-2.187.693-4.534.827-6.8.76h-.04a1.998 1.998 0 0 1-1.934-2.067 1.987 1.987 0 0 1 1.974-1.933c.893-.013 1.786-.04 2.693-.013.88.12 1.787.213 2.68.4.853.24 1.76.413 2.6.733.827.36 1.707.627 2.493 1.067.787.44 1.627.813 2.334 1.36.733.52 1.52.986 2.173 1.586.68.587 1.387 1.147 1.973 1.814.614.653 1.267 1.28 1.787 1.986.547.707 1.133 1.374 1.6 2.134.48.746 1 1.48 1.4 2.266.4.8.867 1.56 1.2 2.387.32.813.733 1.613 1 2.467.267.84.587 1.666.773 2.546.2.867.427 1.707.574 2.614.133.92.28 1.893.36 2.773l.133 2.4v.147zm-6.667.146l-.093-2.4c-.067-.72-.173-1.333-.253-2-.094-.666-.28-1.386-.427-2.08-.133-.693-.4-1.36-.573-2.053-.174-.693-.494-1.333-.734-2.013-.226-.68-.6-1.294-.893-1.947-.28-.667-.693-1.253-1.04-1.88-.32-.64-.76-1.187-1.16-1.787-.387-.6-.867-1.12-1.32-1.666-.427-.574-.973-1.027-1.453-1.547-.48-.547-1.054-.933-1.574-1.413-.52-.494-1.146-.8-1.72-1.227-.56-.427-1.2-.693-1.813-1.053-.613-.334-1.28-.534-1.933-.827-.654-.227-1.347-.373-2.014-.573l-2.106-.347v-4c7.346-.707 13.6-5.947 17.133-12.32 1.747-3.213 2.92-6.733 3.227-10.307l.053-1.333.027-.667-.04-.6c-.054-1.013-.067-2.12-.254-2.853l-.186-1.24-.334-1.293c-.186-.88-.52-1.707-.84-2.56-1.266-3.347-3.426-6.347-6.08-8.734-2.653-2.4-5.853-4.213-9.32-5.133-.853-.213-1.72-.467-2.613-.56l-1.32-.2-1.347-.053c-.84-.067-1.906-.054-2.933-.054l-3.08.014-6.147.013H44.08l-.773.04-3.067.173c-3.493.427-7.227 1.36-10.667 2.814-3.426 1.493-6.6 3.573-9.426 6-2.867 2.413-5.254 5.373-7.187 8.56-1.04 1.56-1.773 3.293-2.573 4.973l-.947 2.64c-.347.867-.48 1.8-.747 2.693l-.346 1.36-.2 1.387c-.107.92-.347 1.84-.36 2.773l-.134 2.8c-.026.96 0 2.027-.013 3.04l.027 12.307.066 24.627-.053 24.613-.04 12.307v3.373c0 .187-.013-.16 0-.093l.013.386.04.774.067 1.533c.04.507.04 1.053.093 1.52l.214 1.307.2 1.32.093.653.173.68c.747 3.667 2.24 7.147 4.08 10.387.507.786.92 1.626 1.494 2.373l1.666 2.253c1.24 1.387 2.454 2.84 3.88 4.04 5.52 5.094 12.667 8.267 20.094 9.187.933.173 1.88.12 2.813.2l1.4.08 1.533.013 6.147.014h3.08l1.547.013h1.053c.187-.013-.147 0-.08 0l.387-.013 1.533-.08.773-.04.614-.107c.813-.133 1.626-.213 2.506-.48 3.454-.88 6.76-2.48 9.454-4.853a23.977 23.977 0 0 0 6.333-8.587c1.387-3.32 1.987-6.893 1.8-10.547-.16-3.506-1.267-7.066-2.947-10.346-.826-1.64-1.88-3.16-2.973-4.64-1.2-1.387-2.427-2.787-3.867-3.907a20.74 20.74 0 0 0-4.586-2.893l-1.254-.52c-.426-.16-.853-.24-1.28-.374-.866-.306-1.746-.333-2.653-.52v-4c.693-.133 1.36-.213 2.027-.36.64-.226 1.306-.333 1.933-.613.613-.307 1.267-.48 1.84-.867.587-.36 1.2-.653 1.733-1.093.56-.413 1.134-.773 1.627-1.267.52-.453 1.053-.906 1.507-1.44.48-.506.96-1 1.386-1.56.44-.546.88-1.08 1.254-1.68.386-.586.786-1.16 1.12-1.786.333-.614.72-1.214.986-1.867.294-.64.64-1.253.854-1.933.226-.654.546-1.294.706-1.987.174-.68.44-1.333.574-2.013.133-.694.32-1.374.413-2.054.08-.693.187-1.386.253-2.08l.08-2.066v.146z" fill="#231F20" fill-rule="nonzero"/>
        <path d="M29.04 66.187s4.88-.294 12.227-.534l2.933-.08.773.014c.32.026.64.04.96.066.6.054 1.214.134 1.827.254a17.853 17.853 0 0 1 7.187 3.12 18.08 18.08 0 0 1 5.426 6.386c1.32 2.6 2.014 5.427 2 8.494 0 2.76-.68 5.8-2 8.333a18.08 18.08 0 0 1-5.426 6.387 18.229 18.229 0 0 1-7.187 3.12c-1.227.226-2.44.333-3.613.32l-2.88-.08c-7.347-.24-12.227-.52-12.227-.52a2.247 2.247 0 0 1-2.12-2.387 2.259 2.259 0 0 1 2.12-2.12s4.88-.28 12.227-.52c.906-.027 1.853-.053 2.826-.08a12.18 12.18 0 0 0 2.467-.333c1.653-.387 3.307-1.16 4.773-2.267 1.454-1.12 2.76-2.573 3.64-4.293.907-1.747 1.374-3.587 1.4-5.72-.026-1.827-.493-3.88-1.4-5.56-.88-1.72-2.186-3.174-3.64-4.307a13.086 13.086 0 0 0-4.773-2.267c-.413-.093-.827-.16-1.24-.226l-.547-.054c-.2-.026-.493-.026-.72-.04-.973-.026-1.893-.053-2.786-.08-7.347-.24-12.227-.533-12.227-.533a2.243 2.243 0 0 1-2.12-2.373 2.248 2.248 0 0 1 2.12-2.12" fill="#231F20" fill-rule="nonzero"/>
        <path d="M30.933 139.12C28.4 122.787 28.32 94.333 28.32 83.667c0-10.667.107-38.88 2.613-55.134" stroke="#231F20" stroke-width="6" stroke-linecap="round" stroke-linejoin="round"/>
    </g>
</svg>
