<svg width="167" height="168" xmlns="http://www.w3.org/2000/svg">
    <title>
        waso
    </title>
    <g fill="none" fill-rule="evenodd">
        <path d="M51.804 143.574c22.342 24 49.008 20 66.334 20 17.34 0 45.334-17.667 45.334-17.667s-29.337-65.332-42.324-96.333C108.147 18.562 90.002 3.908 59.816 3.908c-30.2 0-56.004 24.48-56.004 54.667v56.505c0 19.415 13.44 35.16 29.988 35.16 16.576 0 34.015-16 34.015-35.16" fill-rule="nonzero" fill="#FFF"/>
        <path d="M53.723 141.722c.906.852 1.826 1.812 2.703 2.572.892.787 1.783 1.574 2.745 2.32a56.464 56.464 0 0 0 5.816 4.213c2.023 1.294 4.132 2.414 6.268 3.454 2.151 1.04 4.373 1.894 6.637 2.64 4.542 1.494 9.268 2.44 14.093 2.933 4.811.506 9.707.573 14.688.547l7.542-.134 3.863-.04c.425-.012 1.217-.012 1.755-.053.552-.053 1.033-.053 1.613-.133 4.585-.507 9.297-1.881 13.895-3.534 4.6-1.667 9.127-3.68 13.585-5.852a305.627 305.627 0 0 0 6.65-3.388 156.27 156.27 0 0 0 6.48-3.612L161.039 147l-11.363-24.747L138.498 97.4c-3.68-8.294-7.471-16.546-11.066-24.893l-10.824-24.974c-3.609-7.999-8.024-15.733-13.712-22.213-5.632-6.493-12.72-11.546-20.73-14.426C74.17 7.99 65.397 7.028 56.667 7.402c-4.118.253-8.434 1.013-12.495 2.28-4.061 1.28-7.995 3.013-11.645 5.226-7.316 4.4-13.599 10.546-18.042 17.827-4.457 7.253-7.047 15.653-7.273 24.147l-.028 1.599v5.094l.014 6.813.028 13.613.043 27.227c.014 2.266-.043 4.586.127 6.587a37.79 37.79 0 0 0 .948 6.106 34.858 34.858 0 0 0 4.952 11.254c4.543 6.786 11.971 11.559 19.952 11.706a24.716 24.716 0 0 0 5.943-.507c1.981-.4 3.934-1.052 5.83-1.893 3.778-1.667 7.23-4.133 10.273-7.027 3.028-2.92 5.547-6.373 7.358-10.187a31.863 31.863 0 0 0 3.17-12.186v-.027a1.987 1.987 0 0 1 2.108-1.88 2.005 2.005 0 0 1 1.882 1.907c.227 4.827-.707 9.707-2.504 14.227-1.84 4.52-4.543 8.653-7.868 12.213-3.297 3.587-7.33 6.506-11.787 8.667-2.236 1.065-4.585 1.933-7.018 2.52-2.434.573-5.095.907-7.557.853-5.122-.093-10.216-1.6-14.574-4.214-4.373-2.586-8.066-6.16-10.896-10.266-2.858-4.093-4.84-8.72-6.014-13.507a45.114 45.114 0 0 1-1.132-7.32c-.099-1.373-.113-2.32-.127-3.627l.014-3.399.043-27.227.042-13.613.014-6.813v-3.4l.014-1.707.043-1.813c.325-9.654 3.24-19.2 8.278-27.401 4.995-8.238 12.056-15.16 20.277-20.119 4.103-2.493 8.532-4.453 13.117-5.906C46.79 1.789 51.459.935 56.412.628c9.367-.413 19.004.573 28.088 3.894 9.098 3.279 17.235 9.145 23.46 16.36 6.298 7.213 10.953 15.452 14.774 23.96a2395.37 2395.37 0 0 1 10.725 25.052c3.495 8.36 7.189 16.654 10.769 24.987l21.678 49.934.028.067a2.601 2.601 0 0 1-1.033 3.278 169.936 169.936 0 0 1-6.594 4.041 138.484 138.484 0 0 1-6.721 3.72c-4.542 2.36-9.212 4.56-14.051 6.453-4.84 1.866-9.849 3.494-15.297 4.24-.679.107-1.429.16-2.15.227-.722.04-1.175.054-2.01.08l-3.707.067-7.599.213c-5.108.12-10.33.026-15.537-.586-5.207-.614-10.442-1.654-15.452-3.454-5.023-1.773-9.848-4.173-14.192-7.213-2.18-1.52-4.26-3.147-6.212-4.934a54.99 54.99 0 0 1-2.872-2.773c-.963-.947-1.727-1.867-2.604-2.813a2.657 2.657 0 0 1 .127-3.76 2.642 2.642 0 0 1 3.637 0l.056.054" fill-rule="nonzero" fill="#231F20"/>
        <path d="M50.413 100.04c.807 9.147-5.175 17.12-13.335 17.827-8.16.694-15.42-6.132-16.2-15.267-.792-9.145 5.176-17.12 13.336-17.825 8.16-.694 15.42 6.132 16.2 15.266" fill-rule="nonzero" fill="#FFF"/>
        <path d="M48.106 100.239s-.04-.332-.134-.96a7.96 7.96 0 0 0-.202-1.147c-.094-.44-.202-.959-.404-1.507a14.473 14.473 0 0 0-1.843-3.785c-.915-1.348-2.166-2.72-3.794-3.8-.39-.294-.847-.494-1.278-.76-.457-.188-.928-.427-1.426-.587-.955-.347-2.085-.546-3.013-.6-.202-.054-.619 0-.928 0l-.512.013-.255.014c-.135.013.134-.014.107 0h-.026l-.054.013-.108.014c-.538.092-1.116.145-1.655.332-1.116.28-2.192.787-3.188 1.44-2.018 1.307-3.7 3.346-4.735 5.72-.552 1.174-.875 2.467-1.09 3.76l-.121.987c-.04.32-.027.613-.054.92l-.027.454.027.573.067 1.16c-.013-.227 0-.053-.013-.094l.013.04.014.053.013.134.04.24.054.493c.027.333.108.654.189.974.134.653.336 1.293.551 1.906.471 1.227 1.023 2.413 1.79 3.453 1.452 2.107 3.444 3.76 5.596 4.667.525.28 1.09.4 1.641.587.552.107 1.13.254 1.601.267l.363.053.189.013h.242l1.036-.013.134-.014h.094c.04 0-.269.014-.12.014l.201-.027.39-.052c.27-.054.552-.04.807-.134 2.086-.453 3.956-1.454 5.355-2.787a13.596 13.596 0 0 0 3.107-4.306 14.23 14.23 0 0 0 1.225-4.013 10.3 10.3 0 0 0 .161-1.507c.013-.214.04-.414.054-.587-.014-.227-.014-.427-.027-.601a76.7 76.7 0 0 0-.027-1.12l-.027.107zm4.628-.293a58.113 58.113 0 0 0 .094 1.72c-.013.267-.027.547-.027.867a14.76 14.76 0 0 1-.175 2.08 19.195 19.195 0 0 1-1.466 5.32 18.547 18.547 0 0 1-4.103 5.96c-1.91 1.893-4.56 3.467-7.655 4.2-.377.12-.78.16-1.17.227l-.592.093-.31.04-.39.026c-.686.027-1.318.08-2.3-.014-.942-.039-1.736-.226-2.57-.386-.807-.24-1.655-.44-2.435-.8-1.6-.626-3.067-1.586-4.426-2.707-1.345-1.092-2.515-2.425-3.484-3.88-1.023-1.453-1.749-3.066-2.34-4.719a18.79 18.79 0 0 1-.687-2.547 10.97 10.97 0 0 1-.215-1.306l-.175-1.414-.04-1.16-.014-.587.04-.707c.027-.453.04-.932.081-1.387l.202-1.292c.323-1.72.794-3.427 1.56-4.987 1.453-3.16 3.767-5.906 6.646-7.706a15.29 15.29 0 0 1 4.588-1.974c.793-.24 1.587-.32 2.394-.426l.148-.014.081-.013h.027l.161-.014.256-.013h.511c.363 0 .619-.054 1.063 0a16.22 16.22 0 0 1 4.547.853c.7.227 1.332.547 1.978.827.592.347 1.224.64 1.775 1.04a18.39 18.39 0 0 1 5.072 5.08 19.18 19.18 0 0 1 2.408 4.947c.256.72.417 1.387.525 1.96a9.85 9.85 0 0 1 .282 1.48c.108.8.162 1.226.162 1.226l-.027.107z" fill-rule="nonzero" fill="#231F20"/>
        <path d="M42.332 100.373c.281 3.267-1.848 6.107-4.767 6.36-2.905.253-5.503-2.186-5.784-5.453-.268-3.254 1.86-6.093 4.767-6.347 2.905-.254 5.503 2.187 5.784 5.44" fill-rule="nonzero" fill="#231F20"/>
        <path d="M161.147 144.8s-41.647-.226-71.985-27.56" fill-rule="nonzero" fill="#FFF"/>
        <path d="M161.113 146.8s-.311-.012-.904-.025a67.252 67.252 0 0 1-2.572-.107c-1.102-.067-2.416-.187-3.942-.307-1.498-.172-3.222-.32-5.073-.613-1.865-.24-3.858-.574-5.963-.96-2.12-.333-4.31-.893-6.599-1.36-2.275-.6-4.634-1.134-6.98-1.867-2.36-.72-4.762-1.413-7.093-2.32-1.173-.427-2.36-.854-3.533-1.28-1.144-.493-2.275-.972-3.42-1.467-1.13-.493-2.274-.933-3.348-1.467-1.102-.545-2.162-1.08-3.222-1.612-1.031-.534-2.105-1.014-3.08-1.587-.96-.573-1.922-1.133-2.854-1.68-.947-.547-1.851-1.08-2.727-1.6-.848-.548-1.653-1.134-2.43-1.652-1.555-1.094-2.996-2.04-4.24-2.962-1.187-.972-2.218-1.813-3.08-2.52-1.71-1.4-2.685-2.185-2.685-2.185a2.675 2.675 0 0 1-.395-3.762 2.664 2.664 0 0 1 3.744-.373c.014 0 .028.014.028.014l.184.146s.919.774 2.501 2.12c.806.668 1.78 1.494 2.883 2.427 1.158.88 2.515 1.814 3.956 2.867.735.52 1.484 1.08 2.29 1.613l2.557 1.56c.876.547 1.78 1.094 2.698 1.654.919.56 1.936 1.027 2.925 1.572 1.004.52 2.007 1.054 3.038 1.587 1.032.534 2.12.96 3.18 1.467 1.088.48 2.176.96 3.278 1.454 1.116.426 2.232.853 3.363 1.293 2.232.907 4.535 1.613 6.796 2.347 2.247.746 4.536 1.293 6.698 1.92 2.218.493 4.338 1.067 6.372 1.427 2.05.413 3.971.759 5.766 1.026 1.78.307 3.447.466 4.888.667 1.47.147 2.742.292 3.787.36 1.06.08 1.865.133 2.402.146.566.027.876.04.876.04h.043a1.998 1.998 0 0 1 1.922 2.066 2.01 2.01 0 0 1-2.035 1.933" fill-rule="nonzero" fill="#231F20"/>
        <path d="M122.328 106.426c.764 4.787-.25 8.628-.25 8.628" stroke="#231F20" stroke-width="4" stroke-linecap="round" stroke-linejoin="round"/>
    </g>
</svg>
