<svg width="168" height="167" xmlns="http://www.w3.org/2000/svg">
    <title>
        wawa
    </title>
    <g fill="none" fill-rule="evenodd">
        <path d="M84.225 163.492H44.227c-22.099 0-40.013-17.906-40.013-40v-80c0-22.093 17.914-40.001 40.013-40.001h39.998c44.167 0 79.995 35.814 79.995 80.001 0 44.173-35.828 80-79.995 80" fill-rule="nonzero" fill="#FFF"/>
        <path d="M84.225 163.492H44.227c-22.099 0-40.013-17.906-40.013-40v-80c0-22.093 17.914-40.001 40.013-40.001h39.998c44.167 0 79.995 35.814 79.995 80.001 0 44.173-35.828 80-79.995 80z" stroke="#231F20" stroke-width="6.667"/>
        <path d="M46.86 163.827c-2.591-25.24-3.99-52.254-3.99-80.333 0-27.96 1.384-54.866 3.946-80.013" fill-rule="nonzero" fill="#FFF"/>
        <path d="M44.19 164.068s-.265-2.507-.737-6.867c-.22-2.186-.5-4.84-.825-7.88-.147-1.52-.31-3.147-.486-4.854-.118-1.72-.251-3.52-.398-5.412-.266-3.775-.56-7.868-.87-12.201-.31-4.32-.457-8.879-.649-13.6-.206-4.72-.427-9.6-.456-14.56-.074-4.96-.148-10-.236-15.04.088-5.026.147-10.066.236-15.013.03-4.933.235-9.827.442-14.56.191-4.72.339-9.306.634-13.626.31-4.32.604-8.4.884-12.173.133-1.881.265-3.68.383-5.4.177-1.72.34-3.348.487-4.868.324-3.052.604-5.72.825-7.906.472-4.386.737-6.893.737-6.893l5.306.546s-.162 2.493-.472 6.854c-.162 2.186-.353 4.826-.574 7.867-.104 1.52-.236 3.146-.354 4.84-.089 1.705-.177 3.506-.28 5.372-.192 3.747-.413 7.8-.649 12.094-.206 4.294-.25 8.813-.457 13.48-.177 4.68-.339 9.493-.339 14.454-.044 4.919-.103 9.933-.132 14.932.03 5 .088 10.001.132 14.921 0 4.919.192 9.759.354 14.44.206 4.678.236 9.226.472 13.506.22 4.28.442 8.32.634 12.067.103 1.866.206 3.652.294 5.36.118 1.706.236 3.333.354 4.853.221 3.054.413 5.707.575 7.906l.486 6.88-5.32.48" fill-rule="nonzero" fill="#231F20"/>
        <path d="M45.225 145.121l54.728-21.64-.705 5.2-27.349-20.8-.015-.013a2.673 2.673 0 0 1-.506-3.747 2.6 2.6 0 0 1 1.288-.92l68.832-22.454v5.722l-68.832-22.44a2.682 2.682 0 0 1-1.702-3.375c.169-.533.506-.985.92-1.306h.015l27.35-20.813.72 5.213-54.744-21.56c-1.349-.547-2.039-2.094-1.487-3.466a2.654 2.654 0 0 1 3.419-1.507l54.973 20.933c1.548.586 2.33 2.32 1.748 3.853a3.192 3.192 0 0 1-1.043 1.347l-27.747 20.28-.797-4.68 69.046 21.8a2.992 2.992 0 0 1 1.947 3.76c-.291.96-1.058 1.666-1.947 1.96l-69.046 21.814.797-4.68 27.747 20.266a2.976 2.976 0 0 1 .644 4.172 2.916 2.916 0 0 1-1.349 1.028l-54.973 21.026a2.652 2.652 0 0 1-3.434-1.533 2.68 2.68 0 0 1 1.502-3.44" fill-rule="nonzero" fill="#231F20"/>
    </g>
</svg>
