<svg width="167" height="167" xmlns="http://www.w3.org/2000/svg">
    <title>
        weka
    </title>
    <g fill="none" fill-rule="evenodd">
        <path d="M163.488 139.933c0 13.013-8.955 23.56-20 23.56-11.046 0-20-10.547-20-23.56 0 13.013-8.955 23.56-20 23.56-11.046 0-20-10.547-20-23.56 0 0-7.112 23.56-40 23.56-22.092 0-40-17.907-40-40V27.04c0-13 8.954-23.547 20-23.547 11.045 0 20 10.547 20 23.547 0-13 8.954-23.547 20-23.547 11.045 0 20 10.547 20 23.547 0 0 7.11-23.547 40-23.547 22.09 0 40 17.907 40 40v96.44" fill="#FFF" fill-rule="nonzero"/>
        <path d="M160.155 139.866l-.051-52.12-.025-26.093.01-13.04.003-3.266.001-1.627c-.004-.533-.046-1.013-.066-1.52-.076-.987-.04-1.987-.199-2.973l-.445-2.947a37.974 37.974 0 0 0-4.218-11.107c-.536-.84-.992-1.733-1.584-2.533l-1.786-2.4-2.004-2.213c-.654-.76-1.455-1.36-2.171-2.054a38.122 38.122 0 0 0-10.07-6.333l-2.805-1.027c-.941-.32-1.923-.506-2.881-.773-.974-.307-1.903-.387-2.844-.547l-1.407-.226c-.48-.08-1.069-.067-1.597-.107l-1.63-.08-.813-.053h-.204c.058 0-.202-.014.118 0h-.145l-.386.013-3.088.12c-2.077-.013-4.077.4-6.11.627-3.993.746-7.944 1.8-11.513 3.613-3.598 1.747-6.91 4.053-9.685 6.92-.696.72-1.394 1.427-2.001 2.227-.66.746-1.225 1.573-1.798 2.386-.546.827-1.09 1.667-1.54 2.547-.236.44-.465.867-.657 1.307-.206.426-.405.933-.523 1.226a2.65 2.65 0 0 1-3.237 1.88 2.656 2.656 0 0 1-1.95-2.306l-.033-.347-.185-1.92c-.066-.64-.206-1.267-.302-1.907-.257-1.24-.578-2.48-1.032-3.666-.182-.6-.454-1.174-.704-1.747-.23-.587-.539-1.133-.842-1.68-.278-.56-.626-1.08-.977-1.587-.325-.533-.714-1.013-1.108-1.48-.367-.493-.8-.92-1.23-1.36-.405-.453-.87-.84-1.325-1.226a15.588 15.588 0 0 0-2.95-1.987c-1.04-.56-2.139-.947-3.255-1.24-.535-.133-1.009-.173-1.512-.307-.656-.053-1.41-.08-2.11-.12.392.014.101.014.185.014h-.094l-.108.013-.215.013-.432.027c-.286.013-.576.013-.861.04-.565.12-1.14.173-1.7.32-1.117.293-2.216.68-3.256 1.24a15.61 15.61 0 0 0-2.95 1.987c-.455.386-.92.773-1.324 1.226-.43.44-.863.867-1.23 1.36-.394.467-.783.947-1.108 1.48-.351.507-.7 1.027-.977 1.587-.304.547-.613 1.093-.842 1.68-.251.573-.522 1.147-.705 1.747-.453 1.186-.775 2.426-1.032 3.666-.095.64-.235 1.267-.302 1.907l-.184 1.92a2.661 2.661 0 0 1-2.665 2.667 2.659 2.659 0 0 1-2.66-2.52l-.008-.147c-.271-5.213-2.04-10.307-5.237-14.133-1.605-1.894-3.49-3.507-5.627-4.56-.534-.267-1.09-.467-1.629-.707-.56-.16-1.137-.347-1.677-.48l-.76-.12c-.284-.04-.425-.133-.839-.133l-1.082-.054-.54-.026-.136-.014c.376.014.073.014.143.014h-.055l-.217.026c-4.672.08-9.122 2.734-12.03 6.72-1.465 1.987-2.571 4.267-3.277 6.68-.212.6-.32 1.214-.456 1.84-.16.627-.232 1.214-.3 1.787l-.123.88-.047 1.067-.045 1.08-.011.28c.005-.28.002-.04.003-.08v.2l.001.546.095 69.307-.03 17.333-.014 8.667.177 3.986c.194 1.307.373 2.614.601 3.907a36.755 36.755 0 0 0 6.49 14.32c3.155 4.227 7.224 7.8 11.86 10.347 1.201.546 2.364 1.186 3.588 1.68l1.861.68c.617.24 1.237.48 1.886.613 1.273.294 2.577.747 3.81.866 1.25.187 2.43.454 3.955.467l2.164.12.27.014h-.101l.064-.014h.128l.512-.026 1.025-.04c1.365-.067 2.74-.08 4.1-.187l4.035-.534c1.346-.173 2.627-.599 3.947-.866 5.184-1.387 10.08-3.68 14.225-6.974 2.007-1.72 3.91-3.586 5.528-5.68.788-1.066 1.547-2.16 2.209-3.293.333-.573.63-1.16.933-1.733.274-.56.573-1.213.736-1.653a2.652 2.652 0 0 1 3.237-1.867 2.64 2.64 0 0 1 1.95 2.293l.033.347.184 1.933c.067.64.207 1.267.302 1.894.257 1.253.579 2.493 1.032 3.667.183.613.454 1.186.705 1.759.229.587.538 1.134.842 1.68.278.56.626 1.067.977 1.587.325.52.714 1 1.108 1.48.367.494.8.92 1.23 1.347.404.466.869.84 1.325 1.24.91.786 1.91 1.44 2.95 1.986 1.04.547 2.138.947 3.255 1.24.534.134 1.009.173 1.511.294.657.053 1.41.08 2.11.12-.391-.014-.1 0-.184 0h.04l.054-.014h.108l.215-.013.43-.027c.288-.013.577-.013.863-.04.564-.12 1.14-.186 1.7-.32a15.378 15.378 0 0 0 3.256-1.24c1.038-.547 2.04-1.2 2.949-1.987.456-.4.92-.773 1.325-1.24.43-.426.863-.852 1.23-1.346.394-.48.783-.96 1.108-1.48.351-.52.7-1.026.977-1.587.303-.546.613-1.093.842-1.68.25-.573.522-1.146.704-1.76.454-1.173.775-2.413 1.032-3.666.096-.627.236-1.254.302-1.894l.185-1.933a2.677 2.677 0 0 1 2.706-2.627 2.676 2.676 0 0 1 2.615 2.454l.012.173.145 1.933c.06.64.198 1.267.288 1.907.25 1.253.563 2.493 1.01 3.68.18.613.452 1.187.704 1.76.229.587.539 1.133.842 1.693.279.56.627 1.08.98 1.587.325.533.716 1.013 1.11 1.494.37.493.803.92 1.235 1.36.407.453.879.839 1.339 1.226.92.786 1.93 1.44 2.977 1.973 1.047.547 2.153.934 3.273 1.227.538.12 1.014.16 1.518.28l1.913.107 1.721-.12c.563-.12 1.135-.187 1.692-.334a15.21 15.21 0 0 0 3.226-1.28c1.025-.56 2.012-1.213 2.905-2.013.448-.387.907-.773 1.299-1.24.413-.44.829-.867 1.178-1.373.38-.48.755-.947 1.064-1.48.336-.52.668-1.027.932-1.587.288-.547.582-1.093.795-1.68.233-.573.493-1.134.655-1.733.401-1.16.68-2.427.878-3.6.066-.6.179-1.107.226-1.787l.096-2.067zm6.662.214l-.085 2.133c-.044.746-.18 1.653-.277 2.467-.263 1.64-.602 3.173-1.114 4.72-.213.773-.536 1.52-.838 2.266-.282.76-.655 1.48-1.031 2.2-.348.734-.779 1.427-1.221 2.107-.415.707-.908 1.36-1.416 2-.482.667-1.044 1.267-1.616 1.867-.544.613-1.176 1.16-1.803 1.706a22.393 22.393 0 0 1-4.137 2.813c-1.486.801-3.086 1.387-4.73 1.827-.825.214-1.674.333-2.512.48-.846.08-1.7.107-2.549.16l-1.267-.08c-.366-.04-.686-.04-1.093-.093-.896-.16-1.841-.307-2.685-.533-1.634-.454-3.216-1.067-4.682-1.88-1.464-.813-2.84-1.76-4.066-2.853-.614-.547-1.235-1.094-1.762-1.72-.554-.6-1.098-1.214-1.562-1.867-.492-.654-.969-1.307-1.367-2-.428-.694-.842-1.373-1.175-2.107-.36-.72-.716-1.427-.982-2.187-.287-.746-.595-1.48-.79-2.253-.467-1.507-.77-3.067-.982-4.627-.072-.786-.185-1.56-.216-2.346l-.038-2.347h5.333v2.347c-.023.786-.134 1.573-.201 2.36-.205 1.56-.5 3.12-.96 4.64-.192.773-.502 1.52-.789 2.266-.266.747-.623 1.467-.983 2.187-.334.733-.748 1.427-1.176 2.107-.4.706-.878 1.36-1.372 2.013-.464.666-1.01 1.28-1.565 1.88-.53.626-1.158 1.16-1.776 1.707a22.093 22.093 0 0 1-4.094 2.84c-1.473.813-3.062 1.413-4.7 1.866-.82.213-1.668.334-2.503.494-.421.053-.848.08-1.272.106l-.638.04-.319.014-.16.013h-.079l-.04.014h-.02l-.218-.014c-.723-.053-1.399-.08-2.162-.147-.896-.16-1.844-.293-2.69-.52-1.638-.453-3.227-1.053-4.7-1.866a22.098 22.098 0 0 1-4.094-2.84c-.618-.547-1.246-1.08-1.776-1.707-.556-.6-1.101-1.214-1.565-1.88-.494-.653-.972-1.307-1.372-2.013-.428-.68-.843-1.374-1.176-2.107-.36-.72-.718-1.44-.984-2.187-.286-.746-.596-1.493-.788-2.266-.46-1.52-.755-3.08-.96-4.64-.068-.787-.178-1.574-.202-2.36v-2.347l5.22.773c-.283.947-.557 1.614-.869 2.374-.32.72-.648 1.44-1.015 2.133-.726 1.4-1.558 2.72-2.434 4.027-1.78 2.573-3.954 4.853-6.282 6.946-4.763 4.067-10.486 6.934-16.435 8.56-1.497.347-2.982.827-4.496 1.054l-4.543.68c-1.517.133-3.034.173-4.552.266l-1.139.04-.57.027-.141.014h-.072l-.236-.014-.271-.013-2.164-.094c-1.372-.013-3.036-.28-4.642-.52-1.649-.186-3.096-.68-4.632-1.04-.766-.173-1.502-.44-2.236-.706l-2.207-.814c-1.452-.586-2.838-1.32-4.256-1.986a43.947 43.947 0 0 1-14.093-12.2c-3.762-5-6.44-10.84-7.756-16.974-.284-1.533-.507-3.093-.73-4.64-.079-1.56-.184-3.16-.225-4.666l-.015-8.667L0 97.16l.095-69.307v-.546l.004-.414.012-.28.049-1.08.051-1.08.157-1.28c.1-.853.22-1.693.414-2.48.176-.786.33-1.586.598-2.36.927-3.12 2.377-6.106 4.354-8.773 1.974-2.653 4.487-4.973 7.453-6.64C16.141 1.24 19.561.253 23.009.187l.323-.027h.081c.115 0-.143-.013.278 0l.135.013.54.04 1.08.067c.312 0 .872.133 1.3.2l1.374.253c.855.227 1.653.494 2.474.747.779.347 1.575.667 2.33 1.053a23.159 23.159 0 0 1 7.592 6.427c2.003 2.613 3.476 5.56 4.424 8.64.911 3.08 1.337 6.28 1.214 9.44h-5.333v-2.347c.023-.786.133-1.56.2-2.346.206-1.56.5-3.12.96-4.654.193-.773.503-1.506.79-2.253.265-.76.623-1.467.983-2.187.333-.733.748-1.426 1.176-2.12.4-.693.878-1.346 1.372-2 .464-.666 1.01-1.28 1.565-1.88.53-.626 1.158-1.173 1.776-1.72a22.077 22.077 0 0 1 4.094-2.84c1.473-.8 3.062-1.413 4.7-1.866.82-.214 1.667-.334 2.503-.494.421-.053.847-.066 1.272-.093l.637-.04.32-.027h.16l.079-.013h.278c.723.053 1.398.08 2.161.16.897.147 1.845.293 2.691.507 1.638.453 3.227 1.066 4.7 1.866a22.09 22.09 0 0 1 4.094 2.84c.618.547 1.246 1.094 1.776 1.72.555.6 1.101 1.214 1.565 1.88.494.654.972 1.307 1.372 2 .428.694.843 1.387 1.176 2.12.36.72.717 1.427.983 2.187.287.747.597 1.48.79 2.253.46 1.534.754 3.094.959 4.654.067.786.178 1.56.202 2.346v2.347l-5.22-.76c.228-.733.417-1.24.656-1.813a20.9 20.9 0 0 1 .728-1.64c.498-1.094 1.085-2.107 1.688-3.12.627-1 1.256-2 1.985-2.92.68-.96 1.45-1.854 2.243-2.72 3.177-3.494 7.018-6.347 11.178-8.507 4.146-2.24 8.694-3.48 13.212-4.387 2.279-.306 4.56-.786 6.844-.813l3.428-.173.429-.027h.381l.203.013.815.04 1.628.08c.555.04 1.059.027 1.656.107l1.816.267c1.206.186 2.448.32 3.562.653 1.136.32 2.296.547 3.412.933l3.321 1.214a44.771 44.771 0 0 1 11.935 7.453c.853.813 1.788 1.547 2.569 2.427l2.372 2.613 2.121 2.84c.699.947 1.255 1.987 1.884 2.987a44.83 44.83 0 0 1 5.022 13.16l.538 3.493c.182 1.173.16 2.36.246 3.533.024.574.069 1.187.074 1.747l.002 1.627.002 3.266.011 13.04-.025 26.094-.05 52.186-.002.12-.002.027z" fill="#231F20" fill-rule="nonzero"/>
        <path d="M3.488 80.827c40.666 6 48.002-10.667 78.669-10.667 24.546 0 41.33 13.787 41.33 38.333v32.44" fill="#FFF" fill-rule="nonzero"/>
        <path d="M3.752 78.84s.684.093 1.967.24c1.298.187 3.135.36 5.477.56 2.362.147 5.232.347 8.511.293a85.41 85.41 0 0 0 10.94-.786c3.973-.574 8.216-1.52 12.656-2.88 4.449-1.347 9.105-3.094 14.129-4.667 5.013-1.587 10.415-2.907 16-3.547 5.59-.6 11.257-.773 17.048-.013 5.724.76 11.43 2.44 16.532 5.253 5.113 2.787 9.503 6.84 12.598 11.494 3.125 4.666 4.936 9.853 5.835 14.799.461 2.48.658 4.907.743 7.254.035 1.2.044 2.306.04 3.373 0 1.067.002 2.12.003 3.16l-.077 27.56a2.671 2.671 0 0 1-2.674 2.667 2.68 2.68 0 0 1-2.66-2.667l-.076-27.56.004-3.16a91.82 91.82 0 0 0-.029-3.213c-.072-2.107-.24-4.28-.642-6.454-.782-4.36-2.34-8.8-4.974-12.746-2.614-3.96-6.287-7.373-10.702-9.8-4.4-2.453-9.447-3.96-14.636-4.667-5.144-.733-10.58-.666-15.775-.16-5.215.52-10.253 1.68-15.11 3.134-4.857 1.466-9.585 3.173-14.227 4.506-4.635 1.36-9.173 2.32-13.393 2.867-4.225.533-8.127.68-11.564.627-3.442-.027-6.418-.294-8.865-.507-2.458-.267-4.389-.507-5.648-.707-1.278-.186-1.96-.28-1.96-.28a2.001 2.001 0 0 1-1.693-2.266 2.014 2.014 0 0 1 2.222-1.707" fill="#231F20" fill-rule="nonzero"/>
        <path d="M83.487 140.933V124.6c0-14.8-8.333-22.44-19.749-22.44-14.263 0-33.25 9.667-60.25.667" fill="#FFF" fill-rule="nonzero"/>
        <path d="M80.82 140.933l.062-17.32c-.051-2.373-.358-5-1.162-7.533-.795-2.547-2.117-5.027-4.094-6.987-1.96-1.96-4.575-3.373-7.518-4.013a20.744 20.744 0 0 0-4.55-.48l-1.28.026-1.18.067c-.82.053-1.644.134-2.475.24-3.325.4-6.708 1.054-10.083 1.667-3.374.6-6.744 1.187-10.044 1.586-6.6.8-12.902.88-18.24.333a74.11 74.11 0 0 1-12.719-2.359 66.316 66.316 0 0 1-3.465-1.04c-.794-.267-1.217-.4-1.217-.4a2.002 2.002 0 0 1-1.284-2.52 1.993 1.993 0 0 1 2.483-1.294l.066.013s.404.134 1.163.36c.756.24 1.874.56 3.305.934a69.818 69.818 0 0 0 12.045 2.013c5.039.427 10.96.24 17.273-.64 3.16-.44 6.423-1 9.77-1.653 3.346-.627 6.782-1.32 10.35-1.8a59.164 59.164 0 0 1 2.705-.28l1.417-.093 1.315-.04c1.945-.04 3.817.146 5.701.546 3.743.787 7.319 2.627 9.98 5.253 2.69 2.627 4.422 5.868 5.43 9 1.022 3.147 1.392 6.174 1.482 9l.098 17.414a2.655 2.655 0 0 1-2.651 2.68 2.66 2.66 0 0 1-2.682-2.654v-.026" fill="#231F20" fill-rule="nonzero"/>
        <path d="M141.839 38.387s-6.715 17.346-23.385 29.893" fill="#FFF" fill-rule="nonzero"/>
        <path d="M141.839 38.387s-6.715 17.346-23.385 29.893m1.553-25.72l24.641 25.64" stroke="#231F20" stroke-width="5.333" stroke-linecap="round" stroke-linejoin="round"/>
    </g>
</svg>
