<svg width="168" height="167" xmlns="http://www.w3.org/2000/svg">
    <title>
        wile
    </title>
    <g fill="none" fill-rule="evenodd">
        <path d="M163.821 83.493v40c0 22.093-17.909 40-40 40h-40c-44.184 0-80-35.813-80-80V27.04c0-13 8.954-23.547 20-23.547s20 10.547 20 23.547c0-13 8.954-23.547 20-23.547s20 10.547 20 23.547c0 0 7.111-23.547 40-23.547 22.091 0 40 17.907 40 40v40" fill="#FFF" fill-rule="nonzero"/>
        <path d="M163.821 83.493v40c0 22.093-17.909 40-40 40h-40c-44.184 0-80-35.813-80-80V27.04c0-13 8.954-23.547 20-23.547s20 10.547 20 23.547c0-13 8.954-23.547 20-23.547s20 10.547 20 23.547c0 0 7.111-23.547 40-23.547 22.091 0 40 17.907 40 40v40z" stroke="#231F20" stroke-width="6.667" stroke-linecap="round" stroke-linejoin="round"/>
        <path d="M83.488 68.533c0 11.8-11.385 21.374-25.43 21.374-14.043 0-25.429-9.574-25.429-21.374 0-11.8 11.386-21.373 25.43-21.373s25.429 9.573 25.429 21.373" fill="#FFF" fill-rule="nonzero"/>
        <path d="M80.155 68.533l-.062-1.346c-.048-.88-.252-2.174-.748-3.76a18.671 18.671 0 0 0-2.976-5.307c-1.501-1.88-3.628-3.747-6.33-5.227-.339-.186-.682-.373-1.027-.56a149.6 149.6 0 0 0-1.099-.48c-.726-.36-1.516-.6-2.318-.853-.788-.293-1.644-.413-2.487-.627-.847-.186-1.663-.253-2.515-.4-.49-.026-.985-.053-1.482-.093l-.752-.04-.379-.013h.067-.13l-.173.013c-.923.067-1.868.027-2.801.187-.47.053-.94.12-1.415.173-.47.08-.935.2-1.405.293-.954.174-1.864.507-2.803.787-3.655 1.32-7.177 3.507-9.696 6.56-1.24 1.533-2.341 3.2-2.983 5.027-.216.44-.282.933-.437 1.386l-.203.694-.1.64-.116.64c-.018.12-.045.213-.06.333l-.02.427-.081 1.72c.012-.334.005-.067.01-.134l.003.054.007.08.015.186.028.36.05.72c-.001.48.16.947.231 1.414l.132.706.22.68c.167.454.247.934.472 1.36.684 1.8 1.817 3.414 3.076 4.88 2.563 2.934 6.047 5 9.643 6.227.92.253 1.812.573 2.744.733.458.08.925.2 1.368.267l1.297.16.641.08.764.027c.514.026 1.023.04 1.531.053l.19.013h.042l.338-.013.67-.04c.446-.027.888-.04 1.328-.067 3.503-.333 6.708-1.346 9.374-2.733 2.668-1.4 4.801-3.173 6.345-4.96a17.737 17.737 0 0 0 3.087-5.16c.213-.787.525-1.533.572-2.053.093-.587.246-.947.252-1.56l.105-1.654-.005.2zm6.66.2l-.092 1.654c.009.453-.168 1.4-.332 2.36-.139 1.026-.506 1.973-.84 3.133a24.346 24.346 0 0 1-4.247 7.267c-2.08 2.48-4.917 4.826-8.387 6.586-3.458 1.773-7.53 3-11.91 3.387-.547.026-1.099.053-1.655.066l-.835.04-.42.014-.525-.027c-.507-.013-1.016-.04-1.53-.067l-.778-.053-.899-.106-1.808-.24c-.592-.107-1.149-.254-1.729-.374-1.159-.213-2.287-.613-3.433-.973-4.516-1.613-8.946-4.307-12.286-8.28-1.646-1.987-3.116-4.213-4.032-6.733-.281-.6-.413-1.267-.621-1.907l-.276-.96-.175-.987c-.096-.666-.272-1.32-.276-1.986l-.053-1.014-.024-.493-.012-.253-.005-.134-.003-.053c.001-.107-.007.133.003-.253l.126-1.72.031-.427.087-.52.193-1.053.207-1.054.294-.96c.22-.626.363-1.28.655-1.88.959-2.466 2.461-4.653 4.127-6.573 3.382-3.853 7.773-6.427 12.229-7.933 1.13-.347 2.237-.734 3.377-.934.567-.12 1.127-.266 1.69-.36a66.22 66.22 0 0 0 1.692-.213c1.12-.187 2.24-.147 3.341-.213l.207-.014h.316l.378.014.754.026c.504.014 1.004.027 1.5.054 1.104.133 2.241.213 3.276.413 1.024.227 2.054.373 3.024.693.98.294 1.946.56 2.862.947.462.173.92.347 1.374.52.438.213.873.427 1.302.627 3.435 1.693 6.28 3.92 8.4 6.32a23.397 23.397 0 0 1 4.359 7.12c.79 2.24 1.13 4.093 1.247 5.36l.138 1.946-.006.2z" fill="#231F20" fill-rule="nonzero"/>
        <path d="M71.893 119.16l8.438 17.333m17.108-17.333l8.437 17.333m17.108-17.333l8.437 17.333" stroke="#231F20" stroke-width="6.667" stroke-linecap="round" stroke-linejoin="round"/>
    </g>
</svg>
